# Blender 4.2.3 LTS
# www.blender.org
mtllib fence.mtl
o Cube.001
v 0.125775 2.200000 -1.150000
v 0.125775 2.400000 -1.150000
v 0.125775 2.200000 -1.350000
v 0.125775 2.400000 -1.350000
v 0.325775 2.200000 -1.150000
v 0.325775 2.400000 -1.150000
v 0.325775 2.200000 -1.350000
v 0.325775 2.400000 -1.350000
v 0.125775 2.500000 -1.150000
v 0.125775 2.500000 -1.350000
v 0.325775 2.500000 -1.350000
v 0.325775 2.500000 -1.150000
v 0.125775 2.200000 -1.050000
v 0.125775 2.400000 -1.050000
v 0.325775 2.400000 -1.050000
v 0.325775 2.200000 -1.050000
v 0.125775 2.400000 -1.450000
v 0.125775 2.200000 -1.450000
v 0.325775 2.200000 -1.450000
v 0.325775 2.400000 -1.450000
v 0.125775 2.100000 -1.350000
v 0.125775 2.100000 -1.150000
v 0.325775 2.100000 -1.350000
v 0.325775 2.100000 -1.150000
v 0.025775 2.200000 -1.350000
v 0.025775 2.200000 -1.150000
v 0.025775 2.400000 -1.150000
v 0.025775 2.400000 -1.350000
v 0.125775 1.900000 -1.150000
v 0.125775 2.100000 -1.150000
v 0.125775 1.900000 -1.350000
v 0.125775 2.100000 -1.350000
v 0.325775 1.900000 -1.150000
v 0.325775 2.100000 -1.150000
v 0.325775 1.900000 -1.350000
v 0.325775 2.100000 -1.350000
v 0.125775 2.200000 1.350000
v 0.125775 2.400000 1.350000
v 0.125775 2.200000 1.150000
v 0.125775 2.400000 1.150000
v 0.325775 2.200000 1.350000
v 0.325775 2.400000 1.350000
v 0.325775 2.200000 1.150000
v 0.325775 2.400000 1.150000
v 0.125775 2.500000 1.350000
v 0.125775 2.500000 1.150000
v 0.325775 2.500000 1.150000
v 0.325775 2.500000 1.350000
v 0.125775 2.200000 1.450000
v 0.125775 2.400000 1.450000
v 0.325775 2.400000 1.450000
v 0.325775 2.200000 1.450000
v 0.125775 2.400000 1.050000
v 0.125775 2.200000 1.050000
v 0.325775 2.200000 1.050000
v 0.325775 2.400000 1.050000
v 0.125775 2.100000 1.150000
v 0.125775 2.100000 1.350000
v 0.325775 2.100000 1.150000
v 0.325775 2.100000 1.350000
v 0.025775 2.200000 1.150000
v 0.025775 2.200000 1.350000
v 0.025775 2.400000 1.350000
v 0.025775 2.400000 1.150000
v 0.125775 1.900000 1.350000
v 0.125775 2.100000 1.350000
v 0.125775 1.900000 1.150000
v 0.125775 2.100000 1.150000
v 0.325775 1.900000 1.350000
v 0.325775 2.100000 1.350000
v 0.325775 1.900000 1.150000
v 0.325775 2.100000 1.150000
v -0.479169 0.238014 -1.550000
v -0.427405 0.431199 -1.550000
v -0.479169 0.238014 1.550000
v -0.427405 0.431199 1.550000
v -0.575762 0.263896 -1.550000
v -0.523998 0.457081 -1.550000
v -0.575761 0.263896 1.550000
v -0.523997 0.457081 1.550000
v -0.556814 -0.051764 1.550000
v 0.012588 2.073273 1.550000
v -0.556814 -0.051764 1.750000
v 0.012588 2.073273 1.750000
v -0.750000 0.000000 1.550000
v -0.180598 2.125037 1.550000
v -0.749999 0.000000 1.750000
v -0.180598 2.125037 1.750000
v -0.556815 -0.051764 -1.750000
v 0.012587 2.073273 -1.750000
v -0.556815 -0.051764 -1.550000
v 0.012587 2.073273 -1.550000
v -0.750000 0.000000 -1.750000
v -0.180598 2.125037 -1.750000
v -0.750000 0.000000 -1.550000
v -0.180598 2.125037 -1.550000
v -0.361772 1.448889 -1.950000
v -0.232362 1.931852 -1.950000
v -0.361771 1.448889 1.950000
v -0.232361 1.931852 1.950000
v -0.458364 1.474771 -1.950000
v -0.328955 1.957733 -1.950000
v -0.458364 1.474771 1.950000
v -0.328954 1.957733 1.950000
v -0.568827 0.676148 -1.950000
v -0.439417 1.159111 -1.950000
v -0.568826 0.676148 1.950000
v -0.439417 1.159111 1.950000
v -0.665419 0.702030 -1.950000
v -0.536010 1.184993 -1.950000
v -0.665419 0.702030 1.950000
v -0.536009 1.184993 1.950000
v 0.479169 0.238014 1.550000
v 0.427405 0.431199 1.550000
v 0.479169 0.238014 -1.549999
v 0.427405 0.431199 -1.549999
v 0.575762 0.263896 1.550000
v 0.523998 0.457081 1.550000
v 0.575762 0.263896 -1.549999
v 0.523998 0.457081 -1.549999
v 0.556815 -0.051764 -1.549999
v -0.012587 2.073273 -1.549999
v 0.556815 -0.051764 -1.749999
v -0.012587 2.073273 -1.749999
v 0.750000 0.000000 -1.549999
v 0.180598 2.125037 -1.549999
v 0.750000 0.000000 -1.749999
v 0.180598 2.125037 -1.749999
v 0.556815 -0.051764 1.750000
v -0.012587 2.073273 1.750001
v 0.556815 -0.051764 1.550001
v -0.012587 2.073273 1.550001
v 0.750000 0.000000 1.750000
v 0.180598 2.125037 1.750001
v 0.750000 0.000000 1.550001
v 0.180598 2.125037 1.550001
v 0.361771 1.448889 1.950001
v 0.232362 1.931852 1.950001
v 0.361771 1.448889 -1.949999
v 0.232362 1.931852 -1.949999
v 0.458364 1.474771 1.950001
v 0.328954 1.957734 1.950001
v 0.458364 1.474771 -1.949999
v 0.328955 1.957734 -1.949999
v 0.568827 0.676148 1.950001
v 0.439417 1.159111 1.950001
v 0.568827 0.676148 -1.949999
v 0.439417 1.159111 -1.949999
v 0.665419 0.702030 1.950001
v 0.536010 1.184993 1.950001
v 0.665419 0.702030 -1.949999
v 0.536010 1.184993 -1.949999
vn -0.0000 -0.0000 -1.0000
vn -0.0000 1.0000 -0.0000
vn 1.0000 -0.0000 -0.0000
vn -1.0000 -0.0000 -0.0000
vn -0.0000 -0.0000 1.0000
vn -0.0000 -1.0000 -0.0000
vn 0.9659 -0.2588 -0.0000
vn -0.9659 0.2588 -0.0000
vn -0.2588 -0.9659 -0.0000
vn 0.2588 0.9659 -0.0000
vn -0.9659 -0.2588 -0.0000
vn 0.9659 0.2588 -0.0000
vn 0.2588 -0.9659 -0.0000
vn -0.2588 0.9659 -0.0000
vt 0.461538 0.846154
vt 0.461538 0.794872
vt 0.487179 0.794872
vt 0.487179 0.846154
vt 0.410256 0.820513
vt 0.461538 0.820513
vt 0.410256 0.846154
vt 0.384615 0.794872
vt 0.384615 0.846154
vt 0.333333 0.846154
vt 0.333333 0.794872
vt 0.512821 0.846154
vt 0.512821 0.794872
vt 0.333333 0.769231
vt 0.384615 0.769231
vt 0.461538 0.871795
vt 0.410256 0.871795
vt 0.410256 0.794872
vt 0.384615 0.871795
vt 0.333333 0.871795
vt 0.564103 0.846154
vt 0.512821 0.871795
vt 0.564103 0.871795
vt 0.461538 0.769231
vt 0.410256 0.769231
vt 0.307692 0.846154
vt 0.307692 0.794872
vt 0.564103 0.794872
vt 0.589744 0.846154
vt 0.589744 0.794872
vt 0.564103 0.769231
vt 0.512821 0.769231
vt 0.333333 0.717949
vt 0.384615 0.717949
vt 0.256410 0.871795
vt 0.307692 0.871795
vt 0.307692 0.076923
vt 0.256410 0.076923
vt 0.205128 0.102564
vt 0.256410 0.102564
vt 0.205128 0.076923
vt 0.153846 0.076923
vt 0.205128 0.871795
vt 0.153846 0.871795
vt 0.179487 0.871795
vt 0.179487 0.076923
vt 0.102564 0.307692
vt 0.102564 0.871795
vt 0.153846 0.307692
vt 0.051282 0.871795
vt 0.051282 0.307692
vt 0.000000 0.871795
vt 0.000000 0.307692
vt 0.487179 0.564103
vt 0.538462 0.564103
vt 0.538462 0.512821
vt 0.487179 0.512821
vt 0.256410 0.589744
vt 0.205128 0.589744
vt 0.205128 0.538462
vt 0.256410 0.538462
vt 0.000000 1.000000
vt 1.000000 1.000000
vt 1.000000 0.871795
vt 0.974359 0.871795
vt 0.974359 1.000000
vt 0.025641 0.871795
vt 0.025641 1.000000
vt 0.000000 0.897436
vt 1.000000 0.897436
vt 1.000000 0.974359
vt 0.000000 0.974359
s 0
usemtl Material.001
f 4/1/1 3/2/1 25/3/1 28/4/1
f 4/5/2 8/6/2 20/1/2 17/7/2
f 7/8/3 8/9/3 6/10/3 5/11/3
f 2/12/4 1/13/4 13/3/4 14/4/4
f 7/8/3 5/11/3 24/14/3 23/15/3
f 8/7/1 4/1/1 10/16/1 11/17/1
f 11/1/2 10/7/2 9/18/2 12/2/2
f 6/10/3 8/9/3 11/19/3 12/20/3
f 4/21/4 2/12/4 9/22/4 10/23/4
f 2/1/5 6/7/5 12/17/5 9/16/5
f 16/18/5 15/7/5 14/1/5 13/2/5
f 1/18/6 5/2/6 16/24/6 13/25/6
f 6/16/2 2/17/2 14/7/2 15/1/2
f 5/11/3 6/10/3 15/26/3 16/27/3
f 18/2/1 17/1/1 20/7/1 19/18/1
f 3/28/4 4/21/4 17/29/4 18/30/4
f 8/9/3 7/8/3 19/18/3 20/7/3
f 7/24/6 3/25/6 18/18/6 19/2/6
f 21/5/6 23/6/6 24/24/6 22/25/6
f 5/18/5 1/2/5 22/24/5 24/25/5
f 3/2/1 7/18/1 23/25/1 21/24/1
f 1/13/4 3/28/4 21/31/4 22/32/4
f 26/13/4 27/12/4 28/21/4 25/28/4
f 1/2/5 2/1/5 27/4/5 26/3/5
f 2/3/2 4/4/2 28/1/2 27/2/2
f 3/24/6 1/25/6 26/18/6 25/2/6
f 29/33/4 30/14/4 32/15/4 31/34/4
f 31/33/1 32/14/1 36/15/1 35/34/1
f 35/34/3 36/15/3 34/14/3 33/33/3
f 33/34/5 34/15/5 30/14/5 29/33/5
f 31/14/6 35/15/6 33/34/6 29/33/6
f 36/15/2 32/14/2 30/33/2 34/34/2
f 40/1/1 39/2/1 61/3/1 64/4/1
f 40/5/2 44/6/2 56/1/2 53/7/2
f 43/8/3 44/9/3 42/10/3 41/11/3
f 38/12/4 37/13/4 49/3/4 50/4/4
f 43/8/3 41/11/3 60/14/3 59/15/3
f 44/7/1 40/1/1 46/16/1 47/17/1
f 47/1/2 46/7/2 45/18/2 48/2/2
f 42/10/3 44/9/3 47/19/3 48/20/3
f 40/21/4 38/12/4 45/22/4 46/23/4
f 38/1/5 42/7/5 48/17/5 45/16/5
f 52/18/5 51/7/5 50/1/5 49/2/5
f 37/18/6 41/2/6 52/24/6 49/25/6
f 42/16/2 38/17/2 50/7/2 51/1/2
f 41/11/3 42/10/3 51/26/3 52/27/3
f 54/2/1 53/1/1 56/7/1 55/18/1
f 39/28/4 40/21/4 53/29/4 54/30/4
f 44/9/3 43/8/3 55/18/3 56/7/3
f 43/24/6 39/25/6 54/18/6 55/2/6
f 57/5/6 59/6/6 60/24/6 58/25/6
f 41/18/5 37/2/5 58/24/5 60/25/5
f 39/2/1 43/18/1 59/25/1 57/24/1
f 37/13/4 39/28/4 57/31/4 58/32/4
f 62/13/4 63/12/4 64/21/4 61/28/4
f 37/2/5 38/1/5 63/4/5 62/3/5
f 38/3/2 40/4/2 64/1/2 63/2/2
f 39/24/6 37/25/6 62/18/6 61/2/6
f 65/33/4 66/14/4 68/15/4 67/34/4
f 67/33/1 68/14/1 72/15/1 71/34/1
f 71/34/3 72/15/3 70/14/3 69/33/3
f 69/34/5 70/15/5 66/14/5 65/33/5
f 67/14/6 71/15/6 69/34/6 65/33/6
f 72/15/2 68/14/2 66/33/2 70/34/2
f 73/35/7 74/36/7 76/37/7 75/38/7
f 75/39/5 76/40/5 80/38/5 79/41/5
f 79/42/8 80/41/8 78/43/8 77/44/8
f 77/41/1 78/38/1 74/40/1 73/39/1
f 75/44/9 79/45/9 77/46/9 73/42/9
f 80/46/10 76/41/10 74/43/10 78/45/10
f 81/47/7 82/48/7 84/44/7 83/49/7
f 83/47/5 84/48/5 88/50/5 87/51/5
f 87/51/8 88/50/8 86/52/8 85/53/8
f 85/51/1 86/50/1 82/48/1 81/47/1
f 83/54/9 87/55/9 85/56/9 81/57/9
f 88/58/10 84/59/10 82/60/10 86/61/10
f 89/47/7 90/48/7 92/44/7 91/49/7
f 91/47/5 92/48/5 96/50/5 95/51/5
f 95/51/8 96/50/8 94/52/8 93/53/8
f 93/51/1 94/50/1 90/48/1 89/47/1
f 91/54/9 95/55/9 93/56/9 89/57/9
f 96/58/10 92/59/10 90/60/10 94/61/10
f 97/52/7 98/62/7 100/63/7 99/64/7
f 99/65/5 100/66/5 104/63/5 103/64/5
f 103/64/8 104/63/8 102/62/8 101/52/8
f 101/67/1 102/68/1 98/62/1 97/52/1
f 99/52/9 103/69/9 101/70/9 97/64/9
f 104/71/10 100/63/10 98/62/10 102/72/10
f 105/52/7 106/62/7 108/63/7 107/64/7
f 107/65/5 108/66/5 112/63/5 111/64/5
f 111/64/8 112/63/8 110/62/8 109/52/8
f 109/67/1 110/68/1 106/62/1 105/52/1
f 107/52/9 111/69/9 109/70/9 105/64/9
f 112/71/10 108/63/10 106/62/10 110/72/10
f 113/35/11 114/36/11 116/37/11 115/38/11
f 115/39/1 116/40/1 120/38/1 119/41/1
f 119/42/12 120/41/12 118/43/12 117/44/12
f 117/41/5 118/38/5 114/40/5 113/39/5
f 115/44/13 119/45/13 117/46/13 113/42/13
f 120/46/14 116/41/14 114/43/14 118/45/14
f 121/47/11 122/48/11 124/44/11 123/49/11
f 123/47/1 124/48/1 128/50/1 127/51/1
f 127/51/12 128/50/12 126/52/12 125/53/12
f 125/51/5 126/50/5 122/48/5 121/47/5
f 123/54/13 127/55/13 125/56/13 121/57/13
f 128/58/14 124/59/14 122/60/14 126/61/14
f 129/47/11 130/48/11 132/44/11 131/49/11
f 131/47/1 132/48/1 136/50/1 135/51/1
f 135/51/12 136/50/12 134/52/12 133/53/12
f 133/51/5 134/50/5 130/48/5 129/47/5
f 131/54/13 135/55/13 133/56/13 129/57/13
f 136/58/14 132/59/14 130/60/14 134/61/14
f 137/52/11 138/62/11 140/63/11 139/64/11
f 139/65/1 140/66/1 144/63/1 143/64/1
f 143/64/12 144/63/12 142/62/12 141/52/12
f 141/67/5 142/68/5 138/62/5 137/52/5
f 139/52/13 143/69/13 141/70/13 137/64/13
f 144/71/14 140/63/14 138/62/14 142/72/14
f 145/52/11 146/62/11 148/63/11 147/64/11
f 147/65/1 148/66/1 152/63/1 151/64/1
f 151/64/12 152/63/12 150/62/12 149/52/12
f 149/67/5 150/68/5 146/62/5 145/52/5
f 147/52/13 151/69/13 149/70/13 145/64/13
f 152/71/14 148/63/14 146/62/14 150/72/14
