# Blender 3.3.1
# www.blender.org
mtllib GrassToPath_Road_InnerCorner.mtl
o Cube.791
v -0.050002 -0.000003 1.050002
v -0.050002 -0.000003 -0.049999
v -0.050002 0.099998 -0.049999
v -0.050002 0.099998 1.050002
v 1.050000 -0.000003 1.050002
v 1.050000 -0.000003 -0.049999
v 1.050000 0.099998 -0.049999
v -1.050112 0.099927 1.050114
v -1.050112 0.099927 -1.049976
v 1.049978 0.099927 1.050114
v 1.049978 0.099927 -1.049976
vn -0.0000 -0.0000 1.0000
vn -0.0000 1.0000 -0.0000
vn 1.0000 -0.0000 -0.0000
vt 0.656259 0.000000
vt 0.000000 0.656259
vt 0.656259 0.343741
vt 0.343741 0.656259
vt 0.343741 0.687509
vt 0.000000 0.687509
vt 1.000000 0.000000
vt 0.687481 0.656259
vt 1.000000 0.343741
vt 0.687481 0.687509
vt 0.000000 0.000000
vt 0.000000 0.656259
vt 0.656259 0.000000
vt 0.656259 0.656259
s 0
usemtl Material.001
f 6/8/1 7/10/1 3/5/1 2/4/1
f 6/9/2 2/3/2 1/1/2 5/7/2
f 3/5/3 4/6/3 1/2/3 2/4/3
f 10/13/2 11/14/2 9/12/2 8/11/2
