# Blender 4.2.3 LTS
# www.blender.org
mtllib new.sellbox_carrot.mtl
o Cube.003
v -0.650000 1.600000 0.650000
v 0.650000 1.600000 0.650000
v -0.650000 1.600000 -0.650000
v 0.650000 1.600000 -0.650000
v 0.385257 1.314581 -0.322359
v 0.405007 1.411200 -0.338931
v 0.320978 1.314581 -0.398963
v 0.340728 1.411200 -0.415535
v 0.459272 1.288800 -0.384465
v 0.479022 1.385419 -0.401037
v 0.394993 1.288800 -0.461069
v 0.414743 1.385419 -0.477641
v 0.484004 1.797678 -0.405218
v 0.419726 1.797678 -0.481822
v 0.493740 1.771898 -0.543928
v 0.558019 1.771898 -0.467323
v 0.345711 1.823460 -0.419716
v 0.469285 1.411200 -0.262326
v 0.548283 1.797678 -0.328613
v 0.474268 1.823460 -0.266507
v 0.395271 1.436981 -0.200220
v 0.617315 1.359638 -0.386538
v 0.696313 1.746116 -0.452825
v 0.276449 1.411200 -0.492140
v 0.202434 1.436981 -0.430034
v 0.281432 1.823460 -0.496321
v 0.503477 1.746116 -0.682638
v 0.424479 1.359638 -0.616351
v 0.503754 1.894298 -0.421789
v 0.439475 1.894298 -0.498394
v 0.513490 1.868517 -0.560500
v 0.577769 1.868517 -0.483895
v 0.324466 1.309442 0.387768
v 0.335628 1.407923 0.401070
v 0.401070 1.309442 0.323489
v 0.412232 1.407923 0.336791
v 0.387768 1.292077 0.463209
v 0.398930 1.390558 0.476511
v 0.464372 1.292077 0.398930
v 0.475534 1.390558 0.412232
v 0.380275 1.801846 0.454279
v 0.456880 1.801846 0.390000
v 0.520182 1.784481 0.465441
v 0.443577 1.784481 0.529720
v 0.393577 1.819211 0.314560
v 0.259023 1.407923 0.465349
v 0.303671 1.801846 0.518558
v 0.240369 1.819211 0.443117
v 0.195721 1.425288 0.389908
v 0.385628 1.373193 0.616230
v 0.430275 1.767116 0.669439
v 0.488837 1.407923 0.272513
v 0.425534 1.425288 0.197072
v 0.470182 1.819211 0.250281
v 0.660089 1.767116 0.476603
v 0.615441 1.373193 0.423394
v 0.391437 1.900327 0.467581
v 0.468042 1.900327 0.403303
v 0.531344 1.882962 0.478743
v 0.454739 1.882962 0.543022
v -0.436079 1.292867 0.454168
v -0.453444 1.391348 0.454168
v -0.444662 1.291354 0.354548
v -0.462027 1.389834 0.354548
v -0.337973 1.310166 0.445452
v -0.355338 1.408646 0.445452
v -0.346556 1.308652 0.345832
v -0.363921 1.407133 0.345832
v -0.522903 1.785271 0.454168
v -0.531486 1.783757 0.354548
v -0.433380 1.801056 0.345832
v -0.424797 1.802570 0.445452
v -0.629592 1.766459 0.363264
v -0.444861 1.392861 0.553787
v -0.514320 1.786784 0.553787
v -0.612426 1.769486 0.562503
v -0.542967 1.375562 0.562503
v -0.248649 1.427459 0.536356
v -0.318108 1.821382 0.536356
v -0.470610 1.388321 0.254929
v -0.568716 1.371022 0.263644
v -0.638175 1.764945 0.263644
v -0.343857 1.816841 0.237497
v -0.274398 1.422918 0.237497
v -0.540268 1.883752 0.454168
v -0.548851 1.882238 0.354548
v -0.450745 1.899537 0.345832
v -0.442162 1.901050 0.445452
v -0.402616 1.929105 -0.477759
v -0.385980 1.832512 -0.457932
v -0.461619 1.903243 -0.554244
v -0.444982 1.806651 -0.534417
v -0.481622 1.928079 -0.416464
v -0.464986 1.831486 -0.396638
v -0.540625 1.902217 -0.492949
v -0.523988 1.805625 -0.473122
v -0.319433 1.446142 -0.378626
v -0.378436 1.420281 -0.455110
v -0.457442 1.419254 -0.393816
v -0.398439 1.445116 -0.317331
v -0.299430 1.421307 -0.516405
v -0.326977 1.858374 -0.381448
v -0.260431 1.472004 -0.302141
v -0.181425 1.473030 -0.363436
v -0.247971 1.859400 -0.442743
v -0.484989 1.856322 -0.258859
v -0.418442 1.469951 -0.179552
v -0.503985 1.780789 -0.610901
v -0.424979 1.781815 -0.672196
v -0.358433 1.395445 -0.592889
v -0.595450 1.392367 -0.409005
v -0.661997 1.778737 -0.488312
v -0.302797 1.349550 -0.358799
v -0.361800 1.323688 -0.435283
v -0.440805 1.322662 -0.373989
v -0.381803 1.348523 -0.297504
vn -0.0000 1.0000 -0.0000
vn -0.7401 0.2578 0.6211
vn -0.6428 -0.0000 -0.7660
vn 0.7401 -0.2578 -0.6211
vn 0.6428 -0.0000 0.7660
vn -0.1975 -0.9662 0.1657
vn 0.1975 0.9662 -0.1657
vn -0.6330 0.1736 -0.7544
vn 0.7660 -0.0000 -0.6428
vn 0.6330 -0.1736 0.7544
vn -0.7660 -0.0000 0.6428
vn -0.1116 -0.9848 -0.1330
vn 0.1116 0.9848 0.1330
vn -0.9811 -0.1730 0.0872
vn -0.0858 -0.0151 -0.9962
vn 0.9811 0.1730 -0.0872
vn 0.0858 0.0151 0.9962
vn 0.1736 -0.9848 -0.0000
vn -0.1736 0.9848 -0.0000
vn 0.7901 0.0103 -0.6129
vn -0.5900 -0.2586 -0.7648
vn -0.7901 -0.0103 0.6129
vn 0.5900 0.2586 0.7648
vn -0.1664 0.9659 -0.1983
vn 0.1664 -0.9659 0.1983
vt -0.000000 -0.000000
vt 0.812500 -0.000000
vt 0.812500 0.812500
vt -0.000000 0.812500
vt 0.625000 0.812500
vt 0.625000 0.875000
vt 0.687500 0.875000
vt 0.687500 0.812500
vt 0.750000 0.812500
vt 0.750000 0.875000
vt 0.812500 0.875000
vt 0.812500 0.812500
vt 0.500000 0.875000
vt 0.500000 0.937500
vt 0.437500 0.937500
vt 0.437500 0.875000
vt 0.375000 0.937500
vt 0.437500 0.937500
vt 0.437500 0.875000
vt 0.375000 0.875000
vt 0.375000 0.812500
vt 0.437500 0.812500
vt 0.375000 0.875000
vt 0.500000 0.812500
vt 0.562500 0.812500
vt 0.562500 0.875000
vt 0.062500 0.875000
vt 0.062500 0.812500
vt -0.000000 0.812500
vt -0.000000 1.000000
vt 0.062500 1.000000
vt 0.062500 0.937500
vt 0.875000 0.000000
vt 1.000000 0.000000
vt 1.000000 0.250000
vt 0.875000 0.250000
vt 0.812500 0.250000
vt 0.812500 0.000000
vt 0.625000 0.875000
vt 0.812500 0.500000
vt 0.812500 0.750000
vt 0.937500 0.750000
vt 1.000000 0.750000
vt 1.000000 0.500000
vt 0.812500 0.500000
vt 0.187500 0.937500
vt 0.187500 0.812500
vt 0.250000 0.812500
vt 0.250000 0.875000
vt 0.250000 0.937500
vt 0.562500 0.937500
vt 0.375000 0.812500
vt 0.375000 1.000000
vt 0.187500 1.000000
vt 0.312500 0.937500
vt 0.312500 0.875000
vt 0.125000 0.875000
vt 0.125000 0.937500
vt 1.000000 1.000000
vt 0.812500 1.000000
s 0
usemtl Material.001
f 1/1/1 2/2/1 4/3/1 3/4/1
f 5/5/2 6/6/2 8/7/2 7/8/2
f 7/9/3 8/10/3 12/11/3 11/12/3
f 11/9/4 12/10/4 10/7/4 9/8/4
f 9/13/5 10/14/5 6/15/5 5/16/5
f 7/17/6 11/18/6 9/19/6 5/20/6
f 16/21/4 15/22/4 31/19/4 32/23/4
f 13/24/5 16/25/5 32/26/5 29/13/5
f 14/24/2 13/22/2 29/19/2 30/13/2
f 6/27/6 18/28/6 21/29/6 25/30/6 24/31/6 8/32/6
f 18/33/5 22/34/5 23/35/5 19/36/5 20/37/5 21/38/5
f 15/5/3 14/25/3 30/26/3 31/39/3
f 21/40/2 20/41/2 17/42/2 26/43/2 25/44/2
f 24/36/3 25/37/3 26/45/3 27/44/3 28/35/3
f 17/46/7 20/47/7 19/48/7 13/49/7 14/50/7
f 31/51/7 30/14/7 29/13/7 32/26/7
f 19/48/7 23/52/7 27/53/7 26/54/7 17/46/7 14/50/7 15/55/7 16/56/7 13/49/7
f 22/47/6 18/28/6 6/27/6 10/57/6 12/58/6 8/32/6 24/31/6 28/54/6
f 22/41/4 28/43/4 27/59/4 23/60/4
usemtl Material.004
f 33/5/8 34/6/8 36/7/8 35/8/8
f 35/9/9 36/10/9 40/11/9 39/12/9
f 39/9/10 40/10/10 38/7/10 37/8/10
f 37/13/11 38/14/11 34/15/11 33/16/11
f 35/17/12 39/18/12 37/19/12 33/20/12
f 44/21/10 43/22/10 59/19/10 60/23/10
f 41/24/11 44/25/11 60/26/11 57/13/11
f 42/24/8 41/22/8 57/19/8 58/13/8
f 34/27/12 46/28/12 49/29/12 53/30/12 52/31/12 36/32/12
f 46/33/11 50/34/11 51/35/11 47/36/11 48/37/11 49/38/11
f 43/5/9 42/25/9 58/26/9 59/39/9
f 49/40/8 48/41/8 45/42/8 54/43/8 53/44/8
f 52/36/9 53/37/9 54/45/9 55/44/9 56/35/9
f 45/46/13 48/47/13 47/48/13 41/49/13 42/50/13
f 59/51/13 58/14/13 57/13/13 60/26/13
f 47/48/13 51/52/13 55/53/13 54/54/13 45/46/13 42/50/13 43/55/13 44/56/13 41/49/13
f 50/47/12 46/28/12 34/27/12 38/57/12 40/58/12 36/32/12 52/31/12 56/54/12
f 50/41/10 56/43/10 55/59/10 51/60/10
usemtl Material.005
f 61/5/14 62/6/14 64/7/14 63/8/14
f 63/9/15 64/10/15 68/11/15 67/12/15
f 67/9/16 68/10/16 66/7/16 65/8/16
f 65/13/17 66/14/17 62/15/17 61/16/17
f 63/17/18 67/18/18 65/19/18 61/20/18
f 72/21/16 71/22/16 87/19/16 88/23/16
f 69/24/17 72/25/17 88/26/17 85/13/17
f 70/24/14 69/22/14 85/19/14 86/13/14
f 62/27/18 74/28/18 77/29/18 81/30/18 80/31/18 64/32/18
f 74/33/17 78/34/17 79/35/17 75/36/17 76/37/17 77/38/17
f 71/5/15 70/25/15 86/26/15 87/39/15
f 77/40/14 76/41/14 73/42/14 82/43/14 81/44/14
f 80/36/15 81/37/15 82/45/15 83/44/15 84/35/15
f 73/46/19 76/47/19 75/48/19 69/49/19 70/50/19
f 87/51/19 86/14/19 85/13/19 88/26/19
f 75/48/19 79/52/19 83/53/19 82/54/19 73/46/19 70/50/19 71/55/19 72/56/19 69/49/19
f 78/47/18 74/28/18 62/27/18 66/57/18 68/58/18 64/32/18 80/31/18 84/54/18
f 78/41/16 84/43/16 83/59/16 79/60/16
usemtl Material.006
f 89/5/20 90/6/20 92/7/20 91/8/20
f 91/9/21 92/10/21 96/11/21 95/12/21
f 95/9/22 96/10/22 94/7/22 93/8/22
f 93/13/23 94/14/23 90/15/23 89/16/23
f 91/17/24 95/18/24 93/19/24 89/20/24
f 100/21/22 99/22/22 115/19/22 116/23/22
f 97/24/23 100/25/23 116/26/23 113/13/23
f 98/24/20 97/22/20 113/19/20 114/13/20
f 90/27/24 102/28/24 105/29/24 109/30/24 108/31/24 92/32/24
f 102/33/23 106/34/23 107/35/23 103/36/23 104/37/23 105/38/23
f 99/5/21 98/25/21 114/26/21 115/39/21
f 105/40/20 104/41/20 101/42/20 110/43/20 109/44/20
f 108/36/21 109/37/21 110/45/21 111/44/21 112/35/21
f 101/46/25 104/47/25 103/48/25 97/49/25 98/50/25
f 115/51/25 114/14/25 113/13/25 116/26/25
f 103/48/25 107/52/25 111/53/25 110/54/25 101/46/25 98/50/25 99/55/25 100/56/25 97/49/25
f 106/47/24 102/28/24 90/27/24 94/57/24 96/58/24 92/32/24 108/31/24 112/54/24
f 106/41/22 112/43/22 111/59/22 107/60/22
