# Blender 4.2.3 LTS
# www.blender.org
mtllib new.sellbox_beet.mtl
o Plane.001
v -0.650000 1.600000 0.650000
v 0.650000 1.600000 0.650000
v -0.650000 1.600000 -0.650000
v 0.650000 1.600000 -0.650000
v 0.477414 1.469290 -0.282143
v 0.391386 1.494614 -0.326391
v 0.438003 1.498547 -0.414773
v 0.351975 1.523872 -0.459021
v 0.219330 1.545262 -0.414887
v 0.617264 1.481091 -0.547289
v 0.359181 1.557063 -0.680033
v 0.539338 1.759270 -0.236575
v 0.453310 1.784595 -0.280823
v 0.499927 1.788528 -0.369205
v 0.679189 1.771072 -0.501721
v 0.281254 1.835243 -0.369319
v 0.327871 1.839177 -0.457701
v 0.421105 1.847044 -0.634465
v 0.445209 1.531739 -0.635785
v 0.484620 1.502481 -0.503155
v 0.398592 1.527805 -0.547403
v 0.417361 1.401887 -0.429963
v 0.331333 1.427211 -0.474211
v 0.463978 1.405821 -0.518345
v 0.377950 1.431145 -0.562593
v 0.413899 1.813852 -0.413453
v 0.546544 1.792462 -0.457587
v 0.460516 1.817786 -0.501835
v 0.434540 1.910513 -0.398264
v 0.520568 1.885189 -0.354016
v 0.567185 1.889122 -0.442398
v 0.481157 1.914446 -0.486646
v 0.452360 1.497993 0.671200
v 0.372262 1.528428 0.619644
v 0.420456 1.510115 0.533959
v 0.340359 1.540550 0.482403
v 0.212066 1.589298 0.516531
v 0.596943 1.443055 0.414145
v 0.356650 1.534360 0.259476
v 0.558918 1.778430 0.671200
v 0.478820 1.808865 0.619644
v 0.527015 1.790553 0.533959
v 0.703502 1.723493 0.414145
v 0.318625 1.869735 0.516531
v 0.366819 1.851423 0.430846
v 0.463208 1.814798 0.259476
v 0.436747 1.503925 0.311032
v 0.468651 1.491803 0.448274
v 0.388553 1.522238 0.396717
v 0.384937 1.416636 0.533959
v 0.304839 1.447071 0.482403
v 0.433131 1.398323 0.448274
v 0.353033 1.428758 0.396717
v 0.446917 1.820988 0.482403
v 0.575209 1.772240 0.448274
v 0.495111 1.802675 0.396717
v 0.482436 1.914467 0.482403
v 0.562534 1.884032 0.533959
v 0.610729 1.865720 0.448274
v 0.530631 1.896155 0.396717
v -0.665686 1.803959 0.354013
v -0.677417 1.779878 0.450359
v -0.581729 1.803098 0.467813
v -0.593460 1.779016 0.564159
v -0.700879 1.731715 0.643050
v -0.378623 1.873618 0.406376
v -0.413815 1.801374 0.695413
v -0.585963 1.521243 0.293056
v -0.597694 1.497162 0.389401
v -0.502006 1.520381 0.406856
v -0.298899 1.590902 0.345419
v -0.621156 1.448999 0.582093
v -0.525468 1.472219 0.599547
v -0.334092 1.518658 0.634456
v -0.402084 1.825456 0.599067
v -0.486041 1.826317 0.485267
v -0.497772 1.802236 0.581613
v -0.608304 1.897336 0.488132
v -0.620034 1.873255 0.584478
v -0.512616 1.920556 0.505586
v -0.524346 1.896475 0.601932
v -0.513737 1.496300 0.503201
v -0.406318 1.543601 0.424310
v -0.418049 1.519520 0.520656
v -0.487162 1.402061 0.482882
v -0.475432 1.426143 0.386537
v -0.379744 1.449362 0.403991
v -0.391474 1.425281 0.500337
v -0.692060 1.490242 -0.441204
v -0.622138 1.478547 -0.511733
v -0.552217 1.510295 -0.447677
v -0.482296 1.498600 -0.518206
v -0.482296 1.455158 -0.652789
v -0.482296 1.585485 -0.249038
v -0.272532 1.550401 -0.460623
v -0.736760 1.772550 -0.532331
v -0.666839 1.760855 -0.602859
v -0.596917 1.792603 -0.538804
v -0.526996 1.867793 -0.340165
v -0.526996 1.737466 -0.743916
v -0.457074 1.769214 -0.679861
v -0.317232 1.832709 -0.551750
v -0.342453 1.562096 -0.390095
v -0.482296 1.542043 -0.383622
v -0.412374 1.530348 -0.454150
v -0.537317 1.416192 -0.417302
v -0.467396 1.404498 -0.487830
v -0.467396 1.447940 -0.353246
v -0.397474 1.436245 -0.423775
v -0.526996 1.780908 -0.609332
v -0.526996 1.824351 -0.474749
v -0.457074 1.812656 -0.545277
v -0.541896 1.875011 -0.639708
v -0.611817 1.886706 -0.569180
v -0.541896 1.918453 -0.505124
v -0.471975 1.906759 -0.575653
v 0.110000 1.698790 -0.600000
v 0.110000 1.698790 -0.700000
v 0.110000 1.798790 -0.700000
v 0.110000 1.798790 -0.800000
v 0.110000 1.698790 -0.900000
v 0.110000 1.998790 -0.600000
v 0.110000 1.998790 -0.900000
v -0.190000 1.698790 -0.600000
v -0.190000 1.698790 -0.700000
v -0.190000 1.798790 -0.700000
v -0.190000 1.998790 -0.600000
v -0.190000 1.698790 -0.900000
v -0.190000 1.798790 -0.900000
v -0.190000 1.998790 -0.900000
v 0.110000 1.998790 -0.800000
v 0.110000 1.898790 -0.700000
v 0.110000 1.898790 -0.800000
v 0.210000 1.798790 -0.700000
v 0.210000 1.798790 -0.800000
v 0.210000 1.898790 -0.700000
v 0.210000 1.898790 -0.800000
v -0.190000 1.798790 -0.800000
v -0.190000 1.898790 -0.700000
v -0.190000 1.898790 -0.800000
v -0.290000 1.798790 -0.800000
v -0.290000 1.798790 -0.700000
v -0.290000 1.898790 -0.700000
v -0.290000 1.898790 -0.800000
vn -0.0000 1.0000 -0.0000
vn 0.2064 0.9666 0.1519
vn 0.4662 0.0393 -0.8838
vn -0.2064 -0.9666 -0.1519
vn -0.4662 -0.0393 0.8838
vn 0.8603 -0.2532 0.4425
vn -0.8603 0.2532 -0.4425
vn 0.3552 0.9348 -0.0000
vn 0.4819 -0.1831 -0.8569
vn -0.3552 -0.9348 -0.0000
vn -0.4819 0.1831 0.8569
vn 0.8010 -0.3043 0.5156
vn -0.8010 0.3043 -0.5156
vn 0.2657 -0.9424 -0.2032
vn 0.9569 0.2322 0.1745
vn -0.2657 0.9424 0.2032
vn -0.9569 -0.2322 -0.1745
vn 0.1173 0.2408 -0.9635
vn -0.1173 -0.2408 0.9635
vn -0.1490 0.9410 -0.3038
vn 0.6992 0.3175 0.6406
vn 0.1490 -0.9410 0.3038
vn -0.6992 -0.3175 -0.6406
vn -0.6992 0.1169 0.7053
vn 0.6992 -0.1169 -0.7053
vn -1.0000 -0.0000 -0.0000
vn 1.0000 -0.0000 -0.0000
vn -0.0000 -1.0000 -0.0000
vn -0.0000 -0.0000 1.0000
vn -0.0000 -0.0000 -1.0000
vt 0.000000 0.812500
vt -0.000000 0.000000
vt 0.812500 0.000000
vt 0.812500 0.812500
vt 0.312500 0.812500
vt 0.312500 0.875000
vt 0.250000 0.875000
vt 0.250000 0.937500
vt 0.312500 0.937500
vt 0.375000 0.937500
vt 0.375000 1.000000
vt 0.187500 1.000000
vt 0.187500 0.812500
vt 1.000000 0.062500
vt 1.000000 0.250000
vt 0.812500 0.250000
vt 0.812500 0.062500
vt 0.937500 0.062500
vt -0.000000 0.812500
vt -0.000000 0.875000
vt 0.062500 0.875000
vt 0.125000 0.875000
vt 0.125000 0.937500
vt 0.187500 0.937500
vt 0.875000 0.250000
vt 0.875000 0.062500
vt 0.062500 0.937500
vt -0.000000 1.000000
vt 0.375000 0.812500
vt 0.937500 0.000000
vt 0.875000 0.000000
vt 0.500000 0.937500
vt 0.500000 0.875000
vt 0.562500 0.875000
vt 0.562500 0.937500
s 0
usemtl Material
f 1/1/1 2/2/1 4/3/1 3/4/1
f 17/5/2 26/6/2 28/7/2 27/8/2 14/9/2 13/10/2 12/11/2 15/12/2 18/13/2
f 11/14/3 18/15/3 15/16/3 10/17/3 19/18/3
f 9/13/4 11/19/4 19/20/4 21/21/4 8/22/4 7/23/4 6/24/4
f 5/17/5 12/16/5 13/25/5 16/15/5 9/14/5 6/26/5
f 15/15/6 12/16/6 5/17/6 10/14/6
f 9/17/7 16/16/7 17/25/7 18/15/7 11/14/7
f 7/23/4 20/27/4 21/21/4 19/20/4 10/28/4 5/12/4 6/24/4
f 13/10/2 14/9/2 26/6/2 17/5/2 16/29/2
f 7/30/5 8/31/5 23/26/5 22/18/5
f 22/26/4 23/18/4 25/30/4 24/31/4
f 8/18/7 21/30/7 25/31/7 23/26/7
f 20/30/6 7/18/6 22/26/6 24/31/6
f 21/31/3 20/30/3 24/18/3 25/26/3
f 14/32/6 27/33/6 31/34/6 30/35/6
f 29/35/2 30/32/2 31/33/2 32/34/2
f 26/34/5 14/33/5 30/32/5 29/35/5
f 27/33/3 28/34/3 32/35/3 31/32/3
f 28/33/7 26/32/7 29/35/7 32/34/7
usemtl Material.008
f 45/5/8 54/6/8 56/7/8 55/8/8 42/9/8 41/10/8 40/11/8 43/12/8 46/13/8
f 39/14/9 46/15/9 43/16/9 38/17/9 47/18/9
f 37/13/10 39/19/10 47/20/10 49/21/10 36/22/10 35/23/10 34/24/10
f 33/17/11 40/16/11 41/25/11 44/15/11 37/14/11 34/26/11
f 43/15/12 40/16/12 33/17/12 38/14/12
f 37/17/13 44/16/13 45/25/13 46/15/13 39/14/13
f 35/23/10 48/27/10 49/21/10 47/20/10 38/28/10 33/12/10 34/24/10
f 41/10/8 42/9/8 54/6/8 45/5/8 44/29/8
f 35/30/11 36/31/11 51/26/11 50/18/11
f 50/26/10 51/18/10 53/30/10 52/31/10
f 36/18/13 49/30/13 53/31/13 51/26/13
f 48/30/12 35/18/12 50/26/12 52/31/12
f 49/31/9 48/30/9 52/18/9 53/26/9
f 42/32/12 55/33/12 59/34/12 58/35/12
f 57/35/8 58/32/8 59/33/8 60/34/8
f 54/34/11 42/33/11 58/32/11 57/35/11
f 55/33/9 56/34/9 60/35/9 59/32/9
f 56/33/13 54/32/13 57/35/13 60/34/13
usemtl Material.009
f 73/5/14 82/6/14 84/7/14 83/8/14 70/9/14 69/10/14 68/11/14 71/12/14 74/13/14
f 67/14/15 74/15/15 71/16/15 66/17/15 75/18/15
f 65/13/16 67/19/16 75/20/16 77/21/16 64/22/16 63/23/16 62/24/16
f 61/17/17 68/16/17 69/25/17 72/15/17 65/14/17 62/26/17
f 71/15/18 68/16/18 61/17/18 66/14/18
f 65/17/19 72/16/19 73/25/19 74/15/19 67/14/19
f 63/23/16 76/27/16 77/21/16 75/20/16 66/28/16 61/12/16 62/24/16
f 69/10/14 70/9/14 82/6/14 73/5/14 72/29/14
f 63/30/17 64/31/17 79/26/17 78/18/17
f 78/26/16 79/18/16 81/30/16 80/31/16
f 64/18/19 77/30/19 81/31/19 79/26/19
f 76/30/18 63/18/18 78/26/18 80/31/18
f 77/31/15 76/30/15 80/18/15 81/26/15
f 70/32/18 83/33/18 87/34/18 86/35/18
f 85/35/14 86/32/14 87/33/14 88/34/14
f 82/34/17 70/33/17 86/32/17 85/35/17
f 83/33/15 84/34/15 88/35/15 87/32/15
f 84/33/19 82/32/19 85/35/19 88/34/19
usemtl Material.010
f 101/5/20 110/6/20 112/7/20 111/8/20 98/9/20 97/10/20 96/11/20 99/12/20 102/13/20
f 95/14/21 102/15/21 99/16/21 94/17/21 103/18/21
f 93/13/22 95/19/22 103/20/22 105/21/22 92/22/22 91/23/22 90/24/22
f 89/17/23 96/16/23 97/25/23 100/15/23 93/14/23 90/26/23
f 99/15/24 96/16/24 89/17/24 94/14/24
f 93/17/25 100/16/25 101/25/25 102/15/25 95/14/25
f 91/23/22 104/27/22 105/21/22 103/20/22 94/28/22 89/12/22 90/24/22
f 97/10/20 98/9/20 110/6/20 101/5/20 100/29/20
f 91/30/23 92/31/23 107/26/23 106/18/23
f 106/26/22 107/18/22 109/30/22 108/31/22
f 92/18/25 105/30/25 109/31/25 107/26/25
f 104/30/24 91/18/24 106/26/24 108/31/24
f 105/31/21 104/30/21 108/18/21 109/26/21
f 98/32/24 111/33/24 115/34/24 114/35/24
f 113/35/20 114/32/20 115/33/20 116/34/20
f 110/34/23 98/33/23 114/32/23 113/35/23
f 111/33/21 112/34/21 116/35/21 115/32/21
f 112/33/25 110/32/25 113/35/25 116/34/25
usemtl Material.011
f 129/5/26 138/6/26 140/7/26 139/8/26 126/9/26 125/10/26 124/11/26 127/12/26 130/13/26
f 123/14/1 130/15/1 127/16/1 122/17/1 131/18/1
f 121/13/27 123/19/27 131/20/27 133/21/27 120/22/27 119/23/27 118/24/27
f 117/17/28 124/16/28 125/25/28 128/15/28 121/14/28 118/26/28
f 127/15/29 124/16/29 117/17/29 122/14/29
f 121/17/30 128/16/30 129/25/30 130/15/30 123/14/30
f 119/23/27 132/27/27 133/21/27 131/20/27 122/28/27 117/12/27 118/24/27
f 125/10/26 126/9/26 138/6/26 129/5/26 128/29/26
f 119/30/28 120/31/28 135/26/28 134/18/28
f 134/26/27 135/18/27 137/30/27 136/31/27
f 120/18/30 133/30/30 137/31/30 135/26/30
f 132/30/29 119/18/29 134/26/29 136/31/29
f 133/31/1 132/30/1 136/18/1 137/26/1
f 126/32/29 139/33/29 143/34/29 142/35/29
f 141/35/26 142/32/26 143/33/26 144/34/26
f 138/34/28 126/33/28 142/32/28 141/35/28
f 139/33/1 140/34/1 144/35/1 143/32/1
f 140/33/30 138/32/30 141/35/30 144/34/30
