# Blender 4.2.3 LTS
# www.blender.org
mtllib new.sellbox_apple.mtl
o Plane.002
v -0.650000 1.600000 0.650000
v 0.650000 1.600000 0.650000
v -0.650000 1.600000 -0.650000
v 0.650000 1.600000 -0.650000
v -0.012531 1.500000 -0.012531
v -0.012531 1.800000 -0.012531
v -0.012531 1.500000 -0.312532
v -0.012531 1.800000 -0.312532
v 0.287469 1.500000 -0.012531
v 0.287469 1.800000 -0.012531
v 0.287469 1.500000 -0.312532
v 0.287469 1.800000 -0.312532
v 0.287469 1.800000 -0.212531
v 0.087469 1.800000 -0.012531
v 0.187469 1.800000 -0.212531
v 0.187469 1.800000 -0.112531
v 0.087469 1.800000 -0.212531
v 0.087469 1.800000 -0.112531
v 0.187469 1.900000 -0.212531
v 0.187469 1.900000 -0.112531
v 0.087469 1.900000 -0.212531
v 0.087469 1.900000 -0.112531
v -0.312531 1.500000 0.587469
v -0.312531 1.800000 0.587469
v -0.312531 1.500000 0.287469
v -0.312531 1.800000 0.287469
v -0.012531 1.500000 0.587469
v -0.012531 1.800000 0.587469
v -0.012531 1.500000 0.287469
v -0.012531 1.800000 0.287469
v -0.012531 1.800000 0.387469
v -0.212531 1.800000 0.587469
v -0.112531 1.800000 0.387469
v -0.112531 1.800000 0.487469
v -0.212531 1.800000 0.387469
v -0.212531 1.800000 0.487469
v -0.112531 1.900000 0.387469
v -0.112531 1.900000 0.487469
v -0.212531 1.900000 0.387469
v -0.212531 1.900000 0.487469
v -0.368211 1.527869 -0.359195
v -0.325654 1.824836 -0.359195
v -0.287114 1.516248 -0.647793
v -0.244557 1.813214 -0.647793
v -0.082532 1.486930 -0.277270
v -0.039975 1.783897 -0.277270
v -0.001435 1.475309 -0.565868
v 0.041121 1.772275 -0.565868
v 0.014089 1.776149 -0.469669
v -0.230428 1.811189 -0.331887
v -0.081137 1.789795 -0.496977
v -0.108169 1.793669 -0.400778
v -0.176363 1.803442 -0.524285
v -0.203396 1.807315 -0.428086
v -0.066952 1.888784 -0.496977
v -0.093984 1.892658 -0.400778
v -0.162178 1.902430 -0.524285
v -0.189210 1.906304 -0.428086
v -0.668211 1.527869 0.240805
v -0.625654 1.824836 0.240805
v -0.587114 1.516248 -0.047793
v -0.544558 1.813214 -0.047793
v -0.382532 1.486930 0.322730
v -0.339975 1.783897 0.322730
v -0.301435 1.475309 0.034132
v -0.258879 1.772275 0.034132
v -0.285911 1.776149 0.130332
v -0.530428 1.811189 0.268113
v -0.381137 1.789795 0.103023
v -0.408169 1.793669 0.199222
v -0.476363 1.803442 0.075715
v -0.503396 1.807315 0.171914
v -0.366952 1.888784 0.103023
v -0.393984 1.892658 0.199222
v -0.462178 1.902430 0.075715
v -0.489210 1.906304 0.171914
v 0.231789 1.527869 0.240805
v 0.274346 1.824836 0.240805
v 0.312886 1.516248 -0.047793
v 0.355443 1.813214 -0.047793
v 0.517468 1.486930 0.322730
v 0.560025 1.783897 0.322730
v 0.598565 1.475309 0.034132
v 0.641121 1.772275 0.034132
v 0.614089 1.776149 0.130332
v 0.369572 1.811189 0.268113
v 0.518863 1.789795 0.103023
v 0.491831 1.793669 0.199222
v 0.423637 1.803442 0.075715
v 0.396604 1.807315 0.171914
v 0.533048 1.888784 0.103023
v 0.506016 1.892658 0.199222
v 0.437822 1.902430 0.075715
v 0.410790 1.906304 0.171914
v -0.026986 1.588291 -0.267832
v 0.021967 1.865916 -0.370438
v -0.044803 1.487244 -0.549739
v 0.004150 1.764869 -0.652345
v 0.268456 1.536197 -0.267832
v 0.317409 1.813822 -0.370438
v 0.250639 1.435149 -0.549739
v 0.299592 1.712774 -0.652345
v 0.305531 1.746457 -0.558376
v 0.120448 1.848551 -0.370438
v 0.207050 1.763822 -0.558376
v 0.212989 1.797504 -0.464407
v 0.108569 1.781186 -0.558376
v 0.114509 1.814869 -0.464407
v 0.223368 1.856363 -0.592578
v 0.229307 1.890046 -0.498609
v 0.124887 1.873728 -0.592578
v 0.130826 1.907411 -0.498609
v -0.326986 1.588291 0.332168
v -0.278033 1.865916 0.229562
v -0.344803 1.487244 0.050261
v -0.295850 1.764869 -0.052345
v -0.031544 1.536197 0.332168
v 0.017409 1.813822 0.229562
v -0.049361 1.435149 0.050261
v -0.000408 1.712774 -0.052345
v 0.005531 1.746457 0.041624
v -0.179552 1.848551 0.229562
v -0.092950 1.763822 0.041624
v -0.087011 1.797504 0.135593
v -0.191431 1.781186 0.041624
v -0.185491 1.814869 0.135593
v -0.076632 1.856363 0.007422
v -0.070693 1.890046 0.101391
v -0.175113 1.873728 0.007422
v -0.169174 1.907411 0.101391
v -0.026986 1.588291 0.632168
v 0.021967 1.865916 0.529562
v -0.044803 1.487244 0.350261
v 0.004150 1.764869 0.247655
v 0.268456 1.536197 0.632168
v 0.317409 1.813822 0.529562
v 0.250639 1.435149 0.350261
v 0.299592 1.712774 0.247655
v 0.305531 1.746457 0.341624
v 0.120448 1.848551 0.529562
v 0.207050 1.763822 0.341624
v 0.212989 1.797504 0.435593
v 0.108569 1.781186 0.341624
v 0.114509 1.814869 0.435593
v 0.223368 1.856363 0.307422
v 0.229307 1.890046 0.401391
v 0.124887 1.873728 0.307422
v 0.130826 1.907411 0.401391
v -0.334899 1.813679 -0.286950
v -0.357531 1.516799 -0.250207
v -0.254629 1.843149 0.000606
v -0.277261 1.546269 0.037349
v -0.046724 1.782154 -0.364162
v -0.069356 1.485274 -0.327418
v 0.033545 1.811624 -0.076606
v 0.010913 1.514744 -0.039863
v -0.015843 1.504921 -0.135715
v -0.261472 1.506291 -0.275944
v -0.111901 1.515429 -0.109977
v -0.138658 1.505606 -0.205829
v -0.207959 1.525937 -0.084240
v -0.234716 1.516114 -0.180092
v -0.119445 1.416469 -0.097730
v -0.146202 1.406646 -0.193582
v -0.215503 1.426977 -0.071993
v -0.242260 1.417154 -0.167844
v 0.265101 1.813679 -0.286950
v 0.242469 1.516799 -0.250207
v 0.345371 1.843149 0.000606
v 0.322739 1.546269 0.037349
v 0.553276 1.782154 -0.364162
v 0.530644 1.485274 -0.327418
v 0.633546 1.811624 -0.076606
v 0.610914 1.514744 -0.039863
v 0.584157 1.504921 -0.135715
v 0.338528 1.506291 -0.275944
v 0.488099 1.515429 -0.109977
v 0.461342 1.505606 -0.205829
v 0.392041 1.525937 -0.084240
v 0.365284 1.516114 -0.180092
v 0.480555 1.416469 -0.097730
v 0.453798 1.406646 -0.193582
v 0.384497 1.426977 -0.071993
v 0.357740 1.417154 -0.167844
v -0.520182 1.505421 0.045677
v -0.621229 1.783046 -0.006418
v -0.575935 1.431580 -0.239699
v -0.676982 1.709205 -0.291793
v -0.243269 1.591861 -0.030789
v -0.344316 1.869486 -0.082884
v -0.299022 1.518020 -0.316165
v -0.400069 1.795645 -0.368259
v -0.381485 1.820258 -0.273134
v -0.528925 1.811859 -0.031906
v -0.473789 1.791445 -0.247645
v -0.455205 1.816059 -0.152520
v -0.566094 1.762632 -0.222157
v -0.547509 1.787245 -0.127031
v -0.507472 1.883987 -0.265010
v -0.488887 1.908600 -0.169885
v -0.599776 1.855173 -0.239521
v -0.581192 1.879787 -0.144396
v 0.079818 1.505421 0.345677
v -0.021229 1.783046 0.293582
v 0.024065 1.431580 0.060301
v -0.076982 1.709205 0.008207
v 0.356731 1.591861 0.269211
v 0.255684 1.869486 0.217116
v 0.300978 1.518020 -0.016165
v 0.199931 1.795645 -0.068259
v 0.218515 1.820258 0.026866
v 0.071075 1.811859 0.268094
v 0.126211 1.791445 0.052355
v 0.144795 1.816059 0.147480
v 0.033906 1.762632 0.077843
v 0.052491 1.787245 0.172969
v 0.092529 1.883987 0.034990
v 0.111113 1.908600 0.130115
v 0.000224 1.855173 0.060479
v 0.018808 1.879787 0.155604
vn -0.0000 1.0000 -0.0000
vn -1.0000 -0.0000 -0.0000
vn -0.0000 -0.0000 -1.0000
vn 1.0000 -0.0000 -0.0000
vn -0.0000 -0.0000 1.0000
vn -0.0000 -1.0000 -0.0000
vn -0.9523 0.1365 -0.2731
vn 0.2703 -0.0387 -0.9620
vn 0.9523 -0.1365 0.2731
vn -0.2703 0.0387 0.9620
vn -0.1419 -0.9899 -0.0000
vn 0.1419 0.9899 -0.0000
vn -0.9848 0.1736 -0.0000
vn -0.0594 -0.3368 -0.9397
vn 0.9848 -0.1736 -0.0000
vn 0.0594 0.3368 0.9397
vn -0.1632 -0.9254 0.3420
vn 0.1632 0.9254 -0.3420
vn -0.9606 0.1051 0.2574
vn 0.2676 0.0982 0.9585
vn 0.9606 -0.1051 -0.2574
vn -0.2676 -0.0982 -0.9585
vn 0.0754 0.9896 -0.1225
vn -0.0754 -0.9896 0.1225
vn -0.9230 -0.2881 0.2549
vn -0.1858 -0.2461 -0.9513
vn 0.9230 0.2881 -0.2549
vn 0.1858 0.2461 0.9513
vn 0.3368 -0.9254 0.1736
vn -0.3368 0.9254 -0.1736
vt 0.000000 0.812500
vt 0.000000 0.000000
vt 0.812500 0.000000
vt 0.812500 0.812500
vt 0.812500 0.062500
vt 0.812500 0.250000
vt 1.000000 0.250000
vt 1.000000 0.062500
vt 0.937500 0.250000
vt 0.875000 0.250000
vt 0.187500 1.000000
vt 0.187500 0.812500
vt 0.000000 0.812500
vt 0.000000 1.000000
vt 0.250000 0.875000
vt 0.250000 0.937500
vt 0.187500 0.937500
vt 0.312500 0.812500
vt 0.312500 0.875000
vt 0.375000 0.812500
vt 0.375000 1.000000
vt 0.312500 0.937500
vt 0.437500 0.875000
vt 0.437500 0.812500
vt 0.500000 0.812500
vt 0.500000 0.875000
vt 0.562500 0.812500
vt 0.562500 0.875000
vt 0.625000 0.875000
vt 0.625000 0.812500
vt 0.375000 0.875000
vt 0.437500 0.875000
vt 0.437500 0.812500
vt 0.375000 0.812500
vt 0.437500 0.875000
vt 0.500000 0.875000
vt 0.500000 0.812500
vt 0.437500 0.812500
s 0
usemtl Material.013
f 1/1/1 2/2/1 4/3/1 3/4/1
f 5/5/2 6/6/2 8/7/2 7/8/2
f 7/5/3 8/6/3 12/7/3 11/8/3
f 11/8/4 12/7/4 13/9/4 10/6/4 9/5/4
f 9/8/5 10/7/5 14/10/5 6/6/5 5/5/5
f 7/11/6 11/12/6 9/13/6 5/14/6
f 16/15/1 18/16/1 14/17/1 10/12/1 13/18/1 15/19/1
f 12/20/1 8/21/1 6/11/1 14/17/1 18/16/1 17/22/1 15/19/1 13/18/1
f 16/23/4 15/24/4 19/25/4 20/26/4
f 19/27/1 21/28/1 22/26/1 20/25/1
f 18/29/5 16/28/5 20/27/5 22/30/5
f 17/31/2 18/32/2 22/33/2 21/34/2
f 15/35/3 17/36/3 21/37/3 19/38/3
f 23/5/2 24/6/2 26/7/2 25/8/2
f 25/5/3 26/6/3 30/7/3 29/8/3
f 29/8/4 30/7/4 31/9/4 28/6/4 27/5/4
f 27/8/5 28/7/5 32/10/5 24/6/5 23/5/5
f 25/11/6 29/12/6 27/13/6 23/14/6
f 34/15/1 36/16/1 32/17/1 28/12/1 31/18/1 33/19/1
f 30/20/1 26/21/1 24/11/1 32/17/1 36/16/1 35/22/1 33/19/1 31/18/1
f 34/23/4 33/24/4 37/25/4 38/26/4
f 37/27/1 39/28/1 40/26/1 38/25/1
f 36/29/5 34/28/5 38/27/5 40/30/5
f 35/31/2 36/32/2 40/33/2 39/34/2
f 33/35/3 35/36/3 39/37/3 37/38/3
f 41/5/7 42/6/7 44/7/7 43/8/7
f 43/5/8 44/6/8 48/7/8 47/8/8
f 47/8/9 48/7/9 49/9/9 46/6/9 45/5/9
f 45/8/10 46/7/10 50/10/10 42/6/10 41/5/10
f 43/11/11 47/12/11 45/13/11 41/14/11
f 52/15/12 54/16/12 50/17/12 46/12/12 49/18/12 51/19/12
f 48/20/12 44/21/12 42/11/12 50/17/12 54/16/12 53/22/12 51/19/12 49/18/12
f 52/23/9 51/24/9 55/25/9 56/26/9
f 55/27/12 57/28/12 58/26/12 56/25/12
f 54/29/10 52/28/10 56/27/10 58/30/10
f 53/31/7 54/32/7 58/33/7 57/34/7
f 51/35/8 53/36/8 57/37/8 55/38/8
f 59/5/7 60/6/7 62/7/7 61/8/7
f 61/5/8 62/6/8 66/7/8 65/8/8
f 65/8/9 66/7/9 67/9/9 64/6/9 63/5/9
f 63/8/10 64/7/10 68/10/10 60/6/10 59/5/10
f 61/11/11 65/12/11 63/13/11 59/14/11
f 70/15/12 72/16/12 68/17/12 64/12/12 67/18/12 69/19/12
f 66/20/12 62/21/12 60/11/12 68/17/12 72/16/12 71/22/12 69/19/12 67/18/12
f 70/23/9 69/24/9 73/25/9 74/26/9
f 73/27/12 75/28/12 76/26/12 74/25/12
f 72/29/10 70/28/10 74/27/10 76/30/10
f 71/31/7 72/32/7 76/33/7 75/34/7
f 69/35/8 71/36/8 75/37/8 73/38/8
f 77/5/7 78/6/7 80/7/7 79/8/7
f 79/5/8 80/6/8 84/7/8 83/8/8
f 83/8/9 84/7/9 85/9/9 82/6/9 81/5/9
f 81/8/10 82/7/10 86/10/10 78/6/10 77/5/10
f 79/11/11 83/12/11 81/13/11 77/14/11
f 88/15/12 90/16/12 86/17/12 82/12/12 85/18/12 87/19/12
f 84/20/12 80/21/12 78/11/12 86/17/12 90/16/12 89/22/12 87/19/12 85/18/12
f 88/23/9 87/24/9 91/25/9 92/26/9
f 91/27/12 93/28/12 94/26/12 92/25/12
f 90/29/10 88/28/10 92/27/10 94/30/10
f 89/31/7 90/32/7 94/33/7 93/34/7
f 87/35/8 89/36/8 93/37/8 91/38/8
f 95/5/13 96/6/13 98/7/13 97/8/13
f 97/5/14 98/6/14 102/7/14 101/8/14
f 101/8/15 102/7/15 103/9/15 100/6/15 99/5/15
f 99/8/16 100/7/16 104/10/16 96/6/16 95/5/16
f 97/11/17 101/12/17 99/13/17 95/14/17
f 106/15/18 108/16/18 104/17/18 100/12/18 103/18/18 105/19/18
f 102/20/18 98/21/18 96/11/18 104/17/18 108/16/18 107/22/18 105/19/18 103/18/18
f 106/23/15 105/24/15 109/25/15 110/26/15
f 109/27/18 111/28/18 112/26/18 110/25/18
f 108/29/16 106/28/16 110/27/16 112/30/16
f 107/31/13 108/32/13 112/33/13 111/34/13
f 105/35/14 107/36/14 111/37/14 109/38/14
f 113/5/13 114/6/13 116/7/13 115/8/13
f 115/5/14 116/6/14 120/7/14 119/8/14
f 119/8/15 120/7/15 121/9/15 118/6/15 117/5/15
f 117/8/16 118/7/16 122/10/16 114/6/16 113/5/16
f 115/11/17 119/12/17 117/13/17 113/14/17
f 124/15/18 126/16/18 122/17/18 118/12/18 121/18/18 123/19/18
f 120/20/18 116/21/18 114/11/18 122/17/18 126/16/18 125/22/18 123/19/18 121/18/18
f 124/23/15 123/24/15 127/25/15 128/26/15
f 127/27/18 129/28/18 130/26/18 128/25/18
f 126/29/16 124/28/16 128/27/16 130/30/16
f 125/31/13 126/32/13 130/33/13 129/34/13
f 123/35/14 125/36/14 129/37/14 127/38/14
f 131/5/13 132/6/13 134/7/13 133/8/13
f 133/5/14 134/6/14 138/7/14 137/8/14
f 137/8/15 138/7/15 139/9/15 136/6/15 135/5/15
f 135/8/16 136/7/16 140/10/16 132/6/16 131/5/16
f 133/11/17 137/12/17 135/13/17 131/14/17
f 142/15/18 144/16/18 140/17/18 136/12/18 139/18/18 141/19/18
f 138/20/18 134/21/18 132/11/18 140/17/18 144/16/18 143/22/18 141/19/18 139/18/18
f 142/23/15 141/24/15 145/25/15 146/26/15
f 145/27/18 147/28/18 148/26/18 146/25/18
f 144/29/16 142/28/16 146/27/16 148/30/16
f 143/31/13 144/32/13 148/33/13 147/34/13
f 141/35/14 143/36/14 147/37/14 145/38/14
f 149/5/19 150/6/19 152/7/19 151/8/19
f 151/5/20 152/6/20 156/7/20 155/8/20
f 155/8/21 156/7/21 157/9/21 154/6/21 153/5/21
f 153/8/22 154/7/22 158/10/22 150/6/22 149/5/22
f 151/11/23 155/12/23 153/13/23 149/14/23
f 160/15/24 162/16/24 158/17/24 154/12/24 157/18/24 159/19/24
f 156/20/24 152/21/24 150/11/24 158/17/24 162/16/24 161/22/24 159/19/24 157/18/24
f 160/23/21 159/24/21 163/25/21 164/26/21
f 163/27/24 165/28/24 166/26/24 164/25/24
f 162/29/22 160/28/22 164/27/22 166/30/22
f 161/31/19 162/32/19 166/33/19 165/34/19
f 159/35/20 161/36/20 165/37/20 163/38/20
f 167/5/19 168/6/19 170/7/19 169/8/19
f 169/5/20 170/6/20 174/7/20 173/8/20
f 173/8/21 174/7/21 175/9/21 172/6/21 171/5/21
f 171/8/22 172/7/22 176/10/22 168/6/22 167/5/22
f 169/11/23 173/12/23 171/13/23 167/14/23
f 178/15/24 180/16/24 176/17/24 172/12/24 175/18/24 177/19/24
f 174/20/24 170/21/24 168/11/24 176/17/24 180/16/24 179/22/24 177/19/24 175/18/24
f 178/23/21 177/24/21 181/25/21 182/26/21
f 181/27/24 183/28/24 184/26/24 182/25/24
f 180/29/22 178/28/22 182/27/22 184/30/22
f 179/31/19 180/32/19 184/33/19 183/34/19
f 177/35/20 179/36/20 183/37/20 181/38/20
f 185/5/25 186/6/25 188/7/25 187/8/25
f 187/5/26 188/6/26 192/7/26 191/8/26
f 191/8/27 192/7/27 193/9/27 190/6/27 189/5/27
f 189/8/28 190/7/28 194/10/28 186/6/28 185/5/28
f 187/11/29 191/12/29 189/13/29 185/14/29
f 196/15/30 198/16/30 194/17/30 190/12/30 193/18/30 195/19/30
f 192/20/30 188/21/30 186/11/30 194/17/30 198/16/30 197/22/30 195/19/30 193/18/30
f 196/23/27 195/24/27 199/25/27 200/26/27
f 199/27/30 201/28/30 202/26/30 200/25/30
f 198/29/28 196/28/28 200/27/28 202/30/28
f 197/31/25 198/32/25 202/33/25 201/34/25
f 195/35/26 197/36/26 201/37/26 199/38/26
f 203/5/25 204/6/25 206/7/25 205/8/25
f 205/5/26 206/6/26 210/7/26 209/8/26
f 209/8/27 210/7/27 211/9/27 208/6/27 207/5/27
f 207/8/28 208/7/28 212/10/28 204/6/28 203/5/28
f 205/11/29 209/12/29 207/13/29 203/14/29
f 214/15/30 216/16/30 212/17/30 208/12/30 211/18/30 213/19/30
f 210/20/30 206/21/30 204/11/30 212/17/30 216/16/30 215/22/30 213/19/30 211/18/30
f 214/23/27 213/24/27 217/25/27 218/26/27
f 217/27/30 219/28/30 220/26/30 218/25/30
f 216/29/28 214/28/28 218/27/28 220/30/28
f 215/31/25 216/32/25 220/33/25 219/34/25
f 213/35/26 215/36/26 219/37/26 217/38/26
