# Blender 4.2.3 LTS
# www.blender.org
mtllib GrassToPath_Road_Straight.mtl
o Cube.737
v -1.050000 0.100000 1.050000
v -1.050000 0.100000 -1.050000
v 1.050000 0.100000 1.050000
v 1.050000 0.100000 -1.050000
v -1.050000 0.000000 1.050000
v -1.050000 0.000000 -0.050000
v 1.050000 0.000000 1.050000
v 1.050000 0.000000 -0.050000
v -1.050000 0.100000 -0.050000
v 1.050000 0.100000 -0.050000
vn -0.0000 1.0000 -0.0000
vn -0.0000 -0.0000 1.0000
vt 0.000000 0.617647
vt 0.000000 0.000000
vt 0.617647 0.000000
vt 0.617647 0.617647
vt 0.941176 0.000000
vt 0.970588 0.000000
vt 0.970588 0.617647
vt 0.941176 0.617647
s 0
usemtl Material.001
f 3/1/1 4/2/1 2/3/1 1/4/1
f 8/5/2 10/6/2 9/7/2 6/8/2
f 6/8/1 5/4/1 7/3/1 8/5/1
