# MagicaVoxel @ Ephtracy

# group
o 

# material
mtllib Carrot_fase_1_leaf.mtl
usemtl palette

# normals
vn -1 0 0
vn 1 0 0
vn 0 0 1
vn 0 0 -1
vn 0 -1 0
vn 0 1 0

# texcoords
vt 0.00976563 0.5
vt 0.0175781 0.5
vt 0.0214844 0.5

# verts
v -0.5 0.6 -0.2
v -0.5 0.6 -0.3
v -0.5 0.7 -0.2
v -0.5 0.7 -0.3
v -0.5 0.8 -0.2
v -0.5 0.8 -0.3
v -0.4 0.5 -0.2
v -0.4 0.5 -0.3
v -0.4 0.6 -0.2
v -0.4 0.6 -0.3
v -0.3 0.6 -0.1
v -0.3 0.6 -0.2
v -0.3 0.7 -0.1
v -0.3 0.7 -0.2
v -0.3 0.8 -0.1
v -0.3 0.8 -0.2
v -0.4 0.7 -0.2
v -0.4 0.7 -0.3
v -0.4 0.8 -0.2
v -0.4 0.8 -0.3
v -0.3 0.5 -0.2
v -0.3 0.5 -0.3
v -0.3 0.6 -0.2
v -0.3 0.6 -0.3
v -0.3 0.7 -0.2
v -0.3 0.7 -0.3
v -0.2 0.6 -0.1
v -0.2 0.6 -0.2
v -0.2 0.7 -0.1
v -0.2 0.7 -0.2
v -0.2 0.8 -0.1
v -0.2 0.8 -0.2
v -0.3 0.6 -0.1
v -0.3 0.7 -0.1
v -0.3 0.8 -0.1
v -0.2 0.6 -0.1
v -0.2 0.7 -0.1
v -0.2 0.8 -0.1
v -0.5 0.6 -0.2
v -0.5 0.7 -0.2
v -0.5 0.8 -0.2
v -0.4 0.5 -0.2
v -0.4 0.6 -0.2
v -0.4 0.7 -0.2
v -0.4 0.8 -0.2
v -0.3 0.5 -0.2
v -0.3 0.6 -0.2
v -0.3 0.7 -0.2
v -0.3 0.6 -0.2
v -0.3 0.7 -0.2
v -0.3 0.8 -0.2
v -0.2 0.6 -0.2
v -0.2 0.7 -0.2
v -0.2 0.8 -0.2
v -0.5 0.6 -0.3
v -0.5 0.7 -0.3
v -0.5 0.8 -0.3
v -0.4 0.5 -0.3
v -0.4 0.6 -0.3
v -0.4 0.7 -0.3
v -0.4 0.8 -0.3
v -0.3 0.5 -0.3
v -0.3 0.6 -0.3
v -0.3 0.7 -0.3
v -0.4 0.5 -0.2
v -0.3 0.5 -0.2
v -0.4 0.5 -0.3
v -0.3 0.5 -0.3
v -0.3 0.6 -0.1
v -0.2 0.6 -0.1
v -0.5 0.6 -0.2
v -0.4 0.6 -0.2
v -0.3 0.6 -0.2
v -0.2 0.6 -0.2
v -0.5 0.6 -0.3
v -0.4 0.6 -0.3
v -0.4 0.7 -0.2
v -0.3 0.7 -0.2
v -0.4 0.7 -0.3
v -0.3 0.7 -0.3
v -0.3 0.8 -0.1
v -0.2 0.8 -0.1
v -0.5 0.8 -0.2
v -0.4 0.8 -0.2
v -0.3 0.8 -0.2
v -0.2 0.8 -0.2
v -0.5 0.8 -0.3
v -0.4 0.8 -0.3

# faces
f 3/2/1 2/2/1 1/2/1
f 4/2/1 2/2/1 3/2/1
f 5/3/1 4/3/1 3/3/1
f 6/3/1 4/3/1 5/3/1
f 9/3/1 8/3/1 7/3/1
f 10/3/1 8/3/1 9/3/1
f 13/2/1 12/2/1 11/2/1
f 14/2/1 12/2/1 13/2/1
f 15/1/1 14/1/1 13/1/1
f 16/1/1 14/1/1 15/1/1
f 17/3/2 18/3/2 19/3/2
f 19/3/2 18/3/2 20/3/2
f 21/3/2 22/3/2 23/3/2
f 23/3/2 22/3/2 24/3/2
f 23/2/2 24/2/2 25/2/2
f 25/2/2 24/2/2 26/2/2
f 27/2/2 28/2/2 29/2/2
f 29/2/2 28/2/2 30/2/2
f 29/1/2 30/1/2 31/1/2
f 31/1/2 30/1/2 32/1/2
f 36/2/3 34/2/3 33/2/3
f 37/1/3 35/1/3 34/1/3
f 37/2/3 34/2/3 36/2/3
f 38/1/3 35/1/3 37/1/3
f 43/2/3 40/2/3 39/2/3
f 44/3/3 41/3/3 40/3/3
f 44/2/3 40/2/3 43/2/3
f 45/3/3 41/3/3 44/3/3
f 46/3/3 43/3/3 42/3/3
f 47/2/3 44/2/3 43/2/3
f 47/3/3 43/3/3 46/3/3
f 48/2/3 44/2/3 47/2/3
f 49/2/4 50/2/4 52/2/4
f 50/1/4 51/1/4 53/1/4
f 52/2/4 50/2/4 53/2/4
f 53/1/4 51/1/4 54/1/4
f 55/2/4 56/2/4 59/2/4
f 56/3/4 57/3/4 60/3/4
f 59/2/4 56/2/4 60/2/4
f 60/3/4 57/3/4 61/3/4
f 58/3/4 59/3/4 62/3/4
f 59/2/4 60/2/4 63/2/4
f 62/3/4 59/3/4 63/3/4
f 63/2/4 60/2/4 64/2/4
f 67/3/5 66/3/5 65/3/5
f 68/3/5 66/3/5 67/3/5
f 73/2/5 70/2/5 69/2/5
f 74/2/5 70/2/5 73/2/5
f 75/2/5 72/2/5 71/2/5
f 76/2/5 72/2/5 75/2/5
f 77/2/6 78/2/6 79/2/6
f 79/2/6 78/2/6 80/2/6
f 81/1/6 82/1/6 85/1/6
f 85/1/6 82/1/6 86/1/6
f 83/3/6 84/3/6 87/3/6
f 87/3/6 84/3/6 88/3/6
