# Blender 3.3.1
# www.blender.org
mtllib Fence.mtl
o Cube.002
v 0.050003 0.299998 -0.350004
v 0.050003 0.600000 -0.350004
v 0.050003 0.899998 -0.350004
v 0.050003 1.199999 -0.350004
v 0.050003 0.299998 0.349998
v 0.050003 0.600000 0.349998
v 0.050003 1.199999 0.349998
v 0.050003 0.899998 0.349998
v 0.050003 1.499997 -0.350004
v 0.050003 1.799999 -0.350004
v 0.050003 1.799999 0.349998
v 0.050003 1.499997 0.349998
v -0.050000 0.299998 -0.350004
v -0.050000 0.600000 -0.350004
v -0.050000 0.899998 -0.350004
v -0.050000 0.299998 0.349998
v -0.050000 0.600000 0.349998
v -0.050000 1.199999 0.349998
v -0.050000 0.899998 0.349998
v -0.050000 1.199999 -0.350004
v -0.050000 1.499997 -0.350004
v -0.050000 1.799999 -0.350004
v -0.050000 1.799999 0.349998
v -0.050000 1.499997 0.349998
v -0.050003 0.299998 -0.349997
v -0.050003 0.600000 -0.349997
v -0.050003 0.899998 -0.349997
v -0.050003 1.199999 -0.349997
v -0.050003 0.299998 -1.050000
v -0.050003 0.600000 -1.050000
v -0.050003 1.199999 -1.050000
v -0.050003 0.899998 -1.050000
v -0.050003 1.499997 -0.349997
v -0.050003 1.799999 -0.349997
v -0.050003 1.799999 -1.050000
v -0.050003 1.499997 -1.050000
v 0.050000 0.299998 -0.349997
v 0.050000 0.600000 -0.349997
v 0.050000 0.899998 -0.349997
v 0.050000 0.299998 -1.050000
v 0.050000 0.600000 -1.050000
v 0.050000 1.199999 -1.050000
v 0.050000 0.899998 -1.050000
v 0.050000 1.199999 -0.349997
v 0.050000 1.499997 -0.349997
v 0.050000 1.799999 -0.349997
v 0.050000 1.799999 -1.050000
v 0.050000 1.499997 -1.050000
v 0.050003 0.299998 0.349996
v 0.050003 0.600000 0.349996
v 0.050003 0.899998 0.349996
v 0.050003 1.199999 0.349996
v 0.050003 0.299998 1.049998
v 0.050003 0.600000 1.049998
v 0.050003 1.199999 1.049998
v 0.050003 0.899998 1.049998
v 0.050003 1.499997 0.349996
v 0.050003 1.799999 0.349996
v 0.050003 1.799999 1.049998
v 0.050003 1.499997 1.049998
v -0.050000 0.299998 0.349996
v -0.050000 0.600000 0.349996
v -0.050000 0.899998 0.349996
v -0.050000 0.299998 1.049998
v -0.050000 0.600000 1.049998
v -0.050000 1.199999 1.049998
v -0.050000 0.899998 1.049998
v -0.050000 1.199999 0.349996
v -0.050000 1.499997 0.349996
v -0.050000 1.799999 0.349996
v -0.050000 1.799999 1.049998
v -0.050000 1.499997 1.049998
vn 1.0000 -0.0000 -0.0000
vn -1.0000 -0.0000 -0.0000
vn -0.0000 -1.0000 -0.0000
vn -0.0000 1.0000 -0.0000
vt 0.333333 0.499999
vt 0.047619 0.619047
vt 0.333333 0.571428
vt 0.071429 0.619047
vt 0.428516 0.571457
vt 0.095239 0.619047
vt 0.428516 0.642886
vt 0.119049 0.619047
vt 0.500000 0.499999
vt 0.047619 0.785714
vt 0.500000 0.571428
vt 0.071429 0.785714
vt 0.595183 0.642886
vt 0.119049 0.785714
vt 0.595183 0.571457
vt 0.095239 0.785714
vt 0.166666 0.642857
vt 0.833333 0.571428
vt 0.166666 0.714286
vt 0.857143 0.571428
vt 0.333333 0.714286
vt 0.857143 0.738095
vt 0.333333 0.642857
vt 0.833333 0.738095
vt 0.428566 0.571499
vt 0.071429 0.619047
vt 0.428566 0.642928
vt 0.095239 0.619047
vt 0.666666 0.714286
vt 0.119049 0.619047
vt 0.595233 0.571499
vt 0.071429 0.785714
vt 0.595233 0.642928
vt 0.095239 0.785714
vt 0.833333 0.785714
vt 0.142859 0.785714
vt 0.833333 0.714286
vt 0.119049 0.785714
vt 0.666666 0.785714
vt 0.142859 0.619047
vt 0.428533 0.714357
vt 0.857143 0.571428
vt 0.428533 0.785786
vt 0.880953 0.571428
vt 0.595200 0.785786
vt 0.880953 0.738095
vt 0.595200 0.714357
vt 0.857143 0.738095
vt 0.333333 0.499999
vt 0.047619 0.619047
vt 0.333333 0.571428
vt 0.071429 0.619047
vt 0.666666 0.642857
vt 0.095239 0.619047
vt 0.666666 0.714286
vt 0.119049 0.619047
vt 0.500000 0.499999
vt 0.047619 0.785714
vt 0.500000 0.571428
vt 0.071429 0.785714
vt 0.833333 0.714286
vt 0.119049 0.785714
vt 0.833333 0.642857
vt 0.095239 0.785714
vt 0.166666 0.642857
vt 0.833333 0.571428
vt 0.166666 0.714286
vt 0.857143 0.571428
vt 0.333333 0.714286
vt 0.857143 0.738095
vt 0.333333 0.642857
vt 0.833333 0.738095
vt 0.166666 0.499999
vt 0.071429 0.619047
vt 0.166666 0.571428
vt 0.095239 0.619047
vt 0.666666 0.714286
vt 0.119049 0.619047
vt 0.333333 0.499999
vt 0.071429 0.785714
vt 0.333333 0.571428
vt 0.095239 0.785714
vt 0.833333 0.785714
vt 0.142859 0.785714
vt 0.833333 0.714286
vt 0.119049 0.785714
vt 0.666666 0.785714
vt 0.142859 0.619047
vt 0.333333 0.642857
vt 0.857143 0.571428
vt 0.333333 0.714286
vt 0.880953 0.571428
vt 0.500000 0.714286
vt 0.880953 0.738095
vt 0.500000 0.642857
vt 0.857143 0.738095
vt 0.333333 0.499999
vt 0.047619 0.619047
vt 0.333333 0.571428
vt 0.071429 0.619047
vt 0.666666 0.642857
vt 0.095239 0.619047
vt 0.666666 0.714286
vt 0.119049 0.619047
vt 0.500000 0.499999
vt 0.047619 0.785714
vt 0.500000 0.571428
vt 0.071429 0.785714
vt 0.833333 0.714286
vt 0.119049 0.785714
vt 0.833333 0.642857
vt 0.095239 0.785714
vt 0.166666 0.642857
vt 0.833333 0.571428
vt 0.166666 0.714286
vt 0.857143 0.571428
vt 0.333333 0.714286
vt 0.857143 0.738095
vt 0.333333 0.642857
vt 0.833333 0.738095
vt 0.166666 0.499999
vt 0.071429 0.619047
vt 0.166666 0.571428
vt 0.095239 0.619047
vt 0.666666 0.714286
vt 0.119049 0.619047
vt 0.333333 0.499999
vt 0.071429 0.785714
vt 0.333333 0.571428
vt 0.095239 0.785714
vt 0.833333 0.785714
vt 0.142859 0.785714
vt 0.833333 0.714286
vt 0.119049 0.785714
vt 0.666666 0.785714
vt 0.142859 0.619047
vt 0.333333 0.642857
vt 0.857143 0.571428
vt 0.333333 0.714286
vt 0.880953 0.571428
vt 0.500000 0.714286
vt 0.880953 0.738095
vt 0.500000 0.642857
vt 0.857143 0.738095
s 0
usemtl Material.003
f 10/19/1 11/21/1 12/23/1 9/17/1
f 2/3/1 6/11/1 5/9/1 1/1/1
f 18/35/2 20/39/2 15/29/2 19/37/2
f 23/45/2 22/43/2 21/41/2 24/47/2
f 4/7/1 7/13/1 8/15/1 3/5/1
f 17/33/2 14/27/2 13/25/2 16/31/2
f 13/26/3 1/2/3 5/10/3 16/32/3
f 2/4/4 14/28/4 17/34/4 6/12/4
f 15/30/3 3/6/3 8/16/3 19/38/3
f 4/8/4 20/40/4 18/36/4 7/14/4
f 21/42/3 9/18/3 12/24/3 24/48/3
f 10/20/4 22/44/4 23/46/4 11/22/4
usemtl Material.001
f 34/67/2 35/69/2 36/71/2 33/65/2
f 26/51/2 30/59/2 29/57/2 25/49/2
f 42/83/1 44/87/1 39/77/1 43/85/1
f 47/93/1 46/91/1 45/89/1 48/95/1
f 28/55/2 31/61/2 32/63/2 27/53/2
f 41/81/1 38/75/1 37/73/1 40/79/1
f 37/74/3 25/50/3 29/58/3 40/80/3
f 26/52/4 38/76/4 41/82/4 30/60/4
f 39/78/3 27/54/3 32/64/3 43/86/3
f 28/56/4 44/88/4 42/84/4 31/62/4
f 45/90/3 33/66/3 36/72/3 48/96/3
f 34/68/4 46/92/4 47/94/4 35/70/4
usemtl Material.002
f 58/115/1 59/117/1 60/119/1 57/113/1
f 50/99/1 54/107/1 53/105/1 49/97/1
f 66/131/2 68/135/2 63/125/2 67/133/2
f 71/141/2 70/139/2 69/137/2 72/143/2
f 52/103/1 55/109/1 56/111/1 51/101/1
f 65/129/2 62/123/2 61/121/2 64/127/2
f 61/122/3 49/98/3 53/106/3 64/128/3
f 50/100/4 62/124/4 65/130/4 54/108/4
f 63/126/3 51/102/3 56/112/3 67/134/3
f 52/104/4 68/136/4 66/132/4 55/110/4
f 69/138/3 57/114/3 60/120/3 72/144/3
f 58/116/4 70/140/4 71/142/4 59/118/4
