# MagicaVoxel @ Ephtracy

# group
o 

# material
mtllib StrawberryPlant_fase_3_leaf.mtl
usemtl palette

# normals
vn -1 0 0
vn 1 0 0
vn 0 0 1
vn 0 0 -1
vn 0 -1 0
vn 0 1 0

# texcoords
vt 0.00976563 0.5
vt 0.0136719 0.5
vt 0.0175781 0.5
vt 0.0214844 0.5
vt 0.0800781 0.5
vt 0.0839844 0.5

# verts
v -1.3 1 -0.1
v -1.3 1 -0.2
v -1.3 1.1 -0.1
v -1.3 1.1 -0.2
v -1.1 0.9 -0.1
v -1.1 0.9 -0.2
v -1.1 1 -0.1
v -1.1 1 -0.2
v -1 0.8 -2.98023e-08
v -1 0.8 -0.1
v -1 0.9 -2.98023e-08
v -1 0.9 -0.1
v -0.9 0.8 0.2
v -0.9 0.8 -2.98023e-08
v -0.9 0.9 0.2
v -0.9 0.9 -2.98023e-08
v -0.8 0.7 -0.1
v -0.8 0.7 -0.2
v -0.8 0.8 0.3
v -0.8 0.8 0.2
v -0.8 0.8 -2.98023e-08
v -0.8 0.8 -0.1
v -0.8 0.8 -0.2
v -0.8 0.9 0.3
v -0.8 0.9 0.2
v -0.8 0.9 -2.98023e-08
v -0.8 0.9 -0.1
v -0.7 0.7 0.3
v -0.7 0.7 0.2
v -0.7 0.7 -2.98023e-08
v -0.7 0.7 -0.1
v -0.7 0.8 0.3
v -0.7 0.8 0.2
v -0.7 0.8 -2.98023e-08
v -0.7 0.8 -0.1
v -0.5 0.5 -0.2
v -0.5 0.5 -0.3
v -0.5 0.6 -0.2
v -0.5 0.6 -0.3
v -0.4 0.5 -0.1
v -0.4 0.5 -0.2
v -0.4 0.5 -0.3
v -0.4 0.5 -0.4
v -0.4 0.6 -0.1
v -0.4 0.6 -0.2
v -0.4 0.6 -0.3
v -0.4 0.6 -0.4
v -0.4 0.7 0.2
v -0.4 0.7 0.1
v -0.4 0.7 -0.2
v -0.4 0.7 -0.3
v -0.4 0.8 0.2
v -0.4 0.8 0.1
v -0.4 0.8 -2.98023e-08
v -0.4 0.8 -0.1
v -0.4 0.8 -0.2
v -0.4 0.8 -0.3
v -0.4 0.9 0.1
v -0.4 0.9 -2.98023e-08
v -0.4 0.9 -0.1
v -0.4 0.9 -0.2
v -0.3 0.8 -0.3
v -0.3 0.8 -0.4
v -0.3 0.9 -0.3
v -0.3 0.9 -0.4
v -0.2 0.9 -0.3
v -0.2 0.9 -0.4
v -0.2 1 -0.3
v -0.2 1 -0.4
v -0.0999999 0.9 -0.4
v -0.0999999 0.9 -0.5
v -0.0999999 1 -0.4
v -0.0999999 1 -0.5
v 0 0.8 -0.5
v 0 0.8 -0.6
v 0 0.9 -0.5
v 0 0.9 -0.6
v 0.2 0.9 -0.5
v 0.2 0.9 -0.6
v 0.2 1 -0.5
v 0.2 1 -0.6
v -1.1 1 -0.1
v -1.1 1 -0.2
v -1.1 1.1 -0.1
v -1.1 1.1 -0.2
v -1 0.9 -0.1
v -1 0.9 -0.2
v -1 1 -0.1
v -1 1 -0.2
v -0.9 0.8 -2.98023e-08
v -0.9 0.8 -0.1
v -0.9 0.9 -2.98023e-08
v -0.9 0.9 -0.1
v -0.8 0.8 0.2
v -0.8 0.8 -2.98023e-08
v -0.8 0.9 0.2
v -0.8 0.9 -2.98023e-08
v -0.7 0.8 0.3
v -0.7 0.8 0.2
v -0.7 0.8 -2.98023e-08
v -0.7 0.8 -0.1
v -0.7 0.9 0.3
v -0.7 0.9 0.2
v -0.7 0.9 -2.98023e-08
v -0.7 0.9 -0.1
v -0.6 0.7 -2.98023e-08
v -0.6 0.7 -0.2
v -0.6 0.8 -2.98023e-08
v -0.6 0.8 -0.2
v -0.3 0.5 -0.1
v -0.3 0.5 -0.2
v -0.3 0.5 -0.3
v -0.3 0.5 -0.4
v -0.3 0.6 -0.1
v -0.3 0.6 -0.2
v -0.3 0.6 -0.3
v -0.3 0.6 -0.4
v -0.3 0.7 -0.2
v -0.3 0.7 -0.3
v -0.3 0.8 0.1
v -0.3 0.8 -2.98023e-08
v -0.3 0.8 -0.1
v -0.3 0.8 -0.2
v -0.3 0.8 -0.3
v -0.3 0.9 0.1
v -0.3 0.9 -2.98023e-08
v -0.3 0.9 -0.1
v -0.3 0.9 -0.2
v -0.2 0.5 -0.2
v -0.2 0.5 -0.3
v -0.2 0.6 -0.2
v -0.2 0.6 -0.3
v -0.2 0.7 0.3
v -0.2 0.7 0.2
v -0.2 0.7 0.1
v -0.2 0.8 0.3
v -0.2 0.8 0.2
v -0.2 0.8 0.1
v -0.2 0.8 -0.3
v -0.2 0.8 -0.4
v -0.2 0.9 -0.3
v -0.2 0.9 -0.4
v -0.0999999 0.9 -0.3
v -0.0999999 0.9 -0.4
v -0.0999999 1 -0.3
v -0.0999999 1 -0.4
v 0 0.9 -0.4
v 0 0.9 -0.5
v 0 1 -0.4
v 0 1 -0.5
v 0.3 0.8 -0.5
v 0.3 0.8 -0.6
v 0.3 0.9 -0.5
v 0.3 0.9 -0.6
v 0.3 1 -0.5
v 0.3 1 -0.6
v -0.8 0.8 0.3
v -0.8 0.9 0.3
v -0.7 0.7 0.3
v -0.7 0.8 0.3
v -0.7 0.9 0.3
v -0.5 0.7 0.3
v -0.5 0.8 0.3
v -0.4 0.7 0.3
v -0.4 0.8 0.3
v -0.3 0.7 0.3
v -0.3 0.8 0.3
v -0.2 0.7 0.3
v -0.2 0.8 0.3
v -0.9 0.8 0.2
v -0.9 0.9 0.2
v -0.8 0.8 0.2
v -0.8 0.9 0.2
v -0.4 0.8 0.1
v -0.4 0.9 0.1
v -0.3 0.8 0.1
v -0.3 0.9 0.1
v -1 0.8 -2.98023e-08
v -1 0.9 -2.98023e-08
v -0.9 0.8 -2.98023e-08
v -0.9 0.9 -2.98023e-08
v -0.8 0.8 -2.98023e-08
v -0.8 0.9 -2.98023e-08
v -0.7 0.7 -2.98023e-08
v -0.7 0.8 -2.98023e-08
v -0.7 0.9 -2.98023e-08
v -0.6 0.7 -2.98023e-08
v -0.6 0.8 -2.98023e-08
v -1.3 1 -0.1
v -1.3 1.1 -0.1
v -1.2 1 -0.1
v -1.2 1.1 -0.1
v -1.1 0.9 -0.1
v -1.1 1 -0.1
v -1.1 1.1 -0.1
v -1 0.9 -0.1
v -1 1 -0.1
v -0.8 0.7 -0.1
v -0.8 0.8 -0.1
v -0.7 0.7 -0.1
v -0.7 0.8 -0.1
v -0.4 0.5 -0.1
v -0.4 0.6 -0.1
v -0.3 0.5 -0.1
v -0.3 0.6 -0.1
v -0.5 0.5 -0.2
v -0.5 0.6 -0.2
v -0.4 0.5 -0.2
v -0.4 0.6 -0.2
v -0.4 0.7 -0.2
v -0.4 0.8 -0.2
v -0.3 0.5 -0.2
v -0.3 0.6 -0.2
v -0.3 0.7 -0.2
v -0.3 0.8 -0.2
v -0.2 0.5 -0.2
v -0.2 0.6 -0.2
v -0.3 0.8 -0.3
v -0.3 0.9 -0.3
v -0.2 0.8 -0.3
v -0.2 0.9 -0.3
v -0.2 1 -0.3
v -0.0999999 0.9 -0.3
v -0.0999999 1 -0.3
v -0.0999999 0.9 -0.4
v -0.0999999 1 -0.4
v 0 0.9 -0.4
v 0 1 -0.4
v 0 0.8 -0.5
v 0 0.9 -0.5
v 0.2 0.8 -0.5
v 0.2 0.9 -0.5
v 0.2 1 -0.5
v 0.3 0.8 -0.5
v 0.3 0.9 -0.5
v 0.3 1 -0.5
v -0.8 0.8 0.2
v -0.8 0.9 0.2
v -0.7 0.7 0.2
v -0.7 0.8 0.2
v -0.7 0.9 0.2
v -0.5 0.7 0.2
v -0.5 0.8 0.2
v -0.4 0.7 0.2
v -0.4 0.8 0.2
v -0.4 0.7 0.1
v -0.4 0.8 0.1
v -0.3 0.7 0.1
v -0.3 0.8 0.1
v -0.2 0.7 0.1
v -0.2 0.8 0.1
v -0.9 0.8 -2.98023e-08
v -0.9 0.9 -2.98023e-08
v -0.8 0.8 -2.98023e-08
v -0.8 0.9 -2.98023e-08
v -1 0.8 -0.1
v -1 0.9 -0.1
v -0.9 0.8 -0.1
v -0.9 0.9 -0.1
v -0.8 0.8 -0.1
v -0.8 0.9 -0.1
v -0.7 0.8 -0.1
v -0.7 0.9 -0.1
v -1.3 1 -0.2
v -1.3 1.1 -0.2
v -1.2 1 -0.2
v -1.2 1.1 -0.2
v -1.1 0.9 -0.2
v -1.1 1 -0.2
v -1.1 1.1 -0.2
v -1 0.9 -0.2
v -1 1 -0.2
v -0.8 0.7 -0.2
v -0.8 0.8 -0.2
v -0.7 0.7 -0.2
v -0.7 0.8 -0.2
v -0.6 0.7 -0.2
v -0.6 0.8 -0.2
v -0.4 0.8 -0.2
v -0.4 0.9 -0.2
v -0.3 0.8 -0.2
v -0.3 0.9 -0.2
v -0.5 0.5 -0.3
v -0.5 0.6 -0.3
v -0.4 0.5 -0.3
v -0.4 0.6 -0.3
v -0.4 0.7 -0.3
v -0.4 0.8 -0.3
v -0.3 0.5 -0.3
v -0.3 0.6 -0.3
v -0.3 0.7 -0.3
v -0.3 0.8 -0.3
v -0.2 0.5 -0.3
v -0.2 0.6 -0.3
v -0.4 0.5 -0.4
v -0.4 0.6 -0.4
v -0.3 0.5 -0.4
v -0.3 0.6 -0.4
v -0.3 0.8 -0.4
v -0.3 0.9 -0.4
v -0.2 0.8 -0.4
v -0.2 0.9 -0.4
v -0.2 1 -0.4
v -0.0999999 0.9 -0.4
v -0.0999999 1 -0.4
v -0.0999999 0.9 -0.5
v -0.0999999 1 -0.5
v 0 0.9 -0.5
v 0 1 -0.5
v 0 0.8 -0.6
v 0 0.9 -0.6
v 0.2 0.8 -0.6
v 0.2 0.9 -0.6
v 0.2 1 -0.6
v 0.3 0.8 -0.6
v 0.3 0.9 -0.6
v 0.3 1 -0.6
v -0.4 0.5 -0.1
v -0.3 0.5 -0.1
v -0.5 0.5 -0.2
v -0.4 0.5 -0.2
v -0.3 0.5 -0.2
v -0.2 0.5 -0.2
v -0.5 0.5 -0.3
v -0.4 0.5 -0.3
v -0.3 0.5 -0.3
v -0.2 0.5 -0.3
v -0.4 0.5 -0.4
v -0.3 0.5 -0.4
v -0.7 0.7 0.3
v -0.5 0.7 0.3
v -0.4 0.7 0.3
v -0.3 0.7 0.3
v -0.2 0.7 0.3
v -0.7 0.7 0.2
v -0.5 0.7 0.2
v -0.4 0.7 0.2
v -0.3 0.7 0.2
v -0.2 0.7 0.2
v -0.4 0.7 0.1
v -0.3 0.7 0.1
v -0.2 0.7 0.1
v -0.7 0.7 -2.98023e-08
v -0.6 0.7 -2.98023e-08
v -0.8 0.7 -0.1
v -0.7 0.7 -0.1
v -0.8 0.7 -0.2
v -0.7 0.7 -0.2
v -0.6 0.7 -0.2
v -0.8 0.8 0.3
v -0.7 0.8 0.3
v -0.9 0.8 0.2
v -0.8 0.8 0.2
v -0.7 0.8 0.2
v -0.4 0.8 0.1
v -0.3 0.8 0.1
v -1 0.8 -2.98023e-08
v -0.9 0.8 -2.98023e-08
v -0.8 0.8 -2.98023e-08
v -0.7 0.8 -2.98023e-08
v -0.4 0.8 -2.98023e-08
v -0.3 0.8 -2.98023e-08
v -1 0.8 -0.1
v -0.9 0.8 -0.1
v -0.8 0.8 -0.1
v -0.7 0.8 -0.1
v -0.4 0.8 -0.1
v -0.3 0.8 -0.1
v -0.4 0.8 -0.2
v -0.3 0.8 -0.2
v -0.3 0.8 -0.3
v -0.2 0.8 -0.3
v -0.3 0.8 -0.4
v -0.2 0.8 -0.4
v 0 0.8 -0.5
v 0.2 0.8 -0.5
v 0.3 0.8 -0.5
v 0 0.8 -0.6
v 0.2 0.8 -0.6
v 0.3 0.8 -0.6
v -1.1 0.9 -0.1
v -1 0.9 -0.1
v -1.1 0.9 -0.2
v -1 0.9 -0.2
v -0.2 0.9 -0.3
v -0.0999999 0.9 -0.3
v -0.2 0.9 -0.4
v -0.0999999 0.9 -0.4
v 0 0.9 -0.4
v -0.0999999 0.9 -0.5
v 0 0.9 -0.5
v -1.3 1 -0.1
v -1.2 1 -0.1
v -1.1 1 -0.1
v -1.3 1 -0.2
v -1.2 1 -0.2
v -1.1 1 -0.2
v -0.4 0.6 -0.1
v -0.3 0.6 -0.1
v -0.5 0.6 -0.2
v -0.4 0.6 -0.2
v -0.3 0.6 -0.2
v -0.2 0.6 -0.2
v -0.5 0.6 -0.3
v -0.4 0.6 -0.3
v -0.3 0.6 -0.3
v -0.2 0.6 -0.3
v -0.4 0.6 -0.4
v -0.3 0.6 -0.4
v -0.7 0.8 0.3
v -0.5 0.8 0.3
v -0.4 0.8 0.3
v -0.3 0.8 0.3
v -0.2 0.8 0.3
v -0.7 0.8 0.2
v -0.5 0.8 0.2
v -0.4 0.8 0.2
v -0.3 0.8 0.2
v -0.2 0.8 0.2
v -0.4 0.8 0.1
v -0.3 0.8 0.1
v -0.2 0.8 0.1
v -0.7 0.8 -2.98023e-08
v -0.6 0.8 -2.98023e-08
v -0.8 0.8 -0.1
v -0.7 0.8 -0.1
v -0.8 0.8 -0.2
v -0.7 0.8 -0.2
v -0.6 0.8 -0.2
v -0.4 0.8 -0.2
v -0.3 0.8 -0.2
v -0.4 0.8 -0.3
v -0.3 0.8 -0.3
v -0.8 0.9 0.3
v -0.7 0.9 0.3
v -0.9 0.9 0.2
v -0.8 0.9 0.2
v -0.7 0.9 0.2
v -0.4 0.9 0.1
v -0.3 0.9 0.1
v -1 0.9 -2.98023e-08
v -0.9 0.9 -2.98023e-08
v -0.8 0.9 -2.98023e-08
v -0.7 0.9 -2.98023e-08
v -0.4 0.9 -2.98023e-08
v -0.3 0.9 -2.98023e-08
v -1 0.9 -0.1
v -0.9 0.9 -0.1
v -0.8 0.9 -0.1
v -0.7 0.9 -0.1
v -0.4 0.9 -0.1
v -0.3 0.9 -0.1
v -0.4 0.9 -0.2
v -0.3 0.9 -0.2
v -0.3 0.9 -0.3
v -0.2 0.9 -0.3
v -0.3 0.9 -0.4
v -0.2 0.9 -0.4
v 0 0.9 -0.5
v 0.2 0.9 -0.5
v 0 0.9 -0.6
v 0.2 0.9 -0.6
v -1.1 1 -0.1
v -1 1 -0.1
v -1.1 1 -0.2
v -1 1 -0.2
v -0.2 1 -0.3
v -0.0999999 1 -0.3
v -0.2 1 -0.4
v -0.0999999 1 -0.4
v 0 1 -0.4
v -0.0999999 1 -0.5
v 0 1 -0.5
v 0.2 1 -0.5
v 0.3 1 -0.5
v 0.2 1 -0.6
v 0.3 1 -0.6
v -1.3 1.1 -0.1
v -1.2 1.1 -0.1
v -1.1 1.1 -0.1
v -1.3 1.1 -0.2
v -1.2 1.1 -0.2
v -1.1 1.1 -0.2

# faces
f 3/5/1 2/5/1 1/5/1
f 4/5/1 2/5/1 3/5/1
f 7/4/1 6/4/1 5/4/1
f 8/4/1 6/4/1 7/4/1
f 11/2/1 10/2/1 9/2/1
f 12/2/1 10/2/1 11/2/1
f 15/2/1 14/2/1 13/2/1
f 16/2/1 14/2/1 15/2/1
f 22/5/1 18/5/1 17/5/1
f 23/5/1 18/5/1 22/5/1
f 24/1/1 20/1/1 19/1/1
f 25/1/1 20/1/1 24/1/1
f 26/2/1 22/2/1 21/2/1
f 27/2/1 22/2/1 26/2/1
f 32/1/1 29/1/1 28/1/1
f 33/1/1 29/1/1 32/1/1
f 34/6/1 31/6/1 30/6/1
f 35/6/1 31/6/1 34/6/1
f 38/2/1 37/2/1 36/2/1
f 39/2/1 37/2/1 38/2/1
f 44/2/1 41/2/1 40/2/1
f 45/2/1 41/2/1 44/2/1
f 46/1/1 43/1/1 42/1/1
f 47/1/1 43/1/1 46/1/1
f 50/1/1 46/1/1 45/1/1
f 51/1/1 46/1/1 50/1/1
f 52/2/1 49/2/1 48/2/1
f 53/2/1 49/2/1 52/2/1
f 56/2/1 51/2/1 50/2/1
f 57/2/1 51/2/1 56/2/1
f 58/2/1 54/2/1 53/2/1
f 59/1/1 55/1/1 54/1/1
f 59/2/1 54/2/1 58/2/1
f 60/2/1 56/2/1 55/2/1
f 60/1/1 55/1/1 59/1/1
f 61/2/1 56/2/1 60/2/1
f 64/3/1 63/3/1 62/3/1
f 65/3/1 63/3/1 64/3/1
f 68/3/1 67/3/1 66/3/1
f 69/3/1 67/3/1 68/3/1
f 72/3/1 71/3/1 70/3/1
f 73/3/1 71/3/1 72/3/1
f 76/2/1 75/2/1 74/2/1
f 77/2/1 75/2/1 76/2/1
f 80/5/1 79/5/1 78/5/1
f 81/5/1 79/5/1 80/5/1
f 82/6/2 83/6/2 84/6/2
f 84/6/2 83/6/2 85/6/2
f 86/4/2 87/4/2 88/4/2
f 88/4/2 87/4/2 89/4/2
f 90/2/2 91/2/2 92/2/2
f 92/2/2 91/2/2 93/2/2
f 94/2/2 95/2/2 96/2/2
f 96/2/2 95/2/2 97/2/2
f 98/1/2 99/1/2 102/1/2
f 102/1/2 99/1/2 103/1/2
f 100/2/2 101/2/2 104/2/2
f 104/2/2 101/2/2 105/2/2
f 106/6/2 107/6/2 108/6/2
f 108/6/2 107/6/2 109/6/2
f 110/2/2 111/2/2 114/2/2
f 114/2/2 111/2/2 115/2/2
f 112/1/2 113/1/2 116/1/2
f 116/1/2 113/1/2 117/1/2
f 115/1/2 116/1/2 118/1/2
f 118/1/2 116/1/2 119/1/2
f 118/2/2 119/2/2 123/2/2
f 123/2/2 119/2/2 124/2/2
f 120/2/2 121/2/2 125/2/2
f 121/1/2 122/1/2 126/1/2
f 125/2/2 121/2/2 126/2/2
f 122/2/2 123/2/2 127/2/2
f 126/1/2 122/1/2 127/1/2
f 127/2/2 123/2/2 128/2/2
f 129/1/2 130/1/2 131/1/2
f 131/1/2 130/1/2 132/1/2
f 133/5/2 134/5/2 136/5/2
f 134/6/2 135/6/2 137/6/2
f 136/5/2 134/5/2 137/5/2
f 137/6/2 135/6/2 138/6/2
f 139/3/2 140/3/2 141/3/2
f 141/3/2 140/3/2 142/3/2
f 143/3/2 144/3/2 145/3/2
f 145/3/2 144/3/2 146/3/2
f 147/3/2 148/3/2 149/3/2
f 149/3/2 148/3/2 150/3/2
f 151/6/2 152/6/2 153/6/2
f 153/6/2 152/6/2 154/6/2
f 153/5/2 154/5/2 155/5/2
f 155/5/2 154/5/2 156/5/2
f 160/1/3 158/1/3 157/1/3
f 161/1/3 158/1/3 160/1/3
f 162/1/3 160/1/3 159/1/3
f 163/1/3 160/1/3 162/1/3
f 164/2/3 163/2/3 162/2/3
f 165/2/3 163/2/3 164/2/3
f 166/6/3 165/6/3 164/6/3
f 167/6/3 165/6/3 166/6/3
f 168/5/3 167/5/3 166/5/3
f 169/5/3 167/5/3 168/5/3
f 172/2/3 171/2/3 170/2/3
f 173/2/3 171/2/3 172/2/3
f 176/2/3 175/2/3 174/2/3
f 177/2/3 175/2/3 176/2/3
f 180/2/3 179/2/3 178/2/3
f 181/2/3 179/2/3 180/2/3
f 185/2/3 183/2/3 182/2/3
f 186/2/3 183/2/3 185/2/3
f 187/6/3 185/6/3 184/6/3
f 188/6/3 185/6/3 187/6/3
f 191/5/3 190/5/3 189/5/3
f 192/5/3 190/5/3 191/5/3
f 194/6/3 192/6/3 191/6/3
f 195/6/3 192/6/3 194/6/3
f 196/4/3 194/4/3 193/4/3
f 197/4/3 194/4/3 196/4/3
f 200/5/3 199/5/3 198/5/3
f 201/5/3 199/5/3 200/5/3
f 204/2/3 203/2/3 202/2/3
f 205/2/3 203/2/3 204/2/3
f 208/2/3 207/2/3 206/2/3
f 209/2/3 207/2/3 208/2/3
f 213/1/3 210/1/3 209/1/3
f 214/2/3 211/2/3 210/2/3
f 214/1/3 210/1/3 213/1/3
f 215/2/3 211/2/3 214/2/3
f 216/1/3 213/1/3 212/1/3
f 217/1/3 213/1/3 216/1/3
f 220/3/3 219/3/3 218/3/3
f 221/3/3 219/3/3 220/3/3
f 223/3/3 222/3/3 221/3/3
f 224/3/3 222/3/3 223/3/3
f 227/3/3 226/3/3 225/3/3
f 228/3/3 226/3/3 227/3/3
f 231/2/3 230/2/3 229/2/3
f 232/2/3 230/2/3 231/2/3
f 234/6/3 232/6/3 231/6/3
f 235/5/3 233/5/3 232/5/3
f 235/6/3 232/6/3 234/6/3
f 236/5/3 233/5/3 235/5/3
f 237/1/4 238/1/4 240/1/4
f 240/1/4 238/1/4 241/1/4
f 239/1/4 240/1/4 242/1/4
f 242/1/4 240/1/4 243/1/4
f 242/2/4 243/2/4 244/2/4
f 244/2/4 243/2/4 245/2/4
f 246/2/4 247/2/4 248/2/4
f 248/2/4 247/2/4 249/2/4
f 248/6/4 249/6/4 250/6/4
f 250/6/4 249/6/4 251/6/4
f 252/2/4 253/2/4 254/2/4
f 254/2/4 253/2/4 255/2/4
f 256/2/4 257/2/4 258/2/4
f 258/2/4 257/2/4 259/2/4
f 260/2/4 261/2/4 262/2/4
f 262/2/4 261/2/4 263/2/4
f 264/5/4 265/5/4 266/5/4
f 266/5/4 265/5/4 267/5/4
f 266/6/4 267/6/4 269/6/4
f 269/6/4 267/6/4 270/6/4
f 268/4/4 269/4/4 271/4/4
f 271/4/4 269/4/4 272/4/4
f 273/5/4 274/5/4 275/5/4
f 275/5/4 274/5/4 276/5/4
f 275/6/4 276/6/4 277/6/4
f 277/6/4 276/6/4 278/6/4
f 279/2/4 280/2/4 281/2/4
f 281/2/4 280/2/4 282/2/4
f 283/2/4 284/2/4 285/2/4
f 285/2/4 284/2/4 286/2/4
f 286/1/4 287/1/4 290/1/4
f 287/2/4 288/2/4 291/2/4
f 290/1/4 287/1/4 291/1/4
f 291/2/4 288/2/4 292/2/4
f 289/1/4 290/1/4 293/1/4
f 293/1/4 290/1/4 294/1/4
f 295/1/4 296/1/4 297/1/4
f 297/1/4 296/1/4 298/1/4
f 299/3/4 300/3/4 301/3/4
f 301/3/4 300/3/4 302/3/4
f 302/3/4 303/3/4 304/3/4
f 304/3/4 303/3/4 305/3/4
f 306/3/4 307/3/4 308/3/4
f 308/3/4 307/3/4 309/3/4
f 310/2/4 311/2/4 312/2/4
f 312/2/4 311/2/4 313/2/4
f 312/6/4 313/6/4 315/6/4
f 313/5/4 314/5/4 316/5/4
f 315/6/4 313/6/4 316/6/4
f 316/5/4 314/5/4 317/5/4
f 321/2/5 319/2/5 318/2/5
f 322/2/5 319/2/5 321/2/5
f 324/2/5 321/2/5 320/2/5
f 324/2/5 322/2/5 321/2/5
f 325/2/5 322/2/5 324/2/5
f 326/1/5 323/1/5 322/1/5
f 326/2/5 322/2/5 325/2/5
f 327/1/5 323/1/5 326/1/5
f 328/1/5 326/1/5 325/1/5
f 329/1/5 326/1/5 328/1/5
f 335/1/5 331/1/5 330/1/5
f 336/2/5 332/2/5 331/2/5
f 336/1/5 331/1/5 335/1/5
f 337/6/5 333/6/5 332/6/5
f 337/2/5 332/2/5 336/2/5
f 338/5/5 334/5/5 333/5/5
f 338/6/5 333/6/5 337/6/5
f 339/5/5 334/5/5 338/5/5
f 340/2/5 338/2/5 337/2/5
f 341/6/5 339/6/5 338/6/5
f 341/2/5 338/2/5 340/2/5
f 342/6/5 339/6/5 341/6/5
f 346/6/5 344/6/5 343/6/5
f 347/5/5 346/5/5 345/5/5
f 348/6/5 344/6/5 346/6/5
f 348/5/5 346/5/5 347/5/5
f 349/6/5 344/6/5 348/6/5
f 353/1/5 351/1/5 350/1/5
f 354/1/5 351/1/5 353/1/5
f 358/2/5 353/2/5 352/2/5
f 359/2/5 353/2/5 358/2/5
f 361/2/5 356/2/5 355/2/5
f 362/2/5 356/2/5 361/2/5
f 363/2/5 358/2/5 357/2/5
f 364/2/5 358/2/5 363/2/5
f 365/2/5 360/2/5 359/2/5
f 366/2/5 360/2/5 365/2/5
f 367/1/5 362/1/5 361/1/5
f 368/1/5 362/1/5 367/1/5
f 369/2/5 368/2/5 367/2/5
f 370/2/5 368/2/5 369/2/5
f 373/3/5 372/3/5 371/3/5
f 374/3/5 372/3/5 373/3/5
f 378/2/5 376/2/5 375/2/5
f 379/6/5 377/6/5 376/6/5
f 379/2/5 376/2/5 378/2/5
f 380/6/5 377/6/5 379/6/5
f 383/4/5 382/4/5 381/4/5
f 384/4/5 382/4/5 383/4/5
f 387/3/5 386/3/5 385/3/5
f 388/3/5 386/3/5 387/3/5
f 390/3/5 389/3/5 388/3/5
f 391/3/5 389/3/5 390/3/5
f 395/5/5 393/5/5 392/5/5
f 396/6/5 394/6/5 393/6/5
f 396/5/5 393/5/5 395/5/5
f 397/6/5 394/6/5 396/6/5
f 398/2/6 399/2/6 401/2/6
f 401/2/6 399/2/6 402/2/6
f 400/2/6 401/2/6 404/2/6
f 404/2/6 401/2/6 405/2/6
f 402/1/6 403/1/6 406/1/6
f 406/1/6 403/1/6 407/1/6
f 405/1/6 406/1/6 408/1/6
f 408/1/6 406/1/6 409/1/6
f 410/1/6 411/1/6 415/1/6
f 411/2/6 412/2/6 416/2/6
f 415/1/6 411/1/6 416/1/6
f 412/6/6 413/6/6 417/6/6
f 416/2/6 412/2/6 417/2/6
f 413/5/6 414/5/6 418/5/6
f 417/6/6 413/6/6 418/6/6
f 418/5/6 414/5/6 419/5/6
f 417/2/6 418/2/6 420/2/6
f 418/6/6 419/6/6 421/6/6
f 420/2/6 418/2/6 421/2/6
f 421/6/6 419/6/6 422/6/6
f 423/6/6 424/6/6 426/6/6
f 425/5/6 426/5/6 427/5/6
f 426/6/6 424/6/6 428/6/6
f 427/5/6 426/5/6 428/5/6
f 428/6/6 424/6/6 429/6/6
f 430/2/6 431/2/6 432/2/6
f 432/2/6 431/2/6 433/2/6
f 434/1/6 435/1/6 437/1/6
f 437/1/6 435/1/6 438/1/6
f 436/2/6 437/2/6 442/2/6
f 442/2/6 437/2/6 443/2/6
f 439/2/6 440/2/6 445/2/6
f 445/2/6 440/2/6 446/2/6
f 441/2/6 442/2/6 447/2/6
f 447/2/6 442/2/6 448/2/6
f 443/2/6 444/2/6 449/2/6
f 449/2/6 444/2/6 450/2/6
f 445/1/6 446/1/6 451/1/6
f 451/1/6 446/1/6 452/1/6
f 451/2/6 452/2/6 453/2/6
f 453/2/6 452/2/6 454/2/6
f 455/3/6 456/3/6 457/3/6
f 457/3/6 456/3/6 458/3/6
f 459/2/6 460/2/6 461/2/6
f 461/2/6 460/2/6 462/2/6
f 463/4/6 464/4/6 465/4/6
f 465/4/6 464/4/6 466/4/6
f 467/3/6 468/3/6 469/3/6
f 469/3/6 468/3/6 470/3/6
f 470/3/6 471/3/6 472/3/6
f 472/3/6 471/3/6 473/3/6
f 474/5/6 475/5/6 476/5/6
f 476/5/6 475/5/6 477/5/6
f 478/5/6 479/5/6 481/5/6
f 479/6/6 480/6/6 482/6/6
f 481/5/6 479/5/6 482/5/6
f 482/6/6 480/6/6 483/6/6
