# Blender 3.3.1
# www.blender.org
mtllib Strawberry_Plant_Fase_3.mtl
o Cube.018
v -0.225296 0.892426 0.385187
v 0.163173 0.892426 0.289850
v -0.107716 0.810948 0.864288
v 0.280753 0.810948 0.768951
v -0.050005 0.500000 0.050005
v -0.050005 1.300000 0.050005
v -0.050005 0.500000 -0.049992
v -0.050005 1.300000 -0.049992
v 0.049992 0.500000 0.050005
v 0.049992 1.300000 0.050005
v 0.049992 0.500000 -0.049992
v 0.049992 1.300000 -0.049992
v -0.080029 1.317977 0.178704
v 0.099622 1.317977 -0.178680
v 0.321236 1.537756 0.380412
v 0.500886 1.537756 0.023028
v 0.092787 1.313362 -0.296085
v -0.168665 1.313362 0.243955
v -0.509612 1.518442 -0.587728
v -0.771065 1.518442 -0.047689
v -0.300346 0.682540 0.016983
v 0.092638 0.682540 0.326113
v -0.726581 0.561242 0.558839
v -0.333597 0.561242 0.867968
v 0.279760 1.291158 0.092849
v -0.103264 1.291158 -0.228546
v 0.659572 1.186969 -0.359793
v 0.276548 1.186969 -0.681188
v 0.181299 1.252386 -0.187157
v -0.218698 1.252386 -0.187157
v 0.181299 1.165038 -0.679470
v -0.218698 1.165038 -0.679470
v -0.240124 1.280852 -0.021108
v 0.106283 1.280852 0.178890
v -0.486783 1.199374 0.406118
v -0.140376 1.199374 0.606117
v 0.037792 1.227405 0.295798
v 0.167201 1.227405 -0.187163
v 0.711364 1.166397 0.476281
v 0.840773 1.166397 -0.006679
v -0.274809 1.186147 -0.207514
v -0.168717 1.186147 0.281103
v -0.851951 1.080312 -0.082201
v -0.745859 1.080312 0.406416
v -0.231911 1.147595 0.252595
v 0.331905 1.147595 0.047383
v -0.000656 0.966422 0.887965
v 0.563160 0.966422 0.682753
v 0.431938 1.114822 0.144288
v 0.291696 1.114822 -0.230318
v 0.893942 1.033343 -0.028674
v 0.753700 1.033343 -0.403280
v -0.053934 0.705921 -0.303080
v -0.287972 0.705921 0.249393
v -0.676523 0.524748 -0.566820
v -0.910560 0.524748 -0.014346
v 0.312029 0.744472 -0.020925
v -0.117863 0.744472 -0.276258
v 0.613622 0.638638 -0.528703
v 0.183730 0.638638 -0.784036
v -0.269346 0.785731 -0.135139
v -0.004080 0.785731 0.288690
v -0.860450 0.724722 0.234821
v -0.595184 0.724722 0.658650
v 0.412426 0.907945 -0.024938
v 0.204079 0.907945 -0.366389
v 0.832682 0.820596 -0.281370
v 0.624334 0.820596 -0.622822
v 0.061577 0.820284 0.358204
v 0.407419 0.820284 -0.132096
v 0.614101 0.639110 0.747937
v 0.959943 0.639110 0.257637
v 0.028449 0.982967 -0.401812
v -0.300499 0.982967 -0.025255
v -0.416331 0.877133 -0.790357
v -0.745279 0.877133 -0.413800
v 0.130782 0.628998 -0.315126
v -0.236592 0.628998 -0.156904
v -0.065202 0.561775 -0.770179
v -0.432575 0.561775 -0.611957
v 0.018920 0.979847 0.355767
v -0.317500 0.979846 -0.014123
v -0.494024 0.883755 0.822298
v -0.830445 0.883755 0.452408
vn 0.0388 0.9866 0.1583
vn -1.0000 -0.0000 -0.0000
vn 1.0000 -0.0000 -0.0000
vn -0.0000 -0.0000 1.0000
vn -0.0000 -0.0000 -1.0000
vn -0.0000 -1.0000 -0.0000
vn -0.0000 1.0000 -0.0000
vn -0.3927 0.8982 -0.1974
vn 0.2637 0.9561 0.1277
vn -0.1071 0.9849 0.1362
vn 0.1116 0.9848 -0.1330
vn -0.0000 0.9846 -0.1747
vn -0.0815 0.9866 0.1411
vn 0.0842 0.9962 0.0226
vn -0.1724 0.9843 0.0374
vn 0.0885 0.9659 0.2432
vn 0.1526 0.9866 -0.0571
vn -0.2383 0.9659 -0.1010
vn 0.0901 0.9843 -0.1517
vn -0.0739 0.9962 0.0462
vn 0.1491 0.9846 -0.0910
vn 0.2115 0.9659 0.1492
vn -0.1328 0.9843 -0.1160
vn -0.0532 0.9909 -0.1235
vn -0.1016 0.9905 0.0924
vt 0.500001 0.357145
vt 0.500001 0.642858
vt 0.857147 0.357145
vt 0.857147 0.642858
vt 0.928573 0.357145
vt 0.571428 0.642858
vt 0.928573 0.928576
vt 0.500001 0.642858
vt 1.000000 0.357145
vt 0.857147 0.357145
vt 0.571428 0.714285
vt 1.000000 0.928576
vt 0.857147 0.928576
vt 0.500001 0.714285
vt 0.857147 0.357145
vt 1.000000 0.357145
vt 0.642854 0.642858
vt 0.857147 0.928576
vt 1.000000 0.928576
vt 0.571428 0.642858
vt 0.928573 0.357145
vt 0.642854 0.714285
vt 0.928573 0.928576
vt 0.571428 0.714285
vt 0.500001 0.357145
vt 0.500001 0.642858
vt 0.857147 0.357145
vt 0.857147 0.642858
vt 0.000000 0.000000
vt 0.000000 0.428573
vt 0.500001 0.000000
vt 0.500001 0.428573
vt 0.000000 0.428573
vt 0.000000 0.785715
vt 0.500000 0.428573
vt 0.500000 0.785715
vt 0.500001 0.000000
vt 0.500001 0.357145
vt 0.928572 0.000000
vt 0.928572 0.357145
vt 0.500001 0.357145
vt 0.500001 0.642858
vt 0.857147 0.357145
vt 0.857147 0.642858
vt 0.500001 0.357145
vt 0.500001 0.642858
vt 0.857147 0.357145
vt 0.857147 0.642858
vt 0.000000 0.428573
vt 0.000000 0.785715
vt 0.500000 0.428573
vt 0.500000 0.785715
vt 0.500001 0.000000
vt 0.500001 0.357145
vt 0.928572 0.000000
vt 0.928572 0.357145
vt 0.000000 0.000000
vt 0.000000 0.428573
vt 0.500001 0.000000
vt 0.500001 0.428573
vt 0.500001 0.357145
vt 0.500001 0.642858
vt 0.857147 0.357145
vt 0.857147 0.642858
vt 0.000000 0.000000
vt 0.000000 0.428573
vt 0.500001 0.000000
vt 0.500001 0.428573
vt 0.500001 0.000000
vt 0.500001 0.357145
vt 0.928572 0.000000
vt 0.928572 0.357145
vt 0.000000 0.428573
vt 0.000000 0.785715
vt 0.500000 0.428573
vt 0.500000 0.785715
vt 0.500001 0.357145
vt 0.500001 0.642858
vt 0.857147 0.357145
vt 0.857147 0.642858
vt 0.000000 0.000000
vt 0.000000 0.428573
vt 0.500001 0.000000
vt 0.500001 0.428573
vt 0.500001 0.000000
vt 0.500001 0.357145
vt 0.928572 0.000000
vt 0.928572 0.357145
vt 0.500001 0.357145
vt 0.500001 0.642858
vt 0.857147 0.357145
vt 0.857147 0.642858
vt 0.000000 0.428573
vt 0.000000 0.785715
vt 0.500000 0.428573
vt 0.500000 0.785715
s 0
usemtl Material.031
f 3/3/1 4/4/1 2/2/1 1/1/1
f 5/5/2 6/7/2 8/12/2 7/9/2
f 11/21/3 12/23/3 10/18/3 9/15/3
f 5/5/4 9/16/4 10/19/4 6/7/4
f 8/13/5 12/23/5 11/21/5 7/10/5
f 5/6/6 7/11/6 11/22/6 9/17/6
f 10/20/7 12/24/7 8/14/7 6/8/7
f 15/27/8 16/28/8 14/26/8 13/25/8
f 19/31/9 20/32/9 18/30/9 17/29/9
f 23/35/10 24/36/10 22/34/10 21/33/10
f 27/39/11 28/40/11 26/38/11 25/37/11
f 31/43/12 32/44/12 30/42/12 29/41/12
f 35/47/13 36/48/13 34/46/13 33/45/13
f 39/51/14 40/52/14 38/50/14 37/49/14
f 43/55/15 44/56/15 42/54/15 41/53/15
f 47/59/16 48/60/16 46/58/16 45/57/16
f 51/63/17 52/64/17 50/62/17 49/61/17
f 55/67/18 56/68/18 54/66/18 53/65/18
f 59/71/19 60/72/19 58/70/19 57/69/19
f 63/75/20 64/76/20 62/74/20 61/73/20
f 67/79/21 68/80/21 66/78/21 65/77/21
f 71/83/22 72/84/22 70/82/22 69/81/22
f 75/87/23 76/88/23 74/86/23 73/85/23
f 79/91/24 80/92/24 78/90/24 77/89/24
f 83/95/25 81/93/25 82/94/25 84/96/25
