# Blender 3.3.1
# www.blender.org
mtllib Strawberry_Fase_2.mtl
o plane
v 0.050000 0.400000 -0.050000
v 0.049429 0.413073 -0.349714
v 0.349714 0.413086 -0.050000
v 0.349144 0.426159 -0.349714
v 0.000000 0.000000 0.000000
v 0.000000 0.000000 -0.100000
v 0.000000 0.100000 0.000000
v 0.000000 0.100000 -0.100000
v 0.100000 0.000000 -0.100000
v 0.100000 0.000000 0.000000
v 0.100000 0.100000 -0.100000
v 0.100000 0.100000 0.000000
v -0.000000 0.400000 0.000000
v -0.000000 0.400000 -0.100000
v -0.000000 0.500000 0.000000
v -0.000000 0.500000 -0.100000
v 0.100000 0.400000 -0.100000
v 0.100000 0.400000 0.000000
v 0.100000 0.500000 -0.100000
v 0.100000 0.500000 0.000000
v -0.100000 0.100000 0.000000
v -0.100000 0.100000 -0.100000
v -0.100000 0.200000 0.000000
v -0.100000 0.200000 -0.100000
v 0.200000 0.100000 -0.100000
v 0.200000 0.100000 0.000000
v 0.200000 0.200000 -0.100000
v 0.200000 0.200000 0.000000
v 0.000000 0.100000 -0.100000
v 0.000000 0.100000 -0.200000
v 0.000000 0.200000 -0.100000
v 0.000000 0.200000 -0.200000
v 0.100000 0.100000 -0.200000
v 0.100000 0.100000 -0.100000
v 0.100000 0.200000 -0.200000
v 0.100000 0.200000 -0.100000
v 0.000000 0.100000 0.100000
v 0.000000 0.100000 0.000000
v 0.000000 0.200000 0.100000
v 0.000000 0.200000 0.000000
v 0.100000 0.100000 0.000000
v 0.100000 0.100000 0.100000
v 0.100000 0.200000 0.000000
v 0.100000 0.200000 0.100000
v -0.100000 0.200000 0.100000
v -0.100000 0.200000 -0.200000
v -0.100000 0.400000 0.100000
v -0.100000 0.400000 -0.200000
v 0.200000 0.200000 -0.200000
v 0.200000 0.200000 0.100000
v 0.200000 0.400000 -0.200000
v 0.200000 0.400000 0.100000
vn 0.0436 -0.9981 -0.0436
vn -0.0000 -0.0000 -1.0000
vn -1.0000 -0.0000 -0.0000
vn -0.0000 -0.0000 1.0000
vn 1.0000 -0.0000 -0.0000
vn -0.0000 -1.0000 -0.0000
vn -0.0000 1.0000 -0.0000
vt 0.187500 0.812500
vt 0.187500 1.000000
vt 0.000000 0.812500
vt 0.000000 1.000000
vt 0.187500 0.562500
vt 0.312500 0.562500
vt 0.375000 0.562500
vt 0.375000 0.625000
vt 0.250000 0.562500
vt 0.375000 0.500000
vt 0.187500 0.500000
vt 0.312500 0.500000
vt 0.437500 0.625000
vt 0.375000 0.562500
vt 0.250000 0.500000
vt 0.437500 0.562500
vt 0.437500 0.625000
vt 0.312500 0.562500
vt 0.437500 0.500000
vt 0.250000 0.562500
vt 0.375000 0.562500
vt 0.437500 0.562500
vt 0.437500 0.562500
vt 0.312500 0.500000
vt 0.500000 0.562500
vt 0.250000 0.500000
vt 0.375000 0.500000
vt 0.500000 0.625000
vt 0.000000 0.500000
vt 0.125000 0.500000
vt 0.187500 0.500000
vt 0.437500 0.562500
vt 0.062500 0.500000
vt 0.187500 0.437500
vt 0.000000 0.437500
vt 0.125000 0.437500
vt 0.250000 0.500000
vt 0.437500 0.500000
vt 0.062500 0.437500
vt 0.250000 0.437500
vt 0.500000 0.562500
vt 0.125000 0.500000
vt 0.250000 0.437500
vt 0.062500 0.500000
vt 0.187500 0.500000
vt 0.250000 0.500000
vt 0.500000 0.500000
vt 0.125000 0.437500
vt 0.312500 0.437500
vt 0.062500 0.437500
vt 0.187500 0.437500
vt 0.312500 0.500000
vt 0.312500 0.500000
vt 0.562500 0.812500
vt 0.375000 0.750000
vt 0.375000 0.875000
vt 0.375000 0.500000
vt 0.375000 0.687500
vt 0.312500 0.437500
vt 0.562500 0.750000
vt 0.375000 0.687500
vt 0.375000 0.812500
vt 0.375000 0.437500
vt 0.375000 0.625000
vt 0.562500 0.875000
vt 0.375000 0.500000
vt 0.562500 0.687500
vt 0.375000 0.812500
vt 0.437500 0.500000
vt 0.562500 0.750000
vt 0.562500 0.812500
vt 0.375000 0.437500
vt 0.562500 0.625000
vt 0.375000 0.750000
vt 0.437500 0.437500
vt 0.562500 0.687500
vt 0.437500 0.500000
vt 0.562500 0.562500
vt 0.000000 0.437500
vt 0.500000 0.625000
vt 0.500000 0.500000
vt 0.000000 0.375000
vt 0.437500 0.437500
vt 0.562500 0.500000
vt 0.562500 1.000000
vt 0.500000 0.562500
vt 0.500000 0.437500
vt 0.562500 0.937500
vt 0.562500 0.625000
vt 0.500000 0.500000
vt 0.062500 0.375000
vt 0.500000 0.562500
vt 0.562500 0.500000
vt 0.062500 0.437500
vt 0.562500 0.562500
vt 0.500000 0.437500
vt 0.625000 0.937500
vt 0.500000 0.500000
vt 0.562500 0.437500
vt 0.625000 1.000000
vt 0.562500 0.937500
vt 0.187500 0.437500
vt 0.062500 0.437500
vt 0.625000 0.937500
vt 0.187500 0.375000
vt 0.562500 0.875000
vt 0.187500 0.375000
vt 0.562500 0.812500
vt 0.062500 0.375000
vt 0.625000 0.875000
vt 0.562500 0.750000
vt 0.125000 0.437500
vt 0.562500 0.875000
vt 0.250000 0.375000
vt 0.125000 0.437500
vt 0.625000 0.875000
vt 0.250000 0.437500
vt 0.125000 0.375000
vt 0.562500 0.812500
vt 0.625000 0.750000
vt 0.125000 0.375000
vt 0.625000 0.812500
vt 0.187500 0.687500
vt 0.187500 0.625000
vt 0.000000 0.812500
vt 0.187500 0.812500
vt 0.375000 0.687500
vt 0.000000 0.625000
vt 0.187500 0.562500
vt 0.187500 0.500000
vt 0.187500 1.000000
vt 0.187500 0.687500
vt 0.375000 0.562500
vt 0.187500 0.812500
vt 0.375000 0.812500
vt 0.375000 1.000000
vt 0.187500 0.625000
vt 0.000000 0.625000
vt 0.562500 1.000000
vt 0.187500 0.812500
vt 0.375000 0.687500
vt 0.375000 0.875000
vt 0.375000 0.812500
vt 0.000000 0.500000
vt 0.562500 0.875000
vt 0.375000 1.000000
s 0
usemtl m_127514c3-bd95-6ab3-30c8-359ad493fc13
f 1/1/1 2/2/1 4/4/1 3/3/1
f 8/14/2 11/23/2 9/17/2 6/8/2
f 7/11/3 8/15/3 6/9/3 5/5/3
f 12/26/4 7/12/4 5/6/4 10/20/4
f 11/24/5 12/27/5 10/21/5 9/18/5
f 10/22/6 5/7/6 6/10/6 9/19/6
f 11/25/7 8/16/7 7/13/7 12/28/7
f 16/38/2 19/47/2 17/41/2 14/32/2
f 15/35/3 16/39/3 14/33/3 13/29/3
f 20/50/4 15/36/4 13/30/4 18/44/4
f 19/48/5 20/51/5 18/45/5 17/42/5
f 18/46/6 13/31/6 14/34/6 17/43/6
f 19/49/7 16/40/7 15/37/7 20/52/7
f 24/62/2 27/71/2 25/65/2 22/56/2
f 23/59/3 24/63/3 22/57/3 21/53/3
f 28/74/4 23/60/4 21/54/4 26/68/4
f 27/72/5 28/75/5 26/69/5 25/66/5
f 26/70/6 21/55/6 22/58/6 25/67/6
f 27/73/7 24/64/7 23/61/7 28/76/7
f 32/86/2 35/95/2 33/89/2 30/80/2
f 31/83/3 32/87/3 30/81/3 29/77/3
f 36/98/4 31/84/4 29/78/4 34/92/4
f 35/96/5 36/99/5 34/93/5 33/90/5
f 34/94/6 29/79/6 30/82/6 33/91/6
f 35/97/7 32/88/7 31/85/7 36/100/7
f 40/109/2 43/118/2 41/112/2 38/103/2
f 39/106/3 40/110/3 38/104/3 37/101/3
f 44/121/4 39/107/4 37/102/4 42/115/4
f 43/119/5 44/122/5 42/116/5 41/113/5
f 42/117/6 37/102/6 38/105/6 41/114/6
f 43/120/7 40/111/7 39/108/7 44/122/7
f 48/132/2 51/141/2 49/135/2 46/126/2
f 47/129/3 48/133/3 46/127/3 45/123/3
f 52/144/4 47/130/4 45/124/4 50/138/4
f 51/142/5 52/145/5 50/139/5 49/136/5
f 50/140/6 45/125/6 46/128/6 49/137/6
f 51/143/7 48/134/7 47/131/7 52/146/7
