# Blender 4.2.3 LTS
# www.blender.org
mtllib weed4.mtl
o Cube
v -0.250000 0.000000 0.250000
v -0.250000 0.200000 0.250000
v -0.250000 0.000000 -0.250000
v -0.250000 0.200000 -0.250000
v 0.250000 0.000000 0.250000
v 0.250000 0.000000 -0.250000
v 0.250000 0.200000 -0.250000
v 0.250000 0.200000 0.250000
v -0.450000 0.200000 0.450000
v -0.450000 0.900000 0.450000
v -0.450000 0.900000 -0.450000
v -0.450000 0.200000 -0.450000
v 0.450000 0.900000 0.450000
v 0.450000 0.200000 0.450000
v 0.450000 0.200000 -0.450000
v 0.450000 0.900000 -0.450000
v 0.450000 1.200000 -0.450000
v -0.450000 1.200000 -0.450000
v -0.450000 1.200000 0.450000
v 0.450000 1.200000 0.450000
v 0.750000 0.900000 0.450000
v 0.750000 0.200000 0.450000
v 0.750000 0.200000 -0.450000
v 0.750000 0.900000 -0.450000
v -0.450000 0.200000 0.750000
v -0.450000 0.900000 0.750000
v 0.450000 0.900000 0.750000
v 0.450000 0.200000 0.750000
v -0.750000 0.200000 0.450000
v -0.750000 0.900000 0.450000
v -0.750000 0.900000 -0.450000
v -0.750000 0.200000 -0.450000
v 0.450000 0.200000 -0.750000
v 0.450000 0.900000 -0.750000
v -0.450000 0.900000 -0.750000
v -0.450000 0.200000 -0.750000
v 0.635914 0.000000 -0.729884
v 0.635914 0.100000 -0.729884
v 0.729884 0.000000 -0.764086
v 0.729884 0.100000 -0.764086
v 0.670116 0.000000 -0.635914
v 0.670116 0.100000 -0.635914
v 0.764086 0.000000 -0.670116
v 0.764086 0.100000 -0.670116
v 0.541945 0.100000 -0.695682
v 0.823853 0.100000 -0.798288
v 0.610349 0.100000 -0.507743
v 0.610349 0.300000 -0.507743
v 0.892257 0.300000 -0.610349
v 0.892257 0.100000 -0.610349
v 0.507743 0.300000 -0.789651
v 0.507743 0.100000 -0.789651
v 0.789651 0.100000 -0.892257
v 0.789651 0.300000 -0.892257
v -0.818301 0.000000 -0.731699
v -0.818301 0.100000 -0.731699
v -0.868301 0.000000 -0.818301
v -0.868301 0.100000 -0.818301
v -0.731699 0.000000 -0.781699
v -0.731699 0.100000 -0.781699
v -0.781699 0.000000 -0.868301
v -0.781699 0.100000 -0.868301
v -0.768301 0.100000 -0.645096
v -0.918301 0.100000 -0.904904
v -0.595096 0.100000 -0.745096
v -0.595096 0.300000 -0.745096
v -0.745096 0.300000 -1.004904
v -0.745096 0.100000 -1.004904
v -0.854904 0.300000 -0.595096
v -0.854904 0.100000 -0.595096
v -1.004904 0.100000 -0.854904
v -1.004904 0.300000 -0.854904
v -0.750000 0.000000 0.850000
v -0.750000 0.100000 0.850000
v -0.750000 0.000000 0.750000
v -0.750000 0.100000 0.750000
v -0.650000 0.000000 0.850000
v -0.650000 0.100000 0.850000
v -0.650000 0.000000 0.750000
v -0.650000 0.100000 0.750000
v -0.750000 0.100000 0.950000
v -0.750000 0.100000 0.650000
v -0.550000 0.100000 0.950000
v -0.550000 0.300000 0.950000
v -0.550000 0.300000 0.650000
v -0.550000 0.100000 0.650000
v -0.850000 0.300000 0.950000
v -0.850000 0.100000 0.950000
v -0.850000 0.100000 0.650000
v -0.850000 0.300000 0.650000
vn -1.0000 -0.0000 -0.0000
vn -0.0000 -0.0000 -1.0000
vn 1.0000 -0.0000 -0.0000
vn -0.0000 -0.0000 1.0000
vn -0.0000 -1.0000 -0.0000
vn -0.0000 1.0000 -0.0000
vn -0.3420 -0.0000 -0.9397
vn 0.9397 -0.0000 -0.3420
vn 0.3420 -0.0000 0.9397
vn -0.9397 -0.0000 0.3420
vn -0.8660 -0.0000 0.5000
vn -0.5000 -0.0000 -0.8660
vn 0.8660 -0.0000 -0.5000
vn 0.5000 -0.0000 0.8660
vt 0.166667 0.400000
vt 0.166667 0.466667
vt 0.333333 0.466667
vt 0.333333 0.400000
vt 0.100000 0.700000
vt 0.400000 0.700000
vt 0.400000 0.800000
vt 0.100000 0.800000
vt 1.000000 0.300000
vt 0.900000 0.300000
vt 0.833333 0.366667
vt 0.833333 0.533333
vt 0.900000 0.600000
vt 1.000000 0.600000
vt 0.400000 0.466667
vt 0.100000 0.466667
vt -0.000000 0.466667
vt -0.000000 0.700000
vt 0.700000 0.700000
vt 0.700000 1.000000
vt 0.400000 1.000000
vt 0.500000 0.466667
vt 0.500000 0.700000
vt 0.666667 0.533333
vt 0.666667 0.366667
vt 0.900000 0.200000
vt 0.600000 0.200000
vt 0.600000 0.300000
vt 0.500000 0.300000
vt 0.500000 0.600000
vt 0.600000 0.600000
vt 0.600000 0.700000
vt 0.900000 0.700000
vt 0.133333 0.900000
vt 0.133333 0.933333
vt 0.166667 0.933333
vt 0.166667 0.900000
vt 0.100000 0.933333
vt 0.100000 1.000000
vt 0.200000 1.000000
vt 0.200000 0.933333
vt -0.000000 0.900000
vt 0.100000 0.900000
vt -0.000000 1.000000
vt 0.033333 0.866667
vt 0.033333 0.833333
vt -0.000000 0.800000
vt 0.033333 0.900000
vt 0.066667 0.866667
vt 0.033333 0.800000
vt 0.066667 0.833333
s 0
usemtl Material.001
f 1/1/1 2/2/1 4/3/1 3/4/1
f 3/1/2 4/2/2 7/3/2 6/4/2
f 6/4/3 7/3/3 8/2/3 5/1/3
f 5/4/4 8/3/4 2/2/4 1/1/4
f 13/5/3 16/6/3 17/7/3 20/8/3
f 22/9/5 14/10/5 8/11/5 7/12/5 15/13/5 23/14/5
f 30/5/1 31/6/1 32/15/1 29/16/1
f 12/17/1 11/18/1 35/5/1 36/16/1
f 9/16/4 10/5/4 30/18/4 29/17/4
f 16/6/6 34/7/6 35/8/6 11/5/6
f 15/17/2 16/18/2 24/5/2 23/16/2
f 33/15/2 36/16/2 35/5/2 34/6/2
f 11/8/6 31/5/6 30/6/6 10/7/6
f 13/6/4 20/7/4 19/8/4 10/5/4
f 19/6/6 20/19/6 17/20/6 18/21/6
f 16/5/6 13/6/6 21/7/6 24/8/6
f 22/16/3 23/15/3 24/6/3 21/5/3
f 13/6/4 14/15/4 22/22/4 21/23/4
f 16/6/2 11/5/2 18/8/2 17/7/2
f 10/23/1 9/22/1 25/15/1 26/6/1
f 14/16/3 13/5/3 27/18/3 28/17/3
f 11/23/2 12/22/2 32/15/2 31/6/2
f 13/7/6 10/8/6 26/5/6 27/6/6
f 26/5/4 25/16/4 28/15/4 27/6/4
f 11/6/1 10/5/1 19/8/1 18/7/1
f 16/6/3 15/15/3 33/22/3 34/23/3
f 4/24/5 2/25/5 8/11/5 14/10/5 28/26/5 25/27/5 9/28/5 29/29/5 32/30/5 12/31/5 36/32/5 33/33/5 15/13/5 7/12/5
f 37/34/7 38/35/7 40/36/7 39/37/7
f 39/37/8 40/36/8 44/35/8 43/34/8
f 43/37/9 44/36/9 42/35/9 41/34/9
f 41/34/10 42/35/10 38/36/10 37/37/10
f 45/36/10 47/38/10 48/39/10 51/40/10 52/41/10
f 54/40/8 49/39/8 50/38/8 46/36/8 53/41/8
f 48/39/9 47/38/9 50/41/9 49/40/9
f 53/41/7 52/38/7 51/39/7 54/40/7
f 48/42/6 49/43/6 54/39/6 51/44/6
f 40/45/5 38/46/5 52/47/5 53/42/5 46/48/5 50/43/5 44/49/5
f 47/8/5 45/50/5 52/47/5 38/46/5 42/51/5 44/49/5 50/43/5
f 55/34/11 56/35/11 58/36/11 57/37/11
f 57/34/12 58/35/12 62/36/12 61/37/12
f 61/37/13 62/36/13 60/35/13 59/34/13
f 59/37/14 60/36/14 56/35/14 55/34/14
f 63/35/14 65/41/14 66/40/14 69/39/14 70/38/14
f 72/39/12 67/40/12 68/41/12 64/35/12 71/38/12
f 66/39/13 65/38/13 68/41/13 67/40/13
f 71/41/11 70/38/11 69/39/11 72/40/11
f 66/43/6 67/39/6 72/44/6 69/42/6
f 58/45/5 56/46/5 70/47/5 71/42/5 64/48/5 68/43/5 62/49/5
f 65/8/5 63/50/5 70/47/5 56/46/5 60/51/5 62/49/5 68/43/5
f 73/34/1 74/35/1 76/36/1 75/37/1
f 75/34/2 76/35/2 80/36/2 79/37/2
f 79/37/3 80/36/3 78/35/3 77/34/3
f 77/37/4 78/36/4 74/35/4 73/34/4
f 81/35/4 83/41/4 84/40/4 87/39/4 88/38/4
f 90/39/2 85/40/2 86/41/2 82/35/2 89/38/2
f 84/39/3 83/38/3 86/41/3 85/40/3
f 89/41/1 88/38/1 87/39/1 90/40/1
f 84/43/6 85/39/6 90/44/6 87/42/6
f 76/45/5 74/46/5 88/47/5 89/42/5 82/48/5 86/43/5 80/49/5
f 83/8/5 81/50/5 88/47/5 74/46/5 78/51/5 80/49/5 86/43/5
