# Blender 4.2.3 LTS
# www.blender.org
mtllib weed5.mtl
o Cube
v -0.764421 0.000000 -0.568216
v -0.764421 0.100000 -0.568216
v -0.730219 0.000000 -0.662186
v -0.730219 0.100000 -0.662186
v -0.670451 0.000000 -0.534014
v -0.670451 0.100000 -0.534014
v -0.636249 0.000000 -0.627984
v -0.636249 0.100000 -0.627984
v -0.798623 0.100000 -0.474247
v -0.696017 0.100000 -0.756155
v -0.610684 0.100000 -0.405843
v -0.610684 0.300000 -0.405843
v -0.508078 0.300000 -0.687751
v -0.508078 0.100000 -0.687751
v -0.892592 0.300000 -0.508449
v -0.892592 0.100000 -0.508449
v -0.789986 0.100000 -0.790357
v -0.789986 0.300000 -0.790357
vn -0.9397 -0.0000 -0.3420
vn 0.3420 -0.0000 -0.9397
vn 0.9397 -0.0000 0.3420
vn -0.3420 -0.0000 0.9397
vn -0.0000 1.0000 -0.0000
vn -0.0000 -1.0000 -0.0000
vt 0.133333 0.900000
vt 0.133333 0.933333
vt 0.166667 0.933333
vt 0.166667 0.900000
vt 0.200000 0.933333
vt 0.200000 1.000000
vt 0.100000 1.000000
vt 0.100000 0.933333
vt 0.100000 0.900000
vt 0.000000 1.000000
vt 0.000000 0.900000
vt 0.033333 0.866667
vt 0.033333 0.833333
vt -0.000000 0.800000
vt 0.033333 0.900000
vt 0.066667 0.866667
vt 0.100000 0.800000
vt 0.033333 0.800000
vt 0.066667 0.833333
s 0
usemtl Material.001
f 1/1/1 2/2/1 4/3/1 3/4/1
f 3/1/2 4/2/2 8/3/2 7/4/2
f 7/4/3 8/3/3 6/2/3 5/1/3
f 5/4/4 6/3/4 2/2/4 1/1/4
f 9/2/4 11/5/4 12/6/4 15/7/4 16/8/4
f 18/7/2 13/6/2 14/5/2 10/2/2 17/8/2
f 12/7/3 11/8/3 14/5/3 13/6/3
f 17/5/1 16/8/1 15/7/1 18/6/1
f 12/9/5 13/7/5 18/10/5 15/11/5
f 4/12/6 2/13/6 16/14/6 17/11/6 10/15/6 14/9/6 8/16/6
f 11/17/6 9/18/6 16/14/6 2/13/6 6/19/6 8/16/6 14/9/6
o Cube.001
v -0.450000 0.000000 0.650000
v -0.450000 0.100000 0.650000
v -0.450000 0.000000 0.550000
v -0.450000 0.100000 0.550000
v -0.350000 0.000000 0.650000
v -0.350000 0.100000 0.650000
v -0.350000 0.000000 0.550000
v -0.350000 0.100000 0.550000
v -0.450000 0.100000 0.750000
v -0.450000 0.100000 0.450000
v -0.250000 0.100000 0.750000
v -0.250000 0.300000 0.750000
v -0.250000 0.300000 0.450000
v -0.250000 0.100000 0.450000
v -0.550000 0.300000 0.750000
v -0.550000 0.100000 0.750000
v -0.550000 0.100000 0.450000
v -0.550000 0.300000 0.450000
vn -1.0000 -0.0000 -0.0000
vn -0.0000 -0.0000 -1.0000
vn 1.0000 -0.0000 -0.0000
vn -0.0000 -0.0000 1.0000
vn -0.0000 1.0000 -0.0000
vn -0.0000 -1.0000 -0.0000
vt 0.133333 0.900000
vt 0.133333 0.933333
vt 0.166667 0.933333
vt 0.166667 0.900000
vt 0.200000 0.933333
vt 0.200000 1.000000
vt 0.100000 1.000000
vt 0.100000 0.933333
vt 0.100000 0.900000
vt 0.000000 1.000000
vt 0.000000 0.900000
vt 0.033333 0.866667
vt 0.033333 0.833333
vt -0.000000 0.800000
vt 0.033333 0.900000
vt 0.066667 0.866667
vt 0.100000 0.800000
vt 0.033333 0.800000
vt 0.066667 0.833333
s 0
usemtl Material.002
f 19/20/7 20/21/7 22/22/7 21/23/7
f 21/20/8 22/21/8 26/22/8 25/23/8
f 25/23/9 26/22/9 24/21/9 23/20/9
f 23/23/10 24/22/10 20/21/10 19/20/10
f 27/21/10 29/24/10 30/25/10 33/26/10 34/27/10
f 36/26/8 31/25/8 32/24/8 28/21/8 35/27/8
f 30/26/9 29/27/9 32/24/9 31/25/9
f 35/24/7 34/27/7 33/26/7 36/25/7
f 30/28/11 31/26/11 36/29/11 33/30/11
f 22/31/12 20/32/12 34/33/12 35/30/12 28/34/12 32/28/12 26/35/12
f 29/36/12 27/37/12 34/33/12 20/32/12 24/38/12 26/35/12 32/28/12
o Cube.002
v 0.398373 0.000000 -0.333218
v 0.398373 0.100000 -0.333218
v 0.327662 0.000000 -0.403928
v 0.327662 0.100000 -0.403928
v 0.469084 0.000000 -0.403928
v 0.469084 0.100000 -0.403928
v 0.398373 0.000000 -0.474639
v 0.398373 0.100000 -0.474639
v 0.469084 0.100000 -0.262507
v 0.256952 0.100000 -0.474639
v 0.610505 0.100000 -0.403928
v 0.610505 0.300000 -0.403928
v 0.398373 0.300000 -0.616060
v 0.398373 0.100000 -0.616060
v 0.398373 0.300000 -0.191796
v 0.398373 0.100000 -0.191796
v 0.186241 0.100000 -0.403928
v 0.186241 0.300000 -0.403928
vn -0.7071 -0.0000 0.7071
vn -0.7071 -0.0000 -0.7071
vn 0.7071 -0.0000 -0.7071
vn 0.7071 -0.0000 0.7071
vn -0.0000 1.0000 -0.0000
vn -0.0000 -1.0000 -0.0000
vt 0.133333 0.900000
vt 0.133333 0.933333
vt 0.166667 0.933333
vt 0.166667 0.900000
vt 0.200000 0.933333
vt 0.200000 1.000000
vt 0.100000 1.000000
vt 0.100000 0.933333
vt 0.100000 0.900000
vt 0.000000 1.000000
vt 0.000000 0.900000
vt 0.033333 0.866667
vt 0.033333 0.833333
vt -0.000000 0.800000
vt 0.033333 0.900000
vt 0.066667 0.866667
vt 0.100000 0.800000
vt 0.033333 0.800000
vt 0.066667 0.833333
s 0
usemtl Material.003
f 37/39/13 38/40/13 40/41/13 39/42/13
f 39/39/14 40/40/14 44/41/14 43/42/14
f 43/42/15 44/41/15 42/40/15 41/39/15
f 41/42/16 42/41/16 38/40/16 37/39/16
f 45/40/16 47/43/16 48/44/16 51/45/16 52/46/16
f 54/45/14 49/44/14 50/43/14 46/40/14 53/46/14
f 48/45/15 47/46/15 50/43/15 49/44/15
f 53/43/13 52/46/13 51/45/13 54/44/13
f 48/47/17 49/45/17 54/48/17 51/49/17
f 40/50/18 38/51/18 52/52/18 53/49/18 46/53/18 50/47/18 44/54/18
f 47/55/18 45/56/18 52/52/18 38/51/18 42/57/18 44/54/18 50/47/18
o Cube.003
v -0.629884 0.000000 -0.035914
v -0.664086 0.000000 -0.129884
v -0.535914 0.000000 -0.070116
v -0.570116 0.000000 -0.164086
v -0.629884 0.500000 -0.035914
v -0.664086 0.500000 -0.129884
v -0.570116 0.500000 -0.164086
v -0.535914 0.500000 -0.070116
v -0.766692 0.500000 -0.411791
v -0.911791 0.500000 0.066692
v -0.809185 0.600000 0.348599
v -0.809185 0.500000 0.348599
v -1.048599 0.500000 -0.309185
v -1.048599 0.600000 -0.309185
v -0.151400 0.500000 0.109185
v -0.151400 0.600000 0.109185
v -0.390815 0.600000 -0.548599
v -0.390815 0.500000 -0.548599
vn -0.9397 -0.0000 0.3420
vn -0.3420 -0.0000 -0.9397
vn 0.9397 -0.0000 -0.3420
vn -0.0000 -1.0000 -0.0000
vn 0.3420 -0.0000 0.9397
vn -0.0000 1.0000 -0.0000
vt 0.100000 0.200000
vt -0.000000 0.200000
vt -0.000000 0.233333
vt 0.233333 0.233333
vt 0.233333 0.200000
vt 0.100000 0.033333
vt 0.133333 0.200000
vt 0.133333 0.033333
vt 0.833333 0.866667
vt 0.933333 0.766667
vt 0.833333 0.766667
vt 0.700000 0.766667
vt 0.700000 1.000000
vt 0.800000 0.900000
vt 0.800000 0.866667
vt 0.466667 0.000000
vt 0.466667 0.233333
vt 0.233333 0.000000
vt 0.933333 1.000000
vt 0.933333 0.900000
vt 0.833333 0.900000
s 0
usemtl Material.001
f 64/58/19 66/59/19 65/60/19 68/61/19 67/62/19
f 55/63/19 59/58/19 60/64/19 56/65/19
f 56/63/20 60/58/20 61/64/20 58/65/20
f 72/62/21 71/61/21 70/60/21 69/59/21
f 60/66/22 67/67/22 63/68/22 72/69/22 69/70/22 62/71/22 61/72/22
f 70/61/23 65/60/23 66/59/23 69/62/23
f 70/73/24 71/74/24 68/61/24 65/75/24
f 58/65/21 61/64/21 62/58/21 57/63/21
f 68/60/20 71/61/20 72/62/20 63/58/20 67/59/20
f 57/65/23 62/64/23 59/58/23 55/63/23
f 62/71/22 69/70/22 66/76/22 64/77/22 67/67/22 60/66/22 59/78/22
o Cube.004
v 0.342077 0.600000 0.440558
v 0.359442 0.600000 0.342077
v 0.457923 0.600000 0.359442
v 0.440558 0.600000 0.457923
v -0.005460 0.700000 0.683906
v -0.005460 0.600000 0.683906
v 0.116094 0.600000 -0.005460
v 0.116094 0.700000 -0.005460
v 0.683906 0.600000 0.805460
v 0.683906 0.700000 0.805460
v 0.805460 0.700000 0.116094
v 0.805460 0.600000 0.116094
v 0.359442 0.000000 0.342077
v 0.342077 0.000000 0.440558
v 0.457923 0.000000 0.359442
v 0.440558 0.000000 0.457923
vn -0.9848 -0.0000 -0.1736
vn 0.1736 -0.0000 -0.9848
vn 0.9848 -0.0000 0.1736
vn -0.0000 -1.0000 -0.0000
vn -0.1736 -0.0000 0.9848
vn -0.0000 1.0000 -0.0000
vt -0.000000 0.200000
vt -0.000000 0.233333
vt 0.233333 0.233333
vt 0.233333 0.200000
vt 0.133333 0.200000
vt 0.133333 0.033333
vt 0.100000 0.033333
vt 0.100000 0.200000
vt 0.833333 0.866667
vt 0.933333 0.766667
vt 0.700000 0.766667
vt 0.700000 1.000000
vt 0.800000 0.900000
vt 0.800000 0.866667
vt 0.466667 0.000000
vt 0.466667 0.233333
vt 0.233333 0.000000
vt 0.933333 1.000000
vt 0.833333 0.900000
s 0
usemtl Material.004
f 78/79/25 77/80/25 80/81/25 79/82/25
f 75/83/26 87/84/26 85/85/26 74/86/26
f 84/82/27 83/81/27 82/80/27 81/79/27
f 74/87/28 79/88/28 84/89/28 81/90/28 76/91/28 75/92/28
f 82/81/29 77/80/29 78/79/29 81/82/29
f 82/93/30 83/94/30 80/81/30 77/95/30
f 74/83/25 85/84/25 86/85/25 73/86/25
f 80/80/26 83/81/26 84/82/26 79/79/26
f 76/86/27 88/85/27 87/84/27 75/83/27
f 76/91/28 81/90/28 78/96/28 79/88/28 74/87/28 73/97/28
f 85/85/28 87/84/28 88/85/28 86/85/28
f 73/86/29 86/85/29 88/84/29 76/83/29
