# Blender 4.2.3 LTS
# www.blender.org
mtllib weed2.mtl
o Cube.111
v -0.550000 1.500000 -0.350000
v -0.550000 1.500000 -0.450000
v -0.450000 1.500000 -0.350000
v -0.450000 1.500000 -0.450000
v -0.550000 0.000000 -0.350000
v -0.550000 0.000000 -0.450000
v -0.450000 0.000000 -0.350000
v -0.450000 0.000000 -0.450000
v -0.250000 0.000000 -0.450000
v -0.250000 0.000000 -0.550000
v -0.150000 0.000000 -0.450000
v -0.150000 0.000000 -0.550000
v -0.250000 0.400000 -0.450000
v -0.250000 0.400000 -0.550000
v -0.150000 0.400000 -0.450000
v -0.150000 0.400000 -0.550000
v 0.250000 0.000000 -0.550000
v 0.250000 0.000000 -0.650000
v 0.350000 0.000000 -0.550000
v 0.350000 0.000000 -0.650000
v 0.250000 1.700000 -0.550000
v 0.250000 1.700000 -0.650000
v 0.350000 1.700000 -0.550000
v 0.350000 1.700000 -0.650000
v 0.050000 0.400000 0.750000
v 0.050000 0.400000 0.650000
v 0.150000 0.400000 0.750000
v 0.150000 0.400000 0.650000
v 0.450000 0.000000 0.450000
v 0.450000 0.000000 0.350000
v 0.550000 0.000000 0.450000
v 0.550000 0.000000 0.350000
v 0.450000 1.700000 0.450000
v 0.450000 1.700000 0.350000
v 0.550000 1.700000 0.450000
v 0.550000 1.700000 0.350000
v 0.050000 0.000000 0.750000
v 0.050000 0.000000 0.650000
v 0.150000 0.000000 0.750000
v 0.150000 0.000000 0.650000
v 0.250000 0.400000 -0.050000
v 0.250000 0.400000 -0.150000
v 0.350000 0.400000 -0.050000
v 0.350000 0.400000 -0.150000
v 0.250000 0.000000 -0.050000
v 0.250000 0.000000 -0.150000
v 0.350000 0.000000 -0.050000
v 0.350000 0.000000 -0.150000
v -0.575899 1.400000 -0.274335
v -0.281790 1.641482 0.023053
v -0.362594 1.400000 -0.485288
v -0.068485 1.641482 -0.187899
v -0.451594 1.576777 -0.148644
v -0.238289 1.576777 -0.359596
v -0.434755 1.400000 -0.558254
v -0.728864 1.641481 -0.855642
v -0.648060 1.400000 -0.347301
v -0.942169 1.641481 -0.644690
v -0.559060 1.576777 -0.683945
v -0.772365 1.576777 -0.472992
v -0.593186 1.000000 -0.262700
v -0.251609 1.206999 0.165709
v -0.358618 1.000000 -0.449724
v -0.017041 1.206999 -0.021315
v -0.491997 1.116851 -0.135788
v -0.375808 1.189407 0.009937
v -0.141241 1.189407 -0.177087
v -0.257430 1.116851 -0.322812
v -0.360253 1.000000 -0.451774
v -0.701830 1.206999 -0.880184
v -0.594820 1.000000 -0.264750
v -0.936398 1.206999 -0.693160
v -0.461442 1.116851 -0.578686
v -0.577631 1.189407 -0.724412
v -0.812198 1.189407 -0.537387
v -0.696009 1.116851 -0.391662
v 0.450000 0.600000 0.550000
v 0.997914 0.806999 0.550000
v 0.450000 0.600000 0.250000
v 0.997914 0.806999 0.250000
v 0.612314 0.716851 0.550000
v 0.798689 0.789407 0.550000
v 0.798689 0.789407 0.250000
v 0.612314 0.716851 0.250000
v 0.547378 0.400000 0.250000
v -0.000536 0.606999 0.250000
v 0.547378 0.400000 0.550000
v -0.000535 0.606999 0.550000
v 0.385064 0.516851 0.250000
v 0.198689 0.589407 0.250000
v 0.198689 0.589407 0.550000
v 0.385064 0.516851 0.550000
v 0.571093 1.100000 0.516718
v 0.917244 1.306999 0.091995
v 0.338544 1.100000 0.327189
v 0.684695 1.306999 -0.097533
v 0.673637 1.216851 0.390898
v 0.791382 1.289407 0.246427
v 0.558833 1.289407 0.056898
v 0.441088 1.216851 0.201370
v 0.478645 1.100000 0.222454
v -0.023050 1.306999 0.442709
v 0.599241 1.100000 0.497148
v 0.097546 1.306999 0.717402
v 0.330023 1.216851 0.287703
v 0.159369 1.289407 0.362623
v 0.279966 1.289407 0.637317
v 0.450619 1.216851 0.562396
v 0.664020 1.600000 0.474816
v 0.923920 1.841481 0.147108
v 0.428969 1.600000 0.288400
v 0.688868 1.841481 -0.039307
v 0.773867 1.776777 0.336310
v 0.538815 1.776777 0.149895
v 0.388965 1.596072 0.330136
v 0.044500 1.837554 0.567379
v 0.559129 1.596072 0.577207
v 0.214665 1.837554 0.814450
v 0.243377 1.772849 0.430407
v 0.413542 1.772849 0.677477
v 0.648689 1.600000 0.348689
v 0.648689 1.841481 -0.069569
v 0.348689 1.600000 0.348689
v 0.348689 1.841481 -0.069569
v 0.648689 1.776777 0.171912
v 0.348689 1.776777 0.171912
v -0.323033 0.500000 -0.388377
v -0.147965 0.706999 -0.907569
v -0.607307 0.500000 -0.484232
v -0.432239 0.706999 -1.003424
v -0.271171 0.616851 -0.542182
v -0.211621 0.689407 -0.718788
v -0.495895 0.689407 -0.814643
v -0.555445 0.616851 -0.638037
v -0.667453 0.806999 -0.992105
v -0.649764 0.600000 -0.367687
v -0.926406 0.806999 -0.840635
v -0.472763 0.716851 -0.659263
v -0.566864 0.789407 -0.820138
v -0.825817 0.789407 -0.668668
v -0.731717 0.716851 -0.507793
v -0.373123 0.806999 0.105260
v -0.390811 0.600000 -0.519157
v -0.114169 0.806999 -0.046210
v -0.567812 0.716851 -0.227582
v -0.473711 0.789407 -0.066707
v -0.214758 0.789407 -0.218177
v -0.308859 0.716851 -0.379052
v 0.374827 1.400000 -0.460713
v 0.940392 1.508598 -0.558509
v 0.323711 1.400000 -0.756326
v 0.889275 1.508598 -0.854122
v 0.548312 1.494885 -0.490711
v 0.743697 1.521021 -0.524497
v 0.692580 1.521021 -0.820110
v 0.497195 1.494885 -0.786324
v 0.424462 0.800000 -0.502485
v 0.740253 0.889743 -0.711395
v 0.258940 0.800000 -0.752689
v 0.574732 0.889743 -0.961600
v 0.573450 0.889932 -0.601047
v 0.407928 0.889932 -0.851252
v 0.322266 1.397974 -0.756055
v -0.222380 1.585462 -0.658946
v 0.376271 1.402025 -0.460984
v -0.168375 1.589513 -0.363875
v 0.163489 1.516453 -0.728622
v -0.026202 1.569955 -0.694638
v 0.027803 1.574005 -0.399567
v 0.217494 1.520504 -0.433550
v 0.175538 0.800000 -0.697515
v -0.140253 0.889743 -0.488605
v 0.341060 0.800000 -0.447311
v 0.025269 0.889743 -0.238400
v 0.026550 0.889932 -0.598953
v 0.192072 0.889932 -0.348748
v 0.369289 1.100000 -0.742123
v -0.199685 1.208598 -0.817593
v 0.329842 1.100000 -0.444728
v -0.239132 1.208598 -0.520197
v 0.194759 1.194885 -0.765273
v -0.001804 1.221021 -0.791346
v -0.041251 1.221021 -0.493950
v 0.155312 1.194885 -0.467878
v 0.295159 1.100000 -0.441960
v 0.833850 1.208598 -0.243872
v 0.398697 1.100000 -0.723527
v 0.937388 1.208598 -0.525439
v 0.460400 1.194885 -0.381198
v 0.646501 1.221021 -0.312764
v 0.750039 1.221021 -0.594331
v 0.563938 1.194885 -0.662764
v 0.153666 1.300000 -0.659886
v -0.220545 1.408598 -0.224692
v 0.381136 1.300000 -0.464291
v 0.006925 1.408598 -0.029097
v 0.038878 1.394886 -0.526392
v -0.090400 1.421021 -0.376046
v 0.137070 1.421021 -0.180451
v 0.266348 1.394886 -0.330797
v 0.150092 0.400000 -0.650275
v -0.195123 0.508599 -0.191740
v 0.389762 0.400000 -0.469835
v 0.044547 0.508599 -0.011301
v 0.044199 0.494886 -0.509621
v -0.075063 0.521021 -0.351211
v 0.164607 0.521021 -0.170772
v 0.283869 0.494886 -0.329182
v 0.265274 0.400000 -0.445747
v 0.836346 0.508599 -0.503229
v 0.235229 0.400000 -0.744238
v 0.806301 0.508599 -0.801721
v 0.440448 0.494886 -0.463379
v 0.637736 0.521021 -0.483238
v 0.607690 0.521021 -0.781729
v 0.410402 0.494886 -0.761871
v 0.132817 1.697974 -0.550546
v 0.133874 1.885462 0.002688
v 0.432784 1.702025 -0.552492
v 0.433841 1.889513 0.000743
v 0.132263 1.816453 -0.389417
v 0.132790 1.869955 -0.196706
v 0.432757 1.874005 -0.198652
v 0.432229 1.820504 -0.391363
v 0.115584 0.200000 0.542656
v -0.232870 0.354130 0.621686
v 0.181939 0.200000 0.835226
v -0.166515 0.354130 0.914256
v -0.040755 0.319586 0.578114
v 0.025600 0.319586 0.870684
v 0.407793 0.300000 0.019783
v 0.612733 0.454130 -0.272903
v 0.162047 0.300000 -0.152290
v 0.366988 0.454130 -0.444976
v 0.499742 0.419586 -0.111534
v 0.253997 0.419586 -0.283607
v -0.050000 0.200000 -0.450000
v -0.050000 0.444966 -0.980295
v -0.350000 0.200000 -0.450000
v -0.350000 0.444966 -0.980295
v -0.050000 0.334866 -0.597686
v -0.050000 0.408454 -0.783656
v -0.350000 0.408454 -0.783656
v -0.350000 0.334866 -0.597686
v -0.342212 1.600000 0.540749
v -0.442212 1.600000 0.540749
v -0.342212 1.600000 0.440749
v -0.442212 1.600000 0.440749
v -0.342212 0.000000 0.540749
v -0.442212 0.000000 0.540749
v -0.342212 0.000000 0.440749
v -0.442212 0.000000 0.440749
v -0.337457 0.700000 0.322065
v -0.797708 0.906999 0.024780
v -0.500230 0.700000 0.574067
v -0.960481 0.906999 0.276782
v -0.473802 0.816851 0.233998
v -0.630358 0.889407 0.132875
v -0.793131 0.889407 0.384877
v -0.636575 0.816851 0.485999
v -0.266547 1.600000 0.566649
v 0.030842 1.841482 0.272540
v -0.477499 1.600000 0.353344
v -0.180111 1.841482 0.059235
v -0.140856 1.776777 0.442344
v -0.351808 1.776777 0.229039
v -0.550465 1.600000 0.425505
v -0.847854 1.841482 0.719613
v -0.339513 1.600000 0.638810
v -0.636901 1.841482 0.932918
v -0.676157 1.776777 0.549810
v -0.465204 1.776777 0.763115
v -0.440476 1.200000 0.649512
v 0.012809 1.406999 0.957315
v -0.271944 1.200000 0.401324
v 0.181341 1.406999 0.709128
v -0.306195 1.316851 0.740695
v -0.152008 1.389407 0.845396
v 0.016524 1.389407 0.597208
v -0.137663 1.316851 0.492508
v -0.274113 1.200000 0.399851
v -0.727397 1.406999 0.092048
v -0.442644 1.200000 0.648039
v -0.895929 1.406999 0.340236
v -0.408394 1.316851 0.308668
v -0.562580 1.389407 0.203967
v -0.731112 1.389407 0.452155
v -0.576925 1.316851 0.556855
v 0.219209 0.706999 0.421514
v 0.111728 0.706999 0.141428
v -0.140795 0.616851 0.559661
v 0.033209 0.689407 0.492889
v -0.074272 0.689407 0.212804
v -0.248275 0.616851 0.279576
v -0.399814 0.500000 0.337727
v -0.911357 0.706999 0.534027
v -0.292334 0.500000 0.617813
v -0.803877 0.706999 0.814113
v -0.551354 0.616851 0.395879
v -0.725357 0.689407 0.462651
v -0.617877 0.689407 0.742737
v -0.443874 0.616851 0.675965
v -0.240095 0.800000 0.472475
v -0.471653 1.006999 -0.024104
v -0.511987 0.800000 0.599260
v -0.743545 1.006999 0.102682
v -0.308691 0.916851 0.325368
v -0.387457 0.989407 0.156455
v -0.659349 0.989407 0.283241
v -0.580584 0.916851 0.452154
v -0.454457 0.900000 0.639901
v -0.033669 1.106999 0.990825
v -0.262315 0.900000 0.409507
v 0.158472 1.106999 0.760431
v -0.329803 1.016851 0.743859
v -0.186670 1.089407 0.863227
v 0.005472 1.089407 0.632833
v -0.137661 1.016851 0.513465
vn -0.0000 -0.0000 1.0000
vn -0.0000 1.0000 -0.0000
vn -1.0000 -0.0000 -0.0000
vn -0.0000 -0.0000 -1.0000
vn 1.0000 -0.0000 -0.0000
vn -0.1820 0.9659 -0.1840
vn -0.4972 0.7071 -0.5028
vn 0.1820 0.9659 0.1840
vn 0.4972 0.7071 0.5028
vn -0.0548 0.9961 -0.0688
vn -0.3642 0.8116 -0.4568
vn -0.2262 0.9319 -0.2837
vn 0.0548 0.9961 0.0688
vn 0.3642 0.8116 0.4568
vn 0.2262 0.9319 0.2837
vn -0.0880 0.9961 -0.0000
vn -0.5843 0.8116 -0.0000
vn -0.3628 0.9319 -0.0000
vn 0.0880 0.9961 -0.0000
vn 0.5843 0.8116 -0.0000
vn 0.3628 0.9319 -0.0000
vn -0.0556 0.9961 0.0682
vn -0.3691 0.8116 0.4529
vn -0.2292 0.9319 0.2812
vn 0.0805 0.9961 -0.0354
vn 0.5350 0.8116 -0.2349
vn 0.3322 0.9319 -0.1458
vn -0.1608 0.9659 0.2028
vn -0.4394 0.7071 0.5540
vn 0.2132 0.9659 -0.1468
vn 0.5824 0.7071 -0.4011
vn -0.0000 0.9659 0.2588
vn -0.0000 0.7071 0.7071
vn -0.0281 0.9961 0.0833
vn -0.1867 0.8116 0.5536
vn -0.1159 0.9319 0.3438
vn 0.0444 0.9961 0.0759
vn 0.2950 0.8116 0.5043
vn 0.1832 0.9319 0.3131
vn -0.0444 0.9961 -0.0759
vn -0.2950 0.8116 -0.5043
vn -0.1832 0.9319 -0.3131
vn 0.0612 0.9981 -0.0106
vn -0.4675 0.8803 0.0808
vn -0.1288 0.9914 0.0223
vn 0.0008 1.0000 -0.0005
vn -0.3750 0.8932 0.2481
vn 0.0739 0.9969 -0.0272
vn 0.5808 0.8055 -0.1174
vn 0.2608 0.9635 -0.0610
vn -0.0008 1.0000 0.0005
vn 0.3750 0.8932 -0.2481
vn -0.0616 0.9981 -0.0082
vn 0.4703 0.8803 0.0624
vn 0.1295 0.9914 0.0172
vn 0.0583 0.9981 0.0214
vn -0.4453 0.8803 -0.1637
vn -0.1226 0.9914 -0.0451
vn -0.0405 0.9981 0.0471
vn 0.3093 0.8803 -0.3597
vn 0.0852 0.9914 -0.0991
vn -0.0374 0.9981 0.0496
vn 0.2854 0.8803 -0.3790
vn 0.0786 0.9914 -0.1044
vn 0.0618 0.9981 -0.0062
vn -0.4720 0.8803 0.0475
vn -0.1300 0.9914 0.0131
vn -0.0140 0.9969 -0.0775
vn -0.0147 0.8055 -0.5924
vn -0.0147 0.9635 -0.2674
vn 0.1684 0.9850 -0.0382
vn 0.5831 0.8015 -0.1323
vn -0.0991 0.9850 0.1415
vn -0.3430 0.8015 0.4898
vn -0.0000 0.9832 0.1826
vn -0.0000 0.7384 0.6743
vn -0.0000 0.9298 0.3679
vn 0.0739 0.9961 0.0477
vn 0.4908 0.8116 0.3170
vn 0.3047 0.9319 0.1968
vn -0.1840 0.9659 0.1820
vn -0.5028 0.7071 0.4972
vn 0.1840 0.9659 -0.1820
vn 0.5028 0.7071 -0.4972
vn -0.0728 0.9961 -0.0494
vn -0.4833 0.8116 -0.3282
vn -0.3001 0.9319 -0.2038
vn 0.0728 0.9961 0.0494
vn 0.4833 0.8116 0.3282
vn 0.3001 0.9319 0.2038
vn -0.0821 0.9961 0.0315
vn -0.5455 0.8116 0.2093
vn -0.3387 0.9319 0.1300
vn 0.0821 0.9961 -0.0315
vn 0.5455 0.8116 -0.2093
vn 0.3387 0.9319 -0.1300
vn 0.0372 0.9961 0.0797
vn 0.2469 0.8116 0.5295
vn 0.1533 0.9319 0.3288
vn -0.0676 0.9961 -0.0563
vn -0.4487 0.8116 -0.3742
vn -0.2786 0.9319 -0.2323
vt 0.100000 0.800000
vt 0.100000 1.000000
vt 0.050000 1.000000
vt 0.050000 0.800000
vt 0.400000 1.000000
vt 0.350000 1.000000
vt 0.350000 0.950000
vt 0.400000 0.950000
vt 0.150000 1.000000
vt 0.150000 0.800000
vt 0.800000 0.000000
vt 0.800000 0.850000
vt 0.750000 0.850000
vt 0.750000 0.000000
vt 0.050000 0.200000
vt -0.000000 0.200000
vt -0.000000 0.000000
vt 0.050000 0.000000
vt 0.100000 0.200000
vt 0.100000 0.000000
vt 0.650000 0.850000
vt 0.600000 0.850000
vt 0.600000 -0.000000
vt 0.650000 -0.000000
vt 0.550000 0.850000
vt 0.550000 0.000000
vt 0.500000 0.850000
vt 0.500000 -0.000000
vt 0.900000 -0.000000
vt 0.900000 0.750000
vt 0.950000 0.750000
vt 0.950000 -0.000000
vt 0.200000 1.000000
vt 0.200000 0.800000
vt 0.250000 0.800000
vt 0.250000 1.000000
vt 0.450000 0.850000
vt 0.450000 -0.000000
vt 0.850000 0.750000
vt 0.850000 -0.000000
vt 0.700000 0.000000
vt 0.700000 0.850000
vt 0.300000 1.000000
vt 0.300000 0.800000
vt 0.150000 0.000000
vt 0.150000 0.200000
vt 0.800000 0.750000
vt 0.350000 0.800000
vt 0.400000 0.800000
vt 0.200000 0.200000
vt 0.200000 0.000000
vt 0.400000 0.850000
vt 0.400000 -0.000000
vt 1.000000 0.750000
vt 1.000000 -0.000000
vt 0.000000 1.000000
vt 0.000000 0.800000
vt 0.100000 0.650000
vt 0.200000 0.650000
vt 0.000000 0.650000
vt 0.150000 0.550000
vt 0.150000 0.650000
vt 0.000000 0.550000
vt 0.150000 0.350000
vt 0.150000 0.450000
vt -0.000000 0.450000
vt -0.000000 0.350000
vt 0.300000 -0.000000
vt 0.350000 -0.000000
vt 0.250000 -0.000000
s 0
usemtl Material.001
f 11/1/1 15/2/1 13/3/1 9/4/1
f 4/5/2 2/6/2 1/7/2 3/8/2
f 37/1/3 25/2/3 26/9/3 38/10/3
f 19/11/1 23/12/1 21/13/1 17/14/1
f 43/15/1 41/16/1 45/17/1 47/18/1
f 38/18/4 26/15/4 28/19/4 40/20/4
f 36/21/5 35/22/5 31/23/5 32/24/5
f 16/5/2 14/6/2 13/7/2 15/8/2
f 21/25/3 22/22/3 18/23/3 17/26/3
f 24/25/5 23/27/5 19/28/5 20/26/5
f 5/29/3 1/30/3 2/31/3 6/32/3
f 10/10/4 14/9/4 16/33/4 12/34/4
f 24/5/2 22/6/2 21/7/2 23/8/2
f 12/35/5 16/36/5 15/33/5 11/34/5
f 22/37/4 24/27/4 20/28/4 18/38/4
f 7/29/1 3/30/1 1/39/1 5/40/1
f 29/41/3 33/42/3 34/13/3 30/14/3
f 46/35/4 42/36/4 44/43/4 48/44/4
f 28/5/2 26/6/2 25/7/2 27/8/2
f 39/45/1 27/46/1 25/19/1 37/20/1
f 30/24/4 34/21/4 36/42/4 32/41/4
f 8/40/5 4/39/5 3/47/5 7/11/5
f 41/43/3 42/6/3 46/48/3 45/44/3
f 40/49/5 28/5/5 27/6/5 39/48/5
f 9/45/3 13/46/3 14/50/3 10/51/3
f 31/38/1 35/37/1 33/52/1 29/53/1
f 36/5/2 34/6/2 33/7/2 35/8/2
f 6/32/4 2/31/4 4/54/4 8/55/4
f 44/5/2 42/6/2 41/7/2 43/8/2
f 48/4/5 44/3/5 43/56/5 47/57/5
f 53/58/6 50/59/6 52/34/6 54/1/6
f 49/60/7 53/58/7 54/1/7 51/57/7
f 59/58/8 56/59/8 58/34/8 60/1/8
f 55/60/9 59/58/9 60/1/9 57/57/9
f 66/61/10 62/62/10 64/60/10 67/63/10
f 61/64/11 65/65/11 68/66/11 63/67/11
f 65/65/12 66/61/12 67/63/12 68/66/12
f 74/61/13 70/62/13 72/60/13 75/63/13
f 69/64/14 73/65/14 76/66/14 71/67/14
f 73/65/15 74/61/15 75/63/15 76/66/15
f 82/61/16 78/62/16 80/60/16 83/63/16
f 77/64/17 81/65/17 84/66/17 79/67/17
f 81/65/18 82/61/18 83/63/18 84/66/18
f 90/61/19 86/62/19 88/60/19 91/63/19
f 85/64/20 89/65/20 92/66/20 87/67/20
f 89/65/21 90/61/21 91/63/21 92/66/21
f 98/61/22 94/62/22 96/60/22 99/63/22
f 93/64/23 97/65/23 100/66/23 95/67/23
f 97/65/24 98/61/24 99/63/24 100/66/24
f 106/61/25 102/62/25 104/60/25 107/63/25
f 101/64/26 105/65/26 108/66/26 103/67/26
f 105/65/27 106/61/27 107/63/27 108/66/27
f 113/58/28 110/59/28 112/34/28 114/1/28
f 109/60/29 113/58/29 114/1/29 111/57/29
f 119/58/30 116/59/30 118/34/30 120/1/30
f 115/60/31 119/58/31 120/1/31 117/57/31
f 125/58/32 122/59/32 124/34/32 126/1/32
f 121/60/33 125/58/33 126/1/33 123/57/33
f 132/61/34 128/62/34 130/60/34 133/63/34
f 127/64/35 131/65/35 134/66/35 129/67/35
f 131/65/36 132/61/36 133/63/36 134/66/36
f 139/61/37 135/62/37 137/60/37 140/63/37
f 143/64/38 138/65/38 141/66/38 136/67/38
f 138/65/39 139/61/39 140/63/39 141/66/39
f 146/61/40 142/62/40 144/60/40 147/63/40
f 136/64/41 145/65/41 148/66/41 143/67/41
f 145/65/42 146/61/42 147/63/42 148/66/42
f 154/61/43 150/62/43 152/60/43 155/63/43
f 149/64/44 153/65/44 156/66/44 151/67/44
f 153/65/45 154/61/45 155/63/45 156/66/45
f 161/58/46 158/59/46 160/34/46 162/1/46
f 157/60/47 161/58/47 162/1/47 159/57/47
f 168/61/48 164/62/48 166/60/48 169/63/48
f 163/64/49 167/65/49 170/66/49 165/67/49
f 167/65/50 168/61/50 169/63/50 170/66/50
f 175/58/51 172/59/51 174/34/51 176/1/51
f 171/60/52 175/58/52 176/1/52 173/57/52
f 182/61/53 178/62/53 180/60/53 183/63/53
f 177/64/54 181/65/54 184/66/54 179/67/54
f 181/65/55 182/61/55 183/63/55 184/66/55
f 190/61/56 186/62/56 188/60/56 191/63/56
f 185/64/57 189/65/57 192/66/57 187/67/57
f 189/65/58 190/61/58 191/63/58 192/66/58
f 198/61/59 194/62/59 196/60/59 199/63/59
f 193/64/60 197/65/60 200/66/60 195/67/60
f 197/65/61 198/61/61 199/63/61 200/66/61
f 206/61/62 202/62/62 204/60/62 207/63/62
f 201/64/63 205/65/63 208/66/63 203/67/63
f 205/65/64 206/61/64 207/63/64 208/66/64
f 214/61/65 210/62/65 212/60/65 215/63/65
f 209/64/66 213/65/66 216/66/66 211/67/66
f 213/65/67 214/61/67 215/63/67 216/66/67
f 222/61/68 218/62/68 220/60/68 223/63/68
f 217/64/69 221/65/69 224/66/69 219/67/69
f 221/65/70 222/61/70 223/63/70 224/66/70
f 229/58/71 226/59/71 228/34/71 230/1/71
f 225/60/72 229/58/72 230/1/72 227/57/72
f 235/58/73 232/59/73 234/34/73 236/1/73
f 231/60/74 235/58/74 236/1/74 233/57/74
f 242/61/75 238/62/75 240/60/75 243/63/75
f 237/64/76 241/65/76 244/66/76 239/67/76
f 241/65/77 242/61/77 243/63/77 244/66/77
f 250/68/3 246/44/3 248/48/3 252/69/3
f 249/68/1 245/44/1 246/35/1 250/70/1
f 252/51/4 248/34/4 247/35/4 251/70/4
f 248/6/2 246/7/2 245/8/2 247/5/2
f 251/53/5 247/49/5 245/48/5 249/69/5
f 258/61/78 254/62/78 256/60/78 259/63/78
f 253/64/79 257/65/79 260/66/79 255/67/79
f 257/65/80 258/61/80 259/63/80 260/66/80
f 265/58/81 262/59/81 264/34/81 266/1/81
f 261/60/82 265/58/82 266/1/82 263/57/82
f 271/58/83 268/59/83 270/34/83 272/1/83
f 267/60/84 271/58/84 272/1/84 269/57/84
f 278/61/85 274/62/85 276/60/85 279/63/85
f 273/64/86 277/65/86 280/66/86 275/67/86
f 277/65/87 278/61/87 279/63/87 280/66/87
f 286/61/88 282/62/88 284/60/88 287/63/88
f 281/64/89 285/65/89 288/66/89 283/67/89
f 285/65/90 286/61/90 287/63/90 288/66/90
f 292/61/91 289/62/91 290/60/91 293/63/91
f 297/64/92 291/65/92 294/66/92 295/67/92
f 291/65/93 292/61/93 293/63/93 294/66/93
f 300/61/94 296/62/94 298/60/94 301/63/94
f 295/64/95 299/65/95 302/66/95 297/67/95
f 299/65/96 300/61/96 301/63/96 302/66/96
f 308/61/97 304/62/97 306/60/97 309/63/97
f 303/64/98 307/65/98 310/66/98 305/67/98
f 307/65/99 308/61/99 309/63/99 310/66/99
f 316/61/100 312/62/100 314/60/100 317/63/100
f 311/64/101 315/65/101 318/66/101 313/67/101
f 315/65/102 316/61/102 317/63/102 318/66/102
o Plane.030
