# Blender 4.2.3 LTS
# www.blender.org
mtllib weed1.mtl
o Cube.022
v -0.050000 0.000000 0.050000
v 0.050000 0.000000 0.050000
v 0.050000 0.100000 0.050000
v -0.050000 0.000000 -0.150000
v 0.050000 0.000000 -0.150000
v 0.050000 0.100000 -0.050000
v 0.150000 0.200000 -0.050000
v 0.150000 0.100000 -0.050000
v 0.250000 0.200000 -0.050000
v 0.250000 0.100000 -0.150000
v 0.250000 0.200000 -0.150000
v 0.250000 0.300000 -0.050000
v 0.250000 0.300000 -0.150000
v 0.350000 0.200000 -0.050000
v 0.350000 0.200000 -0.150000
v 0.350000 0.300000 -0.050000
v 0.350000 0.300000 -0.150000
v 0.350000 0.400000 -0.150000
v 0.450000 0.300000 -0.050000
v 0.450000 0.400000 -0.050000
v 0.450000 0.300000 -0.150000
v 0.450000 0.400000 -0.150000
v 0.350000 0.300000 0.050000
v 0.450000 0.400000 0.050000
v 0.450000 0.300000 0.050000
v 0.350000 0.300000 0.150000
v 0.450000 0.500000 -0.050000
v 0.550000 0.400000 -0.050000
v 0.550000 0.500000 -0.050000
v 0.350000 0.300000 0.350000
v 0.350000 0.400000 0.350000
v 0.450000 0.300000 0.350000
v 0.350000 0.400000 0.450000
v 0.350000 0.500000 0.450000
v 0.250000 0.400000 0.450000
v 0.250000 0.400000 0.350000
v 0.350000 0.500000 0.350000
v 0.450000 0.400000 0.450000
v 0.450000 0.500000 0.450000
v 0.450000 0.400000 0.350000
v 0.550000 0.400000 0.450000
v 0.550000 0.500000 0.450000
v 0.550000 0.400000 0.350000
v 0.550000 0.500000 0.350000
v 0.550000 0.600000 0.350000
v 0.650000 0.500000 0.350000
v 0.650000 0.600000 0.350000
v 0.550000 0.500000 0.550000
v 0.550000 0.600000 0.550000
v 0.650000 0.500000 0.450000
v 0.650000 0.600000 0.450000
v 0.750000 0.500000 0.550000
v 0.750000 0.600000 0.550000
v 0.750000 0.500000 0.450000
v 0.750000 0.600000 0.450000
v 0.250000 0.700000 0.350000
v 0.350000 0.700000 0.450000
v 0.350000 0.700000 0.350000
v 0.150000 0.700000 0.450000
v 0.150000 0.800000 0.450000
v 0.150000 0.700000 0.350000
v 0.150000 0.800000 0.350000
v 0.250000 0.700000 0.450000
v 0.250000 0.800000 0.450000
v 0.250000 0.800000 0.350000
v 0.350000 0.400000 0.650000
v 0.350000 0.500000 0.650000
v 0.450000 0.400000 0.650000
v 0.450000 0.500000 0.650000
v 0.350000 0.500000 0.750000
v 0.350000 0.600000 0.750000
v 0.350000 0.600000 0.650000
v 0.450000 0.500000 0.750000
v 0.450000 0.600000 0.750000
v 0.450000 0.600000 0.650000
v 0.150000 0.100000 0.050000
v 0.150000 0.200000 0.050000
v 0.250000 0.100000 0.050000
v 0.250000 0.200000 0.050000
v 0.150000 0.400000 0.050000
v 0.150000 0.500000 0.050000
v 0.250000 0.400000 0.050000
v 0.250000 0.500000 0.050000
v 0.450000 0.400000 0.250000
v 0.450000 0.400000 0.150000
v 0.550000 0.400000 0.250000
v 0.550000 0.400000 0.150000
v 0.550000 0.600000 0.150000
v 0.450000 0.800000 0.250000
v 0.550000 0.800000 0.250000
v 0.550000 0.800000 0.150000
v 0.550000 0.600000 0.250000
v 0.550000 0.700000 0.250000
v 0.550000 0.700000 0.150000
v 0.650000 0.600000 0.250000
v 0.650000 0.700000 0.250000
v 0.650000 0.600000 0.150000
v 0.650000 0.700000 0.150000
v 0.650000 0.300000 0.050000
v 0.650000 0.300000 -0.050000
v 0.650000 0.400000 0.050000
v 0.650000 0.500000 0.050000
v 0.650000 0.400000 -0.050000
v 0.650000 0.500000 -0.050000
v 0.750000 0.400000 0.050000
v 0.750000 0.500000 0.050000
v 0.750000 0.400000 -0.050000
v 0.750000 0.500000 -0.050000
v 0.350000 0.400000 0.150000
v 0.250000 0.300000 0.150000
v 0.250000 0.300000 0.050000
v 0.350000 0.400000 0.050000
v 0.150000 0.400000 0.250000
v 0.150000 0.500000 0.250000
v 0.150000 0.500000 0.150000
v 0.250000 0.400000 0.250000
v 0.250000 0.500000 0.250000
v 0.250000 0.400000 0.150000
v 0.050000 0.500000 0.250000
v 0.050000 0.600000 0.250000
v 0.050000 0.500000 0.150000
v 0.050000 0.600000 0.150000
v 0.150000 0.600000 0.250000
v 0.150000 0.600000 0.150000
v 0.350000 0.800000 0.250000
v 0.350000 0.800000 0.150000
v 0.450000 0.800000 0.150000
v 0.450000 0.400000 -0.250000
v 0.550000 0.400000 -0.250000
v 0.550000 0.500000 -0.250000
v 0.450000 0.500000 -0.250000
v 0.450000 0.600000 -0.250000
v 0.450000 0.500000 -0.350000
v 0.450000 0.600000 -0.350000
v 0.550000 0.600000 -0.250000
v 0.550000 0.500000 -0.350000
v 0.550000 0.600000 -0.350000
v -0.050000 0.100000 -0.150000
v -0.050000 0.200000 -0.150000
v 0.050000 0.100000 -0.150000
v 0.050000 0.200000 -0.150000
v -0.050000 0.200000 -0.250000
v -0.050000 0.100000 -0.350000
v -0.050000 0.200000 -0.350000
v 0.050000 0.100000 -0.350000
v -0.050000 0.300000 -0.350000
v -0.050000 0.200000 -0.650000
v 0.050000 0.200000 -0.650000
v 0.050000 0.200000 -0.350000
v 0.050000 0.200000 -0.450000
v 0.050000 0.300000 -0.450000
v 0.150000 0.200000 -0.350000
v 0.150000 0.300000 -0.350000
v 0.150000 0.200000 -0.450000
v -0.050000 0.300000 -0.650000
v -0.050000 0.400000 -0.650000
v -0.050000 0.300000 -0.750000
v -0.050000 0.400000 -0.750000
v 0.050000 0.300000 -0.650000
v 0.050000 0.400000 -0.650000
v 0.050000 0.300000 -0.750000
v 0.050000 0.400000 -0.750000
v 0.150000 0.300000 -0.450000
v 0.150000 0.400000 -0.450000
v 0.150000 0.300000 -0.550000
v 0.150000 0.400000 -0.550000
v 0.250000 0.300000 -0.450000
v 0.250000 0.400000 -0.450000
v 0.250000 0.300000 -0.550000
v 0.250000 0.400000 -0.550000
v -0.150000 0.300000 -0.450000
v -0.150000 0.400000 -0.450000
v -0.150000 0.300000 -0.550000
v -0.150000 0.400000 -0.550000
v -0.050000 0.300000 -0.450000
v -0.050000 0.400000 -0.450000
v -0.050000 0.300000 -0.550000
v -0.050000 0.400000 -0.550000
v -0.250000 0.400000 -0.450000
v -0.250000 0.500000 -0.450000
v -0.250000 0.400000 -0.550000
v -0.250000 0.500000 -0.550000
v -0.150000 0.500000 -0.450000
v -0.150000 0.500000 -0.550000
v -0.150000 0.200000 -0.150000
v -0.150000 0.200000 -0.250000
v -0.150000 0.600000 -0.150000
v -0.050000 0.600000 -0.150000
v -0.150000 0.600000 -0.250000
v -0.150000 0.700000 -0.250000
v -0.150000 0.600000 -0.350000
v -0.150000 0.700000 -0.350000
v -0.050000 0.600000 -0.250000
v -0.050000 0.700000 -0.250000
v -0.050000 0.600000 -0.350000
v -0.050000 0.700000 -0.350000
v -0.250000 0.700000 -0.250000
v -0.250000 0.800000 -0.250000
v -0.250000 0.700000 -0.350000
v -0.250000 0.800000 -0.350000
v -0.150000 0.800000 -0.250000
v -0.150000 0.800000 -0.350000
v -0.050000 0.800000 -0.350000
v -0.050000 0.700000 -0.450000
v -0.050000 0.800000 -0.450000
v 0.050000 0.700000 -0.350000
v 0.050000 0.800000 -0.350000
v 0.050000 0.700000 -0.450000
v 0.050000 1.000000 -0.450000
v 0.050000 1.000000 -0.550000
v 0.150000 0.900000 -0.450000
v 0.150000 1.000000 -0.450000
v 0.150000 0.900000 -0.550000
v 0.150000 1.000000 -0.550000
v 0.050000 0.800000 -0.450000
v 0.050000 0.800000 -0.550000
v 0.350000 0.800000 -0.450000
v 0.350000 0.900000 -0.450000
v 0.350000 0.800000 -0.550000
v 0.350000 0.900000 -0.550000
v -0.350000 0.800000 -0.250000
v -0.350000 0.900000 -0.250000
v -0.350000 0.800000 -0.350000
v -0.350000 0.900000 -0.350000
v -0.250000 0.900000 -0.250000
v -0.250000 0.900000 -0.350000
v -0.150000 0.100000 0.050000
v -0.150000 0.200000 0.050000
v -0.150000 0.100000 -0.050000
v -0.150000 0.200000 -0.050000
v -0.050000 0.100000 0.050000
v -0.050000 0.100000 -0.050000
v -0.250000 0.200000 -0.050000
v -0.150000 0.300000 -0.050000
v -0.350000 0.200000 0.050000
v -0.350000 0.300000 0.050000
v -0.250000 0.200000 0.050000
v -0.250000 0.300000 0.050000
v -0.250000 0.200000 0.150000
v -0.150000 0.200000 0.150000
v -0.450000 0.300000 0.050000
v -0.450000 0.300000 -0.050000
v -0.350000 0.400000 -0.050000
v -0.350000 0.300000 -0.050000
v -0.350000 0.200000 -0.150000
v -0.350000 0.300000 -0.150000
v -0.250000 0.300000 -0.050000
v -0.250000 0.200000 -0.150000
v -0.250000 0.300000 -0.150000
v -0.450000 0.400000 -0.050000
v -0.450000 0.500000 -0.050000
v -0.350000 0.500000 0.050000
v -0.550000 0.700000 0.050000
v -0.550000 0.700000 -0.050000
v -0.450000 0.700000 0.050000
v -0.550000 0.600000 -0.050000
v -0.450000 0.500000 0.050000
v -0.450000 0.400000 -0.150000
v -0.450000 0.500000 -0.150000
v -0.350000 0.400000 -0.150000
v -0.350000 0.500000 -0.150000
v -0.550000 0.800000 -0.050000
v -0.550000 0.700000 -0.150000
v -0.550000 0.800000 -0.150000
v -0.450000 0.700000 -0.050000
v -0.450000 0.800000 -0.050000
v -0.450000 0.700000 -0.150000
v -0.450000 0.800000 -0.150000
v -0.550000 0.700000 0.150000
v -0.450000 0.700000 0.150000
v -0.550000 0.900000 0.050000
v -0.450000 0.900000 0.150000
v -0.450000 0.900000 0.050000
v -0.650000 0.900000 0.250000
v -0.650000 1.000000 0.250000
v -0.650000 0.900000 0.150000
v -0.650000 1.000000 0.150000
v -0.550000 0.900000 0.250000
v -0.550000 1.000000 0.250000
v -0.550000 0.900000 0.150000
v -0.550000 1.000000 0.150000
v -0.650000 0.500000 0.050000
v -0.650000 0.600000 0.050000
v -0.650000 0.500000 -0.050000
v -0.550000 0.600000 0.050000
v -0.750000 0.600000 0.050000
v -0.750000 0.700000 0.050000
v -0.750000 0.600000 -0.050000
v -0.750000 0.700000 -0.050000
v -0.650000 0.700000 0.050000
v -0.650000 0.600000 -0.050000
v -0.650000 0.700000 -0.050000
v -0.550000 0.400000 -0.150000
v -0.550000 0.500000 -0.150000
v -0.550000 0.500000 -0.250000
v -0.550000 0.400000 -0.350000
v -0.550000 0.500000 -0.350000
v -0.450000 0.400000 -0.350000
v -0.450000 0.500000 -0.350000
v -0.650000 0.500000 -0.250000
v -0.650000 0.600000 -0.250000
v -0.550000 0.600000 -0.250000
v -0.650000 0.500000 -0.450000
v -0.650000 0.600000 -0.450000
v -0.550000 0.500000 -0.450000
v -0.550000 0.600000 -0.450000
v -0.250000 0.400000 0.250000
v -0.250000 0.300000 0.150000
v -0.150000 0.300000 0.250000
v -0.150000 0.400000 0.250000
v -0.150000 0.300000 0.150000
v -0.150000 0.400000 0.150000
v -0.350000 0.300000 0.250000
v -0.350000 0.400000 0.250000
v -0.350000 0.300000 0.150000
v -0.350000 0.400000 0.150000
v -0.350000 0.400000 0.350000
v -0.350000 0.500000 0.350000
v -0.350000 0.500000 0.250000
v -0.250000 0.400000 0.350000
v -0.250000 0.500000 0.350000
v -0.250000 0.500000 0.250000
v -0.750000 0.600000 -0.450000
v -0.750000 0.700000 -0.450000
v -0.750000 0.600000 -0.550000
v -0.750000 0.700000 -0.550000
v -0.650000 0.700000 -0.450000
v -0.650000 0.600000 -0.550000
v -0.650000 0.700000 -0.550000
v -0.050000 0.100000 0.350000
v -0.050000 0.200000 0.350000
v 0.050000 0.100000 0.350000
v 0.050000 0.200000 0.350000
v -0.050000 0.300000 0.450000
v -0.150000 0.300000 0.450000
v -0.150000 0.200000 0.350000
v -0.150000 0.300000 0.350000
v 0.150000 0.200000 0.450000
v 0.150000 0.200000 0.350000
v 0.150000 0.300000 0.350000
v -0.250000 0.300000 0.450000
v -0.250000 0.400000 0.450000
v -0.150000 0.400000 0.450000
v 0.050000 0.400000 0.650000
v 0.050000 0.400000 0.550000
v 0.150000 0.400000 0.650000
v 0.050000 0.600000 0.650000
v 0.150000 0.600000 0.650000
v 0.150000 0.700000 0.650000
v 0.050000 0.800000 0.650000
v 0.050000 0.800000 0.550000
v 0.150000 0.800000 0.650000
v 0.150000 0.800000 0.550000
v 0.050000 0.600000 0.750000
v 0.050000 0.700000 0.750000
v 0.050000 0.700000 0.650000
v 0.150000 0.600000 0.750000
v 0.150000 0.700000 0.750000
v -0.150000 0.300000 0.650000
v -0.150000 0.400000 0.650000
v -0.350000 0.300000 0.650000
v -0.350000 0.400000 0.650000
v -0.350000 0.300000 0.550000
v -0.350000 0.400000 0.550000
v -0.250000 0.300000 0.550000
v -0.250000 0.400000 0.550000
v -0.150000 0.200000 0.550000
v -0.150000 0.300000 0.550000
v -0.050000 0.200000 0.550000
v -0.050000 0.300000 0.550000
v -0.050000 0.200000 0.450000
v 0.050000 0.300000 0.550000
v 0.050000 0.300000 0.450000
v 0.050000 0.400000 0.450000
v 0.150000 0.300000 0.550000
v 0.150000 0.400000 0.550000
v 0.150000 0.300000 0.450000
v 0.150000 0.400000 0.450000
v 0.050000 0.200000 0.050000
v -0.050000 0.200000 0.050000
v -0.050000 0.200000 -0.050000
v 0.050000 0.200000 -0.050000
v -0.050000 0.500000 -0.050000
v 0.050000 0.500000 0.050000
v -0.150000 0.500000 0.150000
v -0.150000 0.500000 0.050000
v -0.050000 0.500000 0.150000
v -0.050000 0.500000 0.050000
v -0.150000 0.700000 0.150000
v -0.150000 0.800000 0.150000
v -0.150000 0.700000 0.050000
v -0.150000 0.800000 0.050000
v -0.150000 0.900000 0.050000
v -0.050000 0.900000 0.050000
v -0.250000 1.200000 0.250000
v -0.250000 1.300000 0.250000
v -0.250000 1.200000 0.150000
v -0.250000 1.300000 0.150000
v -0.150000 1.300000 0.250000
v -0.150000 1.300000 0.150000
v -0.250000 1.100000 0.250000
v -0.250000 1.100000 0.150000
v -0.250000 0.900000 0.250000
v -0.250000 0.900000 0.150000
v -0.150000 0.900000 0.250000
v -0.150000 0.900000 0.150000
v -0.350000 1.100000 0.250000
v -0.350000 1.200000 0.250000
v -0.350000 1.100000 0.150000
v -0.350000 1.200000 0.150000
v -0.250000 0.700000 0.150000
v -0.250000 0.800000 0.150000
v -0.250000 0.700000 0.050000
v -0.250000 0.800000 0.050000
v -0.350000 0.800000 0.050000
v -0.350000 0.900000 0.050000
v -0.350000 0.800000 -0.050000
v -0.350000 0.900000 -0.050000
v -0.250000 0.900000 0.050000
v -0.250000 0.800000 -0.050000
v -0.250000 0.900000 -0.050000
v 0.050000 0.500000 -0.050000
v 0.050000 0.500000 -0.150000
v 0.150000 0.500000 -0.050000
v 0.150000 0.500000 -0.150000
v 0.050000 0.900000 -0.150000
v 0.150000 0.800000 -0.150000
v 0.050000 0.900000 0.050000
v 0.050000 0.900000 -0.050000
v 0.150000 0.900000 0.050000
v 0.050000 1.100000 0.050000
v 0.050000 1.100000 -0.050000
v 0.150000 1.100000 0.050000
v 0.150000 1.100000 -0.050000
v -0.050000 0.900000 -0.150000
v -0.050000 0.900000 -0.250000
v 0.050000 0.900000 -0.250000
v -0.050000 1.200000 -0.150000
v -0.050000 1.200000 -0.250000
v 0.050000 1.200000 -0.150000
v 0.050000 1.200000 -0.250000
v 0.350000 1.000000 0.250000
v 0.350000 1.000000 0.150000
v 0.450000 1.000000 0.250000
v 0.450000 1.000000 0.150000
v -0.050000 0.900000 0.250000
v -0.050000 0.900000 0.150000
v 0.050000 0.900000 0.250000
v 0.050000 0.900000 0.150000
v -0.050000 1.100000 0.250000
v -0.050000 1.100000 0.150000
v 0.050000 1.100000 0.250000
v 0.050000 1.100000 0.150000
v 0.150000 0.800000 -0.050000
v 0.150000 0.900000 -0.050000
v 0.250000 0.800000 -0.050000
v 0.250000 0.800000 -0.150000
v 0.250000 0.900000 -0.050000
v 0.250000 0.900000 -0.150000
v 0.350000 0.900000 -0.050000
v 0.350000 0.900000 -0.150000
v 0.250000 1.100000 -0.050000
v 0.250000 1.100000 -0.150000
v 0.350000 1.100000 -0.050000
v 0.250000 1.100000 -0.250000
v 0.350000 1.100000 -0.150000
v 0.350000 1.100000 -0.250000
v 0.250000 1.300000 -0.150000
v 0.250000 1.300000 -0.250000
v 0.350000 1.300000 -0.150000
v 0.350000 1.300000 -0.250000
vn -0.0000 -0.0000 -1.0000
vn -0.0000 -0.0000 1.0000
vn -1.0000 -0.0000 -0.0000
vn -0.0000 -1.0000 -0.0000
vn -0.0000 1.0000 -0.0000
vn 1.0000 -0.0000 -0.0000
vt 0.666667 0.466667
vt 0.733333 0.466667
vt 0.733333 0.333333
vt 0.866667 0.333333
vt 0.866667 0.266667
vt 0.800000 0.266667
vt 0.733333 0.266667
vt 0.666667 0.266667
vt 0.466667 0.600000
vt 0.466667 0.733333
vt 0.533333 0.733333
vt 0.533333 0.600000
vt 0.533333 0.000000
vt 0.533333 0.066667
vt 0.466667 0.066667
vt 0.466667 0.000000
vt 0.600000 0.066667
vt 0.600000 -0.000000
vt 0.266667 0.400000
vt 0.333333 0.400000
vt 0.400000 0.400000
vt 0.400000 0.333333
vt 0.266667 0.333333
vt 0.466667 0.533333
vt 0.533333 0.533333
vt 0.533333 0.133333
vt 0.600000 0.133333
vt 0.333333 0.000000
vt 0.200000 0.000000
vt 0.200000 0.066667
vt 0.266667 0.066667
vt 0.266667 0.133333
vt 0.333333 0.133333
vt 0.533333 0.266667
vt 0.533333 0.333333
vt 0.600000 0.333333
vt 0.600000 0.266667
vt 0.666667 0.133333
vt 0.666667 0.200000
vt 0.733333 0.200000
vt 0.733333 0.133333
vt 0.600000 0.200000
vt 0.533333 0.200000
vt 0.266667 0.200000
vt 0.200000 0.333333
vt 0.200000 0.200000
vt 0.800000 0.200000
vt 0.400000 0.133333
vt 0.400000 0.066667
vt 0.333333 0.200000
vt 0.400000 0.200000
vt 0.733333 0.733333
vt 0.733333 0.866667
vt 0.666667 0.866667
vt 0.666667 0.733333
vt 0.800000 0.666667
vt 0.866667 0.666667
vt 0.866667 0.533333
vt 0.800000 0.533333
vt 0.800000 0.600000
vt 0.466667 0.133333
vt 0.400000 0.000000
vt 0.733333 0.666667
vt 0.733333 0.533333
vt 0.400000 0.266667
vt 0.333333 0.266667
vt 0.266667 0.266667
vt 0.466667 0.200000
vt 0.466667 0.266667
vt 0.866667 0.400000
vt 0.866667 0.466667
vt 0.800000 0.466667
vt 0.800000 0.400000
vt 0.200000 0.466667
vt 0.200000 0.600000
vt 0.133333 0.600000
vt 0.133333 0.466667
vt 0.266667 0.466667
vt 0.200000 0.400000
vt 0.666667 0.333333
vt 0.200000 0.133333
vt 0.533333 0.466667
vt 0.466667 0.466667
vt 0.466667 0.333333
vt 0.200000 0.266667
vt 0.666667 0.400000
vt 0.600000 0.400000
vt 0.533333 0.400000
vt 0.800000 0.333333
vt -0.000000 0.133333
vt -0.000000 0.200000
vt 0.066667 0.466667
vt 0.066667 0.333333
vt 0.133333 0.333333
vt 0.333333 0.533333
vt 0.400000 0.533333
vt 0.933333 0.400000
vt 0.933333 0.333333
vt 0.133333 0.400000
vt 0.866667 0.200000
vt 0.933333 0.200000
vt 0.933333 0.133333
vt 0.466667 0.400000
vt 1.000000 0.400000
vt 1.000000 0.333333
vt 0.466667 0.800000
vt 0.533333 0.800000
vt 0.200000 0.533333
vt 0.266667 0.533333
vt 0.600000 0.466667
vt 0.600000 0.533333
vt 0.666667 0.533333
vt 0.666667 0.666667
vt 0.600000 0.666667
vt 0.600000 0.600000
vt 0.666667 0.600000
vt 1.000000 0.200000
vt 1.000000 0.133333
vt 0.866667 0.133333
vt 0.933333 0.266667
vt 0.000000 0.333333
vt 0.000000 0.400000
vt 0.066667 0.400000
vt 0.733333 0.400000
vt 0.733333 0.066667
vt 0.800000 0.066667
vt 0.800000 0.000000
vt 0.733333 0.000000
vt 0.666667 0.066667
vt 0.066667 0.266667
vt 0.400000 0.466667
vt 0.333333 0.466667
vt 0.866667 0.600000
vt 0.133333 0.266667
vt 0.933333 0.466667
vt 0.400000 0.666667
vt 0.333333 0.666667
vt 1.000000 0.266667
vt 0.933333 0.533333
vt 1.000000 0.533333
vt 1.000000 0.466667
vt 0.666667 0.800000
vt 0.600000 0.800000
vt 0.333333 0.333333
vt 0.400000 0.600000
vt 0.400000 0.733333
vt 0.800000 0.733333
vt 0.866667 0.733333
vt 0.600000 0.733333
vt 0.800000 0.133333
vt 0.533333 0.866667
vt 0.733333 0.800000
vt 1.000000 0.066667
vt 0.866667 0.066667
vt 0.866667 -0.000000
vt 0.466667 0.666667
vt 0.333333 0.600000
vt 0.333333 0.733333
vt 0.733333 0.600000
vt 0.533333 0.666667
vt 0.066667 0.200000
vt 0.133333 0.200000
vt 0.133333 0.133333
vt 0.133333 0.066667
vt 0.266667 0.600000
vt 0.266667 0.733333
vt 0.266667 0.666667
vt 0.333333 0.066667
vt 0.600000 0.866667
vt 0.133333 0.533333
vt 0.200000 0.666667
vt 0.133333 0.666667
vt 0.066667 0.600000
vt 0.066667 0.666667
vt 0.400000 0.800000
vt 0.333333 0.800000
vt 0.066667 0.533333
vt 0.000000 0.466667
vt 0.000000 0.533333
vt 0.000000 0.600000
vt 0.000000 0.866667
vt 0.066667 0.866667
vt 0.066667 0.800000
vt 0.000000 0.800000
vt 0.333333 0.866667
vt 0.400000 0.866667
vt 0.266667 0.800000
s 0
usemtl Material
f 56/1/1 58/2/1 37/3/1 44/4/1 43/5/1 40/6/1 31/7/1 36/8/1
f 447/9/1 451/10/1 453/11/1 449/12/1
f 2/13/2 3/14/2 231/15/2 1/16/2
f 4/16/1 138/15/1 140/14/1 5/13/1
f 232/14/3 138/17/3 4/18/3 1/16/3 231/15/3
f 315/19/4 308/20/4 311/21/4 309/22/4 313/23/4
f 140/12/5 138/9/5 232/24/5 6/25/5
f 6/14/3 382/26/3 141/27/3 140/17/3
f 8/17/2 7/27/2 382/26/2 6/14/2
f 10/28/4 78/29/4 76/30/4 8/31/4 6/32/4 140/33/4
f 9/34/3 12/35/3 13/36/3 11/37/3
f 11/38/1 13/39/1 17/40/1 15/41/1
f 15/27/6 17/42/6 16/43/6 14/26/6
f 14/41/2 16/40/2 12/39/2 9/38/2
f 11/37/4 15/8/4 14/39/4 9/42/4
f 17/40/5 13/39/5 12/38/5 16/41/5
f 236/44/2 252/23/2 257/45/2 241/46/2
f 17/40/1 18/7/1 22/6/1 21/47/1
f 21/42/6 22/37/6 20/34/6 19/43/6
f 368/48/4 359/49/4 361/31/4 363/32/4 365/33/4 341/50/4 335/51/4
f 466/52/2 470/53/2 468/54/2 463/55/2
f 128/56/4 129/57/4 28/58/4 20/59/4 22/60/4
f 307/20/2 314/19/2 313/23/2 309/22/2 310/21/2
f 11/13/5 141/26/5 382/61/5 7/15/5 77/49/5 79/62/5 9/16/5
f 89/59/2 444/56/2 442/63/2 125/64/2
f 85/65/6 84/66/6 40/67/6 32/44/6 25/68/6 24/69/6
f 28/70/2 29/71/2 27/72/2 20/73/2
f 270/74/2 272/75/2 280/76/2 269/77/2
f 261/78/5 259/74/5 251/79/5 257/45/5 252/23/5
f 129/8/6 130/80/6 29/35/6 28/34/6
f 5/33/4 2/81/4 1/46/4 4/50/4
f 32/47/2 40/6/2 31/7/2 30/40/2
f 251/35/6 265/82/6 255/83/6 257/84/6
f 126/64/1 443/63/1 445/56/1 127/59/1
f 35/85/3 63/74/3 56/78/3 36/67/3
f 27/82/3 131/1/3 128/86/3 22/87/3 20/88/3
f 43/67/6 44/23/6 42/45/6 41/85/6
f 41/5/2 42/4/2 39/89/2 38/6/2
f 332/90/4 330/91/4 231/46/4 3/81/4
f 253/77/1 271/76/1 273/75/1 255/74/1
f 304/92/5 301/93/5 302/94/5 306/77/5
f 84/66/3 89/95/3 127/96/3 85/65/3
f 44/4/1 45/70/1 47/97/1 46/98/1
f 46/23/6 47/19/6 51/79/6 50/45/6
f 153/36/2 146/84/2 144/69/2 149/34/2 152/37/2
f 48/94/3 49/99/3 45/19/3 44/23/3 42/45/3
f 177/100/3 155/101/3 147/102/3 144/41/3 146/40/3 175/47/3
f 139/61/2 188/103/2 187/21/2 185/48/2
f 50/98/1 51/97/1 55/104/1 54/105/1
f 54/45/6 55/79/6 53/99/6 52/94/6
f 23/68/3 112/69/3 18/37/3 17/42/3 16/43/3
f 439/106/1 441/107/1 437/12/1 436/9/1
f 58/7/5 56/8/5 63/39/5 57/40/5
f 59/74/3 60/108/3 62/109/3 61/78/3
f 61/110/1 62/111/1 65/112/1 56/1/1
f 56/78/6 65/109/6 64/108/6 63/74/6
f 63/1/2 64/112/2 60/111/2 59/110/2
f 61/37/4 56/8/4 63/39/4 59/42/4
f 65/113/5 62/114/5 60/115/5 64/116/5
f 68/6/2 69/89/2 67/3/2 66/7/2
f 50/101/4 54/117/4 52/118/4 48/119/4 42/100/4 44/5/4 46/120/4
f 70/121/3 71/122/3 72/123/3 67/93/3
f 67/3/1 72/124/1 75/73/1 69/89/1
f 69/93/6 75/123/6 74/122/6 73/121/6
f 73/89/2 74/73/2 71/124/2 70/3/2
f 67/125/4 69/126/4 73/127/4 70/128/4
f 75/126/5 72/125/5 71/128/5 74/127/5
f 76/68/3 77/69/3 7/34/3 8/43/3
f 78/129/2 79/38/2 77/27/2 76/17/2
f 141/26/1 11/38/1 10/129/1 140/14/1
f 80/37/1 81/36/1 83/80/1 82/8/1
f 145/61/4 140/33/4 138/50/4 143/68/4
f 44/71/5 37/2/5 34/124/5 67/7/5 69/6/5 39/73/5 42/70/5
f 69/93/6 68/130/6 38/85/6 39/45/6
f 52/105/2 53/104/2 49/70/2 48/4/2
f 85/73/4 87/70/4 86/4/4 84/89/4
f 305/89/6 306/73/6 302/86/6 295/80/6 297/3/6
f 94/131/6 91/96/6 90/95/6 93/132/6
f 91/133/5 127/60/5 89/59/5 90/58/5
f 295/94/5 294/134/5 259/85/5 299/79/5 297/99/5
f 92/70/2 95/97/2 96/135/2 93/71/2 90/58/2 89/59/2 84/6/2 86/5/2
f 97/21/6 98/131/6 96/132/6 95/20/6
f 88/70/4 97/97/4 95/98/4 92/4/4
f 98/97/5 94/70/5 93/4/5 96/98/5
f 100/43/6 103/34/6 101/69/6 99/68/6
f 127/96/6 445/136/6 444/137/6 89/95/6
f 101/103/3 102/83/3 104/82/3 103/88/3
f 103/120/1 104/98/1 108/105/1 107/138/1
f 107/34/6 108/35/6 106/84/6 105/69/6
f 105/138/2 106/105/2 102/98/2 101/120/2
f 103/139/4 107/140/4 105/141/4 101/135/4
f 108/105/5 104/98/5 102/120/5 106/138/5
f 110/51/3 118/65/3 82/69/3 111/68/3
f 111/39/1 82/8/1 112/7/1 23/40/1
f 26/40/2 109/7/2 118/8/2 110/39/2
f 83/1/5 81/110/5 115/87/5 114/36/5 117/80/5
f 437/116/6 441/142/6 440/143/6 426/115/6
f 116/8/2 117/80/2 114/36/2 113/37/2
f 425/36/6 427/111/6 454/25/6 424/35/6
f 80/110/4 82/1/4 118/86/4 116/80/4 113/36/4
f 119/144/3 120/20/3 122/21/3 121/22/3
f 121/88/1 122/82/1 124/110/1 115/87/1
f 115/21/6 124/131/6 123/132/6 114/20/6
f 114/87/2 123/110/2 120/82/2 119/88/2
f 121/88/4 115/87/4 114/36/4 119/35/4
f 124/87/5 122/88/5 120/35/5 123/36/5
f 446/145/3 450/146/3 451/10/3 447/9/3
f 31/67/3 109/65/3 26/51/3 30/44/3
f 126/124/4 127/73/4 89/89/4 125/3/4
f 128/6/1 131/89/1 130/4/1 129/5/1
f 131/86/3 132/1/3 134/2/3 133/124/3
f 133/89/1 134/73/1 137/70/1 136/4/1
f 136/3/6 137/124/6 135/86/6 130/80/6
f 130/70/2 135/71/2 132/72/2 131/73/2
f 133/147/4 136/148/4 130/57/4 131/56/4
f 137/71/5 134/72/5 132/73/5 135/70/5
f 37/23/6 58/78/6 57/74/6 34/45/6
f 140/43/2 141/34/2 139/69/2 138/68/2
f 461/115/6 466/149/6 464/11/6 460/12/6
f 143/15/1 144/61/1 149/26/1 145/14/1
f 252/83/6 236/84/6 244/35/6 243/88/6 260/87/6 261/110/6
f 299/3/6 259/36/6 258/37/6 298/7/6
f 147/39/4 148/38/4 150/26/4 154/14/4 152/15/4 149/61/4 144/68/4
f 148/102/6 159/101/6 151/47/6 150/150/6
f 94/71/1 98/135/1 97/97/1 88/70/1 87/5/1 85/6/1 127/59/1 91/58/1
f 66/130/3 67/93/3 34/45/3 33/85/3
f 147/61/1 155/68/1 159/43/1 148/26/1
f 150/26/1 151/43/1 163/42/1 154/27/1
f 154/150/6 163/47/6 153/40/6 152/41/6
f 216/151/4 219/53/4 217/152/4 215/107/4
f 155/101/3 156/120/3 158/138/3 157/117/3
f 157/68/1 158/69/1 162/34/1 161/43/1
f 161/117/6 162/138/6 160/120/6 159/101/6
f 159/35/2 160/88/2 156/103/2 155/84/2
f 157/69/4 161/34/4 159/43/4 155/68/4
f 162/102/5 158/101/5 156/100/5 160/119/5
f 163/89/3 164/73/3 166/70/3 165/4/3
f 165/42/1 166/37/1 170/8/1 169/39/1
f 169/100/6 170/5/6 168/6/6 167/47/6
f 167/39/2 168/8/2 164/37/2 163/42/2
f 165/27/4 169/38/4 167/129/4 163/17/4
f 170/127/5 166/126/5 164/125/5 168/128/5
f 171/47/3 172/6/3 174/5/3 173/100/3
f 173/51/1 174/65/1 178/69/1 177/68/1
f 177/4/6 178/70/6 176/73/6 175/89/6
f 175/84/2 176/103/2 172/21/2 171/22/2
f 173/48/4 177/61/4 175/15/4 171/49/4
f 178/47/5 174/6/5 172/7/5 176/40/5
f 179/6/3 180/89/3 182/4/3 181/5/3
f 181/66/1 182/144/1 184/22/1 174/65/1
f 174/5/6 184/4/6 183/89/6 172/6/6
f 172/65/2 183/22/2 180/144/2 179/66/2
f 181/51/4 174/68/4 172/69/4 179/65/4
f 184/1/5 182/110/5 180/87/5 183/86/5
f 25/150/4 32/118/4 30/153/4 26/154/4 110/155/4 111/127/4 23/126/4 16/125/4 17/129/4 21/38/4 19/41/4 100/7/4 99/6/4
f 303/74/4 305/78/4 297/19/4 295/23/4 300/45/4
f 186/136/4 142/156/4 139/9/4 185/145/4
f 346/37/2 348/87/2 347/88/2 344/34/2
f 431/10/3 432/11/3 429/12/3 428/9/3
f 193/156/5 189/136/5 187/145/5 188/9/5
f 403/157/3 401/158/3 402/146/3 404/145/3
f 189/86/3 190/1/3 192/2/3 191/124/3
f 191/21/1 192/131/1 196/83/1 195/103/1
f 195/124/6 196/2/6 194/1/6 193/86/6
f 193/24/2 194/9/2 190/145/2 189/96/2
f 191/146/4 195/10/4 193/156/4 189/136/4
f 196/156/5 192/136/5 190/145/5 194/9/5
f 197/1/3 198/112/3 200/64/3 199/2/3
f 199/132/1 200/95/1 202/96/1 192/131/1
f 192/2/6 202/64/6 201/112/6 190/1/6
f 190/145/2 201/136/2 198/137/2 197/157/2
f 199/158/4 192/146/4 190/136/4 197/137/4
f 202/136/5 200/137/5 198/157/5 201/145/5
f 196/2/3 203/64/3 205/59/3 204/72/3
f 204/83/1 205/24/1 215/25/1 208/82/1
f 208/72/6 215/59/6 207/64/6 206/2/6
f 206/82/2 207/25/2 203/24/2 196/83/2
f 204/106/4 208/107/4 206/11/4 196/10/4
f 215/107/5 205/106/5 203/10/5 207/11/5
f 333/34/4 339/37/4 338/42/4 371/68/4 369/61/4 367/48/4 336/65/4 331/69/4
f 218/159/2 211/115/2 212/114/2 209/160/2 215/25/2 217/64/2
f 213/133/6 214/57/6 212/56/6 211/60/6
f 337/85/5 335/134/5 368/130/5 370/161/5 334/162/5 373/163/5 377/164/5 340/30/5
f 214/114/5 210/160/5 209/12/5 212/115/5
f 149/38/5 144/39/5 142/42/5 139/43/5 141/26/5
f 142/38/6 193/86/6 188/87/6 139/27/6
f 138/17/3 139/27/3 142/38/3 144/41/3 143/125/3
f 219/58/6 220/133/6 218/60/6 217/59/6
f 221/112/3 222/116/3 224/159/3 223/64/3
f 223/109/1 224/165/1 226/157/1 200/95/1
f 200/64/6 226/159/6 225/116/6 198/112/6
f 198/137/2 225/158/2 222/166/2 221/167/2
f 223/166/4 200/158/4 198/137/4 221/167/4
f 226/137/5 224/167/5 222/165/5 225/157/5
f 227/15/3 228/61/3 230/26/3 229/14/3
f 231/15/2 380/61/2 228/48/2 227/49/2
f 229/96/4 232/24/4 231/83/4 227/131/4
f 381/68/5 230/69/5 228/65/5 380/51/5
f 233/33/1 247/50/1 234/51/1 230/48/1
f 244/68/5 236/51/5 238/48/5 308/33/5 311/168/5 234/15/5 247/61/5 249/26/5 246/43/5
f 237/33/2 238/50/2 236/44/2 235/32/2
f 228/131/4 240/21/4 239/20/4 237/132/4 235/78/4 245/165/4 248/157/4 233/95/4 230/96/4
f 239/48/3 308/51/3 238/68/3 237/61/3
f 240/48/2 311/51/2 308/50/2 239/33/2
f 99/101/2 101/120/2 24/6/2 25/47/2
f 242/46/1 250/85/1 243/67/1 244/44/1
f 463/149/3 468/169/3 469/54/3 465/55/3
f 242/108/4 244/109/4 236/78/4 241/74/4
f 125/95/3 442/137/3 443/136/3 126/96/3
f 245/32/1 246/44/1 249/50/1 248/33/1
f 248/37/6 249/36/6 247/35/6 233/34/6
f 381/61/1 383/84/1 422/35/1 382/26/1 6/14/1 232/15/1 229/49/1 230/48/1
f 251/35/3 259/36/3 258/37/3 250/34/3 242/43/3 241/68/3 257/84/3
f 285/24/3 253/9/3 254/12/3 256/25/3
f 28/5/1 103/120/1 100/101/1 19/47/1 20/6/1
f 38/47/4 68/126/4 66/125/4 33/40/4 35/39/4 36/8/4 31/7/4 40/6/4 43/5/4 41/100/4
f 265/108/5 254/170/5 253/77/5 255/74/5
f 284/93/1 291/123/1 256/99/1 254/77/1 265/74/1 251/45/1
f 285/99/2 283/123/2 282/93/2 257/45/2 255/74/2 253/77/2
f 258/85/1 259/45/1 261/23/1 260/67/1
f 258/20/4 260/21/4 243/22/4 250/144/4
f 254/82/3 262/25/3 264/111/3 263/110/3
f 263/77/1 264/170/1 268/108/1 267/74/1
f 267/115/6 268/114/6 266/160/6 265/12/6
f 265/75/2 266/171/2 262/172/2 254/76/2
f 263/76/4 267/75/4 265/108/4 254/170/4
f 268/75/5 264/76/5 262/170/5 266/108/5
f 269/131/3 280/145/3 271/9/3 253/83/3
f 253/77/4 255/74/4 270/79/4 269/99/4
f 273/171/5 271/172/5 280/76/5 272/75/5
f 274/157/3 275/137/3 277/136/3 276/145/3
f 276/173/1 277/174/1 281/172/1 280/76/1
f 280/146/6 281/175/6 279/176/6 278/158/6
f 278/76/2 279/172/2 275/174/2 274/173/2
f 276/123/4 280/99/4 278/94/4 274/93/4
f 281/76/5 277/173/5 275/177/5 279/170/5
f 282/84/3 283/103/3 291/88/3 284/35/3
f 256/170/5 291/177/5 283/92/5 285/77/5
f 286/103/3 287/83/3 289/82/3 288/88/3
f 288/94/1 289/99/1 292/79/1 291/45/1
f 291/25/6 292/12/6 290/9/6 283/24/6
f 283/123/2 290/92/2 287/178/2 286/122/2
f 288/94/4 291/45/4 283/85/4 286/134/4
f 292/177/5 289/179/5 287/178/5 290/92/5
f 258/85/2 259/45/2 294/94/2 293/134/2
f 300/80/3 301/86/3 304/73/3 303/89/3
f 296/134/1 297/94/1 299/45/1 298/85/1
f 45/5/5 49/119/5 53/118/5 55/117/5 51/101/5 47/120/5
f 298/20/4 258/66/4 293/67/4 296/19/4
f 295/77/2 302/170/2 301/177/2 300/92/2
f 234/43/6 311/51/6 240/48/6 228/61/6 230/26/6
f 88/21/6 92/20/6 86/66/6 87/65/6
f 303/93/1 304/123/1 306/99/1 305/94/1
f 293/37/3 294/36/3 295/80/3 297/3/3 296/7/3
f 311/22/6 312/21/6 310/20/6 309/144/6
f 359/51/2 360/65/2 362/67/2 361/44/2
f 9/26/6 79/61/6 78/15/6 10/17/6 11/27/6
f 313/50/3 314/66/3 316/65/3 315/51/3
f 317/67/3 318/23/3 319/144/3 314/66/3
f 314/67/1 319/23/1 322/144/1 307/66/1
f 307/66/6 322/144/6 321/23/6 320/67/6
f 320/66/2 321/144/2 318/23/2 317/67/2
f 314/23/4 307/144/4 320/66/4 317/67/4
f 322/144/5 319/23/5 318/67/5 321/66/5
f 273/9/6 272/145/6 270/131/6 255/83/6
f 340/36/1 339/37/1 333/34/1 331/69/1 336/65/1 337/22/1
f 316/19/5 314/23/5 307/144/5 310/22/5 312/21/5
f 323/73/3 324/72/3 326/71/3 325/70/3
f 325/122/1 326/178/1 329/92/1 328/123/1
f 328/70/6 329/71/6 327/72/6 304/73/6
f 304/177/2 327/173/2 324/180/2 323/179/2
f 325/181/4 328/182/4 304/183/4 323/184/4
f 329/92/5 326/178/5 324/122/5 327/123/5
f 332/14/2 333/26/2 331/61/2 330/15/2
f 213/115/1 220/159/1 219/64/1 216/25/1 210/160/1 214/114/1
f 339/32/6 340/44/6 377/46/6 338/81/6
f 18/129/5 112/126/5 82/127/5 118/155/5 109/154/5 31/153/5 40/118/5 84/102/5 85/119/5 24/150/5 101/6/5 103/7/5 28/40/5 20/41/5 22/38/5
f 365/162/3 366/134/3 342/85/3 341/46/3
f 341/144/1 342/20/1 343/21/1 335/22/1
f 362/31/5 360/49/5 343/51/5 342/50/5 366/33/5 364/32/5
f 344/130/3 347/123/3 354/122/3 355/178/3 356/92/3 350/177/3 351/170/3 345/134/3
f 345/34/1 351/25/1 353/111/1 376/37/1
f 345/26/4 376/27/4 346/17/4 344/14/4
f 186/48/1 189/21/1 193/103/1 142/61/1
f 159/119/5 155/100/5 177/47/5 175/40/5 146/39/5 153/129/5 163/125/5 151/41/5
f 379/26/2 384/35/2 388/84/2 380/61/2
f 376/134/6 353/170/6 352/177/6 349/92/6 358/178/6 357/122/6 348/123/6 346/130/6
f 349/110/2 352/111/2 350/25/2 356/82/2
f 353/111/5 351/25/5 350/82/5 352/110/5
f 185/27/3 187/87/3 189/86/3 186/38/3
f 357/87/2 358/110/2 355/82/2 354/88/2
f 347/14/4 348/17/4 357/18/4 354/13/4
f 349/17/5 356/14/5 355/13/5 358/18/5
f 361/161/3 362/130/3 364/134/3 363/162/3
f 363/23/1 364/19/1 366/20/1 365/144/1
f 315/44/1 316/67/1 312/65/1 311/51/1 308/50/1
f 380/69/3 388/83/3 383/82/3 381/34/3
f 371/81/6 334/46/6 370/162/6 369/163/6
f 369/61/2 370/68/2 368/51/2 367/48/2
f 389/131/3 391/83/3 386/84/3 385/22/3
f 338/27/2 377/42/2 373/43/2 334/68/2 371/61/2
f 372/94/3 345/99/3 374/79/3 373/45/3
f 373/43/1 374/34/1 378/37/1 377/42/1
f 377/46/6 378/85/6 376/134/6 375/162/6
f 375/42/2 376/37/2 345/34/2 372/43/2
f 373/43/4 377/42/4 375/27/4 372/26/4
f 378/42/5 374/43/5 345/26/5 376/27/5
f 382/26/6 422/35/6 384/84/6 379/61/6 333/32/6 332/31/6 3/15/6 2/16/6 5/18/6 140/17/6 6/14/6
f 453/146/6 452/158/6 448/157/6 449/145/6
f 367/163/3 368/162/3 335/46/3 337/44/3 336/32/3
f 422/25/5 383/24/5 388/83/5 384/82/5
f 447/9/2 406/145/2 390/96/2 412/95/2 411/132/2 389/131/2 385/22/2 387/84/2
f 360/130/6 359/161/6 368/162/6 335/46/6 343/85/6
f 388/84/6 394/9/6 447/145/6 387/22/6
f 115/22/3 81/84/3 80/69/3 113/66/3 114/144/3
f 386/131/4 388/83/4 387/103/4 385/21/4
f 215/59/3 209/56/3 210/57/3 216/58/3
f 390/145/3 406/136/3 393/156/3 392/9/3
f 331/46/5 333/81/5 379/48/5 380/51/5
f 394/156/5 393/136/5 406/145/5 447/9/5
f 395/176/3 396/185/3 398/186/3 397/175/3
f 330/31/3 331/32/3 380/61/3 231/15/3
f 284/45/4 251/144/4 257/66/4 282/85/4
f 400/169/5 398/151/5 396/107/5 399/143/5
f 404/20/4 406/21/4 405/22/4 403/144/4
f 407/158/3 408/176/3 410/175/3 409/146/3
f 409/166/4 402/158/4 401/137/4 407/167/4
f 397/158/5 410/166/5 408/167/5 395/137/5
f 411/145/3 412/136/3 414/156/3 413/9/3
f 392/96/1 393/145/1 394/9/1 388/84/1 386/22/1 391/131/1 413/132/1 414/95/1
f 413/132/4 391/131/4 389/21/4 411/20/4
f 392/136/5 414/137/5 412/157/5 390/145/5
f 415/24/3 416/9/3 418/12/3 417/25/3
f 417/165/1 418/167/1 421/137/1 420/157/1
f 420/25/6 421/12/6 419/9/6 414/24/6
f 414/95/2 419/157/2 416/165/2 415/109/2
f 417/109/4 420/95/4 414/132/4 415/78/4
f 421/95/5 418/109/5 416/78/5 419/132/5
f 145/125/6 149/41/6 141/27/6 140/17/6
f 130/70/5 131/73/5 27/6/5 29/5/5
f 429/12/1 432/11/1 434/149/1 455/115/1
f 435/115/3 438/143/3 439/142/3 436/116/3
f 423/12/4 425/115/4 424/111/4 422/25/4
f 459/116/5 426/12/5 429/25/5 455/111/5 458/112/5
f 33/7/2 34/3/2 57/2/2 63/1/2 35/8/2
f 82/69/6 83/84/6 117/144/6 116/66/6 118/65/6
f 426/12/1 459/116/1 457/112/1 427/111/1 425/36/1 423/35/1
f 456/112/2 458/116/2 455/115/2 429/12/2 422/35/2 424/36/2 454/111/2
f 440/107/2 438/106/2 435/9/2 426/12/2
f 395/176/2 408/187/2 407/166/2 401/158/2 403/157/2 405/145/2 399/186/2 396/185/2
f 429/25/4 455/111/4 430/110/4 428/82/4
f 434/143/5 432/107/5 431/11/5 433/149/5
f 422/35/3 429/12/3 426/115/3 423/36/3
f 436/156/4 437/160/4 426/12/4 435/9/4
f 455/12/6 434/11/6 433/10/6 430/9/6
f 406/145/6 400/186/6 399/185/6 405/157/6
f 404/157/1 402/158/1 409/166/1 410/187/1 397/176/1 398/185/1 400/186/1 406/145/1
f 430/115/2 433/149/2 431/11/2 428/12/2
f 441/107/5 439/106/5 438/10/5 440/11/5
f 445/60/5 443/159/5 442/64/5 444/59/5
f 447/103/4 449/88/4 448/35/4 446/84/4
f 235/61/3 236/68/3 244/43/3 246/42/3 245/27/3
f 453/11/5 451/10/5 450/156/5 452/160/5
f 457/111/6 459/115/6 458/12/6 456/25/6
f 427/115/4 457/116/4 456/112/4 454/111/4
f 220/63/5 213/114/5 211/115/5 218/159/5
f 463/55/1 466/52/1 461/159/1 459/116/1
f 459/116/4 461/159/4 460/64/4 458/112/4
f 466/52/5 463/55/5 462/113/5 464/63/5
f 448/12/2 452/11/2 450/10/2 446/9/2
f 469/54/1 471/53/1 467/52/1 465/55/1
f 465/55/4 467/52/4 466/63/4 463/113/4
f 460/159/2 464/52/2 462/55/2 458/116/2
f 458/12/3 462/11/3 463/149/3 459/115/3
f 471/169/5 469/151/5 468/107/5 470/143/5
f 467/55/6 471/54/6 470/169/6 466/149/6
