# Blender 4.2.3 LTS
# www.blender.org
mtllib weed3.mtl
o Plane
v -1.050000 0.100000 1.050000
v 1.050000 0.100000 1.050000
v -1.050000 0.100000 -1.050000
v 1.050000 0.100000 -1.050000
v -1.050000 0.200000 1.050000
v 1.050000 0.200000 1.050000
v -1.050000 0.200000 -1.050000
v 1.050000 0.200000 -1.050000
v -0.150000 0.000000 0.350000
v -0.150000 0.100000 0.350000
v -0.150000 0.000000 0.250000
v -0.150000 0.100000 0.250000
v -0.050000 0.000000 0.350000
v -0.050000 0.100000 0.350000
v -0.050000 0.000000 0.250000
v -0.050000 0.100000 0.250000
v -0.650000 0.000000 0.850000
v -0.650000 0.100000 0.850000
v -0.650000 0.000000 0.750000
v -0.650000 0.100000 0.750000
v -0.550000 0.000000 0.850000
v -0.550000 0.100000 0.850000
v -0.550000 0.000000 0.750000
v -0.550000 0.100000 0.750000
v -0.450000 -0.000000 0.450000
v -0.450000 0.200000 0.450000
v -0.450000 -0.000000 0.350000
v -0.450000 0.200000 0.350000
v -0.350000 -0.000000 0.450000
v -0.350000 0.200000 0.450000
v -0.350000 -0.000000 0.350000
v -0.350000 0.200000 0.350000
v 0.450000 0.000000 0.550000
v 0.450000 0.100000 0.550000
v 0.450000 0.000000 0.450000
v 0.450000 0.100000 0.450000
v 0.550000 0.000000 0.550000
v 0.550000 0.100000 0.550000
v 0.550000 0.000000 0.450000
v 0.550000 0.100000 0.450000
v -0.550000 0.000000 0.050000
v -0.550000 0.100000 0.050000
v -0.550000 0.000000 -0.050000
v -0.550000 0.100000 -0.050000
v -0.450000 0.000000 0.050000
v -0.450000 0.100000 0.050000
v -0.450000 0.000000 -0.050000
v -0.450000 0.100000 -0.050000
v 0.350000 0.000000 -0.250000
v 0.350000 0.100000 -0.250000
v 0.350000 0.000000 -0.350000
v 0.350000 0.100000 -0.350000
v 0.450000 0.000000 -0.250000
v 0.450000 0.100000 -0.250000
v 0.450000 0.000000 -0.350000
v 0.450000 0.100000 -0.350000
v -0.350000 0.000000 -0.450000
v -0.350000 0.100000 -0.450000
v -0.350000 0.000000 -0.550000
v -0.350000 0.100000 -0.550000
v -0.250000 0.000000 -0.450000
v -0.250000 0.100000 -0.450000
v -0.250000 0.000000 -0.550000
v -0.250000 0.100000 -0.550000
v -0.800000 0.000000 -0.700000
v -0.800000 0.100000 -0.700000
v -0.800000 0.000000 -0.800000
v -0.800000 0.100000 -0.800000
v -0.700000 0.000000 -0.700000
v -0.700000 0.100000 -0.700000
v -0.700000 0.000000 -0.800000
v -0.700000 0.100000 -0.800000
v -0.850000 -0.000000 -0.250000
v -0.850000 0.200000 -0.250000
v -0.850000 -0.000000 -0.350000
v -0.850000 0.200000 -0.350000
v -0.750000 -0.000000 -0.250000
v -0.750000 0.200000 -0.250000
v -0.750000 -0.000000 -0.350000
v -0.750000 0.200000 -0.350000
v 0.250000 -0.000000 -0.650000
v 0.250000 0.200000 -0.650000
v 0.250000 -0.000000 -0.750000
v 0.250000 0.200000 -0.750000
v 0.350000 -0.000000 -0.650000
v 0.350000 0.200000 -0.650000
v 0.350000 -0.000000 -0.750000
v 0.350000 0.200000 -0.750000
v 0.350000 -0.000000 0.950000
v 0.350000 0.200000 0.950000
v 0.350000 -0.000000 0.850000
v 0.350000 0.200000 0.850000
v 0.450000 -0.000000 0.950000
v 0.450000 0.200000 0.950000
v 0.450000 -0.000000 0.850000
v 0.450000 0.200000 0.850000
v 0.850000 -0.000000 0.850000
v 0.850000 0.200000 0.850000
v 0.850000 -0.000000 0.750000
v 0.850000 0.200000 0.750000
v 0.950000 -0.000000 0.850000
v 0.950000 0.200000 0.850000
v 0.950000 -0.000000 0.750000
v 0.950000 0.200000 0.750000
v -0.100000 -0.000000 0.800000
v -0.100000 0.200000 0.800000
v -0.100000 -0.000000 0.700000
v -0.100000 0.200000 0.700000
v -0.000000 -0.000000 0.800000
v -0.000000 0.200000 0.800000
v -0.000000 -0.000000 0.700000
v -0.000000 0.200000 0.700000
v -0.900000 -0.000000 0.300000
v -0.900000 0.200000 0.300000
v -0.900000 -0.000000 0.200000
v -0.900000 0.200000 0.200000
v -0.800000 -0.000000 0.300000
v -0.800000 0.200000 0.300000
v -0.800000 -0.000000 0.200000
v -0.800000 0.200000 0.200000
v -0.100000 -0.000000 -0.100000
v -0.100000 0.200000 -0.100000
v -0.100000 -0.000000 -0.200000
v -0.100000 0.200000 -0.200000
v -0.000000 -0.000000 -0.100000
v -0.000000 0.200000 -0.100000
v -0.000000 -0.000000 -0.200000
v -0.000000 0.200000 -0.200000
v -0.300000 -0.000000 -0.800000
v -0.300000 0.200000 -0.800000
v -0.300000 -0.000000 -0.900000
v -0.300000 0.200000 -0.900000
v -0.200000 -0.000000 -0.800000
v -0.200000 0.200000 -0.800000
v -0.200000 -0.000000 -0.900000
v -0.200000 0.200000 -0.900000
v 0.200000 -0.000000 0.200000
v 0.200000 0.200000 0.200000
v 0.200000 -0.000000 0.100000
v 0.200000 0.200000 0.100000
v 0.300000 -0.000000 0.200000
v 0.300000 0.200000 0.200000
v 0.300000 -0.000000 0.100000
v 0.300000 0.200000 0.100000
v 0.700000 -0.000000 0.000000
v 0.700000 0.200000 0.000000
v 0.700000 -0.000000 -0.100000
v 0.700000 0.200000 -0.100000
v 0.800000 -0.000000 0.000000
v 0.800000 0.200000 0.000000
v 0.800000 -0.000000 -0.100000
v 0.800000 0.200000 -0.100000
v 0.700000 -0.000000 -0.500000
v 0.700000 0.200000 -0.500000
v 0.700000 -0.000000 -0.600000
v 0.700000 0.200000 -0.600000
v 0.800000 -0.000000 -0.500000
v 0.800000 0.200000 -0.500000
v 0.800000 -0.000000 -0.600000
v 0.800000 0.200000 -0.600000
vn -0.0000 1.0000 -0.0000
vn -1.0000 -0.0000 -0.0000
vn -0.0000 -0.0000 -1.0000
vn 1.0000 -0.0000 -0.0000
vn -0.0000 -0.0000 1.0000
vt 0.500000 0.500000
vt 1.000000 0.500000
vt 1.000000 1.000000
vt 0.500000 1.000000
vt -0.000000 0.500000
vt -0.000000 1.000000
vt 0.023810 0.476190
vt 0.023810 0.500000
vt 0.047619 0.500000
vt 0.047619 0.476190
vt 0.000000 0.452381
vt 0.023810 0.452381
s 0
usemtl Material.001
f 1/1/1 2/2/1 4/3/1 3/4/1
f 5/5/1 6/1/1 8/4/1 7/6/1
f 9/7/2 10/8/2 12/9/2 11/10/2
f 11/7/3 12/8/3 16/9/3 15/10/3
f 15/10/4 16/9/4 14/8/4 13/7/4
f 13/10/5 14/9/5 10/8/5 9/7/5
f 17/7/2 18/8/2 20/9/2 19/10/2
f 19/7/3 20/8/3 24/9/3 23/10/3
f 23/10/4 24/9/4 22/8/4 21/7/4
f 21/10/5 22/9/5 18/8/5 17/7/5
f 25/11/2 26/5/2 28/8/2 27/12/2
f 27/11/3 28/5/3 32/8/3 31/12/3
f 31/12/4 32/8/4 30/5/4 29/11/4
f 29/12/5 30/8/5 26/5/5 25/11/5
f 33/7/2 34/8/2 36/9/2 35/10/2
f 35/7/3 36/8/3 40/9/3 39/10/3
f 39/10/4 40/9/4 38/8/4 37/7/4
f 37/10/5 38/9/5 34/8/5 33/7/5
f 41/7/2 42/8/2 44/9/2 43/10/2
f 43/7/3 44/8/3 48/9/3 47/10/3
f 47/10/4 48/9/4 46/8/4 45/7/4
f 45/10/5 46/9/5 42/8/5 41/7/5
f 49/7/2 50/8/2 52/9/2 51/10/2
f 51/7/3 52/8/3 56/9/3 55/10/3
f 55/10/4 56/9/4 54/8/4 53/7/4
f 53/10/5 54/9/5 50/8/5 49/7/5
f 57/7/2 58/8/2 60/9/2 59/10/2
f 59/7/3 60/8/3 64/9/3 63/10/3
f 63/10/4 64/9/4 62/8/4 61/7/4
f 61/10/5 62/9/5 58/8/5 57/7/5
f 65/7/2 66/8/2 68/9/2 67/10/2
f 67/7/3 68/8/3 72/9/3 71/10/3
f 71/10/4 72/9/4 70/8/4 69/7/4
f 69/10/5 70/9/5 66/8/5 65/7/5
f 73/11/2 74/5/2 76/8/2 75/12/2
f 75/11/3 76/5/3 80/8/3 79/12/3
f 79/12/4 80/8/4 78/5/4 77/11/4
f 77/12/5 78/8/5 74/5/5 73/11/5
f 81/11/2 82/5/2 84/8/2 83/12/2
f 83/11/3 84/5/3 88/8/3 87/12/3
f 87/12/4 88/8/4 86/5/4 85/11/4
f 85/12/5 86/8/5 82/5/5 81/11/5
f 89/11/2 90/5/2 92/8/2 91/12/2
f 91/11/3 92/5/3 96/8/3 95/12/3
f 95/12/4 96/8/4 94/5/4 93/11/4
f 93/12/5 94/8/5 90/5/5 89/11/5
f 97/11/2 98/5/2 100/8/2 99/12/2
f 99/11/3 100/5/3 104/8/3 103/12/3
f 103/12/4 104/8/4 102/5/4 101/11/4
f 101/12/5 102/8/5 98/5/5 97/11/5
f 105/11/2 106/5/2 108/8/2 107/12/2
f 107/11/3 108/5/3 112/8/3 111/12/3
f 111/12/4 112/8/4 110/5/4 109/11/4
f 109/12/5 110/8/5 106/5/5 105/11/5
f 113/11/2 114/5/2 116/8/2 115/12/2
f 115/11/3 116/5/3 120/8/3 119/12/3
f 119/12/4 120/8/4 118/5/4 117/11/4
f 117/12/5 118/8/5 114/5/5 113/11/5
f 121/11/2 122/5/2 124/8/2 123/12/2
f 123/11/3 124/5/3 128/8/3 127/12/3
f 127/12/4 128/8/4 126/5/4 125/11/4
f 125/12/5 126/8/5 122/5/5 121/11/5
f 129/11/2 130/5/2 132/8/2 131/12/2
f 131/11/3 132/5/3 136/8/3 135/12/3
f 135/12/4 136/8/4 134/5/4 133/11/4
f 133/12/5 134/8/5 130/5/5 129/11/5
f 137/11/2 138/5/2 140/8/2 139/12/2
f 139/11/3 140/5/3 144/8/3 143/12/3
f 143/12/4 144/8/4 142/5/4 141/11/4
f 141/12/5 142/8/5 138/5/5 137/11/5
f 145/11/2 146/5/2 148/8/2 147/12/2
f 147/11/3 148/5/3 152/8/3 151/12/3
f 151/12/4 152/8/4 150/5/4 149/11/4
f 149/12/5 150/8/5 146/5/5 145/11/5
f 153/11/2 154/5/2 156/8/2 155/12/2
f 155/11/3 156/5/3 160/8/3 159/12/3
f 159/12/4 160/8/4 158/5/4 157/11/4
f 157/12/5 158/8/5 154/5/5 153/11/5
