# Blender 4.2.3 LTS
# www.blender.org
mtllib StorageHouse.mtl
o Plane.004
v 10.200000 0.000000 -5.250000
v 10.499999 0.000000 -5.250000
v 10.200000 0.000000 -7.349999
v 10.499999 0.000000 -7.349999
v 10.200000 0.000000 7.350001
v 10.499999 0.000000 7.350001
v 10.200000 0.000000 5.250000
v 10.499999 0.000000 5.250000
v -10.500001 0.000000 7.350001
v -10.200002 0.000000 7.350001
v -10.500001 0.000000 1.050001
v -10.200002 0.000000 1.050001
v 10.200000 0.000000 5.250000
v 10.499999 0.000000 5.250000
v 10.200000 0.000000 3.150000
v 10.499999 0.000000 3.150000
v 10.200000 0.000000 3.150000
v 10.499999 0.000000 3.150000
v 10.200000 0.000000 2.250000
v 10.499999 0.000000 2.250000
v 10.200000 0.000000 -3.150000
v 10.499999 0.000000 -3.150000
v 10.200000 0.000000 -5.250000
v 10.499999 0.000000 -5.250000
v 10.200000 0.000000 -2.250000
v 10.499999 0.000000 -2.250000
v 10.200000 0.000000 -3.150000
v 10.499999 0.000000 -3.150000
v -10.500001 0.000000 1.050000
v -10.200002 0.000000 1.050000
v -10.500001 0.000000 -5.250000
v -10.200002 0.000000 -5.250000
v -10.500001 0.000000 -5.250000
v -10.200002 0.000000 -5.250000
v -10.500001 0.000000 -7.349999
v -10.200002 0.000000 -7.349999
v -10.500003 0.000000 7.050001
v -10.500003 0.000000 7.350000
v -4.200004 0.000000 7.050001
v -4.200004 0.000000 7.350000
v -4.200003 0.000000 7.050001
v -4.200003 0.000000 7.350000
v 2.099998 0.000000 7.050001
v 2.099998 0.000000 7.350000
v 2.099998 0.000000 7.050001
v 2.099998 0.000000 7.350000
v 8.399998 0.000000 7.050001
v 8.399998 0.000000 7.350000
v 10.500000 0.000000 7.350000
v 10.500000 0.000000 7.050001
v 8.400000 0.000000 7.350000
v 8.400000 0.000000 7.050001
v 10.500000 0.000000 -7.050000
v 10.500000 0.000000 -7.349999
v 8.400000 0.000000 -7.050000
v 8.400000 0.000000 -7.349999
v 2.099998 0.000000 -7.350000
v 2.099998 0.000000 -7.050000
v 8.399998 0.000000 -7.349999
v 8.399998 0.000000 -7.050000
v -4.200003 0.000000 -7.350000
v -4.200003 0.000000 -7.050000
v 2.099998 0.000000 -7.349999
v 2.099998 0.000000 -7.050000
v -10.500003 0.000000 -7.350000
v -10.500003 0.000000 -7.050000
v -4.200004 0.000000 -7.349999
v -4.200004 0.000000 -7.050000
v -6.800002 0.000000 7.050000
v -6.800002 0.000000 6.950000
v -8.900001 0.000000 7.050000
v -8.900001 0.000000 6.950000
v 10.100000 6.483335 7.667651
v 10.500001 6.199999 7.949999
v 10.100000 6.695097 7.880153
v 10.500001 6.411761 8.162502
v -10.499999 6.199999 7.949999
v -10.499999 6.411761 8.162502
v -10.099998 6.695097 7.880153
v -10.099998 6.483335 7.667652
v -10.100001 6.482965 7.668022
v 10.100000 6.482965 7.668022
v 10.100001 11.943539 2.650000
v 10.100001 11.518532 2.650000
v 10.500002 11.943539 2.649999
v 10.500002 11.518532 2.650000
v 10.100000 11.518534 2.649999
v -10.100001 11.518534 2.649999
v -10.099990 11.518532 2.650000
v -10.499988 11.943539 2.649999
v -10.499988 11.518531 2.650000
v -10.099990 11.943539 2.649999
v 10.100000 6.483335 -7.667651
v 10.500001 6.199999 -7.950000
v 10.100000 6.695097 -7.880154
v 10.500001 6.411761 -8.162503
v -10.499999 6.199999 -7.950000
v -10.499999 6.411761 -8.162503
v -10.099998 6.695096 -7.880155
v -10.099998 6.483335 -7.667652
v -10.100001 6.482965 -7.668023
v 10.100000 6.482965 -7.668023
v 10.100001 11.943539 -2.650002
v 10.100001 11.518531 -2.650001
v 10.500002 11.943539 -2.650002
v 10.500002 11.518531 -2.650001
v 10.100000 11.518534 -2.650002
v -10.100001 11.518534 -2.650001
v -10.099990 11.518531 -2.650001
v -10.499988 11.943539 -2.650002
v -10.499988 11.518531 -2.650001
v -10.099990 11.943539 -2.650001
v 10.099999 -0.000000 -6.949999
v 10.200000 -0.000000 -6.949999
v 10.099999 -0.000000 -2.650000
v 10.200000 -0.000000 -2.650000
v 10.099999 6.400000 -6.950000
v 10.200000 6.400000 -6.950000
v 10.099999 6.400000 -2.650000
v 10.200000 6.400000 -2.650000
v 10.099999 -0.000001 6.949998
v 10.200000 -0.000001 6.949998
v 10.099999 -0.000001 2.649999
v 10.200000 -0.000001 2.649999
v 10.099999 6.400000 6.949999
v 10.200000 6.400000 6.949999
v 10.099999 6.400000 2.649999
v 10.200000 6.400000 2.649999
v 10.099999 4.800000 2.250000
v 10.200000 4.800000 2.250000
v 10.099999 6.400000 2.250000
v 10.200000 6.400000 2.250000
v 10.099999 4.799999 -2.250000
v 10.200000 4.799999 -2.250000
v 10.099999 6.400000 -2.250000
v 10.200000 6.400000 -2.250000
v 5.400000 -0.000001 7.050001
v 5.400000 -0.000001 6.950000
v 10.100000 -0.000001 6.950000
v 10.100000 -0.000001 7.050001
v 5.400000 6.400000 7.050000
v 5.400000 6.400000 6.949999
v 10.100000 6.400000 6.949999
v 10.100000 6.400000 7.050000
v 5.000000 -0.000001 7.049999
v 5.000000 -0.000001 6.949998
v 0.200000 -0.000001 6.949998
v 0.200000 -0.000001 7.049999
v 5.000000 6.400000 6.949999
v 5.000000 6.400000 7.049999
v 0.200000 6.400000 7.049999
v 0.200000 6.400000 6.949999
v 1.400000 4.999999 7.049999
v 3.700000 2.700000 7.049999
v 3.700000 4.999999 7.049999
v 1.400000 2.700000 7.049999
v 3.700000 2.700000 6.949998
v 1.400000 2.700000 6.949998
v 1.400000 4.999999 6.949998
v 3.700000 4.999999 6.949998
v 2.500000 4.700000 7.049999
v 2.600000 4.700000 7.049999
v 2.600000 4.700000 6.949999
v 2.500000 4.700000 6.949999
v 1.700001 4.699999 6.849998
v 2.600000 3.000000 7.050001
v 2.600000 3.000000 6.949999
v 2.500000 3.000000 7.050001
v 3.400001 3.000000 6.850000
v 2.500000 3.900000 6.950000
v 2.500000 3.799999 7.050000
v 2.500000 3.899999 7.049999
v 2.500000 3.800000 6.950000
v 1.700001 3.000000 6.850000
v 1.400002 4.999999 6.849999
v 3.700001 2.700000 6.849999
v 1.400002 2.700000 6.849999
v 3.700001 4.999999 6.849999
v 3.400001 4.699999 6.849998
v 3.400000 3.800000 6.950000
v 3.400000 3.900000 6.950000
v 3.400000 3.799999 7.050000
v 3.400000 3.899999 7.049999
v 2.600000 3.900000 6.950000
v 1.700001 3.000000 7.149999
v 2.600000 3.899999 7.049999
v 2.600000 3.799999 7.050000
v 2.600000 3.800000 6.950000
v 3.400001 4.699999 7.149999
v 1.700000 3.799999 7.050000
v 1.700000 3.899999 7.049999
v 1.400002 4.999999 7.149998
v 1.700001 4.699999 7.149999
v 3.700001 4.999999 7.149998
v 1.700000 3.900000 6.950000
v 1.700000 3.800000 6.950000
v 1.400002 2.700000 7.149999
v 2.500000 3.000000 6.949999
v 3.700001 2.700000 7.149999
v 3.400001 3.000000 7.149999
v -5.000000 -0.000001 7.049999
v -5.000000 -0.000001 6.949998
v -0.199999 -0.000001 6.949998
v -0.199999 -0.000001 7.049999
v -5.000000 6.400000 7.049999
v -5.000000 6.400000 6.949999
v -0.199999 6.400000 6.949999
v -0.199999 6.400000 7.049999
v -8.673343 -0.000001 7.348215
v -10.556396 -0.000000 7.601436
v -8.673343 3.999999 7.348215
v -10.556396 3.999999 7.601436
v -8.700000 -0.000001 7.149999
v -10.583049 -0.000001 7.403221
v -8.700000 4.000000 7.149999
v -10.583049 3.999999 7.403220
v -10.556396 3.300000 7.601436
v -10.556396 2.800000 7.601436
v -10.556396 1.200000 7.601436
v -10.556396 0.700000 7.601436
v -8.673343 3.299999 7.348215
v -8.673343 2.799999 7.348215
v -8.673343 1.199999 7.348215
v -8.673343 0.699999 7.348215
v -10.543067 3.299999 7.700544
v -10.543067 2.799999 7.700544
v -10.543067 1.200000 7.700544
v -10.543067 0.700000 7.700544
v -8.660018 3.300000 7.447322
v -8.660018 2.800000 7.447322
v -8.660018 1.199999 7.447323
v -8.660018 0.699999 7.447323
v -10.100001 -0.000000 7.049999
v -10.100001 -0.000000 6.949998
v -5.400002 -0.000000 6.949998
v -5.400002 -0.000000 7.049999
v -10.100001 6.400000 7.049999
v -10.100001 6.400000 6.949999
v -5.400002 6.400000 6.949999
v -5.400002 6.400000 7.049999
v -8.800002 -0.000001 7.050001
v -6.700000 -0.000001 7.050001
v -8.800002 4.099999 7.049999
v -6.700000 4.099999 7.049999
v -6.800002 -0.000001 7.149999
v -6.800002 3.999999 7.149999
v -6.700000 -0.000001 7.149999
v -8.800002 -0.000001 7.149999
v -8.700000 -0.000001 7.149999
v -8.700000 3.999999 7.149999
v -8.800002 4.099999 7.149999
v -6.700000 4.099999 7.149999
v -6.700000 -0.000001 6.949998
v -8.800002 -0.000001 6.949998
v -6.700000 4.099999 6.949998
v -8.800002 4.099999 6.949998
v -8.700000 -0.000001 6.849998
v -8.700000 4.000000 6.849998
v -8.800002 -0.000000 6.850000
v -6.700000 -0.000000 6.850000
v -6.800002 -0.000001 6.849998
v -6.800002 4.000000 6.849998
v -6.700000 4.099999 6.849999
v -8.800002 4.099999 6.849999
v 5.400000 0.000000 -7.049999
v 5.400000 -0.000000 -6.949999
v 10.100000 -0.000000 -6.949999
v 10.100000 0.000000 -7.049999
v 5.400000 6.400001 -7.049999
v 5.400000 6.400001 -6.949999
v 10.100000 6.400001 -6.949999
v 10.100000 6.400001 -7.049999
v -5.400002 0.000000 -7.049999
v -5.400002 -0.000000 -6.949999
v -10.100001 -0.000000 -6.949999
v -10.100001 0.000000 -7.049999
v -5.400002 6.400001 -7.049999
v -5.400002 6.400001 -6.949999
v -10.100001 6.400001 -6.949999
v -10.100001 6.400001 -7.049999
v 5.000000 -0.000000 -7.050000
v 5.000000 -0.000000 -6.950000
v 0.200000 -0.000000 -6.950000
v 0.200000 -0.000000 -7.050000
v 5.000000 6.400001 -6.949999
v 5.000000 6.400000 -7.050000
v 0.200000 6.400000 -7.050000
v 0.200000 6.400001 -6.949999
v 1.400000 4.999999 -7.050000
v 3.700000 2.700000 -7.050000
v 3.700000 4.999999 -7.050000
v 1.400000 2.700000 -7.050000
v 3.700000 2.700000 -6.950000
v 1.400000 2.700000 -6.950000
v 1.400000 4.999999 -6.949999
v 3.700000 4.999999 -6.949999
v 2.500000 4.700000 -7.050001
v 2.600000 4.700000 -7.050001
v 2.600000 4.700001 -6.950000
v 2.500000 4.700001 -6.950000
v 1.700001 4.700000 -6.849999
v 2.600000 3.000000 -7.050000
v 2.600000 3.000000 -6.950000
v 2.500000 3.000000 -7.050000
v 3.400001 3.000000 -6.850000
v 2.500000 3.900000 -6.950000
v 2.500000 3.800000 -7.050000
v 2.500000 3.900000 -7.050000
v 2.500000 3.800000 -6.950000
v 1.700001 3.000000 -6.850000
v 1.400002 4.999999 -6.849999
v 3.700001 2.700000 -6.849999
v 1.400002 2.700000 -6.849999
v 3.700001 4.999999 -6.849999
v 3.400001 4.700000 -6.849999
v 3.400000 3.800000 -6.950000
v 3.400000 3.900000 -6.950000
v 3.400000 3.800000 -7.050000
v 3.400000 3.900000 -7.050000
v 2.600000 3.900000 -6.950000
v 1.700001 2.999999 -7.150000
v 2.600000 3.900000 -7.050000
v 2.600000 3.800000 -7.050000
v 2.600000 3.800000 -6.950000
v 3.400001 4.700000 -7.150000
v 1.700000 3.800000 -7.050000
v 1.700000 3.900000 -7.050000
v 1.400002 4.999999 -7.150000
v 1.700001 4.700000 -7.150000
v 3.700001 4.999999 -7.150000
v 1.700000 3.900000 -6.950000
v 1.700000 3.800000 -6.950000
v 1.400002 2.700000 -7.150000
v 2.500000 3.000000 -6.950000
v 3.700001 2.700000 -7.150000
v 3.400001 2.999999 -7.150000
v -5.000000 -0.000000 -7.050000
v -5.000000 -0.000000 -6.950000
v -0.199999 -0.000000 -6.950000
v -0.199999 -0.000000 -7.050000
v -5.000000 6.400000 -7.050000
v -5.000000 6.400001 -6.949999
v -0.199999 6.400001 -6.949999
v -0.199999 6.400000 -7.050000
v -10.200000 -0.000000 -6.949999
v -10.100001 -0.000000 -6.949999
v -10.200000 -0.000001 2.649999
v -10.200000 -0.000001 6.949998
v -10.200000 6.399999 6.949998
v -10.200000 -0.000001 -2.650001
v -10.200000 -0.000001 -2.250001
v -10.200000 -0.000001 2.250000
v -10.200000 6.399999 -6.950000
v -10.200000 6.400000 -2.250000
v -10.200000 6.399999 -2.650001
v -10.200000 6.400000 2.250000
v -10.200000 6.399999 2.649999
v -10.100001 -0.000001 6.949998
v -10.100001 -0.000001 2.649999
v -10.100001 -0.000001 2.250000
v -10.100001 -0.000001 -2.250001
v -10.100001 -0.000001 -2.650001
v -10.100001 6.400000 -2.250000
v -10.100001 6.399999 -2.650001
v -10.100001 6.399999 6.949998
v -10.100001 6.400000 2.250000
v -10.100001 6.399999 2.649999
v -10.100001 6.399999 -6.950000
v -10.099998 6.800000 2.650000
v -10.499999 6.800000 2.650000
v -10.099998 6.800000 2.250000
v -10.499999 6.800000 2.250000
v -10.099998 11.500000 2.650001
v -10.499999 11.500000 2.650001
v -10.099998 11.499999 2.250000
v -10.499999 11.499999 2.250000
v 10.099998 6.800001 -6.950000
v 10.099998 6.800000 -7.350000
v 10.099998 6.400001 -6.949999
v 10.099998 6.400000 -7.350000
v -10.100001 6.800001 -6.950000
v -10.100001 6.800000 -7.350000
v -10.100001 6.400001 -6.949999
v -10.100001 6.400000 -7.350000
v -10.499999 6.400000 7.350000
v -10.099998 6.400000 7.350000
v -10.499999 6.800000 7.350000
v -10.099998 6.800000 7.350000
v -10.499999 6.800000 -7.350000
v -10.499999 6.400000 -7.350000
v -10.099998 6.400000 -7.350000
v -10.099998 6.800000 -7.350000
v 10.500000 -0.000000 -2.250000
v 10.100000 -0.000000 -2.250000
v 10.500000 -0.000001 -2.650001
v 10.100000 -0.000001 -2.650001
v 10.500000 6.400000 -2.250000
v 10.100000 6.400000 -2.250000
v 10.500000 6.400001 -2.650001
v 10.100000 6.400001 -2.650001
v 10.500000 -0.000001 7.350000
v 10.100000 -0.000001 7.350000
v 10.500000 -0.000000 6.950000
v 10.100000 -0.000000 6.950000
v 10.500000 6.400000 7.350000
v 10.100000 6.400000 7.350000
v 10.500000 6.400000 6.949999
v 10.100000 6.400000 6.949999
v 10.500000 -0.000001 2.649999
v 10.100000 -0.000001 2.649999
v 10.500000 0.000000 2.250000
v 10.100000 0.000000 2.250000
v 10.500000 6.400001 2.649999
v 10.100000 6.400001 2.649999
v 10.500000 6.400001 2.250000
v 10.100000 6.400001 2.250000
v 10.500000 -0.000000 -6.949999
v 10.100000 -0.000000 -6.949999
v 10.500000 -0.000001 -7.350000
v 10.100000 -0.000001 -7.350000
v 10.500000 6.400001 -6.949999
v 10.100000 6.400001 -6.949999
v 10.500000 6.400000 -7.350000
v 10.100000 6.400000 -7.350000
v 10.500000 4.800000 2.250000
v 10.100000 4.800000 2.250000
v 10.500000 4.400000 2.250000
v 10.100000 4.400000 2.250000
v 10.500000 4.800000 -2.250000
v 10.100000 4.800000 -2.250000
v 10.500000 4.400000 -2.250000
v 10.100000 4.400000 -2.250000
v -10.499999 -0.000000 -2.250000
v -10.499999 -0.000001 -2.650001
v -10.100001 -0.000000 -2.250000
v -10.100001 -0.000001 -2.650001
v -10.499999 6.400000 -2.250000
v -10.499999 6.400001 -2.650001
v -10.100001 6.400000 -2.250000
v -10.100001 6.400001 -2.650001
v 4.999999 -0.000001 7.350000
v 4.999999 -0.000000 6.950000
v 5.400000 -0.000001 7.350000
v 5.400000 -0.000000 6.950000
v 4.999999 6.400000 7.350000
v 4.999999 6.400000 6.949999
v 5.400000 6.400000 7.350000
v 5.400000 6.400000 6.949999
v -0.200001 -0.000001 7.350000
v -0.200001 -0.000000 6.950000
v 0.200000 -0.000001 7.350000
v 0.200000 -0.000000 6.950000
v -0.200001 6.400000 7.350000
v -0.200001 6.400000 6.949999
v 0.200000 6.400000 7.350000
v 0.200000 6.400000 6.949999
v -5.400001 -0.000001 7.350000
v -5.400001 -0.000000 6.950000
v -5.000000 -0.000001 7.350000
v -5.000000 -0.000000 6.950000
v -5.400001 6.400000 7.350000
v -5.400001 6.400000 6.949999
v -5.000000 6.400000 7.350000
v -5.000000 6.400000 6.949999
v -10.499999 -0.000001 7.350000
v -10.499999 -0.000000 6.950000
v -10.100001 -0.000001 7.350000
v -10.100001 -0.000000 6.950000
v -10.499999 6.400000 7.350000
v -10.499999 6.400000 6.949999
v -10.100001 6.400000 7.350000
v -10.100001 6.400000 6.949999
v -10.499999 -0.000000 -6.949999
v -10.499999 -0.000000 -7.349999
v -10.100001 -0.000000 -6.949999
v -10.100001 -0.000000 -7.349999
v -10.499999 6.400001 -6.949999
v -10.499999 6.400000 -7.350000
v -10.100001 6.400001 -6.949999
v -10.100001 6.400000 -7.350000
v -5.400001 -0.000000 -6.949999
v -5.400001 -0.000000 -7.349999
v -5.000000 -0.000000 -6.949999
v -5.000000 -0.000000 -7.349999
v -5.400001 6.400001 -6.949999
v -5.400001 6.400000 -7.350000
v -5.000000 6.400001 -6.949999
v -5.000000 6.400000 -7.350000
v -0.200001 -0.000000 -6.949999
v -0.200001 -0.000000 -7.349999
v 0.200000 -0.000000 -6.949999
v 0.200000 -0.000000 -7.349999
v -0.200001 6.400001 -6.949999
v -0.200001 6.400000 -7.350000
v 0.200000 6.400001 -6.949999
v 0.200000 6.400000 -7.350000
v 4.999999 -0.000000 -6.949999
v 4.999999 -0.000000 -7.349999
v 5.400000 -0.000000 -6.949999
v 5.400000 -0.000000 -7.349999
v 4.999999 6.400001 -6.949999
v 4.999999 6.400000 -7.350000
v 5.400000 6.400001 -6.949999
v 5.400000 6.400000 -7.350000
v -10.499999 -0.000001 2.649999
v -10.499999 0.000000 2.250000
v -10.100001 -0.000001 2.649999
v -10.100001 0.000000 2.250000
v -10.499999 6.400001 2.649999
v -10.499999 6.400001 2.250000
v -10.100001 6.400001 2.649999
v -10.100001 6.400001 2.250000
v 10.500000 6.400000 7.350000
v 10.100000 6.400000 7.350000
v 10.500000 6.800000 7.350000
v 10.100000 6.800000 7.350000
v 10.500000 6.800000 -7.350000
v 10.500000 6.400000 -7.350000
v 10.100000 6.400000 -7.350000
v 10.100000 6.800000 -7.350000
v 10.099998 6.800000 7.350000
v 10.099998 6.800000 6.949999
v 10.099998 6.400000 7.350000
v 10.099998 6.400000 6.949999
v -10.100001 6.800000 7.350000
v -10.100001 6.800000 6.949999
v -10.100001 6.400000 7.350000
v -10.100001 6.400000 6.949999
v 10.500000 6.400000 7.350000
v 10.100000 6.400000 7.350000
v 10.500000 6.800000 7.350000
v 10.100000 6.800000 7.350000
v 10.500000 6.800000 -7.350000
v 10.500000 6.400000 -7.350000
v 10.100000 6.400000 -7.350000
v 10.100000 6.800000 -7.350000
v 10.500000 6.800000 2.650000
v 10.100000 6.800000 2.650000
v 10.500000 6.800000 2.250000
v 10.100000 6.800000 2.250000
v 10.500000 11.500000 2.650001
v 10.100000 11.500000 2.650001
v 10.500000 11.499999 2.250000
v 10.100000 11.499999 2.250000
v 10.500000 6.800000 -2.250000
v 10.100000 6.800000 -2.250000
v 10.500000 6.800000 -2.650000
v 10.100000 6.800000 -2.650000
v 10.500000 11.500000 -2.250000
v 10.100000 11.500000 -2.250000
v 10.500000 11.500000 -2.650000
v 10.100000 11.500000 -2.650000
v -10.099998 6.800000 -2.250000
v -10.499999 6.800000 -2.250000
v -10.099998 6.800000 -2.650000
v -10.499999 6.800000 -2.650000
v -10.099998 11.500000 -2.250000
v -10.499999 11.500000 -2.250000
v -10.099998 11.500000 -2.650000
v -10.499999 11.500000 -2.650000
v 10.600000 1.399999 3.950000
v 10.699999 1.399999 3.950000
v 10.699999 1.399999 3.850000
v 10.699999 0.399999 2.650000
v 10.600000 0.399999 2.950000
v 10.600000 0.500000 2.950000
v 10.699999 0.399999 2.950000
v 10.699999 0.500000 2.950000
v 10.600000 0.500000 3.050001
v 10.600000 0.600000 3.050001
v 10.699999 0.500000 3.050001
v 10.699999 0.600000 3.050001
v 10.600000 0.699999 2.650000
v 10.699999 0.699999 2.650000
v 10.699999 0.700000 2.750000
v 10.699999 0.800000 2.850000
v 10.600000 0.700000 2.750000
v 10.600000 0.800000 2.750000
v 10.699999 0.800000 2.750000
v 10.699999 0.899999 2.950000
v 10.600000 0.800000 2.850000
v 10.600000 0.899999 2.850000
v 10.699999 0.899999 2.850000
v 10.600000 0.600000 3.149999
v 10.699999 0.600000 3.149999
v 10.699999 0.699999 3.150000
v 10.600000 0.700000 3.250000
v 10.600000 0.800000 3.250000
v 10.600000 0.699999 3.150000
v 10.699999 0.700000 3.250000
v 10.600000 0.899999 2.950000
v 10.600000 1.000000 2.950000
v 10.699999 1.000000 2.950000
v 10.600000 1.400000 3.450000
v 10.600000 1.400000 3.350000
v 10.699999 1.400000 3.450000
v 10.699999 1.400000 3.350000
v 10.600000 1.100000 3.650000
v 10.600000 1.199999 3.650000
v 10.600000 1.100000 3.550000
v 10.699999 1.100000 3.650000
v 10.699999 1.199999 3.650000
v 10.699999 1.100000 3.550000
v 10.600000 1.000000 3.550000
v 10.699999 1.000000 3.550000
v 10.600000 1.300000 3.350000
v 10.600000 1.300000 3.250000
v 10.699999 1.200000 3.250000
v 10.699999 1.300000 3.250000
v 10.699999 1.300000 3.350000
v 10.600000 1.200000 3.250000
v 10.600000 1.199999 3.150000
v 10.699999 1.199999 3.150000
v 10.600000 1.100000 3.150000
v 10.699999 1.100000 3.150000
v 10.600000 0.999999 3.050000
v 10.600000 1.100000 3.050000
v 10.699999 1.100000 3.050000
v 10.699999 1.000000 3.450000
v 10.600000 0.899999 3.450000
v 10.600000 1.000000 3.450000
v 10.699999 0.899999 3.450000
v 10.699999 0.900000 3.350000
v 10.699999 0.999999 3.050000
v 10.600000 0.900000 3.350000
v 10.600000 0.800000 3.350000
v 10.699999 0.800000 3.350000
v 10.699999 0.800000 3.250000
v 10.600000 1.199999 3.750000
v 10.699999 1.199999 3.750000
v 10.699999 1.299999 3.750000
v 10.600000 1.300000 3.850000
v 10.600000 1.299999 3.750000
v 10.699999 1.300000 3.850000
v 10.600000 1.399999 3.850000
v 10.600000 1.500000 3.450000
v 10.699999 1.500000 3.550001
v 10.699999 1.500000 3.450000
v 10.600000 1.500000 3.550001
v 10.699999 1.600000 3.650000
v 10.600000 1.600000 3.650000
v 10.600000 1.600000 3.550000
v 10.699999 1.600000 3.550000
v 10.699999 1.699999 3.750000
v 10.600000 1.699999 3.650000
v 10.699999 1.699999 3.650000
v 10.600000 1.500000 3.950000
v 10.699999 1.500000 3.950000
v 10.600000 1.500000 4.050001
v 10.699999 1.500000 4.050001
v 10.699999 1.600000 4.050001
v 10.600000 1.699999 3.750000
v 10.600000 1.799999 3.750000
v 10.699999 1.799999 3.750000
v 10.600000 1.800000 4.350000
v 10.600000 1.800000 4.250000
v 10.699999 1.800000 4.350000
v 10.600000 2.000000 4.050001
v 10.600000 2.100000 4.050001
v 10.699999 2.100000 4.050001
v 10.600000 2.000000 3.950000
v 10.699999 2.000000 4.050001
v 10.699999 2.000000 3.950000
v 10.600000 1.899999 3.950000
v 10.699999 1.899999 3.950000
v 10.600000 1.900000 3.850000
v 10.699999 1.800000 3.850000
v 10.699999 1.900000 3.850000
v 10.699999 1.800000 4.250000
v 10.600000 1.700000 4.250000
v 10.699999 1.700000 4.250000
v 10.699999 1.699999 4.150000
v 10.600000 1.800000 3.850000
v 10.600000 1.600000 4.150000
v 10.600000 1.700000 4.149999
v 10.600000 1.600000 4.050001
v 10.699999 1.600000 4.150000
v 10.699999 2.100000 4.350000
v 10.699999 3.700000 2.950000
v 10.699999 3.700000 2.850001
v 10.699999 3.800000 2.850001
v 10.599998 3.700000 2.850001
v 10.599998 3.700000 2.950000
v 10.599998 3.800000 2.850000
v 10.599998 3.900000 3.150000
v 10.699999 3.800000 2.750000
v 10.699999 3.900000 2.750000
v 10.599998 3.800000 2.750000
v 10.699999 3.900000 3.150001
v 10.699999 4.000000 3.150001
v 10.599998 4.000000 3.150001
v 10.599998 4.000000 3.050001
v 10.699999 4.100000 2.950000
v 10.699999 4.000000 3.050001
v 10.699999 4.099999 3.050001
v 10.599998 4.099999 3.050001
v 10.699999 4.200000 2.950000
v 10.599998 4.100000 2.950000
v 10.599998 4.200000 2.950000
v 10.699999 3.900000 2.650001
v 10.599998 3.900000 2.650001
v 10.599998 3.900000 2.750000
v 10.699999 4.200000 2.650001
v 10.699999 3.900000 3.250000
v 10.600000 3.800000 3.250000
v 10.600000 3.900000 3.250000
v 10.699999 3.600000 2.950000
v 10.699999 3.600000 3.050001
v 10.599998 3.600000 2.950000
v 10.699999 3.500000 3.050001
v 10.699999 3.500000 3.150001
v 10.599998 3.500000 3.050001
v 10.599998 3.500000 3.150001
v 10.599998 3.600000 3.050001
v 10.699999 3.800000 3.350000
v 10.600000 3.800000 3.350000
v 10.699999 3.800000 3.250000
v 10.699999 3.699999 3.450000
v 10.600000 3.700000 3.350001
v 10.600000 3.699999 3.450000
v 10.699999 3.700000 3.350001
v 10.600000 3.600000 3.450000
v 10.699999 3.600000 3.450000
v 10.699999 3.600000 3.550001
v 10.600000 3.600000 3.550001
v 10.699999 3.400000 3.150001
v 10.599998 3.400000 3.150001
v 10.699999 3.500000 3.550001
v 10.600000 3.500000 3.550001
v 10.600000 3.400000 3.250000
v 10.699999 3.299999 3.250000
v 10.699999 3.399999 3.250000
v 10.699999 3.299999 3.350000
v 10.600000 3.299999 3.250000
v 10.600000 3.299999 3.350000
v 10.699999 2.900000 3.750000
v 10.600000 2.900000 3.750000
v 10.699999 2.900000 3.650000
v 10.600000 2.900000 3.650000
v 10.699999 3.000000 3.650000
v 10.600000 3.000000 3.650000
v 10.699999 3.000000 3.550001
v 10.600000 3.000000 3.550001
v 10.699999 3.100000 3.550001
v 10.600000 3.100000 3.550001
v 10.699999 3.100000 3.950000
v 10.699999 3.200000 3.950000
v 10.600000 3.100000 3.950000
v 10.600000 3.200000 3.950000
v 10.699999 3.299999 3.750000
v 10.699999 3.200000 3.850000
v 10.699999 3.300000 3.850000
v 10.600000 3.299999 3.750000
v 10.600000 3.200000 3.850000
v 10.600000 3.300000 3.850000
v 10.699999 3.400000 3.650001
v 10.699999 3.400000 3.750000
v 10.600000 3.400000 3.650001
v 10.600000 3.400000 3.750000
v 10.699999 3.200000 3.450000
v 10.699999 3.100000 3.450000
v 10.600000 3.100000 3.450000
v 10.699999 3.200000 3.350000
v 10.600000 3.200000 3.350000
v 10.600000 3.200000 3.450000
v 10.699999 3.500000 3.650000
v 10.600000 3.500000 3.650000
v 10.699999 3.000000 4.050001
v 10.699999 3.100000 4.050001
v 10.600000 3.100000 4.050001
v 10.699999 2.800000 3.750000
v 10.600000 2.800000 3.750000
v 10.699999 2.700000 3.850001
v 10.699999 2.800000 3.850000
v 10.600000 2.700000 3.850001
v 10.600000 2.800000 3.850000
v 10.699999 3.000000 4.150000
v 10.600000 3.000000 4.050001
v 10.600000 3.000000 4.150000
v 10.699999 2.900000 4.150000
v 10.699999 2.900000 4.250000
v 10.600000 2.900000 4.150001
v 10.600000 2.800000 4.250000
v 10.600000 2.899999 4.250000
v 10.699999 2.800000 4.250000
v 10.699999 2.800000 4.350000
v 10.600000 2.800000 4.350000
v 10.699999 2.600000 3.950000
v 10.699999 2.700000 3.950000
v 10.600000 2.600000 3.950000
v 10.600000 2.700000 3.950000
v 10.699999 2.600000 4.050001
v 10.600000 2.600000 4.050001
v 10.699999 2.500000 4.050001
v 10.600000 2.500000 4.050001
v 10.699999 2.500000 4.350000
v 10.500000 -0.000001 4.750000
v 10.699999 -0.000000 2.250000
v 10.500000 4.599999 2.250000
v 10.699999 -0.000001 4.750000
v 10.500000 4.599999 4.750000
v 10.699999 4.599999 4.750000
v 10.500000 -0.000000 2.250000
v 10.699999 4.599999 2.250000
v 10.699999 0.399999 2.650000
v 10.699999 0.400000 4.350000
v 10.699999 4.200000 2.650000
v 10.699999 4.199999 4.350000
v 10.699999 2.500000 2.650000
v 10.699999 2.099999 2.650000
v 10.699999 2.500000 4.350000
v 10.699999 2.100000 4.350000
v 10.600000 0.400000 4.350000
v 10.600000 4.199999 4.350000
v 10.600000 2.099999 2.650000
v 10.600000 0.399999 2.650000
v 10.600000 2.100000 4.350000
v 10.600000 4.200000 2.650000
v 10.600000 2.500000 2.650000
v 10.600000 2.500000 4.350000
v 10.600000 1.400000 -3.950000
v 10.699999 1.400000 -3.950000
v 10.699999 1.400000 -3.850000
v 10.699999 0.400000 -2.650000
v 10.600000 0.399999 -2.950000
v 10.600000 0.499999 -2.950000
v 10.699999 0.399999 -2.950000
v 10.699999 0.499999 -2.950000
v 10.600000 0.499999 -3.050000
v 10.600000 0.599999 -3.050000
v 10.699999 0.499999 -3.050000
v 10.699999 0.599999 -3.050000
v 10.600000 0.700000 -2.650000
v 10.699999 0.700000 -2.650000
v 10.699999 0.699999 -2.750000
v 10.699999 0.799999 -2.850000
v 10.600000 0.699999 -2.750000
v 10.600000 0.800000 -2.750000
v 10.699999 0.800000 -2.750000
v 10.699999 0.899999 -2.950000
v 10.600000 0.799999 -2.850000
v 10.600000 0.899999 -2.850000
v 10.699999 0.899999 -2.850000
v 10.600000 0.600000 -3.150000
v 10.699999 0.600000 -3.150000
v 10.699999 0.700000 -3.150000
v 10.600000 0.699999 -3.250000
v 10.600000 0.800000 -3.250000
v 10.600000 0.700000 -3.150000
v 10.699999 0.699999 -3.250000
v 10.600000 0.899999 -2.950000
v 10.600000 1.000000 -2.950001
v 10.699999 1.000000 -2.950001
v 10.600000 1.399999 -3.450000
v 10.600000 1.400000 -3.349999
v 10.699999 1.399999 -3.450000
v 10.699999 1.400000 -3.349999
v 10.600000 1.100000 -3.650000
v 10.600000 1.200000 -3.650000
v 10.600000 1.099999 -3.550000
v 10.699999 1.100000 -3.650000
v 10.699999 1.200000 -3.650000
v 10.699999 1.099999 -3.550000
v 10.600000 0.999999 -3.550000
v 10.699999 0.999999 -3.550000
v 10.600000 1.299999 -3.350000
v 10.600000 1.299999 -3.250000
v 10.699999 1.200000 -3.250000
v 10.699999 1.299999 -3.250000
v 10.699999 1.299999 -3.350000
v 10.600000 1.200000 -3.250000
v 10.600000 1.200000 -3.150000
v 10.699999 1.200000 -3.150000
v 10.600000 1.100000 -3.150000
v 10.699999 1.100000 -3.150000
v 10.600000 0.999999 -3.050000
v 10.600000 1.099999 -3.050000
v 10.699999 1.099999 -3.050000
v 10.699999 0.999999 -3.450000
v 10.600000 0.899999 -3.450000
v 10.600000 0.999999 -3.450000
v 10.699999 0.899999 -3.450000
v 10.699999 0.899999 -3.350000
v 10.699999 0.999999 -3.050000
v 10.600000 0.899999 -3.350000
v 10.600000 0.799999 -3.350000
v 10.699999 0.799999 -3.350000
v 10.699999 0.800000 -3.250000
v 10.600000 1.199999 -3.750000
v 10.699999 1.199999 -3.750000
v 10.699999 1.300000 -3.750000
v 10.600000 1.300000 -3.850000
v 10.600000 1.300000 -3.750000
v 10.699999 1.300000 -3.850000
v 10.600000 1.400000 -3.850000
v 10.600000 1.500000 -3.450000
v 10.699999 1.500000 -3.550000
v 10.699999 1.500000 -3.450000
v 10.600000 1.500000 -3.550000
v 10.699999 1.600000 -3.650000
v 10.600000 1.600000 -3.650000
v 10.600000 1.600000 -3.549999
v 10.699999 1.600000 -3.549999
v 10.699999 1.699999 -3.750000
v 10.600000 1.700000 -3.649999
v 10.699999 1.700000 -3.649999
v 10.600000 1.500000 -3.950000
v 10.699999 1.500000 -3.950000
v 10.600000 1.500000 -4.050000
v 10.699999 1.500000 -4.050000
v 10.699999 1.600000 -4.049999
v 10.600000 1.699999 -3.750000
v 10.600000 1.800000 -3.750000
v 10.699999 1.800000 -3.750000
v 10.600000 1.799999 -4.349999
v 10.600000 1.799999 -4.250000
v 10.699999 1.799999 -4.349999
v 10.600000 2.000000 -4.050000
v 10.600000 2.100000 -4.049999
v 10.699999 2.100000 -4.049999
v 10.600000 2.000000 -3.950000
v 10.699999 2.000000 -4.050000
v 10.699999 2.000000 -3.950000
v 10.600000 1.900000 -3.949999
v 10.699999 1.900000 -3.949999
v 10.600000 1.899999 -3.850000
v 10.699999 1.799999 -3.850000
v 10.699999 1.899999 -3.850000
v 10.699999 1.799999 -4.250000
v 10.600000 1.699999 -4.250000
v 10.699999 1.699999 -4.250000
v 10.699999 1.699999 -4.150000
v 10.600000 1.799999 -3.850000
v 10.600000 1.600000 -4.150000
v 10.600000 1.699999 -4.150000
v 10.600000 1.600000 -4.049999
v 10.699999 1.600000 -4.150000
v 10.699999 2.099999 -4.349999
v 10.699999 3.700000 -2.950000
v 10.699999 3.700000 -2.850000
v 10.699999 3.799999 -2.850000
v 10.599998 3.700000 -2.850000
v 10.599998 3.700000 -2.950000
v 10.599998 3.800000 -2.850000
v 10.599998 3.899999 -3.150000
v 10.699999 3.800000 -2.750000
v 10.699999 3.900000 -2.750000
v 10.599998 3.800000 -2.750000
v 10.699999 3.899999 -3.150000
v 10.699999 4.000000 -3.150000
v 10.599998 4.000000 -3.150000
v 10.599998 4.000000 -3.049999
v 10.699999 4.100000 -2.949999
v 10.699999 4.000000 -3.049999
v 10.699999 4.099999 -3.050000
v 10.599998 4.099999 -3.050000
v 10.699999 4.200000 -2.950000
v 10.599998 4.100000 -2.950000
v 10.599998 4.200000 -2.950000
v 10.699999 3.899999 -2.650000
v 10.599998 3.899999 -2.650000
v 10.599998 3.900000 -2.750000
v 10.699999 4.199999 -2.650000
v 10.699999 3.899999 -3.250000
v 10.600000 3.799999 -3.250000
v 10.600000 3.899999 -3.250000
v 10.699999 3.600000 -2.950000
v 10.699999 3.600000 -3.050000
v 10.599998 3.600000 -2.950000
v 10.699999 3.500000 -3.049999
v 10.699999 3.500000 -3.150000
v 10.599998 3.500000 -3.049999
v 10.599998 3.500000 -3.150000
v 10.599998 3.600000 -3.050000
v 10.699999 3.799999 -3.350000
v 10.600000 3.799999 -3.350000
v 10.699999 3.799999 -3.250000
v 10.699999 3.699999 -3.450000
v 10.600000 3.699999 -3.350000
v 10.600000 3.699999 -3.450000
v 10.699999 3.699999 -3.350000
v 10.600000 3.599999 -3.450000
v 10.699999 3.599999 -3.450000
v 10.699999 3.600000 -3.550000
v 10.600000 3.600000 -3.550000
v 10.699999 3.399999 -3.150000
v 10.599998 3.399999 -3.150000
v 10.699999 3.500000 -3.549999
v 10.600000 3.500000 -3.549999
v 10.600000 3.399999 -3.250000
v 10.699999 3.299999 -3.250000
v 10.699999 3.399999 -3.250000
v 10.699999 3.299999 -3.350000
v 10.600000 3.299999 -3.250000
v 10.600000 3.299999 -3.350000
v 10.699999 2.899999 -3.750000
v 10.600000 2.899999 -3.750000
v 10.699999 2.900000 -3.650000
v 10.600000 2.900000 -3.650000
v 10.699999 3.000000 -3.650000
v 10.600000 3.000000 -3.650000
v 10.699999 3.000000 -3.550000
v 10.600000 3.000000 -3.550000
v 10.699999 3.100000 -3.550000
v 10.600000 3.100000 -3.550000
v 10.699999 3.099999 -3.950000
v 10.699999 3.199999 -3.950000
v 10.600000 3.099999 -3.950000
v 10.600000 3.199999 -3.950000
v 10.699999 3.299999 -3.750000
v 10.699999 3.199999 -3.850000
v 10.699999 3.299999 -3.850000
v 10.600000 3.299999 -3.750000
v 10.600000 3.199999 -3.850000
v 10.600000 3.299999 -3.850000
v 10.699999 3.400000 -3.650000
v 10.699999 3.399999 -3.750000
v 10.600000 3.400000 -3.650000
v 10.600000 3.399999 -3.750000
v 10.699999 3.199999 -3.450000
v 10.699999 3.099999 -3.450000
v 10.600000 3.099999 -3.450000
v 10.699999 3.200000 -3.349999
v 10.600000 3.200000 -3.349999
v 10.600000 3.199999 -3.450000
v 10.699999 3.500000 -3.650000
v 10.600000 3.500000 -3.650000
v 10.699999 3.000000 -4.050000
v 10.699999 3.100000 -4.050000
v 10.600000 3.100000 -4.050000
v 10.699999 2.800000 -3.750000
v 10.600000 2.800000 -3.750000
v 10.699999 2.699999 -3.849999
v 10.699999 2.799999 -3.850000
v 10.600000 2.699999 -3.849999
v 10.600000 2.799999 -3.850000
v 10.699999 3.000000 -4.150000
v 10.600000 3.000000 -4.050000
v 10.600000 3.000000 -4.150000
v 10.699999 2.900000 -4.150000
v 10.699999 2.899999 -4.250000
v 10.600000 2.900000 -4.150000
v 10.600000 2.800000 -4.250000
v 10.600000 2.899999 -4.250000
v 10.699999 2.800000 -4.250000
v 10.699999 2.800000 -4.350000
v 10.600000 2.800000 -4.350000
v 10.699999 2.599999 -3.950000
v 10.699999 2.699999 -3.950000
v 10.600000 2.599999 -3.950000
v 10.600000 2.699999 -3.950000
v 10.699999 2.600000 -4.049999
v 10.600000 2.600000 -4.049999
v 10.699999 2.500000 -4.049999
v 10.600000 2.500000 -4.049999
v 10.699999 2.500000 -4.350000
v 10.500000 -0.000001 -4.750000
v 10.699999 -0.000000 -2.250000
v 10.500000 4.600000 -2.249999
v 10.699999 -0.000001 -4.750000
v 10.500000 4.599999 -4.750000
v 10.699999 4.599999 -4.750000
v 10.500000 -0.000000 -2.250000
v 10.699999 4.600000 -2.249999
v 10.699999 0.400000 -2.650000
v 10.699999 0.399999 -4.350000
v 10.699999 4.199999 -2.650000
v 10.699999 4.199999 -4.349999
v 10.699999 2.500000 -2.650000
v 10.699999 2.100000 -2.650000
v 10.699999 2.500000 -4.350000
v 10.699999 2.099999 -4.349999
v 10.600000 0.399999 -4.350000
v 10.600000 4.199999 -4.349999
v 10.600000 2.100000 -2.650000
v 10.600000 0.400000 -2.650000
v 10.600000 2.099999 -4.349999
v 10.600000 4.199999 -2.650000
v 10.600000 2.500000 -2.650000
v 10.600000 2.500000 -4.350000
v 10.200002 10.200001 0.050001
v 10.200002 10.200001 -0.049999
v 10.100001 10.200001 -0.049999
v 10.100001 10.200001 0.050001
v 10.000002 10.200001 0.850000
v 10.200002 8.500000 -0.049999
v 10.100001 8.500000 -0.049999
v 10.200002 8.500000 0.050001
v 10.000002 8.500001 -0.850000
v 10.100001 9.400001 0.050000
v 10.200002 9.300000 0.050001
v 10.200002 9.400001 0.050000
v 10.100001 9.300000 0.050001
v 10.000002 8.500001 0.850000
v 10.000001 10.500000 1.150000
v 10.000002 8.200001 -1.150000
v 10.000001 8.200001 1.149999
v 10.000002 10.500000 -1.150001
v 10.000002 10.200001 -0.850000
v 10.100002 9.300001 -0.849999
v 10.100002 9.400002 -0.849999
v 10.200003 9.300001 -0.849999
v 10.200003 9.400002 -0.849999
v 10.100001 9.400001 -0.049999
v 10.300001 8.500001 0.850000
v 10.200002 9.400001 -0.049999
v 10.200002 9.300000 -0.049999
v 10.100001 9.300000 -0.049999
v 10.300001 10.200001 -0.850000
v 10.200002 9.300001 0.850000
v 10.200002 9.400001 0.850000
v 10.300001 10.500000 1.150000
v 10.300001 10.200001 0.850000
v 10.300001 10.500000 -1.150001
v 10.100001 9.400001 0.850000
v 10.100001 9.300001 0.850000
v 10.300001 8.200001 1.149999
v 10.100001 8.500000 0.050001
v 10.300001 8.200001 -1.150000
v 10.300001 8.500001 -0.850000
v 10.150001 9.300000 0.850000
v 10.150001 8.500000 0.850000
v 10.150001 9.300000 0.050000
v 10.150001 8.500000 0.050000
v 10.150001 10.200000 0.849999
v 10.150001 9.400000 0.850000
v 10.150001 10.200000 0.050000
v 10.150001 9.400000 0.050000
v 10.150001 10.200000 -0.050000
v 10.150001 9.400000 -0.050000
v 10.150001 10.200001 -0.849999
v 10.150001 9.400001 -0.850000
v 10.150001 9.300000 -0.050000
v 10.150001 8.500000 -0.050000
v 10.150001 9.300001 -0.850000
v 10.150001 8.500000 -0.850000
v 10.100000 6.800000 2.250000
v 10.200001 6.800000 2.250000
v 10.100000 6.800000 -2.250000
v 10.200001 6.800000 -2.250000
v 10.100000 11.500000 2.250000
v 10.200001 11.500000 2.250000
v 10.100000 11.500000 -2.250000
v 10.200001 11.500000 -2.250000
v 10.200001 8.200001 1.150000
v 10.200001 10.500000 1.150000
v 10.200001 8.200000 -1.150000
v 10.200001 10.500000 -1.150001
v 10.100000 8.200001 1.150000
v 10.100000 10.500000 1.150000
v 10.100000 10.500000 -1.150001
v 10.100000 8.200000 -1.150000
v -10.200000 10.200001 0.050001
v -10.200000 10.200001 -0.049999
v -10.100001 10.200001 -0.049999
v -10.100001 10.200001 0.050001
v -10.000003 10.200001 0.850000
v -10.200000 8.500000 -0.049999
v -10.100001 8.500000 -0.049999
v -10.200000 8.500000 0.050001
v -10.000003 8.500001 -0.850000
v -10.100001 9.400001 0.050000
v -10.200000 9.300000 0.050001
v -10.200000 9.400001 0.050000
v -10.100001 9.300000 0.050001
v -10.000003 8.500001 0.850000
v -9.999999 10.500000 1.150000
v -10.000003 8.200001 -1.150000
v -9.999999 8.200001 1.149999
v -10.000003 10.500000 -1.150001
v -10.000003 10.200001 -0.850000
v -10.100001 9.300001 -0.849999
v -10.100001 9.400002 -0.849999
v -10.200004 9.300001 -0.849999
v -10.200004 9.400002 -0.849999
v -10.100001 9.400001 -0.049999
v -10.300002 8.500001 0.850000
v -10.200000 9.400001 -0.049999
v -10.200000 9.300000 -0.049999
v -10.100001 9.300000 -0.049999
v -10.300002 10.200001 -0.850000
v -10.200000 9.300001 0.850000
v -10.200000 9.400001 0.850000
v -10.300002 10.500000 1.150000
v -10.300002 10.200001 0.850000
v -10.300002 10.500000 -1.150001
v -10.100001 9.400001 0.850000
v -10.100001 9.300001 0.850000
v -10.300002 8.200001 1.149999
v -10.100001 8.500000 0.050001
v -10.300002 8.200001 -1.150000
v -10.300002 8.500001 -0.850000
v -10.150001 9.300000 0.850000
v -10.150001 8.500000 0.850000
v -10.150001 9.300000 0.050000
v -10.150001 8.500000 0.050000
v -10.150001 10.200000 0.849999
v -10.150001 9.400000 0.850000
v -10.150001 10.200000 0.050000
v -10.150001 9.400000 0.050000
v -10.150001 10.200000 -0.050000
v -10.150001 9.400000 -0.050000
v -10.150001 10.200001 -0.849999
v -10.150001 9.400001 -0.850000
v -10.150001 9.300000 -0.050000
v -10.150001 8.500000 -0.050000
v -10.150001 9.300001 -0.850000
v -10.150001 8.500000 -0.850000
v -10.099998 6.800000 2.250000
v -10.200000 6.800000 2.250000
v -10.099998 6.800000 -2.250000
v -10.200000 6.800000 -2.250000
v -10.099998 11.499999 2.250000
v -10.200000 11.499999 2.250000
v -10.099998 11.500000 -2.250000
v -10.200000 11.500000 -2.250000
v -10.200000 8.200001 1.150000
v -10.200000 10.500000 1.150000
v -10.200000 8.200000 -1.150000
v -10.200000 10.500000 -1.150001
v -10.099998 8.200001 1.150000
v -10.099998 10.500000 1.150000
v -10.099998 10.500000 -1.150001
v -10.099998 8.200000 -1.150000
v -10.100001 -0.000000 -6.949999
v 10.100000 -0.000000 -6.949999
v -10.100001 -0.000001 6.950000
v 10.100000 -0.000001 6.950000
v 10.100000 -0.000000 2.250000
v 10.100000 -0.000000 -2.250000
v 10.500000 -0.000000 2.250000
v 10.500000 -0.000000 -2.250000
v 10.100000 -0.000000 -2.250000
v 10.100000 -0.000000 2.250000
v -5.400001 -0.000000 12.550001
v -5.000000 -0.000000 12.550001
v -5.400001 -0.000000 12.950001
v -5.000000 -0.000000 12.950001
v -5.400001 5.000000 12.550001
v -5.000000 5.000000 12.550001
v -5.400001 4.999999 12.950001
v -5.000000 4.999999 12.950001
v 10.099999 -0.000000 12.550001
v 10.500000 -0.000000 12.550001
v 10.099999 -0.000000 12.950001
v 10.500000 -0.000000 12.950001
v 10.100000 4.999999 12.549999
v 10.500000 5.000000 12.550001
v 10.100000 4.999999 12.950001
v 10.500000 4.999999 12.950001
v 5.000000 -0.000000 12.550001
v 5.400001 -0.000000 12.550001
v 5.000000 -0.000000 12.950001
v 5.400001 -0.000000 12.950001
v 5.000000 5.000000 12.550001
v 5.400001 5.000000 12.550001
v 5.000000 4.999999 12.950001
v 5.400001 4.999999 12.950001
v -0.200001 -0.000000 12.550001
v 0.199999 -0.000000 12.550001
v -0.200001 -0.000000 12.950001
v 0.199999 -0.000000 12.950001
v -0.200001 5.000000 12.550001
v 0.199999 5.000000 12.550001
v -0.200001 4.999999 12.950001
v 0.199999 4.999999 12.950001
v 10.500000 4.999999 12.950001
v 10.100000 4.999999 12.549999
v 10.500000 5.400000 12.950001
v 10.099999 5.400000 12.550001
v -5.400001 5.400000 12.950001
v -5.400001 4.999999 12.950001
v 10.500000 5.000000 7.350000
v 10.099999 5.400000 7.350000
v 10.099999 5.000000 7.350000
v 10.500000 5.400000 7.350000
v -5.000000 4.999999 12.549999
v -5.000000 5.400000 12.550001
v -4.998695 5.400000 7.350000
v -5.400001 5.400000 7.350000
v -5.400001 5.000000 7.350000
v -4.992838 5.000000 7.350000
v 10.500000 5.400000 12.550001
v -5.400001 5.400000 12.550001
v -5.000000 4.999999 12.950001
v 10.100000 4.999999 12.950001
v 10.099999 6.800000 2.650000
v 10.200000 6.800000 2.650000
v 10.099999 6.800000 7.350000
v 10.200000 6.800000 7.350000
v 10.099999 11.499999 2.649999
v 10.200000 11.499999 2.649999
v 10.099999 11.499999 2.668466
v 10.200000 11.499999 2.668466
v 10.099999 6.802096 7.350000
v 10.200000 6.802096 7.350000
v 10.099999 6.800000 -2.650000
v 10.200000 6.800000 -2.650000
v 10.099999 6.800000 -7.350000
v 10.200000 6.800000 -7.350000
v 10.099999 11.500000 -2.650000
v 10.200000 11.500000 -2.650000
v 10.099999 11.500000 -2.668467
v 10.200000 11.500000 -2.668467
v 10.099999 6.802096 -7.349999
v 10.200000 6.802096 -7.349999
v -10.100001 6.800000 -2.650000
v -10.200000 6.800000 -2.650000
v -10.100001 6.800000 -7.350000
v -10.200000 6.800000 -7.350000
v -10.100001 11.500000 -2.650000
v -10.200000 11.500000 -2.650000
v -10.100001 11.500000 -2.668467
v -10.200000 11.500000 -2.668467
v -10.100001 6.802096 -7.349999
v -10.200000 6.802096 -7.349999
v -10.100001 6.800000 2.650000
v -10.200000 6.800000 2.650000
v -10.100001 6.800000 7.350000
v -10.200000 6.800000 7.350000
v -10.100001 11.499999 2.649999
v -10.200000 11.499999 2.649999
v -10.100001 11.499999 2.668466
v -10.200000 11.499999 2.668466
v -10.100001 6.802096 7.350000
v -10.200000 6.802096 7.350000
v -5.400000 5.325886 13.549999
v 10.500001 5.623701 13.586145
v 10.100000 5.374082 13.152914
v 10.100000 5.671895 13.189060
v 10.500001 5.325886 13.549999
v -5.400000 5.623701 13.586145
v -5.000000 5.374082 13.152914
v -5.000000 5.671895 13.189060
v -5.000001 5.374082 13.152914
v 10.100000 5.374082 13.152914
v 10.100000 6.126940 6.949999
v 10.100000 6.429141 6.949998
v 10.100000 6.126939 6.949998
v 10.500001 6.078391 7.349998
v 10.500001 6.380592 7.349998
v 10.100001 6.078391 7.349998
v 10.100001 6.126940 6.949999
v 10.100001 6.429141 6.949998
v 10.100001 6.380592 7.349998
v -4.999001 6.126939 6.949998
v -4.998999 6.078391 7.349998
v -5.000001 6.078391 7.349998
v -5.400000 6.380593 7.349998
v -5.000000 6.380592 7.350000
v -5.400000 6.078391 7.349998
v -5.000000 6.078391 7.349998
v 10.200000 4.099999 12.549999
v 10.400001 4.099999 12.549999
v 10.200000 4.100000 12.549999
v 10.200000 4.382841 12.549999
v 10.200000 5.000000 11.932842
v 10.200000 5.000000 11.650000
v 10.400001 5.000000 11.932842
v 10.400001 4.382841 12.549999
v 10.400001 4.100000 12.549999
v 10.400001 5.000000 11.650000
v 10.200000 4.099999 7.349999
v 10.400001 4.099999 7.349999
v 10.200000 4.100000 7.349999
v 10.200000 4.382842 7.349998
v 10.200000 5.000000 7.967157
v 10.200000 5.000000 8.250000
v 10.400001 5.000000 7.967157
v 10.400001 4.382842 7.349998
v 10.400001 4.100000 7.349998
v 10.400001 5.000000 8.250000
v 5.400000 4.099999 12.850000
v 5.400000 4.099999 12.650000
v 5.400000 4.100000 12.850000
v 5.400000 4.382842 12.849998
v 6.017158 5.000000 12.850000
v 6.300000 5.000000 12.850000
v 6.017158 5.000000 12.650000
v 5.399999 4.382842 12.650000
v 5.399999 4.100000 12.650000
v 6.300000 5.000000 12.650000
v 10.100000 4.099999 12.850000
v 10.100000 4.099999 12.650000
v 10.100000 4.100000 12.850000
v 10.100000 4.382842 12.849998
v 9.482842 5.000000 12.850000
v 9.200000 5.000000 12.850000
v 9.482842 5.000000 12.650000
v 10.100000 4.382842 12.650000
v 10.100000 4.100000 12.650000
v 9.200000 5.000000 12.650000
v 5.000000 4.099999 12.850000
v 5.000000 4.099999 12.650000
v 5.000000 4.100000 12.850000
v 5.000000 4.382842 12.849998
v 4.382842 5.000000 12.850000
v 4.099999 5.000000 12.850000
v 4.382842 5.000000 12.650000
v 5.000000 4.382842 12.650000
v 5.000000 4.100000 12.650000
v 4.099999 5.000000 12.650000
v 0.199999 4.099999 12.850000
v 0.199999 4.099999 12.650000
v 0.199999 4.100000 12.850000
v 0.199999 4.382842 12.849998
v 0.817157 5.000000 12.850000
v 1.099999 5.000000 12.850000
v 0.817157 5.000000 12.650000
v 0.199999 4.382842 12.650000
v 0.199999 4.100000 12.650000
v 1.099999 5.000000 12.650000
v -5.000002 4.099999 12.850000
v -5.000002 4.099999 12.650000
v -5.000002 4.100000 12.850000
v -5.000002 4.382842 12.849998
v -4.382844 5.000000 12.850000
v -4.100001 5.000000 12.850000
v -4.382844 5.000000 12.650000
v -5.000002 4.382842 12.650000
v -5.000002 4.100000 12.650000
v -4.100001 5.000000 12.650000
v -0.200001 4.099999 12.850000
v -0.200001 4.099999 12.650000
v -0.200001 4.100000 12.850000
v -0.200001 4.382842 12.849998
v -0.817159 5.000000 12.850000
v -1.100001 5.000000 12.850000
v -0.817159 5.000000 12.650000
v -0.200001 4.382842 12.650000
v -0.200001 4.100000 12.650000
v -1.100001 5.000000 12.650000
v -5.299999 4.099999 7.349999
v -5.100000 4.099999 7.349999
v -5.299999 4.100000 7.349999
v -5.299999 4.382842 7.349998
v -5.299999 5.000000 7.967157
v -5.299999 5.000000 8.250000
v -5.100000 5.000000 7.967157
v -5.100000 4.382842 7.349998
v -5.100000 4.100000 7.349998
v -5.100000 5.000000 8.250000
v -5.299999 4.099999 12.549999
v -5.100000 4.099999 12.549999
v -5.299999 4.100000 12.549999
v -5.299999 4.382841 12.549999
v -5.299999 5.000000 11.932842
v -5.299999 5.000000 11.650000
v -5.100000 5.000000 11.932842
v -5.100000 4.382841 12.549999
v -5.100000 4.100000 12.549999
v -5.100000 5.000000 11.650000
v -10.100001 6.399999 -2.250000
v -10.100001 6.799999 -2.250000
v -10.100001 6.399999 -2.650000
v -10.100001 6.799999 -2.650000
v 10.100000 6.399999 -2.250000
v 10.100000 6.799999 -2.250000
v 10.100000 6.399999 -2.650000
v 10.100000 6.799999 -2.650000
v -10.100001 6.400000 2.650000
v -10.100001 6.799999 2.650000
v -10.100001 6.400000 2.250000
v -10.100001 6.799999 2.250000
v 10.100000 6.400000 2.650000
v 10.100000 6.799999 2.650000
v 10.100000 6.400000 2.250000
v 10.100000 6.799999 2.250000
v -10.100001 11.099998 2.650000
v -10.100001 11.499998 2.650001
v -10.100001 11.099998 2.250000
v -10.100001 11.499998 2.250000
v 10.100000 11.099998 2.650000
v 10.100000 11.499998 2.650001
v 10.100000 11.099998 2.250000
v 10.100000 11.499998 2.250000
v -10.100001 11.099998 -2.249999
v -10.100001 11.499998 -2.249999
v -10.100001 11.099998 -2.649999
v -10.100001 11.499998 -2.649999
v 10.100000 11.099998 -2.249999
v 10.100000 11.499998 -2.249999
v 10.100000 11.099998 -2.649999
v 10.100000 11.499998 -2.649999
v 10.200001 0.300000 6.350000
v 10.200001 0.600000 6.350000
v 10.200001 0.300000 6.250000
v 10.200001 0.600000 6.250000
v 10.500001 0.300000 6.350000
v 10.500001 0.600000 6.350000
v 10.500001 0.300000 6.250000
v 10.500001 0.600000 6.250000
v 10.200001 0.900000 6.350000
v 10.200001 1.200001 6.350000
v 10.200001 0.900000 6.250000
v 10.200001 1.200000 6.250000
v 10.500001 0.900000 6.350000
v 10.500001 1.200001 6.350000
v 10.500001 0.900000 6.250000
v 10.500001 1.200000 6.250000
v 10.200001 1.500000 6.350000
v 10.200001 1.800000 6.350000
v 10.200001 1.500000 6.250000
v 10.200001 1.800000 6.250000
v 10.500001 1.500000 6.350000
v 10.500001 1.800000 6.350000
v 10.500001 1.500000 6.250000
v 10.500001 1.800000 6.250000
v 10.500000 -0.100000 2.250000
v 10.500000 -0.100000 -2.250000
vn -0.0000 1.0000 -0.0000
vn -0.0000 -0.7059 -0.7083
vn -0.0000 0.7083 -0.7059
vn -1.0000 -0.0000 -0.0000
vn -0.0000 -0.7083 0.7059
vn -0.0000 0.7059 0.7083
vn 1.0000 -0.0000 -0.0000
vn -0.0000 0.7059 -0.7083
vn -0.0000 -0.7083 -0.7059
vn -0.0000 0.7083 0.7059
vn -0.0000 -0.7059 0.7083
vn -0.0000 -1.0000 -0.0000
vn -0.0000 -0.0000 -1.0000
vn -0.0000 -0.0000 1.0000
vn -0.8742 -0.0000 -0.4856
vn -0.1333 -0.0000 -0.9911
vn -0.9911 -0.0000 0.1333
vn 0.9911 -0.0000 -0.1333
vn 0.1333 -0.0000 0.9911
vn -0.4104 -0.0000 -0.9119
vn 0.4104 -0.0000 -0.9119
vn 1.0000 0.0073 0.0008
vn -0.0000 0.1205 -0.9927
vn -0.0000 -0.1205 0.9927
vn -0.0000 -0.9927 -0.1205
vn -0.0000 0.9927 0.1205
vn -0.0000 -0.7071 -0.7071
vn -0.0000 0.7071 0.7071
vn -0.0000 0.7071 -0.7071
vn -0.0000 -0.7071 0.7071
vn -0.7071 0.7071 -0.0000
vn 0.7071 -0.7071 -0.0000
vn -0.7071 -0.7071 -0.0000
vn 0.7071 0.7071 -0.0000
vt 0.117647 0.165266
vt 0.117647 0.156863
vt 0.176471 0.156863
vt 0.176471 0.165266
vt 0.000000 0.173669
vt 0.000000 0.165266
vt 0.176471 0.173669
vt 0.142857 0.156863
vt 0.142857 0.165266
vt 0.151261 0.165266
vt 0.151261 0.156863
vt 0.058824 0.165266
vt 0.058824 0.173669
vt 0.364146 0.190476
vt 0.355742 0.190476
vt 0.355742 0.014006
vt 0.364146 0.014006
vt 0.355742 0.131653
vt 0.364146 0.131653
vt 0.372549 0.072829
vt 0.364146 0.072829
vt 0.372549 0.014006
vt 0.372549 0.190476
vt 0.100840 0.165266
vt 0.100840 0.170868
vt 0.000000 0.170868
vt 0.963585 0.019608
vt 0.963585 0.218724
vt 0.974790 0.218724
vt 0.974790 0.008403
vt 0.386555 0.008403
vt 0.386555 0.218724
vt 0.397759 0.218724
vt 0.397759 0.019608
vt 0.963585 0.008403
vt 0.397759 0.008403
vt 0.397759 0.016807
vt 0.963585 0.016807
vt 0.988796 0.619048
vt 0.988796 0.400294
vt 0.980392 0.408727
vt 0.980392 0.619048
vt 0.974790 0.016807
vt 0.386555 0.016807
vt 0.397759 0.227157
vt 0.386555 0.227157
vt 0.974790 0.227157
vt 0.963585 0.227157
vt 0.574230 0.016807
vt 0.779083 0.016807
vt 0.770760 0.008403
vt 0.574230 0.008403
vt 0.366947 0.408964
vt 0.932773 0.408964
vt 0.932773 0.584513
vt 0.366947 0.584513
vt -0.000000 0.549020
vt 0.120448 0.549020
vt 0.120448 0.369748
vt -0.000000 0.369748
vt 0.011204 0.677871
vt 0.131653 0.677871
vt 0.131653 0.857143
vt 0.011204 0.857143
vt 0.120448 0.504202
vt 0.246499 0.549020
vt 0.246499 0.504202
vt 0.268908 0.812325
vt 0.268908 0.857143
vt 0.142857 0.857143
vt 0.142857 0.812325
vt 0.977591 0.820728
vt 0.845938 0.820728
vt 0.845938 1.000000
vt 0.977591 1.000000
vt 0.857143 0.809524
vt 0.857143 0.630252
vt 0.988796 0.630252
vt 0.988796 0.809524
vt 0.711485 0.809524
vt 0.711485 0.630252
vt 0.845938 0.630252
vt 0.845938 0.809524
vt 0.809524 0.770308
vt 0.809524 0.705882
vt 0.745098 0.705882
vt 0.745098 0.770308
vt 0.689076 1.000000
vt 0.554622 1.000000
vt 0.591036 0.960784
vt 0.655462 0.960784
vt 0.554622 0.820728
vt 0.689076 0.820728
vt 0.655462 0.896359
vt 0.591036 0.896359
vt 0.159664 0.759104
vt 0.224090 0.759104
vt 0.224090 0.750700
vt 0.159664 0.750700
vt 0.599440 0.927171
vt 0.599440 0.929972
vt 0.621849 0.929972
vt 0.621849 0.927171
vt 0.215686 0.750700
vt 0.193277 0.753501
vt 0.193277 0.756303
vt 0.190476 0.756303
vt 0.168067 0.759104
vt 0.215686 0.759104
vt 0.151261 0.767507
vt 0.142857 0.767507
vt 0.142857 0.703081
vt 0.151261 0.703081
vt 0.521739 0.478261
vt 0.753501 0.739496
vt 0.753501 0.736695
vt 0.775910 0.736695
vt 0.775910 0.714286
vt 0.778711 0.714286
vt 0.778711 0.761905
vt 0.775910 0.761905
vt 0.775910 0.739496
vt 0.478261 0.521739
vt 0.778711 0.736695
vt 0.151261 0.711485
vt 0.159664 0.711485
vt 0.156863 0.736695
vt 0.156863 0.733894
vt 0.154062 0.733894
vt 0.778711 0.739496
vt 0.224090 0.767507
vt 0.159664 0.767507
vt 0.159664 0.708683
vt 0.156863 0.731092
vt 0.151261 0.756303
vt 0.159664 0.756303
vt 0.801120 0.736695
vt 0.801120 0.739496
vt 0.624650 0.929972
vt 0.647059 0.929972
vt 0.647059 0.927171
vt 0.624650 0.927171
vt 0.624650 0.904762
vt 0.621849 0.904762
vt 0.621849 0.952381
vt 0.624650 0.952381
vt 0.215686 0.767507
vt 0.193277 0.764706
vt 0.193277 0.761905
vt 0.190476 0.761905
vt 0.801120 0.761905
vt 0.801120 0.714286
vt 0.753501 0.761905
vt 0.753501 0.714286
vt 0.159664 0.703081
vt 0.599440 0.904762
vt 0.647059 0.904762
vt 0.647059 0.952381
vt 0.599440 0.952381
vt 0.168067 0.750700
vt 0.190476 0.753501
vt 0.168067 0.767507
vt 0.190476 0.764706
vt 0.151261 0.759104
vt 0.154062 0.736695
vt 0.154062 0.731092
vt 0.151261 0.708683
vt 0.700280 0.630252
vt 0.700280 0.809524
vt 0.565826 0.809524
vt 0.565826 0.630252
vt 0.700280 0.820728
vt 0.700280 1.000000
vt 0.834734 1.000000
vt 0.834734 0.820728
vt 0.212885 0.638655
vt 0.212885 0.750700
vt 0.266106 0.750700
vt 0.266106 0.638655
vt 0.347339 0.672269
vt 0.347339 0.669468
vt 0.361345 0.669468
vt 0.361345 0.672269
vt 0.380952 0.672269
vt 0.380952 0.677871
vt 0.268908 0.677871
vt 0.268908 0.672269
vt 0.288515 0.672269
vt 0.288515 0.669468
vt 0.302521 0.669468
vt 0.302521 0.672269
vt 0.212885 0.633053
vt 0.266106 0.633053
vt 0.212885 0.635854
vt 0.159664 0.635854
vt 0.159664 0.638655
vt 0.159664 0.672269
vt 0.159664 0.669468
vt 0.212885 0.669468
vt 0.212885 0.672269
vt 0.159664 0.717087
vt 0.212885 0.717087
vt 0.212885 0.731092
vt 0.159664 0.731092
vt 0.159664 0.658263
vt 0.212885 0.658263
vt 0.036415 0.302521
vt 0.095238 0.302521
vt 0.095238 0.305322
vt 0.036415 0.305322
vt 0.210084 0.464986
vt 0.156863 0.464986
vt 0.156863 0.473389
vt 0.210084 0.473389
vt 0.036415 0.190476
vt 0.000000 0.190476
vt 0.131653 0.369748
vt 0.095238 0.190476
vt 0.131653 0.190476
vt 0.039216 0.302521
vt 0.047619 0.302521
vt 0.047619 0.190476
vt 0.039216 0.190476
vt 0.092437 0.190476
vt 0.092437 0.302521
vt 0.092437 0.305322
vt 0.507003 0.820728
vt 0.507003 0.935574
vt 0.543417 1.000000
vt 0.543417 0.820728
vt 0.448179 0.935574
vt 0.411765 1.000000
vt 0.448179 0.820728
vt 0.411765 0.820728
vt 0.845938 1.000000
vt 0.977591 1.000000
vt 0.977591 0.820728
vt 0.845938 0.820728
vt 0.988796 0.630252
vt 0.988796 0.809524
vt 0.857143 0.809524
vt 0.857143 0.630252
vt 0.257703 0.369748
vt 0.257703 0.190476
vt 0.280112 0.857143
vt 0.400560 0.857143
vt 0.400560 0.677871
vt 0.280112 0.677871
vt 0.383754 0.190476
vt 0.383754 0.369748
vt 0.246499 0.369748
vt 0.366947 0.369748
vt 0.366947 0.549020
vt 0.131653 0.868347
vt 0.142857 0.868347
vt 0.142857 1.000000
vt 0.131653 1.000000
vt 0.988796 0.820728
vt 0.422969 0.809524
vt 0.422969 0.820728
vt 1.000000 0.053221
vt 1.000000 0.619048
vt 0.988796 0.053221
vt 0.705882 0.596639
vt 0.705882 0.607843
vt 0.140056 0.607843
vt 0.140056 0.596639
vt 0.140056 0.619048
vt 0.551821 0.619048
vt 0.551821 0.607843
vt 0.411765 0.857143
vt 0.400560 0.868347
vt 0.411765 0.868347
vt 0.000000 0.868347
vt -0.000000 0.857143
vt 0.551821 0.630252
vt 0.140056 0.630252
vt 0.554622 0.630252
vt 0.554622 0.809524
vt 1.000000 0.630252
vt 1.000000 0.809524
vt 0.000000 0.677871
vt 0.411765 0.677871
vt 0.142857 0.677871
vt 0.142857 0.801120
vt 0.268908 0.801120
vt 0.268908 0.778711
vt 0.142857 0.778711
vt 0.142857 0.789916
vt 0.268908 0.789916
vt 0.268908 0.767507
vt 0.554622 0.630602
vt 0.565826 0.630602
vt 0.565826 0.809874
vt 0.554622 0.809874
vt 0.411765 0.809524
vt 0.411765 0.630252
vt 0.422969 0.630252
vt 0.689088 0.999634
vt 0.689088 0.821052
vt 0.700249 0.821052
vt 0.700249 0.999634
vt 0.411415 0.630602
vt 0.422619 0.630602
vt 0.422619 0.809874
vt 0.411415 0.809874
vt 0.022409 0.635854
vt 0.019608 0.635854
vt 0.019608 0.633053
vt 0.016807 0.633053
vt 0.016807 0.630252
vt 0.014006 0.630252
vt 0.014006 0.627451
vt 0.011204 0.627451
vt 0.011204 0.619048
vt 0.019608 0.619048
vt 0.019608 0.621849
vt 0.022409 0.621849
vt 0.022409 0.624650
vt 0.025210 0.624650
vt 0.025210 0.627451
vt 0.028011 0.627451
vt 0.028011 0.630252
vt 0.030812 0.630252
vt 0.030812 0.633053
vt 0.033613 0.633053
vt 0.033613 0.635854
vt 0.036415 0.635854
vt 0.036415 0.638655
vt 0.039216 0.638655
vt 0.039216 0.641457
vt 0.042017 0.641457
vt 0.042017 0.644258
vt 0.044818 0.644258
vt 0.044818 0.647059
vt 0.047619 0.647059
vt 0.047619 0.649860
vt 0.050420 0.649860
vt 0.050420 0.652661
vt 0.053221 0.652661
vt 0.053221 0.655462
vt 0.056022 0.655462
vt 0.056022 0.658263
vt 0.058824 0.658263
vt 0.058824 0.666667
vt 0.050420 0.666667
vt 0.050420 0.663866
vt 0.047619 0.663866
vt 0.047619 0.661064
vt 0.044818 0.661064
vt 0.044818 0.658263
vt 0.042017 0.658263
vt 0.042017 0.655462
vt 0.039216 0.655462
vt 0.039216 0.652661
vt 0.036415 0.652661
vt 0.036415 0.649860
vt 0.033613 0.649860
vt 0.033613 0.647059
vt 0.030812 0.647059
vt 0.030812 0.644258
vt 0.028011 0.644258
vt 0.028011 0.641457
vt 0.025210 0.641457
vt 0.025210 0.638655
vt 0.022409 0.638655
vt 0.033613 0.638655
vt 0.030812 0.596639
vt 0.030812 0.593838
vt 0.028011 0.593838
vt 0.028011 0.596639
vt 0.047619 0.577031
vt 0.047619 0.579832
vt 0.044818 0.579832
vt 0.044818 0.582633
vt 0.042017 0.582633
vt 0.042017 0.585434
vt 0.039216 0.585434
vt 0.039216 0.588235
vt 0.036415 0.588235
vt 0.036415 0.591036
vt 0.033613 0.591036
vt 0.033613 0.593838
vt 0.028011 0.599440
vt 0.025210 0.599440
vt 0.025210 0.602241
vt 0.022409 0.602241
vt 0.022409 0.605042
vt 0.019608 0.605042
vt 0.019608 0.607843
vt 0.011204 0.607843
vt 0.011204 0.599440
vt 0.014006 0.599440
vt 0.014006 0.596639
vt 0.016807 0.596639
vt 0.016807 0.593838
vt 0.019608 0.593838
vt 0.019608 0.591036
vt 0.022409 0.591036
vt 0.022409 0.588235
vt 0.025210 0.588235
vt 0.025210 0.585434
vt 0.028011 0.585434
vt 0.028011 0.582633
vt 0.030812 0.582633
vt 0.030812 0.579832
vt 0.033613 0.579832
vt 0.033613 0.577031
vt 0.036415 0.577031
vt 0.036415 0.574230
vt 0.039216 0.574230
vt 0.039216 0.571429
vt 0.042017 0.571429
vt 0.042017 0.568627
vt 0.044818 0.568627
vt 0.044818 0.565826
vt 0.047619 0.565826
vt 0.047619 0.563025
vt 0.050420 0.563025
vt 0.050420 0.560224
vt 0.058824 0.560224
vt 0.058824 0.568627
vt 0.056022 0.568627
vt 0.056022 0.571429
vt 0.053221 0.571429
vt 0.053221 0.574230
vt 0.050420 0.574230
vt 0.050420 0.577031
vt 0.067227 0.549020
vt 0.072829 0.549020
vt 0.072829 0.677871
vt 0.067227 0.677871
vt 0.000000 0.551821
vt 0.070028 0.551821
vt 0.070028 0.549020
vt 0.070028 0.677871
vt 0.140056 0.677871
vt 0.140056 0.549020
vt 0.070028 0.675070
vt 0.000000 0.675070
vt 0.011204 0.560224
vt 0.011204 0.557423
vt 0.058824 0.557423
vt 0.011204 0.666667
vt 0.058824 0.607843
vt 0.058824 0.619048
vt 0.011204 0.610644
vt 0.058824 0.610644
vt 0.061625 0.619048
vt 0.061625 0.666667
vt 0.008403 0.560224
vt 0.008403 0.607843
vt 0.011204 0.669468
vt 0.058824 0.669468
vt 0.061625 0.560224
vt 0.061625 0.607843
vt 0.011204 0.616247
vt 0.058824 0.616247
vt 0.008403 0.619048
vt 0.008403 0.666667
vt 0.182073 0.938375
vt 0.182073 0.915966
vt 0.204482 0.915966
vt 0.204482 0.938375
vt 0.182073 0.963585
vt 0.182073 0.941176
vt 0.204482 0.941176
vt 0.204482 0.963585
vt 0.207283 0.963585
vt 0.207283 0.941177
vt 0.229692 0.941177
vt 0.229692 0.963585
vt 0.207283 0.938375
vt 0.207283 0.915966
vt 0.229692 0.915966
vt 0.229692 0.938375
vt 0.268908 0.868347
vt 0.268908 1.000000
vt 0.238095 0.971989
vt 0.238095 0.907563
vt 0.173669 0.907563
vt 0.173669 0.971989
vt 0.215686 0.473389
vt 0.246499 0.501401
vt 0.120448 0.501401
vt 0.151261 0.473389
vt 0.151261 0.408964
vt 0.215686 0.408964
vt 0.963585 0.277311
vt 0.963585 0.151261
vt 0.397759 0.408964
vt 0.963585 0.408964
vt 0.963585 0.282913
vt 0.974790 0.408964
vt 0.974790 0.282913
vt 0.372549 0.050420
vt 0.383754 0.050420
vt 0.422969 0.619048
vt 0.411765 0.619048
vt 0.266106 0.619048
vt 0.266106 0.630252
vt 0.711485 0.619048
vt 0.554622 0.619048
vt 0.686275 0.596639
vt 0.686275 0.607843
vt 0.675070 0.607843
vt 0.252101 0.607843
vt 0.240896 0.607843
vt 0.240896 0.596639
vt 0.566071 0.619048
vt 0.987682 0.619048
vt 0.703081 0.630252
vt 0.703081 0.619048
vt 0.565826 0.619048
vt 0.535014 0.596639
vt 0.535014 0.607843
vt 0.392157 0.607843
vt 0.392157 0.596639
vt 0.834734 0.952381
vt 0.703081 0.820728
vt 0.532213 0.008403
vt 0.532213 0.019608
vt 0.764768 0.019608
vt 0.763420 0.008403
vt 0.749335 0.019608
vt 0.515406 0.019608
vt 0.515406 0.008403
vt 0.747979 0.008403
vt 0.960784 0.019608
vt 0.960784 0.008403
vt 0.400560 0.008403
vt 0.400560 0.019608
vt 0.974790 0.019608
vt 0.386555 0.019608
vt 0.963585 0.207599
vt 0.963585 0.195476
vt 0.974790 0.195696
vt 0.386555 0.195275
vt 0.397759 0.195043
vt 0.748583 0.008403
vt 0.749931 0.019608
vt 0.487395 0.408964
vt 0.910364 0.408964
vt 0.910364 0.583990
vt 0.487423 0.583990
vt 0.487423 0.572703
vt 0.487395 0.572703
vt 0.963585 0.208694
vt 0.397759 0.196136
vt 0.386555 0.196365
vt 0.974790 0.196788
vt 0.963585 0.196572
vt 0.963585 0.208694
vt 0.468060 0.995025
vt 0.468060 1.000000
vt 0.490954 1.000000
vt 0.490954 0.995025
vt 0.749358 0.019608
vt 0.748002 0.008403
vt 0.035652 0.184874
vt 0.000000 0.184874
vt 0.005602 0.190476
vt 0.030050 0.190476
vt 0.035652 0.184874
vt 0.030050 0.190476
vt 0.005602 0.190476
vt 0.000000 0.179272
vt 0.035652 0.179272
vt 0.035652 0.173669
vt 0.005602 0.179272
vt 0.030050 0.179272
vt 0.030050 0.184874
vt 0.005602 0.184874
vt 0.386555 0.621849
vt 0.394477 0.621849
vt 0.394477 0.627451
vt 0.386555 0.627451
vt 0.140056 0.588235
vt 0.148459 0.596639
vt 0.148459 0.588235
vt 0.140056 0.585434
vt 0.148459 0.585434
vt 0.148459 0.582633
vt 0.140056 0.582633
s 0
usemtl Material.001
f 1/1/1 2/2/1 4/3/1 3/4/1
f 5/1/1 6/2/1 8/3/1 7/4/1
f 9/5/1 10/6/1 12/4/1 11/7/1
f 13/1/1 14/2/1 16/3/1 15/4/1
f 17/1/1 18/2/1 20/8/1 19/9/1
f 21/1/1 22/2/1 24/3/1 23/4/1
f 25/10/1 26/11/1 28/3/1 27/4/1
f 29/5/1 30/6/1 32/4/1 31/7/1
f 33/5/1 34/6/1 36/12/1 35/13/1
f 37/14/1 38/15/1 40/16/1 39/17/1
f 41/14/1 42/15/1 44/16/1 43/17/1
f 45/14/1 46/15/1 48/16/1 47/17/1
f 49/18/1 50/19/1 52/14/1 51/15/1
f 53/20/1 54/21/1 56/17/1 55/22/1
f 57/17/1 58/22/1 60/23/1 59/14/1
f 61/17/1 62/22/1 64/23/1 63/14/1
f 65/17/1 66/22/1 68/23/1 67/14/1
f 69/24/1 70/25/1 72/26/1 71/6/1
f 73/27/2 84/28/2 86/29/2 74/30/2 77/31/2 91/32/2 89/33/2 80/34/2
f 73/35/3 80/36/3 79/37/3 75/38/3
f 78/39/4 90/40/4 91/41/4 77/42/4
f 74/30/5 76/43/5 78/44/5 77/31/5
f 79/34/6 92/45/6 90/46/6 78/31/6 76/30/6 85/47/6 83/48/6 75/27/6
f 75/49/4 83/50/4 84/51/4 73/52/4
f 74/42/7 86/41/7 85/40/7 76/39/7
f 80/52/7 89/51/7 92/50/7 79/49/7
f 81/53/6 82/54/6 87/55/6 88/56/6
f 93/27/8 104/28/8 106/29/8 94/30/8 97/31/8 111/32/8 109/33/8 100/34/8
f 93/35/9 100/36/9 99/37/9 95/38/9
f 98/39/7 110/40/7 111/41/7 97/42/7
f 94/30/10 96/43/10 98/44/10 97/31/10
f 99/34/11 112/45/11 110/46/11 98/31/11 96/30/11 105/47/11 103/48/11 95/27/11
f 95/49/7 103/50/7 104/51/7 93/52/7
f 94/42/4 106/41/4 105/40/4 96/39/4
f 100/52/4 109/51/4 112/50/4 99/49/4
f 101/53/11 102/54/11 107/55/11 108/56/11
f 103/50/4 104/51/4 84/51/4 83/50/4
f 104/28/12 106/29/12 86/29/12 84/28/12
f 106/41/7 105/40/7 85/40/7 86/41/7
f 105/47/1 103/48/1 83/48/1 85/47/1
f 110/40/4 111/41/4 91/41/4 90/40/4
f 111/32/12 109/33/12 89/33/12 91/32/12
f 109/51/7 112/50/7 92/50/7 89/51/7
f 112/45/1 110/46/1 90/46/1 92/45/1
f 107/55/1 108/56/1 88/56/1 87/55/1
f 117/57/7 119/58/7 115/59/7 113/60/7
f 114/61/4 116/62/4 120/63/4 118/64/4
f 125/57/4 127/58/4 123/59/4 121/60/4
f 122/61/7 124/62/7 128/63/7 126/64/7
f 129/65/4 131/58/4 135/66/4 133/67/4
f 134/68/7 136/69/7 132/70/7 130/71/7
f 139/72/13 138/73/13 142/74/13 143/75/13
f 141/76/14 137/77/14 140/78/14 144/79/14
f 151/80/14 148/81/14 145/82/14 150/83/14 155/84/14 154/85/14 156/86/14 153/87/14
f 155/84/14 150/83/14 151/80/14 153/87/14
f 152/88/13 149/89/13 160/90/13 159/91/13
f 160/90/13 149/89/13 146/92/13 147/93/13 152/88/13 159/91/13 158/94/13 157/95/13
f 177/96/12 176/97/12 199/98/12 197/99/12
f 196/100/13 195/101/13 170/102/13 173/103/13
f 189/104/12 162/105/12 163/106/12 164/107/12 165/108/12 179/109/12
f 192/110/4 175/111/4 177/112/4 197/113/4
f 166/114/7 187/114/7 186/114/7 162/114/7
f 191/115/14 190/116/14 171/117/14 168/118/14 166/119/14 162/120/14 161/121/14 172/122/14
f 198/123/15 173/123/15 170/123/15 164/123/15
f 198/119/4 168/118/4 171/117/4 173/124/4
f 165/125/7 193/126/7 185/96/7 190/127/7 191/128/7 195/129/7
f 166/118/7 167/119/7 188/124/7 187/117/7
f 172/122/4 161/121/4 164/120/4 170/130/4
f 184/130/7 163/120/7 162/121/7 186/122/7
f 195/115/1 191/116/1 172/117/1 170/122/1
f 190/116/12 196/115/12 173/122/12 171/117/12
f 178/131/1 175/132/1 192/96/1 194/97/1
f 187/116/12 188/115/12 180/122/12 182/117/12
f 189/133/4 183/134/4 182/128/4 180/129/4 169/135/4 200/136/4
f 184/115/1 186/116/1 183/117/1 181/122/1
f 186/130/14 187/124/14 182/137/14 183/138/14
f 184/139/13 181/140/13 180/141/13 188/142/13 167/143/13 198/144/13 164/145/13 163/146/13
f 169/147/1 167/148/1 166/149/1 168/150/1 185/108/1 200/109/1
f 189/151/14 200/152/14 199/85/14 194/84/14 192/87/14 193/153/14
f 200/152/14 185/154/14 193/153/14 192/87/14 197/86/14 199/85/14
f 199/155/7 176/113/7 178/110/7 194/132/7
f 178/91/13 176/94/13 177/95/13 174/156/13 169/157/13 179/158/13
f 175/90/13 178/91/13 179/158/13 165/159/13 174/156/13 177/95/13
f 193/160/12 165/108/12 164/107/12 161/161/12 162/105/12 189/104/12
f 174/162/1 185/108/1 168/150/1 198/163/1 167/148/1 169/147/1
f 190/127/7 185/96/7 174/164/7 165/125/7 195/129/7 196/165/7
f 169/135/4 180/129/4 181/166/4 183/134/4 189/133/4 179/167/4
f 204/168/14 208/169/14 205/170/14 201/171/14
f 202/172/13 206/173/13 207/174/13 203/175/13
f 214/176/16 216/177/16 215/178/16 213/179/16
f 218/180/17 226/181/17 225/182/17 217/183/17 212/184/17 216/185/17 214/186/17 210/187/17 220/188/17 228/189/17 227/190/17 219/191/17
f 211/176/1 215/192/1 216/193/1 212/179/1
f 223/191/18 231/190/18 232/189/18 224/188/18 209/187/18 213/186/18 215/185/18 211/184/18 221/183/18 229/182/18 230/181/18 222/180/18
f 218/194/12 222/195/12 230/196/12 226/176/12
f 219/197/1 227/198/1 231/199/1 223/200/1
f 220/194/12 224/195/12 232/196/12 228/176/12
f 226/201/19 230/202/19 229/203/19 225/204/19
f 217/204/19 221/203/19 211/177/19 212/99/19
f 228/205/19 232/206/19 231/200/19 227/197/19
f 219/197/19 223/200/19 222/202/19 218/201/19
f 210/196/19 209/176/19 224/206/19 220/205/19
f 217/197/1 225/198/1 229/199/1 221/200/1
f 256/207/1 255/208/1 263/209/1 264/210/1
f 246/211/12 250/212/12 258/213/12 262/214/12
f 241/215/14 243/210/14 237/60/14 233/216/14
f 237/60/14 243/210/14 244/209/14 240/217/14
f 240/217/14 244/209/14 242/218/14 236/219/14
f 244/209/1 243/210/1 251/207/1 252/208/1
f 246/220/4 262/221/4 261/222/4 245/223/4
f 245/224/14 247/218/14 252/209/14 246/225/14
f 250/220/14 251/210/14 248/215/14 249/223/14
f 246/225/14 252/209/14 251/210/14 250/220/14
f 242/226/7 244/224/7 252/218/7 247/209/7
f 243/224/4 241/226/4 248/209/4 251/218/4
f 253/227/13 255/228/13 239/229/13 235/230/13
f 257/223/13 259/215/13 264/210/13 258/220/13
f 239/229/13 255/228/13 256/231/13 238/232/13
f 238/232/13 256/231/13 254/233/13 234/234/13
f 262/225/13 263/209/13 260/218/13 261/224/13
f 258/220/13 264/210/13 263/209/13 262/225/13
f 249/223/7 257/222/7 258/221/7 250/220/7
f 254/209/4 256/218/4 264/224/4 259/226/4
f 255/218/7 253/209/7 260/226/7 263/224/7
f 267/72/13 266/73/13 270/74/13 271/75/13
f 269/76/14 265/77/14 268/78/14 272/79/14
f 275/235/14 274/236/14 278/237/14 279/238/14
f 277/239/13 273/240/13 276/241/13 280/242/13
f 287/80/14 284/81/14 281/82/14 286/83/14 291/84/14 290/85/14 292/86/14 289/87/14
f 291/84/14 286/83/14 287/80/14 289/87/14
f 288/88/13 285/89/13 296/90/13 295/91/13
f 296/90/13 285/89/13 282/92/13 283/93/13 288/88/13 295/91/13 294/94/13 293/95/13
f 313/96/1 312/97/1 335/98/1 333/99/1
f 332/100/13 331/101/13 306/102/13 309/103/13
f 325/104/1 298/105/1 299/106/1 300/107/1 301/108/1 315/109/1
f 328/110/7 311/111/7 313/112/7 333/113/7
f 302/114/20 323/114/20 322/114/20 298/114/20
f 327/115/14 326/116/14 307/117/14 304/118/14 302/119/14 298/120/14 297/121/14 308/122/14
f 334/123/21 309/123/21 306/123/21 300/123/21
f 334/119/7 304/118/7 307/117/7 309/124/7
f 301/125/4 329/126/4 321/96/4 326/127/4 327/128/4 331/129/4
f 302/118/4 303/119/4 324/124/4 323/117/4
f 308/122/7 297/121/7 300/120/7 306/130/7
f 320/130/4 299/120/4 298/121/4 322/122/4
f 331/115/12 327/116/12 308/117/12 306/122/12
f 326/116/1 332/115/1 309/122/1 307/117/1
f 314/131/12 311/132/12 328/96/12 330/97/12
f 323/116/1 324/115/1 316/122/1 318/117/1
f 325/133/7 319/134/7 318/128/7 316/129/7 305/135/7 336/136/7
f 320/115/12 322/116/12 319/117/12 317/122/12
f 322/130/14 323/124/14 318/137/14 319/138/14
f 320/139/13 317/140/13 316/141/13 324/142/13 303/143/13 334/144/13 300/145/13 299/146/13
f 305/147/12 303/148/12 302/149/12 304/150/12 321/108/12 336/109/12
f 325/151/14 336/152/14 335/85/14 330/84/14 328/87/14 329/153/14
f 336/152/14 321/154/14 329/153/14 328/87/14 333/86/14 335/85/14
f 335/155/4 312/113/4 314/110/4 330/132/4
f 314/91/13 312/94/13 313/95/13 310/156/13 305/157/13 315/158/13
f 311/90/13 314/91/13 315/158/13 301/159/13 310/156/13 313/95/13
f 329/160/1 301/108/1 300/107/1 297/161/1 298/105/1 325/104/1
f 310/162/12 321/108/12 304/150/12 334/163/12 303/148/12 305/147/12
f 326/127/4 321/96/4 310/164/4 301/125/4 331/129/4 332/165/4
f 305/135/7 316/129/7 317/166/7 319/134/7 325/133/7 315/167/7
f 340/168/14 344/169/14 341/170/14 337/171/14
f 338/172/13 342/173/13 343/174/13 339/175/13
f 349/64/4 357/63/4 347/62/4 348/61/4
f 354/243/4 351/244/4 352/219/4 356/217/4
f 355/245/4 353/246/4 345/247/4 350/248/4
f 359/59/7 367/58/7 365/57/7 358/60/7
f 360/244/7 361/249/7 363/250/7 366/243/7
f 362/251/7 346/252/7 368/253/7 364/66/7
f 370/254/14 369/255/14 373/256/14 374/257/14
f 372/255/4 370/254/4 374/257/4 376/256/4
f 371/255/13 372/254/13 376/257/13 375/256/13
f 371/255/7 375/256/7 373/257/7 369/254/7
f 378/258/13 380/240/13 384/259/13 382/260/13
f 379/240/12 383/259/12 384/260/12 380/258/12
f 377/261/14 381/262/14 383/39/14 379/263/14
f 377/264/1 378/265/1 382/266/1 381/267/1
f 392/266/1 389/268/1 387/269/1 388/270/1
f 385/271/14 386/246/14 388/272/14 387/273/14
f 386/274/12 385/275/12 390/271/12 391/273/12
f 390/271/13 389/273/13 392/272/13 391/246/13
f 392/276/7 388/277/7 386/268/7 391/269/7
f 389/273/4 390/271/4 385/275/4 387/274/4
f 395/171/13 396/278/13 400/279/13 399/170/13
f 394/230/4 398/229/4 400/89/4 396/92/4
f 394/168/14 393/81/14 397/80/14 398/169/14
f 393/186/7 395/248/7 399/245/7 397/69/7
f 403/81/13 404/168/13 408/169/13 407/80/13
f 402/175/4 406/174/4 408/235/4 404/238/4
f 402/239/14 401/280/14 405/281/14 406/240/14
f 401/282/7 403/61/7 407/64/7 405/275/7
f 411/283/13 412/247/13 416/246/13 415/271/13
f 410/93/4 414/88/4 416/173/4 412/172/4
f 410/186/14 409/248/14 413/245/14 414/69/14
f 409/62/7 411/284/7 415/70/7 413/63/7
f 419/242/13 420/82/13 424/83/13 423/241/13
f 418/93/4 422/88/4 424/173/4 420/172/4
f 418/168/14 417/81/14 421/80/14 422/169/14
f 417/247/7 419/283/7 423/271/7 421/246/7
f 425/71/7 427/285/7 431/286/7 429/68/7
f 428/287/12 432/288/12 431/289/12 427/290/12
f 426/285/1 425/289/1 429/290/1 430/286/1
f 428/111/4 426/288/4 430/287/4 432/291/4
f 434/168/13 438/169/13 440/80/13 436/81/13
f 437/240/14 433/239/14 435/280/14 439/281/14
f 435/292/7 436/293/7 440/294/7 439/295/7
f 434/248/4 433/186/4 437/69/4 438/245/4
f 442/175/13 446/174/13 448/235/13 444/238/13
f 445/83/14 441/82/14 443/242/14 447/241/14
f 443/278/7 444/171/7 448/170/7 447/279/7
f 442/248/4 441/186/4 445/69/4 446/245/4
f 450/93/13 454/88/13 456/173/13 452/172/13
f 453/169/14 449/168/14 451/81/14 455/80/14
f 451/82/7 452/242/7 456/241/7 455/83/7
f 450/171/4 449/278/4 453/279/4 454/170/4
f 458/230/13 462/229/13 464/89/13 460/92/13
f 461/279/14 457/278/14 459/171/14 463/170/14
f 459/168/7 460/81/7 464/80/7 463/169/7
f 458/248/4 457/186/4 461/69/4 462/245/4
f 466/82/13 470/83/13 472/241/13 468/242/13
f 469/296/14 465/297/14 467/298/14 471/259/14
f 467/239/7 468/280/7 472/281/7 471/240/7
f 466/61/4 465/282/4 469/275/4 470/64/4
f 474/297/13 478/296/13 480/259/13 476/298/13
f 477/69/14 473/186/14 475/248/14 479/245/14
f 475/239/7 476/280/7 480/281/7 479/240/7
f 474/283/4 473/247/4 477/246/4 478/271/4
f 482/278/13 486/279/13 488/170/13 484/171/13
f 485/229/14 481/230/14 483/92/14 487/89/14
f 483/168/7 484/81/7 488/80/7 487/169/7
f 482/171/4 481/278/4 485/279/4 486/170/4
f 490/168/13 494/169/13 496/80/13 492/81/13
f 493/299/14 489/300/14 491/301/14 495/302/14
f 491/82/7 492/242/7 496/241/7 495/83/7
f 490/248/4 489/186/4 493/69/4 494/245/4
f 498/82/13 502/83/13 504/241/13 500/242/13
f 501/174/14 497/175/14 499/238/14 503/235/14
f 499/278/7 500/171/7 504/170/7 503/279/7
f 498/81/4 497/168/4 501/169/4 502/80/4
f 506/82/13 510/83/13 512/241/13 508/242/13
f 509/279/14 505/278/14 507/171/14 511/170/14
f 507/303/7 508/304/7 512/305/7 511/306/7
f 506/284/4 505/62/4 509/63/4 510/70/4
f 513/271/13 514/246/13 516/272/13 515/273/13
f 518/271/14 517/273/14 520/272/14 519/246/14
f 522/261/13 524/263/13 528/39/13 526/262/13
f 523/240/12 527/259/12 528/260/12 524/258/12
f 521/258/14 525/260/14 527/259/14 523/240/14
f 521/264/1 522/265/1 526/266/1 525/267/1
f 536/266/12 533/268/12 531/269/12 532/270/12
f 530/274/1 529/275/1 534/271/1 535/273/1
f 536/276/7 532/277/7 530/268/7 535/269/7
f 533/273/4 534/271/4 529/275/4 531/274/4
f 538/254/14 537/255/14 541/256/14 542/257/14
f 540/255/4 538/254/4 542/257/4 544/256/4
f 539/255/13 540/254/13 544/257/13 543/256/13
f 539/255/7 543/256/7 541/257/7 537/254/7
f 546/254/14 545/255/14 549/256/14 550/257/14
f 548/255/4 546/254/4 550/257/4 552/256/4
f 547/255/13 548/254/13 552/257/13 551/256/13
f 547/255/7 551/256/7 549/257/7 545/254/7
f 554/254/14 553/255/14 557/256/14 558/257/14
f 556/255/4 554/254/4 558/257/4 560/256/4
f 555/255/13 556/254/13 560/257/13 559/256/13
f 555/255/7 559/256/7 557/257/7 553/254/7
f 746/307/7 769/308/7 768/309/7 777/310/7 780/311/7 781/312/7 785/313/7 786/314/7 796/315/7 794/316/7 792/317/7 788/318/7 789/319/7 773/320/7 774/321/7 771/322/7 736/323/7 738/324/7 740/325/7 742/326/7 744/327/7 761/328/7 760/329/7 763/330/7 733/331/7 731/332/7 732/333/7 726/334/7 711/335/7 710/336/7 708/337/7 707/338/7 679/339/7 680/340/7 681/341/7 686/342/7 687/343/7 700/344/7 703/345/7 697/346/7 693/347/7 695/348/7 694/349/7 690/350/7 689/351/7 704/352/7 717/353/7 715/354/7 721/355/7 718/356/7 723/357/7 724/358/7 728/359/7 766/360/7 756/361/7 757/362/7 750/363/7 752/364/7 751/365/7 747/366/7
f 562/367/14 648/327/14 647/328/14 561/329/14
f 635/328/12 563/327/12 562/367/12 561/329/12
f 567/367/14 568/327/14 566/328/14 565/329/14
f 571/367/14 572/327/14 570/328/14 569/329/14
f 566/328/12 568/327/12 571/367/12 569/329/12
f 574/327/1 573/328/1 577/329/1 575/367/1
f 577/329/13 578/328/13 579/327/13 575/367/13
f 579/327/1 578/328/1 581/329/1 576/367/1
f 581/368/13 582/369/13 583/370/13 576/371/13
f 583/370/1 582/369/1 591/368/1 580/371/1
f 585/367/14 586/327/14 589/328/14 584/329/14
f 570/328/12 572/327/12 585/367/12 584/329/12
f 590/367/14 628/327/14 588/328/14 587/329/14
f 589/328/12 586/327/12 590/367/12 587/329/12
f 591/368/13 592/369/13 593/370/13 580/371/13
f 593/370/1 592/369/1 616/368/1 624/371/1
f 606/368/13 595/369/13 597/370/13 610/371/13
f 597/370/1 595/369/1 594/368/1 596/371/1
f 601/367/14 602/327/14 599/328/14 598/329/14
f 600/328/12 603/327/12 601/367/12 598/329/12
f 605/367/14 603/327/14 600/328/14 604/329/14
f 621/328/12 619/327/12 605/367/12 604/329/12
f 611/368/13 607/369/13 609/370/13 608/371/13
f 609/370/1 607/369/1 606/368/1 610/371/1
f 614/368/13 612/369/13 613/370/13 615/371/13
f 613/370/1 612/369/1 611/368/1 608/371/1
f 616/368/13 617/369/13 618/370/13 624/371/13
f 618/370/1 617/369/1 614/368/1 615/371/1
f 622/367/14 619/327/14 621/328/14 620/329/14
f 625/328/12 623/327/12 622/367/12 620/329/12
f 627/367/14 623/327/14 625/328/14 626/329/14
f 588/328/12 628/327/12 627/367/12 626/329/12
f 630/367/14 631/327/14 633/328/14 629/329/14
f 599/328/12 602/327/12 630/367/12 629/329/12
f 634/367/14 563/327/14 635/328/14 632/329/14
f 633/328/12 631/327/12 634/367/12 632/329/12
f 594/368/13 636/369/13 638/370/13 596/371/13
f 638/370/1 636/369/1 639/368/1 637/371/1
f 624/372/7 618/373/7 615/374/7 613/375/7 608/376/7 609/377/7 610/378/7 597/379/7 596/380/7 638/381/7 637/382/7 643/383/7 640/369/7 646/368/7 644/371/7 654/384/7 667/385/7 668/386/7 665/387/7 663/388/7 662/389/7 660/390/7 678/391/7 657/392/7 669/393/7 671/394/7 672/395/7 677/396/7 651/397/7 650/398/7 648/399/7 562/400/7 563/401/7 634/402/7 631/403/7 630/404/7 602/405/7 601/406/7 603/407/7 605/408/7 619/409/7 622/410/7 623/411/7 627/412/7 628/413/7 590/414/7 586/415/7 585/416/7 572/417/7 571/418/7 568/419/7 567/420/7 564/421/7 574/422/7 575/423/7 579/424/7 576/425/7 583/426/7 580/427/7 593/428/7
f 639/368/13 642/369/13 643/370/13 637/371/13
f 643/370/1 642/369/1 641/368/1 640/371/1
f 641/368/13 645/369/13 646/370/13 640/371/13
f 646/370/1 645/369/1 652/368/1 644/371/1
f 650/367/14 651/327/14 676/328/14 649/329/14
f 647/328/12 648/327/12 650/367/12 649/329/12
f 652/368/13 653/369/13 654/370/13 644/371/13
f 654/370/1 653/369/1 673/368/1 667/371/1
f 656/328/12 669/327/12 657/367/12 655/329/12
f 658/329/13 659/328/13 660/327/13 662/367/13
f 664/368/13 661/369/13 663/370/13 665/371/13
f 663/370/1 661/369/1 658/368/1 662/371/1
f 673/368/13 666/369/13 668/370/13 667/371/13
f 668/370/1 666/369/1 664/368/1 665/371/1
f 671/367/14 669/327/14 656/328/14 670/329/14
f 675/328/12 672/327/12 671/367/12 670/329/12
f 677/367/14 672/327/14 675/328/14 674/329/14
f 676/328/12 651/327/12 677/367/12 674/329/12
f 682/329/13 684/328/13 681/327/13 680/367/13
f 679/367/12 683/329/12 682/328/12 680/327/12
f 688/329/13 702/328/13 687/327/13 686/367/13
f 681/367/12 684/329/12 688/328/12 686/327/12
f 689/371/14 690/370/14 691/369/14 685/368/14
f 691/368/1 690/371/1 694/370/1 692/369/1
f 694/371/14 695/370/14 696/369/14 692/368/14
f 696/368/1 695/371/1 693/370/1 698/369/1
f 693/367/14 697/327/14 699/328/14 698/329/14
f 687/367/12 702/329/12 701/328/12 700/327/12
f 717/371/14 704/370/14 706/369/14 705/368/14
f 706/368/1 704/371/1 689/370/1 685/369/1
f 709/329/13 683/328/13 679/327/13 707/367/13
f 708/367/12 714/329/12 709/328/12 707/327/12
f 712/329/13 714/328/13 708/327/13 710/367/13
f 711/367/12 713/329/12 712/328/12 710/327/12
f 721/371/14 715/370/14 716/369/14 719/368/14
f 716/368/1 715/371/1 717/370/1 705/369/1
f 723/371/14 718/370/14 720/369/14 722/368/14
f 720/368/1 718/371/1 721/370/1 719/369/1
f 728/371/14 724/370/14 725/369/14 729/368/14
f 725/368/1 724/371/1 723/370/1 722/369/1
f 727/329/13 713/328/13 711/327/13 726/367/13
f 732/367/12 730/329/12 727/328/12 726/327/12
f 734/329/13 730/328/13 732/327/13 731/367/13
f 733/367/12 735/329/12 734/328/12 731/327/12
f 739/329/13 741/328/13 740/327/13 738/367/13
f 736/367/12 737/329/12 739/328/12 738/327/12
f 743/329/13 745/328/13 744/327/13 742/367/13
f 740/367/12 741/329/12 743/328/12 742/327/12
f 746/371/14 747/370/14 749/369/14 748/368/14
f 749/368/1 747/371/1 751/370/1 754/369/1
f 751/371/14 752/370/14 755/369/14 754/368/14
f 755/368/1 752/371/1 750/370/1 753/369/1
f 750/371/14 757/370/14 759/369/14 753/368/14
f 759/368/1 757/371/1 756/370/1 758/369/1
f 762/329/13 765/328/13 760/327/13 761/367/13
f 744/367/12 745/329/12 762/328/12 761/327/12
f 764/329/13 735/328/13 733/327/13 763/367/13
f 760/367/12 765/329/12 764/328/12 763/327/12
f 756/371/14 766/370/14 767/369/14 758/368/14
f 767/368/1 766/371/1 728/370/1 729/369/1
f 768/371/14 769/370/14 770/369/14 778/368/14
f 770/368/1 769/371/1 746/370/1 748/369/1
f 772/329/13 737/328/13 736/327/13 771/367/13
f 774/367/12 776/329/12 772/328/12 771/327/12
f 775/329/13 776/328/13 774/327/13 773/367/13
f 789/367/12 791/329/12 775/328/12 773/327/12
f 780/371/14 777/370/14 779/369/14 782/368/14
f 779/368/1 777/371/1 768/370/1 778/369/1
f 785/367/14 781/327/14 784/328/14 783/329/14
f 784/329/1 781/367/1 780/327/1 782/328/1
f 787/329/1 786/367/1 785/327/1 783/328/1
f 790/329/13 791/328/13 789/327/13 788/367/13
f 792/367/12 793/329/12 790/328/12 788/327/12
f 795/329/13 793/328/13 792/327/13 794/367/13
f 797/429/14 800/430/14 802/431/14 801/432/14
f 803/57/12 798/433/12 800/434/12 797/435/12
f 797/435/4 801/436/4 799/437/4 803/438/4
f 801/439/1 802/436/1 804/282/1 799/440/1
f 799/432/13 804/431/13 798/430/13 803/429/13
f 806/421/1 805/441/1 816/442/1 813/443/1
f 811/315/7 808/444/7 807/345/7 804/436/7 802/282/7 800/57/7 806/441/7 812/391/7 810/445/7 809/446/7
f 810/445/12 812/391/12 817/447/12 815/448/12
f 809/449/14 807/450/14 818/345/14 819/446/14
f 817/391/7 813/441/7 816/421/7 815/445/7
f 814/444/7 820/315/7 819/446/7 818/345/7
f 798/435/7 804/436/7 807/345/7 809/446/7 810/445/7 805/421/7 806/441/7 800/57/7
f 808/451/13 811/452/13 820/391/13 814/441/13
f 807/345/12 808/444/12 814/453/12 818/454/12
f 805/455/14 810/456/14 815/445/14 816/421/14
f 811/446/1 809/315/1 819/457/1 820/458/1
f 812/459/13 806/460/13 813/444/13 817/315/13
f 1006/307/4 1029/308/4 1028/309/4 1037/310/4 1040/311/4 1041/312/4 1045/313/4 1046/314/4 1056/315/4 1054/316/4 1052/317/4 1048/318/4 1049/319/4 1033/320/4 1034/321/4 1031/322/4 996/323/4 998/324/4 1000/325/4 1002/326/4 1004/327/4 1021/328/4 1020/329/4 1023/330/4 993/331/4 991/332/4 992/333/4 986/334/4 971/335/4 970/336/4 968/337/4 967/338/4 939/339/4 940/340/4 941/341/4 946/342/4 947/343/4 960/344/4 963/345/4 957/346/4 953/347/4 955/348/4 954/349/4 950/350/4 949/351/4 964/352/4 977/353/4 975/354/4 981/355/4 978/356/4 983/357/4 984/358/4 988/359/4 1026/360/4 1016/361/4 1017/362/4 1010/363/4 1012/364/4 1011/365/4 1007/366/4
f 822/367/14 908/327/14 907/328/14 821/329/14
f 895/328/1 823/327/1 822/367/1 821/329/1
f 827/367/14 828/327/14 826/328/14 825/329/14
f 831/367/14 832/327/14 830/328/14 829/329/14
f 826/328/1 828/327/1 831/367/1 829/329/1
f 834/327/12 833/328/12 837/329/12 835/367/12
f 837/329/13 838/328/13 839/327/13 835/367/13
f 839/327/12 838/328/12 841/329/12 836/367/12
f 841/368/13 842/369/13 843/370/13 836/371/13
f 843/370/12 842/369/12 851/368/12 840/371/12
f 845/367/14 846/327/14 849/328/14 844/329/14
f 830/328/1 832/327/1 845/367/1 844/329/1
f 850/367/14 888/327/14 848/328/14 847/329/14
f 849/328/1 846/327/1 850/367/1 847/329/1
f 851/368/13 852/369/13 853/370/13 840/371/13
f 853/370/12 852/369/12 876/368/12 884/371/12
f 866/368/13 855/369/13 857/370/13 870/371/13
f 857/370/12 855/369/12 854/368/12 856/371/12
f 861/367/14 862/327/14 859/328/14 858/329/14
f 860/328/1 863/327/1 861/367/1 858/329/1
f 865/367/14 863/327/14 860/328/14 864/329/14
f 881/328/1 879/327/1 865/367/1 864/329/1
f 871/368/13 867/369/13 869/370/13 868/371/13
f 869/370/12 867/369/12 866/368/12 870/371/12
f 874/368/13 872/369/13 873/370/13 875/371/13
f 873/370/12 872/369/12 871/368/12 868/371/12
f 876/368/13 877/369/13 878/370/13 884/371/13
f 878/370/12 877/369/12 874/368/12 875/371/12
f 882/367/14 879/327/14 881/328/14 880/329/14
f 885/328/1 883/327/1 882/367/1 880/329/1
f 887/367/14 883/327/14 885/328/14 886/329/14
f 848/328/1 888/327/1 887/367/1 886/329/1
f 890/367/14 891/327/14 893/328/14 889/329/14
f 859/328/1 862/327/1 890/367/1 889/329/1
f 894/367/14 823/327/14 895/328/14 892/329/14
f 893/328/1 891/327/1 894/367/1 892/329/1
f 854/368/13 896/369/13 898/370/13 856/371/13
f 898/370/12 896/369/12 899/368/12 897/371/12
f 884/372/4 878/373/4 875/374/4 873/375/4 868/376/4 869/377/4 870/378/4 857/379/4 856/380/4 898/381/4 897/382/4 903/383/4 900/369/4 906/368/4 904/371/4 914/384/4 927/385/4 928/386/4 925/387/4 923/388/4 922/389/4 920/390/4 938/391/4 917/392/4 929/393/4 931/394/4 932/395/4 937/396/4 911/397/4 910/398/4 908/399/4 822/400/4 823/401/4 894/402/4 891/403/4 890/404/4 862/405/4 861/406/4 863/407/4 865/408/4 879/409/4 882/410/4 883/411/4 887/412/4 888/413/4 850/414/4 846/415/4 845/416/4 832/417/4 831/418/4 828/419/4 827/420/4 824/421/4 834/422/4 835/423/4 839/424/4 836/425/4 843/426/4 840/427/4 853/428/4
f 899/368/13 902/369/13 903/370/13 897/371/13
f 903/370/12 902/369/12 901/368/12 900/371/12
f 901/368/13 905/369/13 906/370/13 900/371/13
f 906/370/12 905/369/12 912/368/12 904/371/12
f 910/367/14 911/327/14 936/328/14 909/329/14
f 907/328/1 908/327/1 910/367/1 909/329/1
f 912/368/13 913/369/13 914/370/13 904/371/13
f 914/370/12 913/369/12 933/368/12 927/371/12
f 916/328/1 929/327/1 917/367/1 915/329/1
f 918/329/13 919/328/13 920/327/13 922/367/13
f 924/368/13 921/369/13 923/370/13 925/371/13
f 923/370/12 921/369/12 918/368/12 922/371/12
f 933/368/13 926/369/13 928/370/13 927/371/13
f 928/370/12 926/369/12 924/368/12 925/371/12
f 931/367/14 929/327/14 916/328/14 930/329/14
f 935/328/1 932/327/1 931/367/1 930/329/1
f 937/367/14 932/327/14 935/328/14 934/329/14
f 936/328/1 911/327/1 937/367/1 934/329/1
f 942/329/13 944/328/13 941/327/13 940/367/13
f 939/367/1 943/329/1 942/328/1 940/327/1
f 948/329/13 962/328/13 947/327/13 946/367/13
f 941/367/1 944/329/1 948/328/1 946/327/1
f 949/371/14 950/370/14 951/369/14 945/368/14
f 951/368/12 950/371/12 954/370/12 952/369/12
f 954/371/14 955/370/14 956/369/14 952/368/14
f 956/368/12 955/371/12 953/370/12 958/369/12
f 953/367/14 957/327/14 959/328/14 958/329/14
f 947/367/1 962/329/1 961/328/1 960/327/1
f 977/371/14 964/370/14 966/369/14 965/368/14
f 966/368/12 964/371/12 949/370/12 945/369/12
f 969/329/13 943/328/13 939/327/13 967/367/13
f 968/367/1 974/329/1 969/328/1 967/327/1
f 972/329/13 974/328/13 968/327/13 970/367/13
f 971/367/1 973/329/1 972/328/1 970/327/1
f 981/371/14 975/370/14 976/369/14 979/368/14
f 976/368/12 975/371/12 977/370/12 965/369/12
f 983/371/14 978/370/14 980/369/14 982/368/14
f 980/368/12 978/371/12 981/370/12 979/369/12
f 988/371/14 984/370/14 985/369/14 989/368/14
f 985/368/12 984/371/12 983/370/12 982/369/12
f 987/329/13 973/328/13 971/327/13 986/367/13
f 992/367/1 990/329/1 987/328/1 986/327/1
f 994/329/13 990/328/13 992/327/13 991/367/13
f 993/367/1 995/329/1 994/328/1 991/327/1
f 999/329/13 1001/328/13 1000/327/13 998/367/13
f 996/367/1 997/329/1 999/328/1 998/327/1
f 1003/329/13 1005/328/13 1004/327/13 1002/367/13
f 1000/367/1 1001/329/1 1003/328/1 1002/327/1
f 1006/371/14 1007/370/14 1009/369/14 1008/368/14
f 1009/368/12 1007/371/12 1011/370/12 1014/369/12
f 1011/371/14 1012/370/14 1015/369/14 1014/368/14
f 1015/368/12 1012/371/12 1010/370/12 1013/369/12
f 1010/371/14 1017/370/14 1019/369/14 1013/368/14
f 1019/368/12 1017/371/12 1016/370/12 1018/369/12
f 1022/329/13 1025/328/13 1020/327/13 1021/367/13
f 1004/367/1 1005/329/1 1022/328/1 1021/327/1
f 1024/329/13 995/328/13 993/327/13 1023/367/13
f 1020/367/1 1025/329/1 1024/328/1 1023/327/1
f 1016/371/14 1026/370/14 1027/369/14 1018/368/14
f 1027/368/12 1026/371/12 988/370/12 989/369/12
f 1028/371/14 1029/370/14 1030/369/14 1038/368/14
f 1030/368/12 1029/371/12 1006/370/12 1008/369/12
f 1032/329/13 997/328/13 996/327/13 1031/367/13
f 1034/367/1 1036/329/1 1032/328/1 1031/327/1
f 1035/329/13 1036/328/13 1034/327/13 1033/367/13
f 1049/367/1 1051/329/1 1035/328/1 1033/327/1
f 1040/371/14 1037/370/14 1039/369/14 1042/368/14
f 1039/368/12 1037/371/12 1028/370/12 1038/369/12
f 1045/367/14 1041/327/14 1044/328/14 1043/329/14
f 1044/329/12 1041/367/12 1040/327/12 1042/328/12
f 1047/329/12 1046/367/12 1045/327/12 1043/328/12
f 1050/329/13 1051/328/13 1049/327/13 1048/367/13
f 1052/367/1 1053/329/1 1050/328/1 1048/327/1
f 1055/329/13 1053/328/13 1052/327/13 1054/367/13
f 1057/429/14 1060/430/14 1062/431/14 1061/432/14
f 1063/57/1 1058/433/1 1060/434/1 1057/435/1
f 1057/435/7 1061/436/7 1059/437/7 1063/438/7
f 1061/439/12 1062/436/12 1064/282/12 1059/440/12
f 1059/432/13 1064/431/13 1058/430/13 1063/429/13
f 1066/421/12 1065/441/12 1076/442/12 1073/443/12
f 1071/315/4 1068/444/4 1067/345/4 1064/436/4 1062/282/4 1060/57/4 1066/441/4 1072/391/4 1070/445/4 1069/446/4
f 1070/445/1 1072/391/1 1077/447/1 1075/448/1
f 1069/449/14 1067/450/14 1078/345/14 1079/446/14
f 1077/391/4 1073/441/4 1076/421/4 1075/445/4
f 1074/444/4 1080/315/4 1079/446/4 1078/345/4
f 1058/435/4 1064/436/4 1067/345/4 1069/446/4 1070/445/4 1065/421/4 1066/441/4 1060/57/4
f 1068/451/13 1071/452/13 1080/391/13 1074/441/13
f 1067/345/1 1068/444/1 1074/453/1 1078/454/1
f 1065/455/14 1070/456/14 1075/445/14 1076/421/14
f 1071/446/12 1069/315/12 1079/457/12 1080/458/12
f 1072/459/13 1066/460/13 1073/444/13 1077/315/13
f 1097/96/12 1096/97/12 1119/98/12 1117/99/12
f 1116/100/4 1115/101/4 1090/102/4 1093/103/4
f 1109/104/12 1082/105/12 1083/106/12 1084/107/12 1085/108/12 1099/109/12
f 1112/110/14 1095/111/14 1097/112/14 1117/113/14
f 1086/114/1 1107/114/1 1106/114/1 1082/114/1
f 1111/115/7 1110/116/7 1091/117/7 1088/118/7 1086/119/7 1082/120/7 1081/121/7 1092/122/7
f 1118/123/13 1093/123/13 1090/123/13 1084/123/13
f 1118/119/14 1088/118/14 1091/117/14 1093/124/14
f 1085/125/13 1113/126/13 1105/96/13 1110/127/13 1111/128/13 1115/129/13
f 1086/118/13 1087/119/13 1108/124/13 1107/117/13
f 1092/122/14 1081/121/14 1084/120/14 1090/130/14
f 1104/130/13 1083/120/13 1082/121/13 1106/122/13
f 1115/115/1 1111/116/1 1092/117/1 1090/122/1
f 1110/116/12 1116/115/12 1093/122/12 1091/117/12
f 1098/131/1 1095/132/1 1112/96/1 1114/97/1
f 1107/116/12 1108/115/12 1100/122/12 1102/117/12
f 1109/133/14 1103/134/14 1102/128/14 1100/129/14 1089/135/14 1120/136/14
f 1104/115/1 1106/116/1 1103/117/1 1101/122/1
f 1106/130/7 1107/124/7 1102/137/7 1103/138/7
f 1104/139/4 1101/140/4 1100/141/4 1108/142/4 1087/143/4 1118/144/4 1084/145/4 1083/146/4
f 1089/147/1 1087/148/1 1086/149/1 1088/150/1 1105/108/1 1120/109/1
f 1109/151/7 1120/152/7 1119/85/7 1114/84/7 1112/87/7 1113/153/7
f 1120/152/7 1105/154/7 1113/153/7 1112/87/7 1117/86/7 1119/85/7
f 1119/155/13 1096/113/13 1098/110/13 1114/132/13
f 1098/91/4 1096/94/4 1097/95/4 1094/156/4 1089/157/4 1099/158/4
f 1095/90/4 1098/91/4 1099/158/4 1085/159/4 1094/156/4 1097/95/4
f 1113/160/12 1085/108/12 1084/107/12 1081/161/12 1082/105/12 1109/104/12
f 1094/162/1 1105/108/1 1088/150/1 1118/163/1 1087/148/1 1089/147/1
f 1110/127/13 1105/96/13 1094/164/13 1085/125/13 1115/129/13 1116/165/13
f 1089/135/14 1100/129/14 1101/166/14 1103/134/14 1109/133/14 1099/167/14
f 1121/461/7 1122/462/7 1124/463/7 1123/464/7
f 1125/465/7 1126/466/7 1128/467/7 1127/468/7
f 1129/469/7 1130/470/7 1132/471/7 1131/472/7
f 1133/473/7 1134/474/7 1136/475/7 1135/476/7
f 1142/256/7 1138/255/7 1140/477/7 1144/478/7 1148/479/7 1147/480/7 1145/481/7 1146/482/7
f 1148/479/7 1144/478/7 1142/256/7 1146/482/7
f 1151/483/4 1143/484/4 1139/251/4 1137/59/4 1141/485/4 1150/486/4 1149/487/4 1152/488/4
f 1141/485/4 1143/484/4 1151/483/4 1150/486/4
f 1169/96/1 1168/97/1 1191/98/1 1189/99/1
f 1188/100/4 1187/101/4 1162/102/4 1165/103/4
f 1181/104/1 1154/105/1 1155/106/1 1156/107/1 1157/108/1 1171/109/1
f 1184/110/13 1167/111/13 1169/112/13 1189/113/13
f 1158/114/1 1179/114/1 1178/114/1 1154/114/1
f 1183/115/7 1182/116/7 1163/117/7 1160/118/7 1158/119/7 1154/120/7 1153/121/7 1164/122/7
f 1190/123/14 1165/123/14 1162/123/14 1156/123/14
f 1190/119/13 1160/118/13 1163/117/13 1165/124/13
f 1157/125/14 1185/126/14 1177/96/14 1182/127/14 1183/128/14 1187/129/14
f 1158/118/14 1159/119/14 1180/124/14 1179/117/14
f 1164/122/13 1153/121/13 1156/120/13 1162/130/13
f 1176/130/14 1155/120/14 1154/121/14 1178/122/14
f 1187/115/12 1183/116/12 1164/117/12 1162/122/12
f 1182/116/1 1188/115/1 1165/122/1 1163/117/1
f 1170/131/12 1167/132/12 1184/96/12 1186/97/12
f 1179/116/1 1180/115/1 1172/122/1 1174/117/1
f 1181/133/13 1175/134/13 1174/128/13 1172/129/13 1161/135/13 1192/136/13
f 1176/115/12 1178/116/12 1175/117/12 1173/122/12
f 1178/130/7 1179/124/7 1174/137/7 1175/138/7
f 1176/139/4 1173/140/4 1172/141/4 1180/142/4 1159/143/4 1190/144/4 1156/145/4 1155/146/4
f 1161/147/12 1159/148/12 1158/149/12 1160/150/12 1177/108/12 1192/109/12
f 1181/151/7 1192/152/7 1191/85/7 1186/84/7 1184/87/7 1185/153/7
f 1192/152/7 1177/154/7 1185/153/7 1184/87/7 1189/86/7 1191/85/7
f 1191/155/14 1168/113/14 1170/110/14 1186/132/14
f 1170/91/4 1168/94/4 1169/95/4 1166/156/4 1161/157/4 1171/158/4
f 1167/90/4 1170/91/4 1171/158/4 1157/159/4 1166/156/4 1169/95/4
f 1185/160/1 1157/108/1 1156/107/1 1153/161/1 1154/105/1 1181/104/1
f 1166/162/12 1177/108/12 1160/150/12 1190/163/12 1159/148/12 1161/147/12
f 1182/127/14 1177/96/14 1166/164/14 1157/125/14 1187/129/14 1188/165/14
f 1161/135/13 1172/129/13 1173/166/13 1175/134/13 1181/133/13 1171/167/13
f 1214/256/7 1210/255/7 1212/477/7 1216/478/7 1220/479/7 1219/480/7 1217/481/7 1218/482/7
f 1220/479/7 1216/478/7 1214/256/7 1218/482/7
f 1223/483/4 1215/484/4 1211/251/4 1209/59/4 1213/485/4 1222/486/4 1221/487/4 1224/488/4
f 1213/485/4 1215/484/4 1223/483/4 1222/486/4
f 1230/489/12 1233/489/12 1234/490/12 1229/490/12 1228/27/12 1227/34/12 1225/491/12 1226/492/12
f 1234/493/12 1233/492/12 1232/494/12 1231/495/12
f 1237/249/14 1238/23/14 1242/496/14 1241/497/14
f 1236/23/13 1235/249/13 1239/497/13 1240/496/13
f 1235/23/4 1237/249/4 1241/497/4 1239/496/4
f 1236/23/7 1240/496/7 1242/497/7 1238/249/7
f 1245/249/14 1246/23/14 1250/496/14 1249/497/14
f 1244/23/13 1243/249/13 1247/497/13 1248/496/13
f 1243/23/4 1245/249/4 1249/497/4 1247/496/4
f 1244/23/7 1248/496/7 1250/497/7 1246/249/7
f 1253/249/14 1254/23/14 1258/496/14 1257/497/14
f 1252/23/13 1251/249/13 1255/497/13 1256/496/13
f 1251/23/4 1253/249/4 1257/497/4 1255/496/4
f 1252/23/7 1256/496/7 1258/497/7 1254/249/7
f 1261/249/14 1262/23/14 1266/496/14 1265/497/14
f 1260/23/13 1259/249/13 1263/497/13 1264/496/13
f 1259/23/4 1261/249/4 1265/497/4 1263/496/4
f 1260/23/7 1264/496/7 1266/497/7 1262/249/7
f 1267/298/12 1286/498/12 1268/499/12 1275/500/12 1273/501/12
f 1271/278/4 1284/171/4 1280/81/4 1281/502/4 1272/503/4
f 1269/504/1 1283/505/1 1270/506/1 1278/507/1 1284/508/1 1271/509/1
f 1267/262/14 1269/280/14 1271/278/14 1272/503/14 1285/510/14 1286/511/14
f 1273/502/7 1276/81/7 1283/171/7 1269/278/7 1267/503/7
f 1268/503/4 1270/278/4 1274/512/4 1275/513/4
f 1278/278/22 1277/503/22 1282/513/22 1279/512/22
f 1268/39/13 1277/514/13 1278/171/13 1270/239/13
f 1270/515/1 1283/516/1 1276/517/1 1274/518/1
f 1284/515/1 1278/516/1 1279/517/1 1280/518/1
f 1277/297/12 1285/298/12 1272/498/12 1281/500/12 1282/501/12
f 1268/276/12 1286/269/12 1285/268/12 1277/277/12
f 1291/519/4 1287/175/4 1289/520/4 1295/520/4 1293/519/4
f 1296/274/7 1290/274/7 1288/254/7 1292/257/7 1294/257/7
f 1301/519/7 1297/175/7 1299/520/7 1305/520/7 1303/519/7
f 1306/274/4 1300/274/4 1298/254/4 1302/257/4 1304/257/4
f 1311/519/7 1307/175/7 1309/520/7 1315/520/7 1313/519/7
f 1316/274/4 1310/274/4 1308/254/4 1312/257/4 1314/257/4
f 1321/519/4 1317/175/4 1319/520/4 1325/520/4 1323/519/4
f 1326/274/7 1320/274/7 1318/254/7 1322/257/7 1324/257/7
f 1329/521/4 1330/522/4 1338/523/4 1337/524/4
f 1341/525/7 1328/526/7 1331/527/7 1340/528/7
f 1330/529/23 1329/530/23 1333/531/23 1334/532/23
f 1328/533/24 1332/534/24 1327/31/24 1331/30/24
f 1333/34/25 1329/27/25 1337/535/25 1343/535/25 1342/536/25 1340/537/25 1331/30/25 1327/31/25 1351/538/25 1352/539/25
f 1333/521/7 1352/540/7 1350/541/7 1334/522/7
f 1335/542/26 1336/543/26 1339/544/26 1346/545/26 1347/546/26 1348/547/26
f 1338/548/26 1330/27/26 1334/34/26 1350/549/26 1349/550/26 1332/31/26 1328/30/26 1341/551/26 1345/552/26 1344/553/26
f 1340/554/13 1342/555/13 1345/556/13 1341/557/13
f 1349/558/4 1351/559/4 1327/527/4 1332/526/4
f 1358/560/4 1353/561/4 1355/561/4 1356/562/4 1357/563/4
f 1361/561/7 1354/561/7 1362/564/7 1359/565/7 1360/566/7
f 1354/5/27 1353/567/27 1358/568/27 1362/569/27
f 1360/570/28 1359/571/28 1357/572/28 1356/573/28
f 1358/574/1 1357/575/1 1359/576/1 1362/577/1
f 1368/560/7 1363/561/7 1365/561/7 1366/562/7 1367/563/7
f 1371/561/4 1364/561/4 1372/564/4 1369/565/4 1370/566/4
f 1364/5/29 1363/567/29 1368/568/29 1372/569/29
f 1370/570/30 1369/571/30 1367/572/30 1366/573/30
f 1368/574/12 1367/575/12 1369/576/12 1372/577/12
f 1378/560/13 1373/561/13 1375/561/13 1376/562/13 1377/563/13
f 1381/561/14 1374/561/14 1382/564/14 1379/565/14 1380/566/14
f 1374/5/31 1373/567/31 1378/568/31 1382/569/31
f 1380/570/32 1379/571/32 1377/572/32 1376/573/32
f 1378/574/12 1377/575/12 1379/576/12 1382/577/12
f 1388/560/14 1383/561/14 1385/561/14 1386/562/14 1387/563/14
f 1391/561/13 1384/561/13 1392/564/13 1389/565/13 1390/566/13
f 1384/5/33 1383/567/33 1388/568/33 1392/569/33
f 1390/570/34 1389/571/34 1387/572/34 1386/573/34
f 1388/574/1 1387/575/1 1389/576/1 1392/577/1
f 1398/560/14 1393/561/14 1395/561/14 1396/562/14 1397/563/14
f 1401/561/13 1394/561/13 1402/564/13 1399/565/13 1400/566/13
f 1394/5/33 1393/567/33 1398/568/33 1402/569/33
f 1400/570/34 1399/571/34 1397/572/34 1396/573/34
f 1398/574/1 1397/575/1 1399/576/1 1402/577/1
f 1408/560/13 1403/561/13 1405/561/13 1406/562/13 1407/563/13
f 1411/561/14 1404/561/14 1412/564/14 1409/565/14 1410/566/14
f 1404/5/31 1403/567/31 1408/568/31 1412/569/31
f 1410/570/32 1409/571/32 1407/572/32 1406/573/32
f 1408/574/12 1407/575/12 1409/576/12 1412/577/12
f 1418/560/13 1413/561/13 1415/561/13 1416/562/13 1417/563/13
f 1421/561/14 1414/561/14 1422/564/14 1419/565/14 1420/566/14
f 1414/5/31 1413/567/31 1418/568/31 1422/569/31
f 1420/570/32 1419/571/32 1417/572/32 1416/573/32
f 1418/574/12 1417/575/12 1419/576/12 1422/577/12
f 1428/560/14 1423/561/14 1425/561/14 1426/562/14 1427/563/14
f 1431/561/13 1424/561/13 1432/564/13 1429/565/13 1430/566/13
f 1424/5/33 1423/567/33 1428/568/33 1432/569/33
f 1430/570/34 1429/571/34 1427/572/34 1426/573/34
f 1428/574/1 1427/575/1 1429/576/1 1432/577/1
f 1438/560/7 1433/561/7 1435/561/7 1436/562/7 1437/563/7
f 1441/561/4 1434/561/4 1442/564/4 1439/565/4 1440/566/4
f 1434/5/29 1433/567/29 1438/568/29 1442/569/29
f 1440/570/30 1439/571/30 1437/572/30 1436/573/30
f 1438/574/12 1437/575/12 1439/576/12 1442/577/12
f 1448/560/4 1443/561/4 1445/561/4 1446/562/4 1447/563/4
f 1451/561/7 1444/561/7 1452/564/7 1449/565/7 1450/566/7
f 1444/5/27 1443/567/27 1448/568/27 1452/569/27
f 1450/570/28 1449/571/28 1447/572/28 1446/573/28
f 1448/574/1 1447/575/1 1449/576/1 1452/577/1
f 1455/261/13 1456/263/13 1460/39/13 1459/262/13
f 1457/262/14 1458/39/14 1454/263/14 1453/261/14
f 1455/263/12 1459/39/12 1457/262/12 1453/261/12
f 1460/39/1 1456/263/1 1454/261/1 1458/262/1
f 1463/261/13 1464/263/13 1468/39/13 1467/262/13
f 1465/262/14 1466/39/14 1462/263/14 1461/261/14
f 1463/263/12 1467/39/12 1465/262/12 1461/261/12
f 1468/39/1 1464/263/1 1462/261/1 1466/262/1
f 1471/261/13 1472/263/13 1476/39/13 1475/262/13
f 1473/262/14 1474/39/14 1470/263/14 1469/261/14
f 1471/263/12 1475/39/12 1473/262/12 1469/261/12
f 1476/39/1 1472/263/1 1470/261/1 1474/262/1
f 1479/261/13 1480/263/13 1484/39/13 1483/262/13
f 1481/262/14 1482/39/14 1478/263/14 1477/261/14
f 1479/263/12 1483/39/12 1481/262/12 1477/261/12
f 1484/39/1 1480/263/1 1478/261/1 1482/262/1
f 1487/578/13 1488/267/13 1492/579/13 1491/580/13
f 1489/580/14 1490/579/14 1486/267/14 1485/578/14
f 1487/581/12 1491/582/12 1489/583/12 1485/584/12
f 1492/581/1 1488/582/1 1486/580/1 1490/578/1
f 1495/578/13 1496/267/13 1500/579/13 1499/580/13
f 1497/580/14 1498/579/14 1494/267/14 1493/578/14
f 1495/581/12 1499/582/12 1497/583/12 1493/584/12
f 1500/581/1 1496/582/1 1494/580/1 1498/578/1
f 1503/578/13 1504/267/13 1508/579/13 1507/580/13
f 1505/580/14 1506/579/14 1502/267/14 1501/578/14
f 1503/581/12 1507/582/12 1505/583/12 1501/584/12
f 1508/581/1 1504/582/1 1502/580/1 1506/578/1
f 1231/495/4 1232/494/4 1510/494/4 1509/495/4
usemtl 
f 1193/461/7 1194/462/7 1196/463/7 1195/464/7
f 1197/465/7 1198/466/7 1200/467/7 1199/468/7
f 1201/469/7 1202/470/7 1204/471/7 1203/472/7
f 1205/473/7 1206/474/7 1208/475/7 1207/476/7
