# Blender 4.2.3 LTS
# www.blender.org
mtllib StorageHouseHB.mtl
o Plane
v -10.500000 0.000000 7.350000
v 10.500000 0.000000 7.350000
v -10.500000 0.000000 -7.350000
v 10.500000 0.000000 -7.350000
v -6.800000 0.000000 7.050000
v -6.800000 6.300000 7.050000
v -6.800000 0.000000 6.950000
v -6.800000 6.300000 6.950000
v -5.400000 0.000000 7.050000
v -5.400000 6.300000 7.050000
v -5.400000 0.000000 6.950000
v -5.400000 6.300000 6.950000
v 10.099999 0.000000 -6.950000
v 10.099999 6.300000 -6.950000
v 10.099999 0.000000 -7.350000
v 10.099999 6.300000 -7.350000
v 10.500000 0.000000 -6.950000
v 10.500000 6.300000 -6.950000
v 10.500000 0.000000 -7.350000
v 10.500000 6.300000 -7.350000
v 10.099999 0.000000 7.350001
v 10.099999 6.300000 7.350001
v 10.099999 0.000000 6.950001
v 10.099999 6.300000 6.950001
v 10.500000 0.000000 7.350001
v 10.500000 6.300000 7.350001
v 10.500000 0.000000 6.950001
v 10.500000 6.300000 6.950001
v 10.099999 0.000000 2.650001
v 10.099999 6.300000 2.650001
v 10.099999 0.000000 2.250000
v 10.099999 6.300000 2.250000
v 10.500000 0.000000 2.650001
v 10.500000 6.300000 2.650001
v 10.500000 0.000000 2.250000
v 10.500000 6.300000 2.250000
v 10.099999 0.000000 -2.250000
v 10.099999 6.300000 -2.250000
v 10.099999 0.000000 -2.649999
v 10.099999 6.300000 -2.649999
v 10.500000 0.000000 -2.250000
v 10.500000 6.300000 -2.250000
v 10.500000 0.000000 -2.649999
v 10.500000 6.300000 -2.649999
v -10.500001 0.000000 -2.250000
v -10.500001 6.300000 -2.250000
v -10.500001 0.000000 -2.649999
v -10.500001 6.300000 -2.649999
v -10.100001 0.000000 -2.250000
v -10.100001 6.300000 -2.250000
v -10.100001 0.000000 -2.649999
v -10.100001 6.300000 -2.649999
v -10.500001 0.000000 -6.950000
v -10.500001 6.300000 -6.950000
v -10.500001 0.000000 -7.350000
v -10.500001 6.300000 -7.350000
v -10.100001 0.000000 -6.950000
v -10.100001 6.300000 -6.950000
v -10.100001 0.000000 -7.350000
v -10.100001 6.300000 -7.350000
v -10.500001 0.000000 2.650001
v -10.500001 6.300000 2.650001
v -10.500001 0.000000 2.250000
v -10.500001 6.300000 2.250000
v -10.100001 0.000000 2.650001
v -10.100001 6.300000 2.650001
v -10.100001 0.000000 2.250000
v -10.100001 6.300000 2.250000
v -10.500001 0.000000 7.350001
v -10.500001 6.300000 7.350001
v -10.500001 0.000000 6.950001
v -10.500001 6.300000 6.950001
v -10.100001 0.000000 7.350001
v -10.100001 6.300000 7.350001
v -10.100001 0.000000 6.950001
v -10.100001 6.300000 6.950001
v -5.400001 0.000000 -6.950000
v -5.400001 6.300000 -6.950000
v -5.400001 0.000000 -7.350000
v -5.400001 6.300000 -7.350000
v -5.000000 0.000000 -6.950000
v -5.000000 6.300000 -6.950000
v -5.000000 0.000000 -7.350000
v -5.000000 6.300000 -7.350000
v -0.200001 0.000000 -6.950000
v -0.200001 6.300000 -6.950000
v -0.200001 0.000000 -7.350000
v -0.200001 6.300000 -7.350000
v 0.200000 0.000000 -6.950000
v 0.200000 6.300000 -6.950000
v 0.200000 0.000000 -7.350000
v 0.200000 6.300000 -7.350000
v 5.000000 0.000000 -6.950000
v 5.000000 6.300000 -6.950000
v 5.000000 0.000000 -7.350000
v 5.000000 6.300000 -7.350000
v 5.400001 0.000000 -6.950000
v 5.400001 6.300000 -6.950000
v 5.400001 0.000000 -7.350000
v 5.400001 6.300000 -7.350000
v 5.000000 0.000000 7.350000
v 5.000000 6.300000 7.350000
v 5.000000 0.000000 6.950000
v 5.000000 6.300000 6.950000
v 5.400001 0.000000 7.350000
v 5.400001 6.300000 7.350000
v 5.400001 0.000000 6.950000
v 5.400001 6.300000 6.950000
v -0.200001 0.000000 7.350000
v -0.200001 6.300000 7.350000
v -0.200001 0.000000 6.950000
v -0.200001 6.300000 6.950000
v 0.200000 0.000000 7.350000
v 0.200000 6.300000 7.350000
v 0.200000 0.000000 6.950000
v 0.200000 6.300000 6.950000
v -5.400001 0.000000 7.350000
v -5.400001 6.300000 7.350000
v -5.400001 0.000000 6.950000
v -5.400001 6.300000 6.950000
v -5.000000 0.000000 7.350000
v -5.000000 6.300000 7.350000
v -5.000000 0.000000 6.950000
v -5.000000 6.300000 6.950000
v -5.400001 0.000000 12.949999
v -5.400001 6.300000 12.949999
v -5.400001 0.000000 12.549999
v -5.400001 6.300000 12.549999
v -5.000000 0.000000 12.949999
v -5.000000 6.300000 12.949999
v -5.000000 0.000000 12.549999
v -5.000000 6.300000 12.549999
v -0.200001 0.000000 12.949999
v -0.200001 6.300000 12.949999
v -0.200001 0.000000 12.549999
v -0.200001 6.300000 12.549999
v 0.200000 0.000000 12.949999
v 0.200000 6.300000 12.949999
v 0.200000 0.000000 12.549999
v 0.200000 6.300000 12.549999
v 5.000000 0.000000 12.949999
v 5.000000 6.300000 12.949999
v 5.000000 0.000000 12.549999
v 5.000000 6.300000 12.549999
v 5.400001 0.000000 12.949999
v 5.400001 6.300000 12.949999
v 5.400001 0.000000 12.549999
v 5.400001 6.300000 12.549999
v 10.099999 0.000000 12.949999
v 10.099999 6.300000 12.949999
v 10.099999 0.000000 12.549999
v 10.099999 6.300000 12.549999
v 10.500000 0.000000 12.949999
v 10.500000 6.300000 12.949999
v 10.500000 0.000000 12.549999
v 10.500000 6.300000 12.549999
v 10.099999 0.000000 6.950000
v 10.099999 6.300001 6.950000
v 10.099999 0.000000 2.650000
v 10.099999 6.300001 2.650000
v 10.200000 0.000000 6.950000
v 10.200000 6.300001 6.950000
v 10.200000 0.000000 2.650000
v 10.200000 6.300001 2.650000
v 10.099999 0.000000 -2.650000
v 10.099999 6.300001 -2.650000
v 10.099999 0.000000 -6.950001
v 10.099999 6.300001 -6.950001
v 10.200000 0.000000 -2.650000
v 10.200000 6.300001 -2.650000
v 10.200000 0.000000 -6.950001
v 10.200000 6.300001 -6.950001
v -10.200002 0.000000 6.950000
v -10.200002 6.300001 6.950000
v -10.200002 0.000000 -6.950001
v -10.200002 6.300001 -6.950001
v -10.100001 0.000000 6.950000
v -10.100001 6.300001 6.950000
v -10.100001 0.000000 -6.950001
v -10.100001 6.300001 -6.950001
v -10.100000 0.000000 -6.950000
v -10.100000 6.300001 -6.950000
v -10.100000 0.000000 -7.050000
v -10.100000 6.300001 -7.050000
v 10.100001 0.000000 -6.950000
v 10.100001 6.300001 -6.950000
v 10.100001 0.000000 -7.050000
v 10.100001 6.300001 -7.050000
v -5.000000 0.000000 7.050000
v -5.000000 6.300001 7.050000
v -5.000000 0.000000 6.950000
v -5.000000 6.300001 6.950000
v 10.100001 0.000000 7.050000
v 10.100001 6.300001 7.050000
v 10.100001 0.000000 6.950000
v 10.100001 6.300001 6.950000
v -10.099999 0.000000 7.050000
v -10.099999 6.300000 7.050000
v -10.099999 0.000000 6.950000
v -10.099999 6.300000 6.950000
v -8.700000 0.000000 7.050000
v -8.700000 6.300000 7.050000
v -8.700000 0.000000 6.950000
v -8.700000 6.300000 6.950000
v 10.500000 0.000000 -2.250000
v 10.500000 4.600000 -2.250000
v 10.500000 0.000000 -4.750000
v 10.500000 4.600000 -4.750000
v 10.700000 0.000000 -2.250000
v 10.700000 4.600000 -2.250000
v 10.700000 0.000000 -4.750000
v 10.700000 4.600000 -4.750000
v 10.500000 0.000000 4.750000
v 10.500000 4.600000 4.750000
v 10.500000 0.000000 2.250000
v 10.500000 4.600000 2.250000
v 10.700000 0.000000 4.750000
v 10.700000 4.600000 4.750000
v 10.700000 0.000000 2.250000
v 10.700000 4.600000 2.250000
v -10.543633 0.000000 7.698652
v -10.543633 4.000000 7.698652
v -10.583309 0.000000 7.401287
v -10.583309 4.000000 7.401287
v -8.660323 0.000000 7.447364
v -8.660323 4.000000 7.447364
v -8.700000 0.000000 7.150000
v -8.700000 4.000000 7.150000
v 10.200001 0.300000 6.350000
v 10.200001 1.800000 6.350000
v 10.200001 0.300000 6.250000
v 10.200001 1.800000 6.250000
v 10.500001 0.300000 6.350000
v 10.500001 1.800000 6.350000
v 10.500001 0.300000 6.250000
v 10.500001 1.800000 6.250000
vn -0.0000 1.0000 -0.0000
vn -1.0000 -0.0000 -0.0000
vn -0.0000 -0.0000 -1.0000
vn 1.0000 -0.0000 -0.0000
vn -0.0000 -0.0000 1.0000
vn -0.0000 -1.0000 -0.0000
vn -0.9912 -0.0000 0.1323
vn -0.1323 -0.0000 -0.9912
vn 0.9912 -0.0000 -0.1323
vn 0.1323 -0.0000 0.9912
vt 0.000000 0.000000
vt 1.000000 0.000000
vt 1.000000 1.000000
vt 0.000000 1.000000
vt 0.375000 0.000000
vt 0.625000 0.000000
vt 0.625000 0.250000
vt 0.375000 0.250000
vt 0.625000 0.500000
vt 0.375000 0.500000
vt 0.625000 0.750000
vt 0.375000 0.750000
vt 0.625000 1.000000
vt 0.375000 1.000000
vt 0.125000 0.500000
vt 0.125000 0.750000
vt 0.875000 0.500000
vt 0.875000 0.750000
s 0
f 1/1/1 2/2/1 4/3/1 3/4/1
f 5/5/2 6/6/2 8/7/2 7/8/2
f 7/8/3 8/7/3 12/9/3 11/10/3
f 11/10/4 12/9/4 10/11/4 9/12/4
f 9/12/5 10/11/5 6/13/5 5/14/5
f 7/15/6 11/10/6 9/12/6 5/16/6
f 12/9/1 8/17/1 6/18/1 10/11/1
f 13/5/2 14/6/2 16/7/2 15/8/2
f 15/8/3 16/7/3 20/9/3 19/10/3
f 19/10/4 20/9/4 18/11/4 17/12/4
f 17/12/5 18/11/5 14/13/5 13/14/5
f 15/15/6 19/10/6 17/12/6 13/16/6
f 20/9/1 16/17/1 14/18/1 18/11/1
f 21/5/2 22/6/2 24/7/2 23/8/2
f 23/8/3 24/7/3 28/9/3 27/10/3
f 27/10/4 28/9/4 26/11/4 25/12/4
f 25/12/5 26/11/5 22/13/5 21/14/5
f 23/15/6 27/10/6 25/12/6 21/16/6
f 28/9/1 24/17/1 22/18/1 26/11/1
f 29/5/2 30/6/2 32/7/2 31/8/2
f 31/8/3 32/7/3 36/9/3 35/10/3
f 35/10/4 36/9/4 34/11/4 33/12/4
f 33/12/5 34/11/5 30/13/5 29/14/5
f 31/15/6 35/10/6 33/12/6 29/16/6
f 36/9/1 32/17/1 30/18/1 34/11/1
f 37/5/2 38/6/2 40/7/2 39/8/2
f 39/8/3 40/7/3 44/9/3 43/10/3
f 43/10/4 44/9/4 42/11/4 41/12/4
f 41/12/5 42/11/5 38/13/5 37/14/5
f 39/15/6 43/10/6 41/12/6 37/16/6
f 44/9/1 40/17/1 38/18/1 42/11/1
f 45/5/2 46/6/2 48/7/2 47/8/2
f 47/8/3 48/7/3 52/9/3 51/10/3
f 51/10/4 52/9/4 50/11/4 49/12/4
f 49/12/5 50/11/5 46/13/5 45/14/5
f 47/15/6 51/10/6 49/12/6 45/16/6
f 52/9/1 48/17/1 46/18/1 50/11/1
f 53/5/2 54/6/2 56/7/2 55/8/2
f 55/8/3 56/7/3 60/9/3 59/10/3
f 59/10/4 60/9/4 58/11/4 57/12/4
f 57/12/5 58/11/5 54/13/5 53/14/5
f 55/15/6 59/10/6 57/12/6 53/16/6
f 60/9/1 56/17/1 54/18/1 58/11/1
f 61/5/2 62/6/2 64/7/2 63/8/2
f 63/8/3 64/7/3 68/9/3 67/10/3
f 67/10/4 68/9/4 66/11/4 65/12/4
f 65/12/5 66/11/5 62/13/5 61/14/5
f 63/15/6 67/10/6 65/12/6 61/16/6
f 68/9/1 64/17/1 62/18/1 66/11/1
f 69/5/2 70/6/2 72/7/2 71/8/2
f 71/8/3 72/7/3 76/9/3 75/10/3
f 75/10/4 76/9/4 74/11/4 73/12/4
f 73/12/5 74/11/5 70/13/5 69/14/5
f 71/15/6 75/10/6 73/12/6 69/16/6
f 76/9/1 72/17/1 70/18/1 74/11/1
f 77/5/2 78/6/2 80/7/2 79/8/2
f 79/8/3 80/7/3 84/9/3 83/10/3
f 83/10/4 84/9/4 82/11/4 81/12/4
f 81/12/5 82/11/5 78/13/5 77/14/5
f 79/15/6 83/10/6 81/12/6 77/16/6
f 84/9/1 80/17/1 78/18/1 82/11/1
f 85/5/2 86/6/2 88/7/2 87/8/2
f 87/8/3 88/7/3 92/9/3 91/10/3
f 91/10/4 92/9/4 90/11/4 89/12/4
f 89/12/5 90/11/5 86/13/5 85/14/5
f 87/15/6 91/10/6 89/12/6 85/16/6
f 92/9/1 88/17/1 86/18/1 90/11/1
f 93/5/2 94/6/2 96/7/2 95/8/2
f 95/8/3 96/7/3 100/9/3 99/10/3
f 99/10/4 100/9/4 98/11/4 97/12/4
f 97/12/5 98/11/5 94/13/5 93/14/5
f 95/15/6 99/10/6 97/12/6 93/16/6
f 100/9/1 96/17/1 94/18/1 98/11/1
f 101/5/2 102/6/2 104/7/2 103/8/2
f 103/8/3 104/7/3 108/9/3 107/10/3
f 107/10/4 108/9/4 106/11/4 105/12/4
f 105/12/5 106/11/5 102/13/5 101/14/5
f 103/15/6 107/10/6 105/12/6 101/16/6
f 108/9/1 104/17/1 102/18/1 106/11/1
f 109/5/2 110/6/2 112/7/2 111/8/2
f 111/8/3 112/7/3 116/9/3 115/10/3
f 115/10/4 116/9/4 114/11/4 113/12/4
f 113/12/5 114/11/5 110/13/5 109/14/5
f 111/15/6 115/10/6 113/12/6 109/16/6
f 116/9/1 112/17/1 110/18/1 114/11/1
f 117/5/2 118/6/2 120/7/2 119/8/2
f 119/8/3 120/7/3 124/9/3 123/10/3
f 123/10/4 124/9/4 122/11/4 121/12/4
f 121/12/5 122/11/5 118/13/5 117/14/5
f 119/15/6 123/10/6 121/12/6 117/16/6
f 124/9/1 120/17/1 118/18/1 122/11/1
f 125/5/2 126/6/2 128/7/2 127/8/2
f 127/8/3 128/7/3 132/9/3 131/10/3
f 131/10/4 132/9/4 130/11/4 129/12/4
f 129/12/5 130/11/5 126/13/5 125/14/5
f 127/15/6 131/10/6 129/12/6 125/16/6
f 132/9/1 128/17/1 126/18/1 130/11/1
f 133/5/2 134/6/2 136/7/2 135/8/2
f 135/8/3 136/7/3 140/9/3 139/10/3
f 139/10/4 140/9/4 138/11/4 137/12/4
f 137/12/5 138/11/5 134/13/5 133/14/5
f 135/15/6 139/10/6 137/12/6 133/16/6
f 140/9/1 136/17/1 134/18/1 138/11/1
f 141/5/2 142/6/2 144/7/2 143/8/2
f 143/8/3 144/7/3 148/9/3 147/10/3
f 147/10/4 148/9/4 146/11/4 145/12/4
f 145/12/5 146/11/5 142/13/5 141/14/5
f 143/15/6 147/10/6 145/12/6 141/16/6
f 148/9/1 144/17/1 142/18/1 146/11/1
f 149/5/2 150/6/2 152/7/2 151/8/2
f 151/8/3 152/7/3 156/9/3 155/10/3
f 155/10/4 156/9/4 154/11/4 153/12/4
f 153/12/5 154/11/5 150/13/5 149/14/5
f 151/15/6 155/10/6 153/12/6 149/16/6
f 156/9/1 152/17/1 150/18/1 154/11/1
f 157/5/2 158/6/2 160/7/2 159/8/2
f 159/8/3 160/7/3 164/9/3 163/10/3
f 163/10/4 164/9/4 162/11/4 161/12/4
f 161/12/5 162/11/5 158/13/5 157/14/5
f 159/15/6 163/10/6 161/12/6 157/16/6
f 164/9/1 160/17/1 158/18/1 162/11/1
f 165/5/2 166/6/2 168/7/2 167/8/2
f 167/8/3 168/7/3 172/9/3 171/10/3
f 171/10/4 172/9/4 170/11/4 169/12/4
f 169/12/5 170/11/5 166/13/5 165/14/5
f 167/15/6 171/10/6 169/12/6 165/16/6
f 172/9/1 168/17/1 166/18/1 170/11/1
f 173/5/2 174/6/2 176/7/2 175/8/2
f 175/8/3 176/7/3 180/9/3 179/10/3
f 179/10/4 180/9/4 178/11/4 177/12/4
f 177/12/5 178/11/5 174/13/5 173/14/5
f 175/15/6 179/10/6 177/12/6 173/16/6
f 180/9/1 176/17/1 174/18/1 178/11/1
f 181/5/2 182/6/2 184/7/2 183/8/2
f 183/8/3 184/7/3 188/9/3 187/10/3
f 187/10/4 188/9/4 186/11/4 185/12/4
f 185/12/5 186/11/5 182/13/5 181/14/5
f 183/15/6 187/10/6 185/12/6 181/16/6
f 188/9/1 184/17/1 182/18/1 186/11/1
f 189/5/2 190/6/2 192/7/2 191/8/2
f 191/8/3 192/7/3 196/9/3 195/10/3
f 195/10/4 196/9/4 194/11/4 193/12/4
f 193/12/5 194/11/5 190/13/5 189/14/5
f 191/15/6 195/10/6 193/12/6 189/16/6
f 196/9/1 192/17/1 190/18/1 194/11/1
f 197/5/2 198/6/2 200/7/2 199/8/2
f 199/8/3 200/7/3 204/9/3 203/10/3
f 203/10/4 204/9/4 202/11/4 201/12/4
f 201/12/5 202/11/5 198/13/5 197/14/5
f 199/15/6 203/10/6 201/12/6 197/16/6
f 204/9/1 200/17/1 198/18/1 202/11/1
f 205/5/2 206/6/2 208/7/2 207/8/2
f 207/8/3 208/7/3 212/9/3 211/10/3
f 211/10/4 212/9/4 210/11/4 209/12/4
f 209/12/5 210/11/5 206/13/5 205/14/5
f 207/15/6 211/10/6 209/12/6 205/16/6
f 212/9/1 208/17/1 206/18/1 210/11/1
f 213/5/2 214/6/2 216/7/2 215/8/2
f 215/8/3 216/7/3 220/9/3 219/10/3
f 219/10/4 220/9/4 218/11/4 217/12/4
f 217/12/5 218/11/5 214/13/5 213/14/5
f 215/15/6 219/10/6 217/12/6 213/16/6
f 220/9/1 216/17/1 214/18/1 218/11/1
f 221/5/7 222/6/7 224/7/7 223/8/7
f 223/8/8 224/7/8 228/9/8 227/10/8
f 227/10/9 228/9/9 226/11/9 225/12/9
f 225/12/10 226/11/10 222/13/10 221/14/10
f 223/15/6 227/10/6 225/12/6 221/16/6
f 228/9/1 224/17/1 222/18/1 226/11/1
f 229/5/2 230/6/2 232/7/2 231/8/2
f 231/8/3 232/7/3 236/9/3 235/10/3
f 235/10/4 236/9/4 234/11/4 233/12/4
f 233/12/5 234/11/5 230/13/5 229/14/5
f 231/15/6 235/10/6 233/12/6 229/16/6
f 236/9/1 232/17/1 230/18/1 234/11/1
