# Blender 4.2.3 LTS
# www.blender.org
mtllib Perch.mtl
o Cube.128
v 0.050000 0.000000 1.000000
v 0.050000 0.200000 1.000000
v 0.050000 0.200000 0.800000
v 0.050000 0.000000 0.600000
v 0.000000 -0.100000 0.600000
v 0.000000 0.300000 0.600000
v 0.000000 0.300000 0.500000
v 0.200000 -0.100000 0.400000
v 0.000000 0.300000 -0.200000
v 0.050000 0.300000 0.800000
v 0.050000 0.300000 0.600000
v 0.000000 0.400000 0.500000
v 0.000000 0.400000 0.400000
v 0.200000 0.400000 -0.200000
v 0.000000 -0.100000 -0.500000
v 0.000000 0.000000 -0.500000
v 0.000000 0.000000 -0.600000
v 0.000000 0.300000 -0.600000
v 0.050000 0.100000 -0.600000
v 0.050000 0.100000 -0.900000
v 0.000000 0.400000 -0.200000
v 0.050000 0.300000 -0.600000
v 0.050000 0.300000 -0.900000
v 0.150000 0.000000 1.000000
v 0.150000 0.200000 1.000000
v 0.150000 0.200000 0.800000
v 0.150000 0.000000 0.600000
v 0.200000 -0.100000 0.600000
v 0.200000 0.300000 0.600000
v 0.200000 0.300000 0.500000
v 0.200000 0.400000 0.400000
v 0.200000 0.300000 -0.200000
v 0.150000 0.300000 0.800000
v 0.150000 0.300000 0.600000
v 0.200000 0.400000 0.500000
v 0.200000 -0.100000 -0.500000
v 0.200000 0.000000 -0.500000
v 0.200000 0.000000 -0.600000
v 0.150000 0.100000 -0.600000
v 0.150000 0.100000 -0.900000
v 0.200000 0.300000 -0.600000
v 0.150000 0.300000 -0.600000
v 0.150000 0.300000 -0.900000
v 0.000000 -0.100000 0.400000
v 0.200000 -0.100000 -0.200000
v 0.000000 -0.100000 -0.200000
v 0.100000 0.600000 0.400000
v 0.100000 0.400000 0.400000
v 0.100000 0.600000 0.000000
v 0.100000 0.400000 0.000000
v 0.100000 0.500000 -0.200000
v 0.100000 0.300000 -0.200000
v 0.100000 0.500000 -0.500000
v 0.100000 0.300000 -0.500000
v 0.050000 -0.100000 0.400000
v 0.050000 -0.400000 0.400000
v 0.050000 -0.100000 0.100000
v 0.050000 -0.400000 0.100000
v 0.100000 -0.100000 -0.200000
v 0.100000 -0.300000 -0.200000
v 0.100000 -0.100000 -0.400000
v 0.100000 -0.300000 -0.400000
v 0.100000 0.400000 -1.100000
v 0.100000 0.400000 -0.900000
v 0.100000 0.000000 -1.100000
v 0.100000 -0.000000 -0.900000
v 0.150000 -0.100000 0.400000
v 0.150000 -0.400000 0.400000
v 0.150000 -0.100000 0.100000
v 0.150000 -0.400000 0.100000
vn -0.0000 -0.0000 -1.0000
vn -1.0000 -0.0000 -0.0000
vn 1.0000 -0.0000 -0.0000
vn -0.0000 -0.0000 1.0000
vn -0.0000 1.0000 -0.0000
vn -0.0000 -1.0000 -0.0000
vt 0.166667 0.500000
vt 0.166667 0.666667
vt 0.166667 0.555556
vt 0.222222 0.555556
vt 0.222222 0.666667
vt 0.222222 0.500000
vt 0.222222 -0.000000
vt -0.000000 -0.000000
vt -0.000000 0.111111
vt 0.111111 0.111111
vt 0.111111 0.166667
vt 0.222222 0.166667
vt 0.055556 0.444444
vt 0.111111 0.444444
vt 0.000000 0.166667
vt 0.000000 0.388889
vt 0.055556 0.388889
vt 0.500000 0.111111
vt 0.500000 0.000000
vt 0.666667 0.000000
vt 0.666667 0.111111
vt 0.055556 0.166667
vt 0.055556 0.222222
vt 0.000000 0.222222
vt 0.166667 0.611111
vt 0.222222 0.611111
vt 0.111111 0.222222
vt 0.055556 -0.000000
vt 0.055556 0.111111
vt -0.000000 0.055556
vt 0.222222 0.055556
vt 0.277778 0.222222
vt 0.333333 0.222222
vt 0.333333 0.333333
vt 0.277778 0.333333
vt 0.222222 0.277778
vt 0.222222 0.222222
vt 0.277778 0.277778
vt 0.333333 0.444444
vt 0.333333 0.388889
vt 0.444444 0.388889
vt 0.444444 0.444444
vt 0.500000 0.055556
vt 0.666667 0.055556
vt 0.333333 0.166667
vt 0.444444 0.222222
vt 0.444444 0.166667
vt 0.333333 0.277778
vt 0.444444 0.277778
vt 0.166667 0.388889
vt 0.166667 0.444444
vt 0.277778 0.444444
vt 0.277778 0.388889
vt 0.611111 0.000000
vt 0.611111 0.111111
vt 0.111111 0.388889
vt -0.000000 0.666667
vt -0.000000 0.611111
vt 0.000000 0.444444
vt 0.000000 0.500000
vt 0.222222 0.444444
vt 0.444444 0.555556
vt 0.833333 0.000000
vt 0.833333 0.111111
vt 0.388889 0.000000
vt 0.388889 0.166667
vt 0.388889 0.111111
vt 0.555556 0.333333
vt 0.444444 0.333333
vt 0.444444 0.111111
vt 0.555556 0.111111
s 0
usemtl Material.001
f 17/1/1 18/2/1 22/2/1 19/3/1 39/4/1 42/5/1 41/5/1 38/6/1
f 4/7/2 1/8/2 2/9/2 3/10/2 10/11/2 11/12/2
f 24/8/3 27/7/3 34/12/3 33/11/3 26/10/3 25/9/3
f 12/13/2 13/14/2 44/11/2 5/15/2 6/16/2 7/17/2
f 28/15/3 8/11/3 31/14/3 35/13/3 30/17/3 29/16/3
f 42/18/3 39/19/3 40/20/3 43/21/3
f 20/20/2 19/19/2 22/18/2 23/21/2
f 6/16/4 5/15/4 28/22/4 29/17/4 34/17/4 27/23/4 4/24/4 11/16/4
f 7/2/5 6/25/5 11/25/5 10/1/5 33/6/5 34/26/5 29/26/5 30/5/5
f 28/11/6 5/15/6 44/24/6 8/27/6
f 2/9/4 1/8/4 24/28/4 25/29/4
f 24/8/6 1/30/6 4/31/6 27/7/6
f 2/32/5 25/33/5 26/34/5 3/35/5
f 10/36/4 3/37/4 26/32/4 33/38/4
f 12/39/4 7/40/4 30/41/4 35/42/4
f 39/19/6 19/43/6 20/44/6 40/20/6
f 15/45/1 16/33/1 37/46/1 36/47/1
f 37/46/6 16/33/6 17/48/6 38/49/6
f 9/50/1 21/51/1 14/52/1 32/53/1
f 20/54/1 23/55/1 43/21/1 40/20/1
f 31/14/3 8/11/3 45/47/3 32/41/3 14/42/3
f 12/17/5 35/56/5 31/14/5 13/13/5
f 22/5/5 18/5/5 9/57/5 32/58/5 41/26/5 42/26/5
f 13/14/5 31/56/5 14/41/5 21/42/5
f 8/46/6 44/47/6 46/11/6 45/27/6
f 44/11/2 13/14/2 21/42/2 9/41/2 46/47/2
f 46/59/2 9/57/2 18/5/2 17/6/2 16/1/2 15/51/2
f 45/59/6 46/60/6 15/1/6 36/51/6
f 32/57/3 45/59/3 36/51/3 37/1/3 38/6/3 41/5/3
f 47/4/3 48/61/3 50/42/3 49/62/3
f 51/21/3 52/20/3 54/63/3 53/64/3
f 55/12/3 56/7/3 58/65/3 57/66/3
f 59/67/3 60/65/3 62/19/3 61/18/3
f 63/68/3 64/69/3 66/70/3 65/71/3
f 67/12/3 68/7/3 70/65/3 69/66/3
f 42/43/5 43/44/5 23/21/5 22/18/5
