# Blender 4.2.3 LTS
# www.blender.org
mtllib cart_body.mtl
o Cube.002
v 1.200000 0.800000 -1.100000
v 1.100000 0.900000 -1.000000
v 1.100000 0.900000 1.000000
v 1.200000 1.700000 -1.100000
v 1.100000 1.700000 1.000000
v 1.100000 1.700000 -1.000000
v 1.000000 0.800000 1.100000
v 0.900000 0.800000 1.100000
v 1.000000 0.800000 1.000000
v 0.900000 0.800000 1.000000
v 1.000000 0.800000 0.900000
v 0.900000 0.800000 0.900000
v 1.000000 0.800000 -0.900000
v 0.900000 0.800000 -0.900000
v 1.000000 0.800000 -1.000000
v 0.900000 0.800000 -1.000000
v 0.900000 0.500000 -1.000000
v 0.900000 0.500000 -0.900000
v 0.900000 0.500000 0.900000
v 0.900000 0.500000 1.000000
v 0.800000 0.800000 0.900000
v 0.800000 0.800000 -1.000000
v 0.800000 0.500000 0.900000
v 0.800000 0.500000 -0.900000
v 0.800000 0.800000 -0.900000
v 0.800000 0.500000 1.000000
v 0.800000 0.800000 1.000000
v 0.800000 0.500000 -1.000000
v 1.200000 0.800000 1.000000
v 1.200000 1.400000 -1.100000
v 1.200000 1.100000 -1.100000
v 1.200000 1.100000 1.100000
v 1.300000 1.100000 1.100000
v 1.300000 0.800000 1.100000
v 1.300000 0.800000 1.000000
v 1.300000 1.400000 -1.100000
v 1.300000 1.100000 -1.100000
v 1.300000 1.400000 -1.000000
v 1.300000 1.100000 -1.000000
v 1.300000 1.100000 1.000000
v -2.000000 0.800000 1.100000
v -2.000000 0.800000 -1.100000
v -1.900000 0.900000 -1.000000
v -1.900000 0.900000 1.000000
v -2.000000 1.700000 1.100000
v -1.900000 1.700000 1.000000
v -1.900000 1.700000 -1.000000
v -2.000000 1.100000 1.100000
v -2.000000 1.400000 1.100000
v -2.000000 1.700000 -1.000000
v -2.000000 1.400000 -1.100000
v -2.000000 1.400000 1.000000
v -2.000000 1.100000 1.000000
v -2.000000 1.400000 -1.000000
v -2.100000 1.700000 -1.000000
v -2.100000 1.700000 -1.100000
v -2.100000 1.400000 -1.100000
v -2.100000 1.100000 1.100000
v -2.100000 1.400000 1.100000
v -2.100000 1.400000 1.000000
v -2.100000 1.100000 1.000000
v -2.100000 1.400000 -1.000000
v 1.200000 1.700000 1.000000
v 1.200000 1.600000 1.100000
v 1.200000 1.600000 1.000000
v 1.200000 1.600000 -1.100000
v 2.100000 1.699999 1.000000
v 2.100000 1.699999 1.100000
v 2.100000 1.599999 1.000000
v 2.100000 1.699999 -1.100000
v 2.100000 1.699999 -1.000000
v 2.100000 1.599999 -1.000000
v 2.100000 1.599999 1.100000
v 2.100000 1.599999 -1.100000
v 1.200000 1.400000 -1.000000
v 1.200000 1.100000 1.000000
v 1.200000 1.100000 -1.000000
v -0.700000 1.700000 1.100000
v 1.200000 1.600000 -1.000000
v 1.432937 0.830667 1.000000
v 1.200000 1.700000 -1.000000
v 1.432937 0.830667 -1.000000
v -0.500000 1.700000 1.100000
v -0.500000 0.800000 1.100000
v 1.200000 0.813673 -1.256283
v -1.200000 0.800000 1.100000
v -1.100000 0.800000 1.100000
v -2.000000 0.813673 -1.256283
v -1.200000 0.800000 -1.100000
v -1.100000 0.800000 -1.100000
v -2.000000 1.700000 -1.100000
v -1.100000 0.800000 1.200000
v -1.200000 0.800000 1.200000
v -1.100000 0.700000 1.200000
v -1.200000 0.700000 1.200000
v -1.100000 0.800000 -1.200000
v -1.200000 0.800000 -1.200000
v -1.100000 0.700000 -1.200000
v -1.200000 0.700000 -1.200000
v 1.500000 1.700000 -1.000000
v 1.500000 1.700000 -1.100000
v 1.500000 1.600000 -1.100000
v 1.500000 1.600000 -1.000000
v 1.800000 1.700000 -1.000000
v 1.800000 1.600000 -1.100000
v 1.800000 1.700000 -1.100000
v 1.800000 1.600000 -1.000000
v 1.500000 1.700000 -1.150000
v 1.800000 1.750000 -1.100000
v 1.500000 1.750000 -0.950000
v 1.800000 1.750000 -0.950000
v 1.800000 1.750000 -1.150000
v 1.500000 1.750000 -1.150000
v 1.800000 1.550000 -1.000000
v 1.500000 1.550000 -1.000000
v 1.500000 1.550000 -1.100000
v 1.800000 1.550000 -1.100000
v 1.800000 1.550000 -0.950000
v 1.500000 1.550000 -0.950000
v 1.500000 1.550000 -1.150000
v 1.800000 1.550000 -1.150000
v 1.700000 1.550000 -1.000000
v 1.600000 1.550000 -1.000000
v -2.000000 1.700000 0.100000
v -1.900000 1.700000 0.100000
v 1.600000 1.550000 -1.100000
v 1.700000 1.550000 -1.100000
v -1.900000 1.700000 -0.100000
v -2.000000 1.700000 -0.100000
v 1.600000 0.650000 -1.100000
v 1.600000 0.650000 -1.000000
v 1.700000 0.650000 -1.000000
v 1.700000 0.650000 -1.100000
v -1.700000 1.900000 0.100000
v -1.700000 1.900000 -0.100000
v -1.700000 1.700000 0.100000
v -1.700000 1.700000 -0.100000
v -2.200000 1.700000 -0.100000
v -2.200000 1.900000 -0.100000
v -2.200000 1.900000 0.100000
v -2.200000 1.700000 0.100000
v -0.700000 0.800000 1.100000
v -2.200000 1.900000 0.150000
v -2.200000 1.700000 0.150000
v -2.300000 1.950000 -0.150000
v -2.200000 1.950000 -0.150000
v -2.300000 1.950000 0.150000
v -2.200000 1.950000 0.150000
v -2.200000 1.650000 -0.150000
v -2.300000 1.650000 -0.150000
v -2.300000 1.650000 0.150000
v -2.200000 1.650000 0.150000
v -0.500000 1.500000 1.100000
v -0.700000 1.500000 1.100000
v -0.500000 1.700000 1.200000
v -0.700000 1.700000 1.200000
v -0.500000 1.500000 1.200000
v -0.700000 1.500000 1.200000
v -0.500000 2.100000 1.100000
v -0.700000 2.100000 1.100000
v -0.500000 2.100000 1.200000
v -0.700000 2.100000 1.200000
v -0.500000 2.200000 1.100000
v -0.700000 2.200000 1.100000
v -0.500000 2.200000 1.200000
v -0.700000 2.200000 1.200000
v -0.500000 2.100000 1.600000
v -0.700000 2.100000 1.600000
v -0.500000 2.200000 1.600000
v -0.700000 2.200000 1.600000
v 0.700000 1.020000 -1.029289
v 0.700000 1.090711 -1.100000
v 0.700000 0.949289 -1.100000
v 0.700000 1.020000 -1.170711
v 0.800000 1.020000 -1.029289
v 0.800000 1.090711 -1.100000
v 0.800000 0.949289 -1.100000
v 0.800000 1.020000 -1.170711
v 0.700000 0.949289 -1.241421
v 0.800000 0.949289 -1.241421
v 0.800000 1.161421 -1.029289
v 0.700000 1.161421 -1.029289
v 0.600000 1.090711 -1.100000
v 0.600000 1.020000 -1.170711
v 0.600000 1.090711 -1.382843
v 0.600000 0.949289 -1.241421
v 0.600000 1.161421 -1.029289
v 0.600000 1.302843 -1.170711
v 0.900000 1.020000 -1.170711
v 0.900000 1.090711 -1.100000
v 0.900000 1.090711 -1.382843
v 0.900000 0.949289 -1.241421
v 0.900000 1.161421 -1.029289
v 0.900000 1.302843 -1.170711
v 0.900000 0.000000 -0.900000
v 1.000000 0.000000 -0.900000
v 1.000000 0.000000 1.000000
v 1.000000 0.000000 0.900000
v 0.900000 0.000000 0.900000
v 0.900000 0.000000 1.000000
v 1.000000 0.000000 -1.000000
v 0.900000 0.000000 -1.000000
vn -1.0000 -0.0000 -0.0000
vn -0.0000 1.0000 -0.0000
vn -0.0000 -0.0000 1.0000
vn -0.0000 -1.0000 -0.0000
vn 1.0000 -0.0000 -0.0000
vn -0.0000 -0.0000 -1.0000
vn 0.9659 0.2588 -0.0000
vn -0.0000 0.1736 -0.9848
vn -0.0000 -0.7071 -0.7071
vn -0.0000 0.7071 0.7071
vn -0.0000 -0.7071 0.7071
vn -0.0000 0.7071 -0.7071
vt 0.312500 0.875000
vt 0.000000 0.875000
vt 0.000000 1.000000
vt 0.312500 1.000000
vt 0.343750 0.984375
vt 0.343750 0.671875
vt 0.812500 0.671875
vt 0.812500 0.984375
vt 0.000000 0.671875
vt 0.078125 0.671875
vt 0.078125 0.703125
vt 0.046875 0.703125
vt 0.031250 0.703125
vt 0.000000 0.703125
vt 0.703125 0.390625
vt 0.703125 0.515625
vt 0.687500 0.515625
vt 0.671875 0.515625
vt 0.671875 0.468750
vt 0.687500 0.468750
vt 0.687500 0.390625
vt 0.984375 0.046875
vt 0.984375 0.062500
vt 1.000000 0.062500
vt 1.000000 0.046875
vt 0.687500 0.046875
vt 0.687500 0.062500
vt 0.968750 0.062500
vt 0.968750 0.046875
vt 0.703125 0.468750
vt 0.703125 0.390625
vt -0.000000 0.406250
vt -0.000000 0.281250
vt 0.468750 0.281250
vt 0.468750 0.406250
vt 0.656250 0.390625
vt 0.656250 0.515625
vt 0.640625 0.515625
vt 0.640625 0.390625
vt 0.687500 0.484375
vt 0.671875 0.484375
vt 0.640625 0.468750
vt 0.625000 0.468750
vt 0.625000 0.515625
vt 0.515625 0.093750
vt 0.515625 0.078125
vt 0.531250 0.078125
vt 0.531250 0.093750
vt 0.515625 0.187500
vt 0.515625 0.171875
vt 0.531250 0.171875
vt 0.531250 0.187500
vt 0.515625 0.046875
vt 0.531250 0.046875
vt 0.515625 0.140625
vt 0.531250 0.140625
vt 1.000000 0.390625
vt 1.000000 0.515625
vt 0.515625 0.062500
vt 0.531250 0.062500
vt 0.156250 0.406250
vt 0.156250 0.281250
vt 0.328125 0.406250
vt 0.296875 0.406250
vt 0.093750 0.234375
vt 0.078125 0.234375
vt 0.078125 0.140625
vt 0.421875 0.140625
vt 0.421875 0.187500
vt 0.406250 0.187500
vt 0.406250 0.234375
vt 0.421875 0.234375
vt 0.421875 0.281250
vt 0.265625 0.281250
vt 0.234375 0.281250
vt 0.093750 0.281250
vt 0.015625 0.234375
vt 0.015625 0.187500
vt 0.000000 0.187500
vt 0.000000 0.234375
vt 0.000000 0.140625
vt 0.015625 0.140625
vt 0.015625 0.093750
vt 0.000000 0.093750
vt 0.015625 0.203125
vt -0.000000 0.203125
vt 0.015625 0.109375
vt 0.000000 0.109375
vt 0.015625 0.218750
vt -0.000000 0.218750
vt 0.515625 0.265625
vt 0.515625 0.281250
vt 0.656250 0.281250
vt 0.656250 0.265625
vt 0.796875 0.375000
vt 0.796875 0.000000
vt 0.781250 0.000000
vt 0.781250 0.015625
vt 0.781250 0.359375
vt 0.781250 0.375000
vt 0.640625 0.281250
vt 0.640625 0.265625
vt 0.640625 0.140625
vt 0.640625 0.125000
vt 0.656250 0.125000
vt 0.656250 0.140625
vt 0.921875 1.000000
vt 0.921875 0.984375
vt 0.968750 0.984375
vt 0.968750 1.000000
vt 0.609375 0.125000
vt 0.609375 0.140625
vt 0.000000 0.718750
vt 0.312500 0.718750
vt 0.312500 0.859375
vt 0.000000 0.859375
vt 0.500000 0.640625
vt 1.000000 0.640625
vt 0.500000 0.515625
vt 1.000000 0.000000
vt 0.671875 0.046875
vt 0.671875 0.062500
vt 1.000000 0.281250
vt 1.000000 0.312500
vt 1.000000 0.375000
vt 0.656250 0.375000
vt 0.656250 0.015625
vt 0.984375 0.015625
vt 0.984375 0.000000
vt 0.859375 0.859375
vt 0.843750 0.859375
vt 0.843750 0.843750
vt 0.859375 0.843750
vt 0.531250 0.281250
vt 0.218750 0.281250
vt 0.218750 0.265625
vt 0.203125 0.265625
vt 0.203125 0.187500
vt 0.218750 0.187500
vt 0.218750 0.140625
vt 0.546875 0.140625
vt 0.546875 0.187500
vt 0.531250 0.234375
vt 0.546875 0.234375
vt 0.546875 0.265625
vt 0.531250 0.265625
vt 0.796875 0.359375
vt 0.781250 0.453125
vt 0.796875 0.453125
vt 0.796875 0.437500
vt 0.781250 0.437500
vt 0.796875 0.015625
vt 0.515625 0.125000
vt 0.562500 0.125000
vt 0.562500 0.140625
vt 0.501430 0.426643
vt 0.514330 0.426643
vt 0.514330 0.423082
vt 0.511104 0.423082
vt 0.504654 0.423082
vt 0.504654 0.415961
vt 0.504654 0.412400
vt 0.501430 0.412400
vt 0.515625 0.406250
vt 0.515625 0.437500
vt 0.468750 0.437500
vt 0.250000 0.250000
vt 0.250000 0.140625
vt 0.468750 0.140625
vt 0.484375 0.140625
vt 0.250000 0.281250
vt 0.515160 0.413739
vt 0.515160 0.426586
vt 0.511465 0.426586
vt 0.511465 0.423374
vt 0.511465 0.416951
vt 0.511465 0.413739
vt 0.468750 0.435193
vt 0.218750 0.250000
vt 0.515625 0.421875
vt 0.140625 0.140625
vt 0.156250 0.140625
vt 0.015625 0.281250
vt 0.504076 0.413739
vt 0.504076 0.416951
vt 0.504076 0.423374
vt 0.500381 0.426586
vt 0.500381 0.413739
vt 0.500000 0.406250
vt 0.484375 0.437500
vt 0.484375 0.406250
vt 0.511104 0.412400
vt 0.511104 0.415961
vt 0.514330 0.412400
vt 0.531250 0.421875
vt 0.828125 0.984375
vt 0.875000 0.984375
vt 0.875000 1.000000
vt 0.828125 1.000000
vt 0.328125 1.000000
vt 0.312500 0.984375
vt 0.328125 0.984375
vt 0.328125 0.843750
vt 0.343750 0.843750
vt 0.343750 0.812500
vt 0.328125 0.812500
vt 0.328125 0.656250
vt 0.531250 0.656250
vt 0.562500 0.656250
vt 0.968750 0.656250
vt 0.968750 0.671875
vt 0.828125 0.671875
vt 0.546875 0.421875
vt 0.546875 0.281250
vt 0.515625 0.390625
vt 0.531250 0.406250
vt 0.531250 0.390625
vt 0.484375 0.426758
vt 0.468750 0.426758
vt 0.515625 0.426025
vt 0.500000 0.427856
vt 0.140625 0.671875
vt 0.171875 0.671875
vt 0.171875 0.703125
vt 0.140625 0.703125
vt 0.046875 0.671875
vt 0.031250 0.671875
vt 0.515625 -0.000000
vt 0.156250 -0.000000
vt 0.140625 -0.000000
vt 0.015625 -0.000000
vt 0.078125 0.718750
vt 0.093750 0.671875
vt 0.093750 0.679388
vt 0.093750 0.710850
vt 0.093750 0.718750
vt 0.156250 0.687500
vt 0.156250 0.703125
vt 0.140625 0.687500
vt 0.187500 0.718750
vt 0.140625 0.718750
vt 0.171875 0.687500
vt 0.187500 0.671875
vt 0.468750 0.296875
vt 0.500000 0.296875
vt 0.500000 0.281250
vt 0.500000 0.312500
vt 0.468750 0.312500
vt 0.484375 0.312500
vt 0.484375 0.281250
vt 0.500000 0.375000
vt 0.484375 0.375000
vt 0.500000 0.390625
vt 0.484375 0.390625
vt 0.468750 0.375000
vt 0.468750 0.390625
vt 0.484375 0.359375
vt 0.468750 0.359375
vt 0.468750 0.343750
vt 0.500000 0.343750
vt 0.500000 0.359375
vt 0.484375 0.343750
vt 0.937500 0.937500
vt 0.921875 0.937500
vt 0.921875 0.921875
vt 0.937500 0.921875
vt 0.906250 0.937500
vt 0.953125 0.937500
vt 0.953125 0.968750
vt 0.906250 0.968750
vt 0.879693 0.898031
vt 0.879693 0.891814
vt 0.879693 0.910464
vt 0.879693 0.885598
vt 0.879693 0.904247
vt 0.859375 0.921875
vt 0.906250 0.921875
vt 0.859375 0.968750
vt 0.703125 0.281250
vt 0.718750 0.281250
vt 0.718750 0.265625
vt 0.703125 0.265625
vt 0.718750 0.312500
vt 0.703125 0.312500
vt 0.703125 0.328125
vt 0.718750 0.328125
s 0
usemtl Material
f 2/1/1 3/2/1 5/3/1 6/4/1
f 43/5/2 44/6/2 3/7/2 2/8/2
f 134/9/3 140/10/3 141/11/3 124/12/3 125/13/3 136/14/3
f 196/15/3 13/16/3 14/17/3 25/18/3 24/19/3 18/20/3 195/21/3
f 8/22/4 10/23/4 9/24/4 7/25/4
f 198/15/5 11/16/5 9/17/5 197/21/5
f 11/26/4 12/27/4 14/28/4 13/29/4
f 200/21/1 20/20/1 19/30/1 199/31/1
f 19/20/6 23/19/6 21/18/6 12/17/6 11/16/6 198/15/6 199/21/6
f 47/32/3 43/33/3 2/34/3 6/35/3
f 201/36/5 15/37/5 13/38/5 196/39/5
f 195/21/1 18/20/1 17/30/1 202/31/1
f 25/18/1 22/17/1 28/20/1 24/19/1
f 23/20/1 26/19/1 27/18/1 21/17/1
f 19/40/4 20/20/4 26/19/4 23/41/4
f 17/40/4 18/20/4 24/19/4 28/41/4
f 17/42/6 28/43/6 22/44/6 16/38/6 15/37/6 201/36/6 202/39/6
f 30/45/2 75/46/2 38/47/2 36/48/2
f 197/15/3 9/16/3 10/17/3 27/18/3 26/19/3 20/20/3 200/21/3
f 76/49/2 32/50/2 33/51/2 40/52/2
f 38/45/5 39/53/5 37/54/5 36/48/5
f 33/49/5 34/55/5 35/56/5 40/52/5
f 75/45/3 77/53/3 39/54/3 38/48/3
f 41/57/4 42/36/4 89/37/4 86/58/4
f 77/53/4 31/59/4 37/60/4 39/54/4
f 29/55/6 76/49/6 40/52/6 35/56/6
f 46/61/5 44/62/5 43/34/5 47/35/5 128/63/5 125/64/5
f 54/65/1 51/66/1 42/67/1 41/68/1 48/69/1 53/70/1 52/71/1 49/72/1 45/73/1 124/74/1 129/75/1 50/76/1
f 52/77/6 53/78/6 61/79/6 60/80/6
f 59/80/1 60/77/1 61/78/1 58/79/1
f 55/81/1 56/82/1 57/83/1 62/84/1
f 53/85/4 48/78/4 58/79/4 61/86/4
f 51/87/4 54/83/4 62/84/4 57/88/4
f 49/89/2 52/77/2 60/80/2 59/90/2
f 54/83/3 50/82/3 55/81/3 62/84/3
f 44/33/6 46/32/6 5/35/6 3/34/6
f 64/91/4 65/92/4 69/93/4 73/94/4
f 99/95/1 95/96/1 93/97/1 86/98/1 89/99/1 97/100/1
f 67/93/5 68/101/5 73/102/5 69/94/5
f 71/103/5 72/104/5 74/105/5 70/106/5
f 106/107/2 104/108/2 71/109/2 70/110/2
f 107/111/4 105/112/4 74/106/4 72/105/4
f 104/112/3 107/111/3 72/105/3 71/106/3
f 65/91/6 63/92/6 67/93/6 69/94/6
f 105/111/6 106/112/6 70/106/6 74/105/6
f 80/113/7 82/114/7 81/115/7 63/116/7
f 91/117/8 4/118/8 85/58/8 88/119/8
f 98/95/5 96/100/5 90/99/5 87/98/5 92/97/5 94/96/5
f 34/120/4 7/25/4 9/22/4 11/29/4 13/26/4 15/121/4 16/122/4 14/27/4 12/28/4 10/23/4 8/24/4 84/123/4 142/124/4 87/125/4 90/126/4 1/127/4 29/128/4 35/129/4
f 92/130/3 93/131/3 95/132/3 94/133/3
f 81/134/5 63/135/5 65/136/5 64/137/5 32/138/5 76/139/5 29/140/5 1/141/5 31/142/5 77/52/5 75/143/5 30/144/5 66/145/5 79/146/5
f 87/95/2 86/100/2 93/99/2 92/147/2
f 95/97/4 99/100/4 98/95/4 94/96/4
f 97/148/6 96/149/6 98/150/6 99/151/6
f 89/97/2 90/96/2 96/152/2 97/98/2
f 135/9/6 137/14/6 128/13/6 129/12/6 138/11/6 139/10/6
f 81/55/3 79/153/3 103/154/3 100/155/3
f 79/153/4 66/55/4 102/155/4 103/154/4
f 110/156/1 113/157/1 108/158/1 101/159/1 100/160/1 103/161/1 115/162/1 119/163/1
f 119/35/3 118/164/3 111/165/3 110/166/3
f 153/167/3 84/168/3 8/169/3 7/170/3 34/56/3 33/52/3 32/49/3 64/91/3 73/94/3 68/93/3 83/171/3
f 121/172/5 112/173/5 109/174/5 106/175/5 105/176/5 117/177/5
f 108/178/6 113/166/6 112/165/6 121/164/6 120/35/6
f 84/168/3 153/167/3 154/179/3 142/140/3
f 113/166/2 110/35/2 111/164/2 109/180/2 112/165/2
f 49/77/3 59/80/3 58/79/3 48/78/3 41/82/3 86/181/3 87/182/3 142/140/3 154/179/3 78/135/3 45/183/3
f 114/184/5 117/177/5 105/176/5 107/185/5 104/186/5 106/175/5 109/174/5 111/187/5 118/188/5
f 122/189/4 114/164/4 118/164/4 119/35/4 115/35/4 116/166/4 126/190/4 123/191/4
f 116/192/1 115/162/1 103/161/1 102/193/1 101/159/1 108/158/1 120/194/1
f 140/11/2 134/14/2 135/9/2 139/10/2
f 122/195/3 123/180/3 131/92/3 132/134/3
f 81/196/2 100/197/2 101/198/2 4/199/2 91/200/2 56/4/2 55/201/2 50/202/2 129/203/2 128/204/2 47/5/2 6/8/2 5/7/2 46/6/2 125/205/2 124/206/2 45/207/2 78/208/2 83/209/2 68/210/2 67/211/2 63/212/2
f 126/180/6 127/195/6 133/134/6 130/92/6
f 123/195/1 126/213/1 130/214/1 131/134/1
f 131/215/4 130/164/4 133/216/4 132/217/4
f 126/218/4 116/219/4 120/166/4 121/165/4 117/220/4 114/164/4 122/189/4 127/221/4
f 122/195/5 132/134/5 133/214/5 127/213/5
f 136/222/5 137/223/5 135/224/5 134/225/5
f 125/11/4 128/10/4 137/226/4 136/12/4
f 129/9/4 124/14/4 141/13/4 138/227/4
f 51/83/6 57/84/6 56/81/6 91/82/6 4/55/6 101/155/6 102/154/6 66/153/6 30/45/6 36/48/6 37/54/6 31/53/6 1/228/6 90/229/6 89/230/6 42/231/6
f 147/232/3 151/10/3 152/233/3 144/234/3 143/235/3 148/236/3
f 145/232/6 146/236/6 149/233/6 150/10/6
f 141/237/5 140/238/5 143/225/5 144/239/5
f 149/10/4 152/232/4 151/236/4 150/233/4
f 148/232/2 146/10/2 145/233/2 147/236/2
f 146/240/5 148/241/5 143/225/5 140/238/5 139/224/5 138/242/5 141/237/5 144/239/5 152/222/5 149/243/5
f 151/233/1 147/236/1 145/241/1 150/222/1
f 154/244/4 153/245/4 157/246/4 158/34/4
f 158/34/3 157/246/3 155/247/3 156/248/3
f 153/246/5 83/247/5 155/249/5 157/250/5
f 155/249/5 83/247/5 159/251/5 161/252/5
f 78/249/1 154/250/1 158/34/1 156/248/1
f 161/252/5 159/251/5 163/253/5 165/254/5
f 83/247/6 78/248/6 160/255/6 159/251/6
f 156/248/3 155/247/3 161/251/3 162/255/3
f 78/249/1 156/248/1 162/255/1 160/252/1
f 163/253/2 164/256/2 166/255/2 165/251/2
f 159/251/6 160/255/6 164/256/6 163/253/6
f 160/252/1 162/255/1 166/256/1 164/254/1
f 166/252/1 162/257/1 168/258/1 170/255/1
f 168/259/3 167/260/3 169/261/3 170/258/3
f 161/260/5 165/261/5 169/257/5 167/262/5
f 165/251/2 166/255/2 170/248/2 169/247/2
f 162/255/4 161/251/4 167/247/4 168/248/4
f 171/263/1 172/264/1 174/265/1 173/266/1
f 173/263/9 174/264/9 178/265/9 177/266/9
f 177/263/5 178/264/5 176/265/5 175/266/5
f 175/263/10 176/264/10 172/265/10 171/266/10
f 173/263/11 177/264/11 175/265/11 171/266/11
f 186/267/1 184/264/1 183/263/1 187/268/1 188/269/1 185/270/1
f 193/267/5 190/264/5 189/263/5 192/268/5 191/269/5 194/270/5
f 192/271/11 189/271/11 178/271/11 174/272/11 172/273/11 182/273/11 187/273/11 183/274/11 184/272/11 186/272/11 179/272/11 180/271/11
f 182/273/11 172/273/11 176/275/11 178/271/11 189/271/11 190/275/11 193/275/11 181/275/11
f 194/269/10 188/270/10 187/267/10 182/264/10 181/263/10 193/268/10
f 191/276/12 185/277/12 188/270/12 194/278/12
f 180/264/9 179/263/9 186/268/9 185/269/9 191/270/9 192/267/9
f 196/279/4 195/280/4 202/281/4 201/282/4
f 199/283/4 198/284/4 197/285/4 200/286/4
