# Blender 4.2.3 LTS
# www.blender.org
mtllib cart_wheels.mtl
o Cube.001
v -0.499999 0.299998 1.199999
v -0.699998 0.099999 1.199999
v -0.599997 0.199997 1.199999
v -0.599997 0.299998 1.199999
v -0.699998 0.199997 1.199999
v -0.399998 0.499997 1.199999
v -0.499999 0.499997 1.199999
v -0.399998 0.999999 1.199999
v -0.699998 0.399999 1.199999
v -0.599997 0.499997 1.199999
v -0.699998 0.499997 1.199999
v -0.599997 0.699999 1.199999
v -0.599997 0.699999 1.300000
v -0.899997 0.099999 1.199999
v -0.699998 0.099999 1.399998
v -0.899997 -0.000002 1.199999
v -0.799999 0.299998 1.199999
v -0.899997 0.199997 1.199999
v -0.899997 0.299998 1.199999
v -0.899997 -0.000002 1.399998
v -1.200000 0.000000 1.200000
v -1.099999 0.199997 1.199999
v -1.099999 0.199997 1.300000
v -0.799999 0.399999 1.199999
v -0.999998 0.699999 1.199999
v -0.999998 0.699999 1.300000
v -1.099999 0.599998 1.199999
v -1.099999 0.599998 1.300000
v -0.999998 0.599998 1.199999
v -0.999998 0.599998 1.300000
v -1.199997 0.899998 1.300000
v -0.599997 0.799997 1.199999
v -0.499999 0.999999 1.199999
v -0.499999 1.199998 1.399998
v -0.599997 0.799997 1.300000
v -0.599997 0.999999 1.199999
v -0.699998 0.999999 1.199999
v -0.699998 1.099997 1.199999
v -0.499999 1.199998 1.199999
v -0.599997 1.199998 1.199999
v -0.599997 1.299999 1.199999
v -0.799999 1.199998 1.199999
v -0.699998 1.299999 1.199999
v -0.699998 1.399997 1.199999
v -0.999998 0.799997 1.199999
v -0.999998 0.799997 1.300000
v -0.799999 1.099997 1.199999
v -0.999998 0.899998 1.199999
v -0.999998 0.899998 1.300000
v -1.099999 0.899998 1.199999
v -1.099999 0.899998 1.300000
v -0.899997 1.199998 1.199999
v -0.899997 1.299999 1.199999
v -0.899997 1.399997 1.199999
v -0.899997 1.499998 1.199999
v -1.099999 1.299999 1.300000
v -1.099999 1.299999 1.199999
v -1.399999 1.499998 1.199999
v -0.499999 0.299998 1.399998
v -0.599997 0.199997 1.399998
v -0.599997 0.299998 1.399998
v -0.699998 0.199997 1.399998
v -0.699998 0.399999 1.399998
v -0.399998 0.499997 1.399998
v -0.499999 0.499997 1.399998
v -0.499999 0.999999 1.399998
v -0.599997 0.499997 1.399998
v -0.699998 0.499997 1.399998
v -0.599997 0.999999 1.399998
v -0.899997 0.099999 1.399998
v -0.799999 0.299998 1.399998
v -0.899997 0.199997 1.399998
v -0.899997 0.299998 1.399998
v -1.399999 0.099999 1.399998
v -1.399999 0.199997 1.399998
v -0.799999 0.399999 1.399998
v -0.399998 0.999999 1.399998
v -0.699998 1.099997 1.399998
v -0.699998 0.999999 1.399998
v -0.599997 1.199998 1.399998
v -0.599997 1.299999 1.399998
v -0.699998 1.299999 1.399998
v -0.799999 1.199998 1.399998
v -0.699998 1.399997 1.399998
v -0.799999 1.099997 1.399998
v -0.899997 1.199998 1.399998
v -0.899997 1.299999 1.399998
v -0.899997 1.399997 1.399998
v -0.899997 1.499998 1.399998
v -1.399999 1.299999 1.399998
v -1.399999 1.399997 1.399998
v -1.199997 0.199997 1.199999
v -1.399999 -0.000002 1.199999
v -1.399999 0.099999 1.199999
v -1.399999 -0.000002 1.399998
v -1.199997 0.199997 1.300000
v -1.599998 0.099999 1.399998
v -1.399999 0.199997 1.199999
v -1.399999 0.299998 1.199999
v -1.499997 0.299998 1.199999
v -1.199997 0.599998 1.199999
v -1.199997 0.599998 1.300000
v -1.299998 0.599998 1.199999
v -1.299998 0.699999 1.199999
v -1.299998 0.599998 1.300000
v -1.299998 0.699999 1.300000
v -1.499997 0.399999 1.199999
v -1.599998 0.099999 1.199999
v -1.599998 0.199997 1.199999
v -1.599998 0.399999 1.199999
v -1.699999 0.199997 1.199999
v -1.699999 0.299998 1.199999
v -1.799997 0.299998 1.199999
v -1.599998 0.499997 1.199999
v -1.699999 0.499997 1.199999
v -1.699999 0.699999 1.199999
v -1.699999 0.699999 1.300000
v -1.799997 0.499997 1.199999
v -1.899998 0.499997 1.199999
v -1.199997 0.899998 1.199999
v -1.299998 0.799997 1.199999
v -1.299998 0.899998 1.199999
v -1.299998 0.799997 1.300000
v -1.299998 0.899998 1.300000
v -1.499997 1.099997 1.199999
v -1.199997 1.299999 1.199999
v -1.199997 1.299999 1.300000
v -1.399999 1.399997 1.199999
v -1.399999 1.199998 1.199999
v -1.399999 1.299999 1.199999
v -1.499997 1.199998 1.199999
v -1.599998 1.399997 1.399998
v -1.699999 0.799997 1.199999
v -1.699999 0.799997 1.300000
v -1.599998 0.999999 1.199999
v -1.599998 1.099997 1.199999
v -1.699999 0.999999 1.199999
v -1.799997 0.999999 1.199999
v -1.899998 0.999999 1.199999
v -1.799997 1.199998 1.399998
v -1.599998 1.299999 1.199999
v -1.699999 1.199998 1.199999
v -1.699999 1.299999 1.199999
v -1.599998 1.399997 1.199999
v -1.799997 1.199998 1.199999
v -1.399999 0.299998 1.399998
v -1.499997 0.299998 1.399998
v -1.499997 0.399999 1.399998
v -1.599998 0.199997 1.399998
v -1.599998 0.399999 1.399998
v -1.699999 0.199997 1.399998
v -1.699999 0.299998 1.399998
v -1.799997 0.299998 1.399998
v -1.599998 0.499997 1.399998
v -1.699999 0.499997 1.399998
v -1.699999 0.999999 1.399998
v -1.799997 0.499997 1.399998
v -1.899998 0.499997 1.399998
v -1.799997 0.999999 1.399998
v -1.899998 0.999999 1.399998
v -1.499997 1.099997 1.399998
v -1.399999 1.499998 1.399998
v -1.399999 1.199998 1.399998
v -1.499997 1.199998 1.399998
v -1.599998 0.999999 1.399998
v -1.599998 1.099997 1.399998
v -1.599998 1.299999 1.399998
v -1.699999 1.199998 1.399998
v -1.699999 1.299999 1.399998
v -1.800001 0.299998 -1.199999
v -1.600002 0.099999 -1.199999
v -1.700003 0.199997 -1.199999
v -1.700003 0.299998 -1.199999
v -1.600002 0.199997 -1.199999
v -1.900002 0.499997 -1.199999
v -1.800001 0.499997 -1.199999
v -1.900002 0.999999 -1.199999
v -1.600002 0.399999 -1.199999
v -1.700003 0.499997 -1.199999
v -1.600002 0.499997 -1.199999
v -1.700003 0.699999 -1.199999
v -1.700003 0.699999 -1.300000
v -1.400003 0.099999 -1.199999
v -1.600002 0.099999 -1.399998
v -1.400003 -0.000002 -1.199999
v -1.500001 0.299998 -1.199999
v -1.400003 0.199997 -1.199999
v -1.400003 0.299998 -1.199999
v -1.400003 -0.000002 -1.399998
v -1.200000 0.000000 -1.200000
v -1.200001 0.199997 -1.199999
v -1.200001 0.199997 -1.300000
v -1.500001 0.399999 -1.199999
v -1.300002 0.699999 -1.199999
v -1.300002 0.699999 -1.300000
v -1.200001 0.599998 -1.199999
v -1.200001 0.599998 -1.300000
v -1.300002 0.599998 -1.199999
v -1.300002 0.599998 -1.300000
v -1.100003 0.899998 -1.300000
v -1.700003 0.799997 -1.199999
v -1.800001 0.999999 -1.199999
v -1.800001 1.199998 -1.399998
v -1.700003 0.799997 -1.300000
v -1.700003 0.999999 -1.199999
v -1.600002 0.999999 -1.199999
v -1.600002 1.099997 -1.199999
v -1.800001 1.199998 -1.199999
v -1.700003 1.199998 -1.199999
v -1.700003 1.299999 -1.199999
v -1.500001 1.199998 -1.199999
v -1.600002 1.299999 -1.199999
v -1.600002 1.399997 -1.199999
v -1.300002 0.799997 -1.199999
v -1.300002 0.799997 -1.300000
v -1.500001 1.099997 -1.199999
v -1.300002 0.899998 -1.199999
v -1.300002 0.899998 -1.300000
v -1.200001 0.899998 -1.199999
v -1.200001 0.899998 -1.300000
v -1.400003 1.199998 -1.199999
v -1.400003 1.299999 -1.199999
v -1.400003 1.399997 -1.199999
v -1.400003 1.499998 -1.199999
v -1.200001 1.299999 -1.300000
v -1.200001 1.299999 -1.199999
v -0.900001 1.499998 -1.199999
v -1.800001 0.299998 -1.399998
v -1.700003 0.199997 -1.399998
v -1.700003 0.299998 -1.399998
v -1.600002 0.199997 -1.399998
v -1.600002 0.399999 -1.399998
v -1.900002 0.499997 -1.399998
v -1.800001 0.499997 -1.399998
v -1.800001 0.999999 -1.399998
v -1.700003 0.499997 -1.399998
v -1.600002 0.499997 -1.399998
v -1.700003 0.999999 -1.399998
v -1.400003 0.099999 -1.399998
v -1.500001 0.299998 -1.399998
v -1.400003 0.199997 -1.399998
v -1.400003 0.299998 -1.399998
v -0.900001 0.099999 -1.399998
v -0.900001 0.199997 -1.399998
v -1.500001 0.399999 -1.399998
v -1.900002 0.999999 -1.399998
v -1.600002 1.099997 -1.399998
v -1.600002 0.999999 -1.399998
v -1.700003 1.199998 -1.399998
v -1.700003 1.299999 -1.399998
v -1.600002 1.299999 -1.399998
v -1.500001 1.199998 -1.399998
v -1.600002 1.399997 -1.399998
v -1.500001 1.099997 -1.399998
v -1.400003 1.199998 -1.399998
v -1.400003 1.299999 -1.399998
v -1.400003 1.399997 -1.399998
v -1.400003 1.499998 -1.399998
v -0.900001 1.299999 -1.399998
v -0.900001 1.399997 -1.399998
v -1.100003 0.199997 -1.199999
v -0.900001 -0.000002 -1.199999
v -0.900001 0.099999 -1.199999
v -0.900001 -0.000002 -1.399998
v -1.100003 0.199997 -1.300000
v -0.700002 0.099999 -1.399998
v -0.900001 0.199997 -1.199999
v -0.900001 0.299998 -1.199999
v -0.800003 0.299998 -1.199999
v -1.100003 0.599998 -1.199999
v -1.100003 0.599998 -1.300000
v -1.000002 0.599998 -1.199999
v -1.000002 0.699999 -1.199999
v -1.000002 0.599998 -1.300000
v -1.000002 0.699999 -1.300000
v -0.800003 0.399999 -1.199999
v -0.700002 0.099999 -1.199999
v -0.700002 0.199997 -1.199999
v -0.700002 0.399999 -1.199999
v -0.600001 0.199997 -1.199999
v -0.600001 0.299998 -1.199999
v -0.500003 0.299998 -1.199999
v -0.700002 0.499997 -1.199999
v -0.600001 0.499997 -1.199999
v -0.600001 0.699999 -1.199999
v -0.600001 0.699999 -1.300000
v -0.500003 0.499997 -1.199999
v -0.400002 0.499997 -1.199999
v -1.100003 0.899998 -1.199999
v -1.000002 0.799997 -1.199999
v -1.000002 0.899998 -1.199999
v -1.000002 0.799997 -1.300000
v -1.000002 0.899998 -1.300000
v -0.800003 1.099997 -1.199999
v -1.100003 1.299999 -1.199999
v -1.100003 1.299999 -1.300000
v -0.900001 1.399997 -1.199999
v -0.900001 1.199998 -1.199999
v -0.900001 1.299999 -1.199999
v -0.800003 1.199998 -1.199999
v -0.700002 1.399997 -1.399998
v -0.600001 0.799997 -1.199999
v -0.600001 0.799997 -1.300000
v -0.700002 0.999999 -1.199999
v -0.700002 1.099997 -1.199999
v -0.600001 0.999999 -1.199999
v -0.500003 0.999999 -1.199999
v -0.400002 0.999999 -1.199999
v -0.500003 1.199998 -1.399998
v -0.700002 1.299999 -1.199999
v -0.600001 1.199998 -1.199999
v -0.600001 1.299999 -1.199999
v -0.700002 1.399997 -1.199999
v -0.500003 1.199998 -1.199999
v -0.900001 0.299998 -1.399998
v -0.800003 0.299998 -1.399998
v -0.800003 0.399999 -1.399998
v -0.700002 0.199997 -1.399998
v -0.700002 0.399999 -1.399998
v -0.600001 0.199997 -1.399998
v -0.600001 0.299998 -1.399998
v -0.500003 0.299998 -1.399998
v -0.700002 0.499997 -1.399998
v -0.600001 0.499997 -1.399998
v -0.600001 0.999999 -1.399998
v -0.500003 0.499997 -1.399998
v -0.400002 0.499997 -1.399998
v -0.500003 0.999999 -1.399998
v -0.400002 0.999999 -1.399998
v -0.800003 1.099997 -1.399998
v -0.900001 1.499998 -1.399998
v -0.900001 1.199998 -1.399998
v -0.800003 1.199998 -1.399998
v -0.700002 0.999999 -1.399998
v -0.700002 1.099997 -1.399998
v -0.700002 1.299999 -1.399998
v -0.600001 1.199998 -1.399998
v -0.600001 1.299999 -1.399998
vn -0.0000 -0.0000 1.0000
vn -0.0000 -1.0000 -0.0000
vn 1.0000 -0.0000 -0.0000
vn -1.0000 -0.0000 -0.0000
vn -0.0000 1.0000 -0.0000
vn -0.0000 -0.0000 -1.0000
vt 0.171875 0.593750
vt 0.156250 0.593750
vt 0.156250 0.609375
vt 0.078125 0.609375
vt 0.078125 0.593750
vt 0.062500 0.593750
vt 0.062500 0.578125
vt 0.046875 0.578125
vt 0.046875 0.562500
vt 0.031250 0.562500
vt 0.015625 0.562500
vt 0.015625 0.593750
vt 0.031250 0.593750
vt 0.031250 0.609375
vt 0.046875 0.609375
vt 0.046875 0.625000
vt 0.078125 0.625000
vt 0.078125 0.640625
vt 0.156250 0.640625
vt 0.156250 0.625000
vt 0.187500 0.625000
vt 0.187500 0.609375
vt 0.203125 0.609375
vt 0.203125 0.593750
vt 0.218750 0.593750
vt 0.218750 0.562500
vt 0.234375 0.562500
vt 0.234375 0.484375
vt 0.218750 0.484375
vt 0.218750 0.453125
vt 0.203125 0.453125
vt 0.187500 0.468750
vt 0.187500 0.484375
vt 0.203125 0.484375
vt 0.203125 0.562500
vt 0.187500 0.562500
vt 0.187500 0.578125
vt 0.171875 0.578125
vt 0.156250 0.406250
vt 0.109375 0.406250
vt 0.078125 0.406250
vt 0.078125 0.421875
vt 0.156250 0.421875
vt 0.000000 0.562500
vt 0.015625 0.484375
vt 0.000000 0.484375
vt 0.046875 0.437500
vt 0.078125 0.437500
vt 0.046875 0.421875
vt 0.187500 0.437500
vt 0.187500 0.421875
vt 0.031250 0.437500
vt 0.031250 0.453125
vt 0.015625 0.453125
vt 0.031250 0.484375
vt 0.046875 0.484375
vt 0.046875 0.468750
vt 0.062500 0.468750
vt 0.062500 0.453125
vt 0.078125 0.453125
vt 0.156250 0.437500
vt 0.156250 0.453125
vt 0.171875 0.453125
vt 0.171875 0.468750
vt 0.203125 0.437500
vt 0.109375 0.546875
vt 0.109375 0.609375
vt 0.125000 0.609375
vt 0.125000 0.546875
vt 0.140625 0.546875
vt 0.140625 0.531250
vt 0.203125 0.531250
vt 0.203125 0.515625
vt 0.140625 0.515625
vt 0.140625 0.500000
vt 0.125000 0.500000
vt 0.125000 0.437500
vt 0.109375 0.437500
vt 0.109375 0.500000
vt 0.093750 0.500000
vt 0.093750 0.515625
vt 0.031250 0.515625
vt 0.031250 0.531250
vt 0.093750 0.531250
vt 0.093750 0.546875
vt 0.406250 0.453125
vt 0.421875 0.437500
vt 0.437500 0.437500
vt 0.437500 0.453125
vt 0.421875 0.468750
vt 0.406250 0.468750
vt 0.109375 0.531250
vt 0.234375 0.531250
vt 0.250000 0.531250
vt 0.250000 0.562500
vt 0.250000 0.484375
vt 0.250000 0.515625
vt 0.234375 0.515625
vt 0.359375 0.406250
vt 0.390625 0.406250
vt 0.390625 0.421875
vt 0.421875 0.421875
vt 0.390625 0.453125
vt 0.390625 0.437500
vt 0.359375 0.437500
vt 0.359375 0.500000
vt 0.375000 0.500000
vt 0.375000 0.515625
vt 0.437500 0.515625
vt 0.437500 0.484375
vt 0.421875 0.484375
vt 0.453125 0.453125
vt 0.453125 0.484375
vt 0.468750 0.484375
vt 0.468750 0.562500
vt 0.453125 0.562500
vt 0.437500 0.531250
vt 0.375000 0.531250
vt 0.375000 0.546875
vt 0.359375 0.546875
vt 0.359375 0.609375
vt 0.390625 0.609375
vt 0.390625 0.593750
vt 0.406250 0.593750
vt 0.437500 0.593750
vt 0.437500 0.609375
vt 0.421875 0.609375
vt 0.421875 0.625000
vt 0.390625 0.625000
vt 0.390625 0.640625
vt 0.312500 0.640625
vt 0.312500 0.625000
vt 0.281250 0.625000
vt 0.281250 0.609375
vt 0.265625 0.609375
vt 0.265625 0.593750
vt 0.265625 0.562500
vt 0.281250 0.562500
vt 0.281250 0.578125
vt 0.296875 0.578125
vt 0.296875 0.593750
vt 0.312500 0.593750
vt 0.312500 0.609375
vt 0.343750 0.609375
vt 0.343750 0.546875
vt 0.328125 0.546875
vt 0.328125 0.531250
vt 0.265625 0.531250
vt 0.250000 0.453125
vt 0.265625 0.453125
vt 0.281250 0.468750
vt 0.281250 0.484375
vt 0.265625 0.484375
vt 0.265625 0.515625
vt 0.328125 0.515625
vt 0.328125 0.500000
vt 0.343750 0.500000
vt 0.343750 0.437500
vt 0.250000 0.593750
vt 0.437500 0.562500
vt 0.453125 0.593750
vt 0.406250 0.578125
vt 0.421875 0.578125
vt 0.421875 0.562500
vt 0.296875 0.453125
vt 0.296875 0.468750
vt 0.265625 0.437500
vt 0.281250 0.437500
vt 0.281250 0.421875
vt 0.312500 0.421875
vt 0.312500 0.406250
vt 0.312500 0.437500
vt 0.312500 0.453125
vt 0.046875 0.453125
vt 0.062500 0.421875
vt 0.062500 0.437500
vt 0.015625 0.468750
vt 0.031250 0.468750
vt 0.093750 0.406250
vt 0.093750 0.421875
vt 0.218750 0.531250
vt 0.218750 0.515625
vt -0.000000 0.500000
vt 0.015625 0.500000
vt 0.250000 0.656250
vt 0.218750 0.656250
vt 0.218750 0.640625
vt 0.250000 0.640625
vt 0.140625 0.406250
vt 0.140625 0.421875
vt 0.187500 0.453125
vt 0.171875 0.421875
vt 0.171875 0.437500
vt 0.203125 0.468750
vt 0.218750 0.468750
vt 0.234375 0.500000
vt 0.218750 0.500000
vt -0.000000 0.546875
vt 0.015625 0.546875
vt 0.046875 0.593750
vt 0.062500 0.609375
vt 0.062500 0.625000
vt 0.015625 0.578125
vt 0.031250 0.578125
vt 0.093750 0.625000
vt 0.093750 0.640625
vt 0.218750 0.546875
vt 0.234375 0.546875
vt 0.140625 0.625000
vt 0.140625 0.640625
vt 0.187500 0.593750
vt 0.171875 0.609375
vt 0.171875 0.625000
vt 0.203125 0.578125
vt 0.218750 0.578125
vt 0.109375 0.421875
s 0
usemtl Material
f 164/1/1 163/2/1 90/3/1 87/4/1 86/5/1 83/6/1 85/7/1 78/8/1 79/9/1 69/10/1 66/11/1 34/12/1 80/13/1 81/14/1 82/15/1 84/16/1 88/17/1 89/18/1 162/19/1 91/20/1 132/21/1 167/22/1 169/23/1 168/24/1 140/25/1 159/26/1 160/27/1 158/28/1 157/29/1 153/30/1 152/31/1 150/32/1 154/33/1 155/34/1 156/35/1 165/36/1 166/37/1 161/38/1
f 93/39/2 21/40/2 16/41/2 20/42/2 95/43/2
f 8/44/3 77/11/3 64/45/3 6/46/3
f 15/47/2 70/48/2 14/42/2 2/49/2
f 138/35/4 159/26/4 140/25/4 145/24/4
f 149/50/1 97/51/1 74/43/1 95/39/1 20/41/1 70/42/1 15/49/1 62/47/1 60/52/1 61/53/1 59/54/1 65/45/1 64/46/1 77/44/1 66/11/1 69/10/1 67/55/1 68/56/1 63/57/1 76/58/1 71/59/1 73/60/1 72/48/1 75/61/1 146/62/1 147/63/1 148/64/1 150/32/1 152/31/1 151/65/1
f 88/17/5 84/16/5 44/15/5 54/4/5
f 51/66/1 56/67/1 127/68/1 31/69/1 124/70/1 123/71/1 134/72/1 117/73/1 106/74/1 105/75/1 102/76/1 96/77/1 23/78/1 28/79/1 30/80/1 26/81/1 13/82/1 35/83/1 46/84/1 49/85/1
f 51/69/3 50/66/3 57/67/3 56/68/3
f 74/61/2 97/50/2 108/51/2 94/43/2
f 100/86/6 109/87/6 111/88/6 112/89/6 110/90/6 107/91/6
f 89/18/5 55/17/5 58/20/5 162/19/5
f 25/81/2 12/82/2 13/83/2 26/84/2
f 34/13/3 66/10/3 33/11/3 39/12/3
f 23/77/3 22/78/3 27/79/3 28/76/3
f 26/66/3 30/92/3 29/84/3 25/85/3
f 7/45/3 65/55/3 59/53/3 1/54/3
f 28/66/2 27/92/2 29/84/2 30/85/2
f 96/93/5 92/94/5 98/95/5 75/26/5 72/29/5 18/96/5 22/97/5 23/98/5
f 32/82/5 45/81/5 46/84/5 35/83/5
f 46/92/3 45/84/3 48/85/3 49/66/3
f 48/84/5 50/92/5 51/66/5 49/85/5
f 126/67/4 120/66/4 31/69/4 127/68/4
f 132/21/5 91/20/5 128/3/5 144/22/5
f 21/99/6 93/100/6 94/101/6 108/102/6 109/87/6 100/86/6 99/103/6 98/104/6 92/105/6 101/106/6 103/107/6 104/108/6 116/109/6 115/110/6 114/111/6 110/90/6 112/89/6 113/112/6 118/113/6 119/114/6 139/115/6 138/116/6 133/117/6 121/118/6 122/119/6 120/120/6 126/121/6 130/122/6 129/123/6 131/124/6 142/125/6 143/126/6 141/127/6 144/128/6 128/129/6 58/130/6 55/131/6 54/132/6 44/133/6 43/134/6 41/135/6 40/136/6 36/137/6 37/138/6 38/139/6 47/140/6 42/141/6 52/142/6 53/143/6 57/144/6 50/145/6 48/146/6 45/147/6 32/148/6 33/95/6 8/27/6 6/28/6 7/96/6 1/149/6 4/150/6 9/151/6 11/152/6 10/153/6 12/154/6 25/155/6 29/156/6 27/157/6 22/158/6
f 92/78/4 96/77/4 102/76/4 101/79/4
f 103/84/4 105/92/4 106/66/4 104/85/4
f 40/136/6 39/159/6 33/95/6 32/148/6 36/137/6
f 103/92/2 101/84/2 102/85/2 105/66/2
f 137/160/6 133/117/6 138/116/6 145/161/6 142/125/6 131/124/6 125/162/6 136/163/6 135/164/6
f 116/73/2 104/74/2 106/71/2 117/72/2
f 122/85/4 121/84/4 123/92/4 124/66/4
f 31/85/5 120/84/5 122/92/5 124/66/5
f 17/165/6 24/166/6 9/151/6 4/150/6 3/167/6 5/168/6 2/169/6 14/170/6 16/171/6 21/99/6 22/158/6 18/172/6 19/173/6
f 121/74/5 133/73/5 134/72/5 123/71/5
f 10/95/4 67/26/4 69/29/4 36/96/4 32/97/4 35/98/4 13/93/4 12/94/4
f 160/27/4 139/26/4 119/29/4 158/28/4
f 153/30/4 157/29/4 118/34/4 113/31/4
f 60/52/3 3/53/3 4/174/3 61/47/3
f 5/47/2 3/52/2 60/53/2 62/174/2
f 15/175/3 2/49/3 5/47/3 62/176/3
f 4/53/2 1/54/2 59/177/2 61/178/2
f 20/179/3 16/41/3 14/42/3 70/180/3
f 18/94/4 72/181/4 73/182/4 19/97/4
f 17/97/5 19/94/5 73/181/5 71/182/5
f 7/45/2 6/46/2 64/183/2 65/184/2
f 137/96/3 156/29/3 155/26/3 115/95/3 116/94/3 117/93/3 134/98/3 133/97/3
f 9/94/4 63/181/4 68/182/4 11/97/4
f 10/97/5 11/94/5 68/181/5 67/182/5
f 17/185/4 71/186/4 76/187/4 24/188/4
f 9/188/5 24/185/5 76/186/5 63/187/5
f 93/189/4 95/39/4 74/43/4 94/190/4
f 75/181/3 98/94/3 99/97/3 146/182/3
f 99/97/5 100/94/5 147/181/5 146/182/5
f 111/50/4 151/65/4 152/31/4 112/191/4
f 111/65/2 109/50/2 149/191/2 151/31/2
f 108/192/4 97/51/4 149/50/4 109/193/4
f 113/30/2 112/31/2 152/194/2 153/195/2
f 150/181/3 110/94/3 114/97/3 154/182/3
f 154/182/5 114/97/5 115/94/5 155/181/5
f 158/196/2 119/28/2 118/29/2 157/197/2
f 147/186/3 100/185/3 107/188/3 148/187/3
f 107/188/5 110/185/5 150/186/5 148/187/5
f 8/198/5 33/199/5 66/11/5 77/44/5
f 37/94/4 79/181/4 78/182/4 38/97/4
f 37/94/2 36/97/2 69/182/2 79/181/2
f 80/13/3 40/14/3 41/15/3 81/200/3
f 41/13/5 43/200/5 82/15/5 81/14/5
f 82/201/3 43/15/3 44/16/3 84/202/3
f 39/203/5 40/204/5 80/13/5 34/12/5
f 52/94/4 86/181/4 87/182/4 53/97/4
f 52/94/2 42/97/2 83/182/2 86/181/2
f 88/205/3 54/17/3 55/18/3 89/206/3
f 47/185/4 85/186/4 83/187/4 42/188/4
f 47/185/2 38/188/2 78/187/2 85/186/2
f 165/181/3 135/94/3 136/97/3 166/182/3
f 137/94/2 135/97/2 165/182/2 156/181/2
f 138/207/5 139/208/5 160/27/5 159/26/5
f 163/181/3 129/94/3 130/97/3 90/182/3
f 131/94/2 129/97/2 163/182/2 164/181/2
f 128/209/4 91/20/4 162/19/4 58/210/4
f 142/22/4 168/211/4 169/24/4 143/23/4
f 56/98/2 57/97/2 53/96/2 87/29/2 90/26/2 130/95/2 126/94/2 127/93/2
f 141/211/5 143/24/5 169/23/5 167/22/5
f 141/212/4 167/22/4 132/21/4 144/213/4
f 142/214/5 145/215/5 140/25/5 168/24/5
f 161/186/3 125/185/3 131/188/3 164/187/3
f 136/185/2 125/188/2 161/187/2 166/186/2
f 333/6/6 332/5/6 259/4/6 256/3/6 255/2/6 252/1/6 254/38/6 247/37/6 248/36/6 238/35/6 235/26/6 203/25/6 249/24/6 250/23/6 251/22/6 253/21/6 257/20/6 258/19/6 331/18/6 260/17/6 301/16/6 336/15/6 338/14/6 337/13/6 309/12/6 328/11/6 329/44/6 327/46/6 326/45/6 322/54/6 321/53/6 319/57/6 323/56/6 324/55/6 325/10/6 334/9/6 335/8/6 330/7/6
f 262/42/2 190/216/2 185/43/2 189/39/2 264/41/2
f 177/27/4 246/26/4 233/29/4 175/28/4
f 184/51/2 239/43/2 183/61/2 171/50/2
f 307/10/3 328/11/3 309/12/3 314/13/3
f 318/47/6 266/49/6 243/42/6 264/41/6 189/39/6 239/43/6 184/51/6 231/50/6 229/65/6 230/31/6 228/30/6 234/29/6 233/28/6 246/27/6 235/26/6 238/35/6 236/34/6 237/33/6 232/32/6 245/64/6 240/63/6 242/62/6 241/61/6 244/48/6 315/60/6 316/59/6 317/58/6 319/57/6 321/53/6 320/52/6
f 257/3/5 253/22/5 213/21/5 223/20/5
f 220/69/6 225/68/6 296/67/6 200/66/6 293/85/6 292/84/6 303/83/6 286/82/6 275/81/6 274/80/6 271/79/6 265/78/6 192/77/6 197/76/6 199/75/6 195/74/6 182/73/6 204/72/6 215/71/6 218/70/6
f 220/66/4 219/69/4 226/68/4 225/67/4
f 243/42/2 266/49/2 277/47/2 263/48/2
f 269/165/1 278/168/1 280/167/1 281/150/1 279/151/1 276/166/1
f 258/20/5 224/19/5 227/18/5 331/17/5
f 194/71/2 181/72/2 182/73/2 195/74/2
f 203/24/4 235/35/4 202/26/4 208/25/4
f 192/78/4 191/77/4 196/76/4 197/79/4
f 195/85/4 199/84/4 198/92/4 194/66/4
f 176/29/4 234/34/4 228/31/4 170/30/4
f 197/84/2 196/85/2 198/66/2 199/92/2
f 265/93/5 261/94/5 267/95/5 244/26/5 241/29/5 187/96/5 191/97/5 192/98/5
f 201/72/5 214/71/5 215/74/5 204/73/5
f 215/84/4 214/92/4 217/66/4 218/85/4
f 217/66/5 219/85/5 220/84/5 218/92/5
f 295/68/3 289/69/3 200/66/3 296/67/3
f 301/15/5 260/4/5 297/17/5 313/16/5
f 190/99/1 262/171/1 263/170/1 277/169/1 278/168/1 269/165/1 268/173/1 267/172/1 261/158/1 270/157/1 272/156/1 273/155/1 285/154/1 284/153/1 283/152/1 279/151/1 281/150/1 282/149/1 287/96/1 288/28/1 308/27/1 307/95/1 302/148/1 290/147/1 291/146/1 289/145/1 295/144/1 299/143/1 298/142/1 300/141/1 311/136/1 312/135/1 310/134/1 313/133/1 297/132/1 227/131/1 224/130/1 223/129/1 213/128/1 212/127/1 210/126/1 209/125/1 205/160/1 206/164/1 207/163/1 216/162/1 211/124/1 221/123/1 222/122/1 226/121/1 219/120/1 217/119/1 214/118/1 201/117/1 202/116/1 177/115/1 175/114/1 176/113/1 170/112/1 173/89/1 178/90/1 180/111/1 179/110/1 181/109/1 194/108/1 198/107/1 196/106/1 191/105/1
f 261/77/3 265/78/3 271/79/3 270/76/3
f 272/92/3 274/84/3 275/85/3 273/66/3
f 209/125/1 208/161/1 202/116/1 201/117/1 205/160/1
f 272/85/2 270/66/2 271/92/2 274/84/2
f 306/137/1 302/148/1 307/95/1 314/159/1 311/136/1 300/141/1 294/140/1 305/139/1 304/138/1
f 285/83/2 273/84/2 275/81/2 286/82/2
f 291/66/3 290/92/3 292/84/3 293/85/3
f 200/92/5 289/66/5 291/85/5 293/84/5
f 186/86/1 193/91/1 178/90/1 173/89/1 172/88/1 174/87/1 171/102/1 183/101/1 185/100/1 190/99/1 191/105/1 187/104/1 188/103/1
f 290/84/5 302/83/5 303/82/5 292/81/5
f 179/96/3 236/29/3 238/26/3 205/95/3 201/94/3 204/93/3 182/98/3 181/97/3
f 329/44/3 308/11/3 288/45/3 327/46/3
f 322/54/3 326/45/3 287/55/3 282/53/3
f 229/50/4 172/65/4 173/31/4 230/191/4
f 174/191/2 172/31/2 229/65/2 231/50/2
f 184/192/4 171/51/4 174/50/4 231/193/4
f 173/194/2 170/195/2 228/30/2 230/31/2
f 189/189/4 185/39/4 183/43/4 239/190/4
f 187/97/3 241/182/3 242/181/3 188/94/3
f 186/97/5 188/94/5 242/181/5 240/182/5
f 176/197/2 175/196/2 233/28/2 234/29/2
f 306/95/4 325/26/4 324/29/4 284/96/4 285/97/4 286/98/4 303/93/4 302/94/4
f 178/97/3 232/182/3 237/181/3 180/94/3
f 179/97/5 180/94/5 237/181/5 236/182/5
f 186/188/3 240/187/3 245/186/3 193/185/3
f 178/188/5 193/185/5 245/186/5 232/187/5
f 262/179/3 264/41/3 243/42/3 263/180/3
f 244/182/4 267/97/4 268/94/4 315/181/4
f 268/97/5 269/94/5 316/181/5 315/182/5
f 280/52/3 320/53/3 321/174/3 281/47/3
f 280/53/2 278/174/2 318/47/2 320/52/2
f 277/175/3 266/49/3 318/47/3 278/176/3
f 282/177/2 281/178/2 321/53/2 322/54/2
f 319/182/4 279/97/4 283/94/4 323/181/4
f 323/182/5 283/97/5 284/94/5 324/181/5
f 327/46/2 288/183/2 287/184/2 326/45/2
f 316/187/4 269/188/4 276/185/4 317/186/4
f 276/188/5 279/185/5 319/186/5 317/187/5
f 177/27/5 202/26/5 235/207/5 246/208/5
f 206/97/3 248/182/3 247/181/3 207/94/3
f 206/94/2 205/97/2 238/182/2 248/181/2
f 249/211/4 209/24/4 210/23/4 250/22/4
f 210/22/5 212/211/5 251/24/5 250/23/5
f 251/212/4 212/22/4 213/21/4 253/213/4
f 208/25/5 209/24/5 249/214/5 203/215/5
f 221/97/3 255/182/3 256/181/3 222/94/3
f 221/94/2 211/97/2 252/182/2 255/181/2
f 257/209/4 223/20/4 224/19/4 258/210/4
f 216/188/3 254/187/3 252/186/3 211/185/3
f 216/185/2 207/188/2 247/187/2 254/186/2
f 334/182/4 304/97/4 305/94/4 335/181/4
f 306/94/2 304/97/2 334/182/2 325/181/2
f 307/11/5 308/44/5 329/198/5 328/199/5
f 332/182/4 298/97/4 299/94/4 259/181/4
f 300/94/2 298/97/2 332/182/2 333/181/2
f 297/205/3 260/17/3 331/18/3 227/206/3
f 311/6/3 337/13/3 338/14/3 312/201/3
f 225/98/2 226/97/2 222/96/2 256/29/2 259/26/2 299/95/2 295/94/2 296/93/2
f 310/15/5 312/14/5 338/204/5 336/8/5
f 310/201/3 336/15/3 301/16/3 313/202/3
f 311/13/5 314/12/5 309/203/5 337/204/5
f 330/187/4 294/188/4 300/185/4 333/186/4
f 305/185/2 294/188/2 330/187/2 335/186/2
