# Blender 4.2.3 LTS
# www.blender.org
mtllib cart.mtl
o Cube.001
v -0.499999 0.299998 1.199999
v -0.699998 0.099999 1.199999
v -0.599997 0.199997 1.199999
v -0.599997 0.299998 1.199999
v -0.699998 0.199997 1.199999
v -0.399998 0.499997 1.199999
v -0.499999 0.499997 1.199999
v -0.399998 0.999999 1.199999
v -0.699998 0.399999 1.199999
v -0.599997 0.499997 1.199999
v -0.699998 0.499997 1.199999
v -0.599997 0.699999 1.199999
v -0.599997 0.699999 1.300000
v -0.899997 0.099999 1.199999
v -0.699998 0.099999 1.399998
v -0.899997 -0.000002 1.199999
v -0.799999 0.299998 1.199999
v -0.899997 0.199997 1.199999
v -0.899997 0.299998 1.199999
v -0.899997 -0.000002 1.399998
v -1.150000 -0.000002 1.199999
v -1.099999 0.199997 1.199999
v -1.099999 0.199997 1.300000
v -0.799999 0.399999 1.199999
v -0.999998 0.699999 1.199999
v -0.999998 0.699999 1.300000
v -1.099999 0.599998 1.199999
v -1.099999 0.599998 1.300000
v -0.999998 0.599998 1.199999
v -0.999998 0.599998 1.300000
v -1.199997 0.899998 1.300000
v -0.599997 0.799997 1.199999
v -0.499999 0.999999 1.199999
v -0.499999 1.199998 1.399998
v -0.599997 0.799997 1.300000
v -0.599997 0.999999 1.199999
v -0.699998 0.999999 1.199999
v -0.699998 1.099997 1.199999
v -0.499999 1.199998 1.199999
v -0.599997 1.199998 1.199999
v -0.599997 1.299999 1.199999
v -0.799999 1.199998 1.199999
v -0.699998 1.299999 1.199999
v -0.699998 1.399997 1.199999
v -0.999998 0.799997 1.199999
v -0.999998 0.799997 1.300000
v -0.799999 1.099997 1.199999
v -0.999998 0.899998 1.199999
v -0.999998 0.899998 1.300000
v -1.099999 0.899998 1.199999
v -1.099999 0.899998 1.300000
v -0.899997 1.199998 1.199999
v -0.899997 1.299999 1.199999
v -0.899997 1.399997 1.199999
v -0.899997 1.499998 1.199999
v -1.099999 1.299999 1.300000
v -1.099999 1.299999 1.199999
v -1.399999 1.499998 1.199999
v -0.499999 0.299998 1.399998
v -0.599997 0.199997 1.399998
v -0.599997 0.299998 1.399998
v -0.699998 0.199997 1.399998
v -0.699998 0.399999 1.399998
v -0.399998 0.499997 1.399998
v -0.499999 0.499997 1.399998
v -0.499999 0.999999 1.399998
v -0.599997 0.499997 1.399998
v -0.699998 0.499997 1.399998
v -0.599997 0.999999 1.399998
v -0.899997 0.099999 1.399998
v -0.799999 0.299998 1.399998
v -0.899997 0.199997 1.399998
v -0.899997 0.299998 1.399998
v -1.399999 0.099999 1.399998
v -1.399999 0.199997 1.399998
v -0.799999 0.399999 1.399998
v -0.399998 0.999999 1.399998
v -0.699998 1.099997 1.399998
v -0.699998 0.999999 1.399998
v -0.599997 1.199998 1.399998
v -0.599997 1.299999 1.399998
v -0.699998 1.299999 1.399998
v -0.799999 1.199998 1.399998
v -0.699998 1.399997 1.399998
v -0.799999 1.099997 1.399998
v -0.899997 1.199998 1.399998
v -0.899997 1.299999 1.399998
v -0.899997 1.399997 1.399998
v -0.899997 1.499998 1.399998
v -1.399999 1.299999 1.399998
v -1.399999 1.399997 1.399998
v -1.199997 0.199997 1.199999
v -1.399999 -0.000002 1.199999
v -1.399999 0.099999 1.199999
v -1.399999 -0.000002 1.399998
v -1.199997 0.199997 1.300000
v -1.599998 0.099999 1.399998
v -1.399999 0.199997 1.199999
v -1.399999 0.299998 1.199999
v -1.499997 0.299998 1.199999
v -1.199997 0.599998 1.199999
v -1.199997 0.599998 1.300000
v -1.299998 0.599998 1.199999
v -1.299998 0.699999 1.199999
v -1.299998 0.599998 1.300000
v -1.299998 0.699999 1.300000
v -1.499997 0.399999 1.199999
v -1.599998 0.099999 1.199999
v -1.599998 0.199997 1.199999
v -1.599998 0.399999 1.199999
v -1.699999 0.199997 1.199999
v -1.699999 0.299998 1.199999
v -1.799997 0.299998 1.199999
v -1.599998 0.499997 1.199999
v -1.699999 0.499997 1.199999
v -1.699999 0.699999 1.199999
v -1.699999 0.699999 1.300000
v -1.799997 0.499997 1.199999
v -1.899998 0.499997 1.199999
v -1.199997 0.899998 1.199999
v -1.299998 0.799997 1.199999
v -1.299998 0.899998 1.199999
v -1.299998 0.799997 1.300000
v -1.299998 0.899998 1.300000
v -1.499997 1.099997 1.199999
v -1.199997 1.299999 1.199999
v -1.199997 1.299999 1.300000
v -1.399999 1.399997 1.199999
v -1.399999 1.199998 1.199999
v -1.399999 1.299999 1.199999
v -1.499997 1.199998 1.199999
v -1.599998 1.399997 1.399998
v -1.699999 0.799997 1.199999
v -1.699999 0.799997 1.300000
v -1.599998 0.999999 1.199999
v -1.599998 1.099997 1.199999
v -1.699999 0.999999 1.199999
v -1.799997 0.999999 1.199999
v -1.899998 0.999999 1.199999
v -1.799997 1.199998 1.399998
v -1.599998 1.299999 1.199999
v -1.699999 1.199998 1.199999
v -1.699999 1.299999 1.199999
v -1.599998 1.399997 1.199999
v -1.799997 1.199998 1.199999
v -1.399999 0.299998 1.399998
v -1.499997 0.299998 1.399998
v -1.499997 0.399999 1.399998
v -1.599998 0.199997 1.399998
v -1.599998 0.399999 1.399998
v -1.699999 0.199997 1.399998
v -1.699999 0.299998 1.399998
v -1.799997 0.299998 1.399998
v -1.599998 0.499997 1.399998
v -1.699999 0.499997 1.399998
v -1.699999 0.999999 1.399998
v -1.799997 0.499997 1.399998
v -1.899998 0.499997 1.399998
v -1.799997 0.999999 1.399998
v -1.899998 0.999999 1.399998
v -1.499997 1.099997 1.399998
v -1.399999 1.499998 1.399998
v -1.399999 1.199998 1.399998
v -1.499997 1.199998 1.399998
v -1.599998 0.999999 1.399998
v -1.599998 1.099997 1.399998
v -1.599998 1.299999 1.399998
v -1.699999 1.199998 1.399998
v -1.699999 1.299999 1.399998
v -1.800001 0.299998 -1.199999
v -1.600002 0.099999 -1.199999
v -1.700003 0.199997 -1.199999
v -1.700003 0.299998 -1.199999
v -1.600002 0.199997 -1.199999
v -1.900002 0.499997 -1.199999
v -1.800001 0.499997 -1.199999
v -1.900002 0.999999 -1.199999
v -1.600002 0.399999 -1.199999
v -1.700003 0.499997 -1.199999
v -1.600002 0.499997 -1.199999
v -1.700003 0.699999 -1.199999
v -1.700003 0.699999 -1.300000
v -1.400003 0.099999 -1.199999
v -1.600002 0.099999 -1.399998
v -1.400003 -0.000002 -1.199999
v -1.500001 0.299998 -1.199999
v -1.400003 0.199997 -1.199999
v -1.400003 0.299998 -1.199999
v -1.400003 -0.000002 -1.399998
v -1.150000 -0.000002 -1.199999
v -1.200001 0.199997 -1.199999
v -1.200001 0.199997 -1.300000
v -1.500001 0.399999 -1.199999
v -1.300002 0.699999 -1.199999
v -1.300002 0.699999 -1.300000
v -1.200001 0.599998 -1.199999
v -1.200001 0.599998 -1.300000
v -1.300002 0.599998 -1.199999
v -1.300002 0.599998 -1.300000
v -1.100003 0.899998 -1.300000
v -1.700003 0.799997 -1.199999
v -1.800001 0.999999 -1.199999
v -1.800001 1.199998 -1.399998
v -1.700003 0.799997 -1.300000
v -1.700003 0.999999 -1.199999
v -1.600002 0.999999 -1.199999
v -1.600002 1.099997 -1.199999
v -1.800001 1.199998 -1.199999
v -1.700003 1.199998 -1.199999
v -1.700003 1.299999 -1.199999
v -1.500001 1.199998 -1.199999
v -1.600002 1.299999 -1.199999
v -1.600002 1.399997 -1.199999
v -1.300002 0.799997 -1.199999
v -1.300002 0.799997 -1.300000
v -1.500001 1.099997 -1.199999
v -1.300002 0.899998 -1.199999
v -1.300002 0.899998 -1.300000
v -1.200001 0.899998 -1.199999
v -1.200001 0.899998 -1.300000
v -1.400003 1.199998 -1.199999
v -1.400003 1.299999 -1.199999
v -1.400003 1.399997 -1.199999
v -1.400003 1.499998 -1.199999
v -1.200001 1.299999 -1.300000
v -1.200001 1.299999 -1.199999
v -0.900001 1.499998 -1.199999
v -1.800001 0.299998 -1.399998
v -1.700003 0.199997 -1.399998
v -1.700003 0.299998 -1.399998
v -1.600002 0.199997 -1.399998
v -1.600002 0.399999 -1.399998
v -1.900002 0.499997 -1.399998
v -1.800001 0.499997 -1.399998
v -1.800001 0.999999 -1.399998
v -1.700003 0.499997 -1.399998
v -1.600002 0.499997 -1.399998
v -1.700003 0.999999 -1.399998
v -1.400003 0.099999 -1.399998
v -1.500001 0.299998 -1.399998
v -1.400003 0.199997 -1.399998
v -1.400003 0.299998 -1.399998
v -0.900001 0.099999 -1.399998
v -0.900001 0.199997 -1.399998
v -1.500001 0.399999 -1.399998
v -1.900002 0.999999 -1.399998
v -1.600002 1.099997 -1.399998
v -1.600002 0.999999 -1.399998
v -1.700003 1.199998 -1.399998
v -1.700003 1.299999 -1.399998
v -1.600002 1.299999 -1.399998
v -1.500001 1.199998 -1.399998
v -1.600002 1.399997 -1.399998
v -1.500001 1.099997 -1.399998
v -1.400003 1.199998 -1.399998
v -1.400003 1.299999 -1.399998
v -1.400003 1.399997 -1.399998
v -1.400003 1.499998 -1.399998
v -0.900001 1.299999 -1.399998
v -0.900001 1.399997 -1.399998
v -1.100003 0.199997 -1.199999
v -0.900001 -0.000002 -1.199999
v -0.900001 0.099999 -1.199999
v -0.900001 -0.000002 -1.399998
v -1.100003 0.199997 -1.300000
v -0.700002 0.099999 -1.399998
v -0.900001 0.199997 -1.199999
v -0.900001 0.299998 -1.199999
v -0.800003 0.299998 -1.199999
v -1.100003 0.599998 -1.199999
v -1.100003 0.599998 -1.300000
v -1.000002 0.599998 -1.199999
v -1.000002 0.699999 -1.199999
v -1.000002 0.599998 -1.300000
v -1.000002 0.699999 -1.300000
v -0.800003 0.399999 -1.199999
v -0.700002 0.099999 -1.199999
v -0.700002 0.199997 -1.199999
v -0.700002 0.399999 -1.199999
v -0.600001 0.199997 -1.199999
v -0.600001 0.299998 -1.199999
v -0.500003 0.299998 -1.199999
v -0.700002 0.499997 -1.199999
v -0.600001 0.499997 -1.199999
v -0.600001 0.699999 -1.199999
v -0.600001 0.699999 -1.300000
v -0.500003 0.499997 -1.199999
v -0.400002 0.499997 -1.199999
v -1.100003 0.899998 -1.199999
v -1.000002 0.799997 -1.199999
v -1.000002 0.899998 -1.199999
v -1.000002 0.799997 -1.300000
v -1.000002 0.899998 -1.300000
v -0.800003 1.099997 -1.199999
v -1.100003 1.299999 -1.199999
v -1.100003 1.299999 -1.300000
v -0.900001 1.399997 -1.199999
v -0.900001 1.199998 -1.199999
v -0.900001 1.299999 -1.199999
v -0.800003 1.199998 -1.199999
v -0.700002 1.399997 -1.399998
v -0.600001 0.799997 -1.199999
v -0.600001 0.799997 -1.300000
v -0.700002 0.999999 -1.199999
v -0.700002 1.099997 -1.199999
v -0.600001 0.999999 -1.199999
v -0.500003 0.999999 -1.199999
v -0.400002 0.999999 -1.199999
v -0.500003 1.199998 -1.399998
v -0.700002 1.299999 -1.199999
v -0.600001 1.199998 -1.199999
v -0.600001 1.299999 -1.199999
v -0.700002 1.399997 -1.199999
v -0.500003 1.199998 -1.199999
v -0.900001 0.299998 -1.399998
v -0.800003 0.299998 -1.399998
v -0.800003 0.399999 -1.399998
v -0.700002 0.199997 -1.399998
v -0.700002 0.399999 -1.399998
v -0.600001 0.199997 -1.399998
v -0.600001 0.299998 -1.399998
v -0.500003 0.299998 -1.399998
v -0.700002 0.499997 -1.399998
v -0.600001 0.499997 -1.399998
v -0.600001 0.999999 -1.399998
v -0.500003 0.499997 -1.399998
v -0.400002 0.499997 -1.399998
v -0.500003 0.999999 -1.399998
v -0.400002 0.999999 -1.399998
v -0.800003 1.099997 -1.399998
v -0.900001 1.499998 -1.399998
v -0.900001 1.199998 -1.399998
v -0.800003 1.199998 -1.399998
v -0.700002 0.999999 -1.399998
v -0.700002 1.099997 -1.399998
v -0.700002 1.299999 -1.399998
v -0.600001 1.199998 -1.399998
v -0.600001 1.299999 -1.399998
vn -0.0000 -0.0000 1.0000
vn -0.0000 -1.0000 -0.0000
vn 1.0000 -0.0000 -0.0000
vn -1.0000 -0.0000 -0.0000
vn -0.0000 1.0000 -0.0000
vn -0.0000 -0.0000 -1.0000
s 0
f 164//1 163//1 90//1 87//1 86//1 83//1 85//1 78//1 79//1 69//1 66//1 34//1 80//1 81//1 82//1 84//1 88//1 89//1 162//1 91//1 132//1 167//1 169//1 168//1 140//1 159//1 160//1 158//1 157//1 153//1 152//1 150//1 154//1 155//1 156//1 165//1 166//1 161//1
f 93//2 21//2 16//2 20//2 95//2
f 8//3 77//3 64//3 6//3
f 15//2 70//2 14//2 2//2
f 138//4 159//4 140//4 145//4
f 149//1 97//1 74//1 95//1 20//1 70//1 15//1 62//1 60//1 61//1 59//1 65//1 64//1 77//1 66//1 69//1 67//1 68//1 63//1 76//1 71//1 73//1 72//1 75//1 146//1 147//1 148//1 150//1 152//1 151//1
f 88//5 84//5 44//5 54//5
f 51//1 56//1 127//1 31//1 124//1 123//1 134//1 117//1 106//1 105//1 102//1 96//1 23//1 28//1 30//1 26//1 13//1 35//1 46//1 49//1
f 51//3 50//3 57//3 56//3
f 74//2 97//2 108//2 94//2
f 100//6 109//6 111//6 112//6 110//6 107//6
f 89//5 55//5 58//5 162//5
f 25//2 12//2 13//2 26//2
f 34//3 66//3 33//3 39//3
f 23//3 22//3 27//3 28//3
f 26//3 30//3 29//3 25//3
f 7//3 65//3 59//3 1//3
f 28//2 27//2 29//2 30//2
f 96//5 92//5 98//5 75//5 72//5 18//5 22//5 23//5
f 32//5 45//5 46//5 35//5
f 46//3 45//3 48//3 49//3
f 48//5 50//5 51//5 49//5
f 126//4 120//4 31//4 127//4
f 132//5 91//5 128//5 144//5
f 21//6 93//6 94//6 108//6 109//6 100//6 99//6 98//6 92//6 101//6 103//6 104//6 116//6 115//6 114//6 110//6 112//6 113//6 118//6 119//6 139//6 138//6 133//6 121//6 122//6 120//6 126//6 130//6 129//6 131//6 142//6 143//6 141//6 144//6 128//6 58//6 55//6 54//6 44//6 43//6 41//6 40//6 36//6 37//6 38//6 47//6 42//6 52//6 53//6 57//6 50//6 48//6 45//6 32//6 33//6 8//6 6//6 7//6 1//6 4//6 9//6 11//6 10//6 12//6 25//6 29//6 27//6 22//6
f 92//4 96//4 102//4 101//4
f 103//4 105//4 106//4 104//4
f 40//6 39//6 33//6 32//6 36//6
f 103//2 101//2 102//2 105//2
f 137//6 133//6 138//6 145//6 142//6 131//6 125//6 136//6 135//6
f 116//2 104//2 106//2 117//2
f 122//4 121//4 123//4 124//4
f 31//5 120//5 122//5 124//5
f 17//6 24//6 9//6 4//6 3//6 5//6 2//6 14//6 16//6 21//6 22//6 18//6 19//6
f 121//5 133//5 134//5 123//5
f 10//4 67//4 69//4 36//4 32//4 35//4 13//4 12//4
f 160//4 139//4 119//4 158//4
f 153//4 157//4 118//4 113//4
f 60//3 3//3 4//3 61//3
f 5//2 3//2 60//2 62//2
f 15//3 2//3 5//3 62//3
f 4//2 1//2 59//2 61//2
f 20//3 16//3 14//3 70//3
f 18//4 72//4 73//4 19//4
f 17//5 19//5 73//5 71//5
f 7//2 6//2 64//2 65//2
f 137//3 156//3 155//3 115//3 116//3 117//3 134//3 133//3
f 9//4 63//4 68//4 11//4
f 10//5 11//5 68//5 67//5
f 17//4 71//4 76//4 24//4
f 9//5 24//5 76//5 63//5
f 93//4 95//4 74//4 94//4
f 75//3 98//3 99//3 146//3
f 99//5 100//5 147//5 146//5
f 111//4 151//4 152//4 112//4
f 111//2 109//2 149//2 151//2
f 108//4 97//4 149//4 109//4
f 113//2 112//2 152//2 153//2
f 150//3 110//3 114//3 154//3
f 154//5 114//5 115//5 155//5
f 158//2 119//2 118//2 157//2
f 147//3 100//3 107//3 148//3
f 107//5 110//5 150//5 148//5
f 8//5 33//5 66//5 77//5
f 37//4 79//4 78//4 38//4
f 37//2 36//2 69//2 79//2
f 80//3 40//3 41//3 81//3
f 41//5 43//5 82//5 81//5
f 82//3 43//3 44//3 84//3
f 39//5 40//5 80//5 34//5
f 52//4 86//4 87//4 53//4
f 52//2 42//2 83//2 86//2
f 88//3 54//3 55//3 89//3
f 47//4 85//4 83//4 42//4
f 47//2 38//2 78//2 85//2
f 165//3 135//3 136//3 166//3
f 137//2 135//2 165//2 156//2
f 138//5 139//5 160//5 159//5
f 163//3 129//3 130//3 90//3
f 131//2 129//2 163//2 164//2
f 128//4 91//4 162//4 58//4
f 142//4 168//4 169//4 143//4
f 56//2 57//2 53//2 87//2 90//2 130//2 126//2 127//2
f 141//5 143//5 169//5 167//5
f 141//4 167//4 132//4 144//4
f 142//5 145//5 140//5 168//5
f 161//3 125//3 131//3 164//3
f 136//2 125//2 161//2 166//2
f 333//6 332//6 259//6 256//6 255//6 252//6 254//6 247//6 248//6 238//6 235//6 203//6 249//6 250//6 251//6 253//6 257//6 258//6 331//6 260//6 301//6 336//6 338//6 337//6 309//6 328//6 329//6 327//6 326//6 322//6 321//6 319//6 323//6 324//6 325//6 334//6 335//6 330//6
f 262//2 190//2 185//2 189//2 264//2
f 177//4 246//4 233//4 175//4
f 184//2 239//2 183//2 171//2
f 307//3 328//3 309//3 314//3
f 318//6 266//6 243//6 264//6 189//6 239//6 184//6 231//6 229//6 230//6 228//6 234//6 233//6 246//6 235//6 238//6 236//6 237//6 232//6 245//6 240//6 242//6 241//6 244//6 315//6 316//6 317//6 319//6 321//6 320//6
f 257//5 253//5 213//5 223//5
f 220//6 225//6 296//6 200//6 293//6 292//6 303//6 286//6 275//6 274//6 271//6 265//6 192//6 197//6 199//6 195//6 182//6 204//6 215//6 218//6
f 220//4 219//4 226//4 225//4
f 243//2 266//2 277//2 263//2
f 269//1 278//1 280//1 281//1 279//1 276//1
f 258//5 224//5 227//5 331//5
f 194//2 181//2 182//2 195//2
f 203//4 235//4 202//4 208//4
f 192//4 191//4 196//4 197//4
f 195//4 199//4 198//4 194//4
f 176//4 234//4 228//4 170//4
f 197//2 196//2 198//2 199//2
f 265//5 261//5 267//5 244//5 241//5 187//5 191//5 192//5
f 201//5 214//5 215//5 204//5
f 215//4 214//4 217//4 218//4
f 217//5 219//5 220//5 218//5
f 295//3 289//3 200//3 296//3
f 301//5 260//5 297//5 313//5
f 190//1 262//1 263//1 277//1 278//1 269//1 268//1 267//1 261//1 270//1 272//1 273//1 285//1 284//1 283//1 279//1 281//1 282//1 287//1 288//1 308//1 307//1 302//1 290//1 291//1 289//1 295//1 299//1 298//1 300//1 311//1 312//1 310//1 313//1 297//1 227//1 224//1 223//1 213//1 212//1 210//1 209//1 205//1 206//1 207//1 216//1 211//1 221//1 222//1 226//1 219//1 217//1 214//1 201//1 202//1 177//1 175//1 176//1 170//1 173//1 178//1 180//1 179//1 181//1 194//1 198//1 196//1 191//1
f 261//3 265//3 271//3 270//3
f 272//3 274//3 275//3 273//3
f 209//1 208//1 202//1 201//1 205//1
f 272//2 270//2 271//2 274//2
f 306//1 302//1 307//1 314//1 311//1 300//1 294//1 305//1 304//1
f 285//2 273//2 275//2 286//2
f 291//3 290//3 292//3 293//3
f 200//5 289//5 291//5 293//5
f 186//1 193//1 178//1 173//1 172//1 174//1 171//1 183//1 185//1 190//1 191//1 187//1 188//1
f 290//5 302//5 303//5 292//5
f 179//3 236//3 238//3 205//3 201//3 204//3 182//3 181//3
f 329//3 308//3 288//3 327//3
f 322//3 326//3 287//3 282//3
f 229//4 172//4 173//4 230//4
f 174//2 172//2 229//2 231//2
f 184//4 171//4 174//4 231//4
f 173//2 170//2 228//2 230//2
f 189//4 185//4 183//4 239//4
f 187//3 241//3 242//3 188//3
f 186//5 188//5 242//5 240//5
f 176//2 175//2 233//2 234//2
f 306//4 325//4 324//4 284//4 285//4 286//4 303//4 302//4
f 178//3 232//3 237//3 180//3
f 179//5 180//5 237//5 236//5
f 186//3 240//3 245//3 193//3
f 178//5 193//5 245//5 232//5
f 262//3 264//3 243//3 263//3
f 244//4 267//4 268//4 315//4
f 268//5 269//5 316//5 315//5
f 280//3 320//3 321//3 281//3
f 280//2 278//2 318//2 320//2
f 277//3 266//3 318//3 278//3
f 282//2 281//2 321//2 322//2
f 319//4 279//4 283//4 323//4
f 323//5 283//5 284//5 324//5
f 327//2 288//2 287//2 326//2
f 316//4 269//4 276//4 317//4
f 276//5 279//5 319//5 317//5
f 177//5 202//5 235//5 246//5
f 206//3 248//3 247//3 207//3
f 206//2 205//2 238//2 248//2
f 249//4 209//4 210//4 250//4
f 210//5 212//5 251//5 250//5
f 251//4 212//4 213//4 253//4
f 208//5 209//5 249//5 203//5
f 221//3 255//3 256//3 222//3
f 221//2 211//2 252//2 255//2
f 257//4 223//4 224//4 258//4
f 216//3 254//3 252//3 211//3
f 216//2 207//2 247//2 254//2
f 334//4 304//4 305//4 335//4
f 306//2 304//2 334//2 325//2
f 307//5 308//5 329//5 328//5
f 332//4 298//4 299//4 259//4
f 300//2 298//2 332//2 333//2
f 297//3 260//3 331//3 227//3
f 311//3 337//3 338//3 312//3
f 225//2 226//2 222//2 256//2 259//2 299//2 295//2 296//2
f 310//5 312//5 338//5 336//5
f 310//3 336//3 301//3 313//3
f 311//5 314//5 309//5 337//5
f 330//4 294//4 300//4 333//4
f 305//2 294//2 330//2 335//2
o Cube.002
v 1.200000 0.800000 -1.100000
v 1.100000 0.900000 -1.000000
v 1.100000 0.900000 1.000000
v 1.200000 1.700000 -1.100000
v 1.100000 1.700000 1.000000
v 1.100000 1.700000 -1.000000
v 1.000000 0.800000 1.100000
v 0.900000 0.800000 1.100000
v 1.000000 0.800000 1.000000
v 0.900000 0.800000 1.000000
v 1.000000 0.800000 0.900000
v 0.900000 0.800000 0.900000
v 1.000000 0.800000 -0.900000
v 0.900000 0.800000 -0.900000
v 1.000000 0.800000 -1.000000
v 0.900000 0.800000 -1.000000
v 0.900000 -0.100000 1.000000
v 1.000000 -0.100000 1.000000
v 1.000000 -0.100000 0.900000
v 0.900000 -0.100000 0.900000
v 0.900000 -0.100000 -0.900000
v 1.000000 -0.100000 -0.900000
v 1.000000 -0.100000 -1.000000
v 0.900000 -0.100000 -1.000000
v 0.900000 0.500000 -1.000000
v 0.900000 0.500000 -0.900000
v 0.900000 0.500000 0.900000
v 0.900000 0.500000 1.000000
v 0.800000 0.800000 0.900000
v 0.800000 0.800000 -1.000000
v 0.800000 0.500000 0.900000
v 0.800000 0.500000 -0.900000
v 0.800000 0.800000 -0.900000
v 0.800000 0.500000 1.000000
v 0.800000 0.800000 1.000000
v 0.800000 0.500000 -1.000000
v 1.200000 0.800000 1.000000
v 1.200000 1.400000 -1.100000
v 1.200000 1.100000 -1.100000
v 1.200000 1.100000 1.100000
v 1.300000 1.100000 1.100000
v 1.300000 0.800000 1.100000
v 1.300000 0.800000 1.000000
v 1.300000 1.400000 -1.100000
v 1.300000 1.100000 -1.100000
v 1.300000 1.400000 -1.000000
v 1.300000 1.100000 -1.000000
v 1.300000 1.100000 1.000000
v -2.000000 0.800000 1.100000
v -2.000000 0.800000 -1.100000
v -1.900000 0.900000 -1.000000
v -1.900000 0.900000 1.000000
v -2.000000 1.700000 1.100000
v -1.900000 1.700000 1.000000
v -1.900000 1.700000 -1.000000
v -2.000000 1.100000 1.100000
v -2.000000 1.400000 1.100000
v -2.000000 1.700000 -1.000000
v -2.000000 1.400000 -1.100000
v -2.000000 1.400000 1.000000
v -2.000000 1.100000 1.000000
v -2.000000 1.400000 -1.000000
v -2.100000 1.700000 -1.000000
v -2.100000 1.700000 -1.100000
v -2.100000 1.400000 -1.100000
v -2.100000 1.100000 1.100000
v -2.100000 1.400000 1.100000
v -2.100000 1.400000 1.000000
v -2.100000 1.100000 1.000000
v -2.100000 1.400000 -1.000000
v 1.200000 1.700000 1.000000
v 1.200000 1.600000 1.100000
v 1.200000 1.600000 1.000000
v 1.200000 1.600000 -1.100000
v 2.100000 1.699999 1.000000
v 2.100000 1.699999 1.100000
v 2.100000 1.599999 1.000000
v 2.100000 1.699999 -1.100000
v 2.100000 1.699999 -1.000000
v 2.100000 1.599999 -1.000000
v 2.100000 1.599999 1.100000
v 2.100000 1.599999 -1.100000
v 1.200000 1.400000 -1.000000
v 1.200000 1.100000 1.000000
v 1.200000 1.100000 -1.000000
v -0.700000 1.700000 1.100000
v 1.200000 1.600000 -1.000000
v 1.432937 0.830667 1.000000
v 1.200000 1.700000 -1.000000
v 1.432937 0.830667 -1.000000
v -0.500000 1.700000 1.100000
v -0.500000 0.800000 1.100000
v 1.200000 0.813673 -1.256283
v -1.200000 0.800000 1.100000
v -1.100000 0.800000 1.100000
v -2.000000 0.813673 -1.256283
v -1.200000 0.800000 -1.100000
v -1.100000 0.800000 -1.100000
v -2.000000 1.700000 -1.100000
v -1.100000 0.800000 1.200000
v -1.200000 0.800000 1.200000
v -1.100000 0.700000 1.200000
v -1.200000 0.700000 1.200000
v -1.100000 0.800000 -1.200000
v -1.200000 0.800000 -1.200000
v -1.100000 0.700000 -1.200000
v -1.200000 0.700000 -1.200000
v 1.500000 1.700000 -1.000000
v 1.500000 1.700000 -1.100000
v 1.500000 1.600000 -1.100000
v 1.500000 1.600000 -1.000000
v 1.800000 1.700000 -1.000000
v 1.800000 1.600000 -1.100000
v 1.800000 1.700000 -1.100000
v 1.800000 1.600000 -1.000000
v 1.500000 1.700000 -1.150000
v 1.800000 1.750000 -1.100000
v 1.500000 1.750000 -0.950000
v 1.800000 1.750000 -0.950000
v 1.800000 1.750000 -1.150000
v 1.500000 1.750000 -1.150000
v 1.800000 1.550000 -1.000000
v 1.500000 1.550000 -1.000000
v 1.500000 1.550000 -1.100000
v 1.800000 1.550000 -1.100000
v 1.800000 1.550000 -0.950000
v 1.500000 1.550000 -0.950000
v 1.500000 1.550000 -1.150000
v 1.800000 1.550000 -1.150000
v 1.700000 1.550000 -1.000000
v 1.600000 1.550000 -1.000000
v -2.000000 1.700000 0.100000
v -1.900000 1.700000 0.100000
v 1.600000 1.550000 -1.100000
v 1.700000 1.550000 -1.100000
v -1.900000 1.700000 -0.100000
v -2.000000 1.700000 -0.100000
v 1.600000 0.600000 -1.100000
v 1.600000 0.600000 -1.000000
v 1.700000 0.600000 -1.000000
v 1.700000 0.600000 -1.100000
v -1.700000 1.900000 0.100000
v -1.700000 1.900000 -0.100000
v -1.700000 1.700000 0.100000
v -1.700000 1.700000 -0.100000
v -2.200000 1.700000 -0.100000
v -2.200000 1.900000 -0.100000
v -2.200000 1.900000 0.100000
v -2.200000 1.700000 0.100000
v -0.700000 0.800000 1.100000
v -2.200000 1.900000 0.150000
v -2.200000 1.700000 0.150000
v -2.300000 1.950000 -0.150000
v -2.200000 1.950000 -0.150000
v -2.300000 1.950000 0.150000
v -2.200000 1.950000 0.150000
v -2.200000 1.650000 -0.150000
v -2.300000 1.650000 -0.150000
v -2.300000 1.650000 0.150000
v -2.200000 1.650000 0.150000
v -0.500000 1.500000 1.100000
v -0.700000 1.500000 1.100000
v -0.500000 1.700000 1.200000
v -0.700000 1.700000 1.200000
v -0.500000 1.500000 1.200000
v -0.700000 1.500000 1.200000
v -0.500000 2.100000 1.100000
v -0.700000 2.100000 1.100000
v -0.500000 2.100000 1.200000
v -0.700000 2.100000 1.200000
v -0.500000 2.200000 1.100000
v -0.700000 2.200000 1.100000
v -0.500000 2.200000 1.200000
v -0.700000 2.200000 1.200000
v -0.500000 2.100000 1.600000
v -0.700000 2.100000 1.600000
v -0.500000 2.200000 1.600000
v -0.700000 2.200000 1.600000
vn -1.0000 -0.0000 -0.0000
vn -0.0000 1.0000 -0.0000
vn -0.0000 -0.0000 1.0000
vn -0.0000 -1.0000 -0.0000
vn 1.0000 -0.0000 -0.0000
vn -0.0000 -0.0000 -1.0000
vn 0.9659 0.2588 -0.0000
vn -0.0000 0.1736 -0.9848
vt 0.708333 0.583333
vt 0.708333 0.666667
vt 0.791667 0.583333
vt 0.791667 0.666667
vt 0.875000 0.672422
vt 0.791667 0.630238
vt 0.323812 0.532832
vt 0.342071 0.531954
vt 0.314156 0.750000
vt 0.314798 0.735551
vt 0.332289 0.735039
vt 0.331569 0.750000
vt 0.333337 0.713280
vt 0.315762 0.713879
vt 0.324454 0.518385
vt 0.342748 0.517901
vt 0.324133 0.525608
vt 0.315280 0.724715
vt 0.541667 0.500000
vt 0.541667 0.583333
vt 0.458333 0.666667
vt 0.458333 0.750000
vt 0.458333 0.583333
vt 0.458333 0.500000
vt 0.375000 0.750000
vt 0.375000 0.666667
vt 0.125000 0.750000
vt 0.125000 0.500000
vt 0.176709 0.497032
vt 0.170926 0.750000
vt 0.791667 0.616316
vt 0.597222 0.444444
vt 0.541667 0.250000
vt 0.375000 0.250000
vt 0.375000 1.000000
vt 0.541667 0.916667
vt 0.513889 0.694444
vt 0.652778 0.638889
vt 0.708333 0.833333
vt 0.875000 0.750000
vt 0.797422 0.594845
vt 0.771446 0.542892
vt 0.708333 0.416667
vt 0.625000 0.250000
vt 0.595839 0.750000
vt 0.595021 0.726241
vt 0.625000 0.739308
vt 0.625000 0.750000
vt 0.625000 0.512077
vt 0.601564 0.532116
vt 0.598292 0.500000
vt 0.625000 0.500000
vt 0.625000 0.500000
vt 0.625000 0.512077
vt 0.601564 0.532116
vt 0.375000 0.508312
vt 0.625000 0.256501
vt 0.375000 0.500000
vt 0.177379 0.750000
vt 0.183937 0.496617
vt 0.361178 0.750000
vt 0.215196 0.750000
vt 0.209371 0.750000
vt 0.375000 0.947621
vt 0.375000 0.954074
vt 0.375000 0.305585
vt 0.375000 0.313356
vt 0.875000 0.646446
vt 0.625000 0.500000
vt 0.625000 0.911196
vt 0.562429 0.910848
vt 0.375000 0.909804
vt 0.375000 0.810844
vt 0.375000 0.763822
vt 0.561954 0.916604
vt 0.375000 0.915629
vt 0.625000 0.916933
vt 0.625000 1.000000
vt 0.541667 1.000000
vt 0.458333 1.000000
vt 0.868947 0.500000
vt 0.875000 0.500000
vt 0.875000 0.583333
vt 0.791933 0.750000
vt 0.786196 0.750000
vt 0.599383 0.510705
vt 0.600473 0.521411
vt 0.797422 0.594845
vt 0.771446 0.542892
s 0
f 340/1/7 341/2/7 343/2/7 344/1/7
f 389/3/8 390/4/8 341/2/8 340/1/8
f 486/5/9 487/5/9 470/5/9 471/6/9 482/6/9 480/6/9
f 352/7/9 371/7/9 370/7/9 364/7/9 359/7/9 360/8/9 351/8/9
f 346/9/10 348/10/10 347/11/10 345/12/10
f 349/13/11 347/11/11 356/11/11 357/13/11
f 355/10/10 358/14/10 357/13/10 356/11/10
f 349/13/10 350/14/10 352/7/10 351/8/10
f 359/7/10 362/15/10 361/16/10 360/8/10
f 365/14/7 358/14/7 355/10/7 366/10/7
f 365/14/12 369/14/12 367/14/12 350/14/12 349/13/12 357/13/12 358/14/12
f 393/3/9 389/3/9 340/1/9 344/1/9
f 353/16/11 351/8/11 360/8/11 361/16/11
f 363/15/7 362/15/7 359/7/7 364/7/7
f 371/7/7 368/17/7 374/15/7 370/7/7
f 369/14/7 372/10/7 373/10/7 367/18/7
f 365/14/10 366/10/10 372/10/10 369/14/10
f 363/15/10 364/7/10 370/7/10 374/15/10
f 363/15/12 374/15/12 368/15/12 354/15/12 353/16/12 361/16/12 362/15/12
f 376/19/8 421/20/8 384/20/8 382/19/8
f 348/10/9 373/10/9 372/10/9 366/10/9 355/10/9 356/11/9 347/11/9
f 422/21/8 378/22/8 379/22/8 386/21/8
f 384/20/11 385/23/11 383/24/11 382/19/11
f 379/22/11 380/25/11 381/26/11 386/21/11
f 421/20/9 423/23/9 385/23/9 384/20/9
f 387/27/10 388/28/10 435/29/10 432/30/10
f 423/23/10 377/24/10 383/24/10 385/23/10
f 375/26/12 422/21/12 386/21/12 381/26/12
f 390/4/11 389/3/11 393/3/11 474/31/11 471/6/11 392/4/11
f 400/32/7 397/33/7 388/34/7 387/35/7 394/36/7 399/37/7 398/38/7 395/39/7 391/40/7 470/41/7 475/42/7 396/43/7
f 398/38/12 399/37/12 407/37/12 406/38/12
f 405/39/7 406/38/7 407/37/7 404/36/7
f 401/43/7 402/44/7 403/33/7 408/32/7
f 399/37/10 394/36/10 404/36/10 407/37/10
f 397/33/10 400/32/10 408/32/10 403/33/10
f 395/39/8 398/38/8 406/38/8 405/39/8
f 400/32/9 396/43/9 401/43/9 408/32/9
f 390/4/12 392/4/12 343/2/12 341/2/12
f 410/45/10 411/46/10 415/46/10 419/45/10
f 441/30/7 439/30/7 432/30/7 435/29/7 443/29/7 445/29/7
f 413/47/11 414/48/11 419/45/11 415/46/11
f 417/49/11 418/50/11 420/51/11 416/52/11
f 452/53/8 450/54/8 417/49/8 416/52/8
f 453/55/10 451/51/10 420/51/10 418/50/10
f 450/54/9 453/55/9 418/50/9 417/49/9
f 411/46/12 409/47/12 413/47/12 415/46/12
f 451/51/12 452/53/12 416/52/12 420/51/12
f 426/26/13 428/56/13 427/49/13 409/47/13
f 437/57/14 342/52/14 431/58/14 434/34/14
f 440/59/11 444/60/11 442/60/11 436/60/11 433/59/11 438/59/11
f 433/59/10 436/60/10 339/58/10 375/26/10 381/26/10 380/25/10 345/61/10 347/11/10 349/13/10 351/8/10 353/16/10 354/15/10 352/7/10 350/14/10 348/10/10 346/9/10 430/62/10 488/63/10
f 438/64/9 439/65/9 441/65/9 440/64/9
f 411/46/11 410/45/11 378/22/11 422/21/11 375/26/11 339/58/11 377/24/11 423/23/11 421/20/11 376/19/11 412/51/11 425/50/11 427/49/11 409/47/11
f 433/64/8 432/65/8 439/65/8 438/64/8
f 441/30/10 445/29/10 444/60/10 440/59/10
f 443/66/12 442/67/12 444/67/12 445/66/12
f 435/66/8 436/67/8 442/67/8 443/66/8
f 485/68/12 481/31/12 483/31/12 474/31/12 475/68/12 484/68/12
f 427/49/9 425/50/9 449/55/9 446/49/9
f 425/50/10 412/51/10 448/51/10 449/55/10
f 449/55/7 461/55/7 465/55/7 456/49/7 459/69/7 454/69/7 447/69/7 446/49/7
f 465/55/9 464/55/9 457/54/9 456/49/9
f 410/45/9 419/45/9 414/48/9 429/70/9 499/71/9 430/72/9 346/73/9 345/74/9 380/25/9 379/22/9 378/22/9
f 452/53/11 451/51/11 463/51/11 467/51/11 458/53/11 455/53/11
f 454/69/12 459/69/12 458/53/12 467/51/12 466/51/12
f 430/72/9 499/71/9 500/75/9 488/76/9
f 456/49/8 457/54/8 455/53/8 458/53/8 459/69/8
f 488/76/9 500/75/9 424/77/9 391/78/9 395/79/9 405/79/9 404/80/9 394/80/9 387/35/9 432/65/9 433/64/9
f 450/54/11 452/53/11 455/53/11 457/54/11 464/55/11 460/55/11 463/51/11 451/51/11 453/55/11
f 461/55/10 462/51/10 472/51/10 469/55/10 468/55/10 460/55/10 464/55/10 465/55/10
f 454/69/7 466/51/7 462/51/7 461/55/7 449/55/7 448/51/7 447/69/7
f 486/5/8 480/6/8 481/31/8 485/68/8
f 468/55/9 469/55/9 477/55/9 478/55/9
f 427/49/8 446/49/8 447/69/8 342/52/8 437/81/8 402/82/8 401/83/8 396/83/8 475/68/8 474/31/8 393/3/8 344/1/8 343/2/8 392/4/8 471/6/8 470/5/8 391/40/8 424/84/8 429/85/8 414/48/8 413/47/8 409/47/8
f 472/51/12 473/51/12 479/51/12 476/51/12
f 469/55/7 472/51/7 476/86/7 477/55/7
f 477/87/10 476/51/10 479/86/10 478/55/10
f 468/55/10 473/51/10 472/51/10 462/51/10 466/51/10 467/51/10 463/51/10 460/55/10
f 468/55/11 478/87/11 479/51/11 473/51/11
f 482/6/11 483/31/11 481/31/11 480/6/11
f 471/6/10 474/31/10 483/31/10 482/6/10
f 475/42/10 470/41/10 487/88/10 484/89/10
f 437/57/12 342/52/12 447/69/12 448/51/12 412/51/12 376/19/12 382/19/12 383/24/12 377/24/12 339/58/12 436/67/12 435/66/12 388/34/12 397/33/12 403/33/12 402/44/12
f 489/5/9 494/5/9 493/5/9 497/5/9 498/5/9 490/5/9
f 491/68/12 492/68/12 495/68/12 496/68/12
f 487/5/11 486/5/11 489/5/11 490/5/11
f 495/89/10 498/88/10 497/41/10 496/42/10
f 494/5/8 492/68/8 491/68/8 493/5/8
f 492/68/11 494/5/11 489/5/11 486/5/11 485/68/11 484/89/11 487/5/11 490/5/11 498/5/11 495/68/11
f 497/41/7 493/41/7 491/42/7 496/42/7
f 500/75/10 499/71/10 503/71/10 504/75/10
f 504/75/9 503/71/9 501/70/9 502/77/9
f 499/71/11 429/70/11 501/70/11 503/71/11
f 501/70/11 429/70/11 505/70/11 507/70/11
f 424/77/7 500/75/7 504/75/7 502/77/7
f 507/70/11 505/70/11 509/70/11 511/70/11
f 429/85/12 424/84/12 506/84/12 505/85/12
f 502/77/9 501/70/9 507/70/9 508/77/9
f 424/77/7 502/77/7 508/77/7 506/77/7
f 509/85/8 510/84/8 512/84/8 511/85/8
f 505/85/12 506/84/12 510/84/12 509/85/12
f 506/77/7 508/77/7 512/77/7 510/77/7
f 512/77/7 508/77/7 514/77/7 516/77/7
f 514/77/9 513/70/9 515/70/9 516/77/9
f 507/70/11 511/70/11 515/70/11 513/70/11
f 511/85/8 512/84/8 516/84/8 515/85/8
f 508/77/10 507/70/10 513/70/10 514/77/10
