# Blender 3.3.1
# www.blender.org
mtllib Fence_+Shape.mtl
o Cube.1309
v -1.050003 0.299998 0.050002
v -1.050003 0.600000 0.050002
v -1.050003 0.899998 0.050002
v -0.050003 0.299998 1.050003
v -0.050003 0.600000 1.050003
v -0.050003 0.899998 1.050003
v -0.050003 1.199999 1.050003
v -0.250002 -0.000003 0.250001
v -0.350001 -0.000003 0.150002
v -0.250002 -0.000003 0.150002
v -0.150002 -0.000003 0.350001
v -0.150002 -0.000003 0.250001
v -0.250002 -0.000003 -0.150000
v -0.350001 0.299998 0.050002
v -0.350001 0.600000 0.050002
v -0.350001 0.899998 0.050002
v -0.350001 1.199999 0.050002
v -0.050003 0.299998 0.350001
v -0.050003 0.600000 0.350001
v -0.050003 1.199999 0.350001
v -0.050003 0.899998 0.350001
v -0.250002 2.100000 0.250001
v -0.350001 0.630760 0.150002
v -0.150002 0.630760 0.350001
v -0.350001 1.050000 0.150002
v -0.150002 1.050000 0.350001
v -1.050003 1.199999 0.050002
v -1.050003 1.499997 0.050002
v -1.050003 1.799999 0.050002
v -0.050003 1.499997 1.050003
v -0.050003 1.799999 1.050003
v -0.350001 1.499997 0.050002
v -0.350001 1.799999 0.050002
v -0.050003 1.799999 0.350001
v -0.050003 1.499997 0.350001
v -0.350001 1.497189 0.150002
v -0.150002 1.497189 0.350001
v -0.350001 2.100000 0.150002
v -0.150002 2.100000 0.350001
v -0.250002 1.999997 0.150002
v -0.250002 2.100000 0.150002
v -0.250002 1.999997 -0.000001
v -0.250002 2.100000 -0.000001
v -0.150002 1.999997 0.250001
v -0.150002 2.100000 0.250001
v 0.000000 1.999997 0.250001
v 0.000000 2.100000 0.250001
v -0.150002 1.999997 0.150002
v -0.150002 2.100000 0.150002
v -1.050003 0.299998 -0.050000
v -1.050003 0.600000 -0.050000
v -1.050003 0.899998 -0.050000
v -0.350001 -0.000003 -0.150000
v -0.250002 -0.000003 -0.249999
v -0.150002 -0.000003 -0.249999
v -0.150002 -0.000003 -0.349998
v 0.050000 0.299998 -0.349998
v -0.350001 0.299998 -0.050000
v -0.350001 0.600000 -0.050000
v -0.350001 0.899998 -0.050000
v -0.350001 1.199999 -0.050000
v -0.250002 2.100000 -0.249999
v -0.050003 0.299998 -0.349998
v -0.150002 0.630760 -0.349998
v -0.050003 0.600000 -0.349998
v -0.150002 1.050000 -0.349998
v -0.050003 0.899998 -0.349998
v -0.050003 0.299998 -1.050000
v -0.050003 0.600000 -1.050000
v -0.050003 0.899998 -1.050000
v -0.050003 1.199999 -1.050000
v -1.050003 1.199999 -0.050000
v -1.050003 1.499997 -0.050000
v -1.050003 1.799999 -0.050000
v -0.350001 1.499997 -0.050000
v -0.350001 1.799999 -0.050000
v -0.350001 2.100000 -0.150000
v -0.050003 1.199999 -0.349998
v -0.150002 1.497189 -0.349998
v 0.050000 1.499997 -0.349998
v -0.050003 1.499997 -0.349998
v -0.050003 1.799999 -0.349998
v -0.150002 2.100000 -0.349998
v -0.050003 1.499997 -1.050000
v -0.250002 1.999997 -0.150000
v -0.250002 2.100000 -0.150000
v -0.150002 1.999997 -0.150000
v -0.150002 2.100000 -0.150000
v -0.150002 1.999997 -0.249999
v -0.150002 2.100000 -0.249999
v 0.000000 1.999997 -0.249999
v 0.000000 2.100000 -0.249999
v -0.050003 1.799999 -1.050000
v 0.050000 0.299998 1.050003
v 0.050000 0.600000 1.050003
v 0.050000 0.899998 1.050003
v 0.149999 -0.000003 0.350001
v 0.149999 -0.000003 0.250001
v 0.249999 -0.000003 -0.150000
v 0.249999 -0.000003 0.150002
v 0.249999 -0.000003 0.250001
v 0.349998 -0.000003 0.150002
v 0.349998 0.299998 -0.050000
v 0.050000 0.299998 0.350001
v 0.050000 0.600000 0.350001
v 0.050000 1.199999 0.350001
v 0.050000 0.899998 0.350001
v 0.249999 2.100000 0.250001
v 0.349998 0.299998 0.050002
v 0.349998 0.630760 0.150002
v 0.349998 0.600000 0.050002
v 0.349998 1.050000 0.150002
v 0.349998 0.899998 0.050002
v 1.050000 0.299998 0.050002
v 1.050000 0.600000 0.050002
v 1.050000 0.899998 0.050002
v 1.050000 1.199999 0.050002
v 0.050000 1.199999 1.050003
v 0.050000 1.499997 1.050003
v 0.050000 1.799999 1.050003
v 0.050000 1.799999 0.350001
v 0.050000 1.499997 0.350001
v 0.149999 2.100000 0.350001
v 0.349998 1.199999 0.050002
v 0.349998 1.497189 0.150002
v 0.349998 1.499997 -0.050000
v 0.349998 1.499997 0.050002
v 0.349998 1.799999 0.050002
v 0.349998 2.100000 0.150002
v 1.050000 1.499997 0.050002
v 1.050000 1.799999 0.050002
v 0.149999 1.999997 0.250001
v 0.149999 2.100000 0.250001
v 0.149999 1.999997 0.150002
v 0.149999 2.100000 0.150002
v 0.249999 1.999997 0.150002
v 0.249999 2.100000 0.150002
v 0.249999 1.999997 -0.000001
v 0.249999 2.100000 -0.000001
v 0.149999 -0.000003 -0.249999
v 0.149999 -0.000003 -0.349998
v 0.349998 -0.000003 -0.150000
v 0.249999 -0.000003 -0.249999
v 0.050000 0.600000 -0.349998
v 0.149999 2.100000 -0.349998
v 0.349998 0.600000 -0.050000
v 0.349998 2.100000 -0.150000
v 0.249999 2.100000 -0.249999
v 0.050000 0.899998 -0.349998
v 0.349998 0.899998 -0.050000
v 0.050000 0.299998 -1.050000
v 0.050000 0.899998 -1.050000
v 0.050000 1.199999 -1.050000
v 1.050000 0.299998 -0.050000
v 1.050000 0.899998 -0.050000
v 1.050000 1.199999 -0.050000
v 0.050000 0.600000 -1.050000
v 1.050000 0.600000 -0.050000
v 0.050000 1.199999 -0.349998
v 0.349998 1.199999 -0.050000
v 0.050000 1.799999 -0.349998
v 0.349998 1.799999 -0.050000
v 0.050000 1.499997 -1.050000
v 0.050000 1.799999 -1.050000
v 1.050000 1.499997 -0.050000
v 1.050000 1.799999 -0.050000
v 0.149999 1.999997 -0.150000
v 0.149999 2.100000 -0.150000
v 0.149999 1.999997 -0.249999
v 0.149999 2.100000 -0.249999
v 0.249999 1.999997 -0.150000
v 0.249999 2.100000 -0.150000
vn -0.0000 -0.0000 1.0000
vn -0.0000 1.0000 -0.0000
vn -1.0000 -0.0000 -0.0000
vn -0.0000 -0.0000 -1.0000
vn 1.0000 -0.0000 -0.0000
vn -0.0000 -1.0000 -0.0000
vt 0.500000 0.571428
vt 0.833333 0.857143
vt 0.500000 0.642857
vt 0.833333 0.738095
vt 0.166666 0.857143
vt 0.833333 0.523810
vt 0.333333 0.499999
vt 0.047619 0.619047
vt 0.333333 0.571428
vt 0.071429 0.619047
vt 0.666666 0.642857
vt 0.095239 0.619047
vt 0.666666 0.714286
vt 0.119049 0.619047
vt 0.000000 0.000000
vt 0.238095 0.000000
vt 0.690476 0.000000
vt 0.428571 0.000000
vt 0.261904 0.000000
vt 0.714285 0.000000
vt 0.738094 0.000000
vt 0.571428 0.000000
vt 0.761903 0.000000
vt 0.023809 0.000000
vt 0.333333 0.000000
vt 0.666666 0.000000
vt 0.666666 0.571428
vt 0.452380 0.071429
vt 1.000000 0.857143
vt 0.666666 0.642857
vt 0.452380 0.142857
vt 1.000000 0.738095
vt 0.333333 0.857143
vt 1.000000 0.523810
vt 0.452380 0.214285
vt 0.333333 0.928572
vt 0.500000 0.952382
vt 0.452380 0.285714
vt 0.500000 0.499999
vt 0.595237 0.071429
vt 0.047619 0.785714
vt 0.500000 0.571428
vt 0.595237 0.142857
vt 0.071429 0.785714
vt 0.833333 0.714286
vt 0.119049 0.785714
vt 0.595237 0.285714
vt 0.833333 0.642857
vt 0.095239 0.785714
vt 0.595237 0.214285
vt 0.238095 0.499999
vt 0.880952 0.809524
vt 0.000000 0.499999
vt 0.690476 0.150181
vt 0.428571 0.150181
vt 0.738094 0.150181
vt 0.571428 0.150181
vt 0.690476 0.250000
vt 0.428571 0.250000
vt 0.738094 0.250000
vt 0.571428 0.250000
vt 0.166666 0.928572
vt 0.333333 0.952382
vt 0.500000 0.714286
vt 0.166666 0.952382
vt 0.500000 0.785714
vt 0.666666 0.928572
vt 0.166666 0.642857
vt 0.833333 0.571428
vt 0.166666 0.714286
vt 0.857143 0.571428
vt 0.666666 0.714286
vt 0.452380 0.357142
vt 0.333333 0.952382
vt 0.452380 0.428571
vt 0.666666 0.785714
vt 0.833333 0.928572
vt 0.333333 0.714286
vt 0.595237 0.428571
vt 0.857143 0.738095
vt 0.333333 0.642857
vt 0.595237 0.357142
vt 0.833333 0.738095
vt 0.690476 0.356474
vt 0.428571 0.356474
vt 0.738094 0.356474
vt 0.571428 0.356474
vt 0.428571 0.499999
vt 0.690476 0.499999
vt 0.833333 0.761905
vt 0.738094 0.499999
vt 0.571428 0.499999
vt 0.833333 0.833334
vt 0.261904 0.476189
vt 0.047619 0.523809
vt 0.714285 0.476189
vt 0.857142 0.761905
vt 0.261904 0.499999
vt 0.714285 0.499999
vt 0.880952 0.833333
vt 0.047619 0.559524
vt 0.297619 0.476189
vt 0.297619 0.499999
vt 0.857142 0.797620
vt 0.071428 0.499999
vt 0.761903 0.476189
vt 0.023809 0.476189
vt 0.833333 0.857143
vt 0.023809 0.499999
vt 0.761903 0.499999
vt 0.904761 0.809524
vt 0.059524 0.476189
vt 0.107143 0.499999
vt 0.059524 0.499999
vt 0.869048 0.857143
vt 0.738094 0.476189
vt 0.785713 0.476189
vt 0.071428 0.523809
vt 0.738094 0.499999
vt 0.785713 0.499999
vt 0.904761 0.833333
vt 0.500000 0.499999
vt 0.833333 0.880953
vt 0.500000 0.571428
vt 0.833333 0.761905
vt 0.500000 0.785714
vt 0.833333 0.547620
vt 0.642857 0.000000
vt 0.500000 0.000000
vt 0.119047 0.000000
vt 0.357142 0.000000
vt 0.023809 0.499999
vt 0.142857 0.000000
vt 0.499999 0.000000
vt 0.047619 0.499999
vt 0.333333 0.714286
vt 0.547619 0.071429
vt 0.119049 0.785714
vt 0.666666 0.499999
vt 0.476190 0.071429
vt 1.000000 0.880953
vt 0.666666 0.571428
vt 1.000000 0.761905
vt 0.476190 0.142857
vt 0.666666 0.785714
vt 1.000000 0.547620
vt 0.476190 0.214285
vt 0.666666 0.857143
vt 0.476190 0.285714
vt 0.500000 0.976192
vt 0.357142 0.499999
vt 0.904761 0.833333
vt 0.119047 0.499999
vt 0.523809 0.071429
vt 0.666666 0.571428
vt 0.095239 0.785714
vt 0.499999 0.150181
vt 0.047619 0.650181
vt 0.119049 0.785714
vt 0.523809 0.142857
vt 0.666666 0.642857
vt 0.047619 0.750000
vt 0.499999 0.250000
vt 0.500000 0.857143
vt 0.071429 0.785714
vt 0.523809 0.214285
vt 0.833333 0.571428
vt 0.095239 0.952380
vt 0.119049 0.952380
vt 0.833333 0.642857
vt 0.666666 0.857143
vt 0.071429 0.952380
vt 0.666666 0.928572
vt 0.047619 0.952380
vt 0.500000 0.857143
vt 0.333333 0.976192
vt 0.500000 0.642857
vt 0.166666 0.976192
vt 0.500000 0.714286
vt 0.666666 0.952382
vt 0.666666 0.642857
vt 0.476190 0.357142
vt 0.333333 0.976192
vt 0.476190 0.428571
vt 0.666666 0.714286
vt 0.833333 0.952382
vt 0.500000 0.499999
vt 0.642857 0.499999
vt 0.833333 0.833334
vt 0.500000 0.928572
vt 0.047619 0.785714
vt 0.523809 0.285714
vt 0.499999 0.356474
vt 0.047619 0.856473
vt 0.547619 0.357142
vt 0.333333 0.785714
vt 0.904764 0.571428
vt 0.166666 0.785714
vt 0.523809 0.357142
vt 0.880953 0.571428
vt 0.166666 0.857143
vt 0.523809 0.428571
vt 0.904764 0.571428
vt 0.499999 0.499999
vt 0.047619 0.999999
vt 0.833333 0.904763
vt 0.333333 0.785714
vt 0.880953 0.738095
vt 0.047619 0.595237
vt 0.333333 0.476189
vt 0.666666 0.476189
vt 0.857142 0.833334
vt 0.333333 0.499999
vt 0.666666 0.499999
vt 0.904761 0.809524
vt 0.690475 0.476189
vt 0.000000 0.976189
vt 0.071428 0.595237
vt 0.690475 0.499999
vt 0.000000 0.999999
vt 0.928570 0.809524
vt 0.023809 0.976189
vt 0.071428 0.619047
vt 0.142857 0.476189
vt 0.833333 0.880953
vt 0.023809 0.999999
vt 0.142857 0.499999
vt 0.928570 0.833333
vt 0.178571 0.476189
vt 0.107143 0.619047
vt 0.178571 0.499999
vt 0.869048 0.880953
vt 0.333333 0.857143
vt 0.904764 0.738095
vt 0.166666 0.499999
vt 0.071429 0.619047
vt 0.166666 0.571428
vt 0.095239 0.619047
vt 0.666666 0.714286
vt 0.119049 0.619047
vt 0.642857 0.000000
vt 0.785713 0.000000
vt 0.095238 0.000000
vt 0.809522 0.000000
vt 0.214285 0.000000
vt 0.857141 0.000000
vt 0.142857 0.000000
vt 0.952378 0.000000
vt 0.119047 0.000000
vt 0.357142 0.000000
vt 0.976187 0.000000
vt 0.166666 0.571428
vt 0.404761 0.071429
vt 0.833333 0.523810
vt 0.619048 0.071429
vt 0.333333 0.499999
vt 0.071429 0.785714
vt 0.333333 0.571428
vt 0.619048 0.142857
vt 0.095239 0.785714
vt 0.833333 0.785714
vt 0.619048 0.285714
vt 0.142859 0.785714
vt 0.833333 0.714286
vt 0.619048 0.214285
vt 0.119049 0.785714
vt 0.119047 0.499999
vt 0.904761 0.785715
vt 0.380951 0.071429
vt 0.333333 0.571428
vt 0.833333 0.499999
vt 0.357142 0.150181
vt 0.976187 0.150181
vt 0.666666 0.952382
vt 0.380951 0.142857
vt 0.333333 0.642857
vt 0.357142 0.250000
vt 0.976187 0.250000
vt 0.380951 0.214285
vt 0.500000 0.952382
vt 0.333333 0.857143
vt 0.500000 0.571428
vt 1.000000 0.499999
vt 0.833333 0.952382
vt 0.500000 0.642857
vt 0.666666 0.952382
vt 0.500000 0.857143
vt 0.666666 0.928572
vt 0.500000 0.928572
vt 0.666666 0.785714
vt 0.142859 0.619047
vt 0.333333 0.642857
vt 0.857143 0.571428
vt 0.333333 0.714286
vt 0.880953 0.571428
vt 0.500000 0.714286
vt 0.619048 0.428571
vt 0.880953 0.738095
vt 0.500000 0.642857
vt 0.619048 0.357142
vt 0.857143 0.738095
vt 0.642857 0.499999
vt 0.785713 0.499999
vt 0.904762 0.833334
vt 0.380951 0.285714
vt 0.500000 0.928572
vt 0.333333 0.928572
vt 0.357142 0.356474
vt 0.976187 0.356474
vt 0.404761 0.357142
vt 0.666666 0.499999
vt 0.166666 0.952382
vt 0.380951 0.357142
vt 0.166666 0.714286
vt 0.166666 0.928572
vt 0.166666 0.785714
vt 0.380951 0.428571
vt 0.333333 0.928572
vt 0.357142 0.499999
vt 0.976187 0.499999
vt 0.880952 0.761905
vt 0.333333 0.714286
vt 0.333333 0.928572
vt 0.333333 0.785714
vt 0.500000 0.928572
vt 0.142857 0.499999
vt 0.095238 0.476189
vt 0.809522 0.476189
vt 0.095238 0.499999
vt 0.904762 0.857143
vt 0.809522 0.499999
vt 0.880952 0.785715
vt 0.928569 0.476189
vt 0.833331 0.476189
vt 0.142857 0.523809
vt 0.928569 0.499999
vt 0.833331 0.499999
vt 0.880952 0.809524
vt 0.142857 0.476189
vt 0.952378 0.476189
vt 0.166666 0.523809
vt 0.142857 0.499999
vt 0.952378 0.499999
vt 0.857143 0.761905
vt 0.904761 0.809524
vt 0.178571 0.476189
vt 0.166666 0.559524
vt 0.178571 0.499999
vt 0.857143 0.797620
vt 0.904759 0.000000
vt 0.214285 0.000000
vt 0.928569 0.000000
vt 0.571428 0.000000
vt 0.428571 0.000000
vt 0.880950 0.000000
vt 0.238095 0.000000
vt 0.142859 0.785714
vt 0.333333 0.785714
vt 0.547619 0.142857
vt 0.928569 0.499999
vt 0.571428 0.499999
vt 0.904762 0.904763
vt 0.666666 0.976192
vt 0.166666 0.642857
vt 0.404761 0.142857
vt 0.880950 0.499999
vt 0.880952 0.833334
vt 0.428571 0.499999
vt 0.238095 0.499999
vt 0.904761 0.785714
vt 0.666666 0.857143
vt 0.547619 0.214285
vt 0.095239 0.785714
vt 0.666666 0.785714
vt 0.500000 0.976192
vt 0.404761 0.214285
vt 0.500000 0.714286
vt 0.119049 0.952380
vt 0.833333 0.857143
vt 0.095239 0.952380
vt 0.833333 0.928572
vt 0.071429 0.952380
vt 0.333333 0.571428
vt 1.000000 0.523810
vt 0.833333 0.785714
vt 0.666666 0.976192
vt 0.833333 0.857143
vt 0.666666 0.952382
vt 0.142859 0.952380
vt 0.500000 0.785714
vt 0.833333 0.976192
vt 0.333333 0.642857
vt 0.666666 0.928572
vt 0.547619 0.285714
vt 0.071429 0.785714
vt 0.666666 0.857143
vt 0.500000 0.952382
vt 0.404761 0.285714
vt 0.547619 0.428571
vt 0.333333 0.857143
vt 0.928574 0.571428
vt 0.404761 0.428571
vt 0.666666 0.571428
vt 0.333333 0.952382
vt 0.500000 0.785714
vt 0.904764 0.738095
vt 0.500000 0.857143
vt 0.928574 0.738095
vt 0.833333 0.499999
vt 0.333333 0.952382
vt 0.833333 0.571428
vt 0.500000 0.952382
vt 0.833331 0.476189
vt 0.880950 0.476189
vt 0.142857 0.595237
vt 0.833331 0.499999
vt 0.880950 0.499999
vt 0.880952 0.761905
vt 0.214285 0.476189
vt 0.904759 0.476189
vt 0.142857 0.619047
vt 0.904762 0.880953
vt 0.214285 0.499999
vt 0.904759 0.499999
vt 0.880952 0.785714
vt 0.166666 0.595237
vt 0.214285 0.476189
vt 0.857141 0.476189
vt 0.214285 0.499999
vt 0.857141 0.499999
vt 0.857143 0.833334
vt 0.904761 0.761905
s 0
usemtl Material.001
f 2/3/1 1/1/1 14/27/1 15/30/1
f 104/255/1 18/40/1 11/22/1 97/241/1
f 87/218/2 48/118/2 134/335/2 167/415/2
f 31/70/3 34/78/3 35/81/3 30/68/3
f 10/20/1 23/54/1 9/17/1
f 24/56/3 12/23/3 11/21/3
f 12/24/1 22/53/1 8/15/1
f 22/51/3 10/19/3 8/16/3
f 10/20/1 25/58/1 23/54/1
f 26/60/3 12/23/3 24/56/3
f 158/391/2 146/363/2 111/274/2 115/284/2
f 10/20/1 36/84/1 25/58/1
f 37/86/3 12/23/3 26/60/3
f 36/85/3 33/75/3 32/73/3
f 38/88/3 33/75/3 36/85/3
f 10/20/1 38/89/1 36/84/1
f 39/91/3 12/23/3 37/86/3
f 34/79/1 39/92/1 37/87/1
f 43/104/2 38/90/2 41/97/2
f 39/91/3 45/110/3 44/106/3
f 22/51/3 41/98/3 40/94/3
f 48/118/2 44/105/2 46/113/2
f 39/91/3 44/106/3 12/23/3
f 22/51/3 40/94/3 10/19/3
f 55/133/4 54/130/4 62/153/4
f 13/26/4 53/128/4 77/188/4
f 76/184/3 77/187/3 75/182/3
f 83/204/4 82/202/4 79/193/4
f 5/9/3 19/42/3 18/39/3 4/7/3
f 86/212/2 77/189/2 43/104/2
f 90/226/3 83/205/3 89/222/3
f 83/206/2 90/225/2 92/232/2
f 87/218/2 85/209/2 42/101/2
f 86/213/3 62/151/3 85/210/3
f 89/222/3 83/205/3 55/132/3
f 85/210/3 62/151/3 13/25/3
f 69/169/2 65/159/2 144/357/2 157/389/2
f 153/381/5 159/393/5 149/371/5 152/379/5
f 104/255/1 97/241/1 105/259/1
f 146/365/5 110/272/5 111/275/5
f 105/259/1 97/241/1 107/265/1
f 57/137/4 141/353/4 56/134/4 63/154/4
f 106/261/5 118/290/5 96/239/5 107/264/5
f 127/313/5 125/308/5 126/310/5
f 123/302/1 121/297/1 122/300/1
f 128/317/5 125/308/5 127/313/5
f 128/317/5 129/319/5 125/308/5
f 121/296/5 120/294/5 119/292/5 122/299/5
f 133/331/5 123/303/5 132/328/5
f 129/320/1 137/343/1 136/340/1
f 108/267/1 133/329/1 132/327/1
f 132/326/2 134/335/2 46/113/2
f 137/342/5 108/267/5 136/339/5
f 132/328/5 123/303/5 98/244/5
f 121/297/1 123/302/1 39/92/1 34/79/1
f 129/320/1 136/340/1 100/248/1
f 136/339/5 108/267/5 100/247/5
f 108/267/1 132/327/1 98/243/1
f 145/360/5 140/350/5 141/352/5
f 148/369/5 99/245/5 143/356/5
f 145/361/4 144/359/4 149/372/4
f 130/322/1 131/324/1 128/316/1 127/314/1
f 82/201/3 93/233/3 84/207/3 81/198/3
f 7/13/3 20/45/3 21/48/3 6/11/3
f 80/195/4 145/361/4 159/394/4
f 147/368/5 126/310/5 160/398/5
f 161/399/4 145/361/4 80/195/4
f 147/368/5 162/402/5 126/310/5
f 145/360/5 170/424/5 169/420/5
f 145/362/2 92/232/2 170/422/2
f 172/430/4 147/366/4 171/428/4
f 171/426/2 167/415/2 138/347/2
f 170/423/4 148/369/4 169/419/4
f 148/369/5 172/429/5 171/427/5
f 145/360/5 169/420/5 140/350/5
f 171/428/4 147/366/4 99/246/4
f 148/369/5 171/427/5 99/245/5
f 169/419/4 148/369/4 140/351/4
f 102/250/5 142/354/5 103/253/5 109/269/5
f 105/259/1 107/265/1 21/50/1
f 106/262/1 122/300/1 20/47/1
f 47/115/2 39/93/2 123/304/2
f 149/372/4 144/359/4 67/166/4
f 156/387/4 155/385/4 150/374/4 160/396/4
f 80/195/4 159/394/4 78/192/4
f 91/230/2 87/218/2 167/415/2
f 38/88/3 77/187/3 76/184/3 33/75/3
f 71/173/3 70/171/3 67/164/3 78/190/3
f 75/182/3 61/149/3 17/38/3
f 87/218/2 42/101/2 48/118/2
f 160/398/5 126/310/5 124/305/5
f 147/367/2 139/349/2 129/321/2
f 61/149/3 53/129/3 60/147/3
f 157/390/5 144/358/5 57/136/5 151/377/5
f 97/241/1 106/262/1 107/265/1
f 124/305/5 112/277/5 113/279/5
f 105/258/5 95/237/5 94/235/5 104/256/5
f 145/361/4 149/372/4 159/394/4
f 154/383/4 103/252/4 146/364/4 158/392/4
f 27/62/1 3/5/1 16/33/1 17/36/1
f 14/28/3 9/18/3 23/55/3 15/31/3
f 24/57/1 11/22/1 18/40/1 19/43/1
f 59/144/3 23/55/3 25/59/3 16/35/3
f 23/55/3 59/144/3 15/31/3
f 19/43/1 105/259/1 24/57/1
f 26/61/1 24/57/1 105/259/1 21/50/1
f 29/66/1 28/64/1 32/72/1 33/76/1
f 75/182/3 17/38/3 25/59/3 36/85/3
f 36/85/3 32/73/3 75/182/3
f 122/300/1 35/82/1 37/87/1
f 122/300/1 37/87/1 26/61/1 20/47/1
f 41/98/5 40/94/5 42/102/5 43/103/5
f 37/87/1 35/82/1 34/79/1
f 46/112/4 44/107/4 45/109/4 47/114/4
f 38/89/1 40/96/1 41/99/1
f 48/116/4 40/96/4 41/99/4 49/119/4
f 47/115/2 45/108/2 39/93/2
f 22/53/1 44/107/1 45/109/1
f 45/110/5 44/106/5 48/117/5 49/120/5
f 48/118/2 42/101/2 40/95/2
f 22/52/2 45/111/2 49/121/2 41/100/2
f 50/122/4 51/124/4 59/142/4 58/139/4
f 147/368/5 129/319/5 128/317/5 162/402/5
f 38/89/1 10/20/1 40/96/1
f 161/399/4 82/202/4 83/204/4 145/361/4
f 22/53/1 12/24/1 44/107/1
f 52/126/4 72/175/4 61/148/4 60/145/4
f 63/154/4 56/134/4 64/157/4 65/160/4
f 58/140/3 59/144/3 53/129/3
f 55/132/3 64/158/3 56/135/3
f 144/359/4 64/157/4 66/163/4 67/166/4
f 13/25/3 62/151/3 54/131/3
f 144/359/4 65/160/4 64/157/4
f 59/144/3 60/147/3 53/129/3
f 55/132/3 66/162/3 64/158/3
f 68/167/3 63/155/3 65/161/3 69/170/3
f 73/177/4 74/179/4 76/185/4 75/181/4
f 9/18/3 14/28/3 58/140/3 53/129/3
f 53/129/3 61/149/3 75/182/3 77/187/3
f 81/199/4 80/195/4 79/193/4
f 66/163/4 79/193/4 80/195/4 78/192/4
f 55/132/3 79/194/3 66/162/3
f 42/102/5 85/210/5 86/213/5 43/103/5
f 82/202/4 81/199/4 79/193/4
f 55/132/3 83/205/3 79/194/3
f 90/227/1 89/224/1 91/229/1 92/231/1
f 86/214/4 85/211/4 77/188/4
f 86/214/1 85/211/1 87/216/1 88/219/1
f 87/217/5 89/222/5 90/226/5 88/220/5
f 90/227/4 89/224/4 62/153/4
f 86/215/2 88/221/2 90/228/2 62/152/2
f 87/218/2 91/230/2 89/223/2
f 110/272/5 102/250/5 109/269/5 111/275/5
f 85/211/4 13/26/4 77/188/4
f 89/224/4 55/133/4 62/153/4
f 112/277/5 110/272/5 146/365/5 113/279/5
f 102/251/1 110/273/1 100/248/1
f 101/249/1 108/267/1 98/243/1
f 100/247/5 108/267/5 101/249/5
f 111/276/1 109/270/1 114/282/1 115/285/1
f 110/273/1 112/278/1 100/248/1
f 122/300/1 106/262/1 97/241/1 123/302/1
f 98/244/5 123/303/5 97/242/5
f 112/277/5 124/305/5 126/310/5 125/308/5
f 46/112/4 47/114/4 133/329/4 132/327/4
f 112/278/1 125/309/1 100/248/1
f 125/309/1 129/320/1 100/248/1
f 138/346/3 136/339/3 137/342/3 139/348/3
f 133/330/2 47/115/2 123/304/2
f 134/333/4 135/336/4 137/343/4 136/340/4
f 129/321/2 139/349/2 137/344/2
f 134/334/3 132/328/3 133/331/3 135/337/3
f 136/341/2 138/347/2 134/335/2
f 133/332/2 108/268/2 137/345/2 135/338/2
f 57/137/4 144/359/4 145/361/4 141/353/4
f 103/253/5 142/354/5 147/368/5 146/365/5
f 126/311/4 162/403/4 166/411/4 165/409/4
f 147/366/4 142/355/4 99/246/4
f 148/369/4 143/356/4 140/351/4
f 147/368/5 150/376/5 146/365/5
f 80/196/5 163/405/5 164/407/5 161/400/5
f 92/231/1 91/229/1 169/419/1 170/423/1
f 171/427/3 138/346/3 139/348/3 172/429/3
f 172/430/1 168/416/1 167/413/1 171/428/1
f 147/367/2 172/431/2 139/349/2
f 170/424/3 169/420/3 167/414/3 168/417/3
f 168/418/2 172/432/2 148/370/2 170/425/2
f 169/421/2 91/230/2 167/415/2
f 94/236/6 4/8/6 18/41/6 104/257/6
f 5/10/2 95/238/2 105/260/2 19/44/2
f 96/240/6 6/12/6 21/49/6 107/266/6
f 7/14/2 118/291/2 106/263/2 20/46/2
f 119/293/6 30/69/6 35/83/6 122/301/6
f 31/71/2 120/295/2 121/298/2 34/80/2
f 134/335/2 48/118/2 46/113/2
f 57/138/6 63/156/6 68/168/6 151/378/6
f 149/373/6 67/165/6 70/172/6 152/380/6
f 78/191/2 159/395/2 153/382/2 71/174/2
f 80/197/6 81/200/6 84/208/6 163/406/6
f 82/203/2 161/401/2 164/408/2 93/234/2
f 145/362/2 83/206/2 92/232/2
f 14/29/6 1/2/6 50/123/6 58/141/6
f 2/4/2 15/32/2 59/143/2 51/125/2
f 16/34/6 3/6/6 52/127/6 60/146/6
f 59/144/3 16/35/3 60/147/3
f 114/283/6 109/271/6 103/254/6 154/384/6
f 150/376/5 113/279/5 146/365/5
f 116/286/6 113/280/6 150/375/6 155/386/6
f 27/63/2 17/37/2 61/150/2 72/176/2
f 32/74/6 28/65/6 73/178/6 75/183/6
f 29/67/2 33/77/2 76/186/2 74/180/2
f 124/306/2 117/288/2 156/388/2 160/397/2
f 43/104/2 77/189/2 38/90/2
f 130/323/6 127/315/6 126/312/6 165/410/6
f 128/318/2 131/325/2 166/412/2 162/404/2
f 138/347/2 167/415/2 134/335/2
f 25/59/3 17/38/3 16/35/3
f 21/50/1 20/47/1 26/61/1
f 78/192/4 67/166/4 66/163/4
f 147/368/5 160/398/5 150/376/5
f 116/287/1 117/289/1 124/307/1 113/281/1
