# Blender 4.2.3 LTS
# www.blender.org
mtllib hoe.mtl
o Cube.018
v -2.650000 -0.050000 0.050000
v -2.650000 0.050000 0.050000
v -2.650000 -0.050000 -0.050000
v -2.650000 0.050000 -0.050000
v -2.550000 -0.050000 0.050000
v 0.050000 -0.050000 0.050000
v -2.550000 -0.050000 -0.050000
v 0.050000 0.050000 0.050000
v 0.050000 -0.050000 -0.050000
v -2.450000 -0.050000 0.050000
v 0.050000 0.050000 -0.050000
v -2.450000 -0.050000 -0.050000
v -2.450000 0.050000 -0.050000
v -2.550000 0.050000 -0.050000
v -2.550000 0.050000 0.050000
v -2.450000 0.050000 0.050000
v -2.550000 -0.150000 0.250000
v -2.550000 -0.150000 0.150000
v -2.550000 -0.050000 0.150000
v -2.550000 -0.050000 0.050000
v -2.550000 -0.050000 -0.050000
v -2.550000 -0.150000 -0.150000
v -2.550000 -0.050000 -0.150000
v -2.550000 -0.150000 -0.250000
v -2.450000 -0.150000 0.250000
v -2.450000 -0.150000 0.150000
v -2.450000 -0.050000 0.150000
v -2.450000 -0.050000 0.050000
v -2.450000 -0.050000 -0.050000
v -2.450000 -0.150000 -0.150000
v -2.450000 -0.050000 -0.150000
v -2.450000 -0.150000 -0.250000
v -2.450000 -0.250000 0.250000
v -2.550000 -0.250000 0.250000
v -2.450000 -0.250000 -0.250000
v -2.550000 -0.250000 -0.250000
v -2.550000 0.100000 0.100000
v -2.550000 0.100000 -0.100000
v -2.450000 0.100000 0.100000
v -2.550000 -0.050000 0.050000
v -2.450000 0.100000 -0.100000
v -2.550000 -0.050000 -0.050000
v -2.450000 -0.050000 0.050000
v -2.450000 -0.050000 -0.050000
v -2.450000 -0.050000 0.100000
v -2.550000 -0.050000 0.100000
v -2.450000 -0.050000 -0.100000
v -2.550000 -0.050000 -0.100000
v -2.550000 -0.250000 0.250000
v -2.498236 -0.443185 0.250000
v -2.550000 -0.250000 -0.250000
v -2.498236 -0.443185 -0.250000
v -0.262500 0.050000 -0.050000
v -0.575000 0.050000 -0.050000
v -0.887500 0.050000 -0.050000
v -1.200000 0.050000 -0.050000
v -1.512500 0.050000 -0.050000
v -1.825000 0.050000 -0.050000
v -2.137500 0.050000 -0.050000
v -0.262500 -0.050000 -0.050000
v -0.575000 -0.050000 -0.050000
v -0.887500 -0.050000 -0.050000
v -1.200000 -0.050000 -0.050000
v -1.512500 -0.050000 -0.050000
v -1.825000 -0.050000 -0.050000
v -2.137500 -0.050000 -0.050000
v -0.262500 -0.050000 0.050000
v -0.575000 -0.050000 0.050000
v -0.887500 -0.050000 0.050000
v -1.200000 -0.050000 0.050000
v -1.512500 -0.050000 0.050000
v -1.825000 -0.050000 0.050000
v -2.137500 -0.050000 0.050000
v -0.262500 0.050000 0.050000
v -0.575000 0.050000 0.050000
v -0.887500 0.050000 0.050000
v -1.200000 0.050000 0.050000
v -1.512500 0.050000 0.050000
v -1.825000 0.050000 0.050000
v -2.137500 0.050000 0.050000
vn -1.0000 -0.0000 -0.0000
vn -0.0000 -0.0000 -1.0000
vn 1.0000 -0.0000 -0.0000
vn -0.0000 -0.0000 1.0000
vn -0.0000 -1.0000 -0.0000
vn -0.0000 1.0000 -0.0000
vn 0.9659 0.2588 -0.0000
vt 0.440000 0.080000
vt 0.440000 0.040000
vt 0.400000 0.040000
vt 0.400000 0.080000
vt 0.160000 0.125000
vt 0.160000 -0.000000
vt 0.120000 -0.000000
vt 0.120000 0.125000
vt 0.400000 0.200000
vt 0.400000 0.240000
vt 0.440000 0.240000
vt 0.440000 0.200000
vt 0.440000 0.120000
vt 0.400000 0.120000
vt 0.240000 0.280000
vt 0.280000 0.280000
vt 0.280000 0.320000
vt 0.240000 0.320000
vt 0.080000 0.125000
vt 0.080000 -0.000000
vt 0.120000 -0.000000
vt 0.120000 0.125000
vt 0.040000 0.875000
vt 0.000000 0.875000
vt 0.000000 1.000000
vt 0.040000 1.000000
vt 0.400000 0.280000
vt 0.440000 0.280000
vt 0.360000 0.320000
vt 0.320000 0.320000
vt 0.320000 0.280000
vt 0.360000 0.280000
vt 0.040000 0.125000
vt 0.040000 -0.000000
vt 0.080000 -0.000000
vt 0.080000 0.125000
vt 0.400000 0.400000
vt 0.360000 0.400000
vt 0.360000 0.360000
vt 0.400000 0.360000
vt 0.400000 0.360000
vt 0.440000 0.360000
vt 0.440000 0.400000
vt 0.400000 0.400000
vt 0.240000 0.280000
vt 0.240000 0.320000
vt 0.200000 0.320000
vt 0.200000 0.280000
vt 0.200000 0.240000
vt 0.200000 0.200000
vt 0.240000 0.200000
vt 0.240000 0.240000
vt 0.440000 0.160000
vt 0.400000 0.160000
vt 0.440000 -0.000000
vt 0.400000 -0.000000
vt 0.400000 0.320000
vt 0.240000 0.000000
vt 0.280000 0.000000
vt 0.280000 0.040000
vt 0.320000 0.040000
vt 0.320000 0.080000
vt 0.320000 0.120000
vt 0.320000 0.160000
vt 0.280000 0.160000
vt 0.280000 0.200000
vt 0.360000 0.360000
vt 0.160000 0.200000
vt 0.200000 0.200000
vt 0.200000 0.160000
vt 0.240000 0.160000
vt 0.240000 0.120000
vt 0.240000 0.080000
vt 0.240000 0.040000
vt 0.200000 0.040000
vt 0.200000 0.000000
vt 0.160000 0.000000
vt 0.160000 0.200000
vt 0.160000 0.400000
vt 0.200000 0.400000
vt 0.340000 0.280000
vt 0.340000 0.200000
vt 0.340000 0.220000
vt 0.340000 0.260000
vt 0.300000 0.200000
vt 0.300000 0.280000
vt 0.240000 0.280000
vt 0.240000 0.260000
vt 0.240000 0.220000
vt 0.240000 0.320000
vt 0.240000 0.380000
vt 0.200000 0.380000
vt 0.200000 0.320000
vt 0.160000 0.460000
vt 0.200000 0.460000
vt 0.200000 0.400000
vt 0.160000 0.400000
vt 0.280000 0.400000
vt 0.240000 0.400000
vt 0.320000 0.380000
vt 0.320000 0.340000
vt 0.280000 0.340000
vt 0.280000 0.380000
vt 0.320000 0.400000
vt 0.320000 0.200000
vt 0.320000 -0.000000
vt 0.040000 1.000000
vt 0.040000 0.875000
vt 0.080000 0.875000
vt 0.080000 1.000000
vt 0.040000 0.750000
vt 0.080000 0.750000
vt 0.040000 0.625000
vt 0.080000 0.625000
vt 0.040000 0.500000
vt 0.080000 0.500000
vt 0.040000 0.375000
vt 0.080000 0.375000
vt 0.040000 0.250000
vt 0.080000 0.250000
vt 0.040000 -0.000000
vt 0.000000 -0.000000
vt 0.000000 0.125000
vt 0.040000 0.125000
vt 0.000000 0.250000
vt 0.040000 0.250000
vt 0.000000 0.375000
vt 0.040000 0.375000
vt 0.000000 0.500000
vt 0.040000 0.500000
vt 0.000000 0.625000
vt 0.040000 0.625000
vt 0.000000 0.750000
vt 0.040000 0.750000
vt 0.080000 1.000000
vt 0.080000 0.875000
vt 0.120000 0.875000
vt 0.120000 1.000000
vt 0.080000 0.750000
vt 0.120000 0.750000
vt 0.080000 0.625000
vt 0.120000 0.625000
vt 0.080000 0.500000
vt 0.120000 0.500000
vt 0.080000 0.375000
vt 0.120000 0.375000
vt 0.080000 0.250000
vt 0.120000 0.250000
vt 0.160000 0.999999
vt 0.160000 0.874999
vt 0.120000 0.874999
vt 0.120000 0.999999
vt 0.160000 0.749999
vt 0.120000 0.749999
vt 0.160000 0.624999
vt 0.120000 0.624999
vt 0.160000 0.499999
vt 0.120000 0.499999
vt 0.160000 0.375000
vt 0.120000 0.375000
vt 0.160000 0.250000
vt 0.120000 0.250000
s 0
usemtl Material.001
f 1/1/1 2/2/1 4/3/1 3/4/1
f 53/5/2 11/6/2 9/7/2 60/8/2
f 3/9/2 4/10/2 14/11/2 7/12/2
f 9/13/3 11/14/3 8/4/3 6/1/3
f 15/15/4 2/16/4 1/17/4 5/18/4
f 67/19/4 6/20/4 8/21/4 74/22/4
f 66/23/5 73/24/5 10/25/5 12/26/5
f 1/27/5 3/28/5 7/11/5 5/10/5
f 4/29/6 2/30/6 15/31/6 14/32/6
f 74/33/6 8/34/6 11/35/6 53/36/6
f 15/37/3 5/38/3 7/39/3 14/40/3
f 13/17/1 12/30/1 10/31/1 16/16/1
f 33/41/4 25/42/4 17/43/4 34/44/4
f 29/45/6 31/46/6 23/47/6 21/48/6 20/49/6 19/50/6 27/51/6 28/52/6
f 18/53/4 26/54/4 27/14/4 19/13/4
f 25/9/6 26/54/6 18/53/6 17/12/6
f 23/2/2 31/55/2 30/56/2 22/3/2
f 30/32/6 32/27/6 24/57/6 22/29/6
f 35/58/3 32/59/3 30/60/3 31/61/3 29/62/3 28/63/3 27/64/3 26/65/3 25/66/3 33/51/3
f 36/29/2 24/67/2 32/41/2 35/57/2
f 34/68/1 17/69/1 18/70/1 19/71/1 20/72/1 21/73/1 23/74/1 22/75/1 24/76/1 36/77/1
f 34/78/5 36/79/5 35/80/5 33/50/5
f 46/81/1 37/27/1 38/9/1 48/82/1 42/83/1 40/84/1
f 47/51/3 41/85/3 39/86/3 45/87/3 43/88/3 44/89/3
f 45/90/4 39/91/4 37/92/4 46/93/4
f 38/94/2 41/95/2 47/96/2 48/97/2
f 39/17/6 41/98/6 38/99/6 37/18/6
f 44/100/5 43/101/5 45/30/5 46/17/5 40/102/5 42/103/5 48/98/5 47/104/5
f 49/9/7 50/105/7 52/106/7 51/56/7
f 16/107/6 80/108/6 59/109/6 13/110/6
f 80/108/6 79/111/6 58/112/6 59/109/6
f 79/111/6 78/113/6 57/114/6 58/112/6
f 78/113/6 77/115/6 56/116/6 57/114/6
f 77/115/6 76/117/6 55/118/6 56/116/6
f 76/117/6 75/119/6 54/120/6 55/118/6
f 75/119/6 74/33/6 53/36/6 54/120/6
f 9/121/5 6/122/5 67/123/5 60/124/5
f 60/124/5 67/123/5 68/125/5 61/126/5
f 61/126/5 68/125/5 69/127/5 62/128/5
f 62/128/5 69/127/5 70/129/5 63/130/5
f 63/130/5 70/129/5 71/131/5 64/132/5
f 64/132/5 71/131/5 72/133/5 65/134/5
f 65/134/5 72/133/5 73/24/5 66/23/5
f 10/135/4 73/136/4 80/137/4 16/138/4
f 73/136/4 72/139/4 79/140/4 80/137/4
f 72/139/4 71/141/4 78/142/4 79/140/4
f 71/141/4 70/143/4 77/144/4 78/142/4
f 70/143/4 69/145/4 76/146/4 77/144/4
f 69/145/4 68/147/4 75/148/4 76/146/4
f 68/147/4 67/19/4 74/22/4 75/148/4
f 13/149/2 59/150/2 66/151/2 12/152/2
f 59/150/2 58/153/2 65/154/2 66/151/2
f 58/153/2 57/155/2 64/156/2 65/154/2
f 57/155/2 56/157/2 63/158/2 64/156/2
f 56/157/2 55/159/2 62/160/2 63/158/2
f 55/159/2 54/161/2 61/162/2 62/160/2
f 54/161/2 53/5/2 60/8/2 61/162/2
