# MagicaVoxel @ Ephtracy

# group
o 

# material
mtllib Carrot_fase_2_leaf.mtl
usemtl palette

# normals
vn -1 0 0
vn 1 0 0
vn 0 0 1
vn 0 0 -1
vn 0 -1 0
vn 0 1 0

# texcoords
vt 0.00976563 0.5
vt 0.0136719 0.5
vt 0.0175781 0.5
vt 0.0214844 0.5

# verts
v -0.7 0.8 -0.2
v -0.7 0.8 -0.3
v -0.7 0.9 -0.2
v -0.7 0.9 -0.3
v -0.7 0.9 -0.4
v -0.7 1 -0.2
v -0.7 1 -0.3
v -0.7 1 -0.4
v -0.7 1.1 -0.3
v -0.7 1.1 -0.4
v -0.6 0.7 -0.2
v -0.6 0.7 -0.3
v -0.6 0.8 -0.1
v -0.6 0.8 -0.2
v -0.6 0.8 -0.3
v -0.6 0.9 -0.1
v -0.6 0.9 -0.2
v -0.5 0.6 -0.2
v -0.5 0.6 -0.3
v -0.5 0.7 -0.2
v -0.5 0.7 -0.3
v -0.5 0.7 -0.4
v -0.5 0.8 -0.3
v -0.5 0.8 -0.4
v -0.4 0.5 -0.2
v -0.4 0.5 -0.3
v -0.4 0.6 -0.1
v -0.4 0.6 -0.2
v -0.4 0.6 -0.3
v -0.4 0.7 -0.2
v -0.4 0.8 -0.1
v -0.4 0.8 -0.2
v -0.4 0.8 -0.3
v -0.4 0.8 -0.4
v -0.4 0.8 -0.5
v -0.4 0.9 -0.2
v -0.4 0.9 -0.3
v -0.4 0.9 -0.4
v -0.4 1 -0.4
v -0.4 1 -0.5
v -0.3 0.9 -0.1
v -0.3 0.9 -0.2
v -0.3 0.9 -0.3
v -0.3 1 -0.1
v -0.3 1 -0.2
v -0.3 1 -0.3
v -0.2 1 2.23517e-08
v -0.2 1 -0.1
v -0.2 1 -0.2
v -0.2 1 -0.3
v -0.2 1.1 2.23517e-08
v -0.2 1.1 -0.1
v -0.2 1.1 -0.3
v -0.2 1.2 2.23517e-08
v -0.2 1.2 -0.1
v -0.6 0.9 -0.3
v -0.6 0.9 -0.4
v -0.6 1 -0.3
v -0.6 1 -0.4
v -0.6 1.1 -0.3
v -0.6 1.1 -0.4
v -0.5 0.8 -0.1
v -0.5 0.8 -0.2
v -0.5 0.8 -0.3
v -0.5 0.9 -0.1
v -0.5 0.9 -0.2
v -0.5 0.9 -0.3
v -0.5 1 -0.2
v -0.5 1 -0.3
v -0.3 0.5 -0.2
v -0.3 0.5 -0.3
v -0.3 0.6 -0.1
v -0.3 0.6 -0.2
v -0.3 0.6 -0.3
v -0.3 0.7 -0.2
v -0.3 0.7 -0.3
v -0.3 0.7 -0.4
v -0.3 0.8 -0.1
v -0.3 0.8 -0.2
v -0.3 0.8 -0.3
v -0.3 0.8 -0.4
v -0.3 0.8 -0.5
v -0.3 0.9 -0.3
v -0.3 0.9 -0.4
v -0.3 1 -0.4
v -0.3 1 -0.5
v -0.2 0.7 -0.2
v -0.2 0.7 -0.3
v -0.2 0.8 -0.2
v -0.2 0.8 -0.3
v -0.2 0.9 -0.1
v -0.2 0.9 -0.2
v -0.2 0.9 -0.3
v -0.2 1 -0.1
v -0.2 1 -0.2
v -0.1 0.9 -0.2
v -0.1 0.9 -0.3
v -0.1 1 2.23517e-08
v -0.1 1 -0.1
v -0.1 1 -0.2
v -0.1 1 -0.3
v -0.1 1.1 2.23517e-08
v -0.1 1.1 -0.1
v -0.1 1.1 -0.3
v -0.1 1.2 2.23517e-08
v -0.1 1.2 -0.1
v -0.2 1 2.23517e-08
v -0.2 1.1 2.23517e-08
v -0.2 1.2 2.23517e-08
v -0.1 1 2.23517e-08
v -0.1 1.1 2.23517e-08
v -0.1 1.2 2.23517e-08
v -0.6 0.8 -0.1
v -0.6 0.9 -0.1
v -0.5 0.8 -0.1
v -0.5 0.9 -0.1
v -0.4 0.6 -0.1
v -0.4 0.8 -0.1
v -0.3 0.6 -0.1
v -0.3 0.8 -0.1
v -0.3 0.9 -0.1
v -0.3 1 -0.1
v -0.2 0.9 -0.1
v -0.2 1 -0.1
v -0.7 0.8 -0.2
v -0.7 0.9 -0.2
v -0.7 1 -0.2
v -0.6 0.7 -0.2
v -0.6 0.8 -0.2
v -0.6 0.9 -0.2
v -0.6 1 -0.2
v -0.5 0.6 -0.2
v -0.5 0.7 -0.2
v -0.5 0.8 -0.2
v -0.5 0.9 -0.2
v -0.5 1 -0.2
v -0.4 0.5 -0.2
v -0.4 0.6 -0.2
v -0.4 0.7 -0.2
v -0.4 0.8 -0.2
v -0.4 0.9 -0.2
v -0.3 0.5 -0.2
v -0.3 0.6 -0.2
v -0.3 0.7 -0.2
v -0.3 0.8 -0.2
v -0.3 0.9 -0.2
v -0.2 0.7 -0.2
v -0.2 0.8 -0.2
v -0.2 0.9 -0.2
v -0.2 1 -0.2
v -0.1 0.9 -0.2
v -0.1 1 -0.2
v -0.7 1 -0.3
v -0.7 1.1 -0.3
v -0.6 1 -0.3
v -0.6 1.1 -0.3
v -0.4 0.9 -0.4
v -0.4 1 -0.4
v -0.3 0.9 -0.4
v -0.3 1 -0.4
v -0.2 1.1 -0.1
v -0.2 1.2 -0.1
v -0.1 1.1 -0.1
v -0.1 1.2 -0.1
v -0.7 0.8 -0.3
v -0.7 0.9 -0.3
v -0.6 0.7 -0.3
v -0.6 0.8 -0.3
v -0.6 0.9 -0.3
v -0.6 1 -0.3
v -0.5 0.6 -0.3
v -0.5 0.7 -0.3
v -0.5 0.8 -0.3
v -0.5 0.9 -0.3
v -0.5 1 -0.3
v -0.4 0.5 -0.3
v -0.4 0.6 -0.3
v -0.4 0.7 -0.3
v -0.3 0.5 -0.3
v -0.3 0.6 -0.3
v -0.3 0.7 -0.3
v -0.3 0.8 -0.3
v -0.3 0.9 -0.3
v -0.3 1 -0.3
v -0.2 0.7 -0.3
v -0.2 0.8 -0.3
v -0.2 0.9 -0.3
v -0.2 1 -0.3
v -0.2 1.1 -0.3
v -0.1 0.9 -0.3
v -0.1 1 -0.3
v -0.1 1.1 -0.3
v -0.7 0.9 -0.4
v -0.7 1 -0.4
v -0.7 1.1 -0.4
v -0.6 0.9 -0.4
v -0.6 1 -0.4
v -0.6 1.1 -0.4
v -0.5 0.7 -0.4
v -0.5 0.8 -0.4
v -0.4 0.7 -0.4
v -0.4 0.8 -0.4
v -0.3 0.7 -0.4
v -0.3 0.8 -0.4
v -0.4 0.8 -0.5
v -0.4 1 -0.5
v -0.3 0.8 -0.5
v -0.3 1 -0.5
v -0.4 0.5 -0.2
v -0.3 0.5 -0.2
v -0.4 0.5 -0.3
v -0.3 0.5 -0.3
v -0.4 0.6 -0.1
v -0.3 0.6 -0.1
v -0.5 0.6 -0.2
v -0.4 0.6 -0.2
v -0.3 0.6 -0.2
v -0.5 0.6 -0.3
v -0.4 0.6 -0.3
v -0.6 0.7 -0.2
v -0.5 0.7 -0.2
v -0.3 0.7 -0.2
v -0.2 0.7 -0.2
v -0.6 0.7 -0.3
v -0.5 0.7 -0.3
v -0.4 0.7 -0.3
v -0.3 0.7 -0.3
v -0.2 0.7 -0.3
v -0.5 0.7 -0.4
v -0.4 0.7 -0.4
v -0.3 0.7 -0.4
v -0.6 0.8 -0.1
v -0.5 0.8 -0.1
v -0.7 0.8 -0.2
v -0.6 0.8 -0.2
v -0.5 0.8 -0.2
v -0.7 0.8 -0.3
v -0.6 0.8 -0.3
v -0.4 0.8 -0.4
v -0.3 0.8 -0.4
v -0.4 0.8 -0.5
v -0.3 0.8 -0.5
v -0.3 0.9 -0.1
v -0.2 0.9 -0.1
v -0.3 0.9 -0.2
v -0.2 0.9 -0.2
v -0.1 0.9 -0.2
v -0.7 0.9 -0.3
v -0.6 0.9 -0.3
v -0.2 0.9 -0.3
v -0.1 0.9 -0.3
v -0.7 0.9 -0.4
v -0.6 0.9 -0.4
v -0.2 1 2.23517e-08
v -0.1 1 2.23517e-08
v -0.2 1 -0.1
v -0.1 1 -0.1
v -0.2 1 -0.2
v -0.1 1 -0.2
v -0.4 0.8 -0.1
v -0.3 0.8 -0.1
v -0.5 0.8 -0.2
v -0.4 0.8 -0.2
v -0.3 0.8 -0.2
v -0.5 0.8 -0.3
v -0.4 0.8 -0.3
v -0.5 0.8 -0.4
v -0.4 0.8 -0.4
v -0.6 0.9 -0.1
v -0.5 0.9 -0.1
v -0.6 0.9 -0.2
v -0.5 0.9 -0.2
v -0.4 0.9 -0.2
v -0.3 0.9 -0.2
v -0.4 0.9 -0.3
v -0.3 0.9 -0.3
v -0.4 0.9 -0.4
v -0.3 0.9 -0.4
v -0.3 1 -0.1
v -0.2 1 -0.1
v -0.7 1 -0.2
v -0.6 1 -0.2
v -0.5 1 -0.2
v -0.3 1 -0.2
v -0.2 1 -0.2
v -0.7 1 -0.3
v -0.6 1 -0.3
v -0.5 1 -0.3
v -0.3 1 -0.3
v -0.2 1 -0.3
v -0.4 1 -0.4
v -0.3 1 -0.4
v -0.4 1 -0.5
v -0.3 1 -0.5
v -0.2 1.1 -0.1
v -0.1 1.1 -0.1
v -0.7 1.1 -0.3
v -0.6 1.1 -0.3
v -0.2 1.1 -0.3
v -0.1 1.1 -0.3
v -0.7 1.1 -0.4
v -0.6 1.1 -0.4
v -0.2 1.2 2.23517e-08
v -0.1 1.2 2.23517e-08
v -0.2 1.2 -0.1
v -0.1 1.2 -0.1

# faces
f 3/3/1 2/3/1 1/3/1
f 4/3/1 2/3/1 3/3/1
f 6/1/1 4/1/1 3/1/1
f 7/4/1 5/4/1 4/4/1
f 7/1/1 4/1/1 6/1/1
f 8/4/1 5/4/1 7/4/1
f 9/2/1 8/2/1 7/2/1
f 10/2/1 8/2/1 9/2/1
f 14/1/1 12/1/1 11/1/1
f 15/1/1 12/1/1 14/1/1
f 16/2/1 14/2/1 13/2/1
f 17/2/1 14/2/1 16/2/1
f 20/1/1 19/1/1 18/1/1
f 21/1/1 19/1/1 20/1/1
f 23/3/1 22/3/1 21/3/1
f 24/3/1 22/3/1 23/3/1
f 28/1/1 26/1/1 25/1/1
f 29/1/1 26/1/1 28/1/1
f 30/1/1 28/1/1 27/1/1
f 31/1/1 30/1/1 27/1/1
f 32/1/1 30/1/1 31/1/1
f 36/1/1 33/1/1 32/1/1
f 37/3/1 35/3/1 34/3/1
f 37/1/1 33/1/1 36/1/1
f 37/3/1 34/3/1 33/3/1
f 38/3/1 35/3/1 37/3/1
f 39/3/1 35/3/1 38/3/1
f 40/3/1 35/3/1 39/3/1
f 44/3/1 42/3/1 41/3/1
f 45/2/1 43/2/1 42/2/1
f 45/3/1 42/3/1 44/3/1
f 46/2/1 43/2/1 45/2/1
f 51/3/1 48/3/1 47/3/1
f 52/1/1 50/1/1 49/1/1
f 52/3/1 48/3/1 51/3/1
f 52/1/1 49/1/1 48/1/1
f 53/1/1 50/1/1 52/1/1
f 54/1/1 52/1/1 51/1/1
f 55/1/1 52/1/1 54/1/1
f 56/4/2 57/4/2 58/4/2
f 58/4/2 57/4/2 59/4/2
f 58/2/2 59/2/2 60/2/2
f 60/2/2 59/2/2 61/2/2
f 62/2/2 63/2/2 65/2/2
f 63/4/2 64/4/2 66/4/2
f 65/2/2 63/2/2 66/2/2
f 66/4/2 64/4/2 67/4/2
f 66/2/2 67/2/2 68/2/2
f 68/2/2 67/2/2 69/2/2
f 70/1/2 71/1/2 73/1/2
f 73/1/2 71/1/2 74/1/2
f 72/1/2 73/1/2 75/1/2
f 73/2/2 74/2/2 75/2/2
f 75/2/2 74/2/2 76/2/2
f 72/1/2 75/1/2 78/1/2
f 78/1/2 75/1/2 79/1/2
f 76/2/2 77/2/2 80/2/2
f 80/2/2 77/2/2 81/2/2
f 81/3/2 82/3/2 83/3/2
f 80/3/2 81/3/2 83/3/2
f 83/3/2 82/3/2 84/3/2
f 84/3/2 82/3/2 85/3/2
f 85/3/2 82/3/2 86/3/2
f 87/1/2 88/1/2 89/1/2
f 89/1/2 88/1/2 90/1/2
f 89/2/2 90/2/2 92/2/2
f 92/2/2 90/2/2 93/2/2
f 91/3/2 92/3/2 94/3/2
f 94/3/2 92/3/2 95/3/2
f 96/4/2 97/4/2 100/4/2
f 100/4/2 97/4/2 101/4/2
f 98/3/2 99/3/2 102/3/2
f 99/1/2 100/1/2 103/1/2
f 102/3/2 99/3/2 103/3/2
f 100/1/2 101/1/2 103/1/2
f 103/1/2 101/1/2 104/1/2
f 102/1/2 103/1/2 105/1/2
f 105/1/2 103/1/2 106/1/2
f 110/3/3 108/3/3 107/3/3
f 111/1/3 109/1/3 108/1/3
f 111/3/3 108/3/3 110/3/3
f 112/1/3 109/1/3 111/1/3
f 115/2/3 114/2/3 113/2/3
f 116/2/3 114/2/3 115/2/3
f 119/1/3 118/1/3 117/1/3
f 120/1/3 118/1/3 119/1/3
f 123/3/3 122/3/3 121/3/3
f 124/3/3 122/3/3 123/3/3
f 129/3/3 126/3/3 125/3/3
f 130/1/3 127/1/3 126/1/3
f 130/3/3 126/3/3 129/3/3
f 131/1/3 127/1/3 130/1/3
f 133/1/3 129/1/3 128/1/3
f 134/1/3 129/1/3 133/1/3
f 135/2/3 131/2/3 130/2/3
f 136/2/3 131/2/3 135/2/3
f 138/1/3 133/1/3 132/1/3
f 139/4/3 134/4/3 133/4/3
f 139/1/3 133/1/3 138/1/3
f 140/4/3 134/4/3 139/4/3
f 142/1/3 138/1/3 137/1/3
f 143/1/3 138/1/3 142/1/3
f 145/1/3 141/1/3 140/1/3
f 146/1/3 141/1/3 145/1/3
f 147/1/3 145/1/3 144/1/3
f 148/2/3 146/2/3 145/2/3
f 148/1/3 145/1/3 147/1/3
f 149/2/3 146/2/3 148/2/3
f 151/4/3 150/4/3 149/4/3
f 152/4/3 150/4/3 151/4/3
f 155/2/3 154/2/3 153/2/3
f 156/2/3 154/2/3 155/2/3
f 159/3/3 158/3/3 157/3/3
f 160/3/3 158/3/3 159/3/3
f 161/1/4 162/1/4 163/1/4
f 163/1/4 162/1/4 164/1/4
f 165/3/4 166/3/4 168/3/4
f 168/3/4 166/3/4 169/3/4
f 167/1/4 168/1/4 172/1/4
f 168/4/4 169/4/4 173/4/4
f 172/1/4 168/1/4 173/1/4
f 169/2/4 170/2/4 174/2/4
f 173/4/4 169/4/4 174/4/4
f 174/2/4 170/2/4 175/2/4
f 171/1/4 172/1/4 177/1/4
f 177/1/4 172/1/4 178/1/4
f 176/1/4 177/1/4 179/1/4
f 177/2/4 178/2/4 180/2/4
f 179/1/4 177/1/4 180/1/4
f 180/2/4 178/2/4 181/2/4
f 181/1/4 182/1/4 185/1/4
f 183/2/4 184/2/4 186/2/4
f 185/1/4 182/1/4 186/1/4
f 182/2/4 183/2/4 186/2/4
f 186/2/4 184/2/4 187/2/4
f 187/2/4 184/2/4 188/2/4
f 187/4/4 188/4/4 190/4/4
f 188/1/4 189/1/4 191/1/4
f 190/4/4 188/4/4 191/4/4
f 191/1/4 189/1/4 192/1/4
f 193/4/4 194/4/4 196/4/4
f 194/2/4 195/2/4 197/2/4
f 196/4/4 194/4/4 197/4/4
f 197/2/4 195/2/4 198/2/4
f 199/3/4 200/3/4 201/3/4
f 201/3/4 200/3/4 202/3/4
f 201/2/4 202/2/4 203/2/4
f 203/2/4 202/2/4 204/2/4
f 205/3/4 206/3/4 207/3/4
f 207/3/4 206/3/4 208/3/4
f 211/1/5 210/1/5 209/1/5
f 212/1/5 210/1/5 211/1/5
f 216/1/5 214/1/5 213/1/5
f 217/1/5 214/1/5 216/1/5
f 218/1/5 216/1/5 215/1/5
f 219/1/5 216/1/5 218/1/5
f 224/1/5 221/1/5 220/1/5
f 225/1/5 221/1/5 224/1/5
f 227/1/5 223/1/5 222/1/5
f 228/1/5 223/1/5 227/1/5
f 229/3/5 226/3/5 225/3/5
f 230/2/5 227/2/5 226/2/5
f 230/3/5 226/3/5 229/3/5
f 231/2/5 227/2/5 230/2/5
f 235/2/5 233/2/5 232/2/5
f 236/2/5 233/2/5 235/2/5
f 237/3/5 235/3/5 234/3/5
f 238/3/5 235/3/5 237/3/5
f 241/3/5 240/3/5 239/3/5
f 242/3/5 240/3/5 241/3/5
f 245/3/5 244/3/5 243/3/5
f 246/3/5 244/3/5 245/3/5
f 250/4/5 247/4/5 246/4/5
f 251/4/5 247/4/5 250/4/5
f 252/4/5 249/4/5 248/4/5
f 253/4/5 249/4/5 252/4/5
f 256/3/5 255/3/5 254/3/5
f 257/3/5 255/3/5 256/3/5
f 258/1/5 257/1/5 256/1/5
f 259/1/5 257/1/5 258/1/5
f 260/1/6 261/1/6 263/1/6
f 263/1/6 261/1/6 264/1/6
f 262/4/6 263/4/6 265/4/6
f 265/4/6 263/4/6 266/4/6
f 265/3/6 266/3/6 267/3/6
f 267/3/6 266/3/6 268/3/6
f 269/2/6 270/2/6 271/2/6
f 271/2/6 270/2/6 272/2/6
f 273/1/6 274/1/6 275/1/6
f 275/1/6 274/1/6 276/1/6
f 275/3/6 276/3/6 277/3/6
f 277/3/6 276/3/6 278/3/6
f 279/3/6 280/3/6 284/3/6
f 284/3/6 280/3/6 285/3/6
f 281/1/6 282/1/6 286/1/6
f 282/2/6 283/2/6 287/2/6
f 286/1/6 282/1/6 287/1/6
f 287/2/6 283/2/6 288/2/6
f 284/2/6 285/2/6 289/2/6
f 289/2/6 285/2/6 290/2/6
f 291/3/6 292/3/6 293/3/6
f 293/3/6 292/3/6 294/3/6
f 295/1/6 296/1/6 299/1/6
f 299/1/6 296/1/6 300/1/6
f 297/2/6 298/2/6 301/2/6
f 301/2/6 298/2/6 302/2/6
f 303/1/6 304/1/6 305/1/6
f 305/1/6 304/1/6 306/1/6
