# MagicaVoxel @ Ephtracy

# group
o 

# material
mtllib Strawberry_fase_2.mtl
usemtl palette

# normals
vn -1 0 0
vn 1 0 0
vn 0 0 1
vn 0 0 -1
vn 0 -1 0
vn 0 1 0

# texcoords
vt 0.0644531 0.5
vt 0.0683594 0.5
vt 0.0839844 0.5

# verts
v -0.6 1.4 0.3
v -0.6 1.4 0.2
v -0.6 1.5 0.4
v -0.6 1.5 0.3
v -0.6 1.5 0.2
v -0.6 1.5 0.1
v -0.6 1.6 0.3
v -0.6 1.6 0.2
v -0.6 1.6 0.1
v -0.6 1.7 0.4
v -0.6 1.7 0.2
v -0.6 1.7 0.1
v -0.5 1.3 0.3
v -0.5 1.3 0.2
v -0.5 1.4 0.4
v -0.5 1.4 0.3
v -0.5 1.4 0.2
v -0.5 1.4 0.1
v -0.5 1.5 0.4
v -0.5 1.5 0.3
v -0.5 1.5 0.2
v -0.5 1.5 0.1
v -0.5 1.7 0.3
v -0.5 1.7 0.2
v -0.5 1.8 0.3
v -0.5 1.8 0.2
v -0.4 1.4 0.3
v -0.4 1.4 0.2
v -0.4 1.5 0.3
v -0.4 1.5 0.2
v -0.4 1.6 0.3
v -0.4 1.7 0.3
v -0.4 1.7 0.2
v -0.4 1.8 0.3
v -0.4 1.8 0.2
v -0.4 1.9 0.3
v -0.4 1.9 0.2
v -0.5 1.4 0.3
v -0.5 1.4 0.2
v -0.5 1.5 0.3
v -0.5 1.5 0.2
v -0.5 1.6 0.3
v -0.5 1.6 0.2
v -0.5 1.7 0.3
v -0.5 1.7 0.2
v -0.4 1.3 0.3
v -0.4 1.3 0.2
v -0.4 1.4 0.4
v -0.4 1.4 0.3
v -0.4 1.4 0.2
v -0.4 1.4 0.1
v -0.4 1.5 0.4
v -0.4 1.5 0.3
v -0.4 1.5 0.2
v -0.4 1.5 0.1
v -0.4 1.7 0.3
v -0.4 1.7 0.2
v -0.4 1.8 0.3
v -0.4 1.8 0.2
v -0.3 1.4 0.3
v -0.3 1.4 0.2
v -0.3 1.5 0.4
v -0.3 1.5 0.3
v -0.3 1.5 0.2
v -0.3 1.5 0.1
v -0.3 1.7 0.4
v -0.3 1.7 0.1
v -0.3 1.8 0.3
v -0.3 1.8 0.2
v -0.3 1.9 0.3
v -0.3 1.9 0.2
v -0.6 1.5 0.4
v -0.6 1.7 0.4
v -0.5 1.4 0.4
v -0.5 1.5 0.4
v -0.5 1.6 0.4
v -0.4 1.4 0.4
v -0.4 1.5 0.4
v -0.4 1.6 0.4
v -0.3 1.5 0.4
v -0.3 1.7 0.4
v -0.6 1.4 0.3
v -0.6 1.5 0.3
v -0.5 1.3 0.3
v -0.5 1.4 0.3
v -0.5 1.5 0.3
v -0.5 1.7 0.3
v -0.5 1.8 0.3
v -0.4 1.3 0.3
v -0.4 1.4 0.3
v -0.4 1.5 0.3
v -0.4 1.7 0.3
v -0.4 1.8 0.3
v -0.4 1.9 0.3
v -0.3 1.4 0.3
v -0.3 1.5 0.3
v -0.3 1.8 0.3
v -0.3 1.9 0.3
v -0.5 1.4 0.2
v -0.5 1.5 0.2
v -0.5 1.6 0.2
v -0.5 1.7 0.2
v -0.4 1.4 0.2
v -0.4 1.5 0.2
v -0.4 1.7 0.2
v -0.5 1.4 0.3
v -0.5 1.5 0.3
v -0.5 1.6 0.3
v -0.5 1.7 0.3
v -0.4 1.4 0.3
v -0.4 1.5 0.3
v -0.4 1.6 0.3
v -0.4 1.7 0.3
v -0.6 1.4 0.2
v -0.6 1.5 0.2
v -0.5 1.3 0.2
v -0.5 1.4 0.2
v -0.5 1.5 0.2
v -0.5 1.7 0.2
v -0.5 1.8 0.2
v -0.4 1.3 0.2
v -0.4 1.4 0.2
v -0.4 1.5 0.2
v -0.4 1.7 0.2
v -0.4 1.8 0.2
v -0.4 1.9 0.2
v -0.3 1.4 0.2
v -0.3 1.5 0.2
v -0.3 1.8 0.2
v -0.3 1.9 0.2
v -0.6 1.5 0.1
v -0.6 1.6 0.1
v -0.6 1.7 0.1
v -0.5 1.4 0.1
v -0.5 1.5 0.1
v -0.5 1.6 0.1
v -0.5 1.7 0.1
v -0.4 1.4 0.1
v -0.4 1.5 0.1
v -0.3 1.5 0.1
v -0.3 1.7 0.1
v -0.5 1.3 0.3
v -0.4 1.3 0.3
v -0.5 1.3 0.2
v -0.4 1.3 0.2
v -0.5 1.4 0.4
v -0.4 1.4 0.4
v -0.6 1.4 0.3
v -0.5 1.4 0.3
v -0.4 1.4 0.3
v -0.3 1.4 0.3
v -0.6 1.4 0.2
v -0.5 1.4 0.2
v -0.4 1.4 0.2
v -0.3 1.4 0.2
v -0.5 1.4 0.1
v -0.4 1.4 0.1
v -0.6 1.5 0.4
v -0.5 1.5 0.4
v -0.4 1.5 0.4
v -0.3 1.5 0.4
v -0.6 1.5 0.3
v -0.5 1.5 0.3
v -0.4 1.5 0.3
v -0.3 1.5 0.3
v -0.6 1.5 0.2
v -0.5 1.5 0.2
v -0.4 1.5 0.2
v -0.3 1.5 0.2
v -0.6 1.5 0.1
v -0.5 1.5 0.1
v -0.4 1.5 0.1
v -0.3 1.5 0.1
v -0.5 1.7 0.3
v -0.4 1.7 0.3
v -0.5 1.7 0.2
v -0.4 1.7 0.2
v -0.4 1.8 0.3
v -0.3 1.8 0.3
v -0.4 1.8 0.2
v -0.3 1.8 0.2
v -0.5 1.4 0.3
v -0.4 1.4 0.3
v -0.5 1.4 0.2
v -0.4 1.4 0.2
v -0.6 1.7 0.4
v -0.3 1.7 0.4
v -0.5 1.7 0.3
v -0.4 1.7 0.3
v -0.6 1.7 0.2
v -0.5 1.7 0.2
v -0.4 1.7 0.2
v -0.6 1.7 0.1
v -0.5 1.7 0.1
v -0.3 1.7 0.1
v -0.5 1.8 0.3
v -0.4 1.8 0.3
v -0.5 1.8 0.2
v -0.4 1.8 0.2
v -0.4 1.9 0.3
v -0.3 1.9 0.3
v -0.4 1.9 0.2
v -0.3 1.9 0.2

# faces
f 4/2/1 2/2/1 1/2/1
f 5/2/1 2/2/1 4/2/1
f 7/2/1 4/2/1 3/2/1
f 7/1/1 5/1/1 4/1/1
f 8/2/1 6/2/1 5/2/1
f 8/1/1 5/1/1 7/1/1
f 9/2/1 6/2/1 8/2/1
f 10/2/1 7/2/1 3/2/1
f 10/2/1 8/2/1 7/2/1
f 11/1/1 9/1/1 8/1/1
f 11/2/1 8/2/1 10/2/1
f 12/1/1 9/1/1 11/1/1
f 16/2/1 14/2/1 13/2/1
f 17/2/1 14/2/1 16/2/1
f 19/1/1 16/1/1 15/1/1
f 20/1/1 16/1/1 19/1/1
f 21/1/1 18/1/1 17/1/1
f 22/1/1 18/1/1 21/1/1
f 25/3/1 24/3/1 23/3/1
f 26/3/1 24/3/1 25/3/1
f 29/1/1 28/1/1 27/1/1
f 30/1/1 28/1/1 29/1/1
f 31/2/1 30/2/1 29/2/1
f 32/2/1 30/2/1 31/2/1
f 33/2/1 30/2/1 32/2/1
f 36/3/1 35/3/1 34/3/1
f 37/3/1 35/3/1 36/3/1
f 38/2/2 39/2/2 40/2/2
f 40/2/2 39/2/2 41/2/2
f 40/1/2 41/1/2 42/1/2
f 42/1/2 41/1/2 43/1/2
f 42/2/2 43/2/2 44/2/2
f 44/2/2 43/2/2 45/2/2
f 46/2/2 47/2/2 49/2/2
f 49/2/2 47/2/2 50/2/2
f 48/1/2 49/1/2 52/1/2
f 52/1/2 49/1/2 53/1/2
f 50/1/2 51/1/2 54/1/2
f 54/1/2 51/1/2 55/1/2
f 56/3/2 57/3/2 58/3/2
f 58/3/2 57/3/2 59/3/2
f 60/1/2 61/1/2 63/1/2
f 63/1/2 61/1/2 64/1/2
f 62/2/2 63/2/2 66/2/2
f 64/2/2 65/2/2 66/2/2
f 63/2/2 64/2/2 66/2/2
f 66/2/2 65/2/2 67/2/2
f 68/3/2 69/3/2 70/3/2
f 70/3/2 69/3/2 71/3/2
f 75/2/3 73/2/3 72/2/3
f 76/2/3 73/2/3 75/2/3
f 77/1/3 75/1/3 74/1/3
f 77/1/3 76/1/3 75/1/3
f 78/1/3 76/1/3 77/1/3
f 79/2/3 73/2/3 76/2/3
f 79/1/3 76/1/3 78/1/3
f 80/2/3 79/2/3 78/2/3
f 81/2/3 73/2/3 79/2/3
f 81/2/3 79/2/3 80/2/3
f 85/2/3 83/2/3 82/2/3
f 86/2/3 83/2/3 85/2/3
f 89/2/3 85/2/3 84/2/3
f 90/2/3 85/2/3 89/2/3
f 92/3/3 88/3/3 87/3/3
f 93/3/3 88/3/3 92/3/3
f 95/1/3 91/1/3 90/1/3
f 96/1/3 91/1/3 95/1/3
f 97/3/3 94/3/3 93/3/3
f 98/3/3 94/3/3 97/3/3
f 103/1/3 100/1/3 99/1/3
f 104/2/3 102/2/3 101/2/3
f 104/1/3 100/1/3 103/1/3
f 104/2/3 101/2/3 100/2/3
f 105/2/3 102/2/3 104/2/3
f 106/1/4 107/1/4 110/1/4
f 107/1/4 108/1/4 110/1/4
f 110/1/4 108/1/4 111/1/4
f 108/2/4 109/2/4 112/2/4
f 111/1/4 108/1/4 112/1/4
f 112/2/4 109/2/4 113/2/4
f 114/2/4 115/2/4 117/2/4
f 117/2/4 115/2/4 118/2/4
f 116/2/4 117/2/4 121/2/4
f 121/2/4 117/2/4 122/2/4
f 119/3/4 120/3/4 124/3/4
f 124/3/4 120/3/4 125/3/4
f 122/1/4 123/1/4 127/1/4
f 127/1/4 123/1/4 128/1/4
f 125/3/4 126/3/4 129/3/4
f 129/3/4 126/3/4 130/3/4
f 131/2/4 132/2/4 135/2/4
f 132/1/4 133/1/4 136/1/4
f 135/2/4 132/2/4 136/2/4
f 136/1/4 133/1/4 137/1/4
f 134/1/4 135/1/4 138/1/4
f 135/2/4 136/2/4 139/2/4
f 138/1/4 135/1/4 139/1/4
f 136/2/4 137/2/4 139/2/4
f 139/2/4 137/2/4 140/2/4
f 140/2/4 137/2/4 141/2/4
f 144/2/5 143/2/5 142/2/5
f 145/2/5 143/2/5 144/2/5
f 149/1/5 147/1/5 146/1/5
f 150/1/5 147/1/5 149/1/5
f 152/2/5 149/2/5 148/2/5
f 153/2/5 149/2/5 152/2/5
f 154/1/5 151/1/5 150/1/5
f 155/1/5 151/1/5 154/1/5
f 156/1/5 154/1/5 153/1/5
f 157/1/5 154/1/5 156/1/5
f 162/2/5 159/2/5 158/2/5
f 163/2/5 159/2/5 162/2/5
f 164/2/5 161/2/5 160/2/5
f 165/2/5 161/2/5 164/2/5
f 170/2/5 167/2/5 166/2/5
f 171/2/5 167/2/5 170/2/5
f 172/2/5 169/2/5 168/2/5
f 173/2/5 169/2/5 172/2/5
f 176/3/5 175/3/5 174/3/5
f 177/3/5 175/3/5 176/3/5
f 180/3/5 179/3/5 178/3/5
f 181/3/5 179/3/5 180/3/5
f 182/2/6 183/2/6 184/2/6
f 184/2/6 183/2/6 185/2/6
f 186/2/6 187/2/6 188/2/6
f 188/2/6 187/2/6 189/2/6
f 186/2/6 188/2/6 190/2/6
f 190/2/6 188/2/6 191/2/6
f 189/2/6 187/2/6 192/2/6
f 190/1/6 191/1/6 193/1/6
f 191/2/6 192/2/6 194/2/6
f 193/1/6 191/1/6 194/1/6
f 192/2/6 187/2/6 195/2/6
f 194/2/6 192/2/6 195/2/6
f 196/3/6 197/3/6 198/3/6
f 198/3/6 197/3/6 199/3/6
f 200/3/6 201/3/6 202/3/6
f 202/3/6 201/3/6 203/3/6
