# Blender 3.3.1
# www.blender.org
mtllib plant.mtl
o Cube.003
v -70.349998 -2.099999 76.649986
v -70.349998 0.000001 76.649986
v 43.049995 -2.099999 76.649986
v 43.049995 0.000001 76.649986
v 43.049995 -2.099999 -22.049988
v 43.049995 0.000001 -22.049988
v -17.850002 0.000001 -22.049988
v -17.850002 -2.099999 -22.049988
v -17.850002 -2.099999 1.050003
v -17.850002 0.000001 1.050003
v -70.349998 -2.099999 26.250002
v -70.349998 0.000001 26.250002
v -64.050003 -2.099999 26.250002
v -64.050003 -2.099999 1.050003
v -64.050003 0.000001 26.250002
v -64.050003 0.000001 1.050003
vn -1.0000 -0.0000 -0.0000
vn -0.0000 -0.0000 -1.0000
vn 1.0000 -0.0000 -0.0000
vn -0.0000 -0.0000 1.0000
vn -0.0000 -1.0000 -0.0000
vn -0.0000 1.0000 -0.0000
vt 0.812500 0.010417
vt 0.000000 0.979167
vt 0.562500 0.000000
vt 0.812500 0.020833
vt 0.000000 0.989583
vt 0.000000 0.489583
vt 0.000000 0.989583
vt 0.562500 0.979167
vt 0.000000 -0.000000
vt 0.000000 1.000000
vt 0.562500 0.989583
vt 0.562500 0.489583
vt 0.562500 0.000000
vt 0.489583 0.989583
vt 0.000000 0.489583
vt 0.562500 0.010417
vt 0.489583 1.000000
vt 0.562500 0.979167
vt 0.864583 0.010417
vt 0.260417 0.979167
vt 0.562500 0.052083
vt 0.864583 0.000000
vt 0.302083 0.489583
vt 0.562500 0.041667
vt 0.302083 0.375000
vt 0.677083 0.041667
vt 0.562500 0.020833
vt 0.260417 0.864583
vt 0.677083 0.052083
vt 0.562500 0.031250
vt 0.562500 0.010417
vt 0.562500 0.250000
vt 0.593750 0.052083
vt 0.562500 0.020833
vt 0.000000 0.739583
vt 0.593750 0.062500
vt 0.531250 0.250000
vt 0.687500 0.031250
vt 0.562500 0.052083
vt 0.531250 0.375000
vt 0.791667 0.020833
vt 0.562500 0.031250
vt 0.031250 0.739583
vt 0.687500 0.041667
vt 0.562500 0.062500
vt 0.031250 0.864583
vt 0.791667 0.031250
vt 0.562500 0.041667
s 0
usemtl Material.001
f 1/1/1 2/4/1 12/34/1 11/31/1
f 7/19/2 6/16/2 5/13/2 8/22/2
f 5/14/3 6/17/3 4/10/3 3/7/3
f 3/8/4 4/11/4 2/5/4 1/2/4
f 9/25/5 8/23/5 5/15/5 3/9/5 1/3/5 11/32/5 13/37/5 14/40/5
f 12/35/6 2/6/6 4/12/6 6/18/6 7/20/6 10/28/6 16/46/6 15/43/6
f 8/24/1 9/26/1 10/29/1 7/21/1
f 10/30/2 9/27/2 14/41/2 16/47/2
f 14/42/1 13/38/1 15/44/1 16/48/1
f 12/36/2 15/45/2 13/39/2 11/33/2
