# Blender 4.2.3 LTS
# www.blender.org
mtllib Shovel.mtl
o Cube.030
v -2.150000 -0.050000 0.250000
v -2.250000 -0.050000 0.150000
v -2.250000 -0.050000 -0.150000
v -2.150000 -0.050000 0.150000
v -2.150000 -0.050000 -0.150000
v -1.750000 -0.050000 0.250000
v -1.750000 -0.100000 0.100000
v -1.750000 -0.050000 0.100000
v -1.750000 -0.050000 0.050000
v -1.650000 -0.100000 0.100000
v -1.650000 -0.050000 0.050000
v -2.150000 0.050000 0.250000
v -2.250000 0.050000 0.150000
v -2.250000 0.050000 -0.150000
v -2.150000 0.050000 0.150000
v -2.150000 0.050000 -0.150000
v -1.750000 0.050000 0.250000
v -1.750000 0.050000 0.100000
v -1.750000 0.100000 0.100000
v -1.750000 0.050000 0.050000
v -1.650000 0.100000 0.100000
v -1.650000 0.050000 0.050000
v -2.150000 -0.050000 -0.250000
v -1.750000 -0.100000 -0.100000
v -1.750000 -0.050000 -0.050000
v -1.750000 -0.050000 -0.100000
v -1.750000 -0.050000 -0.250000
v -1.650000 -0.100000 -0.100000
v -1.650000 -0.050000 -0.050000
v -2.150000 0.050000 -0.250000
v -1.750000 0.050000 -0.100000
v -1.750000 0.050000 -0.050000
v -1.750000 0.100000 -0.100000
v -1.750000 0.050000 -0.250000
v -1.650000 0.050000 -0.050000
v -1.650000 0.100000 -0.100000
v -0.050000 -0.050000 0.050000
v -0.050000 -0.050000 0.150000
v 0.050000 -0.050000 0.150000
v 0.050000 -0.050000 -0.150000
v -0.050000 0.050000 0.050000
v -0.050000 0.050000 0.150000
v 0.050000 0.050000 0.150000
v 0.050000 0.050000 -0.150000
v -0.050000 -0.050000 -0.050000
v -0.050000 -0.050000 -0.150000
v -0.050000 0.050000 -0.050000
v -0.050000 0.050000 -0.150000
vn -0.0000 -0.0000 -1.0000
vn -0.0000 -1.0000 -0.0000
vn 1.0000 -0.0000 -0.0000
vn -0.0000 1.0000 -0.0000
vn -1.0000 -0.0000 -0.0000
vn -0.0000 -0.0000 1.0000
vt 0.782609 0.478261
vt 0.739130 0.478261
vt 0.739130 0.521739
vt 0.739130 0.565217
vt 0.782609 0.565217
vt 0.260870 0.304348
vt 0.260870 0.347826
vt 0.956522 0.347826
vt 0.956522 0.391304
vt 1.000000 0.391304
vt 1.000000 0.260870
vt 0.956522 0.260870
vt 0.956522 0.304348
vt 0.260870 0.173913
vt 0.956522 0.173913
vt 0.956522 0.130435
vt 0.260870 0.130435
vt 0.478261 0.478261
vt 0.478261 0.434783
vt 0.521739 0.434783
vt 0.521739 0.521739
vt 0.434783 0.521739
vt 0.434783 0.478261
vt 0.956522 0.086957
vt 0.956522 0.043478
vt 1.000000 0.043478
vt 1.000000 0.173913
vt 0.260870 0.086957
vt 0.414628 0.478475
vt 0.370806 0.478475
vt 0.347826 0.478770
vt 0.347826 0.521739
vt 0.217391 0.130435
vt 0.217391 0.152174
vt 0.217391 0.217391
vt 0.043478 0.217391
vt 0.043478 0.173913
vt -0.000000 0.173913
vt -0.000000 0.043478
vt 0.043478 0.043478
vt 0.043478 -0.000000
vt 0.217391 -0.000000
vt 0.217391 0.065217
vt 0.217391 0.086957
vt 0.869565 0.434783
vt 0.826087 0.434783
vt 0.826087 0.521739
vt 0.869565 0.521739
vt 0.217391 0.347826
vt 0.260870 0.391304
vt 0.217391 0.391304
vt 0.695652 0.521739
vt 0.695652 0.478261
vt 0.695652 0.565217
vt 0.434783 0.434783
vt 0.365489 0.451087
vt 0.383152 0.451766
vt 0.347826 0.434783
vt 0.394701 0.459239
vt 0.428668 0.467391
vt 0.782609 0.434783
vt 0.782609 0.521739
vt 0.260870 0.260870
vt 0.652174 0.434783
vt 0.521739 0.478261
vt 0.652174 0.478261
vt 0.130435 0.565217
vt 0.086957 0.565217
vt 0.086957 0.521739
vt 0.130435 0.521739
vt 0.173913 0.565217
vt 0.173913 0.521739
vt 0.826087 0.391304
vt 0.891304 0.391304
vt 0.891304 0.434783
vt 0.217391 0.304348
vt 0.000000 0.478261
vt 0.000000 0.434783
vt 0.173913 0.434783
vt 0.173913 0.478261
vt 0.217391 0.565217
vt 0.217391 0.521739
vt 0.260870 0.521739
vt 0.260870 0.565217
vt 0.935690 0.434783
vt 1.000000 0.434783
vt 1.000000 0.478261
vt 0.935690 0.478261
vt 0.217391 0.173913
vt 0.347826 0.478261
vt 0.304348 0.565217
vt 0.304348 0.521739
vt 0.000000 0.565217
vt 0.000000 0.521739
vt 0.043478 0.521739
vt 0.043478 0.565217
vt 0.347826 0.565217
vt 0.391304 0.434783
vt 0.391304 0.478261
vt 0.217391 0.282241
vt 0.043478 0.260870
vt 0.000000 0.260870
vt 0.000000 0.391304
vt 0.043478 0.391304
vt 0.043478 0.434783
vt 0.217391 0.434783
vt 0.217391 0.369394
vt 0.565269 0.477919
vt 0.604091 0.544043
vt 0.565269 0.564875
vt 0.565217 0.565217
vt 0.652174 0.565217
vt 0.608696 0.608696
s 0
usemtl Material.002
f 28/1/1 24/2/1 26/2/1 31/3/1 33/4/1 36/5/1
f 11/6/2 29/7/2 45/8/2 46/9/2 40/10/2 39/11/2 38/12/2 37/13/2
f 35/14/1 47/15/1 45/16/1 29/17/1
f 35/18/3 29/19/3 28/20/3 36/21/3 21/22/3 22/23/3
f 41/24/4 42/25/4 43/26/4 44/27/4 48/15/4 47/16/4 35/17/4 22/28/4
f 32/29/5 20/30/5 18/31/5 19/32/5 33/22/5 31/23/5
f 32/33/4 31/34/4 34/35/4 30/36/4 16/37/4 14/38/4 13/39/4 15/40/4 12/41/4 17/42/4 18/43/4 20/44/4
f 10/45/2 7/46/2 24/47/2 28/48/2
f 9/49/4 11/7/4 29/50/4 25/51/4
f 8/52/6 7/53/6 10/2/6 21/4/6 19/54/6 18/54/6
f 24/55/5 7/56/5 8/57/5 9/58/5 25/59/5 26/60/5
f 22/28/2 20/44/2 32/33/2 35/17/2
f 19/61/4 21/46/4 36/47/4 33/62/4
f 11/63/6 37/12/6 41/13/6 22/6/6
f 3/64/5 2/20/5 13/65/5 14/66/5
f 15/67/6 13/68/6 2/69/6 4/70/6
f 15/71/5 4/72/5 1/70/5 12/67/5
f 6/73/3 8/74/3 18/75/3 17/46/3
f 9/76/1 20/49/1 22/7/1 11/6/1
f 12/77/6 1/78/6 6/79/6 17/80/6
f 3/72/1 14/71/1 16/81/1 5/82/1
f 23/83/5 5/82/5 16/81/5 30/84/5
f 26/85/3 27/86/3 34/87/3 31/88/3
f 32/89/6 25/33/6 29/17/6 35/14/6
f 23/79/1 30/80/1 34/90/1 27/58/1
f 41/91/5 37/92/5 38/83/5 42/84/5
f 39/64/3 40/61/3 44/1/3 43/66/3
f 42/93/6 38/94/6 39/95/6 43/96/6
f 46/32/5 45/92/5 47/91/5 48/97/5
f 46/95/1 48/96/1 44/68/1 40/69/1
f 9/58/3 25/98/3 32/99/3 20/90/3
f 29/19/5 11/55/5 22/23/5 35/18/5
f 8/100/2 6/35/2 1/36/2 4/101/2 2/102/2 3/103/2 5/104/2 23/105/2 27/106/2 26/107/2 25/49/2 9/76/2
f 11/108/3 22/109/3 21/110/3 10/111/3 28/112/3 29/113/3
