# Made in Blockbench 4.5.1
mtllib Strawberry_Plant_Final.mtl

o cube
v 0.03125 0.75 0.03125
v 0.03125 0.75 -0.03125
v 0.03125 0 0.03125
v 0.03125 0 -0.03125
v -0.03125 0.75 -0.03125
v -0.03125 0.75 0.03125
v -0.03125 0 -0.03125
v -0.03125 0 0.03125
vt 0.234375 0.53125
vt 0.25 0.53125
vt 0.25 0.34375
vt 0.234375 0.34375
vt 0.25 0.53125
vt 0.265625 0.53125
vt 0.265625 0.34375
vt 0.25 0.34375
vt 0.265625 0.53125
vt 0.28125 0.53125
vt 0.28125 0.34375
vt 0.265625 0.34375
vt 0.28125 0.53125
vt 0.296875 0.53125
vt 0.296875 0.34375
vt 0.28125 0.34375
vt 0.203125 0.609375
vt 0.1875 0.609375
vt 0.1875 0.625
vt 0.203125 0.625
vt 0.21875 0.625
vt 0.203125 0.625
vt 0.203125 0.609375
vt 0.21875 0.609375
vn 0 0 -1
vn 1 0 0
vn 0 0 1
vn -1 0 0
vn 0 1 0
vn 0 -1 0
usemtl m_0a018d59-ae9e-7b5b-be88-96cd2863bcdc
f 4/4/1 7/3/1 5/2/1 2/1/1
f 3/8/2 4/7/2 2/6/2 1/5/2
f 8/12/3 3/11/3 1/10/3 6/9/3
f 7/16/4 8/15/4 6/14/4 5/13/4
f 6/20/5 1/19/5 2/18/5 5/17/5
f 7/24/6 4/23/6 3/22/6 8/21/6
o plane
v 0.3398654201387437 0.9084818481527623 0.15625
v 0.3398654201387437 0.9084818481527623 -0.15625
v 0 0.75 0.15625
v 0 0.75 -0.15625
vt 0.421875 0.6875
vt 0.421875 0.765625
vt 0.328125 0.765625
vt 0.328125 0.6875
vn -0.42261826174069944 0.9063077870366499 0
usemtl m_0a018d59-ae9e-7b5b-be88-96cd2863bcdc
f 9/25/7 10/26/7 12/27/7 11/28/7
o plane
v 0 0.75 0.125
v 0 0.75 -0.125
v -0.23938888847468065 0.9508711280270435 0.125
v -0.23938888847468065 0.9508711280270435 -0.125
vt 0.515625 0.875
vt 0.515625 0.9375
vt 0.4375 0.9375
vt 0.4375 0.875
vn 0.6427876096865394 0.7660444431189781 0
usemtl m_0a018d59-ae9e-7b5b-be88-96cd2863bcdc
f 13/29/8 14/30/8 16/31/8 15/32/8
o plane
v -0.05303893568691456 0.75 0.2490486745229364
v -0.009461064313085441 0.75 -0.2490486745229364
v -0.48845929758346696 0.7690834819723344 0.2109543289886328
v -0.4448814262096379 0.7690834819723344 -0.28714302005723996
vt 0.328125 0.875
vt 0.328125 1
vt 0.21875 1
vt 0.21875 0.875
vn 0.043453402427357804 0.9990482215818578 0.003801680104023678
usemtl m_0a018d59-ae9e-7b5b-be88-96cd2863bcdc
f 17/33/9 18/34/9 20/35/9 19/36/9
o plane
v 0.46908607035791866 0.677002442821659 0.3125
v 0.46908607035791866 0.677002442821659 -0.3125
v 0.03532894350687661 0.7341076519179316 0.3125
v 0.03532894350687661 0.7341076519179316 -0.3125
vt 0.21875 0.84375
vt 0.21875 1
vt 0.109375 1
vt 0.109375 0.84375
vn 0.13052619222005157 0.9914448613738104 0
usemtl m_0a018d59-ae9e-7b5b-be88-96cd2863bcdc
f 21/37/10 22/38/10 24/39/10 23/40/10
o plane
v -0.1874999999999999 0.6649943625478995 0.4983351804151387
v 0.18750000000000006 0.6649943625478995 0.4983351804151386
v -0.18749999999999997 0.703125 0.06250000000000004
v 0.18749999999999997 0.703125 0.06249999999999996
vt 0.328125 0.78125
vt 0.328125 0.875
vt 0.21875 0.875
vt 0.21875 0.78125
vn 5.527483829964427e-18 0.9961946980917455 0.08715574274765832
usemtl m_0a018d59-ae9e-7b5b-be88-96cd2863bcdc
f 25/41/11 26/42/11 28/43/11 27/44/11
o plane
v 0.156250011291686 0.6115289229709968 -0.5246033879713623
v -0.15624998870831383 0.6115289215704391 -0.5246033959143195
v 0.1562499999999999 0.6875000007002788 -0.09374999602852147
v -0.15624999999999994 0.6874999992997212 -0.09375000397147862
vt 0.4375 0.84375
vt 0.4375 0.921875
vt 0.328125 0.921875
vt 0.328125 0.84375
vn -6.404439275246916e-18 0.9848077530122081 -0.17364817766693044
usemtl m_0a018d59-ae9e-7b5b-be88-96cd2863bcdc
f 29/45/12 30/46/12 32/47/12 31/48/12
o plane
v -0.21338834764831854 0.125 -0.0053616523516816506
v 0.007582521472477788 0.125 -0.2263325214724775
v -0.47830101222815286 0.10864272973799899 -0.2702743169315165
v -0.2573301431073565 0.10864272973799899 -0.4912451860523124
vt 0.1875 0.546875
vt 0.1875 0.625
vt 0.09375 0.625
vt 0.09375 0.546875
vn -0.030843564597231865 0.9990482215818577 -0.03084356459723195
usemtl m_0a018d59-ae9e-7b5b-be88-96cd2863bcdc
f 33/49/13 34/50/13 36/51/13 35/52/13
o plane
v 0.5900071268510421 0.03664479090372744 0.25
v 0.5900071268510421 0.03664479090372744 -0.25
v 0.15625 0.09375 0.25
v 0.15625 0.09375 -0.25
vt 0.21875 0.71875
vt 0.21875 0.84375
vt 0.109375 0.84375
vt 0.109375 0.71875
vn 0.13052619222005157 0.9914448613738104 0
usemtl m_0a018d59-ae9e-7b5b-be88-96cd2863bcdc
f 37/53/14 38/54/14 40/55/14 39/56/14
o plane
v 0.36123660569655713 0.13855267791748066 -0.41154872095822437
v 0.07801542224760405 0.13855267791748066 -0.5436169277521928
v 0.20411059172447654 0.1875 -0.07459089660301574
v -0.07911059172447654 0.1875 -0.20665910339698426
vt 0.09375 0.546875
vt 0.09375 0.625
vt 0 0.625
vt 0 0.546875
vn 0.05516275246767061 0.9914448613738105 -0.11829690442127537
usemtl m_0a018d59-ae9e-7b5b-be88-96cd2863bcdc
f 41/57/15 42/58/15 44/59/15 43/60/15
o plane
v 0.5521295031149709 0.18655766890207998 0.18750000000000003
v 0.5521295031149709 0.18655766890207998 -0.18749999999999997
v 0.125 0.28125 0.18750000000000003
v 0.125 0.28125 -0.18749999999999997
vt 0.328125 0.6875
vt 0.328125 0.78125
vt 0.21875 0.78125
vt 0.21875 0.6875
vn 0.21643961393810288 0.9762960071199334 0
usemtl m_0a018d59-ae9e-7b5b-be88-96cd2863bcdc
f 45/61/16 46/62/16 48/63/16 47/64/16
o plane
v -0.5452101804151388 0.19624436254789956 -0.15625
v -0.5452101804151388 0.1962443625478995 0.15625000000000006
v -0.10937500000000004 0.23437500000000003 -0.15625
v -0.10937500000000004 0.23437499999999997 0.15625000000000006
vt 0.4375 0.765625
vt 0.4375 0.84375
vt 0.328125 0.84375
vt 0.328125 0.765625
vn -0.08715574274765818 0.9961946980917455 1.21998664834562e-16
usemtl m_0a018d59-ae9e-7b5b-be88-96cd2863bcdc
f 49/65/17 50/66/17 52/67/17 51/68/17
o plane
v -0.1562499999999999 0.061066596469628184 0.5298230117844046
v 0.15625000000000006 0.061066596469628184 0.5298230117844045
v -0.15624999999999997 0.09375 0.15625000000000003
v 0.15624999999999997 0.09375 0.15624999999999997
vt 0.421875 0.609375
vt 0.421875 0.6875
vt 0.328125 0.6875
vt 0.328125 0.609375
vn 1.243997314765791e-17 0.9961946980917455 0.08715574274765817
usemtl m_0a018d59-ae9e-7b5b-be88-96cd2863bcdc
f 53/69/18 54/70/18 56/71/18 55/72/18
o plane
v -0.3437317563871052 0.14764243077593925 0.30831047921006877
v -0.13886494906679225 0.14292644194774146 0.45151435732708795
v -0.16493340366015646 0.1742329944140989 0.05339806094149041
v 0.03993340366015648 0.1695170055859011 0.1966019390585096
vt 0.515625 0.9375
vt 0.515625 1
vt 0.4375 1
vt 0.4375 0.9375
vn -0.033353058785002984 0.9961946980917457 0.0805214068653802
usemtl m_0a018d59-ae9e-7b5b-be88-96cd2863bcdc
f 57/73/19 58/74/19 60/75/19 59/76/19
o plane
v -0.585533617885625 0.02101979090372745 0.021635489161287935
v -0.46594504527153435 0.02101979090372748 0.31034784307106505
v -0.1847942863070453 0.07812499999999999 -0.14435617695488856
v -0.0652057136929547 0.07812500000000001 0.14435617695488856
vt 0.4375 0.921875
vt 0.4375 1
vt 0.328125 1
vt 0.328125 0.921875
vn -0.12059047744873959 0.9914448613738105 0.049950211252314705
usemtl m_0a018d59-ae9e-7b5b-be88-96cd2863bcdc
f 61/77/20 62/78/20 64/79/20 63/80/20
o plane
v -0.3398508497789669 0.2882671763155426 -0.2439561787006403
v -0.41482211605230185 0.2835513681528436 -0.005508971992854772
v -0.04297083737049009 0.3148579040813495 -0.15008690029056881
v -0.11794210364382499 0.3101420959186505 0.0883603064172167
vt 0.515625 0.8125
vt 0.515625 0.875
vt 0.4375 0.875
vt 0.4375 0.8125
vn -0.08682437464878953 0.9961946669150874 -0.007596945227187044
usemtl m_0a018d59-ae9e-7b5b-be88-96cd2863bcdc
f 65/81/21 66/82/21 68/83/21 67/84/21
o plane
v 0.04587867117142977 0.314653922270718 0.5776649269808907
v 0.4035225277020148 0.314653922270718 0.464900252166788
v -0.08368144252187046 0.390625 0.16675274379763372
v 0.27396241400871457 0.390625 0.05398806898353104
vt 0.109375 0.625
vt 0.109375 0.71875
vt 0 0.71875
vt 0 0.625
vn 0.052217014097794466 0.9848077530122081 0.16561121050749117
usemtl m_0a018d59-ae9e-7b5b-be88-96cd2863bcdc
f 69/85/22 70/86/22 72/87/22 71/88/22
o plane
v -0.0327513541472777 0.265625 -0.24521857665437924
v 0.24443953122091655 0.265625 -0.10092213501843114
v 0.1345042373940529 0.16856785808655483 -0.566513578641265
v 0.4116951227622472 0.16856785808655483 -0.42221713700531693
vt 0.28125 0.53125
vt 0.28125 0.609375
vt 0.1875 0.609375
vt 0.1875 0.53125
vn 0.11950933515490458 0.9659258262890684 -0.22957529683877842
usemtl m_0a018d59-ae9e-7b5b-be88-96cd2863bcdc
f 73/89/23 74/90/23 76/91/23 75/92/23
o plane
v 0.5751860504366451 0.267778922270718 -0.23725765984337177
v 0.22163265984337108 0.267778922270718 -0.5908110504366453
v 0.270526695296637 0.34375 0.06740169529663675
v -0.083026695296637 0.34375 -0.28615169529663675
vt 0.109375 0.71875
vt 0.109375 0.84375
vt 0 0.84375
vt 0 0.71875
vn 0.12278780396897271 0.9848077530122081 -0.12278780396897292
usemtl m_0a018d59-ae9e-7b5b-be88-96cd2863bcdc
f 77/93/24 78/94/24 80/95/24 79/96/24
o plane
v 0.17050248072758845 0.515625 -0.0012806444049530963
v -0.08548253311272141 0.515625 0.1779619919547487
v 0.37826459068595963 0.4185678580865548 0.29543439880863076
v 0.12227957684564977 0.4185678580865547 0.4746770351683326
vt 0.515625 0.6875
vt 0.515625 0.765625
vt 0.421875 0.765625
vt 0.421875 0.6875
vn 0.14845250554968445 0.9659258262890684 0.21201214989665465
usemtl m_0a018d59-ae9e-7b5b-be88-96cd2863bcdc
f 81/97/25 82/98/25 84/99/25 83/100/25
o plane
v 0.3474454032759743 0.48461255736344566 -0.2177226598258656
v 0.17055797914740012 0.47989674651818937 -0.3943256051954989
v 0.13298724155712954 0.5648579054226281 -0.005061824251859415
v -0.04390018257144464 0.5601420945773719 -0.1816647696214927
vt 0.078125 0.484375
vt 0.078125 0.546875
vt 0 0.546875
vt 0 0.484375
vn 0.16855931577218375 0.9662844215785129 -0.19463343412962705
usemtl m_0a018d59-ae9e-7b5b-be88-96cd2863bcdc
f 85/101/26 86/102/26 88/103/26 87/104/26
o plane
v -0.13474018252499315 0.3976424172291122 -0.4835043575714411
v -0.3563605773516941 0.3929264964120487 -0.36790954502475126
v 0.008809918673211528 0.42423296040853176 -0.20720278055927746
v -0.21281047615348941 0.41951703959146824 -0.09160796801258761
vt 0.15625 0.484375
vt 0.15625 0.546875
vt 0.078125 0.546875
vt 0.078125 0.484375
vn -0.05602233872843265 0.9961947088350807 -0.06676525782460441
usemtl m_0a018d59-ae9e-7b5b-be88-96cd2863bcdc
f 89/105/27 90/106/27 92/107/27 91/108/27
o plane
v -0.49744754234431804 0.2625851447732113 0.24727934920836586
v -0.24146252850400812 0.2625851447732114 0.4265219855680678
v -0.2874548981239654 0.34375 -0.05262122706543665
v -0.03146988428365549 0.34375 0.1266214092942653
vt 0.46875 0.53125
vt 0.46875 0.609375
vt 0.375 0.609375
vt 0.375 0.53125
vn -0.12414466244781347 0.9762960071199334 0.1772969522225172
usemtl m_0a018d59-ae9e-7b5b-be88-96cd2863bcdc
f 93/109/28 94/110/28 96/111/28 95/112/28
o plane
v -0.010843576654379232 0.421875 -0.2046263541472777
v 0.13345286498156883 0.421875 0.07256453122091655
v 0.3189397980471645 0.3729276779174807 -0.3763007128366617
v 0.46323623968311256 0.37292767791748066 -0.09910982746846747
vt 0.375 0.53125
vt 0.375 0.609375
vt 0.28125 0.609375
vt 0.28125 0.53125
vn 0.11577814651268867 0.9914448613738105 -0.060270288248458155
usemtl m_0a018d59-ae9e-7b5b-be88-96cd2863bcdc
f 97/113/29 98/114/29 100/115/29 99/116/29
o plane
v -0.125 0.46875 0.3125
v -0.125 0.46875 -0.3125
v -0.5475925490014674 0.3555166677676472 0.3125
v -0.5475925490014674 0.3555166677676472 -0.3125
vt 0.109375 0.84375
vt 0.109375 1
vt 0 1
vt 0 0.84375
vn -0.25881904510252074 0.9659258262890683 0
usemtl m_0a018d59-ae9e-7b5b-be88-96cd2863bcdc
f 101/117/30 102/118/30 104/119/30 103/120/30
o plane
v -0.3643859816391294 0.48965572188927425 -0.37879305434856225
v -0.5224012401377224 0.4839803084262721 -0.03875780946408461
v 0.025901673679796927 0.5653377067315011 -0.1961621881840616
v -0.13211358481879612 0.5596622932684989 0.14387305670041603
vt 0.21875 0.625
vt 0.21875 0.71875
vt 0.109375 0.71875
vt 0.109375 0.625
vn -0.16317591116653526 0.984807753012208 -0.059391174613885045
usemtl m_0a018d59-ae9e-7b5b-be88-96cd2863bcdc
f 105/121/31 106/122/31 108/123/31 107/124/31
o plane
v 0.3378980972752542 0.5372450506239859 0.3726737456088702
v 0.47167811986778785 0.5247475186142423 0.16184984457104518
v 0.08110970996359425 0.5999987660048718 0.20600657623297997
v 0.21488973255612787 0.5875012339951282 -0.004817324804845036
vt 0.234375 0.46875
vt 0.234375 0.53125
vt 0.15625 0.53125
vt 0.15625 0.46875
vn 0.1960052654779427 0.9783535006565927 0.06638044635215906
usemtl m_0a018d59-ae9e-7b5b-be88-96cd2863bcdc
f 109/125/32 110/126/32 112/127/32 111/128/32
o plane
v -0.5587571268510421 0.5678947909037274 -0.15624999999999992
v -0.5587571268510421 0.5678947909037275 0.15625000000000003
v -0.12500000000000003 0.625 -0.15624999999999997
v -0.12499999999999999 0.625 0.15624999999999997
vt 0.328125 0.609375
vt 0.328125 0.6875
vt 0.21875 0.6875
vt 0.21875 0.609375
vn -0.13052619222005157 0.9914448613738105 -1.0543212925053502e-16
usemtl m_0a018d59-ae9e-7b5b-be88-96cd2863bcdc
f 113/129/33 114/130/33 116/131/33 115/132/33
o plane
v -0.30081331972176417 0.5060855649312339 0.34210090226357426
v -0.07906061142720858 0.5060855649312339 0.4575380555723324
v -0.15775135414727778 0.546875 0.0672814233456209
v 0.06400135414727778 0.546875 0.1827185766543791
vt 0.5 0.625
vt 0.5 0.6875
vt 0.421875 0.6875
vt 0.421875 0.625
vn -0.060270288248458134 0.9914448613738104 0.11577814651268858
usemtl m_0a018d59-ae9e-7b5b-be88-96cd2863bcdc
f 117/133/34 118/134/34 120/135/34 119/136/34
o plane
v 0.032588532327971764 0.23830255074619397 -0.47290764863218265
v -0.21330767320954772 0.22740815268775802 -0.42913130578362707
v 0.08344782402862079 0.302322199029218 -0.1712935457102103
v -0.16244838150889868 0.291427800970782 -0.12751720286165477
vt 0.15625 0.484375
vt 0.15625 0.546875
vt 0.078125 0.546875
vt 0.078125 0.484375
vn -0.07793216217026094 0.9778201246161693 -0.19440777246573065
usemtl m_0a018d59-ae9e-7b5b-be88-96cd2863bcdc
f 121/137/35 122/138/35 124/139/35 123/140/35
o plane
v 0.3566285282596476 0.10249436254789919 0.5390733985464004
v 0.5849140641379182 0.10249436254789916 0.24156589593718747
v 0.010857232060864627 0.140625 0.27375375130460644
v 0.23914276793913536 0.140625 -0.02375375130460644
vt 0.328125 0.78125
vt 0.328125 0.875
vt 0.21875 0.875
vt 0.21875 0.78125
vn 0.06914529963441883 0.9961946980917454 0.053057054501381394
usemtl m_0a018d59-ae9e-7b5b-be88-96cd2863bcdc
f 125/141/36 126/142/36 128/143/36 127/144/36