# Blender 4.2.3 LTS
# www.blender.org
mtllib new.sellbox_box.mtl
o Cube
v -0.850000 0.000000 0.850000
v -0.650000 1.700000 0.650000
v -0.850000 0.000000 -0.850000
v -0.650000 1.700000 -0.650000
v 0.850000 0.000000 0.850000
v 0.850000 0.000000 -0.850000
v 0.650000 1.700000 -0.650000
v -0.850000 0.200000 -0.650000
v 0.650000 0.200000 0.850000
v 0.650000 1.500000 0.850000
v -0.850000 1.500000 0.650000
v -0.850000 1.500000 -0.650000
v 0.650000 0.200000 -0.850000
v 0.650000 1.500000 -0.850000
v 0.850000 0.200000 0.650000
v -0.650000 1.500000 -0.850000
v 0.850000 1.500000 -0.650000
v 0.850000 1.500000 0.650000
v -0.650000 0.200000 0.850000
v 0.650000 1.500000 0.750000
v 0.650000 0.200000 0.750000
v -0.750000 0.200000 0.650000
v -0.750000 1.500000 0.650000
v -0.750000 1.500000 -0.650000
v 0.650000 1.500000 -0.750000
v 0.650000 0.200000 -0.750000
v -0.650000 1.500000 -0.750000
v -0.650000 0.200000 -0.750000
v 0.750000 1.500000 -0.650000
v 0.750000 0.200000 -0.650000
v 0.750000 1.500000 0.650000
v -0.650000 0.200000 0.750000
v -0.650000 1.500000 0.750000
v -0.750000 0.200000 -0.650000
v 0.750000 0.200000 0.650000
v -0.850000 1.700000 0.850000
v -0.850000 1.700000 -0.850000
v 0.850000 1.700000 -0.850000
v 0.850000 1.700000 0.850000
v -0.650000 1.600000 0.650000
v -0.650000 1.600000 -0.650000
v 0.650000 1.600000 -0.650000
v 0.650000 1.600000 0.650000
v -0.050000 0.900000 -0.850000
v 0.050000 0.800000 -0.750000
v -0.650000 0.200000 -0.850000
v -0.650000 0.400000 -0.750000
v -0.650000 0.400000 -0.850000
v -0.550000 0.400000 -0.750000
v -0.550000 0.500000 -0.750000
v -0.550000 0.500000 -0.850000
v -0.550000 0.400000 -0.850000
v -0.450000 0.200000 -0.750000
v -0.450000 0.200000 -0.850000
v -0.450000 0.300000 -0.750000
v -0.450000 0.300000 -0.850000
v -0.350000 0.300000 -0.750000
v -0.350000 0.300000 -0.850000
v -0.350000 0.400000 -0.850000
v -0.150000 0.500000 -0.750000
v -0.150000 0.600000 -0.750000
v -0.150000 0.500000 -0.850000
v -0.150000 0.600000 -0.850000
v -0.350000 0.400000 -0.750000
v -0.250000 0.400000 -0.750000
v -0.250000 0.400000 -0.850000
v -0.250000 0.500000 -0.850000
v -0.250000 0.500000 -0.750000
v -0.350000 0.600000 -0.750000
v -0.350000 0.700000 -0.750000
v -0.350000 0.600000 -0.850000
v -0.350000 0.700000 -0.850000
v -0.450000 0.500000 -0.750000
v -0.450000 0.600000 -0.750000
v -0.450000 0.500000 -0.850000
v -0.450000 0.600000 -0.850000
v -0.050000 0.900000 -0.750000
v -0.050000 1.000000 -0.750000
v -0.050000 1.000000 -0.850000
v 0.050000 1.100000 -0.750000
v 0.050000 1.100000 -0.850000
v 0.150000 1.100000 -0.850000
v 0.050000 1.000000 -0.750000
v 0.050000 1.000000 -0.850000
v 0.050000 0.800000 -0.850000
v 0.150000 0.800000 -0.750000
v 0.150000 0.900000 -0.750000
v 0.150000 0.800000 -0.850000
v 0.150000 0.900000 -0.850000
v 0.250000 0.900000 -0.750000
v 0.250000 1.000000 -0.750000
v 0.250000 0.900000 -0.850000
v 0.250000 1.000000 -0.850000
v 0.050000 0.700000 -0.750000
v 0.050000 0.700000 -0.850000
v -0.050000 0.600000 -0.750000
v -0.050000 0.600000 -0.850000
v -0.050000 0.700000 -0.750000
v -0.050000 0.700000 -0.850000
v -0.150000 0.900000 -0.750000
v -0.150000 0.800000 -0.850000
v -0.150000 0.900000 -0.850000
v -0.250000 0.700000 -0.750000
v -0.250000 0.800000 -0.750000
v -0.250000 0.700000 -0.850000
v -0.250000 0.800000 -0.850000
v -0.150000 0.800000 -0.750000
v 0.150000 1.100000 -0.750000
v 0.150000 1.200000 -0.750000
v 0.150000 1.200000 -0.850000
v 0.250000 1.200000 -0.850000
v 0.250000 1.300000 -0.750000
v 0.250000 1.300000 -0.850000
v 0.350000 1.300000 -0.750000
v 0.250000 1.200000 -0.750000
v 0.350000 1.000000 -0.750000
v 0.350000 1.000000 -0.850000
v 0.350000 1.100000 -0.850000
v 0.350000 1.100000 -0.750000
v 0.450000 1.100000 -0.750000
v 0.450000 1.200000 -0.750000
v 0.450000 1.100000 -0.850000
v 0.450000 1.200000 -0.850000
v 0.350000 1.300000 -0.850000
v 0.550000 1.300000 -0.750000
v 0.550000 1.300000 -0.850000
v 0.650000 1.300000 -0.750000
v 0.650000 1.300000 -0.850000
v 0.550000 1.200000 -0.750000
v 0.550000 1.200000 -0.850000
v 0.450000 1.400000 -0.750000
v 0.450000 1.500000 -0.750000
v 0.450000 1.400000 -0.850000
v 0.450000 1.500000 -0.850000
v 0.350000 1.400000 -0.750000
v 0.350000 1.400000 -0.850000
v 0.850000 0.900000 -0.050000
v 0.750000 0.800000 0.050000
v 0.850000 0.200000 -0.650000
v 0.750000 0.400000 -0.650000
v 0.850000 0.400000 -0.650000
v 0.750000 0.400000 -0.550000
v 0.750000 0.500000 -0.550000
v 0.850000 0.500000 -0.550000
v 0.850000 0.400000 -0.550000
v 0.750000 0.200000 -0.450000
v 0.850000 0.200000 -0.450000
v 0.750000 0.300000 -0.450000
v 0.850000 0.300000 -0.450000
v 0.750000 0.300000 -0.350000
v 0.850000 0.300000 -0.350000
v 0.850000 0.400000 -0.350000
v 0.750000 0.500000 -0.150000
v 0.750000 0.600000 -0.150000
v 0.850000 0.500000 -0.150000
v 0.850000 0.600000 -0.150000
v 0.750000 0.400000 -0.350000
v 0.750000 0.400000 -0.250000
v 0.850000 0.400000 -0.250000
v 0.850000 0.500000 -0.250000
v 0.750000 0.500000 -0.250000
v 0.750000 0.600000 -0.350000
v 0.750000 0.700000 -0.350000
v 0.850000 0.600000 -0.350000
v 0.850000 0.700000 -0.350000
v 0.750000 0.500000 -0.450000
v 0.750000 0.600000 -0.450000
v 0.850000 0.500000 -0.450000
v 0.850000 0.600000 -0.450000
v 0.750000 0.900000 -0.050000
v 0.750000 1.000000 -0.050000
v 0.850000 1.000000 -0.050000
v 0.750000 1.100000 0.050000
v 0.850000 1.100000 0.050000
v 0.850000 1.100000 0.150000
v 0.750000 1.000000 0.050000
v 0.850000 1.000000 0.050000
v 0.850000 0.800000 0.050000
v 0.750000 0.800000 0.150000
v 0.750000 0.900000 0.150000
v 0.850000 0.800000 0.150000
v 0.850000 0.900000 0.150000
v 0.750000 0.900000 0.250000
v 0.750000 1.000000 0.250000
v 0.850000 0.900000 0.250000
v 0.850000 1.000000 0.250000
v 0.750000 0.700000 0.050000
v 0.850000 0.700000 0.050000
v 0.750000 0.600000 -0.050000
v 0.850000 0.600000 -0.050000
v 0.750000 0.700000 -0.050000
v 0.850000 0.700000 -0.050000
v 0.750000 0.900000 -0.150000
v 0.850000 0.800000 -0.150000
v 0.850000 0.900000 -0.150000
v 0.750000 0.700000 -0.250000
v 0.750000 0.800000 -0.250000
v 0.850000 0.700000 -0.250000
v 0.850000 0.800000 -0.250000
v 0.750000 0.800000 -0.150000
v 0.750000 1.100000 0.150000
v 0.750000 1.200000 0.150000
v 0.850000 1.200000 0.150000
v 0.850000 1.200000 0.250000
v 0.750000 1.300000 0.250000
v 0.850000 1.300000 0.250000
v 0.750000 1.300000 0.350000
v 0.750000 1.200000 0.250000
v 0.750000 1.000000 0.350000
v 0.850000 1.000000 0.350000
v 0.850000 1.100000 0.350000
v 0.750000 1.100000 0.350000
v 0.750000 1.100000 0.450000
v 0.750000 1.200000 0.450000
v 0.850000 1.100000 0.450000
v 0.850000 1.200000 0.450000
v 0.850000 1.300000 0.350000
v 0.750000 1.300000 0.550000
v 0.850000 1.300000 0.550000
v 0.750000 1.300000 0.650000
v 0.850000 1.300000 0.650000
v 0.750000 1.200000 0.550000
v 0.850000 1.200000 0.550000
v 0.750000 1.400000 0.450000
v 0.750000 1.500000 0.450000
v 0.850000 1.400000 0.450000
v 0.850000 1.500000 0.450000
v 0.750000 1.400000 0.350000
v 0.850000 1.400000 0.350000
v 0.050000 0.900000 0.850000
v -0.050000 0.800000 0.750000
v 0.650000 0.400000 0.750000
v 0.650000 0.400000 0.850000
v 0.550000 0.400000 0.750000
v 0.550000 0.500000 0.750000
v 0.550000 0.500000 0.850000
v 0.550000 0.400000 0.850000
v 0.450000 0.200000 0.750000
v 0.450000 0.200000 0.850000
v 0.450000 0.300000 0.750000
v 0.450000 0.300000 0.850000
v 0.350000 0.300000 0.750000
v 0.350000 0.300000 0.850000
v 0.350000 0.400000 0.850000
v 0.150000 0.500000 0.750000
v 0.150000 0.600000 0.750000
v 0.150000 0.500000 0.850000
v 0.150000 0.600000 0.850000
v 0.350000 0.400000 0.750000
v 0.250000 0.400000 0.750000
v 0.250000 0.400000 0.850000
v 0.250000 0.500000 0.850000
v 0.250000 0.500000 0.750000
v 0.350000 0.600000 0.750000
v 0.350000 0.700000 0.750000
v 0.350000 0.600000 0.850000
v 0.350000 0.700000 0.850000
v 0.450000 0.500000 0.750000
v 0.450000 0.600000 0.750000
v 0.450000 0.500000 0.850000
v 0.450000 0.600000 0.850000
v 0.050000 0.900000 0.750000
v 0.050000 1.000000 0.750000
v 0.050000 1.000000 0.850000
v -0.050000 1.100000 0.750000
v -0.050000 1.100000 0.850000
v -0.150000 1.100000 0.850000
v -0.050000 1.000000 0.750000
v -0.050000 1.000000 0.850000
v -0.050000 0.800000 0.850000
v -0.150000 0.800000 0.750000
v -0.150000 0.900000 0.750000
v -0.150000 0.800000 0.850000
v -0.150000 0.900000 0.850000
v -0.250000 0.900000 0.750000
v -0.250000 1.000000 0.750000
v -0.250000 0.900000 0.850000
v -0.250000 1.000000 0.850000
v -0.050000 0.700000 0.750000
v -0.050000 0.700000 0.850000
v 0.050000 0.600000 0.750000
v 0.050000 0.600000 0.850000
v 0.050000 0.700000 0.750000
v 0.050000 0.700000 0.850000
v 0.150000 0.900000 0.750000
v 0.150000 0.800000 0.850000
v 0.150000 0.900000 0.850000
v 0.250000 0.700000 0.750000
v 0.250000 0.800000 0.750000
v 0.250000 0.700000 0.850000
v 0.250000 0.800000 0.850000
v 0.150000 0.800000 0.750000
v -0.150000 1.100000 0.750000
v -0.150000 1.200000 0.750000
v -0.150000 1.200000 0.850000
v -0.250000 1.200000 0.850000
v -0.250000 1.300000 0.750000
v -0.250000 1.300000 0.850000
v -0.350000 1.300000 0.750000
v -0.250000 1.200000 0.750000
v -0.350000 1.000000 0.750000
v -0.350000 1.000000 0.850000
v -0.350000 1.100000 0.850000
v -0.350000 1.100000 0.750000
v -0.450000 1.100000 0.750000
v -0.450000 1.200000 0.750000
v -0.450000 1.100000 0.850000
v -0.450000 1.200000 0.850000
v -0.350000 1.300000 0.850000
v -0.650000 1.500000 0.850000
v -0.550000 1.300000 0.750000
v -0.550000 1.300000 0.850000
v -0.650000 1.300000 0.750000
v -0.650000 1.300000 0.850000
v -0.550000 1.200000 0.750000
v -0.550000 1.200000 0.850000
v -0.450000 1.400000 0.750000
v -0.450000 1.500000 0.750000
v -0.450000 1.400000 0.850000
v -0.450000 1.500000 0.850000
v -0.350000 1.400000 0.750000
v -0.350000 1.400000 0.850000
v -0.850000 0.900000 0.050000
v -0.750000 0.800000 -0.050000
v -0.850000 0.200000 0.650000
v -0.750000 0.400000 0.650000
v -0.850000 0.400000 0.650000
v -0.750000 0.400000 0.550000
v -0.750000 0.500000 0.550000
v -0.850000 0.500000 0.550000
v -0.850000 0.400000 0.550000
v -0.750000 0.200000 0.450000
v -0.850000 0.200000 0.450000
v -0.750000 0.300000 0.450000
v -0.850000 0.300000 0.450000
v -0.750000 0.300000 0.350000
v -0.850000 0.300000 0.350000
v -0.850000 0.400000 0.350000
v -0.750000 0.500000 0.150000
v -0.750000 0.600000 0.150000
v -0.850000 0.500000 0.150000
v -0.850000 0.600000 0.150000
v -0.750000 0.400000 0.350000
v -0.750000 0.400000 0.250000
v -0.850000 0.400000 0.250000
v -0.850000 0.500000 0.250000
v -0.750000 0.500000 0.250000
v -0.750000 0.600000 0.350000
v -0.750000 0.700000 0.350000
v -0.850000 0.600000 0.350000
v -0.850000 0.700000 0.350000
v -0.750000 0.500000 0.450000
v -0.750000 0.600000 0.450000
v -0.850000 0.500000 0.450000
v -0.850000 0.600000 0.450000
v -0.750000 0.900000 0.050000
v -0.750000 1.000000 0.050000
v -0.850000 1.000000 0.050000
v -0.750000 1.100000 -0.050000
v -0.850000 1.100000 -0.050000
v -0.850000 1.100000 -0.150000
v -0.750000 1.000000 -0.050000
v -0.850000 1.000000 -0.050000
v -0.850000 0.800000 -0.050000
v -0.750000 0.800000 -0.150000
v -0.750000 0.900000 -0.150000
v -0.850000 0.800000 -0.150000
v -0.850000 0.900000 -0.150000
v -0.750000 0.900000 -0.250000
v -0.750000 1.000000 -0.250000
v -0.850000 0.900000 -0.250000
v -0.850000 1.000000 -0.250000
v -0.750000 0.700000 -0.050000
v -0.850000 0.700000 -0.050000
v -0.750000 0.600000 0.050000
v -0.850000 0.600000 0.050000
v -0.750000 0.700000 0.050000
v -0.850000 0.700000 0.050000
v -0.750000 0.900000 0.150000
v -0.850000 0.800000 0.150000
v -0.850000 0.900000 0.150000
v -0.750000 0.700000 0.250000
v -0.750000 0.800000 0.250000
v -0.850000 0.700000 0.250000
v -0.850000 0.800000 0.250000
v -0.750000 0.800000 0.150000
v -0.750000 1.100000 -0.150000
v -0.750000 1.200000 -0.150000
v -0.850000 1.200000 -0.150000
v -0.850000 1.200000 -0.250000
v -0.750000 1.300000 -0.250000
v -0.850000 1.300000 -0.250000
v -0.750000 1.300000 -0.350000
v -0.750000 1.200000 -0.250000
v -0.750000 1.000000 -0.350000
v -0.850000 1.000000 -0.350000
v -0.850000 1.100000 -0.350000
v -0.750000 1.100000 -0.350000
v -0.750000 1.100000 -0.450000
v -0.750000 1.200000 -0.450000
v -0.850000 1.100000 -0.450000
v -0.850000 1.200000 -0.450000
v -0.850000 1.300000 -0.350000
v -0.750000 1.300000 -0.550000
v -0.850000 1.300000 -0.550000
v -0.750000 1.300000 -0.650000
v -0.850000 1.300000 -0.650000
v -0.750000 1.200000 -0.550000
v -0.850000 1.200000 -0.550000
v -0.750000 1.400000 -0.450000
v -0.750000 1.500000 -0.450000
v -0.850000 1.400000 -0.450000
v -0.850000 1.500000 -0.450000
v -0.750000 1.400000 -0.350000
v -0.850000 1.400000 -0.350000
v 0.050000 1.700000 -0.050000
v -0.050000 1.600000 0.050000
v 0.650000 1.700000 0.650000
v 0.650000 1.600000 0.450000
v 0.650000 1.700000 0.450000
v 0.550000 1.600000 0.450000
v 0.550000 1.600000 0.350000
v 0.550000 1.700000 0.350000
v 0.550000 1.700000 0.450000
v 0.450000 1.600000 0.650000
v 0.450000 1.700000 0.650000
v 0.450000 1.600000 0.550000
v 0.450000 1.700000 0.550000
v 0.350000 1.600000 0.550000
v 0.350000 1.700000 0.550000
v 0.350000 1.700000 0.450000
v 0.150000 1.600000 0.350000
v 0.150000 1.600000 0.250000
v 0.150000 1.700000 0.350000
v 0.150000 1.700000 0.250000
v 0.350000 1.600000 0.450000
v 0.250000 1.600000 0.450000
v 0.250000 1.700000 0.450000
v 0.250000 1.700000 0.350000
v 0.250000 1.600000 0.350000
v 0.350000 1.600000 0.250000
v 0.350000 1.600000 0.150000
v 0.350000 1.700000 0.250000
v 0.350000 1.700000 0.150000
v 0.450000 1.600000 0.350000
v 0.450000 1.600000 0.250000
v 0.450000 1.700000 0.350000
v 0.450000 1.700000 0.250000
v 0.050000 1.600000 -0.050000
v 0.050000 1.600000 -0.150000
v 0.050000 1.700000 -0.150000
v -0.050000 1.600000 -0.250000
v -0.050000 1.700000 -0.250000
v -0.150000 1.700000 -0.250000
v -0.050000 1.600000 -0.150000
v -0.050000 1.700000 -0.150000
v -0.050000 1.700000 0.050000
v -0.150000 1.600000 0.050000
v -0.150000 1.600000 -0.050000
v -0.150000 1.700000 0.050000
v -0.150000 1.700000 -0.050000
v -0.250000 1.600000 -0.050000
v -0.250000 1.600000 -0.150000
v -0.250000 1.700000 -0.050000
v -0.250000 1.700000 -0.150000
v -0.050000 1.600000 0.150000
v -0.050000 1.700000 0.150000
v 0.050000 1.600000 0.250000
v 0.050000 1.700000 0.250000
v 0.050000 1.600000 0.150000
v 0.050000 1.700000 0.150000
v 0.150000 1.600000 -0.050000
v 0.150000 1.700000 0.050000
v 0.150000 1.700000 -0.050000
v 0.250000 1.600000 0.150000
v 0.250000 1.600000 0.050000
v 0.250000 1.700000 0.150000
v 0.250000 1.700000 0.050000
v 0.150000 1.600000 0.050000
v -0.150000 1.600000 -0.250000
v -0.150000 1.600000 -0.350000
v -0.150000 1.700000 -0.350000
v -0.250000 1.700000 -0.350000
v -0.250000 1.600000 -0.450000
v -0.250000 1.700000 -0.450000
v -0.350000 1.600000 -0.450000
v -0.250000 1.600000 -0.350000
v -0.350000 1.600000 -0.150000
v -0.350000 1.700000 -0.150000
v -0.350000 1.700000 -0.250000
v -0.350000 1.600000 -0.250000
v -0.450000 1.600000 -0.250000
v -0.450000 1.600000 -0.350000
v -0.450000 1.700000 -0.250000
v -0.450000 1.700000 -0.350000
v -0.350000 1.700000 -0.450000
v -0.550000 1.600000 -0.450000
v -0.550000 1.700000 -0.450000
v -0.650000 1.600000 -0.450000
v -0.650000 1.700000 -0.450000
v -0.550000 1.600000 -0.350000
v -0.550000 1.700000 -0.350000
v -0.450000 1.600000 -0.550000
v -0.450000 1.600000 -0.650000
v -0.450000 1.700000 -0.550000
v -0.450000 1.700000 -0.650000
v -0.350000 1.600000 -0.550000
v -0.350000 1.700000 -0.550000
vn -0.0000 -1.0000 -0.0000
vn -1.0000 -0.0000 -0.0000
vn -0.0000 -0.0000 -1.0000
vn -0.0000 -0.0000 1.0000
vn 1.0000 -0.0000 -0.0000
vn -0.0000 1.0000 -0.0000
vt -0.000000 0.261538
vt 0.261538 0.261538
vt 0.261538 -0.000000
vt -0.000000 -0.000000
vt -0.000000 0.153846
vt 0.200000 0.153846
vt 0.200000 0.138462
vt -0.000000 0.138462
vt -0.000000 0.523077
vt 0.030769 0.492308
vt 0.030769 0.292308
vt 0.261538 0.523077
vt 0.230769 0.292308
vt 0.230769 0.492308
vt 0.523077 0.261538
vt 0.492308 0.230769
vt 0.292308 0.230769
vt 0.523077 0.523077
vt 0.492308 0.492308
vt 0.492308 0.292308
vt 0.292308 0.292308
vt 0.292308 0.492308
vt -0.000000 0.784615
vt 0.030769 0.553846
vt 0.030769 0.753846
vt 0.523077 -0.000000
vt 0.292308 0.030769
vt 0.492308 0.030769
vt 0.261538 0.784615
vt 0.230769 0.753846
vt 0.230769 0.553846
vt 0.507692 0.030769
vt 0.507692 0.230769
vt 0.030769 0.276923
vt 0.230769 0.276923
vt 0.292308 0.246154
vt 0.492308 0.246154
vt 0.492308 0.030769
vt 0.292308 0.030769
vt 0.292308 0.553846
vt 0.292308 0.753846
vt 0.492308 0.553846
vt 0.523077 0.784615
vt 0.492308 0.753846
vt 0.000000 0.123077
vt 0.200000 0.123077
vt 0.000000 0.092308
vt 0.200000 0.092308
vt 0.200000 0.076923
vt 0.000000 0.076923
vt 0.200000 0.107692
vt 0.000000 0.107692
vt 0.246154 0.846154
vt 0.230769 0.846154
vt 0.230769 0.830769
vt 0.246154 0.830769
vt 0.261538 0.830769
vt 0.261538 0.846154
vt 0.646154 0.092308
vt 0.646154 0.107692
vt 0.630769 0.107692
vt 0.630769 0.123077
vt 0.615385 0.123077
vt 0.615385 0.138462
vt 0.600000 0.138462
vt 0.600000 0.153846
vt 0.584615 0.153846
vt 0.584615 0.169231
vt 0.569231 0.169231
vt 0.569231 0.184615
vt 0.553846 0.184615
vt 0.553846 0.200000
vt 0.523077 0.200000
vt 0.523077 0.169231
vt 0.538462 0.169231
vt 0.538462 0.153846
vt 0.553846 0.153846
vt 0.553846 0.138462
vt 0.569231 0.138462
vt 0.569231 0.123077
vt 0.584615 0.123077
vt 0.584615 0.107692
vt 0.600000 0.107692
vt 0.600000 0.092308
vt 0.615385 0.092308
vt 0.615385 0.076923
vt 0.630769 0.076923
vt 0.630769 0.061538
vt 0.646154 0.061538
vt 0.646154 0.046154
vt 0.661538 0.046154
vt 0.661538 0.030769
vt 0.676923 0.030769
vt 0.676923 0.015385
vt 0.692308 0.015385
vt 0.692308 -0.000000
vt 0.723077 -0.000000
vt 0.723077 0.030769
vt 0.707692 0.030769
vt 0.707692 0.046154
vt 0.692308 0.046154
vt 0.692308 0.061538
vt 0.676923 0.061538
vt 0.676923 0.076923
vt 0.661538 0.076923
vt 0.661538 0.092308
vt 0.246154 0.861538
vt 0.261538 0.861538
vt 0.738462 0.092308
vt 0.738462 0.107692
vt 0.723077 0.107692
vt 0.723077 0.123077
vt 0.707692 0.123077
vt 0.707692 0.138462
vt 0.692308 0.138462
vt 0.692308 0.153846
vt 0.676923 0.153846
vt 0.676923 0.169231
vt 0.661538 0.169231
vt 0.661538 0.184615
vt 0.646154 0.184615
vt 0.646154 0.200000
vt 0.615385 0.200000
vt 0.615385 0.169231
vt 0.630769 0.169231
vt 0.630769 0.153846
vt 0.646154 0.153846
vt 0.646154 0.138462
vt 0.661538 0.138462
vt 0.661538 0.123077
vt 0.676923 0.123077
vt 0.676923 0.107692
vt 0.692308 0.107692
vt 0.692308 0.092308
vt 0.707692 0.092308
vt 0.707692 0.076923
vt 0.723077 0.076923
vt 0.723077 0.061538
vt 0.738462 0.061538
vt 0.738462 0.046154
vt 0.753846 0.046154
vt 0.753846 0.030769
vt 0.769231 0.030769
vt 0.769231 0.015385
vt 0.784615 0.015385
vt 0.784615 0.000000
vt 0.815385 0.000000
vt 0.815385 0.030769
vt 0.800000 0.030769
vt 0.800000 0.046154
vt 0.784615 0.046154
vt 0.784615 0.061538
vt 0.769231 0.061538
vt 0.769231 0.076923
vt 0.753846 0.076923
vt 0.753846 0.092308
s 0
usemtl Material.002
f 3/1/1 6/2/1 5/3/1 1/4/1
f 418/5/2 7/6/2 42/7/2 43/8/2
f 1/1/2 36/9/2 11/10/2 325/11/2
f 37/12/2 3/2/2 1/1/2 325/11/2 8/13/2 12/14/2 11/10/2 36/9/2
f 37/2/3 38/15/3 14/16/3 16/17/3
f 1/2/4 5/15/4 39/18/4 10/19/4 9/20/4 19/21/4 310/22/4 36/12/4
f 39/23/5 5/9/5 15/24/5 18/25/5
f 6/26/3 3/3/3 37/2/3 16/17/3 46/27/3 13/28/3 14/16/3 38/15/3
f 39/18/4 36/12/4 310/22/4 10/19/4
f 5/9/5 6/12/5 38/29/5 39/23/5 18/25/5 17/30/5 139/31/5 15/24/5
f 139/32/4 17/33/4 29/16/4 30/28/4
f 15/13/6 139/11/6 30/34/6 35/35/6
f 46/32/5 16/33/5 27/16/5 28/28/5
f 10/16/1 310/17/1 33/36/1 20/37/1
f 22/20/2 23/19/2 24/22/2 34/21/2
f 28/38/3 27/16/3 25/17/3 26/39/3
f 30/31/5 29/30/5 31/25/5 35/24/5
f 21/13/4 20/14/4 33/10/4 32/11/4
f 18/33/3 15/32/3 35/28/3 31/16/3
f 9/28/2 10/16/2 20/33/2 21/32/2
f 13/13/6 46/11/6 28/34/6 26/35/6
f 17/36/1 18/37/1 31/16/1 29/17/1
f 16/36/1 14/37/1 25/16/1 27/17/1
f 310/16/5 19/28/5 32/32/5 33/33/5
f 8/34/6 325/35/6 22/13/6 34/11/6
f 325/28/3 11/16/3 23/33/3 22/32/3
f 12/16/4 8/28/4 34/32/4 24/33/4
f 11/16/1 12/17/1 24/36/1 23/37/1
f 19/34/6 9/35/6 21/13/6 32/11/6
f 14/33/2 13/32/2 26/28/2 25/16/2
f 2/40/6 4/41/6 37/29/6 36/12/6
f 418/42/6 2/40/6 36/12/6 39/18/6 38/43/6 37/29/6 4/41/6 7/44/6
f 42/44/6 41/41/6 40/40/6 43/42/6
f 4/7/5 2/8/5 40/45/5 41/46/5
f 2/47/3 418/48/3 43/49/3 40/50/3
f 7/51/4 4/52/4 41/47/4 42/48/4
f 52/53/6 48/54/6 47/55/6 49/56/6
f 49/55/2 50/54/2 51/53/2 52/56/2
f 75/53/6 51/54/6 50/55/6 73/56/6
f 54/57/5 56/58/5 55/53/5 53/56/5
f 58/57/5 59/58/5 64/53/5 57/56/5
f 56/53/1 58/58/1 57/57/1 55/56/1
f 101/59/3 102/60/3 44/61/3 79/62/3 84/63/3 81/64/3 82/65/3 110/66/3 111/67/3 113/68/3 124/69/3 136/70/3 133/71/3 134/72/3 14/73/3 128/74/3 126/75/3 130/76/3 123/77/3 122/78/3 118/79/3 117/80/3 93/81/3 92/82/3 89/83/3 88/84/3 85/85/3 95/86/3 99/87/3 97/88/3 63/89/3 62/90/3 67/91/3 66/92/3 59/93/3 58/94/3 56/95/3 54/96/3 46/97/3 48/98/3 52/99/3 51/100/3 75/101/3 76/102/3 71/103/3 72/104/3 105/105/3 106/106/3
f 62/57/5 63/58/5 61/53/5 60/56/5
f 67/53/1 62/58/1 60/57/1 68/56/1
f 66/57/5 67/58/5 68/53/5 65/56/5
f 59/53/1 66/58/1 65/57/1 64/56/1
f 69/53/2 70/107/2 72/108/2 71/58/2
f 105/108/6 72/107/6 70/53/6 103/58/6
f 73/55/2 74/54/2 76/53/2 75/56/2
f 71/53/6 76/54/6 74/55/6 69/56/6
f 77/55/2 78/54/2 79/53/2 44/56/2
f 84/53/6 79/54/6 78/55/6 83/56/6
f 83/53/2 80/107/2 81/108/2 84/58/2
f 82/108/6 81/107/6 80/53/6 108/58/6
f 88/57/5 89/58/5 87/53/5 86/56/5
f 85/53/1 88/58/1 86/57/1 45/56/1
f 92/57/5 93/58/5 91/53/5 90/56/5
f 89/53/1 92/58/1 90/57/1 87/56/1
f 95/57/5 85/58/5 45/53/5 94/56/5
f 99/53/1 95/58/1 94/57/1 98/56/1
f 97/57/5 99/58/5 98/53/5 96/56/5
f 63/53/1 97/58/1 96/57/1 61/56/1
f 107/53/2 100/107/2 102/108/2 101/58/2
f 44/108/6 102/107/6 100/53/6 77/58/6
f 103/53/2 104/107/2 106/108/2 105/58/2
f 101/108/6 106/107/6 104/53/6 107/58/6
f 108/53/2 109/107/2 110/108/2 82/58/2
f 111/108/6 110/107/6 109/53/6 115/58/6
f 115/55/2 112/54/2 113/53/2 111/56/2
f 124/53/6 113/54/6 112/55/6 114/56/6
f 117/57/5 118/58/5 119/53/5 116/56/5
f 93/53/1 117/58/1 116/57/1 91/56/1
f 122/57/5 123/58/5 121/53/5 120/56/5
f 118/53/1 122/58/1 120/57/1 119/56/1
f 126/53/1 128/58/1 127/57/1 125/56/1
f 130/57/5 126/58/5 125/53/5 129/56/5
f 123/53/1 130/58/1 129/57/1 121/56/1
f 131/55/2 132/54/2 134/53/2 133/56/2
f 114/55/2 135/54/2 136/53/2 124/56/2
f 133/53/6 136/54/6 135/55/6 131/56/6
f 145/56/6 141/53/6 140/54/6 142/55/6
f 142/55/3 143/54/3 144/53/3 145/56/3
f 168/56/6 144/53/6 143/54/6 166/55/6
f 147/57/4 149/58/4 148/53/4 146/56/4
f 151/57/4 152/58/4 157/53/4 150/56/4
f 149/58/1 151/57/1 150/56/1 148/53/1
f 194/59/5 195/60/5 137/61/5 172/62/5 177/63/5 174/64/5 175/65/5 203/66/5 204/67/5 206/68/5 217/69/5 229/70/5 226/71/5 227/72/5 18/73/5 221/74/5 219/75/5 223/76/5 216/77/5 215/78/5 211/79/5 210/80/5 186/81/5 185/82/5 182/83/5 181/84/5 178/85/5 188/86/5 192/87/5 190/88/5 156/89/5 155/90/5 160/91/5 159/92/5 152/93/5 151/94/5 149/95/5 147/96/5 139/97/5 141/98/5 145/99/5 144/100/5 168/101/5 169/102/5 164/103/5 165/104/5 198/105/5 199/106/5
f 155/57/4 156/58/4 154/53/4 153/56/4
f 160/58/1 155/57/1 153/56/1 161/53/1
f 159/57/4 160/58/4 161/53/4 158/56/4
f 152/58/1 159/57/1 158/56/1 157/53/1
f 162/53/3 163/107/3 165/108/3 164/58/3
f 198/58/6 165/108/6 163/107/6 196/53/6
f 166/55/3 167/54/3 169/53/3 168/56/3
f 164/56/6 169/53/6 167/54/6 162/55/6
f 170/55/3 171/54/3 172/53/3 137/56/3
f 177/56/6 172/53/6 171/54/6 176/55/6
f 176/53/3 173/107/3 174/108/3 177/58/3
f 175/58/6 174/108/6 173/107/6 201/53/6
f 181/57/4 182/58/4 180/53/4 179/56/4
f 178/58/1 181/57/1 179/56/1 138/53/1
f 185/57/4 186/58/4 184/53/4 183/56/4
f 182/58/1 185/57/1 183/56/1 180/53/1
f 188/57/4 178/58/4 138/53/4 187/56/4
f 192/58/1 188/57/1 187/56/1 191/53/1
f 190/57/4 192/58/4 191/53/4 189/56/4
f 156/58/1 190/57/1 189/56/1 154/53/1
f 200/53/3 193/107/3 195/108/3 194/58/3
f 137/58/6 195/108/6 193/107/6 170/53/6
f 196/53/3 197/107/3 199/108/3 198/58/3
f 194/58/6 199/108/6 197/107/6 200/53/6
f 201/53/3 202/107/3 203/108/3 175/58/3
f 204/58/6 203/108/6 202/107/6 208/53/6
f 208/55/3 205/54/3 206/53/3 204/56/3
f 217/56/6 206/53/6 205/54/6 207/55/6
f 210/57/4 211/58/4 212/53/4 209/56/4
f 186/58/1 210/57/1 209/56/1 184/53/1
f 215/57/4 216/58/4 214/53/4 213/56/4
f 211/58/1 215/57/1 213/56/1 212/53/1
f 219/58/1 221/57/1 220/56/1 218/53/1
f 223/57/4 219/58/4 218/53/4 222/56/4
f 216/58/1 223/57/1 222/56/1 214/53/1
f 224/55/3 225/54/3 227/53/3 226/56/3
f 207/55/3 228/54/3 229/53/3 217/56/3
f 226/56/6 229/53/6 228/54/6 224/55/6
f 237/55/6 233/56/6 232/53/6 234/54/6
f 234/56/5 235/53/5 236/54/5 237/55/5
f 260/55/6 236/56/6 235/53/6 258/54/6
f 239/56/2 241/53/2 240/58/2 238/57/2
f 243/56/2 244/53/2 249/58/2 242/57/2
f 241/57/1 243/56/1 242/53/1 240/58/1
f 286/59/4 287/60/4 230/61/4 264/62/4 269/63/4 266/64/4 267/65/4 295/66/4 296/67/4 298/68/4 309/69/4 322/70/4 319/71/4 320/72/4 310/73/4 314/74/4 312/75/4 316/76/4 308/77/4 307/78/4 303/79/4 302/80/4 278/81/4 277/82/4 274/83/4 273/84/4 270/85/4 280/86/4 284/87/4 282/88/4 248/89/4 247/90/4 252/91/4 251/92/4 244/93/4 243/94/4 241/95/4 239/96/4 9/97/4 233/98/4 237/99/4 236/100/4 260/101/4 261/102/4 256/103/4 257/104/4 290/105/4 291/106/4
f 247/56/2 248/53/2 246/58/2 245/57/2
f 252/57/1 247/56/1 245/53/1 253/58/1
f 251/56/2 252/53/2 253/58/2 250/57/2
f 244/57/1 251/56/1 250/53/1 249/58/1
f 254/58/5 255/108/5 257/107/5 256/53/5
f 290/53/6 257/58/6 255/108/6 288/107/6
f 258/56/5 259/53/5 261/54/5 260/55/5
f 256/55/6 261/56/6 259/53/6 254/54/6
f 262/56/5 263/53/5 264/54/5 230/55/5
f 269/55/6 264/56/6 263/53/6 268/54/6
f 268/58/5 265/108/5 266/107/5 269/53/5
f 267/53/6 266/58/6 265/108/6 293/107/6
f 273/56/2 274/53/2 272/58/2 271/57/2
f 270/57/1 273/56/1 271/53/1 231/58/1
f 277/56/2 278/53/2 276/58/2 275/57/2
f 274/57/1 277/56/1 275/53/1 272/58/1
f 280/56/2 270/53/2 231/58/2 279/57/2
f 284/57/1 280/56/1 279/53/1 283/58/1
f 282/56/2 284/53/2 283/58/2 281/57/2
f 248/57/1 282/56/1 281/53/1 246/58/1
f 292/58/5 285/108/5 287/107/5 286/53/5
f 230/53/6 287/58/6 285/108/6 262/107/6
f 288/58/5 289/108/5 291/107/5 290/53/5
f 286/53/6 291/58/6 289/108/6 292/107/6
f 293/58/5 294/108/5 295/107/5 267/53/5
f 296/53/6 295/58/6 294/108/6 300/107/6
f 300/56/5 297/53/5 298/54/5 296/55/5
f 309/55/6 298/56/6 297/53/6 299/54/6
f 302/56/2 303/53/2 304/58/2 301/57/2
f 278/57/1 302/56/1 301/53/1 276/58/1
f 307/56/2 308/53/2 306/58/2 305/57/2
f 303/57/1 307/56/1 305/53/1 304/58/1
f 312/57/1 314/56/1 313/53/1 311/58/1
f 316/56/2 312/53/2 311/58/2 315/57/2
f 308/57/1 316/56/1 315/53/1 306/58/1
f 317/56/5 318/53/5 320/54/5 319/55/5
f 299/56/5 321/53/5 322/54/5 309/55/5
f 319/55/6 322/56/6 321/53/6 317/54/6
f 331/54/6 327/55/6 326/56/6 328/53/6
f 328/56/4 329/53/4 330/54/4 331/55/4
f 354/54/6 330/55/6 329/56/6 352/53/6
f 333/56/3 335/53/3 334/58/3 332/57/3
f 337/56/3 338/53/3 343/58/3 336/57/3
f 335/56/1 337/53/1 336/58/1 334/57/1
f 380/59/2 381/60/2 323/61/2 358/62/2 363/63/2 360/64/2 361/65/2 389/66/2 390/67/2 392/68/2 403/69/2 415/70/2 412/71/2 413/72/2 12/73/2 407/74/2 405/75/2 409/76/2 402/77/2 401/78/2 397/79/2 396/80/2 372/81/2 371/82/2 368/83/2 367/84/2 364/85/2 374/86/2 378/87/2 376/88/2 342/89/2 341/90/2 346/91/2 345/92/2 338/93/2 337/94/2 335/95/2 333/96/2 325/97/2 327/98/2 331/99/2 330/100/2 354/101/2 355/102/2 350/103/2 351/104/2 384/105/2 385/106/2
f 341/56/3 342/53/3 340/58/3 339/57/3
f 346/56/1 341/53/1 339/58/1 347/57/1
f 345/56/3 346/53/3 347/58/3 344/57/3
f 338/56/1 345/53/1 344/58/1 343/57/1
f 348/58/4 349/108/4 351/107/4 350/53/4
f 384/107/6 351/53/6 349/58/6 382/108/6
f 352/56/4 353/53/4 355/54/4 354/55/4
f 350/54/6 355/55/6 353/56/6 348/53/6
f 356/56/4 357/53/4 358/54/4 323/55/4
f 363/54/6 358/55/6 357/56/6 362/53/6
f 362/58/4 359/108/4 360/107/4 363/53/4
f 361/107/6 360/53/6 359/58/6 387/108/6
f 367/56/3 368/53/3 366/58/3 365/57/3
f 364/56/1 367/53/1 365/58/1 324/57/1
f 371/56/3 372/53/3 370/58/3 369/57/3
f 368/56/1 371/53/1 369/58/1 366/57/1
f 374/56/3 364/53/3 324/58/3 373/57/3
f 378/56/1 374/53/1 373/58/1 377/57/1
f 376/56/3 378/53/3 377/58/3 375/57/3
f 342/56/1 376/53/1 375/58/1 340/57/1
f 386/58/4 379/108/4 381/107/4 380/53/4
f 323/107/6 381/53/6 379/58/6 356/108/6
f 382/58/4 383/108/4 385/107/4 384/53/4
f 380/107/6 385/53/6 383/58/6 386/108/6
f 387/58/4 388/108/4 389/107/4 361/53/4
f 390/107/6 389/53/6 388/58/6 394/108/6
f 394/56/4 391/53/4 392/54/4 390/55/4
f 403/54/6 392/55/6 391/56/6 393/53/6
f 396/56/3 397/53/3 398/58/3 395/57/3
f 372/56/1 396/53/1 395/58/1 370/57/1
f 401/56/3 402/53/3 400/58/3 399/57/3
f 397/56/1 401/53/1 399/58/1 398/57/1
f 405/56/1 407/53/1 406/58/1 404/57/1
f 409/56/3 405/53/3 404/58/3 408/57/3
f 402/56/1 409/53/1 408/58/1 400/57/1
f 410/56/4 411/53/4 413/54/4 412/55/4
f 393/56/4 414/53/4 415/54/4 403/55/4
f 412/54/6 415/55/6 414/56/6 410/53/6
f 424/53/3 420/58/3 419/57/3 421/56/3
f 421/56/5 422/57/5 423/58/5 424/53/5
f 447/53/3 423/58/3 422/57/3 445/56/3
f 426/53/2 428/58/2 427/57/2 425/56/2
f 430/53/2 431/58/2 436/57/2 429/56/2
f 428/58/4 430/53/4 429/56/4 427/57/4
f 473/109/6 474/110/6 416/111/6 451/112/6 456/113/6 453/114/6 454/115/6 482/116/6 483/117/6 485/118/6 496/119/6 508/120/6 505/121/6 506/122/6 4/123/6 500/124/6 498/125/6 502/126/6 495/127/6 494/128/6 490/129/6 489/130/6 465/131/6 464/132/6 461/133/6 460/134/6 457/135/6 467/136/6 471/137/6 469/138/6 435/139/6 434/140/6 439/141/6 438/142/6 431/143/6 430/144/6 428/145/6 426/146/6 418/147/6 420/148/6 424/149/6 423/150/6 447/151/6 448/152/6 443/153/6 444/154/6 477/155/6 478/156/6
f 434/53/2 435/58/2 433/57/2 432/56/2
f 439/58/4 434/53/4 432/56/4 440/57/4
f 438/53/2 439/58/2 440/57/2 437/56/2
f 431/58/4 438/53/4 437/56/4 436/57/4
f 441/56/5 442/57/5 444/58/5 443/53/5
f 477/53/3 444/58/3 442/57/3 475/56/3
f 445/56/5 446/57/5 448/58/5 447/53/5
f 443/53/3 448/58/3 446/57/3 441/56/3
f 449/56/5 450/57/5 451/58/5 416/53/5
f 456/53/3 451/58/3 450/57/3 455/56/3
f 455/56/5 452/57/5 453/58/5 456/53/5
f 454/53/3 453/58/3 452/57/3 480/56/3
f 460/53/2 461/58/2 459/57/2 458/56/2
f 457/58/4 460/53/4 458/56/4 417/57/4
f 464/53/2 465/58/2 463/57/2 462/56/2
f 461/58/4 464/53/4 462/56/4 459/57/4
f 467/53/2 457/58/2 417/57/2 466/56/2
f 471/58/4 467/53/4 466/56/4 470/57/4
f 469/53/2 471/58/2 470/57/2 468/56/2
f 435/58/4 469/53/4 468/56/4 433/57/4
f 479/56/5 472/57/5 474/58/5 473/53/5
f 416/53/3 474/58/3 472/57/3 449/56/3
f 475/56/5 476/57/5 478/58/5 477/53/5
f 473/53/3 478/58/3 476/57/3 479/56/3
f 480/56/5 481/57/5 482/58/5 454/53/5
f 483/53/3 482/58/3 481/57/3 487/56/3
f 487/56/5 484/57/5 485/58/5 483/53/5
f 496/53/3 485/58/3 484/57/3 486/56/3
f 489/53/2 490/58/2 491/57/2 488/56/2
f 465/58/4 489/53/4 488/56/4 463/57/4
f 494/53/2 495/58/2 493/57/2 492/56/2
f 490/58/4 494/53/4 492/56/4 491/57/4
f 498/58/4 500/53/4 499/56/4 497/57/4
f 502/53/2 498/58/2 497/57/2 501/56/2
f 495/58/4 502/53/4 501/56/4 493/57/4
f 503/56/5 504/57/5 506/58/5 505/53/5
f 486/56/5 507/57/5 508/58/5 496/53/5
f 505/53/3 508/58/3 507/57/3 503/56/3
