# Blender 4.2.3 LTS
# www.blender.org
mtllib new.sellbox_empty.mtl
o Cube.001
v -0.850000 0.000000 0.850000
v -0.650000 1.700000 0.650000
v -0.850000 0.000000 -0.850000
v -0.650000 1.700000 -0.650000
v 0.850000 0.000000 0.850000
v 0.650000 1.700000 0.650000
v 0.850000 0.000000 -0.850000
v 0.650000 1.700000 -0.650000
v -0.850000 0.200000 -0.650000
v 0.650000 0.200000 0.850000
v 0.650000 1.500000 0.850000
v -0.850000 1.500000 0.650000
v -0.850000 1.500000 -0.650000
v 0.650000 0.200000 -0.850000
v 0.650000 1.500000 -0.850000
v 0.850000 0.200000 0.650000
v -0.650000 1.500000 -0.850000
v 0.850000 1.500000 -0.650000
v 0.850000 1.500000 0.650000
v -0.650000 0.200000 0.850000
v 0.650000 1.500000 0.750000
v 0.650000 0.200000 0.750000
v -0.750000 0.200000 0.650000
v -0.750000 1.500000 0.650000
v -0.750000 1.500000 -0.650000
v 0.650000 1.500000 -0.750000
v 0.650000 0.200000 -0.750000
v -0.650000 1.500000 -0.750000
v -0.650000 0.200000 -0.750000
v 0.750000 1.500000 -0.650000
v 0.750000 0.200000 -0.650000
v 0.750000 1.500000 0.650000
v -0.650000 0.200000 0.750000
v -0.650000 1.500000 0.750000
v -0.750000 0.200000 -0.650000
v 0.750000 0.200000 0.650000
v -0.850000 1.700000 0.850000
v -0.850000 1.700000 -0.850000
v 0.850000 1.700000 -0.850000
v 0.850000 1.700000 0.850000
v -0.650000 1.000000 0.650000
v -0.650000 1.000000 -0.650000
v 0.650000 1.000000 -0.650000
v 0.650000 1.000000 0.650000
v -0.050000 0.900000 -0.850000
v 0.050000 0.800000 -0.750000
v -0.650000 0.200000 -0.850000
v -0.650000 0.400000 -0.750000
v -0.650000 0.400000 -0.850000
v -0.550000 0.400000 -0.750000
v -0.550000 0.500000 -0.750000
v -0.550000 0.500000 -0.850000
v -0.550000 0.400000 -0.850000
v -0.450000 0.200000 -0.750000
v -0.450000 0.200000 -0.850000
v -0.450000 0.300000 -0.750000
v -0.450000 0.300000 -0.850000
v -0.350000 0.300000 -0.750000
v -0.350000 0.300000 -0.850000
v -0.350000 0.400000 -0.850000
v -0.150000 0.500000 -0.750000
v -0.150000 0.600000 -0.750000
v -0.150000 0.500000 -0.850000
v -0.150000 0.600000 -0.850000
v -0.350000 0.400000 -0.750000
v -0.250000 0.400000 -0.750000
v -0.250000 0.400000 -0.850000
v -0.250000 0.500000 -0.850000
v -0.250000 0.500000 -0.750000
v -0.350000 0.600000 -0.750000
v -0.350000 0.700000 -0.750000
v -0.350000 0.600000 -0.850000
v -0.350000 0.700000 -0.850000
v -0.450000 0.500000 -0.750000
v -0.450000 0.600000 -0.750000
v -0.450000 0.500000 -0.850000
v -0.450000 0.600000 -0.850000
v -0.050000 0.900000 -0.750000
v -0.050000 1.000000 -0.750000
v -0.050000 1.000000 -0.850000
v 0.050000 1.100000 -0.750000
v 0.050000 1.100000 -0.850000
v 0.150000 1.100000 -0.850000
v 0.050000 1.000000 -0.750000
v 0.050000 1.000000 -0.850000
v 0.050000 0.800000 -0.850000
v 0.150000 0.800000 -0.750000
v 0.150000 0.900000 -0.750000
v 0.150000 0.800000 -0.850000
v 0.150000 0.900000 -0.850000
v 0.250000 0.900000 -0.750000
v 0.250000 1.000000 -0.750000
v 0.250000 0.900000 -0.850000
v 0.250000 1.000000 -0.850000
v 0.050000 0.700000 -0.750000
v 0.050000 0.700000 -0.850000
v -0.050000 0.600000 -0.750000
v -0.050000 0.600000 -0.850000
v -0.050000 0.700000 -0.750000
v -0.050000 0.700000 -0.850000
v -0.150000 0.900000 -0.750000
v -0.150000 0.800000 -0.850000
v -0.150000 0.900000 -0.850000
v -0.250000 0.700000 -0.750000
v -0.250000 0.800000 -0.750000
v -0.250000 0.700000 -0.850000
v -0.250000 0.800000 -0.850000
v -0.150000 0.800000 -0.750000
v 0.150000 1.100000 -0.750000
v 0.150000 1.200000 -0.750000
v 0.150000 1.200000 -0.850000
v 0.250000 1.200000 -0.850000
v 0.250000 1.300000 -0.750000
v 0.250000 1.300000 -0.850000
v 0.350000 1.300000 -0.750000
v 0.250000 1.200000 -0.750000
v 0.350000 1.000000 -0.750000
v 0.350000 1.000000 -0.850000
v 0.350000 1.100000 -0.850000
v 0.350000 1.100000 -0.750000
v 0.450000 1.100000 -0.750000
v 0.450000 1.200000 -0.750000
v 0.450000 1.100000 -0.850000
v 0.450000 1.200000 -0.850000
v 0.350000 1.300000 -0.850000
v 0.550000 1.300000 -0.750000
v 0.550000 1.300000 -0.850000
v 0.650000 1.300000 -0.750000
v 0.650000 1.300000 -0.850000
v 0.550000 1.200000 -0.750000
v 0.550000 1.200000 -0.850000
v 0.450000 1.400000 -0.750000
v 0.450000 1.500000 -0.750000
v 0.450000 1.400000 -0.850000
v 0.450000 1.500000 -0.850000
v 0.350000 1.400000 -0.750000
v 0.350000 1.400000 -0.850000
v 0.850000 0.900000 -0.050000
v 0.750000 0.800000 0.050000
v 0.850000 0.200000 -0.650000
v 0.750000 0.400000 -0.650000
v 0.850000 0.400000 -0.650000
v 0.750000 0.400000 -0.550000
v 0.750000 0.500000 -0.550000
v 0.850000 0.500000 -0.550000
v 0.850000 0.400000 -0.550000
v 0.750000 0.200000 -0.450000
v 0.850000 0.200000 -0.450000
v 0.750000 0.300000 -0.450000
v 0.850000 0.300000 -0.450000
v 0.750000 0.300000 -0.350000
v 0.850000 0.300000 -0.350000
v 0.850000 0.400000 -0.350000
v 0.750000 0.500000 -0.150000
v 0.750000 0.600000 -0.150000
v 0.850000 0.500000 -0.150000
v 0.850000 0.600000 -0.150000
v 0.750000 0.400000 -0.350000
v 0.750000 0.400000 -0.250000
v 0.850000 0.400000 -0.250000
v 0.850000 0.500000 -0.250000
v 0.750000 0.500000 -0.250000
v 0.750000 0.600000 -0.350000
v 0.750000 0.700000 -0.350000
v 0.850000 0.600000 -0.350000
v 0.850000 0.700000 -0.350000
v 0.750000 0.500000 -0.450000
v 0.750000 0.600000 -0.450000
v 0.850000 0.500000 -0.450000
v 0.850000 0.600000 -0.450000
v 0.750000 0.900000 -0.050000
v 0.750000 1.000000 -0.050000
v 0.850000 1.000000 -0.050000
v 0.750000 1.100000 0.050000
v 0.850000 1.100000 0.050000
v 0.850000 1.100000 0.150000
v 0.750000 1.000000 0.050000
v 0.850000 1.000000 0.050000
v 0.850000 0.800000 0.050000
v 0.750000 0.800000 0.150000
v 0.750000 0.900000 0.150000
v 0.850000 0.800000 0.150000
v 0.850000 0.900000 0.150000
v 0.750000 0.900000 0.250000
v 0.750000 1.000000 0.250000
v 0.850000 0.900000 0.250000
v 0.850000 1.000000 0.250000
v 0.750000 0.700000 0.050000
v 0.850000 0.700000 0.050000
v 0.750000 0.600000 -0.050000
v 0.850000 0.600000 -0.050000
v 0.750000 0.700000 -0.050000
v 0.850000 0.700000 -0.050000
v 0.750000 0.900000 -0.150000
v 0.850000 0.800000 -0.150000
v 0.850000 0.900000 -0.150000
v 0.750000 0.700000 -0.250000
v 0.750000 0.800000 -0.250000
v 0.850000 0.700000 -0.250000
v 0.850000 0.800000 -0.250000
v 0.750000 0.800000 -0.150000
v 0.750000 1.100000 0.150000
v 0.750000 1.200000 0.150000
v 0.850000 1.200000 0.150000
v 0.850000 1.200000 0.250000
v 0.750000 1.300000 0.250000
v 0.850000 1.300000 0.250000
v 0.750000 1.300000 0.350000
v 0.750000 1.200000 0.250000
v 0.750000 1.000000 0.350000
v 0.850000 1.000000 0.350000
v 0.850000 1.100000 0.350000
v 0.750000 1.100000 0.350000
v 0.750000 1.100000 0.450000
v 0.750000 1.200000 0.450000
v 0.850000 1.100000 0.450000
v 0.850000 1.200000 0.450000
v 0.850000 1.300000 0.350000
v 0.750000 1.300000 0.550000
v 0.850000 1.300000 0.550000
v 0.750000 1.300000 0.650000
v 0.850000 1.300000 0.650000
v 0.750000 1.200000 0.550000
v 0.850000 1.200000 0.550000
v 0.750000 1.400000 0.450000
v 0.750000 1.500000 0.450000
v 0.850000 1.400000 0.450000
v 0.850000 1.500000 0.450000
v 0.750000 1.400000 0.350000
v 0.850000 1.400000 0.350000
v 0.050000 0.900000 0.850000
v -0.050000 0.800000 0.750000
v 0.650000 0.400000 0.750000
v 0.650000 0.400000 0.850000
v 0.550000 0.400000 0.750000
v 0.550000 0.500000 0.750000
v 0.550000 0.500000 0.850000
v 0.550000 0.400000 0.850000
v 0.450000 0.200000 0.750000
v 0.450000 0.200000 0.850000
v 0.450000 0.300000 0.750000
v 0.450000 0.300000 0.850000
v 0.350000 0.300000 0.750000
v 0.350000 0.300000 0.850000
v 0.350000 0.400000 0.850000
v 0.150000 0.500000 0.750000
v 0.150000 0.600000 0.750000
v 0.150000 0.500000 0.850000
v 0.150000 0.600000 0.850000
v 0.350000 0.400000 0.750000
v 0.250000 0.400000 0.750000
v 0.250000 0.400000 0.850000
v 0.250000 0.500000 0.850000
v 0.250000 0.500000 0.750000
v 0.350000 0.600000 0.750000
v 0.350000 0.700000 0.750000
v 0.350000 0.600000 0.850000
v 0.350000 0.700000 0.850000
v 0.450000 0.500000 0.750000
v 0.450000 0.600000 0.750000
v 0.450000 0.500000 0.850000
v 0.450000 0.600000 0.850000
v 0.050000 0.900000 0.750000
v 0.050000 1.000000 0.750000
v 0.050000 1.000000 0.850000
v -0.050000 1.100000 0.750000
v -0.050000 1.100000 0.850000
v -0.150000 1.100000 0.850000
v -0.050000 1.000000 0.750000
v -0.050000 1.000000 0.850000
v -0.050000 0.800000 0.850000
v -0.150000 0.800000 0.750000
v -0.150000 0.900000 0.750000
v -0.150000 0.800000 0.850000
v -0.150000 0.900000 0.850000
v -0.250000 0.900000 0.750000
v -0.250000 1.000000 0.750000
v -0.250000 0.900000 0.850000
v -0.250000 1.000000 0.850000
v -0.050000 0.700000 0.750000
v -0.050000 0.700000 0.850000
v 0.050000 0.600000 0.750000
v 0.050000 0.600000 0.850000
v 0.050000 0.700000 0.750000
v 0.050000 0.700000 0.850000
v 0.150000 0.900000 0.750000
v 0.150000 0.800000 0.850000
v 0.150000 0.900000 0.850000
v 0.250000 0.700000 0.750000
v 0.250000 0.800000 0.750000
v 0.250000 0.700000 0.850000
v 0.250000 0.800000 0.850000
v 0.150000 0.800000 0.750000
v -0.150000 1.100000 0.750000
v -0.150000 1.200000 0.750000
v -0.150000 1.200000 0.850000
v -0.250000 1.200000 0.850000
v -0.250000 1.300000 0.750000
v -0.250000 1.300000 0.850000
v -0.350000 1.300000 0.750000
v -0.250000 1.200000 0.750000
v -0.350000 1.000000 0.750000
v -0.350000 1.000000 0.850000
v -0.350000 1.100000 0.850000
v -0.350000 1.100000 0.750000
v -0.450000 1.100000 0.750000
v -0.450000 1.200000 0.750000
v -0.450000 1.100000 0.850000
v -0.450000 1.200000 0.850000
v -0.350000 1.300000 0.850000
v -0.650000 1.500000 0.850000
v -0.550000 1.300000 0.750000
v -0.550000 1.300000 0.850000
v -0.650000 1.300000 0.750000
v -0.650000 1.300000 0.850000
v -0.550000 1.200000 0.750000
v -0.550000 1.200000 0.850000
v -0.450000 1.400000 0.750000
v -0.450000 1.500000 0.750000
v -0.450000 1.400000 0.850000
v -0.450000 1.500000 0.850000
v -0.350000 1.400000 0.750000
v -0.350000 1.400000 0.850000
v -0.850000 0.900000 0.050000
v -0.750000 0.800000 -0.050000
v -0.850000 0.200000 0.650000
v -0.750000 0.400000 0.650000
v -0.850000 0.400000 0.650000
v -0.750000 0.400000 0.550000
v -0.750000 0.500000 0.550000
v -0.850000 0.500000 0.550000
v -0.850000 0.400000 0.550000
v -0.750000 0.200000 0.450000
v -0.850000 0.200000 0.450000
v -0.750000 0.300000 0.450000
v -0.850000 0.300000 0.450000
v -0.750000 0.300000 0.350000
v -0.850000 0.300000 0.350000
v -0.850000 0.400000 0.350000
v -0.750000 0.500000 0.150000
v -0.750000 0.600000 0.150000
v -0.850000 0.500000 0.150000
v -0.850000 0.600000 0.150000
v -0.750000 0.400000 0.350000
v -0.750000 0.400000 0.250000
v -0.850000 0.400000 0.250000
v -0.850000 0.500000 0.250000
v -0.750000 0.500000 0.250000
v -0.750000 0.600000 0.350000
v -0.750000 0.700000 0.350000
v -0.850000 0.600000 0.350000
v -0.850000 0.700000 0.350000
v -0.750000 0.500000 0.450000
v -0.750000 0.600000 0.450000
v -0.850000 0.500000 0.450000
v -0.850000 0.600000 0.450000
v -0.750000 0.900000 0.050000
v -0.750000 1.000000 0.050000
v -0.850000 1.000000 0.050000
v -0.750000 1.100000 -0.050000
v -0.850000 1.100000 -0.050000
v -0.850000 1.100000 -0.150000
v -0.750000 1.000000 -0.050000
v -0.850000 1.000000 -0.050000
v -0.850000 0.800000 -0.050000
v -0.750000 0.800000 -0.150000
v -0.750000 0.900000 -0.150000
v -0.850000 0.800000 -0.150000
v -0.850000 0.900000 -0.150000
v -0.750000 0.900000 -0.250000
v -0.750000 1.000000 -0.250000
v -0.850000 0.900000 -0.250000
v -0.850000 1.000000 -0.250000
v -0.750000 0.700000 -0.050000
v -0.850000 0.700000 -0.050000
v -0.750000 0.600000 0.050000
v -0.850000 0.600000 0.050000
v -0.750000 0.700000 0.050000
v -0.850000 0.700000 0.050000
v -0.750000 0.900000 0.150000
v -0.850000 0.800000 0.150000
v -0.850000 0.900000 0.150000
v -0.750000 0.700000 0.250000
v -0.750000 0.800000 0.250000
v -0.850000 0.700000 0.250000
v -0.850000 0.800000 0.250000
v -0.750000 0.800000 0.150000
v -0.750000 1.100000 -0.150000
v -0.750000 1.200000 -0.150000
v -0.850000 1.200000 -0.150000
v -0.850000 1.200000 -0.250000
v -0.750000 1.300000 -0.250000
v -0.850000 1.300000 -0.250000
v -0.750000 1.300000 -0.350000
v -0.750000 1.200000 -0.250000
v -0.750000 1.000000 -0.350000
v -0.850000 1.000000 -0.350000
v -0.850000 1.100000 -0.350000
v -0.750000 1.100000 -0.350000
v -0.750000 1.100000 -0.450000
v -0.750000 1.200000 -0.450000
v -0.850000 1.100000 -0.450000
v -0.850000 1.200000 -0.450000
v -0.850000 1.300000 -0.350000
v -0.750000 1.300000 -0.550000
v -0.850000 1.300000 -0.550000
v -0.750000 1.300000 -0.650000
v -0.850000 1.300000 -0.650000
v -0.750000 1.200000 -0.550000
v -0.850000 1.200000 -0.550000
v -0.750000 1.400000 -0.450000
v -0.750000 1.500000 -0.450000
v -0.850000 1.400000 -0.450000
v -0.850000 1.500000 -0.450000
v -0.750000 1.400000 -0.350000
v -0.850000 1.400000 -0.350000
vn -0.0000 -1.0000 -0.0000
vn -1.0000 -0.0000 -0.0000
vn -0.0000 -0.0000 -1.0000
vn -0.0000 -0.0000 1.0000
vn 1.0000 -0.0000 -0.0000
vn -0.0000 1.0000 -0.0000
vt -0.000000 0.261538
vt 0.261538 0.261538
vt 0.261538 -0.000000
vt -0.000000 -0.000000
vt 0.523077 0.307692
vt 0.723077 0.307692
vt 0.723077 0.200000
vt 0.523077 0.200000
vt 0.261538 0.523077
vt 0.230769 0.492308
vt 0.230769 0.292308
vt 0.000000 0.523077
vt 0.030769 0.292308
vt 0.030769 0.492308
vt 0.523077 0.261538
vt 0.492308 0.230769
vt 0.292308 0.230769
vt 0.523077 0.261538
vt 0.261538 0.261538
vt 0.261538 0.523077
vt 0.292308 0.492308
vt 0.292308 0.292308
vt 0.492308 0.292308
vt 0.492308 0.492308
vt 0.523077 0.523077
vt -0.000000 0.784615
vt 0.030769 0.553846
vt 0.030769 0.753846
vt 0.523077 0.000000
vt 0.292308 0.030769
vt 0.492308 0.030769
vt 0.261538 0.784615
vt 0.230769 0.753846
vt 0.230769 0.553846
vt 0.507692 0.030769
vt 0.507692 0.230769
vt 0.292308 0.015385
vt 0.492308 0.015385
vt 0.292308 0.246154
vt 0.492308 0.246154
vt 0.230769 0.553846
vt 0.230769 0.753846
vt 0.030769 0.753846
vt 0.030769 0.553846
vt 0.492308 0.030769
vt 0.292308 0.030769
vt 0.230769 0.292308
vt 0.230769 0.492308
vt 0.030769 0.492308
vt 0.030769 0.292308
vt 0.292308 0.553846
vt 0.292308 0.753846
vt 0.492308 0.553846
vt 0.523077 0.523077
vt 0.523077 0.784615
vt 0.492308 0.753846
vt 0.230769 0.230769
vt 0.030769 0.230769
vt 0.030769 0.030769
vt 0.230769 0.030769
vt 0.230769 0.846154
vt 0.215385 0.846154
vt 0.215385 0.830769
vt 0.230769 0.830769
vt 0.461538 0.815385
vt 0.461538 0.830769
vt 0.476923 0.830769
vt 0.476923 0.815385
vt 0.246154 0.846154
vt 0.246154 0.830769
vt 0.307692 0.953846
vt 0.307692 0.969231
vt 0.292308 0.969231
vt 0.292308 0.953846
vt 0.523077 0.815385
vt 0.523077 0.830769
vt 0.507692 0.830769
vt 0.507692 0.815385
vt 0.292308 0.907692
vt 0.307692 0.907692
vt 0.307692 0.892308
vt 0.292308 0.892308
vt 0.646154 0.092308
vt 0.646154 0.107692
vt 0.630769 0.107692
vt 0.630769 0.123077
vt 0.615385 0.123077
vt 0.615385 0.138462
vt 0.600000 0.138462
vt 0.600000 0.153846
vt 0.584615 0.153846
vt 0.584615 0.169231
vt 0.569231 0.169231
vt 0.569231 0.184615
vt 0.553846 0.184615
vt 0.553846 0.200000
vt 0.523077 0.169231
vt 0.538462 0.169231
vt 0.538462 0.153846
vt 0.553846 0.153846
vt 0.553846 0.138462
vt 0.569231 0.138462
vt 0.569231 0.123077
vt 0.584615 0.123077
vt 0.584615 0.107692
vt 0.600000 0.107692
vt 0.600000 0.092308
vt 0.615385 0.092308
vt 0.615385 0.076923
vt 0.630769 0.076923
vt 0.630769 0.061538
vt 0.646154 0.061538
vt 0.646154 0.046154
vt 0.661538 0.046154
vt 0.661538 0.030769
vt 0.676923 0.030769
vt 0.676923 0.015385
vt 0.692308 0.015385
vt 0.692308 -0.000000
vt 0.723077 -0.000000
vt 0.723077 0.030769
vt 0.707692 0.030769
vt 0.707692 0.046154
vt 0.692308 0.046154
vt 0.692308 0.061538
vt 0.676923 0.061538
vt 0.676923 0.076923
vt 0.661538 0.076923
vt 0.661538 0.092308
vt 0.538462 0.815385
vt 0.538462 0.830769
vt 0.261538 0.830769
vt 0.261538 0.815385
vt 0.246154 0.815385
vt 0.492308 0.815385
vt 0.492308 0.830769
vt 0.261538 0.800000
vt 0.246154 0.800000
vt 0.246154 0.784615
vt 0.307692 0.815385
vt 0.307692 0.830769
vt 0.323077 0.830769
vt 0.323077 0.815385
vt 0.276923 0.907692
vt 0.276923 0.892308
vt 0.246154 0.953846
vt 0.246154 0.969231
vt 0.261538 0.969231
vt 0.261538 0.953846
vt 0.246154 0.861538
vt 0.230769 0.861538
vt 0.338462 0.830769
vt 0.338462 0.815385
vt 0.261538 0.861538
vt 0.261538 0.846154
vt 0.276923 0.969231
vt 0.276923 0.953846
vt 0.261538 0.876923
vt 0.276923 0.876923
vt 0.276923 0.861538
vt 0.553846 0.784615
vt 0.553846 0.800000
vt 0.538462 0.800000
vt 0.538462 0.784615
vt 0.292308 0.876923
vt 0.292308 0.861538
vt 0.230769 0.953846
vt 0.230769 0.969231
vt 0.215385 0.969231
vt 0.215385 0.953846
vt 0.307692 0.876923
vt 0.307692 0.861538
vt 0.200000 0.969231
vt 0.200000 0.953846
vt 0.200000 0.876923
vt 0.215385 0.876923
vt 0.215385 0.861538
vt 0.200000 0.861538
vt 0.230769 0.876923
vt 0.246154 0.876923
vt 0.353846 0.830769
vt 0.353846 0.815385
vt 0.369231 0.830769
vt 0.369231 0.815385
vt 0.292308 0.815385
vt 0.292308 0.800000
vt 0.307692 0.800000
vt 0.384615 0.815385
vt 0.384615 0.830769
vt 0.200000 0.815385
vt 0.215385 0.815385
vt 0.215385 0.800000
vt 0.200000 0.800000
vt 0.400000 0.815385
vt 0.400000 0.830769
vt 0.353846 0.800000
vt 0.369231 0.800000
vt 0.369231 0.784615
vt 0.353846 0.784615
vt 0.261538 0.892308
vt 0.415385 0.815385
vt 0.415385 0.830769
vt 0.430769 0.830769
vt 0.430769 0.815385
vt 0.338462 0.846154
vt 0.353846 0.846154
vt 0.384615 0.800000
vt 0.384615 0.784615
vt 0.230769 0.800000
vt 0.230769 0.815385
vt 0.200000 0.984615
vt 0.200000 1.000000
vt 0.215385 1.000000
vt 0.215385 0.984615
vt 0.276923 0.784615
vt 0.276923 0.800000
vt 0.046154 0.984615
vt 0.046154 1.000000
vt 0.030769 1.000000
vt 0.030769 0.984615
vt 0.061538 0.984615
vt 0.061538 1.000000
vt 0.076923 0.984615
vt 0.076923 1.000000
vt 0.292308 0.830769
vt 0.276923 0.815385
vt 0.276923 0.830769
vt 0.230769 0.984615
vt 0.230769 1.000000
vt 0.246154 1.000000
vt 0.246154 0.984615
vt 0.092308 1.000000
vt 0.092308 0.984615
vt 0.200000 0.830769
vt 0.292308 0.984615
vt 0.292308 1.000000
vt 0.307692 1.000000
vt 0.307692 0.984615
vt 0.107692 1.000000
vt 0.107692 0.984615
vt 0.015385 0.984615
vt 0.015385 1.000000
vt -0.000000 1.000000
vt -0.000000 0.984615
vt 0.276923 0.846154
vt 0.323077 0.984615
vt 0.323077 1.000000
vt 0.230769 0.784615
vt 0.215385 0.784615
vt 0.261538 0.984615
vt 0.261538 1.000000
vt 0.292308 0.846154
vt 0.276923 0.984615
vt 0.276923 1.000000
vt 0.292308 0.784615
vt 0.307692 0.784615
vt 0.307692 0.846154
vt 0.123077 1.000000
vt 0.123077 0.984615
vt 0.138462 1.000000
vt 0.138462 0.984615
vt 0.153846 0.984615
vt 0.153846 1.000000
vt 0.169231 0.984615
vt 0.169231 1.000000
vt 0.200000 0.784615
vt 0.184615 0.984615
vt 0.184615 1.000000
vt 0.200000 0.846154
vt 0.169231 0.846154
vt 0.169231 0.861538
vt 0.184615 0.861538
vt 0.184615 0.846154
vt 0.400000 0.784615
vt 0.400000 0.800000
vt 0.415385 0.784615
vt 0.415385 0.800000
vt 0.553846 0.830769
vt 0.553846 0.815385
vt 0.153846 0.846154
vt 0.153846 0.861538
vt 0.184615 0.784615
vt 0.184615 0.800000
vt 0.430769 0.784615
vt 0.430769 0.800000
vt 0.507692 0.846154
vt 0.523077 0.846154
vt 0.538462 0.846154
vt 0.230769 0.892308
vt 0.215385 0.892308
vt 0.184615 0.815385
vt 0.169231 0.876923
vt 0.153846 0.876923
vt 0.369231 0.846154
vt 0.446154 0.784615
vt 0.446154 0.800000
vt 0.184615 0.830769
vt 0.461538 0.784615
vt 0.461538 0.800000
vt 0.446154 0.830769
vt 0.446154 0.815385
vt 0.476923 0.784615
vt 0.476923 0.800000
vt 0.384615 0.846154
vt 0.492308 0.784615
vt 0.492308 0.800000
vt 0.553846 0.846154
vt 0.276923 0.923077
vt 0.261538 0.923077
vt 0.261538 0.938462
vt 0.276923 0.938462
vt 0.323077 0.846154
vt 0.307692 0.923077
vt 0.292308 0.923077
vt 0.292308 0.938462
vt 0.307692 0.938462
vt 0.200000 0.923077
vt 0.215385 0.923077
vt 0.215385 0.938462
vt 0.200000 0.938462
vt 0.230769 0.923077
vt 0.230769 0.938462
vt 0.246154 0.923077
vt 0.246154 0.938462
vt 0.184615 0.876923
vt 0.184615 0.892308
vt 0.200000 0.892308
vt 0.169231 0.815385
vt 0.153846 0.815385
vt 0.153846 0.830769
vt 0.169231 0.830769
vt 0.200000 0.907692
vt 0.215385 0.907692
vt 0.230769 0.907692
vt 0.400000 0.846154
vt 0.246154 0.892308
vt 0.246154 0.907692
vt 0.353846 0.984615
vt 0.353846 1.000000
vt 0.369231 1.000000
vt 0.369231 0.984615
vt 0.384615 1.000000
vt 0.384615 0.984615
vt 0.153846 0.784615
vt 0.153846 0.800000
vt 0.169231 0.800000
vt 0.169231 0.784615
vt 0.507692 0.784615
vt 0.507692 0.800000
vt 0.523077 0.800000
vt 0.169231 0.892308
vt 0.153846 0.892308
vt 0.261538 0.907692
vt 0.338462 1.000000
vt 0.338462 0.984615
vt 0.323077 0.800000
vt 0.323077 0.784615
vt 0.338462 0.800000
vt 0.338462 0.784615
s 0
usemtl Material.002
f 3/1/1 7/2/1 5/3/1 1/4/1
f 6/5/2 8/6/2 43/7/2 44/8/2
f 1/2/2 37/9/2 12/10/2 326/11/2
f 38/12/2 3/1/2 1/2/2 326/11/2 9/13/2 13/14/2 12/10/2 37/9/2
f 38/2/3 39/15/3 15/16/3 17/17/3
f 1/18/4 5/19/4 40/20/4 11/21/4 10/22/4 20/23/4 311/24/4 37/25/4
f 40/26/5 5/12/5 16/27/5 19/28/5
f 7/29/3 3/3/3 38/2/3 17/17/3 47/30/3 14/31/3 15/16/3 39/15/3
f 40/20/4 37/25/4 311/24/4 11/21/4
f 5/12/5 7/9/5 39/32/5 40/26/5 19/28/5 18/33/5 140/34/5 16/27/5
f 140/35/4 18/36/4 30/16/4 31/31/4
f 16/31/6 140/30/6 31/37/6 36/38/6
f 47/35/5 17/36/5 28/16/5 29/31/5
f 11/16/1 311/17/1 34/39/1 21/40/1
f 23/41/2 24/42/2 25/43/2 35/44/2
f 29/45/3 28/16/3 26/17/3 27/46/3
f 31/23/5 30/24/5 32/21/5 36/22/5
f 22/47/4 21/48/4 34/49/4 33/50/4
f 19/36/3 16/35/3 36/31/3 32/16/3
f 10/31/2 11/16/2 21/36/2 22/35/2
f 14/31/6 47/30/6 29/37/6 27/38/6
f 18/39/1 19/40/1 32/16/1 30/17/1
f 17/39/1 15/40/1 26/16/1 28/17/1
f 311/16/5 20/31/5 33/35/5 34/36/5
f 9/37/6 326/38/6 23/31/6 35/30/6
f 326/31/3 12/16/3 24/36/3 23/35/3
f 13/16/4 9/31/4 35/35/4 25/36/4
f 12/16/1 13/17/1 25/39/1 24/40/1
f 20/37/6 10/38/6 22/31/6 33/30/6
f 15/36/2 14/35/2 27/31/2 26/16/2
f 2/51/6 4/52/6 38/32/6 37/9/6
f 6/53/6 2/51/6 37/9/6 40/54/6 39/55/6 38/32/6 4/52/6 8/56/6
f 43/57/6 42/58/6 41/59/6 44/60/6
f 4/6/5 2/5/5 41/8/5 42/7/5
f 2/5/3 6/6/3 44/7/3 41/8/3
f 8/6/4 4/5/4 42/8/4 43/7/4
f 53/61/6 49/62/6 48/63/6 50/64/6
f 50/65/2 51/66/2 52/67/2 53/68/2
f 76/69/6 52/61/6 51/64/6 74/70/6
f 55/71/5 57/72/5 56/73/5 54/74/5
f 59/75/5 60/76/5 65/77/5 58/78/5
f 57/79/1 59/80/1 58/81/1 56/82/1
f 102/83/3 103/84/3 45/85/3 80/86/3 85/87/3 82/88/3 83/89/3 111/90/3 112/91/3 114/92/3 125/93/3 137/94/3 134/95/3 135/96/3 15/8/3 129/97/3 127/98/3 131/99/3 124/100/3 123/101/3 119/102/3 118/103/3 94/104/3 93/105/3 90/106/3 89/107/3 86/108/3 96/109/3 100/110/3 98/111/3 64/112/3 63/113/3 68/114/3 67/115/3 60/116/3 59/117/3 57/118/3 55/119/3 47/120/3 49/121/3 53/122/3 52/123/3 76/124/3 77/125/3 72/126/3 73/127/3 106/128/3 107/129/3
f 63/130/5 64/131/5 62/76/5 61/75/5
f 68/70/1 63/132/1 61/133/1 69/134/1
f 67/135/5 68/136/5 69/67/5 66/68/5
f 60/134/1 67/133/1 66/137/1 65/138/1
f 70/135/2 71/136/2 73/77/2 72/78/2
f 106/137/6 73/138/6 71/139/6 104/32/6
f 74/140/2 75/141/2 77/142/2 76/143/2
f 72/79/6 77/144/6 75/145/6 70/82/6
f 78/146/2 79/147/2 80/148/2 45/149/2
f 85/150/6 80/151/6 79/61/6 84/69/6
f 84/143/2 81/142/2 82/152/2 85/153/2
f 83/154/6 82/150/6 81/69/6 109/155/6
f 89/74/5 90/73/5 88/156/5 87/157/5
f 86/158/1 89/159/1 87/160/1 46/154/1
f 93/161/5 94/162/5 92/163/5 91/164/5
f 90/159/1 93/165/1 91/166/1 88/160/1
f 96/167/5 86/168/5 46/169/5 95/170/5
f 100/165/1 96/171/1 95/172/1 99/166/1
f 98/170/5 100/169/5 99/173/5 97/174/5
f 64/175/1 98/176/1 97/177/1 62/178/1
f 108/149/2 101/148/2 103/156/2 102/157/2
f 45/179/6 103/176/6 101/177/6 78/151/6
f 104/167/2 105/168/2 107/147/2 106/146/2
f 102/180/6 107/179/6 105/151/6 108/150/6
f 109/153/2 110/152/2 111/181/2 83/182/2
f 112/158/6 111/180/6 110/150/6 116/154/6
f 116/182/2 113/181/2 114/183/2 112/184/2
f 125/140/6 114/185/6 113/186/6 115/187/6
f 118/188/5 119/189/5 120/183/5 117/184/5
f 94/190/1 118/191/1 117/192/1 92/193/1
f 123/194/5 124/195/5 122/189/5 121/188/5
f 119/196/1 123/197/1 121/198/1 120/199/1
f 127/200/1 129/145/1 128/159/1 126/158/1
f 131/201/5 127/202/5 126/195/5 130/194/5
f 124/145/1 131/82/1 130/165/1 122/159/1
f 132/201/2 133/202/2 135/203/2 134/204/2
f 115/152/2 136/205/2 137/206/2 125/181/2
f 134/207/6 137/197/6 136/198/6 132/208/6
f 146/209/6 142/210/6 141/191/6 143/192/6
f 143/211/3 144/212/3 145/213/3 146/214/3
f 169/215/6 145/216/6 144/137/6 167/32/6
f 148/217/4 150/218/4 149/219/4 147/220/4
f 152/221/4 153/222/4 158/218/4 151/217/4
f 150/134/1 152/138/1 151/209/1 149/210/1
f 195/83/5 196/84/5 138/85/5 173/86/5 178/87/5 175/88/5 176/89/5 204/90/5 205/91/5 207/92/5 218/93/5 230/94/5 227/95/5 228/96/5 19/8/5 222/97/5 220/98/5 224/99/5 217/100/5 216/101/5 212/102/5 211/103/5 187/104/5 186/105/5 183/106/5 182/107/5 179/108/5 189/109/5 193/110/5 191/111/5 157/112/5 156/113/5 161/114/5 160/115/5 153/116/5 152/117/5 150/118/5 148/119/5 140/120/5 142/121/5 146/122/5 145/123/5 169/124/5 170/125/5 165/126/5 166/127/5 199/128/5 200/129/5
f 156/223/4 157/224/4 155/222/4 154/221/4
f 161/225/1 156/185/1 154/226/1 162/227/1
f 160/228/4 161/229/4 162/213/4 159/214/4
f 153/227/1 160/226/1 159/133/1 158/132/1
f 163/228/3 164/229/3 166/230/3 165/231/3
f 199/140/6 166/141/6 164/225/6 197/185/6
f 167/223/3 168/224/3 170/232/3 169/233/3
f 165/191/6 170/63/6 168/234/6 163/190/6
f 171/235/3 172/236/3 173/237/3 138/238/3
f 178/210/6 173/64/6 172/63/6 177/191/6
f 177/233/3 174/232/3 175/239/3 178/240/3
f 176/134/6 175/70/6 174/64/6 202/210/6
f 182/241/4 183/242/4 181/243/4 180/244/4
f 179/245/1 182/227/1 180/132/1 139/155/1
f 186/246/4 187/247/4 185/237/4 184/238/4
f 183/209/1 186/248/1 184/249/1 181/192/1
f 189/250/4 179/251/4 139/230/4 188/231/4
f 193/252/1 189/225/1 188/227/1 192/245/1
f 191/253/4 193/254/4 192/251/4 190/250/4
f 157/186/1 191/255/1 190/215/1 155/216/1
f 201/241/3 194/242/3 196/219/3 195/220/3
f 138/256/6 196/187/6 194/186/6 171/255/6
f 197/253/3 198/254/3 200/236/3 199/235/3
f 195/141/6 200/257/6 198/252/6 201/225/6
f 202/240/3 203/239/3 204/258/3 176/259/3
f 205/139/6 204/138/6 203/209/6 209/248/6
f 209/259/3 206/258/3 207/260/3 205/261/3
f 218/216/6 207/226/6 206/133/6 208/137/6
f 211/262/4 212/263/4 213/260/4 210/261/4
f 187/185/1 211/186/1 210/216/1 185/226/1
f 216/264/4 217/265/4 215/263/4 214/262/4
f 212/155/1 216/132/1 214/70/1 213/69/1
f 220/192/1 222/249/1 221/266/1 219/193/1
f 224/267/4 220/268/4 219/265/4 223/264/4
f 217/62/1 224/63/1 223/234/1 215/269/1
f 225/267/3 226/268/3 228/212/3 227/211/3
f 208/270/3 229/271/3 230/272/3 218/273/3
f 227/252/6 230/166/6 229/160/6 225/245/6
f 238/208/6 234/274/6 233/275/6 235/207/6
f 235/72/5 236/238/5 237/235/5 238/73/5
f 261/274/6 237/276/6 236/277/6 259/275/6
f 240/130/2 242/131/2 241/278/2 239/279/2
f 244/163/2 245/130/2 250/279/2 243/162/2
f 242/270/1 244/280/1 243/281/1 241/271/1
f 287/83/4 288/84/4 231/85/4 265/86/4 270/87/4 267/88/4 268/89/4 296/90/4 297/91/4 299/92/4 310/93/4 323/94/4 320/95/4 321/96/4 311/8/4 315/97/4 313/98/4 317/99/4 309/100/4 308/101/4 304/102/4 303/103/4 279/104/4 278/105/4 275/106/4 274/107/4 271/108/4 281/109/4 285/110/4 283/111/4 249/112/4 248/113/4 253/114/4 252/115/4 245/116/4 244/117/4 242/118/4 240/119/4 10/120/4 234/121/4 238/122/4 237/123/4 261/124/4 262/125/4 257/126/4 258/127/4 291/128/4 292/129/4
f 248/282/2 249/283/2 247/193/2 246/266/2
f 253/284/1 248/276/1 246/277/1 254/285/1
f 252/77/2 253/286/2 254/287/2 251/76/2
f 245/171/1 252/165/1 251/82/1 250/81/1
f 255/131/5 256/288/5 258/287/5 257/76/5
f 291/176/6 258/179/6 256/289/6 289/290/6
f 259/193/5 260/190/5 262/291/5 261/283/5
f 257/281/6 262/271/6 260/292/6 255/293/6
f 263/183/5 264/294/5 265/206/5 231/181/5
f 270/284/6 265/295/6 264/296/6 269/285/6
f 269/190/5 266/234/5 267/297/5 270/291/5
f 268/295/6 267/298/6 266/299/6 294/296/6
f 274/204/2 275/203/2 273/300/2 272/301/2
f 271/302/1 274/298/1 272/299/1 232/303/1
f 278/183/2 279/294/2 277/304/2 276/189/2
f 275/305/1 278/302/1 276/303/1 273/306/1
f 281/131/2 271/288/2 232/307/2 280/278/2
f 285/308/1 281/309/1 280/310/1 284/311/1
f 283/141/2 285/257/2 284/312/2 282/142/2
f 249/313/1 283/314/1 282/315/1 247/316/1
f 293/65/5 286/66/5 288/300/5 287/301/5
f 231/308/6 288/314/6 286/315/6 263/311/6
f 289/152/5 290/205/5 292/312/5 291/142/5
f 287/317/6 292/318/6 290/319/6 293/320/6
f 294/234/5 295/269/5 296/273/5 268/297/5
f 297/318/6 296/321/6 295/322/6 301/319/6
f 301/269/5 298/178/5 299/272/5 297/273/5
f 310/321/6 299/323/6 298/324/6 300/322/6
f 303/272/2 304/325/2 305/175/2 302/178/2
f 279/309/1 303/323/1 302/324/1 277/310/1
f 308/325/2 309/326/2 307/327/2 306/175/2
f 304/328/1 308/329/1 306/330/1 305/331/1
f 313/290/1 315/327/1 314/332/1 312/333/1
f 317/148/2 313/250/2 312/253/2 316/156/2
f 309/289/1 317/290/1 316/333/1 307/334/1
f 318/73/5 319/235/5 321/253/5 320/156/5
f 300/195/5 322/335/5 323/304/5 310/189/5
f 320/330/6 323/331/6 322/270/6 318/280/6
f 332/154/6 328/155/6 327/245/6 329/160/6
f 329/310/4 330/149/4 331/146/4 332/324/4
f 355/334/6 331/289/6 330/336/6 353/337/6
f 334/338/3 336/339/3 335/340/3 333/341/3
f 338/341/3 339/340/3 344/342/3 337/343/3
f 336/344/1 338/345/1 337/346/1 335/347/1
f 381/83/2 382/84/2 324/85/2 359/86/2 364/87/2 361/88/2 362/89/2 390/90/2 391/91/2 393/92/2 404/93/2 416/94/2 413/95/2 414/96/2 13/8/2 408/97/2 406/98/2 410/99/2 403/100/2 402/101/2 398/102/2 397/103/2 373/104/2 372/105/2 369/106/2 368/107/2 365/108/2 375/109/2 379/110/2 377/111/2 343/112/2 342/113/2 347/114/2 346/115/2 339/116/2 338/117/2 336/118/2 334/119/2 326/120/2 328/121/2 332/122/2 331/123/2 355/124/2 356/125/2 351/126/2 352/127/2 385/128/2 386/129/2
f 342/348/3 343/349/3 341/350/3 340/55/3
f 347/175/1 342/327/1 340/290/1 348/176/1
f 346/55/3 347/350/3 348/163/3 345/164/3
f 339/179/1 346/289/1 345/336/1 344/180/1
f 349/163/4 350/130/4 352/75/4 351/350/4
f 385/336/6 352/180/6 350/158/6 383/200/6
f 353/292/4 354/351/4 356/352/4 355/293/4
f 351/329/6 356/345/6 354/346/6 349/328/6
f 357/297/4 358/273/4 359/270/4 324/331/4
f 364/337/6 359/336/6 358/200/6 363/353/6
f 363/311/4 360/157/4 361/149/4 364/310/4
f 362/166/6 361/252/6 360/257/6 388/172/6
f 368/246/3 369/247/3 367/354/3 366/355/3
f 365/269/1 368/178/1 366/177/1 325/62/1
f 372/271/3 373/292/3 371/325/3 370/272/3
f 369/353/1 372/309/1 370/308/1 367/144/1
f 375/347/3 365/346/3 325/283/3 374/282/3
f 379/144/1 375/308/1 374/314/1 378/79/1
f 377/346/3 379/328/3 378/291/3 376/283/3
f 343/79/1 377/314/1 376/313/1 341/80/1
f 387/338/4 380/339/4 382/354/4 381/355/4
f 324/317/6 382/332/6 380/333/6 357/318/6
f 383/291/4 384/297/4 386/331/4 385/328/4
f 381/353/6 386/200/6 384/145/6 387/144/6
f 388/315/4 389/74/4 390/157/4 362/311/4
f 391/318/6 390/333/6 389/334/6 395/321/6
f 395/316/4 392/71/4 393/74/4 391/315/4
f 404/321/6 393/334/6 392/337/6 394/323/6
f 397/349/3 398/78/3 399/75/3 396/350/3
f 373/337/1 397/323/1 396/309/1 371/353/1
f 402/320/3 403/174/3 401/170/3 400/319/3
f 398/256/1 402/187/1 400/356/1 399/357/1
f 406/357/1 408/356/1 407/358/1 405/359/1
f 410/319/3 406/170/3 405/167/3 409/322/3
f 403/62/1 410/177/1 409/151/1 401/61/1
f 411/324/4 412/146/4 414/167/4 413/322/4
f 394/325/4 415/326/4 416/351/4 404/292/4
f 413/358/6 416/359/6 415/199/6 411/196/6
