# Blender 3.3.1
# www.blender.org
mtllib Outher_Corner.mtl
o Cube.090
v 0.649997 -0.000002 -0.749997
v 0.649997 0.199998 -0.749997
v 0.749997 0.199998 -0.749997
v 0.749997 0.199998 -0.850000
v 0.649997 0.499997 -0.850000
v 0.749997 0.299998 -0.749997
v 0.749997 0.299998 -0.850000
v 0.749997 0.499997 -0.850000
v 0.749997 1.500000 -0.749997
v 0.649997 1.800000 -0.749997
v 0.649997 1.700000 -0.850000
v 0.649997 1.800000 -0.850000
v 0.749997 1.800000 -0.749997
v 0.749997 1.700000 -0.850000
v 0.749997 1.800000 -0.850000
v 0.549997 1.900000 -0.850000
v 0.549997 2.099999 -0.850000
v 0.649997 2.000000 -0.649997
v 0.649997 2.099999 -0.649997
v 0.649997 2.000000 -0.749997
v 0.649997 1.900000 -0.850000
v 0.850000 2.000000 -0.749997
v 0.649997 2.099999 -0.850000
v 0.649997 -0.000002 -1.050000
v 0.649997 0.199998 -0.850000
v 0.749997 0.599997 -1.050000
v 0.649997 0.499997 -0.950000
v 0.649997 0.599997 -0.950000
v 0.749997 0.499997 -0.950000
v 0.749997 0.599997 -0.950000
v 0.649997 0.599997 -1.050000
v 0.749997 1.500000 -0.850000
v 0.749997 1.600000 -1.050000
v 0.549997 1.800000 -0.950000
v 0.549997 1.800000 -1.050000
v 0.649997 1.600000 -0.950000
v 0.749997 1.600000 -0.950000
v 0.649997 1.700000 -0.950000
v 0.649997 1.800000 -0.950000
v 0.749997 1.700000 -0.950000
v 0.649997 1.600000 -1.050000
v 0.649997 1.800000 -1.050000
v 0.549997 1.900000 -0.950000
v 0.549997 2.099999 -1.050000
v 0.649997 1.900000 -0.950000
v 0.850000 -0.000002 -0.649997
v 0.850000 0.099998 -0.649997
v 0.950000 0.099998 -0.649997
v 0.850000 -0.000002 -0.749997
v 0.850000 0.099998 -0.749997
v 0.850000 0.299997 -0.749997
v 0.950000 0.099998 -0.749997
v 1.050000 -0.000002 -0.649997
v 1.050000 0.399997 -0.749997
v 0.950000 0.399997 -0.649997
v 0.850000 0.299997 -0.850000
v 0.950000 0.399997 -0.749997
v 1.050000 0.399997 -0.649997
v 0.850000 1.500000 -0.749997
v 0.850000 1.500000 -0.850000
v 1.050000 1.600000 -0.749997
v 0.950000 1.600000 -0.649997
v 0.850000 1.700000 -0.649997
v 0.950000 1.700000 -0.649997
v 0.950000 1.600000 -0.749997
v 0.850000 1.700000 -0.749997
v 0.950000 1.700000 -0.749997
v 1.050000 1.600000 -0.649997
v 1.050000 2.099999 -0.649997
v 0.850000 2.000000 -0.649997
v -1.050000 2.100000 1.050000
v 1.050000 2.100000 1.050000
v -1.050000 2.100000 -1.050000
v 1.050000 2.100000 -1.050000
vn -0.0000 -0.0000 1.0000
vn -1.0000 -0.0000 -0.0000
vn -0.0000 1.0000 -0.0000
vn -0.0000 -1.0000 -0.0000
vt 0.749998 0.000000
vt 0.142858 0.749998
vt 0.749998 0.071428
vt 0.642860 0.749998
vt 0.142858 0.821426
vt 0.464286 0.785712
vt 0.785712 0.071428
vt 0.678574 0.749998
vt 0.928570 0.464285
vt 0.500001 0.785712
vt 0.678574 0.785713
vt 0.892855 0.571428
vt 0.642859 0.785713
vt 0.178573 0.928568
vt 0.464286 0.821426
vt 0.785712 0.107143
vt 0.571430 0.749998
vt 0.928570 0.499999
vt 0.500001 0.821426
vt 0.571430 0.785713
vt 0.928570 0.571428
vt 0.678573 0.785713
vt 0.928571 0.000000
vt 0.892855 0.357143
vt 0.785712 0.535713
vt 0.607145 0.749998
vt 0.678574 0.749998
vt 0.785712 0.785713
vt 0.749998 0.642856
vt 0.500001 0.785712
vt 0.535716 0.821426
vt 0.821427 0.749998
vt 0.500001 0.821426
vt 0.678574 0.785713
vt 0.821427 0.785713
vt 0.714288 0.749998
vt 0.892855 0.464285
vt 0.785712 0.642856
vt 0.535716 0.785712
vt 0.571430 0.821426
vt 0.928571 0.428571
vt 0.535716 0.821426
vt 0.714288 0.785713
vt 0.928571 0.464285
vt 0.535716 0.749998
vt 0.678573 0.785713
vt 0.321429 0.785712
vt 0.535716 0.821426
vt 0.321429 0.857140
vt 0.000000 0.892854
vt 0.464286 0.749998
vt 0.749998 0.857141
vt 0.000000 0.928568
vt 0.749998 0.892855
vt 0.464286 0.785712
vt 0.785712 0.857141
vt 0.749998 0.714284
vt 0.571430 0.749998
vt 0.714287 0.785713
vt 0.821427 0.821427
vt 0.535716 0.785712
vt 0.821427 0.714284
vt 0.428572 0.857140
vt 0.571430 0.821426
vt 0.821427 0.892855
vt 0.250001 0.749998
vt 0.892855 0.464285
vt 0.642860 0.785713
vt 0.178573 0.821426
vt 0.642859 0.821427
vt 0.999999 0.035714
vt 0.642859 0.821427
vt 0.607145 0.821427
vt 0.214287 0.928568
vt 0.607145 0.857141
vt 0.607145 0.785713
vt 0.214287 0.964283
vt 0.678573 0.821427
vt 0.642859 0.821427
vt 0.964285 0.000000
vt 0.642859 0.857141
vt 0.642859 0.785713
vt 0.964285 0.035714
vt 0.607145 0.821427
vt 0.250001 0.964283
vt 0.928570 0.928570
vt 0.928571 0.357143
vt 0.607145 0.785713
vt 0.535716 0.857140
vt 0.999999 0.392857
vt 0.464286 0.821426
vt 0.321429 0.857140
vt 0.357144 0.749998
vt 0.464286 0.857140
vt 0.392858 0.749998
vt 0.500001 0.821426
vt 0.642859 0.821427
vt 0.857141 0.714284
vt 0.535715 0.821426
vt 0.678573 0.821427
vt 0.964285 0.392857
vt 0.535716 0.857140
vt 0.642859 0.857141
vt 0.857141 0.749998
vt 0.500000 0.821426
vt 0.357144 0.857140
vt 0.857141 0.785713
vt 0.571430 0.857140
vt 0.678573 0.857141
vt 0.964285 0.428571
vt 0.500001 0.857140
vt 0.892855 0.714284
vt 0.500000 0.857140
vt 0.892855 0.785713
vt 0.678573 0.821427
vt 0.321429 0.892854
vt 0.357144 0.785712
vt 0.392858 0.857140
vt 0.714287 0.821427
vt 0.357144 0.892854
vt 0.857141 0.821427
vt 0.250001 0.749998
vt 0.571430 0.785713
vt 0.250001 0.785712
vt 0.357144 0.857140
vt 0.571430 0.821427
vt 0.285715 0.785712
vt 0.392858 0.857140
vt 0.428572 0.749998
vt 0.607144 0.785713
vt 0.821427 0.000000
vt 0.357144 0.892854
vt 0.607144 0.821427
vt 0.821427 0.035714
vt 0.821427 0.107142
vt 0.964285 0.464285
vt 0.607145 0.749998
vt 0.392858 0.892854
vt 0.857141 0.035714
vt 0.464286 0.749998
vt 0.321430 0.749998
vt 0.892855 0.142857
vt 0.607145 0.857141
vt 0.285715 0.892854
vt 0.571431 0.821427
vt 0.428572 0.857140
vt 0.964285 0.499999
vt 1.000000 0.464285
vt 0.607145 0.785713
vt 0.857141 0.142857
vt 0.571431 0.857141
vt 0.464286 0.857140
vt 0.321430 0.892854
vt 0.607145 0.821427
vt 0.821427 0.535713
vt 0.964285 0.892856
vt 0.642860 0.749998
vt 0.964285 0.928570
vt 1.000000 0.892856
vt 0.642860 0.785713
vt 0.892855 0.571428
vt 0.714287 0.857141
vt 0.107143 0.749998
vt 0.428572 0.857140
vt 0.678573 0.821427
vt 0.071429 0.785712
vt 0.500000 0.857140
vt 0.392858 0.749998
vt 0.107143 0.785712
vt 0.535714 0.857140
vt 0.428572 0.892854
vt 0.857141 0.571428
vt 0.464286 0.857140
vt 0.678573 0.857141
vt 0.821427 0.607142
vt 0.500000 0.892854
vt 0.428572 0.749998
vt 0.857141 0.607142
vt 0.535714 0.892854
vt 0.464286 0.892854
vt 0.142858 0.749998
vt 0.714287 0.821427
vt 0.142858 0.928568
vt 0.071429 0.892854
vt 0.535716 0.749998
vt 0.392858 0.857140
vt 0.000000 0.000000
vt 0.749998 0.000000
vt 0.000000 0.749998
vt 0.749998 0.749998
s 0
usemtl Material.007
f 46/122/1 53/141/1 58/153/1 55/144/1 48/127/1 47/124/1
f 7/18/1 56/147/1 60/158/1 32/86/1 8/21/1 5/12/1 25/67/1 4/9/1
f 4/10/2 3/6/2 6/15/2 7/19/2
f 12/33/1 11/30/1 14/39/1 15/42/1
f 5/13/3 8/22/3 29/78/3 27/72/3
f 15/43/4 13/36/4 10/27/4 12/34/4
f 19/53/1 18/50/1 70/184/1 63/166/1 64/169/1 62/163/1 68/181/1 69/183/1
f 70/185/4 18/51/4 20/55/4 22/61/4
f 17/48/1 16/45/1 21/58/1 23/64/1
f 28/75/1 27/73/1 29/79/1 30/81/1
f 28/76/3 30/82/3 26/70/3 31/84/3
f 14/40/4 11/31/4 38/102/4 40/108/4
f 37/99/4 36/96/4 41/111/4 33/89/4
f 38/103/1 36/97/1 37/100/1 40/109/1
f 39/105/4 34/91/4 35/94/4 42/113/4
f 14/41/2 40/110/2 37/101/2 33/90/2 26/71/2 30/83/2 29/80/2 8/23/2 32/87/2 9/24/2 13/37/2 15/44/2
f 21/59/4 16/46/4 43/115/4 45/119/4
f 43/116/1 34/92/1 39/106/1 45/120/1
f 18/52/2 19/54/2 23/65/2 21/60/2 45/121/2 39/107/2 42/114/2 41/112/2 36/98/2 38/104/2 11/32/2 12/35/2 10/28/2 20/56/2
f 47/125/3 48/128/3 52/138/3 50/132/3
f 49/130/2 46/123/2 47/126/2 50/133/2
f 50/134/1 52/139/1 57/150/1 54/142/1 61/161/1 65/172/1 67/178/1 66/175/1 22/62/1 20/57/1 10/29/1 13/38/1 9/25/1 59/155/1 51/135/1 6/16/1 3/7/1 2/3/1 1/1/1 49/131/1
f 55/145/3 58/154/3 54/143/3 57/151/3
f 56/148/2 51/136/2 59/156/2 60/159/2
f 52/140/2 48/129/2 55/146/2 57/152/2
f 64/170/4 63/167/4 66/176/4 67/179/4
f 65/173/2 62/164/2 64/171/2 67/180/2
f 68/182/4 62/165/4 65/174/4 61/162/4
f 66/177/2 63/168/2 70/186/2 22/63/2
f 6/17/3 51/137/3 56/149/3 7/20/3
f 2/4/3 3/8/3 4/11/3 25/68/3
f 60/160/4 59/157/4 9/26/4 32/88/4
f 24/66/2 1/2/2 2/5/2 25/69/2 5/14/2 27/74/2 28/77/2 31/85/2
f 43/117/2 16/47/2 17/49/2 44/118/2 35/95/2 34/93/2
f 71/187/3 72/188/3 74/190/3 73/189/3
