# Blender 4.2.3 LTS
# www.blender.org
mtllib Roca2.mtl
o Cube.272
v -0.450000 0.000000 -0.550000
v -0.550000 0.000000 -0.550000
v -0.550000 0.000000 -0.450000
v -0.050000 0.000000 -0.550000
v 0.050000 0.000000 -0.550000
v 0.050000 0.000000 -0.350000
v 0.050000 0.100000 0.050000
v 0.050000 0.100000 -0.050000
v -0.450000 0.000000 0.050000
v -0.450000 0.000000 -0.050000
v 0.050000 0.000000 0.550000
v 0.050000 0.200000 0.650000
v 0.050000 0.000000 0.650000
v 0.550000 0.200000 0.650000
v 0.650000 0.100000 0.650000
v 0.650000 0.100000 0.550000
v 0.650000 0.200000 0.250000
v 0.650000 0.100000 0.150000
v 0.550000 0.100000 0.050000
v 0.550000 0.000000 0.150000
v 0.050000 0.000000 0.150000
v 0.150000 0.100000 0.050000
v 0.050000 0.000000 0.050000
v 0.250000 0.000000 0.650000
v -0.450000 0.300000 0.050000
v 0.050000 0.300000 -0.050000
v -0.550000 0.300000 -0.450000
v -0.550000 0.300000 -0.550000
v 0.050000 0.400000 -0.150000
v -0.550000 0.300000 -0.150000
v -0.350000 0.300000 0.050000
v -0.350000 0.400000 0.050000
v -0.350000 0.300000 -0.050000
v -0.450000 0.300000 -0.450000
v -0.450000 0.300000 -0.550000
v -0.450000 0.400000 -0.550000
v -0.350000 0.400000 -0.450000
v -0.050000 0.300000 -0.550000
v 0.050000 0.300000 -0.450000
v 0.050000 0.300000 -0.550000
v -0.050000 0.300000 -0.450000
v -0.050000 0.400000 -0.550000
v 0.050000 0.400000 -0.350000
v 0.050000 0.400000 -0.450000
v -0.050000 0.300000 0.050000
v -0.050000 0.400000 0.050000
v -0.450000 0.400000 -0.050000
v -0.550000 0.400000 -0.050000
v -0.450000 0.300000 -0.050000
v -0.450000 0.500000 -0.050000
v -0.450000 0.400000 -0.150000
v -0.350000 0.400000 -0.050000
v -0.350000 0.500000 -0.050000
v -0.050000 0.400000 -0.050000
v -0.050000 0.500000 -0.050000
v -0.050000 0.400000 -0.350000
v -0.050000 0.400000 -0.450000
v -0.050000 0.500000 -0.450000
v -0.450000 0.500000 -0.350000
v -0.450000 0.500000 -0.450000
v -0.350000 0.500000 -0.350000
v -0.350000 0.500000 -0.450000
v -0.150000 0.400000 -0.450000
v -0.150000 0.500000 -0.450000
v -0.150000 0.400000 -0.550000
v -0.150000 0.500000 -0.550000
v -0.350000 0.400000 -0.550000
v -0.350000 0.500000 -0.550000
v -0.150000 0.500000 -0.350000
v -0.150000 0.600000 -0.350000
v -0.150000 0.600000 -0.450000
v -0.350000 0.600000 -0.350000
v -0.350000 0.600000 -0.450000
v -0.350000 0.600000 -0.050000
v -0.350000 0.500000 -0.150000
v -0.150000 0.500000 -0.050000
v -0.150000 0.600000 -0.050000
v -0.550000 0.500000 -0.350000
v -0.450000 0.600000 -0.350000
v -0.450000 0.500000 -0.150000
v -0.450000 0.600000 -0.150000
v -0.550000 0.400000 -0.150000
v -0.550000 0.500000 -0.150000
v 0.050000 0.500000 -0.350000
v -0.050000 0.500000 -0.350000
v -0.050000 0.600000 -0.350000
v -0.150000 0.500000 -0.150000
v -0.050000 0.500000 -0.150000
v -0.050000 0.600000 -0.150000
v -0.050000 0.400000 -0.150000
v 0.050000 0.500000 -0.150000
v -0.350000 0.600000 -0.150000
v -0.150000 0.600000 -0.150000
v 0.250000 0.200000 0.650000
v 0.250000 0.300000 0.650000
v 0.150000 0.300000 0.050000
v 0.050000 0.200000 0.150000
v 0.050000 0.300000 0.050000
v 0.150000 0.200000 0.050000
v 0.150000 0.300000 0.250000
v 0.050000 0.200000 0.250000
v 0.550000 0.200000 0.050000
v 0.550000 0.300000 0.050000
v 0.550000 0.300000 0.250000
v 0.650000 0.300000 0.150000
v 0.650000 0.300000 0.550000
v 0.550000 0.300000 0.650000
v 0.550000 0.300000 0.550000
v 0.650000 0.300000 0.650000
v 0.650000 0.200000 0.550000
v 0.150000 0.200000 0.650000
v 0.150000 0.300000 0.650000
v 0.150000 0.200000 0.550000
v 0.050000 0.200000 0.550000
v 0.050000 0.300000 0.550000
v 0.550000 0.500000 0.250000
v 0.650000 0.300000 0.250000
v 0.050000 0.400000 0.450000
v 0.150000 0.300000 0.450000
v 0.150000 0.500000 0.450000
v 0.250000 0.500000 0.450000
v 0.150000 0.400000 0.250000
v 0.150000 0.500000 0.250000
v 0.250000 0.500000 0.250000
v 0.050000 0.400000 0.250000
v 0.250000 0.400000 0.650000
v 0.250000 0.300000 0.550000
v 0.250000 0.500000 0.550000
v 0.250000 0.400000 0.450000
v 0.250000 0.500000 0.150000
v 0.150000 0.400000 0.050000
v 0.250000 0.400000 0.250000
v 0.250000 0.400000 0.150000
v 0.550000 0.500000 0.150000
v 0.550000 0.300000 0.150000
v 0.550000 0.400000 0.650000
v 0.150000 0.300000 0.550000
v 0.150000 0.400000 0.550000
v 0.150000 0.400000 0.450000
v 0.250000 0.400000 0.550000
v 0.650000 0.100000 -0.350000
v 0.650000 0.200000 -0.350000
v 0.050000 0.200000 -0.350000
v 0.150000 0.000000 -0.350000
v 0.250000 0.100000 -0.350000
v 0.250000 0.100000 -0.450000
v 0.250000 0.200000 -0.450000
v 0.150000 0.100000 -0.350000
v 0.150000 0.000000 -0.450000
v 0.150000 0.100000 -0.450000
v 0.550000 0.100000 -0.450000
v 0.550000 0.200000 -0.050000
v 0.650000 0.100000 -0.050000
v 0.650000 0.200000 -0.050000
v 0.550000 0.100000 -0.050000
v 0.550000 0.000000 0.050000
v 0.650000 0.000000 0.050000
v 0.650000 0.100000 0.050000
v 0.150000 0.100000 -0.050000
v 0.250000 0.200000 -0.050000
v 0.050000 0.200000 -0.050000
v 0.150000 0.200000 -0.050000
v 0.250000 0.300000 -0.050000
v 0.250000 0.200000 -0.350000
v 0.250000 0.300000 -0.350000
v -0.050000 0.200000 0.250000
v -0.050000 0.300000 0.250000
v 0.050000 0.300000 0.250000
v -0.050000 0.300000 0.450000
v 0.050000 0.300000 0.450000
v -0.050000 0.000000 0.350000
v -0.050000 0.000000 0.250000
v -0.050000 0.000000 0.550000
v -0.650000 0.300000 -0.150000
v -0.650000 0.300000 -0.350000
v -0.550000 0.300000 -0.350000
v -0.650000 0.000000 -0.450000
v -0.650000 0.200000 -0.450000
v -0.550000 0.200000 -0.350000
v -0.550000 0.200000 -0.450000
v -0.650000 0.200000 -0.350000
v -0.050000 0.000000 -0.650000
v -0.450000 0.000000 -0.650000
v -0.350000 0.200000 -0.650000
v 0.250000 0.000000 0.750000
v 0.650000 0.100000 0.250000
v 0.750000 0.000000 0.150000
v 0.750000 0.100000 0.150000
v 0.750000 0.100000 0.250000
v 0.750000 0.200000 0.250000
v 0.750000 0.100000 0.550000
v 0.750000 0.200000 0.550000
v 0.750000 0.000000 0.650000
v 0.750000 0.100000 0.650000
v 0.550000 0.000000 0.750000
v 0.550000 0.000000 0.650000
v 0.550000 0.200000 0.750000
v 0.250000 0.200000 0.750000
v 0.650000 0.400000 0.550000
v 0.550000 0.500000 0.450000
v 0.550000 0.400000 0.550000
v 0.550000 0.500000 0.550000
v 0.550000 0.400000 0.450000
v 0.650000 0.400000 0.450000
v 0.650000 0.500000 0.450000
v 0.650000 0.500000 0.250000
v 0.550000 0.100000 -0.350000
v 0.650000 0.000000 -0.450000
v 0.650000 0.100000 -0.450000
v 0.550000 0.200000 -0.350000
v 0.550000 0.200000 -0.450000
v 0.550000 0.300000 -0.050000
v 0.550000 0.300000 -0.350000
v 0.450000 0.300000 0.150000
v 0.450000 0.400000 0.150000
v 0.450000 0.300000 0.050000
v 0.450000 0.400000 0.050000
v -0.050000 0.200000 -0.550000
v -0.050000 0.200000 -0.650000
v -0.450000 0.200000 -0.550000
v -0.450000 0.200000 -0.650000
v -0.350000 0.200000 -0.550000
v -0.350000 0.300000 -0.550000
v -0.350000 0.300000 -0.650000
v -0.150000 0.200000 -0.550000
v -0.150000 0.300000 -0.550000
v -0.150000 0.200000 -0.650000
v -0.150000 0.300000 -0.650000
v -0.650000 0.000000 -0.050000
v -0.650000 0.200000 -0.050000
v -0.650000 0.200000 -0.150000
v -0.550000 0.200000 -0.050000
v -0.550000 0.200000 -0.150000
v -0.550000 0.400000 -0.350000
v -0.550000 0.400000 -0.450000
v -0.450000 0.400000 -0.350000
v -0.450000 0.400000 -0.450000
v -0.050000 0.300000 -0.050000
v 0.050000 0.400000 -0.050000
v -0.050000 0.200000 0.150000
v -0.050000 0.000000 0.150000
v -0.050000 0.200000 0.550000
v -0.050000 0.200000 0.450000
v 0.050000 0.200000 0.450000
v -0.450000 0.000000 0.550000
v -0.450000 0.100000 0.550000
v -0.450000 0.000000 0.350000
v -0.450000 0.100000 0.350000
v -0.650000 0.000000 0.350000
v -0.650000 0.100000 0.350000
v -0.650000 0.000000 0.550000
v -0.650000 0.100000 0.550000
vn -1.0000 -0.0000 -0.0000
vn -0.0000 1.0000 -0.0000
vn -0.0000 -0.0000 -1.0000
vn -0.0000 -0.0000 1.0000
vn 1.0000 -0.0000 -0.0000
vt 0.291667 0.708333
vt 0.291667 0.750000
vt 0.375000 0.750000
vt 0.375000 0.708333
vt 0.166667 0.375000
vt 0.041667 0.375000
vt 0.041667 0.333333
vt 0.166667 0.333333
vt 0.541667 0.291667
vt 0.541667 0.375000
vt 0.583333 0.375000
vt 0.583333 0.291667
vt 0.458333 0.666667
vt 0.416667 0.666667
vt 0.416667 0.583333
vt 0.458333 0.583333
vt 0.166667 0.333333
vt 0.166667 0.375000
vt 0.041667 0.375000
vt 0.041667 0.333333
vt 0.000000 0.333333
vt 0.000000 0.208333
vt 0.208333 0.208333
vt 0.208333 0.250000
vt 0.208333 0.333333
vt 0.041667 0.458333
vt 0.000000 0.458333
vt 0.000000 0.375000
vt 0.083333 0.375000
vt 0.083333 0.500000
vt 0.125000 0.500000
vt 0.125000 0.541667
vt 0.250000 0.541667
vt 0.250000 0.583333
vt 0.208333 0.583333
vt 0.208333 0.625000
vt 0.125000 0.625000
vt 0.125000 0.583333
vt 0.083333 0.583333
vt 0.083333 0.541667
vt 0.041667 0.541667
vt 0.166667 0.791667
vt 0.166667 0.833333
vt 0.041667 0.833333
vt 0.041667 0.791667
vt 0.541667 0.458333
vt 0.541667 0.541667
vt 0.625000 0.541667
vt 0.625000 0.500000
vt 0.583333 0.500000
vt 0.583333 0.458333
vt 0.333333 0.500000
vt 0.291667 0.500000
vt 0.291667 0.458333
vt 0.333333 0.458333
vt 0.458333 0.708333
vt 0.458333 0.791667
vt 0.500000 0.791667
vt 0.500000 0.708333
vt 0.541667 0.375000
vt 0.541667 0.416667
vt 0.500000 0.416667
vt 0.500000 0.500000
vt 0.458333 0.500000
vt 0.458333 0.541667
vt 0.333333 0.541667
vt 0.333333 0.500000
vt 0.291667 0.500000
vt 0.291667 0.458333
vt 0.250000 0.458333
vt 0.250000 0.375000
vt 0.333333 0.375000
vt 0.333333 0.458333
vt 0.458333 0.458333
vt 0.458333 0.375000
vt 0.125000 0.375000
vt 0.083333 0.375000
vt 0.083333 0.333333
vt 0.125000 0.333333
vt 0.458333 0.541667
vt 0.458333 0.500000
vt 0.375000 0.500000
vt 0.375000 0.541667
vt 0.250000 0.208333
vt 0.166667 0.208333
vt 0.166667 0.166667
vt 0.250000 0.166667
vt 0.541667 0.166667
vt 0.500000 0.166667
vt 0.500000 0.125000
vt 0.541667 0.125000
vt 0.625000 0.125000
vt 0.583333 0.125000
vt 0.583333 0.041667
vt 0.625000 0.041667
vt 0.625000 0.000000
vt 0.708333 0.000000
vt 0.708333 0.041667
vt 0.750000 0.041667
vt 0.750000 0.125000
vt 0.708333 0.125000
vt 0.708333 0.166667
vt 0.625000 0.166667
vt 0.333333 0.125000
vt 0.291667 0.125000
vt 0.291667 0.083333
vt 0.333333 0.083333
vt 0.416667 0.708333
vt 0.375000 0.666667
vt 0.333333 0.708333
vt 0.333333 0.750000
vt 0.250000 0.541667
vt 0.208333 0.583333
vt 0.208333 0.541667
vt 0.375333 0.668320
vt 0.375333 0.709987
vt 0.417000 0.709987
vt 0.417000 0.668320
vt 0.791667 0.291667
vt 0.791667 0.208333
vt 0.875000 0.208333
vt 0.875000 0.291667
vt 0.208333 0.166667
vt 0.208333 0.208333
vt 0.750000 0.541667
vt 0.750000 0.500000
vt 0.875000 0.500000
vt 0.875000 0.541667
vt 0.250000 0.166667
vt 0.166667 0.208333
vt 0.166667 0.166667
vt 0.125000 0.166667
vt 0.125000 0.125000
vt 0.083333 0.125000
vt 0.083333 0.041667
vt 0.125000 0.041667
vt 0.125000 0.083333
vt 0.250000 0.083333
vt 0.250000 0.000000
vt 0.333333 0.000000
vt 0.333333 0.125000
vt 0.291667 0.125000
vt 0.291667 0.166667
vt 0.125000 0.791667
vt 0.166667 0.750000
vt 0.125000 0.750000
vt 0.250000 0.458333
vt 0.250000 0.416667
vt 0.291667 0.416667
vt 0.500000 0.708333
vt 0.500000 0.666667
vt 0.458333 0.666667
vt 0.458333 0.583333
vt 0.500000 0.583333
vt 0.500000 0.541667
vt 0.625000 0.541667
vt 0.625000 0.583333
vt 0.666667 0.583333
vt 0.666667 0.666667
vt 0.625000 0.666667
vt 0.625000 0.708333
vt 0.166667 0.250000
vt 0.208333 0.250000
vt 0.208333 0.333333
vt 0.333333 0.541667
vt 0.708333 0.541667
vt 0.708333 0.583333
vt 0.666667 0.583333
vt 0.666667 0.541667
vt 0.500000 0.083333
vt 0.500000 0.125000
vt 0.416667 0.125000
vt 0.416667 0.083333
vt 0.375000 0.083333
vt 0.375000 0.000000
vt 0.333333 0.000000
vt 0.333333 0.125000
vt 0.375000 0.125000
vt 0.375000 0.166667
vt 0.416667 0.166667
vt 0.416667 0.208333
vt 0.500000 0.208333
vt 0.500000 0.166667
vt 0.541667 0.166667
vt 0.541667 0.125000
vt 0.583333 0.125000
vt 0.583333 0.000000
vt 0.541667 0.000000
vt 0.541667 0.083333
vt 0.583333 0.791667
vt 0.541667 0.791667
vt 0.541667 0.708333
vt 0.583333 0.708333
vt 0.666667 0.625000
vt 0.791667 0.625000
vt 0.791667 0.541667
vt 0.750000 0.583333
vt 0.416667 0.666667
vt 0.458333 0.666667
vt 0.458333 0.541667
vt 0.416667 0.541667
vt 0.416667 0.625000
vt 0.375000 0.625000
vt 0.375000 0.666667
vt 0.291667 0.666667
vt 0.291667 0.625000
vt 0.250000 0.625000
vt 0.250000 0.708333
vt 0.291667 0.708333
vt 0.291667 0.750000
vt 0.375000 0.750000
vt 0.375000 0.708333
vt -0.000000 0.333333
vt 0.041667 0.208333
vt -0.000000 0.208333
vt 0.208333 0.791667
vt 0.208333 0.750000
vt 0.083333 0.916667
vt 0.000000 0.916667
vt 0.000000 0.875000
vt 0.083333 0.875000
vt 0.666667 0.666667
vt 0.750000 0.666667
vt 0.750000 0.625000
vt 0.125000 0.833333
vt 0.583333 0.791667
vt 0.625000 0.791667
vt 0.625000 0.708333
vt 0.458333 0.708333
vt 0.458333 0.791667
vt 0.500000 0.791667
vt 0.500000 0.833333
vt 0.583333 0.833333
vt 0.166667 0.833333
vt 0.041667 0.833333
vt 0.041667 0.791667
vt 0.000000 0.791667
vt 0.000000 0.750000
vt 0.208333 0.750000
vt 0.208333 0.791667
vt 0.166667 0.791667
vt 0.583333 0.833333
vt 0.500000 0.833333
vt 0.625000 0.416667
vt 0.583333 0.416667
vt 0.625000 0.375000
vt 0.625000 0.541667
vt 0.541667 0.541667
vt 0.541667 0.416667
vt 0.583333 0.416667
vt 0.583333 0.375000
vt 0.750000 0.375000
vt 0.750000 0.416667
vt 0.625000 0.416667
vt 0.416667 0.541667
vt 0.416667 0.500000
vt 0.166667 0.625000
vt 0.166667 0.750000
vt 0.208333 0.750000
vt 0.208333 0.666667
vt 0.250000 0.666667
vt 0.250000 0.625000
vt 0.666667 0.541667
vt 0.791667 0.541667
vt 0.791667 0.666667
vt 0.625000 0.791667
vt 0.625000 0.708333
vt 0.458333 0.750000
vt 0.500000 0.750000
vt 0.791667 0.083333
vt 0.791667 0.125000
vt 0.833333 0.125000
vt 0.833333 0.166667
vt 0.791667 0.166667
vt 0.750000 0.208333
vt 0.750000 0.083333
vt 0.541667 0.833333
vt 0.166667 0.291667
vt 0.125000 0.291667
vt 0.791667 0.458333
vt 0.750000 0.458333
vt 0.250000 0.333333
vt 0.375000 0.375000
vt 0.375000 0.333333
vt 0.416667 0.333333
vt 0.416667 0.291667
vt 0.250000 0.291667
vt 0.250000 0.250000
vt 0.250000 0.375000
vt 0.291667 0.375000
vt 0.875000 0.541667
vt 0.750000 0.541667
vt 0.750000 0.458333
vt 0.875000 0.458333
vt -0.000000 0.750000
vt -0.000000 0.791667
vt 0.500000 0.333333
vt 0.458333 0.333333
vt 0.458333 0.291667
vt 0.416667 0.291667
vt 0.416667 0.208333
vt 0.458333 0.208333
vt 0.458333 0.250000
vt 0.583333 0.250000
vt 0.583333 0.208333
vt 0.625000 0.208333
vt 0.625000 0.291667
vt 0.583333 0.291667
vt 0.583333 0.375000
vt 0.500000 0.375000
vt 0.083333 0.791667
vt 0.083333 0.833333
vt 0.166667 0.916667
vt 0.166667 0.875000
vt 0.000000 0.791667
vt 0.041667 0.750000
vt 0.708333 0.625000
vt 0.791667 0.666667
vt 0.833333 0.541667
vt 0.833333 0.458333
vt 0.875000 0.458333
vt 0.583333 0.750000
vt 0.625000 0.750000
vt 0.166667 0.125000
vt 0.125000 0.166667
vt 0.250000 0.916667
vt 0.250000 0.875000
vt 0.333333 0.875000
vt 0.333333 0.916667
s 0
usemtl Material
f 80/1/1 81/2/1 79/3/1 59/4/1
f 54/5/2 52/6/2 32/7/2 46/8/2
f 104/9/3 116/10/3 206/11/3 117/12/3
f 122/13/2 125/14/2 118/15/2 139/16/2
f 83/2/2 80/1/2 59/4/2 78/3/2
f 45/17/4 46/18/4 32/19/4 31/20/4 25/21/4 9/22/4 23/23/4 7/24/4 98/25/4
f 232/26/4 230/27/4 229/28/4 10/29/4 49/30/4 33/31/4 52/32/4 54/33/4 55/34/4 76/35/4 77/36/4 74/37/4 53/38/4 50/39/4 47/40/4 48/41/4
f 110/42/2 192/43/2 190/44/2 17/45/2
f 6/46/3 143/47/3 164/48/3 145/49/3 148/50/3 144/51/3
f 113/52/2 114/53/2 12/54/2 111/55/2
f 1/56/1 220/57/1 221/58/1 183/59/1
f 219/58/5 218/57/5 4/56/5 182/59/5
f 62/1/3 73/2/3 71/3/3 64/4/3
f 193/60/4 194/61/4 15/62/4 109/63/4 107/64/4 136/65/4 126/66/4 95/67/4 112/68/4 111/69/4 12/70/4 13/71/4 24/72/4 94/73/4 14/74/4 196/75/4
f 33/76/2 49/77/2 25/78/2 31/79/2
f 123/80/1 122/81/1 139/82/1 120/83/1
f 26/5/2 238/76/2 45/79/2 98/8/2
f 85/84/2 88/85/2 91/86/2 84/87/2
f 35/88/2 28/89/2 27/90/2 34/91/2
f 31/79/1 32/76/1 52/5/1 33/8/1
f 72/92/2 79/93/2 81/94/2 92/95/2 74/96/2 77/97/2 93/98/2 89/99/2 86/100/2 70/101/2 71/102/2 73/103/2
f 34/90/1 237/89/1 36/88/1 35/91/1
f 67/88/2 36/89/2 237/90/2 37/91/2
f 40/104/2 38/105/2 41/106/2 39/107/2
f 38/107/5 42/104/5 57/105/5 41/106/5
f 42/104/2 65/105/2 63/106/2 57/107/2
f 41/106/3 57/105/3 44/104/3 39/107/3
f 44/104/2 57/105/2 56/106/2 43/107/2
f 238/8/5 54/5/5 46/76/5 45/79/5
f 51/108/2 82/4/2 48/109/2 47/14/2
f 47/110/1 50/111/1 80/3/1 51/4/1
f 75/3/2 80/111/2 50/110/2 53/4/2
f 90/112/5 88/34/5 55/113/5 54/114/5
f 88/3/2 87/111/2 76/110/2 55/4/2
f 63/110/3 64/111/3 58/3/3 57/4/3
f 57/4/5 58/3/5 85/111/5 56/110/5
f 58/3/2 64/111/2 69/110/2 85/4/2
f 236/109/1 59/4/1 60/108/1 237/14/1
f 237/115/3 60/116/3 62/117/3 37/118/3
f 62/117/2 60/116/2 59/115/2 61/118/2
f 65/110/5 66/111/5 64/2/5 63/1/5
f 37/110/1 62/111/1 68/3/1 67/4/1
f 64/4/5 71/3/5 70/111/5 69/110/5
f 250/119/2 252/120/2 246/121/2 248/122/2
f 61/110/1 72/111/1 73/3/1 62/4/1
f 53/110/1 74/111/1 92/3/1 75/4/1
f 87/4/5 93/3/5 77/111/5 76/110/5
f 234/109/3 78/4/3 59/108/3 236/14/3
f 59/110/3 79/111/3 72/3/3 61/4/3
f 75/4/4 92/3/4 81/111/4 80/110/4
f 135/12/5 134/11/5 116/10/5 104/9/5
f 51/14/4 80/108/4 83/4/4 82/109/4
f 56/110/3 85/111/3 84/3/3 43/4/3
f 89/2/5 88/1/5 85/4/5 86/3/5
f 69/110/3 70/111/3 86/3/3 85/4/3
f 88/4/4 89/3/4 93/111/4 87/110/4
f 29/123/4 91/124/4 88/85/4 90/86/4
f 94/125/2 198/126/2 197/127/2 14/128/2
f 103/52/2 216/53/2 214/54/2 135/55/2
f 105/52/2 135/53/2 104/54/2 117/55/2
f 43/129/5 84/84/5 91/130/5 29/131/5 239/132/5 26/133/5 98/134/5 7/135/5 8/136/5 161/137/5 143/138/5 6/139/5 5/140/5 40/141/5 39/142/5 44/143/5
f 106/52/2 108/53/2 107/54/2 109/55/2
f 111/54/1 112/53/1 137/52/1 113/55/1
f 211/43/2 147/44/2 164/45/2 210/42/2
f 99/144/1 162/42/1 159/145/1 22/146/1
f 127/52/2 137/53/2 112/54/2 95/55/2
f 119/54/2 170/147/2 115/148/2 137/149/2
f 114/148/1 115/147/1 170/54/1 244/149/1
f 113/149/4 137/54/4 115/147/4 114/148/4
f 130/150/2 124/151/2 123/152/2 120/153/2 121/154/2 128/155/2 202/156/2 200/157/2 205/158/2 206/159/2 116/160/2 134/161/2
f 98/8/2 168/162/2 100/163/2 96/164/2
f 119/82/4 139/83/4 118/165/4 170/52/4
f 129/166/4 121/167/4 120/168/4 139/169/4
f 122/169/3 123/168/3 124/167/3 132/166/3
f 168/52/3 125/165/3 122/83/3 100/82/3
f 95/54/1 126/53/1 140/52/1 127/55/1
f 140/169/1 128/168/1 121/167/1 129/166/1
f 225/170/3 226/171/3 223/172/3 222/173/3 220/174/3 1/175/3 2/176/3 28/177/3 35/178/3 36/179/3 67/180/3 68/181/3 66/182/3 65/183/3 42/184/3 38/185/3 40/186/3 5/187/3 4/188/3 218/189/3
f 132/169/1 124/168/1 130/167/1 133/166/1
f 201/81/4 202/80/4 128/165/4 140/52/4
f 176/190/2 175/191/2 174/192/2 30/193/2
f 130/194/3 134/195/3 135/196/3 214/125/3 215/197/3 133/168/3
f 108/55/5 201/52/5 136/53/5 107/54/5
f 137/52/1 138/165/1 139/83/1 119/82/1
f 127/82/4 140/83/4 138/165/4 137/52/4
f 129/83/2 139/165/2 138/52/2 140/82/2
f 68/2/2 62/1/2 64/4/2 66/3/2
f 27/198/1 28/199/1 2/200/1 3/201/1 180/202/1 179/203/1 176/204/1 30/205/1 233/206/1 232/207/1 48/208/1 82/209/1 83/210/1 78/211/1 234/212/1 235/108/1
f 25/213/1 49/7/1 10/214/1 9/215/1
f 142/44/2 210/45/2 152/42/2 154/43/2
f 207/145/3 210/42/3 142/216/3 141/217/3
f 246/218/4 252/219/4 251/220/4 245/221/4
f 100/194/1 122/222/1 131/223/1 96/224/1
f 163/165/1 165/80/1 164/81/1 160/52/1
f 145/144/1 164/225/1 147/43/1 146/42/1
f 227/226/3 219/227/3 182/228/3 183/229/3 221/230/3 184/231/3 224/232/3 228/233/3
f 144/144/1 148/225/1 150/43/1 149/42/1
f 190/234/5 192/235/5 191/236/5 194/237/5 193/238/5 187/239/5 188/240/5 189/241/5
f 146/43/2 150/225/2 148/144/2 145/42/2
f 228/242/2 224/243/2 223/58/2 226/190/2
f 153/217/4 154/216/4 152/42/4 155/145/4
f 157/217/4 158/216/4 19/42/4 156/145/4
f 153/216/2 155/42/2 19/145/2 158/217/2
f 159/244/2 8/245/2 7/11/2 22/246/2
f 164/247/2 143/248/2 161/249/2 162/250/2 99/251/2 102/252/2 152/253/2 160/254/2
f 125/255/1 168/256/1 170/52/1 118/165/1
f 165/165/3 213/80/3 210/81/3 164/52/3
f 212/80/4 163/165/4 160/52/4 152/81/4
f 20/257/3 135/258/3 105/259/3 18/260/3 188/261/3 187/262/3
f 163/263/2 212/264/2 213/265/2 165/159/2
f 114/266/4 242/190/4 173/193/4 11/267/4
f 166/56/3 167/268/3 168/269/3 101/59/3
f 156/270/5 19/271/5 155/272/5 152/273/5 102/274/5 103/120/5 135/275/5 20/276/5
f 233/191/4 30/277/4 174/243/4 231/58/4
f 181/58/3 175/243/3 176/277/3 179/191/3
f 181/190/1 178/266/1 177/267/1 229/56/1 230/57/1 231/58/1 174/243/1 175/242/1
f 180/277/2 178/243/2 181/58/2 179/191/2
f 21/85/1 97/278/1 101/279/1 168/79/1 98/164/1 7/163/1 23/124/1
f 8/146/4 159/145/4 162/42/4 161/144/4
f 198/125/1 94/196/1 24/280/1 185/281/1
f 7/24/3 98/25/3 96/282/3 131/71/3 217/283/3 216/284/3 103/285/3 102/286/3 99/287/3 22/288/3
f 13/289/1 12/147/1 114/54/1 11/290/1
f 178/57/3 180/58/3 3/59/3 177/56/3
f 197/291/4 198/292/4 185/293/4 195/294/4
f 188/216/2 18/42/2 186/145/2 189/217/2
f 186/145/3 17/42/3 190/216/3 189/217/3
f 211/43/3 151/42/3 209/216/3 208/217/3 149/295/3 150/296/3 146/45/3 147/44/3
f 204/297/5 199/298/5 106/299/5 109/300/5 15/301/5 16/302/5 110/303/5 17/304/5 186/305/5 18/306/5 105/307/5 117/308/5 206/309/5 205/310/5
f 171/192/1 173/56/1 242/57/1 243/58/1 169/243/1 167/242/1 166/190/1 240/266/1 241/267/1 172/193/1
f 243/56/4 244/59/4 170/269/4 169/268/4
f 191/311/4 192/312/4 110/44/4 16/45/4
f 249/221/3 250/218/3 248/313/3 247/314/3
f 191/45/2 16/315/2 15/295/2 194/316/2
f 131/222/2 122/168/2 132/167/2 133/317/2 215/195/2 217/318/2
f 201/80/2 140/165/2 126/52/2 136/81/2
f 106/55/4 199/52/4 201/53/4 108/54/4
f 204/52/2 203/53/2 201/54/2 199/55/2
f 203/166/5 200/167/5 202/168/5 201/169/5
f 204/55/4 205/52/4 200/53/4 203/54/4
f 241/193/3 240/190/3 97/266/3 21/267/3
f 209/216/2 151/42/2 207/145/2 141/217/2
f 151/42/5 211/43/5 210/225/5 207/144/5
f 213/80/5 212/165/5 152/52/5 210/81/5
f 216/55/5 217/52/5 215/53/5 214/54/5
f 14/128/5 197/319/5 195/320/5 196/321/5
f 219/58/2 227/57/2 225/268/2 218/269/2
f 184/266/2 221/190/2 220/322/2 222/323/2
f 222/191/1 223/277/1 224/242/1 184/190/1
f 227/191/5 228/277/5 226/243/5 225/58/5
f 167/58/2 169/59/2 170/192/2 168/191/2
f 233/277/2 231/243/2 230/58/2 232/191/2
f 27/109/3 235/4/3 237/108/3 34/14/3
f 237/108/2 235/4/2 234/109/2 236/14/2
f 26/324/4 239/86/4 54/325/4 238/133/4
f 29/86/2 90/325/2 54/133/2 239/324/2
f 97/269/2 240/268/2 166/56/2 101/59/2
f 244/269/2 243/268/2 242/56/2 114/59/2
f 251/314/1 252/313/1 250/326/1 249/327/1
f 154/44/5 153/45/5 158/296/5 157/295/5 208/217/5 209/216/5 141/42/5 142/43/5
f 247/328/5 248/329/5 246/326/5 245/327/5
