# Blender 4.2.3 LTS
# www.blender.org
mtllib Roca3.mtl
o Cube.015
v 0.150000 0.200000 0.150000
v -0.250000 0.000000 0.150000
v -0.250000 0.100000 0.150000
v -0.150000 0.100000 0.150000
v -0.250000 0.000000 -0.150000
v -0.250000 0.100000 -0.150000
v -0.150000 0.000000 -0.150000
v -0.150000 0.100000 -0.150000
v -0.150000 0.000000 -0.250000
v -0.150000 0.100000 -0.250000
v 0.150000 0.000000 -0.150000
v 0.150000 0.000000 0.150000
v 0.250000 0.000000 0.150000
v 0.250000 0.100000 0.150000
v -0.150000 0.000000 0.250000
v -0.150000 0.100000 0.250000
v -0.150000 0.000000 0.150000
v 0.150000 0.000000 0.250000
v 0.150000 0.100000 0.250000
v 0.150000 0.100000 0.150000
v 0.650000 0.000000 0.250000
v 0.650000 0.000000 0.150000
v 0.650000 0.100000 0.150000
v 0.450000 0.000000 0.250000
v 0.450000 0.100000 0.250000
v 0.450000 0.000000 0.150000
v 0.450000 0.100000 0.150000
v 0.750000 0.000000 0.250000
v 0.750000 0.100000 0.250000
v 0.350000 0.000000 0.250000
v 0.350000 0.100000 0.250000
v 0.350000 0.000000 0.450000
v 0.350000 0.100000 0.450000
v 0.650000 0.100000 0.250000
v 0.650000 0.200000 0.250000
v 0.450000 0.000000 0.550000
v 0.450000 0.100000 0.550000
v 0.450000 0.000000 0.450000
v 0.450000 0.100000 0.450000
v 0.450000 0.200000 0.450000
v 0.650000 0.000000 0.550000
v 0.650000 0.100000 0.550000
v 0.650000 0.000000 0.450000
v 0.650000 0.200000 0.450000
v 0.650000 0.100000 0.450000
v 0.750000 0.000000 0.450000
v 0.750000 0.100000 0.450000
v 0.450000 0.200000 0.250000
v 0.750000 0.100000 -0.350000
v 0.650000 0.100000 -0.250000
v 0.450000 0.100000 -0.250000
v 0.650000 0.200000 -0.550000
v 0.350000 0.100000 -0.350000
v 0.350000 0.100000 -0.550000
v 0.750000 0.100000 -0.550000
v 0.450000 0.100000 -0.650000
v 0.650000 0.100000 -0.650000
v -0.550000 0.000000 -0.350000
v -0.550000 0.100000 -0.350000
v -0.450000 0.000000 -0.350000
v -0.450000 0.100000 -0.350000
v -0.750000 0.000000 -0.350000
v -0.550000 0.100000 -0.750000
v -0.550000 0.000000 -0.850000
v -0.550000 0.100000 -0.850000
v -0.750000 0.100000 -0.750000
v -0.750000 0.000000 -0.850000
v -0.750000 0.100000 -0.850000
v -0.450000 0.000000 -0.750000
v -0.450000 0.100000 -0.750000
v -0.850000 0.000000 -0.750000
v -0.850000 0.100000 -0.750000
v -0.550000 0.200000 -0.750000
v -0.550000 0.000000 -0.750000
v -0.750000 0.000000 -0.750000
v -0.750000 0.000000 -0.250000
v -0.750000 0.100000 -0.250000
v -0.750000 0.100000 -0.350000
v -0.550000 0.000000 -0.250000
v -0.550000 0.100000 -0.250000
v -0.550000 0.200000 -0.350000
v -0.450000 0.000000 0.850000
v -0.450000 0.000000 0.550000
v -0.450000 0.200000 0.550000
v -0.350000 0.000000 0.550000
v -0.350000 0.100000 0.550000
v -0.450000 0.100000 0.550000
v -0.450000 0.000000 0.450000
v -0.450000 0.100000 0.450000
v -0.750000 0.000000 0.950000
v -0.750000 0.100000 0.950000
v -0.750000 0.100000 0.850000
v -0.750000 0.200000 0.850000
v -0.850000 0.000000 0.850000
v -0.850000 0.100000 0.850000
v -0.750000 0.000000 0.850000
v -0.750000 0.100000 0.550000
v -0.750000 0.200000 0.550000
v -0.850000 0.000000 0.550000
v -0.850000 0.100000 0.550000
v -0.750000 0.000000 0.550000
v -0.750000 0.000000 0.450000
v -0.750000 0.100000 0.450000
v -0.850000 0.000000 -0.350000
v -0.850000 0.100000 -0.350000
v -0.750000 0.200000 -0.350000
v -0.750000 0.200000 -0.750000
v 0.350000 0.200000 -0.350000
v 0.450000 0.100000 -0.350000
v 0.450000 0.200000 -0.350000
v 0.350000 0.200000 -0.550000
v 0.750000 0.200000 -0.550000
v 0.750000 0.200000 -0.350000
v 0.450000 0.100000 -0.550000
v 0.450000 0.200000 -0.550000
v 0.450000 0.200000 -0.650000
v 0.650000 0.200000 -0.650000
v 0.650000 0.200000 -0.250000
v 0.650000 0.200000 -0.350000
v 0.450000 0.200000 -0.250000
v 0.650000 0.100000 -0.350000
v 0.750000 0.000000 -0.250000
v 0.750000 0.100000 -0.250000
v 0.350000 0.000000 -0.250000
v 0.350000 0.100000 -0.250000
v 0.350000 0.000000 -0.650000
v 0.350000 0.100000 -0.650000
v 0.650000 0.100000 -0.550000
v 0.750000 0.000000 -0.650000
v 0.750000 0.100000 -0.650000
v 0.150000 0.100000 -0.150000
v 0.250000 0.000000 -0.150000
v 0.250000 0.100000 -0.150000
v 0.150000 0.000000 -0.250000
v 0.150000 0.100000 -0.250000
v 0.150000 0.200000 -0.150000
v -0.150000 0.200000 -0.150000
v -0.150000 0.200000 0.150000
v -0.450000 0.200000 0.850000
v -0.450000 0.100000 0.850000
v -0.350000 0.000000 0.850000
v -0.350000 0.100000 0.850000
v -0.450000 0.000000 0.950000
v -0.450000 0.100000 0.950000
vn -0.0000 -0.0000 -1.0000
vn -1.0000 -0.0000 -0.0000
vn 1.0000 -0.0000 -0.0000
vn -0.0000 -0.0000 1.0000
vn -0.0000 1.0000 -0.0000
vt 0.315789 0.894737
vt 0.473684 0.894737
vt 0.473684 0.842105
vt 0.315789 0.842105
vt 0.157895 0.631579
vt 0.157895 0.684211
vt 0.210526 0.684211
vt 0.210526 0.736842
vt 0.315789 0.736842
vt 0.315789 0.684211
vt 0.368421 0.684211
vt 0.368421 0.631579
vt 0.684210 0.684210
vt 0.684210 0.631579
vt 0.842105 0.631579
vt 0.842105 0.684210
vt 0.421053 0.947368
vt 0.421053 1.000000
vt 0.368421 1.000000
vt 0.368421 0.947368
vt 0.947368 0.578947
vt 0.947368 0.631579
vt 1.000000 0.631579
vt 1.000000 0.578947
vt 0.947368 0.105263
vt 0.842105 0.105263
vt 0.842105 0.052632
vt 0.947368 0.052632
vt 0.842105 0.947368
vt 0.842105 1.000000
vt 0.894737 1.000000
vt 0.894737 0.947368
vt 0.684210 0.684210
vt 0.684210 0.736842
vt 0.842105 0.736842
vt 0.842105 0.684210
vt 0.947368 0.421053
vt 0.947368 0.473684
vt 0.894737 0.473684
vt 0.894737 0.421053
vt 0.473684 1.000000
vt 0.473684 0.947368
vt 0.894737 0.473684
vt 0.736842 0.473684
vt 0.736842 0.421053
vt 0.894737 0.421053
vt 0.157895 0.894737
vt 0.000000 0.894737
vt -0.000000 0.842105
vt 0.157895 0.842105
vt 0.526316 0.947368
vt 0.526316 1.000000
vt 0.473684 1.000000
vt 0.473684 0.947368
vt 0.789474 0.894737
vt 0.631579 0.894737
vt 0.631579 0.842105
vt 0.789474 0.842105
vt 1.000000 0.526316
vt 1.000000 0.578947
vt 0.947368 0.578947
vt 0.947368 0.526316
vt 0.631579 0.421053
vt 0.736842 0.421053
vt 0.736842 0.526316
vt 0.631579 0.526316
vt 0.947368 0.684210
vt 1.000000 0.684210
vt 1.000000 0.631579
vt 0.000000 0.947368
vt 0.000000 1.000000
vt 0.052632 1.000000
vt 0.052632 0.947368
vt 0.368421 0.789474
vt 0.368421 0.736842
vt 0.157895 0.736842
vt 0.157895 0.789474
vt 0.105263 1.000000
vt 0.105263 0.947368
vt 0.157895 0.684210
vt -0.000000 0.684210
vt -0.000000 0.526316
vt 0.157895 0.526316
vt 1.000000 0.105263
vt 1.000000 0.157895
vt 0.947368 0.157895
vt 0.947368 0.105263
vt 0.842105 0.157895
vt 0.894737 0.157895
vt 0.894737 0.263158
vt 0.842105 0.263158
vt 0.947368 0.157895
vt 0.842105 0.105263
vt 0.947368 0.105263
vt 0.947368 0.052632
vt 0.947368 0.105263
vt 1.000000 0.105263
vt 1.000000 0.052632
vt 0.315789 0.947368
vt 0.473684 0.947368
vt 0.473684 0.894737
vt 0.315789 0.894737
vt 1.000000 0.000000
vt 1.000000 0.052632
vt 0.947368 0.052632
vt 0.947368 0.000000
vt 0.157895 0.947368
vt 0.157895 1.000000
vt 0.842105 0.736842
vt 0.842105 0.789474
vt 0.947368 0.789474
vt 0.947368 0.736842
vt 0.526316 0.736842
vt 0.473684 0.736842
vt 0.473684 0.684210
vt 0.631579 0.736842
vt 0.631579 0.789474
vt 0.526316 0.789474
vt 0.631579 0.210526
vt 0.526316 0.210526
vt 0.526316 0.157895
vt 0.473684 0.157895
vt 0.473684 0.052632
vt 0.526316 0.052632
vt 0.526316 0.000000
vt 0.631579 0.000000
vt 0.631579 0.052632
vt 0.684210 0.052632
vt 0.684210 0.157895
vt 0.631579 0.157895
vt 0.473684 0.578947
vt 0.473684 0.421053
vt 0.631579 0.421053
vt 0.631579 0.578947
vt 0.789474 0.000000
vt 0.842105 0.000000
vt 0.842105 0.157895
vt 0.789474 0.157895
vt 0.000000 0.736842
vt 0.000000 0.684210
vt 0.157895 0.684210
vt 0.157895 0.736842
vt 0.631579 0.947368
vt 0.631579 1.000000
vt 0.578947 1.000000
vt 0.578947 0.947368
vt 0.368421 0.736842
vt 0.368421 0.789474
vt 0.473684 0.789474
vt 0.473684 0.736842
vt 0.210526 0.947368
vt 0.210526 1.000000
vt 0.578947 0.894737
vt 0.578947 0.947368
vt 0.684211 0.947368
vt 0.684211 0.894737
vt 0.947368 0.263158
vt 0.947368 0.315789
vt 1.000000 0.315789
vt 1.000000 0.263158
vt 0.578947 1.000000
vt 0.894737 0.947368
vt 0.894737 1.000000
vt 0.947368 1.000000
vt 0.947368 0.947368
vt 0.473684 0.947368
vt 0.684210 0.842105
vt 0.578947 0.842105
vt 0.578947 0.789474
vt 0.684210 0.789474
vt 0.684210 0.421053
vt 0.684210 0.210526
vt 0.736842 0.210526
vt 0.736842 0.421053
vt 0.894737 0.473684
vt 0.894737 0.526316
vt 0.736842 0.526316
vt 0.736842 0.473684
vt 0.473684 0.526316
vt 0.368421 0.736842
vt 0.368421 0.526316
vt 0.894737 0.894737
vt 0.789474 0.894737
vt 0.789474 0.842105
vt 0.894737 0.842105
vt 0.736842 0.210526
vt 0.684210 0.210526
vt 0.684210 0.000000
vt 0.736842 0.000000
vt 0.842105 0.000000
vt 0.947368 0.000000
vt 0.947368 0.210526
vt 0.947368 0.263158
vt 1.000000 0.263158
vt 1.000000 0.210526
vt 1.000000 0.315789
vt 1.000000 0.368421
vt 0.947368 0.368421
vt 0.947368 0.315789
vt 0.842105 0.736842
vt 0.842105 0.789474
vt 0.684210 0.789474
vt 0.947368 0.842105
vt 0.842105 0.842105
vt 0.947368 0.789474
vt 0.789474 0.947368
vt 0.684211 0.947368
vt 0.684211 0.894737
vt 0.947368 0.684210
vt 0.947368 0.736842
vt 1.000000 0.736842
vt 1.000000 0.684210
vt 0.789474 0.157895
vt 0.736842 0.157895
vt 1.000000 0.368421
vt 1.000000 0.421053
vt 0.947368 0.421053
vt 0.947368 0.368421
vt 0.894737 0.368421
vt 0.736842 0.368421
vt 0.736842 0.315790
vt 0.894737 0.315789
vt 0.947368 0.947368
vt 0.947368 1.000000
vt 1.000000 1.000000
vt 1.000000 0.947368
vt 0.947368 0.315789
vt 0.842105 0.315789
vt 0.157895 0.842105
vt 0.368421 0.842105
vt 0.842105 0.526316
vt 0.842105 0.578947
vt 0.947368 0.526316
vt 0.736842 0.421053
vt 0.736842 0.368421
vt 0.894737 0.368421
vt 0.894737 0.421053
vt 1.000000 0.789474
vt 1.000000 0.842105
vt 0.157895 0.947368
vt -0.000000 0.947368
vt -0.000000 0.894737
vt 0.157895 0.894737
vt 0.210526 1.000000
vt 0.263158 1.000000
vt 0.263158 0.947368
vt 0.894737 0.894737
vt 0.894737 0.947368
vt 0.789474 0.947368
vt 1.000000 0.894737
vt 1.000000 0.947368
vt 0.947368 0.947368
vt 0.947368 0.894737
vt 0.631579 0.578947
vt 0.684210 0.842105
vt 0.842105 0.315789
vt 0.789474 0.315789
vt 0.789474 0.157895
vt 0.842105 0.157895
vt 0.157895 0.894737
vt 0.157895 0.947368
vt 0.947368 0.210526
vt 0.947368 0.263158
vt 0.894737 0.210526
vt 0.894737 0.421053
vt 0.368421 0.842105
vt 0.368421 0.789474
vt 0.578947 0.789474
vt 0.578947 0.842105
vt 0.947368 0.473684
vt 0.947368 0.526316
vt 0.894737 0.526316
vt 0.684211 1.000000
vt 0.736842 1.000000
vt 0.736842 0.947368
vt 0.157895 0.526316
vt 0.157895 0.578947
vt 0.210526 0.578947
vt 0.210526 0.631579
vt 0.315789 0.631579
vt 0.315789 0.578947
vt 0.368421 0.578947
vt 0.368421 0.526316
vt 0.631579 1.000000
vt 0.631579 0.947368
vt 0.947368 0.578947
vt 0.947368 0.631579
vt 0.894737 0.631579
vt 0.894737 0.578947
vt 0.526316 0.631579
vt 0.473684 0.631579
vt 0.473684 0.578947
vt 0.684210 0.578947
vt 0.684210 0.631579
vt 0.631579 0.631579
vt 0.631579 0.684210
vt 0.526316 0.684210
vt 0.894737 0.684210
vt 0.947368 0.684210
vt 0.000000 0.789474
vt 0.000000 0.736842
vt 0.157895 0.736842
vt 0.157895 0.789474
vt 0.736842 0.315789
vt 0.736842 0.157895
vt 0.947369 0.894737
vt 0.947369 0.842105
vt 0.947369 0.947368
vt 0.894737 0.947368
vt 0.789474 1.000000
vt 0.736842 0.947368
vt 0.789474 0.947368
vt 0.842105 0.947368
vt 0.263158 1.000000
vt 0.315790 1.000000
vt 0.315790 0.947368
vt 1.000000 0.210526
vt 0.894737 0.210526
vt 0.894737 0.157895
vt 1.000000 0.157895
vt 1.000000 0.473684
vt 0.947368 0.473684
vt 0.631579 0.894737
vt 0.631579 0.842105
vt 0.842105 0.684210
vt 0.894737 0.578947
vt 0.894737 0.684210
vt 0.947368 0.684210
vt 0.947368 0.736842
vt 0.842105 0.736842
vt 0.842105 0.684210
vt 0.157895 0.842105
vt 0.157895 0.789474
vt 0.000000 0.789474
vt 0.000000 0.842105
vt 1.000000 0.421053
vt 1.000000 0.473684
vt 0.947368 0.421053
vt 0.157895 0.894737
vt 0.315789 0.894737
vt 0.315789 0.842105
vt 0.157895 0.842105
vt 0.842105 0.631579
vt 0.684210 0.578947
vt 0.842105 0.578947
s 0
usemtl Material
f 10/1/1 135/2/1 134/3/1 9/4/1
f 124/5/2 125/6/2 53/7/2 108/8/2 111/9/2 54/10/2 127/11/2 126/12/2
f 1/13/3 20/14/3 131/15/3 136/16/3
f 17/17/4 4/18/4 3/19/4 2/20/4
f 5/21/1 6/22/1 8/23/1 7/24/1
f 35/25/3 44/26/3 45/27/3 34/28/3
f 7/29/2 8/30/2 10/31/2 9/32/2
f 4/33/2 138/34/2 137/35/2 8/36/2
f 13/37/4 14/38/4 20/39/4 12/40/4
f 15/17/2 16/18/2 4/41/2 17/42/2
f 86/43/3 142/44/3 141/45/3 85/46/3
f 1/47/4 138/48/4 4/49/4 20/50/4
f 12/51/3 20/52/3 19/53/3 18/54/3
f 20/55/5 4/56/5 16/57/5 19/58/5
f 22/59/3 23/60/3 34/61/3 21/62/3
f 40/63/5 44/64/5 35/65/5 48/66/5
f 24/22/2 25/67/2 27/68/2 26/69/2
f 21/70/1 34/71/1 29/72/1 28/73/1
f 107/74/2 66/75/2 78/76/2 106/77/2
f 30/73/1 31/72/1 25/78/1 24/79/1
f 136/80/5 137/81/5 138/82/5 1/83/5
f 38/84/4 39/85/4 33/86/4 32/87/4
f 45/88/5 47/89/5 29/90/5 34/91/5
f 45/92/5 39/88/5 37/93/5 42/94/5
f 36/95/2 37/96/2 39/97/2 38/98/2
f 95/99/2 100/100/2 99/101/2 94/102/2
f 43/103/3 45/104/3 42/105/3 41/106/3
f 46/107/4 47/108/4 45/78/4 43/79/4
f 32/109/2 33/110/2 31/111/2 30/112/2
f 49/113/3 123/114/3 122/115/3 129/33/3 130/34/3 55/116/3 112/117/3 113/118/3
f 117/119/5 116/120/5 115/121/5 111/122/5 108/123/5 110/124/5 120/125/5 118/126/5 119/127/5 113/128/5 112/129/5 52/130/5
f 98/131/5 93/132/5 139/133/5 84/134/5
f 95/135/5 92/136/5 97/137/5 100/138/5
f 10/139/5 8/140/5 131/141/5 135/142/5
f 60/143/4 61/144/4 59/145/4 58/146/4
f 66/147/1 107/148/1 73/149/1 63/150/1
f 64/151/3 65/152/3 63/108/3 74/107/3
f 26/153/1 27/154/1 23/155/1 22/156/1
f 75/157/2 66/158/2 68/159/2 67/160/2
f 74/51/1 63/52/1 70/161/1 69/154/1
f 71/162/1 72/163/1 66/164/1 75/165/1
f 67/2/1 68/166/1 65/154/1 64/153/1
f 65/167/5 68/168/5 66/169/5 63/170/5
f 72/171/5 105/172/5 78/173/5 66/174/5
f 132/175/3 133/176/3 14/177/3 13/178/3
f 81/179/5 73/150/5 107/180/5 106/181/5
f 59/182/5 78/183/5 77/184/5 80/185/5
f 70/186/5 63/187/5 59/188/5 61/189/5
f 81/28/4 106/27/4 78/190/4 59/191/4
f 76/192/2 77/193/2 78/194/2 62/195/2
f 58/196/3 59/197/3 80/198/3 79/199/3
f 87/200/3 84/201/3 139/202/3 140/34/3
f 80/203/4 77/204/4 76/201/4 79/205/4
f 29/206/3 47/207/3 46/208/3 28/55/3
f 83/209/1 87/210/1 86/211/1 85/212/1
f 140/189/5 142/135/5 86/213/5 87/214/5
f 88/215/3 89/216/3 87/217/3 83/218/3
f 89/219/5 103/220/5 97/221/5 87/222/5
f 90/223/2 91/224/2 92/225/2 96/226/2
f 48/227/2 25/193/2 39/91/2 40/228/2
f 81/229/3 59/77/3 63/74/3 73/230/3
f 25/231/1 48/232/1 35/61/1 34/233/1
f 91/234/4 90/235/4 143/236/4 144/237/4
f 96/238/4 92/239/4 95/203/4 94/205/4
f 19/240/4 16/241/4 15/242/4 18/243/4
f 99/210/1 100/205/1 97/238/1 101/211/1
f 101/151/2 97/244/2 103/245/2 102/246/2
f 41/247/4 42/248/4 37/249/4 36/183/4
f 62/250/4 78/251/4 105/252/4 104/253/4
f 105/254/2 72/232/2 71/231/2 104/66/2
f 98/204/2 97/201/2 92/202/2 93/255/2
f 8/256/5 6/257/5 3/258/5 4/259/5
f 102/260/1 103/261/1 89/99/1 88/102/1
f 109/262/4 110/263/4 108/90/4 53/264/4
f 54/219/1 111/265/1 115/217/1 114/198/1
f 128/222/1 52/219/1 112/198/1 55/158/1
f 61/266/3 60/267/3 69/268/3 70/269/3
f 49/270/4 113/271/4 119/272/4 121/43/4
f 114/155/2 115/273/2 116/274/2 56/275/2
f 126/276/1 127/277/1 56/278/1 116/279/1 117/280/1 57/281/1 130/282/1 129/283/1
f 57/155/3 117/273/3 52/284/3 128/285/3
f 121/286/3 119/287/3 118/288/3 50/289/3
f 51/290/4 125/291/4 124/292/4 122/293/4 123/294/4 50/295/4 118/296/4 120/297/4
f 51/288/2 120/298/2 110/299/2 109/287/2
f 92/300/5 91/301/5 144/302/5 140/303/5
f 131/304/5 20/305/5 14/258/5 133/257/5
f 49/306/5 121/182/5 50/185/5 123/307/5
f 109/308/5 53/309/5 125/182/5 51/306/5
f 56/310/5 127/274/5 54/311/5 114/312/5
f 130/30/5 57/310/5 128/312/5 55/313/5
f 11/246/1 131/314/1 133/315/1 132/316/1
f 23/317/5 27/318/5 25/319/5 34/320/5
f 134/321/3 135/59/3 131/62/3 11/322/3
f 3/2/2 6/323/2 5/324/2 2/3/2
f 31/325/5 33/232/5 39/326/5 25/327/5
f 45/328/4 44/329/4 40/330/4 39/331/4
f 136/332/1 131/333/1 8/334/1 137/335/1
f 141/336/4 142/337/4 140/270/4 82/338/4
f 98/339/1 84/340/1 87/341/1 97/342/1
f 82/20/3 140/19/3 144/315/3 143/316/3
f 139/343/4 93/294/4 92/344/4 140/345/4
