# Blender 4.2.3 LTS
# www.blender.org
mtllib Roca4.mtl
o Cube.133
v 0.050000 0.000000 0.150000
v 0.050000 0.000000 0.050000
v -0.750000 0.200000 0.050000
v -0.750000 0.300000 0.050000
v 0.050000 0.300000 0.050000
v 0.050000 0.200000 -0.650000
v 0.050000 0.300000 -0.650000
v -0.750000 0.200000 -0.650000
v -0.750000 0.300000 -0.650000
v 0.050000 0.200000 -0.750000
v -0.750000 0.200000 -0.750000
v -0.750000 0.200000 0.150000
v 0.050000 0.200000 0.150000
v 0.050000 0.200000 0.050000
v -0.750000 0.000000 0.150000
v -0.750000 0.000000 -0.650000
v -0.750000 0.000000 -0.750000
v 0.050000 0.000000 -0.750000
v 0.050000 0.000000 -0.650000
v -0.750000 0.000000 0.050000
v -0.850000 0.000000 0.050000
v -0.850000 0.000000 -0.650000
v -0.850000 0.200000 -0.650000
v -0.850000 0.200000 0.050000
v 0.150000 0.000000 0.050000
v 0.150000 0.000000 -0.650000
v 0.150000 0.200000 -0.650000
v 0.150000 0.200000 0.050000
v 0.450000 0.000000 0.550000
v 0.350000 0.000000 0.750000
v 0.350000 0.100000 0.750000
v 0.450000 0.100000 0.750000
v 0.350000 0.000000 0.550000
v 0.350000 0.100000 0.550000
v 0.650000 0.000000 0.550000
v 0.650000 0.000000 0.750000
v 0.750000 0.000000 0.750000
v 0.750000 0.100000 0.750000
v 0.650000 0.100000 0.550000
v 0.750000 0.000000 0.550000
v 0.750000 0.100000 0.550000
v 0.650000 0.000000 0.450000
v 0.650000 0.100000 0.450000
v 0.450000 0.100000 0.550000
v 0.450000 0.000000 0.450000
v 0.450000 0.100000 0.450000
v 0.450000 0.000000 0.850000
v 0.450000 0.100000 0.850000
v 0.450000 0.000000 0.750000
v 0.650000 0.000000 0.850000
v 0.650000 0.100000 0.850000
v 0.650000 0.100000 0.750000
v 0.650000 0.200000 0.750000
v 0.650000 0.200000 0.550000
v 0.450000 0.200000 0.750000
v 0.450000 0.200000 0.550000
vn -0.0000 -0.0000 -1.0000
vn -1.0000 -0.0000 -0.0000
vn -0.0000 1.0000 -0.0000
vn 1.0000 -0.0000 -0.0000
vn -0.0000 -0.0000 1.0000
vt 0.750000 0.437500
vt 0.812500 0.437500
vt 0.812500 0.312500
vt 0.750000 0.312500
vt 0.500000 0.187500
vt 0.937500 0.187500
vt 0.937500 0.125000
vt 0.500000 0.125000
vt 0.000000 0.437500
vt 0.000000 0.000000
vt 0.500000 0.000000
vt 0.500000 0.437500
vt 0.875000 0.187500
vt 0.875000 0.312500
vt 0.812500 0.312500
vt 0.812500 0.187500
vt 0.875000 0.437500
vt 0.875000 0.312500
vt 0.875000 0.437500
vt 0.875000 0.562500
vt 0.812500 0.562500
vt 0.812500 0.437500
vt 0.562500 0.187500
vt 0.562500 0.625000
vt 0.500000 0.625000
vt 0.875000 0.625000
vt 0.750000 0.625000
vt 0.750000 0.562500
vt 0.875000 0.562500
vt 0.500000 0.875000
vt 0.000000 0.875000
vt 0.000000 0.812500
vt 0.500000 0.812500
vt 0.625000 0.312500
vt 0.625000 0.375000
vt 0.750000 0.375000
vt 0.750000 0.312500
vt 0.562500 0.812500
vt 0.562500 0.875000
vt 0.687500 0.875000
vt 0.687500 0.812500
vt 0.812500 0.812500
vt 0.812500 0.875000
vt 0.687500 0.937500
vt 0.562500 0.937500
vt 0.000000 0.562500
vt 0.000000 0.437500
vt 0.500000 0.437500
vt 0.500000 0.562500
vt 0.625000 0.437500
vt 0.937500 0.312500
vt 0.937500 0.187500
vt 0.000000 0.937500
vt 0.500000 0.937500
vt 0.937500 0.312500
vt 0.937500 0.437500
vt 0.000000 0.687500
vt 0.500000 0.687500
vt 1.000000 0.062500
vt 0.500000 0.062500
vt 1.000000 0.000000
vt 0.937500 0.562500
vt 0.937500 0.437500
vt 1.000000 0.125000
vt 0.625000 0.562500
vt 0.687500 0.437500
vt 0.687500 0.562500
vt 0.437500 0.812500
vt 0.437500 0.687500
vt 0.625000 0.187500
vt 0.625000 0.625000
vt 0.875000 0.687500
vt 0.875000 0.812500
vt 0.750000 0.187500
vt 0.875000 0.812500
vt 0.875000 0.875000
vt 0.937500 0.625000
vt 0.937500 0.562500
vt 0.937500 0.687500
vt 0.937500 0.750000
vt 0.875000 0.750000
vt 0.937500 0.812500
vt 0.937500 0.812500
vt 0.937500 0.875000
vt 0.812500 0.937500
vt 0.875000 0.937500
vt 0.875000 0.875000
vt 0.875000 0.937500
vt 0.937500 0.937500
vt 0.937500 0.875000
vt 0.687500 0.500000
vt 0.812500 0.500000
vt 0.062500 0.937500
vt 0.062500 1.000000
vt 0.000000 1.000000
vt 0.812500 0.187500
vt 0.937500 0.687500
vt 0.812500 0.562500
s 0
usemtl Material.001
f 6/1/1 27/2/1 26/3/1 19/4/1
f 4/5/2 9/6/2 8/7/2 3/8/2
f 9/9/3 4/10/3 5/11/3 7/12/3
f 2/13/4 14/14/4 13/15/4 1/16/4
f 3/17/5 24/2/5 21/3/5 20/18/5
f 18/19/4 10/20/4 6/21/4 19/22/4
f 14/5/3 28/23/3 27/24/3 6/25/3
f 52/26/3 32/27/3 48/28/3 51/29/3
f 10/30/3 11/31/3 8/32/3 6/33/3
f 30/34/2 31/35/2 34/36/2 33/37/2
f 44/38/1 56/39/1 54/40/1 39/41/1
f 55/40/5 32/41/5 52/42/5 53/43/5
f 39/40/4 54/44/4 53/45/4 52/39/4
f 12/46/5 15/47/5 1/48/5 13/49/5
f 51/1/5 48/50/5 47/35/5 50/36/5
f 15/13/2 12/14/2 3/51/2 20/52/2
f 3/53/3 12/31/3 13/30/3 14/54/3
f 25/55/5 28/56/5 14/17/5 2/18/5
f 17/46/1 11/57/1 10/58/1 18/49/1
f 5/59/5 4/60/5 3/11/5 14/61/5
f 16/19/2 8/20/2 11/62/2 17/63/2
f 9/8/1 7/64/1 6/59/1 8/60/1
f 39/65/3 52/50/3 38/66/3 41/67/3
f 22/33/1 23/54/1 8/45/1 16/38/1
f 24/32/2 23/68/2 22/69/2 21/57/2
f 24/23/3 3/70/3 8/71/3 23/24/3
f 40/28/4 41/27/4 38/71/4 37/65/4
f 28/68/4 25/69/4 26/72/4 27/73/4
f 54/37/3 56/34/3 55/70/3 53/74/3
f 49/75/5 32/76/5 31/43/5 30/42/5
f 33/29/1 34/26/1 44/77/1 29/78/1
f 37/79/5 38/80/5 52/81/5 36/72/5
f 35/81/1 39/73/1 41/82/1 40/80/1
f 42/83/4 43/84/4 39/76/4 35/75/4
f 29/43/2 44/85/2 46/86/2 45/76/2
f 47/87/2 48/88/2 32/89/2 49/90/2
f 45/66/1 46/91/1 43/92/1 42/2/1
f 36/93/4 52/94/4 51/95/4 50/53/4
f 44/15/3 34/37/3 31/74/3 32/96/3
f 7/97/4 5/58/4 14/25/4 6/77/4
f 43/98/3 46/67/3 44/91/3 39/92/3
f 55/44/2 56/85/2 44/43/2 32/40/2
