# Blender 4.2.3 LTS
# www.blender.org
mtllib Roca1.mtl
o Cube.181
v -0.750000 0.000000 -0.450000
v -0.750000 0.000000 0.150000
v -0.750000 0.600000 -0.350000
v -0.750000 0.600000 0.150000
v -0.650000 0.500000 0.150000
v -0.750000 0.500000 -0.350000
v -0.750000 0.500000 -0.450000
v -0.650000 0.500000 -0.350000
v -0.750000 0.600000 0.050000
v -0.750000 0.700000 0.050000
v -0.650000 0.600000 0.050000
v -0.750000 0.600000 -0.250000
v -0.750000 0.700000 -0.250000
v -0.650000 0.600000 -0.250000
v -0.650000 0.700000 -0.250000
v -0.650000 0.400000 -0.550000
v -0.650000 0.600000 -0.350000
v -0.650000 0.000000 -0.450000
v -0.650000 0.500000 -0.450000
v -0.650000 0.600000 -0.550000
v -0.650000 0.000000 -0.650000
v -0.650000 0.400000 -0.650000
v -0.650000 0.700000 -0.050000
v -0.650000 0.600000 0.150000
v -0.650000 0.700000 0.150000
v -0.650000 0.700000 0.050000
v -0.650000 0.500000 0.250000
v -0.550000 0.500000 0.250000
v -0.650000 0.000000 0.250000
v -0.650000 0.000000 0.150000
v -0.550000 0.400000 -0.650000
v -0.450000 0.400000 -0.650000
v -0.550000 0.600000 -0.550000
v -0.550000 0.600000 -0.650000
v -0.550000 0.400000 -0.550000
v -0.550000 0.600000 -0.350000
v -0.550000 0.800000 -0.450000
v -0.450000 0.800000 -0.450000
v -0.450000 0.900000 -0.450000
v -0.650000 1.100000 -0.350000
v -0.650000 1.100000 -0.050000
v -0.550000 1.200000 -0.050000
v -0.450000 1.100000 -0.050000
v -0.350000 0.400000 -0.650000
v -0.350000 0.500000 -0.650000
v -0.350000 0.500000 -0.750000
v -0.350000 0.400000 -0.750000
v -0.450000 0.400000 -0.750000
v -0.450000 0.000000 -0.650000
v -0.450000 0.000000 -0.750000
v -0.150000 0.400000 -0.650000
v -0.150000 0.400000 -0.750000
v -0.150000 0.500000 -0.750000
v -0.050000 0.000000 -0.750000
v -0.050000 0.600000 -0.550000
v -0.050000 0.600000 -0.650000
v -0.150000 0.500000 -0.650000
v -0.050000 0.400000 -0.650000
v -0.150000 0.600000 -0.550000
v -0.150000 0.700000 -0.550000
v -0.150000 0.600000 -0.650000
v -0.150000 0.700000 -0.650000
v -0.450000 0.600000 -0.550000
v -0.450000 0.600000 -0.650000
v -0.450000 0.700000 -0.650000
v -0.050000 0.200000 -0.550000
v -0.050000 0.000000 -0.550000
v -0.450000 0.700000 -0.550000
v 0.050000 0.800000 -0.450000
v -0.150000 0.800000 -0.450000
v -0.150000 0.900000 -0.450000
v -0.150000 1.100000 -0.350000
v -0.150000 1.100000 -0.450000
v -0.050000 1.100000 -0.350000
v -0.050000 1.100000 -0.450000
v -0.150000 1.200000 -0.350000
v -0.150000 1.200000 -0.450000
v 0.050000 0.000000 -0.550000
v 0.050000 0.200000 -0.550000
v 0.050000 0.200000 -0.450000
v 0.050000 0.000000 -0.450000
v 0.150000 0.000000 -0.450000
v 0.050000 0.400000 -0.350000
v 0.150000 0.400000 -0.350000
v 0.150000 0.400000 -0.450000
v -0.050000 0.200000 -0.450000
v 0.050000 0.400000 -0.450000
v 0.150000 0.400000 0.050000
v 0.050000 0.000000 0.050000
v 0.150000 0.000000 0.050000
v 0.050000 0.400000 -0.050000
v 0.050000 0.500000 -0.050000
v 0.150000 0.400000 -0.050000
v 0.150000 0.500000 -0.050000
v 0.150000 0.500000 -0.350000
v 0.050000 0.500000 -0.350000
v -0.050000 0.400000 0.050000
v -0.050000 0.800000 -0.350000
v -0.050000 0.900000 -0.350000
v 0.050000 0.800000 -0.350000
v 0.050000 0.900000 -0.350000
v 0.050000 0.000000 0.150000
v 0.050000 0.400000 0.150000
v 0.050000 0.400000 0.050000
v -0.150000 0.200000 0.250000
v -0.050000 0.000000 0.250000
v -0.150000 0.500000 0.150000
v -0.050000 0.400000 0.150000
v -0.050000 0.500000 0.150000
v -0.050000 0.800000 0.050000
v -0.150000 0.500000 0.250000
v -0.050000 0.500000 0.250000
v -0.050000 0.800000 -0.050000
v 0.050000 0.800000 0.050000
v 0.050000 0.800000 -0.050000
v 0.050000 0.900000 -0.050000
v -0.050000 0.900000 -0.050000
v -0.050000 1.100000 -0.050000
v -0.050000 1.000000 0.050000
v -0.050000 1.100000 0.050000
v -0.050000 1.200000 -0.050000
v -0.050000 1.200000 -0.350000
v -0.450000 0.000000 0.250000
v -0.450000 0.200000 0.250000
v -0.150000 0.600000 0.250000
v -0.550000 0.600000 0.250000
v -0.550000 0.500000 0.150000
v -0.550000 0.600000 0.150000
v -0.550000 0.700000 0.150000
v -0.150000 0.600000 0.150000
v -0.150000 1.000000 0.150000
v -0.150000 1.100000 0.150000
v -0.150000 1.000000 0.050000
v -0.450000 1.200000 0.050000
v -0.450000 1.200000 -0.050000
v -0.150000 1.100000 0.050000
v -0.150000 1.200000 0.050000
v -0.150000 1.100000 -0.050000
v -0.150000 1.200000 -0.050000
v -0.150000 0.200000 0.750000
v -0.150000 0.000000 0.750000
v -0.450000 0.200000 0.750000
v -0.450000 0.000000 0.750000
v -0.550000 0.200000 0.350000
v -0.450000 0.200000 0.350000
v -0.550000 0.000000 0.350000
v -0.450000 0.000000 0.350000
v -0.550000 0.200000 0.650000
v -0.450000 0.200000 0.650000
v -0.550000 0.000000 0.650000
v -0.450000 0.000000 0.650000
v -0.050000 0.000000 0.650000
v -0.050000 0.200000 0.650000
v -0.150000 0.000000 0.350000
v -0.050000 0.000000 0.350000
v -0.050000 0.200000 0.350000
v -0.450000 0.300000 0.650000
v -0.450000 0.300000 0.350000
v -0.150000 0.200000 0.650000
v -0.150000 0.300000 0.650000
v -0.150000 0.200000 0.350000
v -0.150000 0.300000 0.350000
v -0.150000 0.000000 0.250000
v -0.050000 0.000000 0.150000
v -0.150000 0.000000 0.650000
v -0.550000 1.200000 -0.350000
v -0.450000 1.200000 -0.350000
v -0.450000 1.200000 -0.450000
v -0.550000 1.100000 -0.350000
v -0.550000 1.100000 -0.450000
v -0.450000 1.100000 -0.350000
v -0.450000 1.100000 -0.450000
v -0.450000 1.100000 0.150000
v -0.450000 1.000000 0.050000
v -0.550000 1.000000 0.050000
v -0.550000 1.100000 0.050000
v -0.550000 1.100000 -0.050000
v -0.450000 1.100000 0.050000
v -0.550000 1.000000 0.150000
v -0.450000 1.000000 0.150000
v -0.050000 1.000000 0.150000
v -0.150000 0.900000 -0.550000
v -0.150000 0.800000 -0.550000
v -0.050000 0.800000 -0.450000
v -0.050000 0.800000 -0.550000
v -0.450000 0.900000 -0.550000
v -0.550000 0.800000 -0.550000
v -0.450000 0.800000 -0.550000
v -0.550000 0.700000 -0.050000
v -0.050000 0.400000 -0.750000
v 0.750000 0.000000 0.250000
v 0.750000 0.000000 -0.050000
v 0.750000 0.200000 -0.050000
v 0.750000 0.300000 -0.050000
v 0.750000 0.200000 0.250000
v 0.750000 0.300000 0.250000
v 0.450000 0.200000 -0.050000
v 0.450000 0.300000 -0.050000
v 0.450000 0.200000 0.250000
v 0.450000 0.300000 0.250000
v 0.850000 0.200000 -0.050000
v 0.850000 0.000000 -0.050000
v 0.850000 0.200000 0.250000
v 0.850000 0.000000 0.250000
v 0.350000 0.000000 0.250000
v 0.450000 0.000000 0.250000
v 0.350000 0.200000 0.250000
v 0.350000 0.000000 -0.050000
v 0.450000 0.000000 -0.050000
v 0.350000 0.200000 -0.050000
v 0.450000 0.000000 0.350000
v 0.450000 0.200000 0.350000
v 0.750000 0.000000 0.350000
v 0.750000 0.200000 0.350000
v 0.750000 0.200000 -0.150000
v 0.750000 0.000000 -0.150000
v 0.450000 0.200000 -0.150000
v 0.450000 0.000000 -0.150000
v 0.650000 0.200000 -0.550000
v 0.650000 0.000000 -0.550000
v 0.450000 0.000000 -0.550000
v 0.450000 0.200000 -0.550000
v 0.450000 0.200000 -0.750000
v 0.450000 0.000000 -0.750000
v 0.650000 0.000000 -0.750000
v 0.650000 0.200000 -0.750000
vn -0.0000 1.0000 -0.0000
vn 1.0000 -0.0000 -0.0000
vn -1.0000 -0.0000 -0.0000
vn -0.0000 -0.0000 -1.0000
vn -0.0000 -0.0000 1.0000
vt 0.093750 0.937500
vt 0.000000 0.937500
vt 0.000000 0.906250
vt 0.093750 0.906250
vt 0.218750 0.656250
vt 0.218750 0.718750
vt 0.187500 0.718750
vt 0.187500 0.531250
vt 0.218750 0.531250
vt 0.218750 0.468750
vt 0.281250 0.468750
vt 0.281250 0.593750
vt 0.250000 0.593750
vt 0.250000 0.656250
vt 0.906250 0.375000
vt 0.906250 0.437500
vt 0.937500 0.437500
vt 0.937500 0.375000
vt 0.437500 0.375000
vt 0.437500 0.531250
vt 0.468750 0.531250
vt 0.468750 0.375000
vt 0.406250 0.531250
vt 0.406250 0.562500
vt 0.437500 0.562500
vt 0.906250 0.250000
vt 0.906250 0.312500
vt 0.875000 0.312500
vt 0.875000 0.250000
vt 0.437500 0.500000
vt 0.468750 0.500000
vt 0.406250 0.593750
vt 0.375000 0.593750
vt 0.375000 0.562500
vt 0.750000 0.656250
vt 0.750000 0.843750
vt 0.781250 0.843750
vt 0.781250 0.718750
vt 0.812500 0.718750
vt 0.812500 0.593750
vt 0.781250 0.593750
vt 0.781250 0.656250
vt 0.468750 0.875000
vt 0.468750 0.781250
vt 0.500000 0.781250
vt 0.500000 0.750000
vt 0.531250 0.750000
vt 0.531250 0.812500
vt 0.500000 0.812500
vt 0.500000 0.875000
vt 0.625000 0.750000
vt 0.625000 0.812500
vt 0.750000 0.125000
vt 0.718750 0.125000
vt 0.718750 0.093750
vt 0.750000 0.093750
vt 0.406250 0.500000
vt 0.312500 0.531250
vt 0.312500 0.500000
vt 0.281250 0.500000
vt 0.281250 0.375000
vt 0.500000 0.750000
vt 0.500000 0.781250
vt 0.531250 0.781250
vt 0.531250 0.750000
vt 0.250000 0.718750
vt 0.250000 0.875000
vt 0.281250 0.875000
vt 0.281250 0.718750
vt 0.125000 0.656250
vt 0.093750 0.656250
vt 0.093750 0.625000
vt 0.125000 0.625000
vt 0.625000 0.593750
vt 0.531250 0.593750
vt 0.531250 0.562500
vt 0.625000 0.562500
vt 0.531250 0.375000
vt 0.468750 0.375000
vt 0.468750 0.500000
vt 0.500000 0.500000
vt 0.500000 0.562500
vt 0.531250 0.562500
vt 0.531250 0.593750
vt 0.625000 0.593750
vt 0.625000 0.562500
vt 0.656250 0.562500
vt 0.656250 0.500000
vt 0.625000 0.500000
vt 0.625000 0.531250
vt 0.562500 0.531250
vt 0.562500 0.500000
vt 0.531250 0.500000
vt 0.500000 0.562500
vt 0.500000 0.531250
vt 0.531250 0.531250
vt 0.406250 0.906250
vt 0.343750 0.906250
vt 0.343750 0.843750
vt 0.406250 0.843750
vt 0.562500 0.750000
vt 0.562500 0.718750
vt 0.468750 0.718750
vt 0.468750 0.750000
vt 0.906250 0.500000
vt 0.937500 0.500000
vt 0.812500 0.156250
vt 0.750000 0.156250
vt 0.812500 0.125000
vt 0.812500 0.468750
vt 0.843750 0.468750
vt 0.843750 0.500000
vt 0.875000 0.500000
vt 0.875000 0.375000
vt 0.812500 0.375000
vt 0.875000 0.468750
vt 0.875000 0.375000
vt 0.906250 0.375000
vt 0.906250 0.468750
vt 0.562500 0.562500
vt 0.562500 0.593750
vt 0.937500 0.562500
vt 0.906250 0.562500
vt 0.906250 0.500000
vt 0.781250 0.125000
vt 0.781250 0.156250
vt 0.875000 0.562500
vt 0.875000 0.468750
vt 0.906250 0.468750
vt 0.718750 0.000000
vt 0.718750 0.125000
vt 0.750000 0.125000
vt 0.750000 0.156250
vt 0.812500 0.156250
vt 0.812500 0.125000
vt 0.843750 0.125000
vt 0.843750 0.000000
vt 0.468750 0.593750
vt 0.437500 0.718750
vt 0.437500 0.593750
vt 0.843750 0.125000
vt 0.812500 0.093750
vt 0.843750 0.093750
vt 0.656250 0.562500
vt 0.625000 0.531250
vt 0.656250 0.531250
vt 0.593750 0.562500
vt 0.593750 0.593750
vt 0.906250 0.562500
vt 0.906250 0.625000
vt 0.937500 0.625000
vt 0.937500 0.562500
vt 0.593750 0.718750
vt 0.562500 0.687500
vt 0.593750 0.687500
vt 0.468750 0.656250
vt 0.468750 0.625000
vt 0.437500 0.625000
vt 0.593750 0.625000
vt 0.562500 0.625000
vt 0.562500 0.656250
vt 0.500000 0.343750
vt 0.468750 0.343750
vt 0.468750 0.312500
vt 0.500000 0.312500
vt 0.500000 0.718750
vt 0.781250 0.031250
vt 0.750000 0.031250
vt 0.750000 0.000000
vt 0.781250 0.000000
vt 0.812500 0.718750
vt 0.781250 0.718750
vt 0.781250 0.687500
vt 0.812500 0.687500
vt 0.000000 0.812500
vt 0.000000 0.875000
vt 0.093750 0.875000
vt 0.093750 0.812500
vt 0.937500 0.625000
vt 0.937500 0.687500
vt 0.906250 0.687500
vt 0.906250 0.625000
vt 0.281250 0.468750
vt 0.312500 0.468750
vt 0.281250 0.937500
vt 0.187500 0.937500
vt 0.187500 0.906250
vt 0.281250 0.906250
vt 0.906250 0.687500
vt 0.906250 0.750000
vt 0.937500 0.750000
vt 0.937500 0.687500
vt 0.343750 0.500000
vt 0.343750 0.531250
vt 0.375000 0.500000
vt 0.375000 0.531250
vt 0.218750 0.875000
vt 0.187500 0.875000
vt 0.187500 0.750000
vt 0.218750 0.750000
vt 0.531250 0.718750
vt 0.562500 0.718750
vt 0.562500 0.750000
vt 0.468750 0.750000
vt 0.468750 0.718750
vt 0.437500 0.718750
vt 0.437500 0.593750
vt 0.468750 0.593750
vt 0.468750 0.625000
vt 0.562500 0.625000
vt 0.562500 0.593750
vt 0.593750 0.593750
vt 0.593750 0.718750
vt 0.187500 0.625000
vt 0.156250 0.625000
vt 0.156250 0.593750
vt 0.187500 0.593750
vt 0.437500 0.687500
vt 0.468750 0.687500
vt 0.750000 0.281250
vt 0.750000 0.343750
vt 0.781250 0.343750
vt 0.781250 0.281250
vt 0.343750 0.281250
vt 0.343750 0.312500
vt 0.312500 0.312500
vt 0.312500 0.281250
vt 0.375000 0.343750
vt 0.343750 0.343750
vt 0.375000 0.312500
vt 0.687500 0.312500
vt 0.687500 0.343750
vt 0.656250 0.343750
vt 0.656250 0.312500
vt 0.812500 0.812500
vt 0.812500 0.875000
vt 0.875000 0.875000
vt 0.875000 0.812500
vt 0.281250 0.906250
vt 0.187500 0.875000
vt 0.281250 0.875000
vt 0.718750 0.875000
vt 0.718750 0.812500
vt 0.625000 0.875000
vt 0.156250 0.656250
vt 0.968750 0.250000
vt 0.968750 0.312500
vt 0.937500 0.312500
vt 0.937500 0.250000
vt 0.000000 0.468750
vt 0.000000 0.625000
vt 0.031250 0.625000
vt 0.031250 0.468750
vt 0.031250 0.656250
vt 0.062500 0.656250
vt 0.062500 0.625000
vt 0.187500 0.468750
vt 0.187500 0.625000
vt 0.156250 0.625000
vt 0.156250 0.656250
vt 0.031250 0.656250
vt 0.031250 0.625000
vt 0.000000 0.625000
vt 0.000000 0.468750
vt 0.062500 0.468750
vt 0.062500 0.531250
vt 0.156250 0.531250
vt 0.156250 0.468750
vt 0.531250 -0.000000
vt 0.531250 0.156250
vt 0.562500 0.156250
vt 0.562500 0.187500
vt 0.687500 0.187500
vt 0.687500 0.156250
vt 0.718750 0.156250
vt 0.718750 0.312500
vt 0.687500 0.312500
vt 0.687500 0.343750
vt 0.593750 0.343750
vt 0.593750 0.312500
vt 0.562500 0.312500
vt 0.562500 0.218750
vt 0.531250 0.218750
vt 0.531250 0.187500
vt 0.500000 0.187500
vt 0.500000 -0.000000
vt 0.906250 0.375000
vt 0.812500 0.375000
vt 0.812500 0.312500
vt 0.906250 0.312500
vt 0.312500 0.750000
vt 0.312500 0.718750
vt 0.406250 0.718750
vt 0.406250 0.750000
vt 0.937500 0.750000
vt 0.937500 0.812500
vt 0.906250 0.812500
vt 0.906250 0.750000
vt 0.562500 0.906250
vt 0.468750 0.906250
vt 0.468750 0.875000
vt 0.562500 0.875000
vt 0.625000 0.812500
vt 0.625000 0.875000
vt 0.531250 0.875000
vt 0.812500 0.000000
vt 0.843750 0.000000
vt 0.468750 0.906250
vt 0.406250 0.906250
vt 0.406250 0.843750
vt 0.468750 0.843750
vt 0.718750 0.750000
vt 0.718750 0.812500
vt 0.625000 0.750000
vt 0.500000 0.250000
vt 0.500000 0.343750
vt 0.468750 0.343750
vt 0.375000 0.375000
vt 0.375000 0.343750
vt 0.343750 0.343750
vt 0.312500 0.312500
vt 0.312500 0.156250
vt 0.281250 0.156250
vt 0.281250 -0.000000
vt 0.312500 -0.000000
vt 0.312500 0.125000
vt 0.343750 0.125000
vt 0.343750 0.250000
vt 0.375000 0.250000
vt 0.375000 0.281250
vt 0.468750 0.281250
vt 0.468750 0.250000
vt 0.750000 0.843750
vt 0.750000 0.906250
vt 0.812500 0.906250
vt 0.812500 0.843750
vt 0.406250 0.593750
vt 0.406250 0.625000
vt 0.437500 0.625000
vt 0.406250 0.718750
vt 0.406250 0.750000
vt 0.312500 0.750000
vt 0.312500 0.718750
vt 0.281250 0.718750
vt 0.281250 0.625000
vt 0.312500 0.625000
vt 0.312500 0.593750
vt 0.968750 0.437500
vt 0.968750 0.375000
vt 0.750000 0.937500
vt 0.656250 0.906250
vt 0.656250 0.937500
vt 0.906250 0.093750
vt 0.937500 0.093750
vt 0.937500 0.187500
vt 0.906250 0.187500
vt 0.093750 0.875000
vt 0.093750 0.906250
vt 0.000000 0.906250
vt 0.562500 0.906250
vt 0.562500 0.875000
vt 0.656250 0.875000
vt 0.656250 0.906250
vt 0.500000 0.468750
vt 0.531250 0.468750
vt 0.281250 0.843750
vt 0.281250 0.750000
vt 0.375000 0.750000
vt 0.375000 0.843750
vt 0.656250 0.906250
vt 0.750000 0.906250
vt 0.750000 0.875000
vt 0.656250 0.875000
vt 0.968750 0.500000
vt 0.937500 0.500000
vt 0.375000 0.937500
vt 0.375000 0.906250
vt 0.250000 0.843750
vt 0.281250 0.843750
vt 0.593750 0.312500
vt 0.593750 0.343750
vt 0.625000 0.343750
vt 0.625000 0.312500
vt 0.437500 0.343750
vt 0.562500 0.312500
vt 0.562500 0.281250
vt 0.593750 0.281250
vt 0.718750 0.312500
vt 0.687500 0.281250
vt 0.718750 0.281250
vt 0.906250 0.875000
vt 0.937500 0.875000
vt 0.281250 0.906250
vt 0.281250 0.843750
vt 0.812500 0.156250
vt 0.843750 0.312500
vt 0.843750 0.218750
vt 0.875000 0.218750
vt 0.875000 0.156250
vt 0.468750 0.937500
vt 0.468750 0.906250
vt 0.468750 0.843750
vt 0.375000 0.843750
vt 0.375000 0.750000
vt 0.468750 0.937500
vt 0.562500 0.937500
vt 0.468750 0.906250
vt 0.875000 0.750000
vt 0.875000 0.656250
vt 0.906250 0.656250
vt 0.812500 -0.000000
vt 0.812500 0.062500
vt 0.781250 0.062500
vt 0.843750 0.062500
vt 0.750000 0.156250
vt 0.750000 0.312500
vt 0.718750 0.312500
vt 0.718750 0.343750
vt 0.781250 0.343750
vt 0.781250 0.281250
vt 0.812500 0.281250
vt 0.812500 0.156250
vt 0.187500 0.812500
vt 0.187500 0.875000
vt 0.937500 0.062500
vt 0.937500 0.125000
vt 0.968750 0.125000
vt 0.968750 0.062500
vt 0.281250 0.562500
vt 0.312500 0.562500
vt 0.968750 0.187500
vt 0.937500 0.187500
vt 0.937500 0.125000
vt 0.562500 0.937500
vt 0.187500 0.875000
vt 0.281250 0.875000
vt 0.281250 0.718750
vt 0.250000 0.718750
vt 0.250000 0.750000
vt 0.187500 0.750000
vt 0.968750 0.250000
vt 0.937500 0.250000
vt 0.937500 0.187500
vt 0.968750 0.187500
vt 0.656250 0.500000
vt 0.625000 0.500000
vt 0.531250 0.500000
vt 0.500000 0.500000
vt 0.312500 0.593750
vt 0.406250 0.593750
vt 0.406250 0.562500
vt 0.437500 0.562500
vt 0.437500 0.531250
vt 0.468750 0.531250
vt 0.281250 0.375000
vt 0.281250 0.562500
vt 0.312500 0.562500
s 0
usemtl Material
f 195/1/1 199/2/1 212/3/1 214/4/1
f 55/5/2 185/6/2 184/7/2 86/8/2 66/9/2 67/10/2 54/11/2 190/12/2 58/13/2 56/14/2
f 143/15/3 142/16/3 149/17/3 151/18/3
f 1/19/4 7/20/4 19/21/4 18/22/4
f 6/23/4 3/24/4 17/25/4 8/20/4
f 17/25/1 3/24/1 12/23/1 14/20/1
f 11/25/1 9/24/1 4/23/1 24/20/1
f 206/26/5 199/27/5 207/28/5 205/29/5
f 19/21/1 7/20/1 6/30/1 8/31/1
f 11/24/5 26/32/5 10/33/5 9/34/5
f 86/35/4 184/36/4 69/37/4 87/38/4 85/39/4 82/40/4 81/41/4 80/42/4
f 12/34/4 13/33/4 15/32/4 14/24/4
f 13/43/1 10/44/1 26/45/1 25/46/1 129/47/1 189/48/1 23/49/1 15/50/1
f 146/51/3 150/47/3 148/48/3 144/52/3
f 31/53/1 22/54/1 16/55/1 35/56/1
f 82/19/2 85/30/2 84/57/2 95/23/2 94/58/2 93/59/2 88/60/2 90/61/2
f 24/62/3 25/63/3 26/64/3 11/65/3
f 17/66/4 40/67/4 169/68/4 36/69/4
f 127/70/1 5/71/1 27/72/1 28/73/1
f 62/74/1 65/75/1 68/76/1 60/77/1
f 49/78/4 21/79/4 22/80/4 31/81/4 34/82/4 64/83/4 65/84/4 62/85/4 61/86/4 56/87/4 58/88/4 51/89/4 57/90/4 45/91/4 44/92/4 32/93/4
f 64/76/1 34/94/1 33/95/1 63/96/1
f 219/97/5 222/98/5 221/99/5 220/100/5
f 166/101/3 169/102/3 177/103/3 42/104/3
f 192/16/4 193/105/4 201/106/4 202/17/4
f 53/107/1 46/108/1 45/53/1 57/109/1
f 179/110/3 175/111/3 176/112/3 177/113/3 189/114/3 129/115/3
f 144/116/1 148/117/1 149/118/1 145/119/1
f 137/101/5 134/104/5 178/103/5 136/102/5
f 43/120/5 135/121/5 42/75/5 177/76/5
f 204/106/5 203/122/5 195/123/5 191/124/5
f 44/125/3 45/126/3 46/107/3 47/109/3
f 197/123/1 210/127/1 207/128/1 199/129/1
f 50/130/4 48/131/4 47/132/4 46/133/4 53/134/4 52/135/4 190/136/4 54/137/4
f 104/138/5 114/103/5 110/139/5 97/140/5
f 90/22/5 88/31/5 104/30/5 89/19/5
f 47/141/1 48/109/1 32/142/1 44/143/1
f 52/125/2 53/126/2 57/108/2 51/53/2
f 56/144/1 61/77/1 59/145/1 55/146/1
f 61/120/2 62/121/2 60/75/2 59/76/2
f 63/147/3 68/148/3 65/74/3 64/77/3
f 147/149/3 145/150/3 124/151/3 123/152/3
f 182/74/1 186/75/1 39/76/1 71/77/1
f 69/153/1 184/102/1 98/154/1 100/155/1
f 39/156/4 38/157/4 37/158/4 170/139/4 172/103/4 168/104/4 77/101/4 73/102/4 75/153/4 184/159/4 70/160/4 71/161/4
f 99/103/1 117/102/1 116/101/1 101/104/1
f 75/162/1 73/163/1 72/164/1 74/165/1
f 73/166/2 77/62/2 76/104/2 72/103/2
f 79/167/1 66/168/1 86/169/1 80/170/1
f 85/171/1 87/172/1 83/173/1 84/174/1
f 103/31/5 108/30/5 164/19/5 102/22/5
f 205/175/3 207/176/3 210/177/3 208/178/3
f 151/179/5 149/180/5 148/181/5 150/182/5
f 93/59/1 91/60/1 104/183/1 88/184/1
f 194/185/2 196/186/2 195/187/2 193/188/2
f 211/189/3 212/190/3 199/191/3 206/192/3
f 93/193/5 94/194/5 92/58/5 91/59/5
f 83/195/4 96/196/4 95/23/4 84/57/4
f 177/197/5 41/198/5 23/199/5 189/200/5
f 98/201/4 99/65/4 101/101/4 100/102/4
f 104/31/2 103/30/2 102/19/2 89/22/2
f 104/59/1 97/60/1 108/183/1 103/184/1
f 100/202/2 101/203/2 116/204/2 115/205/2 114/206/2 104/207/2 91/208/2 92/209/2 96/210/2 83/211/2 87/212/2 69/213/2
f 109/214/1 107/215/1 111/216/1 112/217/1
f 115/103/1 113/139/1 110/218/1 114/219/1
f 115/219/5 116/103/5 117/139/5 113/218/5
f 16/220/4 20/221/4 33/222/4 35/223/4
f 119/224/5 120/225/5 136/226/5 133/227/5
f 118/228/1 138/229/1 136/225/1 120/230/1
f 118/231/5 121/232/5 139/233/5 138/234/5
f 221/235/3 222/236/3 223/237/3 224/238/3
f 72/201/4 76/65/4 122/101/4 74/102/4
f 105/239/1 124/187/1 145/240/1 161/241/1
f 215/242/4 216/243/4 218/52/4 217/244/4
f 107/215/2 130/245/2 125/70/2 111/73/2
f 163/246/2 105/247/2 161/248/2 154/249/2
f 29/250/3 27/251/3 5/252/3 30/253/3
f 28/252/3 126/254/3 128/255/3 127/256/3
f 130/245/1 128/254/1 126/252/1 125/215/1
f 106/257/5 112/258/5 111/259/5 125/260/5 126/261/5 28/262/5 27/263/5 29/264/5 123/265/5 124/266/5 105/267/5 163/268/5
f 30/269/5 5/270/5 127/271/5 128/272/5 130/273/5 107/274/5 109/275/5 181/276/5 131/277/5 132/278/5 173/279/5 180/280/5 179/281/5 129/282/5 25/283/5 24/284/5 4/285/5 2/286/5
f 35/220/3 33/221/3 34/222/3 31/223/3
f 133/231/2 136/232/2 132/233/2 131/234/2
f 214/287/5 212/288/5 211/289/5 213/290/5
f 178/201/3 134/65/3 135/101/3 43/102/3
f 138/166/2 139/62/2 137/104/2 136/103/2
f 169/291/1 40/292/1 41/293/1 177/294/1
f 165/295/2 159/296/2 140/297/2 141/298/2
f 159/299/1 149/300/1 142/301/1 140/302/1
f 141/303/5 140/304/5 142/305/5 143/48/5
f 49/306/3 32/109/3 48/141/3 50/307/3
f 226/308/1 223/309/1 222/310/1 219/311/1
f 155/312/2 156/313/2 153/303/2 152/314/2
f 184/315/2 75/316/2 74/317/2 122/79/2 121/318/2 118/319/2 120/320/2 119/225/2 181/321/2 109/322/2 112/323/2 106/324/2 164/325/2 108/326/2 97/327/2 110/328/2 113/329/2 117/330/2 99/331/2 98/332/2
f 224/333/4 223/334/4 226/335/4 225/336/4
f 137/337/1 139/338/1 121/339/1 122/206/1 76/340/1 77/341/1 168/342/1 167/343/1 166/344/1 42/345/1 135/346/1 134/347/1
f 154/18/4 161/17/4 156/348/4 155/349/4
f 158/350/3 145/334/3 149/351/3 157/352/3
f 159/353/1 153/354/1 156/355/1 161/356/1
f 161/357/2 162/358/2 160/359/2 159/176/2
f 157/360/5 149/361/5 159/362/5 160/363/5
f 33/96/1 20/95/1 17/364/1 36/365/1
f 158/366/1 157/367/1 160/368/1 162/369/1
f 158/370/4 162/371/4 161/372/4 145/373/4
f 152/348/5 153/374/5 159/375/5 165/17/5
f 169/201/4 166/65/4 167/101/4 171/102/4
f 171/166/3 167/62/3 168/65/3 172/201/3
f 197/188/4 198/185/4 194/376/4 193/377/4
f 172/68/1 170/67/1 169/378/1 171/379/1
f 180/380/3 173/381/3 178/382/3 174/383/3
f 136/232/1 178/381/1 173/380/1 132/231/1
f 174/163/5 178/22/5 176/19/5 175/384/5
f 43/22/1 177/19/1 176/384/1 178/163/1
f 174/380/1 175/385/1 179/386/1 180/387/1
f 119/388/1 133/231/1 131/389/1 181/390/1
f 183/120/2 182/121/2 71/75/2 70/76/2
f 146/297/4 144/391/4 145/392/4 147/296/4
f 225/99/2 226/98/2 219/393/2 220/394/2
f 185/76/1 183/94/1 70/95/1 184/96/1
f 38/147/3 39/148/3 186/74/3 188/77/3
f 36/395/3 169/289/3 170/396/3 37/397/3 187/398/3 33/399/3
f 188/144/1 187/77/1 37/145/1 38/146/1
f 190/53/1 52/54/1 51/55/1 58/56/1
f 196/400/5 200/376/5 199/377/5 195/401/5
f 208/238/4 210/237/4 197/391/4 209/297/4
f 194/402/1 198/403/1 200/404/1 196/204/1
f 200/405/3 198/406/3 197/360/3 199/407/3
f 193/408/1 195/409/1 203/410/1 201/298/1
f 78/411/2 79/412/2 80/413/2 81/170/2
f 67/306/4 66/412/4 79/414/4 78/307/4
f 18/415/3 19/416/3 8/417/3 17/418/3 20/419/3 16/420/3 22/421/3 21/422/3
f 202/423/2 201/424/2 203/177/2 204/178/2
f 209/425/3 197/426/3 217/427/3 218/428/3
f 96/429/1 92/183/1 94/184/1 95/430/1
f 216/427/2 215/431/2 193/432/2 192/433/2
f 215/352/1 217/434/1 197/360/1 193/370/1
f 41/435/3 40/436/3 17/437/3 14/438/3 15/439/3 23/440/3
f 195/441/2 214/442/2 213/443/2 191/444/2
f 188/76/4 186/75/4 182/74/4 183/77/4 185/144/4 55/445/4 59/446/4 60/145/4 68/96/4 63/447/4 33/448/4 187/94/4
f 10/449/3 13/450/3 12/451/3 3/452/3 6/453/3 7/454/3 1/79/3 2/455/3 4/456/3 9/457/3
