# Blender 4.2.3 LTS
# www.blender.org
mtllib trunk1.mtl
o Plane.001
v -0.642488 0.650581 0.250000
v -0.684750 0.741211 0.250000
v -0.642488 0.650581 0.150000
v -0.684750 0.741211 0.150000
v -0.551857 0.692843 0.250000
v -0.594119 0.783473 0.250000
v -0.551857 0.692843 0.150000
v -0.594119 0.783473 0.150000
v -0.503488 0.825735 0.350000
v -0.588012 1.006997 0.350000
v -0.775381 0.698950 0.350000
v -0.859904 0.880211 0.350000
v -0.588012 1.006997 0.050000
v -0.503488 0.825735 0.050000
v -0.859904 0.880211 0.050000
v -0.775381 0.698950 0.050000
v -0.050000 0.600000 0.050000
v 0.550000 0.600000 0.050000
v -0.050000 0.100000 0.050000
v 0.550000 0.100000 0.050000
v 0.050000 0.000000 0.850000
v 0.050000 0.700000 0.850000
v -0.650000 -0.000000 0.850000
v -0.650000 0.700000 0.850000
v 0.050000 -0.000000 -0.750000
v 0.050000 0.700000 -0.750000
v -0.650000 0.000000 -0.750000
v -0.650000 0.700000 -0.750000
v 0.482250 0.600000 0.050000
v 0.738593 0.480466 0.332843
v 0.738593 0.480466 -0.232843
v 0.994935 0.360931 0.050000
vn -0.9063 -0.4226 -0.0000
vn -0.0000 -0.0000 -1.0000
vn 0.9063 0.4226 -0.0000
vn -0.0000 -0.0000 1.0000
vn 0.4226 -0.9063 -0.0000
vn -0.4226 0.9063 -0.0000
vn -1.0000 -0.0000 -0.0000
vn -0.0000 -1.0000 -0.0000
vn 1.0000 -0.0000 -0.0000
vn -0.0000 1.0000 -0.0000
vn 0.4226 0.9063 -0.0000
vt 0.125000 0.468750
vt 0.125000 0.500000
vt 0.156250 0.500000
vt 0.156250 0.468750
vt 0.093750 0.468750
vt 0.062500 0.437500
vt 0.031250 0.437500
vt 0.031250 0.406250
vt 0.000000 0.375000
vt 0.000000 0.468750
vt 0.062500 0.406250
vt 0.093750 0.375000
vt 0.093750 0.562500
vt 0.093750 0.500000
vt 0.187500 0.500000
vt 0.187500 0.562500
vt -0.000000 0.562500
vt 0.218750 0.781250
vt 0.406250 0.781250
vt 0.406250 0.625000
vt 0.218750 0.625000
vt 0.000000 0.781250
vt 0.218750 0.562500
vt 1.000000 0.781250
vt 1.000000 1.000000
vt 0.500000 1.000000
vt 0.500000 0.781250
vt 0.500000 0.343750
vt 0.500000 0.562500
vt 1.000000 0.562500
vt 1.000000 0.343750
vt 0.000000 1.000000
vt 0.218750 0.500000
vt 0.343750 0.500000
vt 0.343750 0.625000
s 0
usemtl Material.001
f 1/1/1 2/2/1 4/3/1 3/4/1
f 3/1/2 4/2/2 8/3/2 7/4/2
f 7/4/3 8/3/3 6/2/3 5/1/3
f 5/4/4 6/3/4 2/2/4 1/1/4
f 14/5/5 8/6/5 4/7/5 2/8/5 11/9/5 16/10/5
f 2/8/5 6/11/5 8/6/5 14/5/5 9/12/5 11/9/5
f 12/13/4 11/14/4 9/15/4 10/16/4
f 12/13/1 15/16/1 16/15/1 11/14/1
f 10/13/3 9/14/3 14/15/3 13/16/3
f 12/10/6 10/5/6 13/13/6 15/17/6
f 15/13/2 13/16/2 14/15/2 16/14/2
f 17/18/2 18/19/2 20/20/2 19/21/2
f 22/18/4 24/22/4 23/17/4 21/23/4
f 23/24/7 24/25/7 28/26/7 27/27/7
f 21/28/8 23/29/8 27/30/8 25/31/8
f 21/22/9 25/27/9 26/26/9 22/32/9
f 22/24/10 26/27/10 28/29/10 24/30/10
f 27/17/2 28/22/2 26/18/2 25/23/2
f 29/33/11 30/34/11 32/35/11 31/21/11
