# Blender 3.6.1
# www.blender.org
mtllib NetheriteHoe.mtl
o Netherite_Hoe
v -0.058843 -0.005017 0.072029
v -0.058712 -0.005017 0.052236
v -0.047763 -0.005017 0.052418
v -0.047235 -0.005017 0.041682
v -0.037374 -0.005017 0.041682
v -0.037385 -0.005017 0.031295
v -0.026787 -0.005017 0.031295
v -0.026973 -0.005017 0.020710
v -0.016733 -0.005017 0.021258
v -0.015997 -0.005017 0.010658
v -0.006115 -0.005017 0.010841
v -0.006067 -0.005017 0.000480
v 0.004460 -0.005017 0.000287
v 0.004324 -0.005017 -0.010228
v 0.014575 -0.005017 -0.010421
v 0.014841 -0.005017 -0.020675
v 0.024720 -0.005017 -0.020578
v 0.025119 -0.005017 -0.031943
v 0.014838 -0.005017 -0.032136
v 0.014844 -0.005017 -0.043102
v -0.006233 -0.005017 -0.042713
v -0.005673 -0.005017 -0.053319
v -0.017053 -0.005017 -0.053222
v -0.016892 -0.005017 -0.062490
v -0.006083 -0.005017 -0.062685
v -0.006007 -0.005017 -0.072563
v 0.024024 -0.005017 -0.072563
v 0.024105 -0.005017 -0.062880
v 0.034914 -0.005017 -0.062587
v 0.034297 -0.005017 -0.051955
v 0.065707 -0.005017 -0.051955
v 0.065587 -0.005017 -0.021588
v 0.055417 -0.005017 -0.021491
v 0.055257 -0.005017 -0.010780
v 0.034657 -0.005017 -0.011262
v 0.034142 -0.005017 -0.000868
v 0.023994 -0.005017 -0.001081
v 0.023937 -0.005017 0.009662
v 0.013616 -0.005017 0.009565
v 0.013672 -0.005017 0.019795
v 0.003172 -0.005017 0.019795
v 0.002952 -0.005017 0.030479
v -0.007245 -0.005017 0.030382
v -0.007258 -0.005017 0.040557
v -0.017537 -0.005017 0.040461
v -0.017842 -0.005017 0.051049
v -0.027916 -0.005017 0.051337
v -0.028123 -0.005017 0.061697
v -0.038661 -0.005017 0.061601
v -0.038662 -0.005017 0.071837
v -0.058843 0.005009 0.072029
v -0.058712 0.005009 0.052236
v -0.047763 0.005009 0.052418
v -0.047235 0.005009 0.041682
v -0.037374 0.005009 0.041682
v -0.037385 0.005009 0.031295
v -0.026787 0.005009 0.031295
v -0.026973 0.005009 0.020710
v -0.016733 0.005009 0.021258
v -0.015997 0.005009 0.010658
v -0.006115 0.005009 0.010841
v -0.006067 0.005009 0.000480
v 0.004460 0.005009 0.000287
v 0.004324 0.005009 -0.010228
v 0.014575 0.005009 -0.010421
v 0.014841 0.005009 -0.020675
v 0.024720 0.005009 -0.020578
v 0.025119 0.005009 -0.031943
v 0.014838 0.005009 -0.032136
v 0.014844 0.005009 -0.043102
v -0.006233 0.005009 -0.042713
v -0.005673 0.005009 -0.053319
v -0.017053 0.005009 -0.053222
v -0.016892 0.005009 -0.062490
v -0.006083 0.005009 -0.062685
v -0.006007 0.005009 -0.072563
v 0.024024 0.005009 -0.072563
v 0.024105 0.005009 -0.062880
v 0.034914 0.005009 -0.062587
v 0.034297 0.005009 -0.051955
v 0.065707 0.005009 -0.051955
v 0.065587 0.005009 -0.021588
v 0.055417 0.005009 -0.021491
v 0.055257 0.005009 -0.010780
v 0.034657 0.005009 -0.011262
v 0.034142 0.005009 -0.000868
v 0.023994 0.005009 -0.001081
v 0.023937 0.005009 0.009662
v 0.013616 0.005009 0.009565
v 0.013672 0.005009 0.019795
v 0.003172 0.005009 0.019795
v 0.002952 0.005009 0.030479
v -0.007245 0.005009 0.030382
v -0.007258 0.005009 0.040557
v -0.017537 0.005009 0.040461
v -0.017842 0.005009 0.051049
v -0.027916 0.005009 0.051337
v -0.028123 0.005009 0.061697
v -0.038661 0.005009 0.061601
v -0.038662 0.005009 0.071837
vn -0.0000 -1.0000 -0.0000
vn -0.0000 1.0000 -0.0000
vn -1.0000 -0.0000 -0.0066
vn 0.0166 -0.0000 -0.9999
vn -0.9988 -0.0000 -0.0492
vn -0.0000 -0.0000 -1.0000
vn -1.0000 -0.0000 0.0011
vn -0.9998 -0.0000 0.0176
vn 0.0534 -0.0000 -0.9986
vn -0.9976 -0.0000 -0.0693
vn 0.0185 -0.0000 -0.9998
vn -1.0000 -0.0000 -0.0047
vn -0.0183 -0.0000 -0.9998
vn -0.9999 -0.0000 0.0129
vn -0.0188 -0.0000 -0.9998
vn -0.9997 -0.0000 -0.0259
vn 0.0098 -0.0000 -1.0000
vn -0.9994 -0.0000 -0.0351
vn -0.0188 -0.0000 0.9998
vn -1.0000 -0.0000 -0.0005
vn 0.0184 -0.0000 0.9998
vn -0.9986 -0.0000 -0.0527
vn 0.0086 -0.0000 1.0000
vn -0.9998 -0.0000 -0.0174
vn -0.0181 -0.0000 -0.9998
vn -1.0000 -0.0000 -0.0077
vn 1.0000 -0.0000 -0.0083
vn 0.0271 -0.0000 -0.9996
vn 0.9983 -0.0000 0.0579
vn 1.0000 -0.0000 0.0040
vn 0.0095 -0.0000 1.0000
vn 0.9999 -0.0000 0.0149
vn -0.0234 -0.0000 0.9997
vn 0.9988 -0.0000 0.0495
vn -0.0210 -0.0000 0.9998
vn 1.0000 -0.0000 0.0053
vn -0.0093 -0.0000 1.0000
vn 1.0000 -0.0000 -0.0055
vn -0.0000 -0.0000 1.0000
vn 0.9998 -0.0000 0.0206
vn -0.0094 -0.0000 1.0000
vn 1.0000 -0.0000 0.0012
vn 0.9996 -0.0000 0.0288
vn 0.0286 -0.0000 0.9996
vn 0.9998 -0.0000 0.0200
vn -0.0091 -0.0000 1.0000
vn 1.0000 -0.0000 -0.0000
vt 0.487424 0.944274
vt 0.501661 0.944275
vt 0.501607 0.913907
vt 0.496997 0.913810
vt 0.496925 0.903100
vt 0.487588 0.903581
vt 0.487354 0.893186
vt 0.482755 0.893400
vt 0.482729 0.882658
vt 0.478051 0.882754
vt 0.478076 0.872524
vt 0.473316 0.872523
vt 0.473217 0.861840
vt 0.468595 0.861937
vt 0.468589 0.851762
vt 0.463930 0.851858
vt 0.463792 0.841269
vt 0.459226 0.840982
vt 0.459132 0.830622
vt 0.454355 0.830717
vt 0.454355 0.820482
vt 0.445208 0.820290
vt 0.445268 0.840083
vt 0.450230 0.839901
vt 0.450469 0.850637
vt 0.454939 0.850638
vt 0.454934 0.861024
vt 0.459738 0.861024
vt 0.459653 0.871609
vt 0.464295 0.871061
vt 0.464628 0.881661
vt 0.469107 0.881478
vt 0.469129 0.891839
vt 0.473900 0.892032
vt 0.473839 0.902548
vt 0.478485 0.902740
vt 0.478606 0.912994
vt 0.483083 0.912898
vt 0.483264 0.924261
vt 0.478604 0.924454
vt 0.478607 0.935421
vt 0.469053 0.935032
vt 0.469307 0.945638
vt 0.464150 0.945541
vt 0.464223 0.954808
vt 0.469122 0.955004
vt 0.469156 0.964882
vt 0.482768 0.964882
vt 0.482805 0.955199
vt 0.487704 0.954906
s 0
usemtl ALL_MINECRAFT_TOOLS
f 30/1/1 31/2/1 32/3/1 33/4/1 34/5/1 35/6/1 36/7/1 37/8/1 38/9/1 39/10/1 40/11/1 41/12/1 42/13/1 43/14/1 44/15/1 45/16/1 46/17/1 47/18/1 48/19/1 49/20/1 50/21/1 1/22/1 2/23/1 3/24/1 4/25/1 5/26/1 6/27/1 7/28/1 8/29/1 9/30/1 10/31/1 11/32/1 12/33/1 13/34/1 14/35/1 15/36/1 16/37/1 17/38/1 18/39/1 19/40/1 20/41/1 21/42/1 22/43/1 23/44/1 24/45/1 25/46/1 26/47/1 27/48/1 28/49/1 29/50/1
f 80/1/2 79/50/2 78/49/2 77/48/2 76/47/2 75/46/2 74/45/2 73/44/2 72/43/2 71/42/2 70/41/2 69/40/2 68/39/2 67/38/2 66/37/2 65/36/2 64/35/2 63/34/2 62/33/2 61/32/2 60/31/2 59/30/2 58/29/2 57/28/2 56/27/2 55/26/2 54/25/2 53/24/2 52/23/2 51/22/2 100/21/2 99/20/2 98/19/2 97/18/2 96/17/2 95/16/2 94/15/2 93/14/2 92/13/2 91/12/2 90/11/2 89/10/2 88/9/2 87/8/2 86/7/2 85/6/2 84/5/2 83/4/2 82/3/2 81/2/2
f 2/23/3 1/22/3 51/22/3 52/23/3
f 3/24/4 2/23/4 52/23/4 53/24/4
f 4/25/5 3/24/5 53/24/5 54/25/5
f 5/26/6 4/25/6 54/25/6 55/26/6
f 6/27/7 5/26/7 55/26/7 56/27/7
f 7/28/6 6/27/6 56/27/6 57/28/6
f 8/29/8 7/28/8 57/28/8 58/29/8
f 9/30/9 8/29/9 58/29/9 59/30/9
f 10/31/10 9/30/10 59/30/10 60/31/10
f 11/32/11 10/31/11 60/31/11 61/32/11
f 12/33/12 11/32/12 61/32/12 62/33/12
f 13/34/13 12/33/13 62/33/13 63/34/13
f 14/35/14 13/34/14 63/34/14 64/35/14
f 15/36/15 14/35/15 64/35/15 65/36/15
f 16/37/16 15/36/16 65/36/16 66/37/16
f 17/38/17 16/37/17 66/37/17 67/38/17
f 18/39/18 17/38/18 67/38/18 68/39/18
f 19/40/19 18/39/19 68/39/19 69/40/19
f 20/41/20 19/40/20 69/40/20 70/41/20
f 21/42/21 20/41/21 70/41/21 71/42/21
f 22/43/22 21/42/22 71/42/22 72/43/22
f 23/44/23 22/43/23 72/43/23 73/44/23
f 24/45/24 23/44/24 73/44/24 74/45/24
f 25/46/25 24/45/25 74/45/25 75/46/25
f 26/47/26 25/46/26 75/46/26 76/47/26
f 27/48/6 26/47/6 76/47/6 77/48/6
f 28/49/27 27/48/27 77/48/27 78/49/27
f 29/50/28 28/49/28 78/49/28 79/50/28
f 30/1/29 29/50/29 79/50/29 80/1/29
f 31/2/6 30/1/6 80/1/6 81/2/6
f 32/3/30 31/2/30 81/2/30 82/3/30
f 33/4/31 32/3/31 82/3/31 83/4/31
f 34/5/32 33/4/32 83/4/32 84/5/32
f 35/6/33 34/5/33 84/5/33 85/6/33
f 36/7/34 35/6/34 85/6/34 86/7/34
f 37/8/35 36/7/35 86/7/35 87/8/35
f 38/9/36 37/8/36 87/8/36 88/9/36
f 39/10/37 38/9/37 88/9/37 89/10/37
f 40/11/38 39/10/38 89/10/38 90/11/38
f 41/12/39 40/11/39 90/11/39 91/12/39
f 42/13/40 41/12/40 91/12/40 92/13/40
f 43/14/41 42/13/41 92/13/41 93/14/41
f 44/15/42 43/14/42 93/14/42 94/15/42
f 45/16/37 44/15/37 94/15/37 95/16/37
f 46/17/43 45/16/43 95/16/43 96/17/43
f 47/18/44 46/17/44 96/17/44 97/18/44
f 48/19/45 47/18/45 97/18/45 98/19/45
f 49/20/46 48/19/46 98/19/46 99/20/46
f 50/21/47 49/20/47 99/20/47 100/21/47
f 1/22/31 50/21/31 100/21/31 51/22/31
