# Blender 4.2.3 LTS
# www.blender.org
mtllib Bucket.mtl
o Cube.092
v -0.300000 0.100000 0.400000
v -0.400000 0.100000 0.300000
v -0.300000 0.000000 0.300000
v -0.300000 0.100000 0.300000
v -0.300000 0.100000 0.200000
v -0.400000 0.400000 0.300000
v -0.400000 0.400000 0.000000
v -0.300000 0.200000 0.300000
v -0.300000 0.300000 0.300000
v -0.200000 0.100000 0.500000
v -0.200000 0.000000 0.400000
v -0.200000 0.100000 0.400000
v -0.100000 0.100000 0.400000
v -0.200000 0.400000 0.500000
v -0.200000 0.200000 0.400000
v -0.200000 0.300000 0.400000
v 0.100000 0.400000 0.500000
v -0.200000 0.000000 0.300000
v -0.200000 0.100000 0.300000
v 0.100000 0.000000 0.000000
v -0.200000 0.400000 0.300000
v -0.400000 0.400000 0.400000
v -0.300000 0.400000 0.500000
v -0.300000 0.400000 0.400000
v -0.300000 0.500000 0.400000
v -0.400000 0.700000 0.400000
v -0.300000 0.700000 0.500000
v -0.300000 0.600000 0.400000
v -0.300000 0.700000 0.400000
v -0.300000 0.400000 0.300000
v -0.400000 0.700000 0.100000
v -0.300000 0.700000 0.100000
v -0.200000 0.400000 0.400000
v 0.000000 0.700000 0.400000
v 0.000000 0.700000 0.500000
v -0.400000 0.100000 0.000000
v -0.300000 0.000000 0.000000
v -0.300000 0.100000 0.100000
v -0.300000 0.100000 0.000000
v -0.300000 0.200000 0.000000
v -0.300000 0.300000 0.000000
v -0.300000 0.100000 -0.100000
v -0.200000 0.000000 0.000000
v -0.200000 0.100000 0.000000
v -0.200000 0.400000 0.000000
v -0.200000 0.000000 -0.100000
v -0.200000 0.100000 -0.100000
v -0.200000 0.100000 -0.200000
v -0.100000 0.100000 -0.100000
v -0.200000 0.200000 -0.100000
v -0.200000 0.300000 -0.100000
v -0.200000 0.400000 -0.200000
v 0.100000 0.400000 -0.200000
v -0.400000 0.700000 -0.100000
v -0.300000 0.400000 0.000000
v -0.400000 0.400000 -0.100000
v -0.300000 0.400000 -0.100000
v -0.300000 0.500000 -0.100000
v -0.300000 0.400000 -0.200000
v -0.300000 0.600000 -0.100000
v -0.300000 0.700000 -0.100000
v -0.300000 0.700000 -0.200000
v -0.200000 0.400000 -0.100000
v -0.100000 0.700000 -0.100000
v 0.000000 0.700000 -0.200000
v 0.100000 0.100000 0.500000
v 0.100000 0.000000 0.400000
v 0.000000 0.100000 0.400000
v 0.100000 0.100000 0.400000
v 0.100000 0.200000 0.400000
v 0.100000 0.300000 0.400000
v 0.100000 0.000000 0.300000
v 0.100000 0.100000 0.300000
v 0.100000 0.400000 0.300000
v 0.200000 0.100000 0.400000
v 0.200000 0.000000 0.300000
v 0.200000 0.100000 0.300000
v 0.200000 0.100000 0.200000
v 0.300000 0.100000 0.300000
v 0.200000 0.200000 0.300000
v 0.200000 0.300000 0.300000
v 0.300000 0.400000 0.300000
v 0.300000 0.400000 0.000000
v 0.200000 0.700000 0.500000
v 0.100000 0.400000 0.400000
v 0.200000 0.400000 0.500000
v 0.200000 0.400000 0.400000
v 0.200000 0.500000 0.400000
v 0.300000 0.400000 0.400000
v 0.200000 0.600000 0.400000
v 0.200000 0.700000 0.400000
v 0.300000 0.700000 0.400000
v 0.200000 0.400000 0.300000
v 0.200000 0.700000 0.100000
v 0.300000 0.700000 0.100000
v 0.100000 0.100000 0.000000
v 0.100000 0.400000 0.000000
v 0.100000 0.000000 -0.100000
v 0.000000 0.100000 -0.100000
v 0.100000 0.100000 -0.200000
v 0.100000 0.100000 -0.100000
v 0.100000 0.200000 -0.100000
v 0.100000 0.300000 -0.100000
v 0.200000 0.000000 0.000000
v 0.200000 0.100000 0.100000
v 0.200000 0.100000 0.000000
v 0.300000 0.100000 0.000000
v 0.200000 0.200000 0.000000
v 0.200000 0.300000 0.000000
v 0.200000 0.100000 -0.100000
v 0.100000 0.400000 -0.100000
v 0.100000 0.700000 -0.100000
v 0.200000 0.700000 -0.200000
v 0.200000 0.400000 0.000000
v 0.300000 0.700000 -0.100000
v 0.200000 0.400000 -0.100000
v 0.200000 0.500000 -0.100000
v 0.200000 0.400000 -0.200000
v 0.300000 0.400000 -0.100000
v 0.200000 0.600000 -0.100000
v 0.200000 0.700000 -0.100000
vn -0.0000 -0.0000 1.0000
vn 1.0000 -0.0000 -0.0000
vn -0.0000 -0.0000 -1.0000
vn -0.0000 -1.0000 -0.0000
vn -0.0000 1.0000 -0.0000
vn -1.0000 -0.0000 -0.0000
vt 0.500000 0.083333
vt 0.500000 0.125000
vt 0.500000 0.166667
vt 0.458333 0.166667
vt 0.458333 0.041667
vt 0.500000 0.041667
vt 0.250000 0.166667
vt 0.250000 0.041667
vt 0.375000 0.041667
vt 0.375000 0.166667
vt 0.416667 0.166667
vt 0.416667 0.291667
vt 0.333333 0.291667
vt 0.208333 0.291667
vt 0.208333 0.166667
vt 0.625000 0.041667
vt 0.625000 0.000000
vt 0.583333 0.000000
vt 0.541667 0.000000
vt 0.500000 0.000000
vt 0.041667 0.375000
vt 0.041667 0.416667
vt 0.041667 0.458333
vt 0.000000 0.458333
vt 0.000000 0.500000
vt 0.000000 0.541667
vt -0.000000 0.583333
vt 0.125000 0.583333
vt 0.208333 0.583333
vt 0.208333 0.541667
vt 0.208333 0.500000
vt 0.208333 0.458333
vt 0.166667 0.458333
vt 0.166667 0.416667
vt 0.166667 0.375000
vt 0.166667 0.333333
vt 0.125000 0.333333
vt 0.083333 0.333333
vt 0.041667 0.333333
vt 0.208333 0.208333
vt 0.250000 0.291667
vt 0.208333 0.250000
vt 0.625000 0.083333
vt 0.625000 0.125000
vt 0.625000 0.166667
vt 0.583333 0.166667
vt 0.583333 0.041667
vt 0.166667 0.041667
vt 0.166667 0.166667
vt 0.125000 0.291667
vt -0.000000 0.291667
vt -0.000000 0.166667
vt 0.041667 0.166667
vt 0.041667 0.041667
vt 0.000000 0.041667
vt 0.000000 0.083333
vt 0.041667 0.083333
vt 0.083333 0.083333
vt 0.125000 0.083333
vt 0.125000 0.041667
vt 0.166667 0.291667
vt 0.208333 0.291667
vt 0.208333 0.333333
vt 0.333333 0.333333
vt 0.416667 0.333333
vt 0.416667 0.291667
vt 0.083333 0.291667
vt 0.083333 0.166667
vt 0.125000 0.166667
vt 0.125000 0.041667
vt 0.250000 0.041667
vt 0.291667 0.166667
vt 0.291667 0.291667
vt 0.500000 0.208333
vt 0.500000 0.250000
vt 0.500000 0.291667
vt 0.458333 0.291667
vt 0.416667 0.250000
vt 0.416667 0.208333
vt 0.041667 0.125000
vt 0.375000 0.333333
vt 0.500000 0.333333
vt 0.500000 0.291667
vt 0.375000 0.291667
vt 0.291667 0.291667
vt 0.291667 0.333333
vt 0.291667 0.166667
vt 0.333333 0.166667
vt 0.333333 0.041667
vt 0.458333 0.041667
vt 0.458333 0.166667
vt 0.500000 0.166667
vt -0.000000 0.333333
vt 0.000000 0.291667
vt 0.208333 0.333333
vt 0.583333 0.541667
vt 0.583333 0.500000
vt 0.583333 0.458333
vt 0.625000 0.458333
vt 0.625000 0.583333
vt 0.583333 0.583333
vt 0.583333 0.125000
vt 0.583333 0.083333
vt 0.000000 0.125000
vt 0.083333 0.208333
vt 0.083333 0.166667
vt 0.083333 0.291667
vt 0.083333 0.250000
vt 0.083333 0.041667
vt 0.083333 0.125000
vt 0.250000 0.083333
vt 0.291667 0.083333
vt 0.291667 0.041667
vt 0.166667 0.083333
vt 0.208333 0.083333
vt 0.000000 0.000000
vt 0.041667 0.000000
vt 0.458333 0.083333
vt 0.041667 0.208333
vt 0.041667 0.291667
vt 0.041667 0.250000
vt 0.541667 0.208333
vt 0.541667 0.166667
vt 0.583333 0.416667
vt 0.625000 0.416667
vt 0.791667 0.166667
vt 0.833333 0.166667
vt 0.833333 0.041667
vt 0.791667 0.041667
vt 0.791667 -0.000000
vt 0.666667 -0.000000
vt 0.666667 0.041667
vt 0.666667 0.166667
vt 0.666667 0.208333
vt 0.791667 0.208333
vt 0.208333 0.041667
vt 0.083333 0.000000
vt 0.208333 0.000000
vt 0.458333 -0.000000
vt 0.541667 0.125000
vt 0.541667 0.083333
vt 0.541667 0.041667
vt 0.125000 0.125000
vt 0.333333 0.208333
vt 0.333333 0.166667
vt 0.333333 0.250000
vt 0.333333 0.041667
vt 0.333333 0.083333
vt 0.291667 -0.000000
vt 0.416667 -0.000000
vt 0.416667 0.041667
vt 0.625000 0.541667
vt 0.625000 0.500000
vt 0.625000 0.333333
vt 0.625000 0.291667
vt 0.625000 0.250000
vt 0.666667 0.250000
vt 0.708333 0.208333
vt 0.750000 0.208333
vt 0.791667 0.250000
vt 0.833333 0.250000
vt 0.833333 0.291667
vt 0.833333 0.333333
vt 0.833333 0.375000
vt 0.791667 0.375000
vt 0.791667 0.416667
vt 0.750000 0.416667
vt 0.708333 0.416667
vt 0.666667 0.416667
vt 0.666667 0.375000
vt 0.625000 0.375000
vt 0.000000 0.166667
vt 0.375000 0.000000
vt 0.333333 0.000000
vt 0.250000 -0.000000
vt 0.333333 0.416667
vt 0.333333 0.375000
vt 0.375000 0.333333
vt 0.416667 0.333333
vt 0.458333 0.333333
vt 0.458333 0.375000
vt 0.458333 0.416667
vt 0.458333 0.458333
vt 0.500000 0.458333
vt 0.500000 0.500000
vt 0.500000 0.541667
vt 0.500000 0.583333
vt 0.458333 0.583333
vt 0.375000 0.583333
vt 0.291667 0.583333
vt 0.291667 0.541667
vt 0.291667 0.500000
vt 0.291667 0.458333
vt 0.333333 0.458333
vt 0.291667 0.333333
vt 0.250000 0.208333
vt 0.250000 0.250000
vt 0.416667 0.083333
vt 0.416667 0.125000
vt 0.250000 0.375000
vt 0.250000 0.416667
vt 0.250000 0.458333
vt 0.333333 0.583333
vt 0.416667 0.583333
vt 0.416667 0.541667
vt 0.416667 0.500000
vt 0.416667 0.458333
vt 0.375000 0.458333
vt 0.375000 0.416667
vt 0.375000 0.375000
vt 0.250000 0.333333
vt 0.083333 0.583333
vt 0.083333 0.541667
vt 0.083333 0.500000
vt 0.083333 0.458333
vt 0.125000 0.458333
vt 0.125000 0.416667
vt 0.125000 0.375000
s 0
usemtl Material.002
f 15/1/1 16/2/1 33/3/1 24/4/1 1/5/1 12/6/1
f 82/7/2 79/8/2 107/9/2 83/10/2 119/11/2 115/12/2 95/13/2 92/14/2 89/15/2
f 46/16/3 47/17/3 49/18/3 99/19/3 101/20/3 98/6/3
f 15/21/3 16/22/3 33/23/3 24/24/3 25/25/3 28/26/3 29/27/3 34/28/3 91/29/3 90/30/3 88/31/3 87/32/3 85/33/3 71/34/3 70/35/3 69/36/3 68/37/3 13/38/3 12/39/3
f 88/40/1 87/15/1 89/7/1 92/41/1 91/14/1 90/42/1
f 80/43/2 81/44/2 93/45/2 87/46/2 75/47/2 77/16/2
f 66/48/1 17/49/1 86/15/1 84/14/1 35/50/1 27/51/1 23/52/1 14/53/1 10/54/1
f 79/55/4 77/56/4 78/57/4 105/58/4 106/59/4 107/60/4
f 86/49/2 87/15/2 88/40/2 90/42/2 91/14/2 84/61/2
f 94/13/5 91/62/5 92/63/5 95/64/5 115/65/5 121/66/5
f 113/67/3 118/68/3 53/69/3 100/70/3 48/71/3 52/7/3 59/72/3 62/73/3 65/61/3
f 49/58/4 47/59/4 48/60/4 100/55/4 101/56/4 99/57/4
f 78/19/2 77/20/2 76/6/2 104/16/2 106/17/2 105/18/2
f 24/3/1 25/74/1 28/75/1 29/76/1 26/77/1 22/4/1
f 120/78/3 121/12/3 115/77/3 119/4/3 116/11/3 117/79/3
f 66/55/2 69/54/2 70/57/2 71/80/2 85/53/2 17/52/2
f 31/81/5 26/82/5 29/83/5 32/84/5 61/85/5 54/86/5
f 26/83/6 31/84/6 54/85/6 56/87/6 7/88/6 36/89/6 2/90/6 6/91/6 22/92/6
f 34/37/5 29/93/5 27/94/5 35/50/5 84/14/5 91/95/5
f 16/96/2 15/97/2 12/98/2 19/99/2 21/100/2 33/101/2
f 71/102/1 70/103/1 69/47/1 75/16/1 87/45/1 85/46/1
f 77/55/1 79/54/1 82/53/1 93/52/1 81/104/1 80/56/1
f 117/105/2 116/106/2 118/69/2 113/50/2 121/107/2 120/108/2
f 15/58/6 12/109/6 10/54/6 14/53/6 33/106/6 16/110/6
f 68/111/4 69/112/4 66/113/4 10/48/4 12/114/4 13/115/4
f 4/55/1 3/116/1 18/117/1 19/54/1
f 18/117/6 11/116/6 12/55/6 19/54/6
f 70/97/6 71/96/6 85/101/6 74/100/6 73/99/6 69/98/6
f 6/53/1 2/54/1 4/109/1 8/58/1 9/110/1 30/106/1
f 9/2/6 8/1/6 4/6/6 1/5/6 24/4/6 30/3/6
f 12/5/4 1/118/4 4/1/4 19/6/4
f 25/119/6 24/53/6 23/52/6 27/94/6 29/120/6 28/121/6
f 33/122/4 14/123/4 23/3/4 24/74/4
f 24/123/4 22/3/4 6/74/4 30/122/4
f 24/124/5 33/125/5 21/99/5 30/98/5
f 43/126/4 46/127/4 98/128/4 20/129/4 104/130/4 76/131/4 72/132/4 67/16/4 11/45/4 18/133/4 3/134/4 37/135/4
f 4/136/6 5/48/6 38/60/6 39/109/6 37/137/6 3/138/6
f 37/139/3 39/5/3 44/6/3 43/20/3
f 46/20/6 43/139/6 44/5/6 47/6/6
f 51/140/3 50/141/3 47/142/3 42/6/3 57/3/3 63/123/3
f 41/96/1 40/97/1 39/98/1 44/99/1 45/100/1 55/101/1
f 36/109/3 7/106/3 55/69/3 41/143/3 40/59/3 39/60/3
f 8/97/3 9/96/3 30/101/3 21/100/3 19/99/3 4/98/3
f 47/142/4 44/6/4 39/1/4 42/141/4
f 58/144/3 57/145/3 56/72/3 54/73/3 61/13/3 60/146/3
f 63/106/6 52/69/6 48/60/6 47/109/6 50/58/6 51/110/6
f 52/122/4 63/123/4 57/3/4 59/74/4
f 55/123/4 7/3/4 56/74/4 57/122/4
f 57/98/5 55/124/5 45/125/5 63/99/5
f 5/113/4 4/147/4 2/148/4 36/115/4 39/136/4 38/8/4
f 13/147/1 12/113/1 11/149/1 67/150/1 69/151/1 68/9/1
f 73/54/1 72/117/1 76/137/1 77/109/1
f 69/54/2 67/117/2 72/137/2 73/109/2
f 81/152/3 80/153/3 77/99/3 73/98/3 74/101/3 93/100/3
f 77/6/4 75/5/4 69/118/4 73/1/4
f 13/154/5 68/155/5 69/156/5 73/157/5 77/134/5 78/158/5 105/159/5 106/135/5 96/160/5 101/161/5 99/162/5 49/163/5 47/164/5 44/165/5 39/166/5 38/167/5 5/168/5 4/169/5 19/170/5 12/171/5
f 86/3/4 17/74/4 85/122/4 87/123/4
f 82/123/4 89/3/4 87/74/4 93/122/4
f 74/99/5 85/98/5 87/124/5 93/125/5
f 100/54/2 53/53/2 111/172/2 103/104/2 102/56/2 101/55/2
f 104/173/3 20/174/3 96/147/3 106/9/3
f 103/152/6 102/153/6 101/99/6 96/98/6 97/101/6 111/100/6
f 96/8/2 20/175/2 98/149/2 101/113/2
f 108/153/1 109/152/1 114/100/1 97/101/1 96/98/1 106/99/1
f 108/1/2 106/6/2 110/142/2 116/123/2 114/3/2 109/2/2
f 107/60/3 106/109/3 108/58/3 109/110/3 114/106/3 83/69/3
f 106/6/4 96/1/4 101/141/4 110/142/4
f 116/3/4 111/74/4 53/122/4 118/123/4
f 51/176/1 50/177/1 47/64/1 49/178/1 99/179/1 101/180/1 102/181/1 103/182/1 111/183/1 116/184/1 117/185/1 120/186/1 121/187/1 112/188/1 64/189/1 61/190/1 60/191/1 58/192/1 57/193/1 63/194/1
f 83/3/4 114/74/4 116/122/4 119/123/4
f 97/98/5 114/124/5 116/125/5 111/99/5
f 62/73/5 61/195/5 64/95/5 112/37/5 121/38/5 113/107/5 65/61/5
f 59/72/6 57/7/6 58/196/6 60/197/6 61/41/6 62/73/6
f 40/198/6 41/199/6 55/11/6 57/4/6 42/5/6 39/151/6
f 102/1/3 103/2/3 111/3/3 116/123/3 110/142/3 101/6/3
f 50/153/2 51/152/2 63/100/2 45/101/2 44/98/2 47/99/2
f 80/200/6 81/201/6 93/202/6 87/32/6 88/31/6 90/30/6 91/29/6 94/203/6 121/204/6 120/205/6 117/206/6 116/207/6 114/208/6 109/209/6 108/210/6 106/178/6 105/64/6 78/195/6 77/211/6
f 40/200/2 41/201/2 55/202/2 57/193/2 58/192/2 60/191/2 61/190/2 32/29/2 29/212/2 28/213/2 25/214/2 24/215/2 30/216/2 9/217/2 8/218/2 4/37/2 5/36/2 38/95/2 39/211/2
o Cube.111
v -0.504500 0.524978 0.083109
v -0.504500 0.399370 0.358847
v -0.403500 0.524978 0.083109
v -0.403500 0.399370 0.358847
v -0.302500 0.399370 0.358847
v -0.403500 0.315631 0.542672
v -0.302500 0.357500 0.450760
v -0.201500 0.357500 0.450760
v -0.201500 0.315631 0.542672
v -0.100500 0.315631 0.542672
v -0.201500 0.273761 0.634585
v -0.504500 0.616891 0.124978
v -0.504500 0.491282 0.400716
v -0.403500 0.616891 0.124978
v -0.403500 0.491282 0.400716
v -0.302500 0.491282 0.400716
v -0.403500 0.449413 0.492629
v -0.403500 0.407543 0.584542
v -0.302500 0.449413 0.492629
v -0.201500 0.449413 0.492629
v -0.201500 0.407543 0.584542
v -0.100500 0.407543 0.584542
v -0.201500 0.365674 0.676455
v 0.303500 0.524978 0.083109
v 0.202500 0.399370 0.358847
v 0.303500 0.399370 0.358847
v 0.404500 0.524978 0.083109
v 0.404500 0.399370 0.358847
v 0.101500 0.357500 0.450760
v 0.101500 0.315631 0.542672
v 0.101500 0.273761 0.634585
v 0.202500 0.357500 0.450760
v 0.303500 0.315631 0.542672
v 0.303500 0.616891 0.124978
v 0.202500 0.491282 0.400716
v 0.303500 0.491282 0.400716
v 0.404500 0.616891 0.124978
v 0.404500 0.491282 0.400716
v 0.101500 0.449413 0.492629
v 0.101500 0.407543 0.584542
v 0.101500 0.365674 0.676455
v 0.202500 0.449413 0.492629
v 0.303500 0.407543 0.584542
vn -0.0000 -0.9100 -0.4145
vn -0.0000 0.9100 0.4145
vn -1.0000 -0.0000 -0.0000
vn 1.0000 -0.0000 -0.0000
vn -0.0000 0.4145 -0.9100
vn -0.0000 -0.4145 0.9100
vt 0.125000 0.791667
vt 0.041667 0.791667
vt 0.041667 0.708333
vt 0.083333 0.708333
vt 0.083333 0.750000
vt 0.125000 0.750000
vt 0.250000 0.791667
vt 0.250000 0.750000
vt 0.291667 0.750000
vt 0.291667 0.708333
vt 0.333333 0.708333
vt 0.333333 0.791667
vt 0.333333 0.583333
vt 0.375000 0.708333
vt 0.375000 0.583333
vt 0.291667 0.791667
vt 0.041667 0.583333
vt -0.000000 0.708333
vt -0.000000 0.583333
vt 0.125000 0.833333
vt 0.250000 0.833333
vt 0.166667 0.791667
vt 0.041667 0.750000
vt -0.000000 0.625000
vt 0.041667 0.625000
vt 0.333333 0.666667
vt 0.375000 0.666667
vt 0.333333 0.750000
vt 0.333333 0.625000
vt 0.375000 0.625000
vt -0.000000 0.666667
vt 0.041667 0.666667
vt 0.083333 0.791667
vt 0.166667 0.833333
vt 0.208333 0.791667
vt 0.208333 0.833333
s 0
usemtl Material.002
f 130/219/7 127/220/7 125/221/7 126/222/7 128/223/7 129/224/7
f 151/225/7 150/226/7 153/227/7 146/228/7 147/229/7 154/230/7
f 133/231/8 134/229/8 136/232/8 135/233/8
f 147/229/7 145/231/7 148/233/7 149/232/7
f 138/234/8 139/230/8 142/229/8 141/228/8 140/227/8 137/226/8 136/225/8
f 163/223/8 160/222/8 161/221/8 164/220/8 157/219/8 156/224/8
f 155/235/8 157/221/8 159/236/8 158/237/8
f 144/238/8 162/239/8 161/225/8 143/240/8 142/219/8
f 123/236/7 122/237/7 124/235/7 125/221/7
f 133/233/9 122/231/9 123/229/9 134/232/9
f 124/237/10 135/235/10 136/221/10 125/236/10
f 126/221/11 125/241/11 136/223/11 137/222/11
f 124/237/11 122/242/11 133/243/11 135/235/11
f 123/229/12 125/244/12 136/245/12 134/232/12
f 155/233/9 145/231/9 147/229/9 157/232/9
f 147/228/11 146/227/11 156/246/11 157/229/11
f 148/237/10 158/235/10 159/221/10 149/236/10
f 148/247/11 145/231/11 155/233/11 158/248/11
f 147/236/12 149/249/12 159/250/12 157/221/12
f 129/223/10 141/224/10 142/219/10 130/251/10
f 131/240/11 130/219/11 142/238/11 143/252/11 161/239/11 151/225/11
f 142/225/9 130/253/9 132/254/9 144/239/9
f 129/251/11 128/223/11 140/224/11 141/219/11
f 127/220/12 130/221/12 142/222/12 139/251/12
f 160/234/9 150/225/9 151/226/9 161/227/9
f 151/219/10 161/240/10 162/252/10 152/238/10
f 153/225/11 150/234/11 160/227/11 163/226/11
f 151/220/12 154/221/12 164/222/12 161/251/12
f 127/234/9 139/230/9 138/246/9 136/229/9 125/228/9
f 126/241/10 137/221/10 140/222/10 128/223/10
f 156/228/9 146/227/9 153/246/9 163/229/9
f 147/221/10 157/222/10 164/251/10 154/220/10
f 132/219/12 152/225/12 162/239/12 144/238/12
f 132/238/7 130/219/7 131/240/7 151/225/7 152/239/7
