# Blender 4.2.3 LTS
# www.blender.org
mtllib Storage_Rack.mtl
o Cube.002
v 0.000000 3.100000 0.000000
v 0.000000 3.200000 0.000000
v 0.000000 3.100000 -1.900000
v 0.000000 3.200000 -1.900000
v 5.900001 3.100000 0.000000
v 5.900001 3.200000 0.000000
v 5.900001 3.100000 -1.900000
v 5.900001 3.200000 -1.900000
v 0.000000 0.000000 0.000000
v 0.000000 3.200000 0.000000
v 0.000000 0.000000 -1.900000
v 0.000000 3.200000 -1.900000
v 5.900001 0.000000 0.000000
v 5.900001 3.200000 0.000000
v 5.900001 0.000000 -1.900000
v 5.900001 3.200000 -1.900000
v 0.000000 1.500000 0.000000
v 0.000000 1.600000 0.000000
v 0.000000 1.500000 -1.900000
v 0.000000 1.600000 -1.900000
v 5.900001 1.500000 0.000000
v 5.900001 1.600000 0.000000
v 5.900001 1.500000 -1.900000
v 5.900001 1.600000 -1.900000
vn -0.0000 -1.0000 -0.0000
vn -0.0000 1.0000 -0.0000
vn -1.0000 -0.0000 -0.0000
vn -0.0000 -0.0000 -1.0000
vn 1.0000 -0.0000 -0.0000
vn -0.0000 -0.0000 1.0000
vt 0.500000 1.000000
vt 1.000000 1.000000
vt 1.000000 0.838983
vt 0.500000 0.838983
vt 0.500000 0.728814
vt 0.000000 0.728814
vt 0.000000 0.567797
vt 0.500000 0.567797
vt 0.737288 0.567797
vt 0.737288 0.838983
vt 0.898305 0.838983
vt 0.898305 0.567797
vt -0.000000 1.000000
s 0
usemtl Material.001
f 3/1/1 7/2/1 5/3/1 1/4/1
f 8/5/2 4/6/2 2/7/2 6/8/2
f 9/9/3 10/10/3 12/11/3 11/12/3
f 11/6/4 12/13/4 16/1/4 15/5/4
f 15/12/5 16/11/5 14/10/5 13/9/5
f 13/5/6 14/1/6 10/13/6 9/6/6
f 19/1/1 23/2/1 21/3/1 17/4/1
f 24/5/2 20/6/2 18/7/2 22/8/2
o Cube
v 0.200000 0.100000 -0.200000
v 0.200000 1.000000 -0.200000
v 0.200000 0.100000 -1.700000
v 0.200000 1.000000 -1.700000
v 1.500000 1.000000 -0.200000
v 1.500000 0.100000 -1.700000
v 1.500000 1.000000 -1.700000
v 0.200000 0.700000 -0.200000
v 0.200000 0.700000 -1.700000
v 1.500000 0.700000 -1.700000
v 1.500000 0.700000 -0.200000
v 1.400000 0.100000 -0.300000
v 1.500000 0.100000 -0.200000
v 0.300000 0.100000 -1.600000
v 1.400000 0.100000 -1.600000
v 0.300000 0.100000 -0.300000
v 0.300000 0.000000 -1.600000
v 0.300000 0.000000 -0.300000
v 1.400000 0.000000 -1.600000
v 1.400000 0.000000 -0.300000
vn -1.0000 -0.0000 -0.0000
vn -0.0000 -0.0000 -1.0000
vn 1.0000 -0.0000 -0.0000
vn -0.0000 -0.0000 1.0000
vn -0.0000 1.0000 -0.0000
vn -0.0000 -1.0000 -0.0000
vt 0.500000 0.762712
vt 0.500000 0.838983
vt 0.627119 0.838983
vt 0.627119 0.762712
vt 0.737288 0.838983
vt 0.737288 0.762712
vt 0.110169 0.491525
vt 0.110170 0.567797
vt 0.000000 0.567797
vt -0.000000 0.491525
vt 0.610169 0.754237
vt 0.500000 0.754237
vt 0.500000 0.627119
vt 0.610169 0.627119
vt 0.618644 0.745763
vt 0.720339 0.754237
vt 0.720339 0.627119
vt 0.711864 0.635593
vt 0.711864 0.745763
vt 0.618644 0.635593
vt 0.008475 0.491525
vt 0.101695 0.491525
vt 0.101695 0.483051
vt 0.008475 0.483051
vt 0.508475 0.762712
vt 0.618644 0.762712
vt 0.618644 0.754237
vt 0.508475 0.754237
s 0
usemtl Material.001
f 25/14/7 26/15/7 28/16/7 27/17/7
f 27/17/8 28/16/8 31/18/8 30/19/8
f 30/17/9 31/16/9 29/15/9 37/14/9
f 37/20/10 29/21/10 26/22/10 25/23/10
f 34/24/11 33/25/11 32/26/11 35/27/11
f 38/28/12 27/24/12 30/29/12 37/30/12 36/31/12 39/32/12
f 36/31/12 37/30/12 25/27/12 27/24/12 38/28/12 40/33/12
f 38/34/8 39/35/8 43/36/8 41/37/8
f 40/38/7 38/39/7 41/40/7 42/41/7
f 36/35/10 40/34/10 42/37/10 44/36/10
f 39/39/9 36/38/9 44/41/9 43/40/9
o Cube.001
v 1.600000 0.100000 -0.200000
v 1.600000 1.000000 -0.200000
v 1.600000 0.100000 -1.700000
v 1.600000 1.000000 -1.700000
v 2.900000 1.000000 -0.200000
v 2.900000 0.100000 -1.700000
v 2.900000 1.000000 -1.700000
v 1.600000 0.700000 -0.200000
v 1.600000 0.700000 -1.700000
v 2.900000 0.700000 -1.700000
v 2.900000 0.700000 -0.200000
v 2.800000 0.100000 -0.300000
v 2.900000 0.100000 -0.200000
v 1.700000 0.100000 -1.600000
v 2.800000 0.100000 -1.600000
v 1.700000 0.100000 -0.300000
v 1.700000 0.000000 -1.600000
v 1.700000 0.000000 -0.300000
v 2.800000 0.000000 -1.600000
v 2.800000 0.000000 -0.300000
vn -1.0000 -0.0000 -0.0000
vn -0.0000 -0.0000 -1.0000
vn 1.0000 -0.0000 -0.0000
vn -0.0000 -0.0000 1.0000
vn -0.0000 1.0000 -0.0000
vn -0.0000 -1.0000 -0.0000
vt 0.500000 0.762712
vt 0.500000 0.838983
vt 0.627119 0.838983
vt 0.627119 0.762712
vt 0.737288 0.838983
vt 0.737288 0.762712
vt 0.228814 0.491525
vt 0.228814 0.567797
vt 0.118644 0.567797
vt 0.118644 0.491525
vt 0.610169 0.627119
vt 0.500000 0.627119
vt 0.500000 0.500000
vt 0.610169 0.500000
vt 0.618644 0.745763
vt 0.610169 0.754237
vt 0.720339 0.754237
vt 0.720339 0.627119
vt 0.711864 0.635593
vt 0.711864 0.745763
vt 0.618644 0.635593
vt 0.008475 0.491525
vt 0.101695 0.491525
vt 0.101695 0.483051
vt 0.008475 0.483051
vt 0.508475 0.762712
vt 0.618644 0.762712
vt 0.618644 0.754237
vt 0.508475 0.754237
s 0
usemtl Material.001
f 45/42/13 46/43/13 48/44/13 47/45/13
f 47/45/14 48/44/14 51/46/14 50/47/14
f 50/45/15 51/44/15 49/43/15 57/42/15
f 57/48/16 49/49/16 46/50/16 45/51/16
f 54/52/17 53/53/17 52/54/17 55/55/17
f 58/56/18 47/57/18 50/58/18 57/59/18 56/60/18 59/61/18
f 56/60/18 57/59/18 45/52/18 47/57/18 58/56/18 60/62/18
f 58/63/14 59/64/14 63/65/14 61/66/14
f 60/67/13 58/68/13 61/69/13 62/70/13
f 56/64/16 60/63/16 62/66/16 64/65/16
f 59/68/15 56/67/15 64/70/15 63/69/15
o Cube.003
v 3.000000 0.100000 -0.200000
v 3.000000 1.000000 -0.200000
v 3.000000 0.100000 -1.700000
v 3.000000 1.000000 -1.700000
v 4.300000 1.000000 -0.200000
v 4.300000 0.100000 -1.700000
v 4.300000 1.000000 -1.700000
v 3.000000 0.700000 -0.200000
v 3.000000 0.700000 -1.700000
v 4.300000 0.700000 -1.700000
v 4.300000 0.700000 -0.200000
v 4.200000 0.100000 -0.300000
v 4.300000 0.100000 -0.200000
v 3.100000 0.100000 -1.600000
v 4.200000 0.100000 -1.600000
v 3.100000 0.100000 -0.300000
v 3.100000 0.000000 -1.600000
v 3.100000 0.000000 -0.300000
v 4.200000 0.000000 -1.600000
v 4.200000 0.000000 -0.300000
vn -1.0000 -0.0000 -0.0000
vn -0.0000 -0.0000 -1.0000
vn 1.0000 -0.0000 -0.0000
vn -0.0000 -0.0000 1.0000
vn -0.0000 1.0000 -0.0000
vn -0.0000 -1.0000 -0.0000
vt 0.500000 0.762712
vt 0.500000 0.838983
vt 0.627119 0.838983
vt 0.627119 0.762712
vt 0.737288 0.838983
vt 0.737288 0.762712
vt 0.347458 0.491525
vt 0.347458 0.567797
vt 0.237288 0.567797
vt 0.237288 0.491525
vt 0.610169 0.500000
vt 0.500000 0.500000
vt 0.500000 0.372881
vt 0.610169 0.372881
vt 0.618644 0.745763
vt 0.610169 0.754237
vt 0.720339 0.754237
vt 0.720339 0.627119
vt 0.711864 0.635593
vt 0.711864 0.745763
vt 0.610169 0.627119
vt 0.618644 0.635593
vt 0.008475 0.491525
vt 0.101695 0.491525
vt 0.101695 0.483051
vt 0.008475 0.483051
vt 0.508475 0.762712
vt 0.618644 0.762712
vt 0.618644 0.754237
vt 0.508475 0.754237
s 0
usemtl Material.001
f 65/71/19 66/72/19 68/73/19 67/74/19
f 67/74/20 68/73/20 71/75/20 70/76/20
f 70/74/21 71/73/21 69/72/21 77/71/21
f 77/77/22 69/78/22 66/79/22 65/80/22
f 74/81/23 73/82/23 72/83/23 75/84/23
f 78/85/24 67/86/24 70/87/24 77/88/24 76/89/24 79/90/24
f 76/89/24 77/88/24 65/91/24 67/86/24 78/85/24 80/92/24
f 78/93/20 79/94/20 83/95/20 81/96/20
f 80/97/19 78/98/19 81/99/19 82/100/19
f 76/94/22 80/93/22 82/96/22 84/95/22
f 79/98/21 76/97/21 84/100/21 83/99/21
o Cube.004
v 4.400000 0.100000 -0.200000
v 4.400000 1.000000 -0.200000
v 4.400000 0.100000 -1.700000
v 4.400000 1.000000 -1.700000
v 5.700000 1.000000 -0.200000
v 5.700000 0.100000 -1.700000
v 5.700000 1.000000 -1.700000
v 4.400000 0.700000 -0.200000
v 4.400000 0.700000 -1.700000
v 5.700000 0.700000 -1.700000
v 5.700000 0.700000 -0.200000
v 5.600000 0.100000 -0.300000
v 5.700000 0.100000 -0.200000
v 4.500000 0.100000 -1.600000
v 5.600000 0.100000 -1.600000
v 4.500000 0.100000 -0.300000
v 4.500000 0.000000 -1.600000
v 4.500000 0.000000 -0.300000
v 5.600000 0.000000 -1.600000
v 5.600000 0.000000 -0.300000
vn -1.0000 -0.0000 -0.0000
vn -0.0000 -0.0000 -1.0000
vn 1.0000 -0.0000 -0.0000
vn -0.0000 -0.0000 1.0000
vn -0.0000 1.0000 -0.0000
vn -0.0000 -1.0000 -0.0000
vt 0.500000 0.762712
vt 0.500000 0.838983
vt 0.627119 0.838983
vt 0.627119 0.762712
vt 0.737288 0.838983
vt 0.737288 0.762712
vt 0.466102 0.491525
vt 0.466102 0.567797
vt 0.355932 0.567797
vt 0.355932 0.491525
vt 0.720339 0.627119
vt 0.610169 0.627119
vt 0.610169 0.500000
vt 0.720339 0.500000
vt 0.618644 0.745763
vt 0.610169 0.754237
vt 0.720339 0.754237
vt 0.711864 0.635593
vt 0.711864 0.745763
vt 0.618644 0.635593
vt 0.008475 0.491525
vt 0.101695 0.491525
vt 0.101695 0.483051
vt 0.008475 0.483051
vt 0.508475 0.762712
vt 0.618644 0.762712
vt 0.618644 0.754237
vt 0.508475 0.754237
s 0
usemtl Material.001
f 85/101/25 86/102/25 88/103/25 87/104/25
f 87/104/26 88/103/26 91/105/26 90/106/26
f 90/104/27 91/103/27 89/102/27 97/101/27
f 97/107/28 89/108/28 86/109/28 85/110/28
f 94/111/29 93/112/29 92/113/29 95/114/29
f 98/115/30 87/116/30 90/117/30 97/111/30 96/118/30 99/119/30
f 96/118/30 97/111/30 85/112/30 87/116/30 98/115/30 100/120/30
f 98/121/26 99/122/26 103/123/26 101/124/26
f 100/125/25 98/126/25 101/127/25 102/128/25
f 96/122/28 100/121/28 102/124/28 104/123/28
f 99/126/27 96/125/27 104/128/27 103/127/27
