# Blender 4.2.3 LTS
# www.blender.org
mtllib Storage_Table.mtl
o Cube.004
v -2.150000 2.100000 -0.450000
v -2.150000 2.500000 -0.450000
v -1.450000 2.100000 -0.450000
v -1.450000 2.500000 -0.450000
v -2.150000 2.100000 0.650000
v -2.150000 2.500000 0.650000
v -1.450000 2.100000 0.650000
v -1.450000 2.500000 0.650000
v -1.950000 0.000000 0.750000
v -1.950000 1.400000 0.750000
v -1.950000 0.000000 -0.650000
v -1.950000 1.400000 -0.650000
v -1.650000 0.000000 0.750000
v -1.650000 1.400000 0.750000
v -1.650000 0.000000 -0.650000
v -1.650000 1.400000 -0.650000
v 1.650000 0.000000 0.750000
v 1.650000 1.400000 0.750000
v 1.650000 0.000000 -0.650000
v 1.650000 1.400000 -0.650000
v 1.950000 0.000000 0.750000
v 1.950000 1.400000 0.750000
v 1.950000 0.000000 -0.650000
v 1.950000 1.400000 -0.650000
v 2.150000 1.900000 0.850000
v 2.150000 1.900000 -0.750000
v -2.150000 1.900000 -0.750000
v -2.150000 1.900000 0.850000
v 2.150000 1.400000 -0.750000
v 2.150000 1.400000 0.850000
v -2.150000 1.400000 -0.750000
v -2.150000 1.400000 0.850000
v 2.250000 1.900000 -0.850000
v -2.250000 1.900000 -0.850000
v 2.250000 1.900000 0.850000
v -2.250000 1.900000 0.850000
v 2.250000 2.100000 -0.850000
v -2.250000 2.100000 -0.850000
v 2.250000 2.100000 0.850000
v -2.250000 2.100000 0.850000
v -2.150000 2.800000 0.850000
v 2.150000 2.800000 0.850000
v -2.150000 4.500000 0.850000
v 2.150000 4.500000 0.850000
v -2.250000 2.700000 0.850000
v -2.250000 2.700000 0.750000
v 2.250000 2.700000 0.850000
v 2.250000 2.700000 0.750000
v -2.150000 2.800000 0.850000
v -2.150000 2.800000 0.750000
v 2.150000 2.800000 0.850000
v 2.150000 2.800000 0.750000
v -2.250000 4.600000 0.850000
v -2.250000 4.600000 0.750000
v 2.250000 4.600000 0.750000
v 2.250000 4.600000 0.850000
v 2.150000 4.500000 0.750000
v 2.150000 4.500000 0.850000
v -2.150000 4.500000 0.750000
v -2.150000 4.500000 0.850000
v 2.149999 2.800000 0.750001
v -2.150000 2.800000 0.750000
v 2.149999 4.500000 0.750001
v -2.150000 4.500000 0.750000
v -1.450000 2.900000 0.850000
v -1.450000 3.000000 0.850000
v -1.450000 2.900000 0.450000
v -1.450000 3.000000 0.450000
v -0.350000 2.900000 0.850000
v -0.350000 3.000000 0.850000
v -0.350000 2.900000 0.450000
v -0.350000 3.000000 0.450000
v -0.750000 3.000000 0.650000
v -0.750000 3.400000 0.650000
v -0.750000 3.000000 0.450000
v -0.750000 3.400000 0.450000
v -0.550000 3.000000 0.650000
v -0.550000 3.400000 0.650000
v -0.550000 3.000000 0.450000
v -0.550000 3.400000 0.450000
v -0.550000 2.603044 0.380275
v -0.850000 2.603044 0.380275
v -0.550000 3.400000 0.450000
v -0.850000 3.400000 0.450000
v 1.597640 2.160084 0.322038
v 1.572247 2.454005 0.267584
v 1.473423 2.100000 0.055655
v 1.448031 2.393922 0.001200
v 2.050793 2.160084 0.110729
v 2.025401 2.454005 0.056275
v 1.926577 2.100000 -0.155655
v 1.901184 2.393922 -0.210109
v 1.646220 2.197974 -0.047021
v 1.736851 2.197974 -0.089282
v 1.637756 2.295948 -0.065172
v 1.728387 2.295948 -0.107434
v 1.439193 2.097835 -0.490993
v 1.529823 2.097835 -0.533255
v 1.430729 2.195808 -0.509145
v 1.521359 2.195808 -0.551406
vn -0.0000 -0.0000 -1.0000
vn 1.0000 -0.0000 -0.0000
vn -0.0000 -0.0000 1.0000
vn -1.0000 -0.0000 -0.0000
vn -0.0000 1.0000 -0.0000
vn -0.0000 -1.0000 -0.0000
vn -0.0000 0.0872 -0.9962
vn -0.9063 -0.0000 0.4226
vn 0.9063 -0.0000 -0.4226
vn 0.4141 0.2003 0.8879
vn 0.0846 -0.9797 0.1815
vn -0.0846 0.9797 -0.1815
vn -0.4141 -0.2003 -0.8879
vt 0.377778 0.322222
vt 0.333333 0.322222
vt 0.333333 0.400000
vt 0.377778 0.400000
vt 0.211111 0.277778
vt 0.211111 0.322222
vt 0.333333 0.277778
vt 0.211111 0.400000
vt 0.511111 0.844444
vt 0.511111 1.000000
vt 0.666667 1.000000
vt 0.666667 0.844444
vt 0.033333 0.766667
vt 0.033333 0.922222
vt 0.066667 0.922222
vt 0.066667 0.766667
vt 0.822222 1.000000
vt 0.822222 0.844444
vt 0.844444 0.844444
vt 0.844444 1.000000
vt 0.811111 1.000000
vt 0.811111 0.844444
vt 0.488889 0.922222
vt 0.011111 0.922222
vt 0.011111 0.977778
vt 0.488889 0.977778
vt 0.433333 0.766667
vt 0.433333 0.922222
vt 0.466667 0.922222
vt 0.466667 0.766667
vt 0.988889 0.822222
vt 0.988889 1.000000
vt 1.000000 1.000000
vt 1.000000 0.811111
vt 0.500000 0.811111
vt 0.500000 1.000000
vt 0.511111 0.822222
vt 0.066667 0.866667
vt 0.244444 0.866667
vt 0.244444 0.922222
vt 0.000000 0.400000
vt 0.022222 0.411111
vt 0.055556 0.411111
vt 0.055556 0.566667
vt 0.022222 0.566667
vt 0.000000 0.577778
vt 0.477778 0.577778
vt 0.455556 0.566667
vt 0.422222 0.566667
vt 0.422222 0.411111
vt 0.455556 0.411111
vt 0.477778 0.400000
vt 0.511111 0.733333
vt 0.988889 0.733333
vt 0.988889 0.788889
vt 1.000000 0.788889
vt 0.500000 0.788889
vt 0.511111 0.788889
vt 0.066667 0.844444
vt 0.255556 0.844444
vt 0.255556 0.866667
vt 0.000000 0.766667
vt 0.500000 0.577778
vt 0.500000 0.766667
vt 0.500000 0.977778
vt 0.000000 0.977778
vt 0.000000 1.000000
vt 0.988889 0.533333
vt 0.988889 0.722222
vt 0.511111 0.722222
vt 0.511111 0.533333
vt 0.500000 0.522222
vt 0.500000 0.733333
vt 1.000000 0.733333
vt 1.000000 0.522222
vt 0.511111 0.522222
vt 0.500000 0.722222
vt 1.000000 0.722222
vt 0.500000 0.533333
vt 0.511111 0.322222
vt 0.988889 0.322222
vt 0.988889 0.511111
vt 0.511111 0.511111
vt 0.122222 0.400000
vt 0.133333 0.400000
vt 0.133333 0.355556
vt 0.122222 0.355556
vt -0.000000 0.388889
vt 0.122222 0.400000
vt 0.122222 0.388889
vt 0.122222 0.300000
vt -0.000000 0.300000
vt 0.000000 0.344444
vt 0.122222 0.344444
vt -0.000000 0.344444
vt 0.122222 0.344444
vt 0.122222 0.388889
vt 0.000000 0.388889
vt 0.133333 0.355556
vt 0.155556 0.400000
vt 0.155556 0.355556
vt 0.133333 0.377778
vt 0.155556 0.377778
vt 0.155556 0.311111
vt 0.188889 0.311111
vt 0.188889 0.400000
vt 0.800000 0.511111
vt 0.833333 0.511111
vt 0.833333 0.477778
vt 0.800000 0.477778
vt 0.833333 0.477778
vt 0.833333 0.511111
vt 0.777778 0.511111
vt 0.777778 0.477778
vt 0.777778 0.477778
vt 0.833333 0.477778
vt 0.833333 0.511111
vt 0.777778 0.511111
vt 0.800000 0.422222
vt 0.811111 0.422222
vt 0.811111 0.477778
vt 0.800000 0.477778
vt 0.800000 0.500000
vt 0.800000 0.488889
vt 0.811111 0.488889
vt 0.800000 0.433333
vt 0.811111 0.433333
vt 0.811111 0.500000
s 0
usemtl Material.001
f 1/1/1 2/2/1 4/3/1 3/4/1
f 3/5/2 4/6/2 8/2/2 7/7/2
f 7/4/3 8/3/3 6/2/3 5/1/3
f 5/7/4 6/2/4 2/6/4 1/5/4
f 8/3/5 4/8/5 2/6/5 6/2/5
f 9/9/4 10/10/4 12/11/4 11/12/4
f 11/13/1 12/14/1 16/15/1 15/16/1
f 15/12/2 16/11/2 14/17/2 13/18/2
f 13/19/3 14/20/3 10/21/3 9/22/3
f 29/23/1 31/24/1 27/25/1 26/26/1
f 17/18/4 18/17/4 20/11/4 19/12/4
f 19/27/1 20/28/1 24/29/1 23/30/1
f 23/12/2 24/11/2 22/10/2 21/9/2
f 21/19/3 22/20/3 18/21/3 17/22/3
f 27/31/6 28/32/6 36/33/6 34/34/6 33/35/6 35/36/6 25/10/6 26/37/6
f 30/38/2 29/39/2 26/40/2 25/15/2
f 32/41/6 10/42/6 14/43/6 16/44/6 12/45/6 31/46/6 29/47/6 24/48/6 20/49/6 18/50/6 22/51/6 30/52/6
f 24/48/6 29/47/6 30/52/6 22/51/6
f 31/39/4 32/38/4 28/15/4 27/40/4
f 32/41/6 31/46/6 12/45/6 10/42/6
f 32/53/3 30/54/3 25/55/3 35/56/3 39/34/3 40/35/3 36/57/3 28/58/3
f 35/59/2 33/60/2 37/61/2 39/38/2
f 38/62/5 40/46/5 39/63/5 37/64/5
f 33/65/1 34/66/1 38/67/1 37/36/1
f 34/60/4 36/59/4 40/38/4 38/61/4
f 41/68/1 43/69/1 44/70/1 42/71/1
f 46/72/1 54/73/1 59/70/1 50/71/1 52/68/1 57/69/1 55/74/1 48/75/1
f 45/53/4 53/76/4 54/72/4 46/73/4
f 46/77/6 48/78/6 47/74/6 45/73/6
f 52/71/4 51/79/4 58/77/4 57/70/4
f 51/54/5 52/69/5 50/70/5 49/53/5
f 48/73/2 55/72/2 56/76/2 47/53/2
f 55/78/5 54/77/5 53/73/5 56/74/5
f 49/79/2 50/71/2 59/70/2 60/77/2
f 57/69/6 58/54/6 60/53/6 59/70/6
f 55/74/1 57/69/1 59/70/1 54/73/1
f 61/80/1 62/81/1 64/82/1 63/83/1
f 65/84/4 66/85/4 68/86/4 67/87/4
f 67/88/1 68/41/1 72/89/1 71/90/1
f 71/87/2 72/86/2 70/85/2 69/84/2
f 67/91/6 71/92/6 69/93/6 65/94/6
f 72/95/5 68/96/5 66/97/5 70/98/5
f 73/99/4 74/85/4 76/100/4 75/101/4
f 75/99/1 76/85/1 80/100/1 79/101/1
f 79/101/2 80/100/2 78/85/2 77/99/2
f 77/101/3 78/100/3 74/85/3 73/99/3
f 80/100/5 76/85/5 74/102/5 78/103/5
f 81/104/7 82/105/7 84/106/7 83/100/7
f 85/107/8 86/108/8 88/109/8 87/110/8
f 91/110/9 92/109/9 90/108/9 89/107/9
f 89/111/10 90/112/10 86/113/10 85/114/10
f 87/113/11 91/112/11 89/111/11 85/114/11
f 92/115/12 88/116/12 86/117/12 90/118/12
f 95/119/12 96/120/12 100/121/12 99/122/12
f 93/120/8 95/119/8 99/122/8 97/121/8
f 87/114/13 88/113/13 95/123/13 93/124/13 94/125/13 91/111/13
f 97/119/13 99/126/13 100/127/13 98/120/13
f 96/119/9 94/120/9 98/121/9 100/122/9
f 94/120/11 93/119/11 97/122/11 98/121/11
f 92/112/13 91/111/13 94/125/13 96/128/13 95/123/13 88/113/13
