# Export of Cubik Model: Cubik Model
# Designed by Gamerkm with Cubik Studio - https://cubik.studio
# from Cubik OBJ Exporter v1.0
mtllib CubikModel.mtl
v -28 -15.5 -19 1 1 1
v -26 -15.5 -19 1 1 1
v -26 -15.5 3 1 1 1
v -28 -15.5 3 1 1 1
v -26 -13 -19 1 1 1
v -28 -13 -19 1 1 1
v -28 -13 3 1 1 1
v -26 -13 3 1 1 1
v -26 -13 3 1 1 1
v -28 -13 3 1 1 1
v -28 -15.5 3 1 1 1
v -26 -15.5 3 1 1 1
v -28 -13 -19 1 1 1
v -26 -13 -19 1 1 1
v -26 -15.5 -19 1 1 1
v -28 -15.5 -19 1 1 1
v -26 -13 -19 1 1 1
v -26 -13 3 1 1 1
v -26 -15.5 3 1 1 1
v -26 -15.5 -19 1 1 1
v -28 -13 3 1 1 1
v -28 -13 -19 1 1 1
v -28 -15.5 -19 1 1 1
v -28 -15.5 3 1 1 1
vn 0 -1 0
vn 0 1 0
vn 0 0 1
vn 0 0 -1
vn 1 0 0
vn -1 0 0
vt 0.71875 0.25
vt 0.6875 0.25
vt 0.6875 0
vt 0.71875 0
vt 0.625 0.046875
vt 0.59375 0.046875
vt 0.59375 0.0078125
vt 0.625 0.0078125
vt 0.71875 0.046875
vt 0.6875 0.046875
vt 0.6875 0.0078125
vt 0.71875 0.0078125
vt 0.78125 0.046875
vt 0.53125 0.046875
vt 0.53125 0.0078125
vt 0.78125 0.0078125
v -30 7 7 1 1 1
v 14 7 7 1 1 1
v 14 7 7.5 1 1 1
v -30 7 7.5 1 1 1
v 14 8 7 1 1 1
v -30 8 7 1 1 1
v -30 8 7.5 1 1 1
v 14 8 7.5 1 1 1
v 14 8 7.5 1 1 1
v -30 8 7.5 1 1 1
v -30 7 7.5 1 1 1
v 14 7 7.5 1 1 1
v -30 8 7 1 1 1
v 14 8 7 1 1 1
v 14 7 7 1 1 1
v -30 7 7 1 1 1
v 14 8 7 1 1 1
v 14 8 7.5 1 1 1
v 14 7 7.5 1 1 1
v 14 7 7 1 1 1
v -30 8 7.5 1 1 1
v -30 8 7 1 1 1
v -30 7 7 1 1 1
v -30 7 7.5 1 1 1
vt 0.78125 0.140625
vt 0.53125 0.140625
vt 0.53125 0.1328125
vt 0.78125 0.1328125
vt 0.53125 0.109375
vt 0.78125 0.109375
vt 0.78125 0.1171875
vt 0.53125 0.1171875
vt 0.78125 0.125
vt 0.53125 0.125
vt 0.671875 0.125
vt 0.6640625 0.125
vt 0.6640625 0.109375
vt 0.671875 0.109375
vt 0.6484375 0.125
vt 0.640625 0.125
vt 0.640625 0.109375
vt 0.6484375 0.109375
v -31 7 -23 1 1 1
v 15 7 -23 1 1 1
v 15 7 7 1 1 1
v -31 7 7 1 1 1
v 15 8 -23 1 1 1
v -31 8 -23 1 1 1
v -31 8 7 1 1 1
v 15 8 7 1 1 1
v 15 8 7 1 1 1
v -31 8 7 1 1 1
v -31 7 7 1 1 1
v 15 7 7 1 1 1
v -31 8 -23 1 1 1
v 15 8 -23 1 1 1
v 15 7 -23 1 1 1
v -31 7 -23 1 1 1
v 15 8 -23 1 1 1
v 15 8 7 1 1 1
v 15 7 7 1 1 1
v 15 7 -23 1 1 1
v -31 8 7 1 1 1
v -31 8 -23 1 1 1
v -31 7 -23 1 1 1
v -31 7 7 1 1 1
vt 0.78125 0.25
vt 0.53125 0.25
vt 0.53125 0
vt 0.78125 0
v -31.5 7 -22 1 1 1
v -31 7 -22 1 1 1
v -31 7 6 1 1 1
v -31.5 7 6 1 1 1
v -31 8 -22 1 1 1
v -31.5 8 -22 1 1 1
v -31.5 8 6 1 1 1
v -31 8 6 1 1 1
v -31 8 6 1 1 1
v -31.5 8 6 1 1 1
v -31.5 7 6 1 1 1
v -31 7 6 1 1 1
v -31.5 8 -22 1 1 1
v -31 8 -22 1 1 1
v -31 7 -22 1 1 1
v -31.5 7 -22 1 1 1
v -31 8 -22 1 1 1
v -31 8 6 1 1 1
v -31 7 6 1 1 1
v -31 7 -22 1 1 1
v -31.5 8 6 1 1 1
v -31.5 8 -22 1 1 1
v -31.5 7 -22 1 1 1
v -31.5 7 6 1 1 1
vt 0.7734375 0.25
vt 0.765625 0.25
vt 0.765625 0
vt 0.7734375 0
vt 0.546875 0.125
vt 0.5390625 0.125
vt 0.5390625 0.109375
vt 0.546875 0.109375
vt 0.7734375 0.125
vt 0.765625 0.125
vt 0.765625 0.109375
vt 0.7734375 0.109375
v -30 7 -23.5 1 1 1
v 14 7 -23.5 1 1 1
v 14 7 -23 1 1 1
v -30 7 -23 1 1 1
v 14 8 -23.5 1 1 1
v -30 8 -23.5 1 1 1
v -30 8 -23 1 1 1
v 14 8 -23 1 1 1
v 14 8 -23 1 1 1
v -30 8 -23 1 1 1
v -30 7 -23 1 1 1
v 14 7 -23 1 1 1
v -30 8 -23.5 1 1 1
v 14 8 -23.5 1 1 1
v 14 7 -23.5 1 1 1
v -30 7 -23.5 1 1 1
v 14 8 -23.5 1 1 1
v 14 8 -23 1 1 1
v 14 7 -23 1 1 1
v 14 7 -23.5 1 1 1
v -30 8 -23 1 1 1
v -30 8 -23.5 1 1 1
v -30 7 -23.5 1 1 1
v -30 7 -23 1 1 1
v 15 7 -22 1 1 1
v 15.5 7 -22 1 1 1
v 15.5 7 6 1 1 1
v 15 7 6 1 1 1
v 15.5 8 -22 1 1 1
v 15 8 -22 1 1 1
v 15 8 6 1 1 1
v 15.5 8 6 1 1 1
v 15.5 8 6 1 1 1
v 15 8 6 1 1 1
v 15 7 6 1 1 1
v 15.5 7 6 1 1 1
v 15 8 -22 1 1 1
v 15.5 8 -22 1 1 1
v 15.5 7 -22 1 1 1
v 15 7 -22 1 1 1
v 15.5 8 -22 1 1 1
v 15.5 8 6 1 1 1
v 15.5 7 6 1 1 1
v 15.5 7 -22 1 1 1
v 15 8 6 1 1 1
v 15 8 -22 1 1 1
v 15 7 -22 1 1 1
v 15 7 6 1 1 1
vt 0.546875 0.25
vt 0.5390625 0.25
vt 0.5390625 0
vt 0.546875 0
v -29 -15.5 -10 1 1 1
v -25 -15.5 -10 1 1 1
v -25 -15.5 -6 1 1 1
v -29 -15.5 -6 1 1 1
v -25 -12.5 -10 1 1 1
v -29 -12.5 -10 1 1 1
v -29 -12.5 -6 1 1 1
v -25 -12.5 -6 1 1 1
v -25 -12.5 -6 1 1 1
v -29 -12.5 -6 1 1 1
v -29 -15.5 -6 1 1 1
v -25 -15.5 -6 1 1 1
v -29 -12.5 -10 1 1 1
v -25 -12.5 -10 1 1 1
v -25 -15.5 -10 1 1 1
v -29 -15.5 -10 1 1 1
v -25 -12.5 -10 1 1 1
v -25 -12.5 -6 1 1 1
v -25 -15.5 -6 1 1 1
v -25 -15.5 -10 1 1 1
v -29 -12.5 -6 1 1 1
v -29 -12.5 -10 1 1 1
v -29 -15.5 -10 1 1 1
v -29 -15.5 -6 1 1 1
vt 0.734375 0.15625
vt 0.671875 0.15625
vt 0.671875 0.09375
vt 0.734375 0.09375
vt 0.640625 0.0546875
vt 0.578125 0.0546875
vt 0.578125 0.0078125
vt 0.640625 0.0078125
vt 0.734375 0.0546875
vt 0.671875 0.0546875
vt 0.671875 0.0078125
vt 0.734375 0.0078125
vt 0.6875 0.0546875
vt 0.625 0.0546875
v -28.5 -13 -9.5 1 1 1
v -25.5 -13 -9.5 1 1 1
v -25.5 -13 -6.5 1 1 1
v -28.5 -13 -6.5 1 1 1
v -25.5 7 -9.5 1 1 1
v -28.5 7 -9.5 1 1 1
v -28.5 7 -6.5 1 1 1
v -25.5 7 -6.5 1 1 1
v -25.5 7 -6.5 1 1 1
v -28.5 7 -6.5 1 1 1
v -28.5 -13 -6.5 1 1 1
v -25.5 -13 -6.5 1 1 1
v -28.5 7 -9.5 1 1 1
v -25.5 7 -9.5 1 1 1
v -25.5 -13 -9.5 1 1 1
v -28.5 -13 -9.5 1 1 1
v -25.5 7 -9.5 1 1 1
v -25.5 7 -6.5 1 1 1
v -25.5 -13 -6.5 1 1 1
v -25.5 -13 -9.5 1 1 1
v -28.5 7 -6.5 1 1 1
v -28.5 7 -9.5 1 1 1
v -28.5 -13 -9.5 1 1 1
v -28.5 -13 -6.5 1 1 1
vt 0.7265625 0.1484375
vt 0.6796875 0.1484375
vt 0.6796875 0.1015625
vt 0.7265625 0.1015625
vt 0.6328125 0.109375
vt 0.5859375 0.109375
vt 0.5859375 0
vt 0.6328125 0
vt 0.7265625 0.109375
vt 0.6796875 0.109375
vt 0.6796875 0
vt 0.7265625 0
v 9 -15.5 -10 1 1 1
v 13 -15.5 -10 1 1 1
v 13 -15.5 -6 1 1 1
v 9 -15.5 -6 1 1 1
v 13 -12.5 -10 1 1 1
v 9 -12.5 -10 1 1 1
v 9 -12.5 -6 1 1 1
v 13 -12.5 -6 1 1 1
v 13 -12.5 -6 1 1 1
v 9 -12.5 -6 1 1 1
v 9 -15.5 -6 1 1 1
v 13 -15.5 -6 1 1 1
v 9 -12.5 -10 1 1 1
v 13 -12.5 -10 1 1 1
v 13 -15.5 -10 1 1 1
v 9 -15.5 -10 1 1 1
v 13 -12.5 -10 1 1 1
v 13 -12.5 -6 1 1 1
v 13 -15.5 -6 1 1 1
v 13 -15.5 -10 1 1 1
v 9 -12.5 -6 1 1 1
v 9 -12.5 -10 1 1 1
v 9 -15.5 -10 1 1 1
v 9 -15.5 -6 1 1 1
vt 0.640625 0.15625
vt 0.578125 0.15625
vt 0.578125 0.09375
vt 0.640625 0.09375
v 9.5 -13 -9.5 1 1 1
v 12.5 -13 -9.5 1 1 1
v 12.5 -13 -6.5 1 1 1
v 9.5 -13 -6.5 1 1 1
v 12.5 7 -9.5 1 1 1
v 9.5 7 -9.5 1 1 1
v 9.5 7 -6.5 1 1 1
v 12.5 7 -6.5 1 1 1
v 12.5 7 -6.5 1 1 1
v 9.5 7 -6.5 1 1 1
v 9.5 -13 -6.5 1 1 1
v 12.5 -13 -6.5 1 1 1
v 9.5 7 -9.5 1 1 1
v 12.5 7 -9.5 1 1 1
v 12.5 -13 -9.5 1 1 1
v 9.5 -13 -9.5 1 1 1
v 12.5 7 -9.5 1 1 1
v 12.5 7 -6.5 1 1 1
v 12.5 -13 -6.5 1 1 1
v 12.5 -13 -9.5 1 1 1
v 9.5 7 -6.5 1 1 1
v 9.5 7 -9.5 1 1 1
v 9.5 -13 -9.5 1 1 1
v 9.5 -13 -6.5 1 1 1
vt 0.6328125 0.1484375
vt 0.5859375 0.1484375
vt 0.5859375 0.1015625
vt 0.6328125 0.1015625
v 10 -14 -20.5 1 1 1
v 12 -14 -20.5 1 1 1
v 12 -14 -19 1 1 1
v 10 -14 -19 1 1 1
v 12 -13.5 -20.5 1 1 1
v 10 -13.5 -20.5 1 1 1
v 10 -13.5 -19 1 1 1
v 12 -13.5 -19 1 1 1
v 12 -13.5 -19 1 1 1
v 10 -13.5 -19 1 1 1
v 10 -14 -19 1 1 1
v 12 -14 -19 1 1 1
v 10 -13.5 -20.5 1 1 1
v 12 -13.5 -20.5 1 1 1
v 12 -14 -20.5 1 1 1
v 10 -14 -20.5 1 1 1
v 12 -13.5 -20.5 1 1 1
v 12 -13.5 -19 1 1 1
v 12 -14 -19 1 1 1
v 12 -14 -20.5 1 1 1
v 10 -13.5 -19 1 1 1
v 10 -13.5 -20.5 1 1 1
v 10 -14 -20.5 1 1 1
v 10 -14 -19 1 1 1
vt 0.625 0.0703125
vt 0.59375 0.0703125
vt 0.59375 0.1796875
vt 0.625 0.1796875
vt 0.625 0.203125
vt 0.59375 0.203125
vt 0.71875 0.0390625
vt 0.6875 0.0390625
vt 0.6875 0.03125
vt 0.71875 0.03125
vt 0.625 0.0390625
vt 0.59375 0.0390625
vt 0.59375 0.03125
vt 0.625 0.03125
vt 0.6015625 0.0390625
vt 0.578125 0.0390625
vt 0.578125 0.03125
vt 0.6015625 0.03125
vt 0.734375 0.0390625
vt 0.7109375 0.0390625
vt 0.7109375 0.03125
vt 0.734375 0.03125
v 10 -15.5 -19 1 1 1
v 12 -15.5 -19 1 1 1
v 12 -15.5 3 1 1 1
v 10 -15.5 3 1 1 1
v 12 -13 -19 1 1 1
v 10 -13 -19 1 1 1
v 10 -13 3 1 1 1
v 12 -13 3 1 1 1
v 12 -13 3 1 1 1
v 10 -13 3 1 1 1
v 10 -15.5 3 1 1 1
v 12 -15.5 3 1 1 1
v 10 -13 -19 1 1 1
v 12 -13 -19 1 1 1
v 12 -15.5 -19 1 1 1
v 10 -15.5 -19 1 1 1
v 12 -13 -19 1 1 1
v 12 -13 3 1 1 1
v 12 -15.5 3 1 1 1
v 12 -15.5 -19 1 1 1
v 10 -13 3 1 1 1
v 10 -13 -19 1 1 1
v 10 -15.5 -19 1 1 1
v 10 -15.5 3 1 1 1
vt 0.625 0.25
vt 0.59375 0.25
vt 0.59375 0
vt 0.625 0
v 10 -15.5 -22 1 1 1
v 12 -15.5 -22 1 1 1
v 12 -15.5 -21.5 1 1 1
v 10 -15.5 -21.5 1 1 1
v 12 -14.5 -22 1 1 1
v 10 -14.5 -22 1 1 1
v 10 -14.5 -21.5 1 1 1
v 12 -14.5 -21.5 1 1 1
v 12 -14.5 -21.5 1 1 1
v 10 -14.5 -21.5 1 1 1
v 10 -15.5 -21.5 1 1 1
v 12 -15.5 -21.5 1 1 1
v 10 -14.5 -22 1 1 1
v 12 -14.5 -22 1 1 1
v 12 -15.5 -22 1 1 1
v 10 -15.5 -22 1 1 1
v 12 -14.5 -22 1 1 1
v 12 -14.5 -21.5 1 1 1
v 12 -15.5 -21.5 1 1 1
v 12 -15.5 -22 1 1 1
v 10 -14.5 -21.5 1 1 1
v 10 -14.5 -22 1 1 1
v 10 -15.5 -22 1 1 1
v 10 -15.5 -21.5 1 1 1
vt 0.625 0.09375
vt 0.59375 0.09375
vt 0.59375 0.0859375
vt 0.625 0.0859375
vt 0.59375 0.15625
vt 0.625 0.15625
vt 0.625 0.1640625
vt 0.59375 0.1640625
vt 0.71875 0.0234375
vt 0.6875 0.0234375
vt 0.625 0.0234375
vt 0.59375 0.0234375
vt 0.6171875 0.0234375
vt 0.6171875 0.0078125
vt 0.6953125 0.0234375
vt 0.6953125 0.0078125
v 10 -15.5 -21.5 1 1 1
v 12 -15.5 -21.5 1 1 1
v 12 -15.5 -19 1 1 1
v 10 -15.5 -19 1 1 1
v 12 -14 -21.5 1 1 1
v 10 -14 -21.5 1 1 1
v 10 -14 -19 1 1 1
v 12 -14 -19 1 1 1
v 12 -14 -19 1 1 1
v 10 -14 -19 1 1 1
v 10 -15.5 -19 1 1 1
v 12 -15.5 -19 1 1 1
v 10 -14 -21.5 1 1 1
v 12 -14 -21.5 1 1 1
v 12 -15.5 -21.5 1 1 1
v 10 -15.5 -21.5 1 1 1
v 12 -14 -21.5 1 1 1
v 12 -14 -19 1 1 1
v 12 -15.5 -19 1 1 1
v 12 -15.5 -21.5 1 1 1
v 10 -14 -19 1 1 1
v 10 -14 -21.5 1 1 1
v 10 -15.5 -21.5 1 1 1
v 10 -15.5 -19 1 1 1
vt 0.6171875 0.03125
vt 0.6953125 0.03125
v 10 -15.5 3 1 1 1
v 12 -15.5 3 1 1 1
v 12 -15.5 5.5 1 1 1
v 10 -15.5 5.5 1 1 1
v 12 -14 3 1 1 1
v 10 -14 3 1 1 1
v 10 -14 5.5 1 1 1
v 12 -14 5.5 1 1 1
v 12 -14 5.5 1 1 1
v 10 -14 5.5 1 1 1
v 10 -15.5 5.5 1 1 1
v 12 -15.5 5.5 1 1 1
v 10 -14 3 1 1 1
v 12 -14 3 1 1 1
v 12 -15.5 3 1 1 1
v 10 -15.5 3 1 1 1
v 12 -14 3 1 1 1
v 12 -14 5.5 1 1 1
v 12 -15.5 5.5 1 1 1
v 12 -15.5 3 1 1 1
v 10 -14 5.5 1 1 1
v 10 -14 3 1 1 1
v 10 -15.5 3 1 1 1
v 10 -15.5 5.5 1 1 1
v 10 -14 3 1 1 1
v 12 -14 3 1 1 1
v 12 -14 4.5 1 1 1
v 10 -14 4.5 1 1 1
v 12 -13.5 3 1 1 1
v 10 -13.5 3 1 1 1
v 10 -13.5 4.5 1 1 1
v 12 -13.5 4.5 1 1 1
v 12 -13.5 4.5 1 1 1
v 10 -13.5 4.5 1 1 1
v 10 -14 4.5 1 1 1
v 12 -14 4.5 1 1 1
v 10 -13.5 3 1 1 1
v 12 -13.5 3 1 1 1
v 12 -14 3 1 1 1
v 10 -14 3 1 1 1
v 12 -13.5 3 1 1 1
v 12 -13.5 4.5 1 1 1
v 12 -14 4.5 1 1 1
v 12 -14 3 1 1 1
v 10 -13.5 4.5 1 1 1
v 10 -13.5 3 1 1 1
v 10 -14 3 1 1 1
v 10 -14 4.5 1 1 1
v 10 -15.5 5.5 1 1 1
v 12 -15.5 5.5 1 1 1
v 12 -15.5 6 1 1 1
v 10 -15.5 6 1 1 1
v 12 -14.5 5.5 1 1 1
v 10 -14.5 5.5 1 1 1
v 10 -14.5 6 1 1 1
v 12 -14.5 6 1 1 1
v 12 -14.5 6 1 1 1
v 10 -14.5 6 1 1 1
v 10 -15.5 6 1 1 1
v 12 -15.5 6 1 1 1
v 10 -14.5 5.5 1 1 1
v 12 -14.5 5.5 1 1 1
v 12 -15.5 5.5 1 1 1
v 10 -15.5 5.5 1 1 1
v 12 -14.5 5.5 1 1 1
v 12 -14.5 6 1 1 1
v 12 -15.5 6 1 1 1
v 12 -15.5 5.5 1 1 1
v 10 -14.5 6 1 1 1
v 10 -14.5 5.5 1 1 1
v 10 -15.5 5.5 1 1 1
v 10 -15.5 6 1 1 1
v -28 -15.5 3 1 1 1
v -26 -15.5 3 1 1 1
v -26 -15.5 5.5 1 1 1
v -28 -15.5 5.5 1 1 1
v -26 -14 3 1 1 1
v -28 -14 3 1 1 1
v -28 -14 5.5 1 1 1
v -26 -14 5.5 1 1 1
v -26 -14 5.5 1 1 1
v -28 -14 5.5 1 1 1
v -28 -15.5 5.5 1 1 1
v -26 -15.5 5.5 1 1 1
v -28 -14 3 1 1 1
v -26 -14 3 1 1 1
v -26 -15.5 3 1 1 1
v -28 -15.5 3 1 1 1
v -26 -14 3 1 1 1
v -26 -14 5.5 1 1 1
v -26 -15.5 5.5 1 1 1
v -26 -15.5 3 1 1 1
v -28 -14 5.5 1 1 1
v -28 -14 3 1 1 1
v -28 -15.5 3 1 1 1
v -28 -15.5 5.5 1 1 1
vt 0.71875 0.203125
vt 0.6875 0.203125
vt 0.6875 0.1640625
vt 0.71875 0.1640625
vt 0.71875 0.0859375
vt 0.6875 0.0859375
v -28 -14 3 1 1 1
v -26 -14 3 1 1 1
v -26 -14 4.5 1 1 1
v -28 -14 4.5 1 1 1
v -26 -13.5 3 1 1 1
v -28 -13.5 3 1 1 1
v -28 -13.5 4.5 1 1 1
v -26 -13.5 4.5 1 1 1
v -26 -13.5 4.5 1 1 1
v -28 -13.5 4.5 1 1 1
v -28 -14 4.5 1 1 1
v -26 -14 4.5 1 1 1
v -28 -13.5 3 1 1 1
v -26 -13.5 3 1 1 1
v -26 -14 3 1 1 1
v -28 -14 3 1 1 1
v -26 -13.5 3 1 1 1
v -26 -13.5 4.5 1 1 1
v -26 -14 4.5 1 1 1
v -26 -14 3 1 1 1
v -28 -13.5 4.5 1 1 1
v -28 -13.5 3 1 1 1
v -28 -14 3 1 1 1
v -28 -14 4.5 1 1 1
vt 0.6875 0.1796875
vt 0.71875 0.1796875
vt 0.71875 0.0703125
vt 0.6875 0.0703125
v -28 -15.5 5.5 1 1 1
v -26 -15.5 5.5 1 1 1
v -26 -15.5 6 1 1 1
v -28 -15.5 6 1 1 1
v -26 -14.5 5.5 1 1 1
v -28 -14.5 5.5 1 1 1
v -28 -14.5 6 1 1 1
v -26 -14.5 6 1 1 1
v -26 -14.5 6 1 1 1
v -28 -14.5 6 1 1 1
v -28 -15.5 6 1 1 1
v -26 -15.5 6 1 1 1
v -28 -14.5 5.5 1 1 1
v -26 -14.5 5.5 1 1 1
v -26 -15.5 5.5 1 1 1
v -28 -15.5 5.5 1 1 1
v -26 -14.5 5.5 1 1 1
v -26 -14.5 6 1 1 1
v -26 -15.5 6 1 1 1
v -26 -15.5 5.5 1 1 1
v -28 -14.5 6 1 1 1
v -28 -14.5 5.5 1 1 1
v -28 -15.5 5.5 1 1 1
v -28 -15.5 6 1 1 1
vt 0.6875 0.15625
vt 0.71875 0.15625
vt 0.71875 0.09375
vt 0.6875 0.09375
v -28 -14 -20.5 1 1 1
v -26 -14 -20.5 1 1 1
v -26 -14 -19 1 1 1
v -28 -14 -19 1 1 1
v -26 -13.5 -20.5 1 1 1
v -28 -13.5 -20.5 1 1 1
v -28 -13.5 -19 1 1 1
v -26 -13.5 -19 1 1 1
v -26 -13.5 -19 1 1 1
v -28 -13.5 -19 1 1 1
v -28 -14 -19 1 1 1
v -26 -14 -19 1 1 1
v -28 -13.5 -20.5 1 1 1
v -26 -13.5 -20.5 1 1 1
v -26 -14 -20.5 1 1 1
v -28 -14 -20.5 1 1 1
v -26 -13.5 -20.5 1 1 1
v -26 -13.5 -19 1 1 1
v -26 -14 -19 1 1 1
v -26 -14 -20.5 1 1 1
v -28 -13.5 -19 1 1 1
v -28 -13.5 -20.5 1 1 1
v -28 -14 -20.5 1 1 1
v -28 -14 -19 1 1 1
v -28 -15.5 -21.5 1 1 1
v -26 -15.5 -21.5 1 1 1
v -26 -15.5 -19 1 1 1
v -28 -15.5 -19 1 1 1
v -26 -14 -21.5 1 1 1
v -28 -14 -21.5 1 1 1
v -28 -14 -19 1 1 1
v -26 -14 -19 1 1 1
v -26 -14 -19 1 1 1
v -28 -14 -19 1 1 1
v -28 -15.5 -19 1 1 1
v -26 -15.5 -19 1 1 1
v -28 -14 -21.5 1 1 1
v -26 -14 -21.5 1 1 1
v -26 -15.5 -21.5 1 1 1
v -28 -15.5 -21.5 1 1 1
v -26 -14 -21.5 1 1 1
v -26 -14 -19 1 1 1
v -26 -15.5 -19 1 1 1
v -26 -15.5 -21.5 1 1 1
v -28 -14 -19 1 1 1
v -28 -14 -21.5 1 1 1
v -28 -15.5 -21.5 1 1 1
v -28 -15.5 -19 1 1 1
v -28 -15.5 -22 1 1 1
v -26 -15.5 -22 1 1 1
v -26 -15.5 -21.5 1 1 1
v -28 -15.5 -21.5 1 1 1
v -26 -14.5 -22 1 1 1
v -28 -14.5 -22 1 1 1
v -28 -14.5 -21.5 1 1 1
v -26 -14.5 -21.5 1 1 1
v -26 -14.5 -21.5 1 1 1
v -28 -14.5 -21.5 1 1 1
v -28 -15.5 -21.5 1 1 1
v -26 -15.5 -21.5 1 1 1
v -28 -14.5 -22 1 1 1
v -26 -14.5 -22 1 1 1
v -26 -15.5 -22 1 1 1
v -28 -15.5 -22 1 1 1
v -26 -14.5 -22 1 1 1
v -26 -14.5 -21.5 1 1 1
v -26 -15.5 -21.5 1 1 1
v -26 -15.5 -22 1 1 1
v -28 -14.5 -21.5 1 1 1
v -28 -14.5 -22 1 1 1
v -28 -15.5 -22 1 1 1
v -28 -15.5 -21.5 1 1 1
g Element #1
usemtl Element
f 1/1/1 2/2/1 4/4/1
f 2/2/1 3/3/1 4/4/1
f 5/3/2 6/4/2 8/2/2
f 6/4/2 7/1/2 8/2/2
f 9/5/3 10/6/3 12/8/3
f 10/6/3 11/7/3 12/8/3
f 13/9/4 14/10/4 16/12/4
f 14/10/4 15/11/4 16/12/4
f 17/13/5 18/14/5 20/16/5
f 18/14/5 19/15/5 20/16/5
f 21/13/6 22/14/6 24/16/6
f 22/14/6 23/15/6 24/16/6
g Element #2
usemtl Element
f 25/17/1 26/18/1 28/20/1
f 26/18/1 27/19/1 28/20/1
f 29/21/2 30/22/2 32/24/2
f 30/22/2 31/23/2 32/24/2
f 33/25/3 34/26/3 36/22/3
f 34/26/3 35/21/3 36/22/3
f 37/25/4 38/26/4 40/22/4
f 38/26/4 39/21/4 40/22/4
f 41/27/5 42/28/5 44/30/5
f 42/28/5 43/29/5 44/30/5
f 45/31/6 46/32/6 48/34/6
f 46/32/6 47/33/6 48/34/6
g Element #3
usemtl Element
f 49/35/1 50/36/1 52/38/1
f 50/36/1 51/37/1 52/38/1
f 53/37/2 54/38/2 56/36/2
f 54/38/2 55/35/2 56/36/2
f 57/25/3 58/26/3 60/22/3
f 58/26/3 59/21/3 60/22/3
f 61/25/4 62/26/4 64/22/4
f 62/26/4 63/21/4 64/22/4
f 65/25/5 66/26/5 68/22/5
f 66/26/5 67/21/5 68/22/5
f 69/25/6 70/26/6 72/22/6
f 70/26/6 71/21/6 72/22/6
g Element #4
usemtl Element
f 73/39/1 74/40/1 76/42/1
f 74/40/1 75/41/1 76/42/1
f 77/41/2 78/42/2 80/40/2
f 78/42/2 79/39/2 80/40/2
f 81/43/3 82/44/3 84/46/3
f 82/44/3 83/45/3 84/46/3
f 85/47/4 86/48/4 88/50/4
f 86/48/4 87/49/4 88/50/4
f 89/25/5 90/26/5 92/22/5
f 90/26/5 91/21/5 92/22/5
f 93/25/6 94/26/6 96/22/6
f 94/26/6 95/21/6 96/22/6
g Element #5
usemtl Element
f 97/23/1 98/24/1 100/22/1
f 98/24/1 99/21/1 100/22/1
f 101/19/2 102/20/2 104/18/2
f 102/20/2 103/17/2 104/18/2
f 105/25/3 106/26/3 108/22/3
f 106/26/3 107/21/3 108/22/3
f 109/25/4 110/26/4 112/22/4
f 110/26/4 111/21/4 112/22/4
f 113/31/5 114/32/5 116/34/5
f 114/32/5 115/33/5 116/34/5
f 117/27/6 118/28/6 120/30/6
f 118/28/6 119/29/6 120/30/6
g Element #6
usemtl Element
f 121/51/1 122/52/1 124/54/1
f 122/52/1 123/53/1 124/54/1
f 125/53/2 126/54/2 128/52/2
f 126/54/2 127/51/2 128/52/2
f 129/47/3 130/48/3 132/50/3
f 130/48/3 131/49/3 132/50/3
f 133/43/4 134/44/4 136/46/4
f 134/44/4 135/45/4 136/46/4
f 137/25/5 138/26/5 140/22/5
f 138/26/5 139/21/5 140/22/5
f 141/25/6 142/26/6 144/22/6
f 142/26/6 143/21/6 144/22/6
g Element #7
usemtl Element
f 145/55/1 146/56/1 148/58/1
f 146/56/1 147/57/1 148/58/1
f 149/57/2 150/58/2 152/56/2
f 150/58/2 151/55/2 152/56/2
f 153/59/3 154/60/3 156/62/3
f 154/60/3 155/61/3 156/62/3
f 157/63/4 158/64/4 160/66/4
f 158/64/4 159/65/4 160/66/4
f 161/67/5 162/68/5 164/11/5
f 162/68/5 163/8/5 164/11/5
f 165/67/6 166/68/6 168/11/6
f 166/68/6 167/8/6 168/11/6
g Element #8
usemtl Element
f 169/69/1 170/70/1 172/72/1
f 170/70/1 171/71/1 172/72/1
f 173/71/2 174/72/2 176/70/2
f 174/72/2 175/69/2 176/70/2
f 177/73/3 178/74/3 180/76/3
f 178/74/3 179/75/3 180/76/3
f 181/77/4 182/78/4 184/80/4
f 182/78/4 183/79/4 184/80/4
f 185/78/5 186/73/5 188/79/5
f 186/73/5 187/76/5 188/79/5
f 189/78/6 190/73/6 192/79/6
f 190/73/6 191/76/6 192/79/6
g Element #9
usemtl Element
f 193/81/1 194/82/1 196/84/1
f 194/82/1 195/83/1 196/84/1
f 197/83/2 198/84/2 200/82/2
f 198/84/2 199/81/2 200/82/2
f 201/63/3 202/64/3 204/66/3
f 202/64/3 203/65/3 204/66/3
f 205/59/4 206/60/4 208/62/4
f 206/60/4 207/61/4 208/62/4
f 209/67/5 210/68/5 212/11/5
f 210/68/5 211/8/5 212/11/5
f 213/67/6 214/68/6 216/11/6
f 214/68/6 215/8/6 216/11/6
g Element #10
usemtl Element
f 217/85/1 218/86/1 220/88/1
f 218/86/1 219/87/1 220/88/1
f 221/87/2 222/88/2 224/86/2
f 222/88/2 223/85/2 224/86/2
f 225/77/3 226/78/3 228/80/3
f 226/78/3 227/79/3 228/80/3
f 229/73/4 230/74/4 232/76/4
f 230/74/4 231/75/4 232/76/4
f 233/78/5 234/73/5 236/79/5
f 234/73/5 235/76/5 236/79/5
f 237/78/6 238/73/6 240/79/6
f 238/73/6 239/76/6 240/79/6
g Element #11
usemtl Element
f 241/89/1 242/90/1 244/5/1
f 242/90/1 243/6/1 244/5/1
f 245/91/2 246/92/2 248/94/2
f 246/92/2 247/93/2 248/94/2
f 249/95/3 250/96/3 252/98/3
f 250/96/3 251/97/3 252/98/3
f 253/99/4 254/100/4 256/102/4
f 254/100/4 255/101/4 256/102/4
f 257/103/5 258/104/5 260/106/5
f 258/104/5 259/105/5 260/106/5
f 261/107/6 262/108/6 264/110/6
f 262/108/6 263/109/6 264/110/6
g Element #12
usemtl Element
f 265/111/1 266/112/1 268/114/1
f 266/112/1 267/113/1 268/114/1
f 269/113/2 270/114/2 272/112/2
f 270/114/2 271/111/2 272/112/2
f 273/9/3 274/10/3 276/12/3
f 274/10/3 275/11/3 276/12/3
f 277/5/4 278/6/4 280/8/4
f 278/6/4 279/7/4 280/8/4
f 281/13/5 282/14/5 284/16/5
f 282/14/5 283/15/5 284/16/5
f 285/13/6 286/14/6 288/16/6
f 286/14/6 287/15/6 288/16/6
g Element #13
usemtl Element
f 289/115/1 290/116/1 292/118/1
f 290/116/1 291/117/1 292/118/1
f 293/119/2 294/120/2 296/122/2
f 294/120/2 295/121/2 296/122/2
f 297/123/3 298/124/3 300/12/3
f 298/124/3 299/11/3 300/12/3
f 301/125/4 302/126/4 304/8/4
f 302/126/4 303/7/4 304/8/4
f 305/125/5 306/127/5 308/8/5
f 306/127/5 307/128/5 308/8/5
f 309/129/6 310/124/6 312/130/6
f 310/124/6 311/11/6 312/130/6
g Element #14
usemtl Element
f 313/118/1 314/117/1 316/5/1
f 314/117/1 315/6/1 316/5/1
f 317/122/2 318/121/2 320/94/2
f 318/121/2 319/93/2 320/94/2
f 321/98/3 322/97/3 324/12/3
f 322/97/3 323/11/3 324/12/3
f 325/102/4 326/101/4 328/8/4
f 326/101/4 327/7/4 328/8/4
f 329/131/5 330/105/5 332/128/5
f 330/105/5 331/61/5 332/128/5
f 333/110/6 334/132/6 336/66/6
f 334/132/6 335/130/6 336/66/6
g Element #15
usemtl Element
f 337/93/1 338/94/1 340/121/1
f 338/94/1 339/122/1 340/121/1
f 341/6/2 342/5/2 344/117/2
f 342/5/2 343/118/2 344/117/2
f 345/98/3 346/97/3 348/12/3
f 346/97/3 347/11/3 348/12/3
f 349/102/4 350/101/4 352/8/4
f 350/101/4 351/7/4 352/8/4
f 353/110/5 354/132/5 356/66/5
f 354/132/5 355/130/5 356/66/5
f 357/131/6 358/105/6 360/128/6
f 358/105/6 359/61/6 360/128/6
g Element #16
usemtl Element
f 361/93/1 362/94/1 364/92/1
f 362/94/1 363/91/1 364/92/1
f 365/6/2 366/5/2 368/90/2
f 366/5/2 367/89/2 368/90/2
f 369/95/3 370/96/3 372/98/3
f 370/96/3 371/97/3 372/98/3
f 373/99/4 374/100/4 376/102/4
f 374/100/4 375/101/4 376/102/4
f 377/107/5 378/108/5 380/110/5
f 378/108/5 379/109/5 380/110/5
f 381/103/6 382/104/6 384/106/6
f 382/104/6 383/105/6 384/106/6
g Element #17
usemtl Element
f 385/121/1 386/122/1 388/120/1
f 386/122/1 387/119/1 388/120/1
f 389/117/2 390/118/2 392/116/2
f 390/118/2 391/115/2 392/116/2
f 393/123/3 394/124/3 396/12/3
f 394/124/3 395/11/3 396/12/3
f 397/125/4 398/126/4 400/8/4
f 398/126/4 399/7/4 400/8/4
f 401/129/5 402/124/5 404/130/5
f 402/124/5 403/11/5 404/130/5
f 405/125/6 406/127/6 408/8/6
f 406/127/6 407/128/6 408/8/6
g Element #18
usemtl Element
f 409/133/1 410/134/1 412/136/1
f 410/134/1 411/135/1 412/136/1
f 413/10/2 414/9/2 416/138/2
f 414/9/2 415/137/2 416/138/2
f 417/102/3 418/101/3 420/8/3
f 418/101/3 419/7/3 420/8/3
f 421/98/4 422/97/4 424/12/4
f 422/97/4 423/11/4 424/12/4
f 425/110/5 426/132/5 428/66/5
f 426/132/5 427/130/5 428/66/5
f 429/131/6 430/105/6 432/128/6
f 430/105/6 431/61/6 432/128/6
g Element #19
usemtl Element
f 433/133/1 434/134/1 436/140/1
f 434/134/1 435/139/1 436/140/1
f 437/10/2 438/9/2 440/142/2
f 438/9/2 439/141/2 440/142/2
f 441/99/3 442/100/3 444/102/3
f 442/100/3 443/101/3 444/102/3
f 445/95/4 446/96/4 448/98/4
f 446/96/4 447/97/4 448/98/4
f 449/107/5 450/108/5 452/110/5
f 450/108/5 451/109/5 452/110/5
f 453/103/6 454/104/6 456/106/6
f 454/104/6 455/105/6 456/106/6
g Element #20
usemtl Element
f 457/136/1 458/135/1 460/144/1
f 458/135/1 459/143/1 460/144/1
f 461/138/2 462/137/2 464/146/2
f 462/137/2 463/145/2 464/146/2
f 465/125/3 466/126/3 468/8/3
f 466/126/3 467/7/3 468/8/3
f 469/123/4 470/124/4 472/12/4
f 470/124/4 471/11/4 472/12/4
f 473/129/5 474/124/5 476/130/5
f 474/124/5 475/11/5 476/130/5
f 477/125/6 478/127/6 480/8/6
f 478/127/6 479/128/6 480/8/6
g Element #21
usemtl Element
f 481/141/1 482/142/1 484/9/1
f 482/142/1 483/10/1 484/9/1
f 485/139/2 486/140/2 488/134/2
f 486/140/2 487/133/2 488/134/2
f 489/99/3 490/100/3 492/102/3
f 490/100/3 491/101/3 492/102/3
f 493/95/4 494/96/4 496/98/4
f 494/96/4 495/97/4 496/98/4
f 497/103/5 498/104/5 500/106/5
f 498/104/5 499/105/5 500/106/5
f 501/107/6 502/108/6 504/110/6
f 502/108/6 503/109/6 504/110/6
g Element #22
usemtl Element
f 505/137/1 506/138/1 508/9/1
f 506/138/1 507/10/1 508/9/1
f 509/135/2 510/136/2 512/134/2
f 510/136/2 511/133/2 512/134/2
f 513/102/3 514/101/3 516/8/3
f 514/101/3 515/7/3 516/8/3
f 517/98/4 518/97/4 520/12/4
f 518/97/4 519/11/4 520/12/4
f 521/131/5 522/105/5 524/128/5
f 522/105/5 523/61/5 524/128/5
f 525/110/6 526/132/6 528/66/6
f 526/132/6 527/130/6 528/66/6
g Element #23
usemtl Element
f 529/145/1 530/146/1 532/137/1
f 530/146/1 531/138/1 532/137/1
f 533/143/2 534/144/2 536/135/2
f 534/144/2 535/136/2 536/135/2
f 537/125/3 538/126/3 540/8/3
f 538/126/3 539/7/3 540/8/3
f 541/123/4 542/124/4 544/12/4
f 542/124/4 543/11/4 544/12/4
f 545/125/5 546/127/5 548/8/5
f 546/127/5 547/128/5 548/8/5
f 549/129/6 550/124/6 552/130/6
f 550/124/6 551/11/6 552/130/6
