# Blender 3.3.1
# www.blender.org
mtllib Carrot_fase_1.mtl
o Cube.004
v -0.150000 0.600000 0.050000
v -0.150000 0.600000 -0.050000
v -0.050000 0.500000 0.050000
v -0.050000 0.600000 0.050000
v -0.050000 0.500000 -0.050000
v -0.050000 0.600000 -0.050000
v -0.150000 0.800000 0.050000
v -0.150000 0.800000 -0.050000
v -0.050000 0.700000 0.050000
v -0.050000 0.800000 0.050000
v -0.050000 0.700000 -0.050000
v -0.050000 0.800000 -0.050000
v 0.050000 0.500000 0.050000
v 0.050000 0.500000 -0.050000
v 0.050000 0.600000 -0.050000
v 0.150000 0.600000 -0.050000
v 0.050000 0.700000 0.050000
v 0.050000 0.700000 -0.050000
v 0.050000 0.800000 -0.050000
v 0.150000 0.800000 -0.050000
v 0.050000 0.600000 -0.150000
v 0.150000 0.600000 -0.150000
v 0.050000 0.800000 -0.150000
v 0.150000 0.800000 -0.150000
vn -1.0000 -0.0000 -0.0000
vn 1.0000 -0.0000 -0.0000
vn -0.0000 -0.0000 1.0000
vn -0.0000 -1.0000 -0.0000
vn -0.0000 1.0000 -0.0000
vn -0.0000 -0.0000 -1.0000
vt 0.500000 0.833333
vt 0.500000 0.500000
vt 0.000000 0.666666
vt 0.500000 1.000000
vt 0.666666 0.500000
vt 0.000000 0.166667
vt 0.833333 0.500000
vt 0.166666 0.500000
vt 0.833333 0.666666
vt 0.666666 0.833333
vt 0.166666 0.666666
vt 1.000000 0.500000
vt 0.166666 0.000000
vt 1.000000 0.666666
vt 0.666666 1.000000
vt 0.166666 0.166667
vt 0.833333 0.666666
vt 0.500000 0.833333
vt 0.000000 0.999999
vt 0.833333 0.833333
vt 0.666666 0.833333
vt 0.000000 0.500000
vt 0.833333 0.333333
vt 0.833333 0.166667
vt 0.166666 0.833333
vt 0.833333 0.500000
vt 0.999999 0.666666
vt 0.166666 0.999999
vt 0.999999 0.333333
vt 0.833333 0.333333
vt 0.166666 0.333333
vt 0.999999 0.500000
vt 0.999999 0.833333
vt 0.166666 0.500000
vt 0.500000 0.000000
vt 0.333333 0.500000
vt 0.666666 0.000000
vt 0.333333 0.000000
vt 0.333333 0.833333
vt 0.666666 0.166667
vt 0.333333 0.166667
vt 0.500000 0.833333
vt 0.500000 0.166667
vt 0.666666 0.500000
vt 0.999999 0.166667
vt 0.500000 0.333333
vt 0.333333 0.833333
vt 0.999999 0.333333
vt 0.666666 0.333333
vt 0.333333 0.333333
vt 0.333333 0.500000
vt 0.666666 0.500000
vt 0.833333 0.000000
vt 1.000000 0.000000
vt 0.500000 0.500000
vt 0.666666 0.833333
vt 0.333333 0.999999
vt 0.333333 0.500000
vt 0.833333 0.166667
vt 0.500000 0.999999
vt 0.500000 0.500000
vt 0.833333 0.500000
vt 0.833333 0.166667
vt 0.333333 0.833333
vt 0.833333 0.500000
vt 1.000000 0.166667
vt 0.500000 0.833333
vt 0.833333 0.833333
s 0
usemtl Material.001
f 5/12/1 3/7/1 4/9/1 6/14/1
f 15/40/2 13/35/2 14/37/2
f 20/55/3 19/51/3 18/50/3
f 13/36/3 4/11/3 3/8/3
f 19/52/1 23/65/1 18/49/1
f 4/10/4 1/1/4 2/4/4 6/15/4
f 9/23/2 11/29/2 12/32/2 10/26/2
f 7/17/5 10/27/5 12/33/5 8/20/5
f 9/25/3 10/28/3 7/19/3
f 12/34/6 11/31/6 8/22/6
f 5/13/6 6/16/6 15/41/6 14/38/6
f 9/24/5 17/45/5 18/48/5 11/30/5
f 16/42/4 15/39/4 21/57/4 22/60/4
f 19/53/5 20/54/5 24/66/5 23/63/5
f 2/5/1 1/2/1 7/18/1 8/21/1
f 7/19/3 1/3/3 4/11/3 9/25/3
f 2/6/6 8/22/6 11/31/6 6/16/6
f 13/35/2 15/40/2 18/49/2 17/46/2
f 18/50/3 15/41/3 16/43/3 20/55/3
f 21/58/6 23/64/6 24/67/6 22/61/6
f 21/59/1 15/40/1 18/49/1 23/65/1
f 16/44/2 22/62/2 24/68/2 20/56/2
f 9/25/3 4/11/3 13/36/3 17/47/3
f 6/16/6 11/31/6 18/50/6 15/41/6
