# Blender 4.2.3 LTS
# www.blender.org
mtllib Spear.mtl
o Plane
v -1.700000 0.000000 0.150000
v -1.100000 0.000000 0.150000
v -1.700000 0.000000 -0.150000
v -1.100000 0.000000 -0.150000
v 1.350000 -0.050000 0.050000
v 1.350000 0.050000 0.050000
v 1.350000 -0.050000 -0.050000
v -1.150000 -0.050000 0.050000
v 1.350000 0.050000 -0.050000
v -1.150000 -0.050000 -0.050000
v -1.150000 0.050000 -0.050000
v -1.150000 0.050000 0.050000
v 1.050000 0.050000 -0.050000
v 0.750000 0.050000 -0.050000
v 0.450000 0.050000 -0.050000
v 0.050000 0.050000 -0.050000
v -0.250000 0.050000 -0.050000
v -0.550000 0.050000 -0.050000
v -0.750000 0.050000 -0.050000
v 1.050000 -0.050000 -0.050000
v 0.750000 -0.050000 -0.050000
v 0.450000 -0.050000 -0.050000
v 0.050000 -0.050000 -0.050000
v -0.250000 -0.050000 -0.050000
v -0.550000 -0.050000 -0.050000
v -0.750000 -0.050000 -0.050000
v 1.050000 -0.050000 0.050000
v 0.750000 -0.050000 0.050000
v 0.450000 -0.050000 0.050000
v 0.050000 -0.050000 0.050000
v -0.250000 -0.050000 0.050000
v -0.550000 -0.050000 0.050000
v -0.750000 -0.050000 0.050000
v 1.050000 0.050000 0.050000
v 0.750000 0.050000 0.050000
v 0.450000 0.050000 0.050000
v 0.050000 0.050000 0.050000
v -0.250000 0.050000 0.050000
v -0.550000 0.050000 0.050000
v -0.750000 0.050000 0.050000
vn -0.0000 1.0000 -0.0000
vn -0.0000 -0.0000 -1.0000
vn 1.0000 -0.0000 -0.0000
vn -0.0000 -0.0000 1.0000
vn -0.0000 -1.0000 -0.0000
vn -1.0000 -0.0000 -0.0000
vt 0.000000 0.222222
vt 0.000000 0.000000
vt 0.111111 0.000000
vt 0.111111 0.222222
vt 0.259259 0.148148
vt 0.259259 0.000000
vt 0.222222 0.000000
vt 0.222222 0.148148
vt 0.703704 0.037037
vt 0.666667 0.037037
vt 0.666667 0.000000
vt 0.703704 0.000000
vt 0.111111 0.148148
vt 0.148148 0.000000
vt 0.148148 0.148148
vt 0.185185 0.851852
vt 0.148148 0.851852
vt 0.148148 1.000000
vt 0.185185 1.000000
vt 0.185185 0.148148
vt 0.185185 0.000000
vt 0.740741 0.037037
vt 0.740741 0.000000
vt 0.222222 0.851852
vt 0.222222 1.000000
vt 0.185185 0.740741
vt 0.222222 0.740741
vt 0.185185 0.629630
vt 0.222222 0.629630
vt 0.185185 0.518519
vt 0.222222 0.518519
vt 0.185185 0.370370
vt 0.222222 0.370370
vt 0.185185 0.259259
vt 0.222222 0.259259
vt 0.148148 0.259259
vt 0.148148 0.370370
vt 0.148148 0.518519
vt 0.148148 0.629630
vt 0.148148 0.740741
vt 0.111111 1.000000
vt 0.111111 0.851852
vt 0.111111 0.740741
vt 0.111111 0.629630
vt 0.111111 0.518519
vt 0.111111 0.370370
vt 0.111111 0.259259
vt 0.259259 1.000000
vt 0.259259 0.851852
vt 0.259259 0.740741
vt 0.259259 0.629630
vt 0.259259 0.518519
vt 0.259259 0.370370
vt 0.259259 0.259259
s 0
usemtl Material.001
f 1/1/1 2/2/1 4/3/1 3/4/1
f 13/5/2 9/6/2 7/7/2 20/8/2
f 7/9/3 9/10/3 6/11/3 5/12/3
f 27/13/4 5/3/4 6/14/4 34/15/4
f 26/16/5 33/17/5 8/18/5 10/19/5
f 34/20/1 6/21/1 9/7/1 13/8/1
f 11/9/6 10/22/6 8/23/6 12/12/6
f 12/19/1 40/16/1 19/24/1 11/25/1
f 40/16/1 39/26/1 18/27/1 19/24/1
f 39/26/1 38/28/1 17/29/1 18/27/1
f 38/28/1 37/30/1 16/31/1 17/29/1
f 37/30/1 36/32/1 15/33/1 16/31/1
f 36/32/1 35/34/1 14/35/1 15/33/1
f 35/34/1 34/20/1 13/8/1 14/35/1
f 7/21/5 5/14/5 27/15/5 20/20/5
f 20/20/5 27/15/5 28/36/5 21/34/5
f 21/34/5 28/36/5 29/37/5 22/32/5
f 22/32/5 29/37/5 30/38/5 23/30/5
f 23/30/5 30/38/5 31/39/5 24/28/5
f 24/28/5 31/39/5 32/40/5 25/26/5
f 25/26/5 32/40/5 33/17/5 26/16/5
f 8/41/4 33/42/4 40/17/4 12/18/4
f 33/42/4 32/43/4 39/40/4 40/17/4
f 32/43/4 31/44/4 38/39/4 39/40/4
f 31/44/4 30/45/4 37/38/4 38/39/4
f 30/45/4 29/46/4 36/37/4 37/38/4
f 29/46/4 28/47/4 35/36/4 36/37/4
f 28/47/4 27/13/4 34/15/4 35/36/4
f 11/48/2 19/49/2 26/24/2 10/25/2
f 19/49/2 18/50/2 25/27/2 26/24/2
f 18/50/2 17/51/2 24/29/2 25/27/2
f 17/51/2 16/52/2 23/31/2 24/29/2
f 16/52/2 15/53/2 22/33/2 23/31/2
f 15/53/2 14/54/2 21/35/2 22/33/2
f 14/54/2 13/5/2 20/8/2 21/35/2
